<?xml version="1.0" encoding="UTF-8"?>
<svg width="672px" height="105px" viewBox="0 0 672 105" version="1.1" xmlns="http://www.w3.org/2000/svg" xmlns:xlink="http://www.w3.org/1999/xlink">
    <title>btn-google</title>
    <g id="Page-1" stroke="none" stroke-width="1" fill="none" fill-rule="evenodd">
        <g id="Artboard-Copy-3" transform="translate(-1726.000000, -1010.000000)">
            <g id="btn-google" transform="translate(1726.000000, 1010.000000)">
                <polygon id="Stroke-1" stroke="#999999" points="0.5 104.469 670.543 104.469 670.543 0.499 0.5 0.499"></polygon>
                <path d="M258.6517,53.0435 C259.2117,50.5235 259.5197,47.4435 259.5197,45.0075 L259.5197,43.0205 L244.7637,43.0205 L244.7637,41.3125 L261.5357,41.3125 L261.5357,44.3635 C261.5357,47.3315 261.2277,50.4955 260.6957,53.0435 L265.2037,53.0435 L265.2037,54.7515 L254.4227,54.7515 L254.4227,65.2235 L252.4357,65.2235 L252.4357,54.7515 L241.6837,54.7515 L241.6837,53.0435 L258.6517,53.0435 Z" id="Fill-3" fill="#333333"></path>
                <path d="M285.7835,54.024 L285.7835,60.492 L271.1955,60.492 L271.1955,63.656 L286.5395,63.656 L286.5395,65.336 L269.2635,65.336 L269.2635,58.839 L283.8515,58.839 L283.8515,55.704 L269.1235,55.704 L269.1235,54.024 L285.7835,54.024 Z M285.6715,40.555 L285.6715,43.412 C285.6715,45.204 285.3915,47.444 285.0555,49.208 L289.2835,49.208 L289.2835,50.916 L265.7635,50.916 L265.7635,49.208 L282.9835,49.208 C283.4595,47.192 283.6835,45.204 283.6835,43.299 L283.6835,42.292 L268.8445,42.292 L268.8445,40.555 L285.6715,40.555 Z" id="Fill-4" fill="#333333"></path>
                <path d="M305.216,47.108 L311.991,47.108 L311.991,42.068 L305.216,42.068 L305.216,47.108 Z M316.864,55.059 L316.864,60.996 L302.247,60.996 L302.247,63.683 L317.619,63.683 L317.619,65.336 L300.344,65.336 L300.344,59.372 L314.959,59.372 L314.959,56.712 L300.203,56.712 L300.203,55.059 L316.864,55.059 Z M317.592,40.444 L317.592,42.068 L313.924,42.068 L313.924,47.108 L317.703,47.108 L317.703,48.732 L299.504,48.732 L299.504,47.108 L303.284,47.108 L303.284,42.068 L299.616,42.068 L299.616,40.444 L317.592,40.444 Z M296.844,52.679 L320.364,52.679 L320.364,50.999 L296.844,50.999 L296.844,52.679 Z" id="Fill-5" fill="#333333"></path>
                <path d="M340.86,65.223 L342.82,65.223 L342.82,39.631 L340.86,39.631 L340.86,65.223 Z M335.932,49.068 L335.932,40.164 L337.892,40.164 L337.892,63.963 L335.932,63.963 L335.932,50.86 L332.376,50.86 L332.376,49.068 L335.932,49.068 Z M324.032,56.824 L326.327,56.824 C328.736,56.824 330.808,56.767 333.636,56.347 L333.86,58.084 C330.948,58.532 328.371,58.587 325.936,58.587 L322.1,58.587 L322.1,49.124 L329.016,49.124 L329.016,43.58 L322.1,43.58 L322.1,41.872 L330.948,41.872 L330.948,50.832 L324.032,50.832 L324.032,56.824 Z" id="Fill-6" fill="#333333"></path>
                <path d="M364.129,65.223 L366.116,65.223 L366.116,39.631 L364.129,39.631 L364.129,65.223 Z M357.128,49.208 C357.128,44.952 355.364,43.272 352.732,43.272 C350.1,43.272 348.336,44.952 348.336,49.208 L348.336,51.168 C348.336,55.423 350.1,57.131 352.732,57.131 C355.364,57.131 357.128,55.423 357.128,51.168 L357.128,49.208 Z M359.06,51.504 C359.06,56.179 356.708,58.952 352.732,58.952 C348.756,58.952 346.404,56.179 346.404,51.504 L346.404,48.843 C346.404,44.168 348.756,41.423 352.732,41.423 C356.708,41.423 359.06,44.196 359.06,48.872 L359.06,51.504 Z" id="Fill-7" fill="#333333"></path>
                <path d="M395.9359,49.1236 L400.1919,49.1236 L400.1919,50.8876 L395.9359,50.8876 L395.9359,65.2236 L393.9479,65.2236 L393.9479,39.6316 L395.9359,39.6316 L395.9359,49.1236 Z M377.5119,41.9556 L389.1599,41.9556 L389.1599,43.7476 L379.4999,43.7476 L379.4999,56.5996 L382.8039,56.5996 C385.6599,56.5996 388.3759,56.4316 391.5119,55.8996 L391.7639,57.6636 C388.7959,58.1956 385.4359,58.3916 382.2999,58.3916 L377.5119,58.3916 L377.5119,41.9556 Z" id="Fill-8" fill="#333333"></path>
                <path d="M405.7923,44.9517 L405.7923,45.7357 C405.7923,47.5277 408.7043,48.7877 411.9243,48.7877 C415.1443,48.7877 418.0563,47.5277 418.0563,45.7357 L418.0563,44.9517 C418.0563,43.1597 415.1443,41.8997 411.9243,41.8997 C408.7043,41.8997 405.7923,43.1597 405.7923,44.9517 L405.7923,44.9517 Z M403.8883,45.8757 L403.8883,44.8117 C403.8883,42.0117 407.4433,40.2197 411.9243,40.2197 C416.4033,40.2197 419.9603,42.0117 419.9603,44.8117 L419.9603,45.8757 C419.9603,48.6757 416.4033,50.4677 411.9243,50.4677 C407.4433,50.4677 403.8883,48.6757 403.8883,45.8757 L403.8883,45.8757 Z M405.6513,63.1797 L420.7443,63.1797 L420.7443,64.9157 L403.6643,64.9157 L403.6643,57.3557 L405.6513,57.3557 L405.6513,63.1797 Z M423.6843,52.8197 L423.6843,54.4997 L413.2123,54.4997 L413.2123,59.7917 L411.2523,59.7917 L411.2523,54.4997 L400.1643,54.4997 L400.1643,52.8197 L423.6843,52.8197 Z" id="Fill-9" fill="#333333"></path>
                <polygon id="Fill-10" fill="#333333" points="444.2083 41.648 444.2083 49.236 429.6473 49.236 429.6473 53.379 444.7963 53.379 444.7963 55.087 436.9833 55.087 436.9833 59.904 447.7643 59.904 447.7643 61.612 424.2443 61.612 424.2443 59.904 435.0233 59.904 435.0233 55.087 427.7163 55.087 427.7163 47.555 442.2753 47.555 442.2753 43.356 427.6323 43.356 427.6323 41.648"></polygon>
                <path d="M468.68,53.6598 L451.657,53.6598 L451.657,41.9558 L468.4,41.9558 L468.4,43.6638 L453.644,43.6638 L453.644,51.9518 L468.68,51.9518 L468.68,53.6598 Z M448.324,61.6118 L471.844,61.6118 L471.844,59.9038 L448.324,59.9038 L448.324,61.6118 Z" id="Fill-11" fill="#333333"></path>
                <path d="M231.8929,49.5465 L225.2559,45.7135 L216.1639,52.5075 L225.2559,59.3015 L231.9149,55.4545 C232.9539,54.8235 233.5729,53.7225 233.5729,52.5075 C233.5729,51.2925 232.9539,50.1915 231.8929,49.5465" id="Fill-12" fill="#FF9100"></path>
                <path d="M218.4622,52.5074 C218.4522,52.5204 210.4232,62.8434 210.4172,62.8524 L199.9572,71.0894 C199.3142,70.4444 198.9232,69.5714 198.9232,68.6064 L198.9232,36.3514 C198.9232,35.3864 199.3142,34.5124 199.9572,33.8684 L210.4172,42.1624 C210.4232,42.1714 218.4522,52.4944 218.4622,52.5074" id="Fill-13" fill="#25D9F8"></path>
                <polygon id="Fill-14" fill="#00C0F1" points="218.4622 52.5074 216.1632 55.4734 216.1632 49.5414"></polygon>
                <path d="M225.2669,45.7027 L218.4619,52.5077 L199.9569,33.8687 C200.1879,33.6617 200.4169,33.5017 200.6699,33.3407 C201.7739,32.7197 203.0839,32.7427 204.1639,33.4097 L216.1629,40.4617 L225.2669,45.7027 Z" id="Fill-15" fill="#7FE881"></path>
                <polygon id="Fill-16" fill="#5BC980" points="225.2669 45.7027 218.4619 52.5077 216.1629 50.2087 216.1629 40.4617"></polygon>
                <path d="M225.2669,59.3121 L216.1629,64.5531 L204.1409,71.5721 C203.5899,71.8931 202.9919,72.0781 202.3709,72.0781 C201.7959,72.0781 201.2219,71.9161 200.6699,71.6181 C200.4169,71.4571 200.1879,71.2951 199.9569,71.0891 L218.4619,52.5071 L225.2669,59.3121 Z" id="Fill-17" fill="#FF637B"></path>
                <polygon id="Fill-18" fill="#E63950" points="225.2669 59.3121 216.1629 64.5531 216.1629 54.8061 218.4619 52.5071"></polygon>
            </g>
        </g>
    </g>
</svg>