<?xml version="1.0" encoding="UTF-8"?>
<svg width="672px" height="105px" viewBox="0 0 672 105" version="1.1" xmlns="http://www.w3.org/2000/svg" xmlns:xlink="http://www.w3.org/1999/xlink">
    <title>btn-app-store</title>
    <g id="Page-1" stroke="none" stroke-width="1" fill="none" fill-rule="evenodd">
        <g id="Artboard-Copy-3" transform="translate(-1726.000000, -1152.000000)">
            <g id="btn-app-store" transform="translate(1726.000000, 1152.000000)">
                <polygon id="Stroke-1" stroke="#999999" points="0.5 104.469 670.543 104.469 670.543 0.5 0.5 0.5"></polygon>
                <path d="M270.8851,46.0129 L274.5811,46.0129 L274.5811,40.4119 L276.5131,40.4119 L276.5131,53.5729 L274.5811,53.5729 L274.5811,47.7769 L270.8851,47.7769 L270.8851,53.5169 L268.9531,53.5169 L268.9531,40.7479 L270.8851,40.7479 L270.8851,46.0129 Z M262.5411,64.2129 L274.5811,64.2129 L274.5811,60.3209 L262.5411,60.3209 L262.5411,64.2129 Z M276.5131,55.0839 L276.5131,65.9769 L260.6091,65.9769 L260.6091,55.0839 L262.5411,55.0839 L262.5411,58.5839 L274.5811,58.5839 L274.5811,55.0839 L276.5131,55.0839 Z M257.0531,46.6849 L257.0531,47.6929 C257.0531,49.4009 258.3691,51.1089 260.7491,51.1089 C263.1291,51.1089 264.4461,49.4009 264.4461,47.6929 L264.4461,46.6849 C264.4461,44.9769 263.1291,43.2689 260.7491,43.2689 C258.3691,43.2689 257.0531,44.9769 257.0531,46.6849 L257.0531,46.6849 Z M255.1211,47.8889 L255.1211,46.4889 C255.1211,44.1929 257.0251,41.4769 260.7491,41.4769 C264.4731,41.4769 266.3771,44.1929 266.3771,46.4889 L266.3771,47.8889 C266.3771,50.1849 264.4731,52.9009 260.7491,52.9009 C257.0251,52.9009 255.1211,50.1849 255.1211,47.8889 L255.1211,47.8889 Z" id="Fill-3" fill="#333333"></path>
                <path d="M297.68,49.6525 C297.456,50.2125 296.42,51.1645 294.405,52.5085 C292.724,53.6285 290.428,55.0005 288.412,56.0925 L287.348,54.5245 C289.784,53.2645 291.94,51.9765 293.256,51.0805 C296.029,49.2045 296.672,48.3365 296.672,45.3125 L296.672,42.2325 L298.716,42.2325 L298.716,45.3125 C298.716,48.3365 299.332,49.2045 302.104,51.0805 C303.42,51.9765 305.548,53.2365 307.956,54.4965 L306.92,56.0365 C304.932,54.9445 302.664,53.6005 300.985,52.4805 C298.968,51.1365 297.96,50.2125 297.708,49.6525 L297.68,49.6525 Z M285.948,62.3925 L309.468,62.3925 L309.468,60.6845 L285.948,60.6845 L285.948,62.3925 Z" id="Fill-4" fill="#333333"></path>
                <polygon id="Fill-5" fill="#333333" points="330.4124 55.6447 322.7674 55.6447 322.7674 60.6847 333.5484 60.6847 333.5484 62.3927 310.0284 62.3927 310.0284 60.6847 320.8084 60.6847 320.8084 55.6447 313.4724 55.6447 313.4724 42.4287 330.1874 42.4287 330.1874 44.1087 315.4044 44.1087 315.4044 48.1967 330.0484 48.1967 330.0484 49.8757 315.4044 49.8757 315.4044 53.9637 330.4124 53.9637"></polygon>
                <path d="M345.7005,49.9884 C345.7005,45.7324 343.9645,44.0804 341.3325,44.0804 C338.7005,44.0804 336.9645,45.7324 336.9645,49.9884 L336.9645,51.9204 C336.9645,56.1764 338.7005,57.8564 341.3325,57.8564 C343.9645,57.8564 345.7005,56.1764 345.7005,51.9204 L345.7005,49.9884 Z M355.3325,66.0044 L353.3725,66.0044 L353.3725,51.3884 L347.6325,51.3884 L347.6325,52.2564 C347.6325,56.9324 345.2805,59.6764 341.3325,59.6764 C337.3845,59.6764 335.0325,56.9324 335.0325,52.2564 L335.0325,49.6244 C335.0325,44.9764 337.3845,42.2324 341.3325,42.2324 C345.2525,42.2324 347.6045,44.9764 347.6325,49.5964 L353.3725,49.5964 L353.3725,40.4124 L355.3325,40.4124 L355.3325,66.0044 Z" id="Fill-6" fill="#333333"></path>
                <path d="M385.0403,49.9045 L389.2963,49.9045 L389.2963,51.6685 L385.0403,51.6685 L385.0403,66.0045 L383.0523,66.0045 L383.0523,40.4125 L385.0403,40.4125 L385.0403,49.9045 Z M366.6163,42.7365 L378.2643,42.7365 L378.2643,44.5285 L368.6043,44.5285 L368.6043,57.3805 L371.9083,57.3805 C374.7643,57.3805 377.4803,57.2125 380.6163,56.6805 L380.8683,58.4445 C377.9003,58.9765 374.5403,59.1725 371.4043,59.1725 L366.6163,59.1725 L366.6163,42.7365 Z" id="Fill-7" fill="#333333"></path>
                <path d="M394.8968,45.7326 L394.8968,46.5166 C394.8968,48.3086 397.8088,49.5686 401.0288,49.5686 C404.2488,49.5686 407.1608,48.3086 407.1608,46.5166 L407.1608,45.7326 C407.1608,43.9406 404.2488,42.6806 401.0288,42.6806 C397.8088,42.6806 394.8968,43.9406 394.8968,45.7326 L394.8968,45.7326 Z M392.9928,46.6566 L392.9928,45.5926 C392.9928,42.7926 396.5478,41.0006 401.0288,41.0006 C405.5078,41.0006 409.0648,42.7926 409.0648,45.5926 L409.0648,46.6566 C409.0648,49.4566 405.5078,51.2486 401.0288,51.2486 C396.5478,51.2486 392.9928,49.4566 392.9928,46.6566 L392.9928,46.6566 Z M394.7558,63.9606 L409.8488,63.9606 L409.8488,65.6966 L392.7688,65.6966 L392.7688,58.1366 L394.7558,58.1366 L394.7558,63.9606 Z M412.7888,53.6006 L412.7888,55.2806 L402.3168,55.2806 L402.3168,60.5726 L400.3568,60.5726 L400.3568,55.2806 L389.2688,55.2806 L389.2688,53.6006 L412.7888,53.6006 Z" id="Fill-8" fill="#333333"></path>
                <polygon id="Fill-9" fill="#333333" points="433.3128 42.4289 433.3128 50.0169 418.7518 50.0169 418.7518 54.1599 433.9008 54.1599 433.9008 55.8679 426.0878 55.8679 426.0878 60.6849 436.8688 60.6849 436.8688 62.3929 413.3488 62.3929 413.3488 60.6849 424.1278 60.6849 424.1278 55.8679 416.8208 55.8679 416.8208 48.3359 431.3798 48.3359 431.3798 44.1369 416.7368 44.1369 416.7368 42.4289"></polygon>
                <path d="M457.7845,54.4406 L440.7615,54.4406 L440.7615,42.7366 L457.5045,42.7366 L457.5045,44.4446 L442.7485,44.4446 L442.7485,52.7326 L457.7845,52.7326 L457.7845,54.4406 Z M437.4285,62.3926 L460.9485,62.3926 L460.9485,60.6846 L437.4285,60.6846 L437.4285,62.3926 Z" id="Fill-10" fill="#333333"></path>
                <path d="M220.6195,72.3449 C214.7075,72.3109 209.8175,60.2429 209.8175,54.0969 C209.8175,44.0589 217.3485,41.8609 220.2515,41.8609 C221.5585,41.8609 222.9555,42.3739 224.1875,42.8279 C225.0495,43.1459 225.9395,43.4729 226.4345,43.4729 C226.7315,43.4729 227.4315,43.1949 228.0485,42.9499 C229.3635,42.4259 231.0015,41.7759 232.9085,41.7759 L232.9195,41.7759 C234.3435,41.7759 238.6605,42.0879 241.2565,45.9859 L241.8645,46.8999 L240.9895,47.5599 C239.7395,48.5029 237.4585,50.2229 237.4585,53.6309 C237.4585,57.6679 240.0415,59.2199 241.2825,59.9669 C241.8305,60.2959 242.3965,60.6359 242.3965,61.3789 C242.3965,61.8649 238.5245,72.2839 232.9005,72.2839 C231.5235,72.2839 230.5515,71.8699 229.6935,71.5059 C228.8255,71.1369 228.0765,70.8189 226.8385,70.8189 C226.2115,70.8189 225.4185,71.1159 224.5785,71.4299 C223.4315,71.8589 222.1325,72.3449 220.6575,72.3449 L220.6195,72.3449 Z" id="Fill-11" fill="#4D4D4D"></path>
                <path d="M233.5042,32.6242 C233.6502,37.9052 229.8732,41.5692 226.1012,41.3402 C225.4802,37.1252 229.8732,32.6242 233.5042,32.6242" id="Fill-12" fill="#4D4D4D"></path>
            </g>
        </g>
    </g>
</svg>