<?xml version="1.0" encoding="UTF-8"?>
<svg width="240px" height="60px" viewBox="0 0 240 60" version="1.1" xmlns="http://www.w3.org/2000/svg" xmlns:xlink="http://www.w3.org/1999/xlink">
    <title>btn_appstore_download 2</title>
    <g id="Page-1" stroke="none" stroke-width="1" fill="none" fill-rule="evenodd">
        <g id="case1" transform="translate(-1900.000000, -616.000000)">
            <g id="btn_appstore_download" transform="translate(1900.000000, 616.000000)">
                <rect id="Rectangle-Copy-6" stroke="#D5D5D5" fill="#FFFFFF" x="0.5" y="0.5" width="239" height="59"></rect>
                <g id="Group-6" transform="translate(39.636364, 15.000000)">
                    <path d="M8.23024592,26.4797 C3.87504779,26.4571883 0.272727273,18.4668608 0.272727273,14.3975409 C0.272727273,7.7512941 5.82059553,6.29597924 7.95915104,6.29597924 C8.92197986,6.29597924 9.95110905,6.63564099 10.8586876,6.93623832 C11.4936978,7.14678888 12.1493349,7.36329842 12.513987,7.36329842 C12.7327782,7.36329842 13.2484478,7.17923221 13.7029738,7.01701558 C14.6716959,6.67007064 15.8783628,6.2397 17.2831941,6.2397 L17.2912975,6.2397 C18.3403168,6.2397 21.5205249,6.44627791 23.4329225,9.02717751 L23.8808184,9.63234484 L23.2362314,10.0693366 C22.3153928,10.693705 20.6350466,11.832532 20.6350466,14.0889983 C20.6350466,16.761931 22.5378674,17.7895237 23.4520759,18.2841189 C23.8557716,18.5019526 24.2727273,18.7270696 24.2727273,19.2190163 C24.2727273,19.5408011 21.4203377,26.4393114 17.2773008,26.4393114 C16.262905,26.4393114 15.5468609,26.1651984 14.9147973,25.9241908 C14.275367,25.6798727 13.7236005,25.4693222 12.811602,25.4693222 C12.3497094,25.4693222 11.7655294,25.6659684 11.1467259,25.8738706 C10.3017644,26.1579152 9.34482893,26.4797 8.25823941,26.4797 L8.23024592,26.4797 Z" id="Fill-1" fill="#4D4D4D"></path>
                    <path d="M17.269981,0.0797 C17.3677545,3.80768046 14.8383676,6.3941831 12.3123292,6.23252668 C11.896457,3.25706036 14.8383676,0.0797 17.269981,0.0797" id="Fill-4" fill="#4D4D4D"></path>
                    <path d="M48.6209091,14.402 L48.6209091,6.068 L47.8469091,6.068 L47.8469091,9.758 L44.7329091,9.758 L44.7329091,6.284 L43.9589091,6.284 L43.9589091,14.366 L44.7329091,14.366 L44.7329091,10.478 L47.8469091,10.478 L47.8469091,14.402 L48.6209091,14.402 Z M38.6309091,13.898 C40.7369091,13.898 42.1589091,12.35 42.1589091,10.838 L42.1589091,9.83 C42.1589091,8.318 40.7369091,6.788 38.6309091,6.788 C36.5249091,6.788 35.1029091,8.318 35.1029091,9.83 L35.1029091,10.838 C35.1029091,12.35 36.5249091,13.898 38.6309091,13.898 Z M38.6309091,13.142 C37.0469091,13.142 35.8769091,12.17 35.8769091,10.712 L35.8769091,9.956 C35.8769091,8.534 37.0469091,7.544 38.6309091,7.544 C40.2149091,7.544 41.3849091,8.534 41.3849091,9.956 L41.3849091,10.712 C41.3849091,12.17 40.2149091,13.142 38.6309091,13.142 Z M48.6209091,22.34 L48.6209091,15.536 L47.8469091,15.536 L47.8469091,17.984 L39.3509091,17.984 L39.3509091,15.536 L38.5769091,15.536 L38.5769091,22.34 L48.6209091,22.34 Z M47.8469091,21.62 L39.3509091,21.62 L39.3509091,18.704 L47.8469091,18.704 L47.8469091,21.62 Z M68.5469091,15.914 L68.9609091,15.302 C67.1249091,14.348 66.0629091,13.718 65.1989091,13.16 C63.2549091,11.9 62.8229091,11.486 62.8229091,9.38 L62.8229091,7.508 L61.9949091,7.508 L61.9949091,9.38 C61.9949091,11.486 61.5629091,11.9 59.6189091,13.16 C58.7549091,13.718 57.6929091,14.348 55.8569091,15.302 L56.2709091,15.914 C57.3689091,15.338 59.1509091,14.33 60.2849091,13.574 C61.7249091,12.62 62.2469091,11.99 62.4089091,11.522 L62.4269091,11.522 C62.6069091,11.99 63.1289091,12.638 64.5329091,13.574 C65.6669091,14.33 67.4489091,15.338 68.5469091,15.914 Z M69.8969091,19.946 L69.8969091,19.262 L54.8849091,19.262 L54.8849091,19.946 L69.8969091,19.946 Z M85.3769091,19.946 L85.3769091,19.262 L78.2669091,19.262 L78.2669091,15.608 L83.3429091,15.608 L83.3429091,14.924 L73.4969091,14.924 L73.4969091,11.864 L83.1449091,11.864 L83.1449091,11.18 L73.4969091,11.18 L73.4969091,8.138 L83.2709091,8.138 L83.2709091,7.454 L72.7409091,7.454 L72.7409091,15.608 L77.4929091,15.608 L77.4929091,19.262 L70.3649091,19.262 L70.3649091,19.946 L85.3769091,19.946 Z M99.2549091,22.376 L99.2549091,6.068 L98.4809091,6.068 L98.4809091,12.062 L94.3409091,12.062 L94.3409091,11.972 C94.3409091,9.182 93.0629091,7.274 90.4169091,7.274 C87.7709091,7.274 86.4929091,9.182 86.4929091,11.972 L86.4929091,13.538 C86.4929091,16.328 87.7709091,18.236 90.4169091,18.236 C93.0629091,18.236 94.3409091,16.328 94.3409091,13.538 L94.3409091,12.782 L98.4809091,12.782 L98.4809091,22.376 L99.2549091,22.376 Z M90.4169091,17.516 C88.2749091,17.516 87.2669091,15.896 87.2669091,13.322 L87.2669091,12.188 C87.2669091,9.614 88.2749091,7.994 90.4169091,7.994 C92.5589091,7.994 93.5669091,9.614 93.5669091,12.188 L93.5669091,13.322 C93.5669091,15.896 92.5589091,17.516 90.4169091,17.516 Z M118.352909,22.376 L118.352909,12.998 L121.268909,12.998 L121.268909,12.278 L118.352909,12.278 L118.352909,6.068 L117.578909,6.068 L117.578909,22.376 L118.352909,22.376 Z M110.270909,17.966 C111.962909,17.966 114.338909,17.822 115.832909,17.534 L115.724909,16.814 C114.194909,17.12 112.124909,17.246 110.540909,17.246 L107.606909,17.246 L107.606909,8.282 L114.176909,8.282 L114.176909,7.562 L106.832909,7.562 L106.832909,17.966 L110.270909,17.966 Z M128.810909,12.854 C131.402909,12.854 133.814909,11.9 133.814909,9.974 L133.814909,9.416 C133.814909,7.418 131.402909,6.536 128.810909,6.536 C126.218909,6.536 123.806909,7.418 123.806909,9.416 L123.806909,9.974 C123.806909,11.972 126.218909,12.854 128.810909,12.854 Z M128.810909,12.152 C126.614909,12.152 124.580909,11.558 124.580909,9.938 L124.580909,9.47 C124.580909,7.832 126.614909,7.238 128.810909,7.238 C131.006909,7.238 133.040909,7.832 133.040909,9.47 L133.040909,9.938 C133.040909,11.486 131.006909,12.152 128.810909,12.152 Z M129.332909,18.938 L129.332909,15.338 L136.316909,15.338 L136.316909,14.654 L121.304909,14.654 L121.304909,15.338 L128.576909,15.338 L128.576909,18.938 L129.332909,18.938 Z M134.408909,22.16 L134.408909,21.476 L124.328909,21.476 L124.328909,17.336 L123.572909,17.336 L123.572909,22.16 L134.408909,22.16 Z M151.796909,19.946 L151.796909,19.262 L144.668909,19.262 L144.668909,15.77 L149.798909,15.77 L149.798909,15.086 L139.844909,15.086 L139.844909,11.882 L149.438909,11.882 L149.438909,7.346 L139.070909,7.346 L139.070909,8.03 L148.700909,8.03 L148.700909,11.216 L139.106909,11.216 L139.106909,15.77 L143.894909,15.77 L143.894909,19.262 L136.784909,19.262 L136.784909,19.946 L151.796909,19.946 Z M165.170909,14.744 L165.170909,14.042 L155.288909,14.042 L155.288909,8.336 L165.008909,8.336 L165.008909,7.634 L154.514909,7.634 L154.514909,14.744 L165.170909,14.744 Z M167.276909,19.946 L167.276909,19.244 L152.264909,19.244 L152.264909,19.946 L167.276909,19.946 Z" id="앱스토어다운로드" fill="#000000" fill-rule="nonzero"></path>
                </g>
            </g>
        </g>
    </g>
</svg>