<?xml version="1.0" encoding="UTF-8"?>
<svg width="240px" height="60px" viewBox="0 0 240 60" version="1.1" xmlns="http://www.w3.org/2000/svg" xmlns:xlink="http://www.w3.org/1999/xlink">
    <title>btn_googleplay_download</title>
    <defs>
        <polygon id="path-1" points="1.00985455 0.2347 15.2476364 0.2347 15.2476364 10.4207 1.00985455 10.4207"></polygon>
        <polygon id="path-3" points="0.845454545 0.622 21.5454545 0.622 21.5454545 15.3289 0.845454545 15.3289"></polygon>
    </defs>
    <g id="Page-1" stroke="none" stroke-width="1" fill="none" fill-rule="evenodd">
        <g id="case1" transform="translate(-1645.000000, -616.000000)">
            <g id="btn_googleplay_download" transform="translate(1645.000000, 616.000000)">
                <rect id="Rectangle" stroke="#D5D5D5" fill="#FFFFFF" x="0.5" y="0.5" width="239" height="59"></rect>
                <path d="M74.5763636,37.376 L74.5763636,30.5 L81.7223636,30.5 L81.7223636,29.816 L78.7343636,29.816 C79.0763636,28.34 79.3103636,26.09 79.3103636,24.002 L79.3103636,22.202 L68.7623636,22.202 L68.7623636,22.886 L78.5543636,22.886 L78.5543636,24.416 C78.5543636,26 78.3023636,28.34 77.9603636,29.816 L66.7103636,29.816 L66.7103636,30.5 L73.8023636,30.5 L73.8023636,37.376 L74.5763636,37.376 Z M97.2023636,28.052 L97.2023636,27.368 L94.3763636,27.368 C94.6643636,26.108 94.8443636,24.92 94.8443636,23.228 L94.8443636,21.716 L84.1703636,21.716 L84.1703636,22.4 L94.0883636,22.4 L94.0883636,23.264 C94.0883636,24.83 93.9083636,26.09 93.5843636,27.368 L82.1903636,27.368 L82.1903636,28.052 L97.2023636,28.052 Z M95.3843636,37.412 L95.3843636,36.746 L85.2683636,36.746 L85.2683636,34.19 L94.8983636,34.19 L94.8983636,30.338 L84.4223636,30.338 L84.4223636,31.004 L94.1423636,31.004 L94.1423636,33.542 L84.5123636,33.542 L84.5123636,37.412 L95.3843636,37.412 Z M115.472364,26.702 L115.472364,26.036 L112.844364,26.036 L112.844364,22.274 L115.400364,22.274 L115.400364,21.608 L103.934364,21.608 L103.934364,22.274 L106.490364,22.274 L106.490364,26.036 L103.862364,26.036 L103.862364,26.702 L115.472364,26.702 Z M112.088364,26.036 L107.246364,26.036 L107.246364,22.274 L112.088364,22.274 L112.088364,26.036 Z M117.182364,29.186 L117.182364,28.52 L102.170364,28.52 L102.170364,29.186 L117.182364,29.186 Z M115.364364,37.412 L115.364364,36.746 L105.248364,36.746 L105.248364,34.496 L114.878364,34.496 L114.878364,30.968 L104.402364,30.968 L104.402364,31.634 L114.122364,31.634 L114.122364,33.848 L104.492364,33.848 L104.492364,37.412 L115.364364,37.412 Z M131.474364,37.376 L131.474364,21.068 L130.700364,21.068 L130.700364,37.376 L131.474364,37.376 Z M128.396364,36.566 L128.396364,21.41 L127.622364,21.41 L127.622364,27.278 L124.958364,27.278 L124.958364,28.016 L127.622364,28.016 L127.622364,36.566 L128.396364,36.566 Z M120.386364,33.038 C121.556364,33.038 124.202364,32.93 125.930364,32.624 L125.840364,31.922 C124.238364,32.192 121.844364,32.318 120.602364,32.318 L119.198364,32.318 L119.198364,28.034 L123.914364,28.034 L123.914364,22.544 L118.442364,22.544 L118.442364,23.246 L123.158364,23.246 L123.158364,27.332 L118.442364,27.332 L118.442364,33.038 L120.386364,33.038 Z M146.522364,37.376 L146.522364,21.068 L145.748364,21.068 L145.748364,37.376 L146.522364,37.376 Z M138.044364,33.254 C140.690364,33.254 141.986364,31.328 141.986364,28.538 L141.986364,26.972 C141.986364,24.182 140.690364,22.256 138.044364,22.256 C135.398364,22.256 134.102364,24.182 134.102364,26.972 L134.102364,28.538 C134.102364,31.328 135.398364,33.254 138.044364,33.254 Z M138.044364,32.534 C135.902364,32.534 134.876364,30.896 134.876364,28.322 L134.876364,27.188 C134.876364,24.614 135.902364,22.976 138.044364,22.976 C140.186364,22.976 141.212364,24.614 141.212364,27.188 L141.212364,28.322 C141.212364,30.896 140.186364,32.534 138.044364,32.534 Z M165.638364,37.376 L165.638364,27.998 L168.554364,27.998 L168.554364,27.278 L165.638364,27.278 L165.638364,21.068 L164.864364,21.068 L164.864364,37.376 L165.638364,37.376 Z M157.556364,32.966 C159.248364,32.966 161.624364,32.822 163.118364,32.534 L163.010364,31.814 C161.480364,32.12 159.410364,32.246 157.826364,32.246 L154.892364,32.246 L154.892364,23.282 L161.462364,23.282 L161.462364,22.562 L154.118364,22.562 L154.118364,32.966 L157.556364,32.966 Z M176.096364,27.854 C178.688364,27.854 181.100364,26.9 181.100364,24.974 L181.100364,24.416 C181.100364,22.418 178.688364,21.536 176.096364,21.536 C173.504364,21.536 171.092364,22.418 171.092364,24.416 L171.092364,24.974 C171.092364,26.972 173.504364,27.854 176.096364,27.854 Z M176.096364,27.152 C173.900364,27.152 171.866364,26.558 171.866364,24.938 L171.866364,24.47 C171.866364,22.832 173.900364,22.238 176.096364,22.238 C178.292364,22.238 180.326364,22.832 180.326364,24.47 L180.326364,24.938 C180.326364,26.486 178.292364,27.152 176.096364,27.152 Z M176.618364,33.938 L176.618364,30.338 L183.602364,30.338 L183.602364,29.654 L168.590364,29.654 L168.590364,30.338 L175.862364,30.338 L175.862364,33.938 L176.618364,33.938 Z M181.694364,37.16 L181.694364,36.476 L171.614364,36.476 L171.614364,32.336 L170.858364,32.336 L170.858364,37.16 L181.694364,37.16 Z M199.082364,34.946 L199.082364,34.262 L191.954364,34.262 L191.954364,30.77 L197.084364,30.77 L197.084364,30.086 L187.130364,30.086 L187.130364,26.882 L196.724364,26.882 L196.724364,22.346 L186.356364,22.346 L186.356364,23.03 L195.986364,23.03 L195.986364,26.216 L186.392364,26.216 L186.392364,30.77 L191.180364,30.77 L191.180364,34.262 L184.070364,34.262 L184.070364,34.946 L199.082364,34.946 Z M212.456364,29.744 L212.456364,29.042 L202.574364,29.042 L202.574364,23.336 L212.294364,23.336 L212.294364,22.634 L201.800364,22.634 L201.800364,29.744 L212.456364,29.744 Z M214.562364,34.946 L214.562364,34.244 L199.550364,34.244 L199.550364,34.946 L214.562364,34.946 Z" id="구글플레이다운로드" fill="#000000" fill-rule="nonzero"></path>
                <g id="Group-17" transform="translate(27.818182, 14.000000)">
                    <g id="Group-3" transform="translate(13.090909, 10.378000)">
                        <mask id="mask-2" fill="white">
                            <use xlink:href="#path-1"></use>
                        </mask>
                        <g id="Clip-2"></g>
                        <path d="M13.8738545,3.1087 L8.44549091,0.2347 L1.00985455,5.3287 L8.44549091,10.4207 L13.8924,7.5387 C14.7411273,7.0647 15.2484,6.2387 15.2484,5.3287 C15.2484,4.4177 14.7411273,3.5907 13.8738545,3.1087" id="Fill-1" fill="#FF9100" mask="url(#mask-2)"></path>
                    </g>
                    <path d="M15.9800727,15.7064 C15.9724364,15.7164 9.40625455,23.4554 9.4008,23.4614 L0.845890909,29.6374 C0.320072727,29.1544 0.000436363636,28.4994 0.000436363636,27.7754 L0.000436363636,3.5944 C0.000436363636,2.8704 0.320072727,2.2154 0.845890909,1.7324 L9.4008,7.9504 C9.40625455,7.9574 15.9724364,15.6964 15.9800727,15.7064" id="Fill-4" fill="#25D9F8"></path>
                    <polygon id="Fill-6" fill="#00C0F1" points="15.9800727 15.7064 14.1004364 17.9294 14.1004364 13.4824"></polygon>
                    <g id="Group-10" transform="translate(0.000000, 0.378000)">
                        <mask id="mask-4" fill="white">
                            <use xlink:href="#path-3"></use>
                        </mask>
                        <g id="Clip-9"></g>
                        <path d="M21.5454545,10.2269 L15.9796364,15.3289 L0.845454545,1.3549 C1.03418182,1.1999 1.22181818,1.0799 1.42909091,0.9579 C2.33127273,0.4939 3.40254545,0.5099 4.28727273,1.0099 L14.1010909,6.2979 L21.5454545,10.2269 Z" id="Fill-8" fill="#7FE881" mask="url(#mask-4)"></path>
                    </g>
                    <polygon id="Fill-11" fill="#5BC980" points="21.5454545 10.6049 15.9796364 15.7069 14.1010909 13.9829 14.1010909 6.6759"></polygon>
                    <path d="M21.5454545,20.807 L14.1010909,24.737 L4.26763636,29.999 C3.81709091,30.24 3.32836364,30.378 2.82,30.378 C2.34981818,30.378 1.88072727,30.257 1.42909091,30.034 C1.22181818,29.912 1.03418182,29.792 0.845454545,29.637 L15.9796364,15.706 L21.5454545,20.807 Z" id="Fill-13" fill="#FF637B"></path>
                    <polygon id="Fill-15" fill="#E63950" points="21.5454545 20.807 14.1010909 24.737 14.1010909 17.43 15.9796364 15.706"></polygon>
                </g>
            </g>
        </g>
    </g>
</svg>