<?xml version="1.0" encoding="UTF-8"?>
<svg width="487px" height="320px" viewBox="0 0 487 320" version="1.1" xmlns="http://www.w3.org/2000/svg" xmlns:xlink="http://www.w3.org/1999/xlink">
    <title>card-02</title>
    <defs>
        <polygon id="path-1" points="0.7622 0.292869817 108.22631 0.292869817 108.22631 134.676 0.7622 134.676"></polygon>
        <polygon id="path-3" points="0.6037 0.0668 54.7198767 0.0668 54.7198767 132.676 0.6037 132.676"></polygon>
        <polygon id="path-5" points="0.0479407617 0.0643711101 82.6720467 0.0643711101 82.6720467 137.676 0.0479407617 137.676"></polygon>
        <polygon id="path-7" points="0.666112969 0.270295998 82.7701893 0.270295998 82.7701893 124.676 0.666112969 124.676"></polygon>
        <polygon id="path-9" points="0.653430653 0.699445284 7.70390072 0.699445284 7.70390072 80.676 0.653430653 80.676"></polygon>
        <polygon id="path-11" points="0.598468862 0.422089235 2.9494 0.422089235 2.9494 4.676 0.598468862 4.676"></polygon>
        <polygon id="path-13" points="0.90339583 0.4833 2.03450113 0.4833 2.03450113 34.676 0.90339583 34.676"></polygon>
        <polygon id="path-15" points="0.331958959 0.0287185146 4.81813228 0.0287185146 4.81813228 24.676 0.331958959 24.676"></polygon>
        <polygon id="path-17" points="0.6749 0.452 1.6749 0.452 1.6749 19.3563 0.6749 19.3563"></polygon>
        <polygon id="path-19" points="0.362291655 0.452 1.36229165 0.452 1.36229165 15.3539 0.362291655 15.3539"></polygon>
        <polygon id="path-21" points="0.7149 0.452 1.7149 0.452 1.7149 12.6874 0.7149 12.6874"></polygon>
        <polygon id="path-23" points="0.385802085 0.452 1.38580208 0.452 1.38580208 15.0775 0.385802085 15.0775"></polygon>
        <polygon id="path-25" points="0.6149 0.452 1.6149 0.452 1.6149 22.7582 0.6149 22.7582"></polygon>
        <polygon id="path-27" points="0.182236074 0.570176589 77.9463754 0.570176589 77.9463754 123.676 0.182236074 123.676"></polygon>
    </defs>
    <g id="Page-1" stroke="none" stroke-width="1" fill="none" fill-rule="evenodd">
        <g id="Desktop-Copy-2" transform="translate(-733.000000, -221.000000)">
            <g id="card-02" transform="translate(733.000000, 221.000000)">
                <rect id="Rectangle-Copy" fill="#FFFFFF" x="0" y="0" width="487" height="320" rx="21"></rect>
                <g id="Group-165" transform="translate(249.000000, 81.000000)">
                    <path d="M94.8736,131.0664 C95.2266,132.0274 96.5986,128.3844 97.0776,127.5424 C98.1986,125.5664 99.1976,123.4124 99.9846,121.2854 C101.1866,118.0414 102.0526,114.4844 102.5406,111.0634 C103.0466,107.5274 103.1756,103.9794 104.7446,100.8414 C106.3816,97.5654 110.1946,94.9494 112.7626,92.3814 C118.4636,86.6804 121.6036,78.3324 123.8656,70.7924 C124.6876,68.0504 125.9066,64.9114 125.5406,61.9794 C124.2186,51.4004 110.4546,41.6264 99.8966,43.3854 C94.4976,44.2864 90.9726,48.5644 85.8866,50.2594 C81.7716,51.6304 77.0746,50.5234 73.1966,52.4624 C71.8266,53.1474 69.8136,54.5374 69.4076,56.1634 C68.5066,59.7654 68.9446452,64.3324 70.5136,67.4694 C71.4616,69.3664 74.4596,69.6734 74.7826,71.9374 C75.4646,76.7084 71.0506,80.3954 71.0506,80.3954 C71.0506,80.3954 71.6206,85.0914 72.3036,88.1734 C73.7946,94.9034 75.5576,98.1424 78.9836,104.1394 C81.7696,109.0154 87.0256,113.1574 91.0106,117.1414 C92.6196,118.7514 94.0836,128.9064 94.8736,131.0664" id="Fill-1" fill="#FFEDDE"></path>
                    <g id="Group-5" transform="translate(108.000000, 73.277000)">
                        <mask id="mask-2" fill="white">
                            <use xlink:href="#path-1"></use>
                        </mask>
                        <g id="Clip-4"></g>
                        <path d="M0.7622,22.5409 C0.7622,22.5409 3.3032,28.4289 3.9782,30.7909 C6.3212,38.9889 6.8612,47.2309 8.2542,55.5889 C9.7052,64.2969 9.6022,73.2159 10.6972,81.9749 C11.2922,86.7449 10.2622,91.7579 10.9412,96.5109 C11.8242,102.6859 11.3082,109.4159 11.3082,115.6909 C11.3082,122.8559 10.9022,171.4189 11.5942,171.2919 C14.0312,170.8469 20.1732,170.0589 27.1622,170.8949 C31.4922,171.4129 35.3052,172.0249 38.2232,172.3059 C41.1422,172.5889 44.4542,172.1449 45.0542,171.7459 C45.6372,171.3569 44.8262,168.2989 44.7662,167.5069 C44.6012,165.3659 43.6442,159.1989 43.4022,154.4029 C43.1482,149.3499 42.0242,135.3459 41.1942,127.0549 C40.0712,115.8289 38.9152,105.5229 38.9152,94.1909 C38.9152,89.3859 39.2472,85.5509 39.2472,80.7459 C39.2472,79.0909 39.7262,76.3059 39.7262,74.6789 C39.7262,74.4249 40.0532,70.5819 40.0532,70.5819 C40.0532,70.5819 41.7592,71.7819 42.3772,72.2459 C45.0272,74.2329 49.7202,75.8139 51.9992,76.7769 C54.2792,77.7399 58.2702,79.0899 62.0382,79.9269 C63.7342,80.3039 67.6612,81.5279 69.3802,81.7419 C77.4952,82.7559 84.9892,84.6379 93.1812,83.4679 C95.7712,83.0979 100.6162,81.6019 102.5792,79.6379 C106.5122,75.7059 109.2122,71.7209 107.8842,66.4089 C106.6102,61.3119 99.5582,50.6289 96.3612,46.6309 C90.8162,39.6999 88.8382,37.7799 82.5582,31.4999 C78.2902,27.2319 70.9222,18.3029 67.1332,13.5669 C65.1292,11.0619 62.0172,6.9329 59.5602,3.9239 C58.2972,2.3769 56.7222,0.7679 56.5732,0.5759 C56.1692,0.0589 55.0722,0.3629 54.3522,0.6019 C52.7912,1.1229 49.6212,3.0729 48.1512,4.0129 C46.6792,4.9509 43.7492,8.1029 40.8772,11.9239 C39.1252,14.2539 37.2942,18.5649 36.1672,20.3689 C35.1522,21.9949 38.2022,24.8919 38.2022,24.8919 C38.2022,24.8919 35.0762,23.0979 34.7332,23.0109 C33.2522,22.6409 31.0392,21.6269 29.5112,21.3059 C25.5442,20.4709 21.3892,19.3449 19.6602,18.7779 C18.1992,18.2989 15.4162,17.5629 13.8862,17.0499 C11.0692,16.1069 8.1612,14.4449 8.1612,14.4449 C8.1612,14.4449 5.2372,17.9729 3.9302,19.3979 C3.2002,20.1949 0.7622,22.5409 0.7622,22.5409" id="Fill-3" fill="#FE7200" mask="url(#mask-2)"></path>
                    </g>
                    <path d="M136.5992,74.5171 C136.5992,74.5171 135.3522,72.6741 133.8152,71.1281 C132.0822,69.3851 130.2062,68.6331 128.5592,67.3241 C123.8902,63.6141 117.5782,55.1591 112.2682,52.1211 C108.8462,50.1631 105.2192,49.8891 101.8412,47.9561 C101.3182,47.6571 99.5572,45.7051 100.0472,44.9251 C100.5552,44.1191 103.1912,44.6101 103.9532,44.7561 C106.7632,45.2911 110.3032,46.4121 113.1622,46.8001 C113.8412,46.8931 117.0492,47.4421 117.4072,46.7601 C117.9502,45.7241 112.8952,42.7651 112.2832,42.4311 C109.0512,40.6701 105.1332,40.2711 102.1482,38.1361 C101.7052,37.8201 98.9082,35.0471 100.1842,34.2351 C101.6092,33.3291 102.9732,33.8541 104.8352,34.4191 C106.6972,34.9821 111.2032,34.9571 113.9532,36.5961 C115.2932,37.3951 116.9552,38.1641 118.3702,38.8381 C118.6442,38.9691 120.0672,39.8631 120.1722,39.3601 C120.4612,37.9831 116.9122,36.6221 116.0192,36.1111 C112.9532,34.3571 109.5852,34.2581 106.0802,33.2301 C105.3442,33.0151 104.2202,32.4251 103.5262,32.1611 C102.4232,31.7401 98.7072,29.7441 100.8792,28.4131 C102.1752,27.6191 104.8412,28.0311 107.0252,28.2501 C109.8392,28.5331 112.0902,28.7861 112.0902,28.7861 C112.0902,28.7861 108.9542,25.7101 109.8572,24.8501 C110.6792,24.0661 112.7682,24.0121 113.7922,24.2071 C118.0432,25.0181 121.6092,24.9151 125.4092,27.0891 C128.2002,28.6861 130.5212,32.0601 133.1212,33.9201 C133.7542,34.3721 135.6452,36.3471 136.3922,36.5241 C136.3922,36.5241 136.4582,34.6261 136.5842,34.3281 C137.0562,33.2031 137.2142,31.5491 138.5712,31.8091 C139.4182,31.9701 139.7702,32.3511 140.1362,32.8171 C141.0522,33.9811 141.8852,37.1561 142.1852,38.5851 C142.4192,39.7071 144.7142,43.3411 145.0112,44.4741 C145.4662,46.2091 145.2002,46.6341 145.6442,49.1521 C145.9232,50.7271 147.4572,54.2111 148.0012,56.2781 C148.3862,57.7361 150.4242,61.7581 150.4242,61.7581 C150.4242,61.7581 149.2992,63.5171 148.4412,64.6631 C146.3472,67.4581 143.4782,69.5861 140.1792,70.9341 C138.9492,71.4371 136.5992,74.5171 136.5992,74.5171" id="Fill-6" fill="#FFEDDE"></path>
                    <g id="Group-10" transform="translate(65.000000, 75.277000)">
                        <mask id="mask-4" fill="white">
                            <use xlink:href="#path-3"></use>
                        </mask>
                        <g id="Clip-9"></g>
                        <path d="M17.5757,169.8998 C17.6197,168.5708 17.2877,153.7238 17.1197,151.7098 C16.4067,143.1518 15.9817,134.5988 15.7437,126.0268 C15.4207,114.3798 13.5647,103.6038 11.9767,92.1138 C10.1947,79.2188 7.7447,63.0568 5.1917,49.0128 C3.4527,39.4518 2.7747,29.8518 1.4127,20.3148 C0.9597,17.1488 0.6037,7.8468 0.6037,7.8468 C0.6037,7.8468 4.4187,1.4978 7.2497,0.2398 C7.4997,0.1288 9.3907,0.0668 9.3907,0.0668 L8.3407,2.2628 L5.9997,5.3678 C5.9997,5.3678 6.4617,8.4038 6.9057,10.9238 C7.7477,15.6968 10.1967,20.8788 12.1217,25.2088 C15.3947,32.5758 19.2567,35.0648 25.0457,40.8538 C26.4917,42.2998 27.4707,44.5168 27.4707,44.5168 C27.4707,44.5168 29.1827,42.5588 30.8507,39.9568 C32.0247,38.1258 33.1777,35.6628 33.6947,34.6968 C35.3317,31.6468 34.9607,24.9748 34.9607,24.9748 C34.9607,24.9748 37.5267,24.2068 39.7717,23.0408 C42.0147,21.8748 43.9377,20.3128 43.9377,20.3128 C43.9377,20.3128 46.8687,29.4128 47.2857,31.1008 C48.6747,36.7308 50.9067,48.1878 50.9067,48.1878 C50.9067,48.1878 50.9777,54.5698 51.9747,63.5408 C53.0617,73.3208 52.2497,83.2778 53.0077,93.1208 C53.3757,97.9058 54.3797,98.7948 54.3797,98.7948 C54.3797,98.7948 54.2767,121.1568 54.3277,126.5168 C54.3757,131.4938 54.5317,149.8348 54.5317,153.6218 C54.5317,154.7758 54.7527,159.9858 54.7157,164.2628 C54.6957,166.5288 54.8297,168.9498 54.3257,169.4528 C53.3047,170.4728 40.8887,169.9888 30.4707,169.0038 C23.4987,168.3458 17.5757,169.8998 17.5757,169.8998" id="Fill-8" fill="#FCF7F4" mask="url(#mask-4)"></path>
                    </g>
                    <path d="M79.9409,164.7285 C78.5629,164.4425 77.3799,166.1135 76.1579,166.7915 C73.4139,168.3175 68.3699,170.5585 66.8709,173.5575 C65.9499,175.4015 67.1069,178.2945 67.4439,180.0925 C68.5839,186.1665 69.1699,192.0225 73.7509,196.6025 C74.5599,197.4135 75.3469,198.9675 76.2729,199.5835 C76.6739,199.8515 78.9569,197.5775 79.5969,197.1755 C82.4139,195.4165 84.8059,193.3835 87.3939,191.4435 C88.5459,190.5785 90.6249,189.5685 91.2919,188.2335 C91.4069,188.0045 87.9879,185.1575 87.6239,184.7935 C85.7689,182.9395 83.9869,179.8135 82.8079,177.4565 C81.5389,174.9165 80.8709,172.3665 80.3999,169.5435 C80.2139,168.4295 81.0359,164.9565 79.9409,164.7285" id="Fill-11" fill="#FCF7F4"></path>
                    <path d="M144.6822,91.9478 C144.6822,91.9478 141.9962,88.7028 140.3452,86.4988 C139.0672,84.7968 135.4672,80.8258 135.0032,78.5058 C134.5212,76.0938 137.3022,72.8678 138.7682,71.1578 C141.2942,68.2108 144.9852,64.7488 148.5832,62.4548 C150.0672,61.5088 151.2342,60.7828 152.8902,60.3688 C154.8172,59.8868 154.1092,62.1978 155.7932,64.5628 C157.4782,66.9278 158.2032,68.9438 160.1312,70.8718 C160.8872,71.6268 162.3892,73.6668 162.3892,73.6668 C162.3892,73.6668 159.0332,75.3228 158.4822,75.7818 C156.1782,77.7018 154.9482,78.2048 152.8192,80.3348 C150.8752,82.2778 148.9232,85.1188 147.4062,87.3958 C146.7112,88.4368 144.6822,91.9478 144.6822,91.9478" id="Fill-13" fill="#FCF7F4"></path>
                    <path d="M101.8589,89.711 C100.3039,89.459 99.7449,89.599 98.1469,88.914 C96.4029,88.167 94.9329,87.169 93.1249,88.073 C92.3629,88.453 92.0129,88.744 92.8989,89.629 C93.3329,90.064 97.4409,90.197 98.0189,90.27 C98.8659,90.375 99.4739,90.432 100.1349,91.022 C100.4919,91.34 101.6869,91.082 102.5849,91.33 C103.2589,91.517 103.8659,91.824 104.3599,91.982 C104.7689,92.111 105.1019,92.137 105.3339,91.906 C105.9319,91.306 105.2929,90.666 105.1159,90.307 C104.9389,89.948 103.4129,89.962 101.8589,89.711" id="Fill-15" fill="#FBB1B1"></path>
                    <path d="M71.3638,53.4458 C71.3638,53.4458 72.4788,53.0668 73.8538,53.3838 C74.8008,53.6008 75.9268,54.4348 76.6678,54.7898 C78.4838,55.6618 82.4678,58.5328 83.7978,58.2648 C87.5608,57.5068 91.0928,53.0438 92.3008,51.9428 C93.9338,50.4538 96.6698,48.2848 98.7848,48.5308 C100.8998,48.7768 102.3198,50.0538 104.2108,50.4008 C107.3858,50.9828 108.3798,50.5538 108.3798,50.5538 C108.3798,50.5538 104.0258,49.4118 101.6898,47.6748 C100.1288,46.5138 99.9768,44.6128 100.7498,44.3648 C102.4498,43.8188 104.1618,44.5498 105.8218,44.8928 C108.4768,45.4438 110.2718,46.3788 112.9308,46.9098 C113.3228,46.9878 117.4268,47.7568 117.3888,47.0688 C117.3228,45.8738 114.6768,43.7848 113.8258,43.2748 C110.0788,41.0248 106.4018,40.0328 102.4258,38.3138 C100.9698,37.6838 99.8858,36.1508 100.1438,34.6518 C100.2078,34.2818 100.5998,33.7228 101.6458,33.7738 C103.3348,33.8568 106.2588,34.7698 108.7558,34.9648 C110.9888,35.1398 119.3848,39.0518 120.5828,39.5708 C120.6558,39.6018 119.5178,38.1448 119.3848,38.0448 C118.2888,37.2298 115.7788,35.9388 114.5228,35.3948 C110.4878,33.6498 106.7778,33.5228 102.6898,31.9458 C101.2738,31.3988 100.1968,29.5058 100.5678,29.2928 C100.9388,29.0798 101.1908,27.9278 103.1838,27.9828 C103.8958,28.0028 111.4468,28.8548 112.0828,28.6028 C112.3428,28.4998 109.1598,25.8568 109.6948,24.9948 C110.2298,24.1328 110.9628,24.3208 112.9958,24.3468 C114.9808,24.3718 119.7588,25.3778 119.6918,25.1328 C119.6488,24.9788 119.5528,24.8238 117.7318,23.3518 C115.3388,21.4158 112.0088,19.9538 111.8528,19.8778 C110.7338,19.3258 106.0058,18.1028 104.7728,17.8288 C102.4428,17.3128 98.6258,17.4688 96.3558,18.1858 C94.7848,18.6818 91.9978,21.3818 90.3438,21.6148 C87.4918,22.0178 85.8588,21.8068 82.9518,22.3718 C76.2168,23.6788 73.4068,29.8108 72.2198,36.0878 C71.2128,41.4118 70.1378,42.4508 70.6748,47.8518 C70.7648,48.7718 71.3638,53.4458 71.3638,53.4458" id="Fill-17" fill="#4D4D4D"></path>
                    <path d="M79.3941,165.8447 C79.3941,165.8447 80.6121,165.1737 81.1891,164.3927 C81.9571,163.3537 82.5191,162.7407 83.0601,161.7967 C84.0621,160.0487 84.6921,157.7597 85.0171,156.2337 C85.5191,153.8837 86.2551,151.3237 87.9971,149.3767 C88.4531,148.8667 90.2051,147.1707 90.7241,146.6527 C92.9491,144.4327 93.5401,142.9697 96.5051,141.6617 C97.1161,141.3937 99.6951,140.7327 100.3411,140.5147 C101.3041,140.1887 102.6991,139.3867 103.6821,139.2767 C105.7261,139.0477 106.1791,141.4137 104.8001,143.2817 C102.8611,145.9047 100.3451,146.9297 98.2351,149.4767 C97.6871,150.1377 96.4861,151.3467 96.4421,152.2427 C96.4301,152.5047 98.2731,152.1487 99.5471,151.8627 C100.8221,151.5757 104.4931,151.4067 106.2301,151.1087 C109.2071,150.5967 110.1651,150.5187 112.8751,149.5757 C116.1301,148.4437 119.1681,146.6657 122.6141,145.6207 C124.0861,145.1747 128.8301,143.7487 130.2321,145.0747 C131.5021,146.2757 130.3981,147.3347 129.3481,148.1437 C128.2351,149.0017 127.0771,149.5797 125.8261,150.3657 C123.7741,151.6567 121.1011,153.3537 119.2581,154.7757 C118.3621,155.4667 114.7071,157.3747 114.7071,157.3747 C114.7071,157.3747 116.8871,157.3067 117.0691,157.2257 C118.3821,156.6477 120.6021,156.2937 121.8851,155.6067 C125.2791,153.7887 128.2061,150.6637 131.7411,149.1057 C133.1851,148.4687 135.4071,147.4927 136.3961,148.3767 C137.3831,149.2617 135.7971,151.6547 135.7971,151.6547 C135.7971,151.6547 136.4181,153.5427 136.2431,154.1227 C135.6441,156.1047 132.0001,159.8197 132.0001,159.8197 C132.0001,159.8197 131.9091,161.6757 131.3381,163.1677 C130.6361,165.0057 129.3531,167.1427 127.9181,168.6607 C125.0781,171.6667 121.2001,173.1887 117.5621,174.8367 C113.6061,176.6287 109.6811,178.7997 105.3811,180.9057 C102.1241,182.4987 98.4011,183.2777 95.2221,184.1407 C93.0161,184.7397 89.9481,186.8267 89.9481,186.8267 C89.9481,186.8267 87.3991,184.5787 86.4651,183.5927 C84.6651,181.6937 82.6141,178.5927 81.5401,176.1557 C80.7561,174.3787 79.7651,171.5987 79.3401,169.7527 C79.1101,168.7487 79.3941,165.8447 79.3941,165.8447" id="Fill-19" fill="#FFEDDE"></path>
                    <path d="M100.2671,151.8604 C100.2671,151.8604 101.1861,149.3834 101.2551,149.2124 C101.6371,148.2684 101.9711,147.3254 102.3331,146.3774 C102.9411,144.7854 105.7341,142.6274 105.5651,140.7044 C105.5051,140.0174 104.9951,139.3814 104.9951,139.3814 C104.9951,139.3814 108.3721,130.3634 109.4491,127.9384 C109.8781,126.9704 110.7321,123.9884 111.9091,123.6314 C112.6991,123.3914 115.0321,123.6824 115.0321,123.6824 L135.0271,125.7484 C135.0271,125.7484 137.3151,125.6824 138.0181,126.6384 C138.9361,127.8874 137.1871,130.9644 137.1871,130.9644 L135.0581,137.0084 L130.5191,149.8784 C130.5191,149.8784 127.4841,151.8834 125.0521,153.6704 C123.0271,155.1594 120.7041,156.4844 118.0781,157.1794 C116.7891,157.5204 114.7131,157.4364 114.8861,157.3224 C115.9951,156.5924 117.6381,155.8184 118.7451,155.1114 C120.2461,154.1514 122.1651,152.8244 123.6121,151.8354 C125.1501,150.7844 127.1641,150.0334 128.4961,148.7214 C129.1251,148.1014 131.3061,146.6564 130.7581,145.6314 C129.4611,143.2124 124.4511,145.0004 122.8661,145.6354 C117.6691,147.7184 114.3781,149.3774 108.8861,150.6374 C107.4991,150.9574 104.5721,151.3914 103.1621,151.5144 C102.3881,151.5834 100.2671,151.8604 100.2671,151.8604" id="Fill-21" fill="#E1DFE0"></path>
                    <g id="Group-25" transform="translate(1.000000, 70.277000)">
                        <mask id="mask-6" fill="white">
                            <use xlink:href="#path-5"></use>
                        </mask>
                        <g id="Clip-24"></g>
                        <path d="M73.4917,0.3158 C72.6057,-0.0902 72.0737,0.0498 71.1177,0.3528 C69.1247,0.9828 66.7167,2.6598 65.4297,3.9458 C63.2207,6.1558 59.5467,13.7858 59.5467,13.7858 C59.5467,13.7858 53.4547,16.9278 50.6457,18.1318 C47.2247,19.5978 44.3627,21.2218 40.9167,22.6418 C36.0697,24.6388 30.6637,26.7178 24.7207,29.1238 C21.4347,30.4528 16.4507,32.9978 14.1007,35.8188 C9.4647,41.3828 6.2477,53.5278 5.4557,60.6528 C5.0957,63.8948 4.6997,67.3158 4.3367,70.5868 C4.2797,71.0938 2.7627,91.3958 2.1177,98.5558 C1.7567,102.5588 1.3037,105.5058 0.9317,109.5048 C0.6077,113.0078 0.0707,119.9538 0.1097,121.9738 C0.1627,124.6678 -0.0883,129.0618 0.1587,132.5168 C0.4037,135.9718 1.0477,144.7118 4.8547,148.5188 C6.0507,149.7138 10.6787,151.8338 17.9957,152.5198 C25.3117,153.2068 30.1497,151.7138 30.1497,151.7138 C30.1497,151.7138 30.1797,155.0078 30.1477,157.8868 C30.0947,162.6298 28.7157,175.2678 29.3397,175.7358 C30.0777,176.2898 34.8057,175.9258 40.5137,175.0868 C43.5137,174.6458 48.3597,173.6718 51.8477,173.4178 C57.6557,172.9918 62.6907,173.7348 66.2627,174.3958 C74.0257,175.8308 81.0487,175.7908 81.5617,174.7638 C81.9297,174.0248 81.3097,166.8318 81.3097,164.4378 C81.3097,160.2078 80.8377,152.3798 80.8057,150.2088 C80.7707,147.8268 80.4527,142.6218 80.4787,141.7718 C80.5057,140.9208 80.0007,133.6928 80.0007,133.6928 C80.0007,133.6928 81.8607,133.1478 82.4447,131.6408 C82.9037,130.4578 82.5257,128.9588 82.5257,127.7928 C82.5257,127.2788 81.9937,124.7638 81.9937,124.7638 L75.5897,129.5998 C75.5897,129.5998 72.3907,125.5718 71.8167,124.4248 C69.6337,120.0578 68.3967,117.7298 67.2117,112.9888 C66.7807,111.2668 66.1627,103.2648 67.1607,101.6018 C67.3357,101.3098 69.9227,99.8568 72.3447,98.2988 C74.0977,97.1708 75.9247,95.7678 75.9247,95.7678 C75.9247,95.7678 74.3887,88.0028 74.1007,85.6958 C73.2867,79.1818 72.1897,71.6088 71.1067,65.2658 C70.6317,62.4778 68.6087,51.8648 68.3057,48.9878 C67.6177,42.4528 67.0367,39.2238 66.6487,35.3168 C66.4727,33.5518 66.0177,30.9918 65.8257,27.7478 C65.6337,24.5048 64.5787,12.8848 64.5787,12.8848 C64.5787,12.8848 67.2827,9.0538 68.4097,7.8768 C69.5367,6.7008 70.3327,5.6918 70.8457,5.4028 C71.8347,4.8458 73.2927,5.1488 73.2927,5.1488 C73.2927,5.1488 74.6977,0.8678 73.4917,0.3158" id="Fill-23" fill="#FE7200" mask="url(#mask-6)"></path>
                    </g>
                    <path d="M136.2818,74.523 C136.1508,74.523 136.0218,74.459 135.9448,74.341 C133.9728,71.33 132.2758,70.217 130.4798,69.04 C129.5318,68.418 128.5528,67.774 127.5098,66.836 C125.6128,65.129 124.3668,63.452 122.9268,61.51 L122.1918,60.525 C121.5858,59.716 118.4088,55.593 115.4618,53.84 C112.4878,52.073 110.3068,51.41 108.3928,50.957 C106.8398,50.59 103.7388,49.642 101.9718,48.42 C101.4908,48.087 99.9048,46.899 99.7058,45.595 C99.6338,45.121 99.7458,44.689 100.0408,44.309 C100.6478,43.529 102.3568,43.928 105.3248,44.702 C106.5068,45.01 107.7288,45.329 108.7638,45.495 C109.5918,45.627 110.3748,45.818 111.1328,46.003 C113.1968,46.508 115.3328,47.029 118.6658,46.422 C118.8798,46.381 119.0938,46.526 119.1348,46.747 C119.1738,46.965 119.0288,47.174 118.8098,47.214 C115.3078,47.853 113.0888,47.31 110.9408,46.785 C110.1648,46.596 109.4318,46.417 108.6368,46.29 C107.5628,46.118 106.3228,45.794 105.1218,45.481 C103.5748,45.078 100.9858,44.402 100.6758,44.803 C100.5178,45.007 100.4628,45.219 100.5018,45.473 C100.6218,46.257 101.6158,47.194 102.4308,47.758 C103.8818,48.762 106.6348,49.714 108.5788,50.173 C110.5548,50.641 112.8068,51.326 115.8738,53.148 C118.9518,54.978 122.2138,59.211 122.8368,60.042 L123.5728,61.03 C124.9888,62.937 126.2118,64.585 128.0488,66.238 C129.0448,67.135 129.9988,67.761 130.9218,68.366 C132.7078,69.538 134.5548,70.749 136.6178,73.899 C136.7398,74.086 136.6878,74.336 136.5018,74.457 C136.4338,74.502 136.3578,74.523 136.2818,74.523" id="Fill-26" fill="#000000"></path>
                    <path d="M117.3804,46.9551 C117.2184,46.9551 117.0664,46.8561 117.0044,46.6961 C116.2184,44.6361 110.5394,41.8911 107.7164,40.9971 L107.4174,40.9021 C104.8544,40.0931 101.3434,38.9861 99.9984,36.3921 C99.6704,35.7591 99.5224,34.7781 99.8734,34.1261 C100.0894,33.7261 100.4564,33.4891 100.9384,33.4391 C101.9054,33.3411 103.1164,33.6301 104.5234,33.9661 C105.3784,34.1711 106.2634,34.3831 107.2074,34.5381 C109.6964,34.9491 111.3424,35.2201 113.5594,36.0011 C114.3964,36.2961 115.3814,36.8081 116.5214,37.4011 C118.3424,38.3471 120.6084,39.5251 122.9944,40.1341 C123.2094,40.1891 123.3394,40.4081 123.2844,40.6231 C123.2294,40.8391 123.0134,40.9721 122.7944,40.9141 C120.3184,40.2821 118.0074,39.0801 116.1504,38.1151 C115.0364,37.5371 114.0744,37.0371 113.2914,36.7611 C111.1414,36.0031 109.5244,35.7371 107.0774,35.3331 C106.1044,35.1721 105.1644,34.9481 104.3354,34.7491 C103.0004,34.4301 101.8474,34.1541 101.0214,34.2401 C100.8084,34.2621 100.6694,34.3471 100.5824,34.5081 C100.3764,34.8901 100.4894,35.5911 100.7124,36.0211 C101.9044,38.3181 105.2314,39.3681 107.6594,40.1341 L107.9604,40.2291 C110.1284,40.9151 116.7494,43.7691 117.7564,46.4091 C117.8354,46.6171 117.7324,46.8491 117.5244,46.9291 C117.4764,46.9471 117.4284,46.9551 117.3804,46.9551" id="Fill-28" fill="#000000"></path>
                    <path d="M120.5269,39.9688 C120.3759,39.9688 120.2299,39.8828 120.1619,39.7348 C118.9239,37.0558 112.5099,34.8878 108.3509,34.2038 C105.0779,33.6668 100.7049,31.7298 100.2669,30.2348 C100.0489,29.4928 100.1069,28.8938 100.4379,28.4558 C101.0639,27.6278 102.4669,27.6398 103.5899,27.6498 L103.9369,27.6518 L103.9379,27.6518 C104.3889,27.6518 105.5599,27.7968 106.9149,27.9638 C108.7049,28.1858 110.9209,28.4568 111.8769,28.4398 C113.8659,28.3898 115.5059,28.7548 117.2559,29.1388 C118.0529,29.3148 119.2129,29.9288 120.6799,30.7068 C122.7399,31.7978 125.3019,33.1568 127.8089,33.7998 C128.0249,33.8548 128.1549,34.0738 128.0989,34.2898 C128.0449,34.5048 127.8229,34.6358 127.6099,34.5798 C125.0089,33.9118 122.3999,32.5298 120.3029,31.4178 C118.9459,30.6988 117.7729,30.0768 117.1019,29.9298 C115.3079,29.5358 113.7729,29.1978 111.8949,29.2448 C110.8759,29.2588 108.7249,28.9998 106.8159,28.7628 C105.5429,28.6058 104.3399,28.4568 103.9379,28.4568 L103.9369,28.4568 L103.5829,28.4548 C102.6849,28.4448 101.4619,28.4368 101.0809,28.9418 C100.9119,29.1648 100.8979,29.5238 101.0399,30.0078 C101.2919,30.8698 104.9899,32.8368 108.4819,33.4098 C111.3839,33.8868 119.2739,35.8928 120.8929,39.3978 C120.9859,39.5988 120.8969,39.8388 120.6959,39.9318 C120.6409,39.9568 120.5839,39.9688 120.5269,39.9688" id="Fill-30" fill="#000000"></path>
                    <path d="M150.2964,61.8111 C150.1754,61.8111 150.0544,61.7561 149.9754,61.6501 C148.5344,59.7321 147.4944,56.5121 146.5754,53.6711 C146.2724,52.7301 145.9844,51.8421 145.7124,51.1031 C144.7924,48.5981 143.7024,46.1271 142.4744,43.7601 C141.0354,40.9881 139.0424,39.3861 136.7334,37.5301 L135.9504,36.8981 C133.9394,35.2641 129.3864,30.9811 127.9494,29.6101 C125.0834,26.8761 122.5834,26.1071 118.3914,25.5021 C117.6164,25.3901 116.8204,25.2521 116.0394,25.1161 C113.7024,24.7081 111.2854,24.2881 110.4544,24.8321 C110.1744,25.0161 110.2364,25.4501 110.3004,25.6921 C110.5834,26.7901 111.9664,28.3861 113.8284,28.5271 C114.0504,28.5441 114.2164,28.7371 114.1994,28.9591 C114.1834,29.1811 113.9844,29.3431 113.7674,29.3301 C111.6504,29.1701 109.9144,27.4211 109.5204,25.8931 C109.3224,25.1251 109.5024,24.4931 110.0134,24.1581 C111.1114,23.4401 113.4574,23.8481 116.1784,24.3221 C116.9504,24.4571 117.7384,24.5941 118.5054,24.7051 C122.7784,25.3221 125.4984,26.1601 128.5054,29.0281 C129.9364,30.3941 134.4664,34.6561 136.4584,36.2731 L137.2384,36.9031 C139.6164,38.8151 141.6714,40.4671 143.1884,43.3891 C144.4334,45.7861 145.5354,48.2881 146.4694,50.8251 C146.7454,51.5791 147.0354,52.4751 147.3424,53.4241 C148.1964,56.0671 149.2594,59.3571 150.6184,61.1671 C150.7524,61.3451 150.7164,61.5971 150.5374,61.7301 C150.4654,61.7851 150.3814,61.8111 150.2964,61.8111" id="Fill-32" fill="#000000"></path>
                    <path d="M146.6118,52.8008 C146.4498,52.8008 146.2968,52.7018 146.2358,52.5398 C145.5648,50.7508 145.2448,48.7068 144.9878,47.0648 C144.8448,46.1528 144.7208,45.3658 144.5778,44.9148 C144.0228,43.1778 143.6278,42.4318 143.0808,41.3998 C142.7698,40.8128 142.4178,40.1488 141.9728,39.1778 C141.5118,38.1738 141.1968,37.1158 140.8908,36.0938 C140.7088,35.4788 140.5248,34.8638 140.3098,34.2588 C139.9708,33.3018 139.5858,32.6618 139.1638,32.3578 C138.8858,32.1588 138.6278,32.1518 138.3268,32.3378 C137.3678,32.9298 136.5658,35.1608 136.7968,36.6008 C136.8318,36.8208 136.6818,37.0268 136.4628,37.0618 C136.2388,37.0958 136.0368,36.9468 136.0008,36.7278 C135.7148,34.9358 136.6578,32.4218 137.9048,31.6528 C138.4778,31.2968 139.0938,31.3158 139.6328,31.7038 C140.1998,32.1118 140.6688,32.8598 141.0688,33.9898 C141.2888,34.6078 141.4748,35.2358 141.6628,35.8638 C141.9608,36.8588 142.2678,37.8888 142.7048,38.8428 C143.1398,39.7928 143.4858,40.4458 143.7918,41.0228 C144.3378,42.0518 144.7678,42.8648 145.3448,44.6698 C145.5078,45.1798 145.6288,45.9568 145.7828,46.9398 C146.0348,48.5458 146.3468,50.5448 146.9888,52.2578 C147.0678,52.4658 146.9618,52.6968 146.7538,52.7758 C146.7078,52.7928 146.6598,52.8008 146.6118,52.8008" id="Fill-34" fill="#000000"></path>
                    <path d="M79.2749,166.791 C79.1699,166.791 79.0649,166.75 78.9859,166.668 C78.8319,166.508 78.8359,166.253 78.9959,166.099 C81.6619,163.523 83.0899,161.379 83.9279,158.699 C84.1779,157.902 84.3909,157.076 84.5979,156.278 C85.2169,153.886 85.8569,151.412 87.5399,149.373 C88.0659,148.735 88.6759,148.147 89.2669,147.578 C89.7369,147.125 90.2239,146.656 90.6529,146.175 L91.1709,145.588 C92.5369,144.035 93.8249,142.57 95.7589,141.602 C96.6509,141.155 97.6449,140.909 98.6049,140.672 C99.1519,140.536 99.6679,140.409 100.1649,140.247 C100.4469,140.155 100.8239,139.987 101.2219,139.808 C102.4909,139.238 104.0679,138.532 105.1139,139.104 C105.6009,139.372 105.9029,139.876 106.0079,140.604 C106.1179,141.367 106.0009,142.66 103.7209,145.063 C102.9879,145.837 102.2149,146.458 101.3969,147.116 C99.7469,148.442 98.0409,149.814 96.3039,152.693 C96.1889,152.884 95.9419,152.945 95.7519,152.831 C95.5609,152.716 95.4999,152.469 95.6149,152.278 C97.4239,149.276 99.2669,147.795 100.8919,146.488 C101.6889,145.849 102.4409,145.244 103.1369,144.51 C105.4119,142.11 105.2599,141.062 105.2109,140.718 C105.1429,140.249 104.9839,139.951 104.7249,139.81 C104.0329,139.427 102.5989,140.072 101.5519,140.542 C101.1319,140.73 100.7369,140.908 100.4139,141.013 C99.8889,141.184 99.3349,141.32 98.7979,141.453 C97.8799,141.681 96.9319,141.915 96.1199,142.322 C94.3259,143.22 93.0879,144.628 91.7759,146.119 L91.2539,146.711 C90.8039,147.214 90.3069,147.694 89.8259,148.158 C89.2519,148.711 88.6579,149.284 88.1609,149.886 C86.5909,151.786 86.0029,154.066 85.3779,156.479 C85.1689,157.288 84.9529,158.123 84.6969,158.94 C83.8159,161.759 82.3259,164 79.5549,166.678 C79.4769,166.753 79.3759,166.791 79.2749,166.791" id="Fill-36" fill="#000000"></path>
                    <path d="M105.9634,160.3057 C105.8034,160.3057 105.6524,160.2107 105.5894,160.0537 C105.5064,159.8467 105.6074,159.6127 105.8134,159.5297 C108.1104,158.6067 109.6444,158.0127 111.5574,157.5497 C113.1914,157.1557 115.4254,156.5347 116.7894,155.8197 C117.9414,155.2167 119.4264,154.1747 120.3144,153.5537 L121.3494,152.8227 C122.7494,151.8277 123.7624,151.1097 126.2464,149.6227 C129.9604,147.3997 130.3594,146.3247 130.3594,145.9647 C130.3594,145.8377 130.3164,145.6427 129.9514,145.4267 C128.3554,144.4827 125.3944,145.2217 123.3064,145.8607 C121.1414,146.5207 119.5444,147.2387 117.8544,147.9997 C116.8404,148.4567 115.7914,148.9287 114.5464,149.4257 C111.5164,150.6327 107.5814,151.5037 103.7514,151.8137 C102.5074,151.9147 98.3594,152.4037 95.9964,153.0857 L95.1914,153.3187 C93.2164,153.8837 91.6554,154.3317 89.0594,155.3657 C88.8514,155.4467 88.6184,155.3467 88.5364,155.1397 C88.4534,154.9337 88.5554,154.6997 88.7614,154.6177 C91.3954,153.5697 92.9734,153.1177 94.9694,152.5437 L95.7734,152.3127 C98.1494,151.6267 102.2014,151.1317 103.6864,151.0117 C107.4404,150.7067 111.2884,149.8567 114.2474,148.6767 C115.4774,148.1867 116.5174,147.7187 117.5244,147.2657 C119.2374,146.4937 120.8574,145.7647 123.0714,145.0897 C125.4934,144.3497 128.5114,143.6397 130.3614,144.7337 C131.0234,145.1247 131.1624,145.6177 131.163414,145.9637 C131.1664,146.6727 130.7014,147.8957 126.6594,150.3137 C124.2024,151.7847 123.2004,152.4947 121.8154,153.4787 L120.7764,154.2117 C119.8724,154.8457 118.3604,155.9057 117.1644,156.5337 C115.7264,157.2847 113.4244,157.9267 111.7454,158.3327 C109.8864,158.7837 108.3774,159.3677 106.1124,160.2767 C106.0644,160.2957 106.0134,160.3057 105.9634,160.3057" id="Fill-38" fill="#000000"></path>
                    <path d="M111.4712,168.6953 C111.3492,168.6953 111.2292,168.6393 111.1492,168.5343 C111.0162,168.3553 111.0522,168.1033 111.2302,167.9703 C113.5252,166.2543 116.2362,165.3403 118.6262,164.5343 C119.5622,164.2183 120.4452,163.9223 121.1842,163.6093 C123.7402,162.5343 125.5352,161.5023 126.8362,160.3603 C127.6172,159.6743 128.1162,159.0663 128.7452,158.2953 L129.0842,157.8823 C129.8742,156.9243 131.5042,155.1013 132.3442,154.2743 C132.6572,153.9663 132.9782,153.6723 133.2952,153.3803 C134.4312,152.3393 135.5042,151.3543 136.0202,149.8943 L136.0512,149.8113 C136.2542,149.2543 136.3362,148.8643 135.6472,148.5323 C134.3162,147.8923 131.2932,149.8623 129.8422,150.8093 C129.6232,150.9533 129.4302,151.0793 129.2702,151.1783 C128.0882,151.9193 127.1192,152.6383 126.1822,153.3363 C124.4672,154.6113 122.8472,155.8163 120.3322,156.7973 C117.9402,157.7293 113.7172,158.3223 110.3052,158.7343 C110.1002,158.7643 109.8852,158.6033 109.8582,158.3823 C109.8312,158.1623 109.9892,157.9623 110.2092,157.9343 C113.5742,157.5283 117.7322,156.9463 120.0392,156.0473 C122.4542,155.1063 123.9592,153.9863 125.7012,152.6903 C126.6512,151.9833 127.6342,151.2533 128.8422,150.4963 C128.9992,150.3983 129.1882,150.2753 129.4032,150.1353 C131.7502,148.6033 134.3902,147.0313 135.9952,147.8073 C137.3962,148.4793 136.9682,149.6473 136.8072,150.0883 L136.7802,150.1643 C136.1972,151.8113 134.9982,152.9113 133.8392,153.9733 C133.5292,154.2593 133.2152,154.5473 132.9082,154.8473 C132.0852,155.6593 130.4842,157.4513 129.7052,158.3943 L129.3682,158.8043 C128.7412,159.5733 128.1982,160.2363 127.3672,160.9663 C125.9992,162.1653 124.1332,163.2413 121.4972,164.3513 C120.7302,164.6743 119.8322,164.9763 118.8832,165.2973 C116.5502,166.0843 113.9052,166.9753 111.7132,168.6153 C111.6412,168.6693 111.5562,168.6953 111.4712,168.6953" id="Fill-40" fill="#000000"></path>
                    <path d="M112.8462,173.5186 C112.7122,173.5186 112.5812,173.4526 112.5042,173.3306 C112.3872,173.1416 112.4442,172.8926 112.6322,172.7756 L112.8042,172.6666 C114.7622,171.4426 117.1982,169.9166 119.2272,168.9746 L119.7642,168.7256 C122.6552,167.3866 124.5632,166.5016 127.1712,164.4626 C128.2282,163.6356 128.7562,162.9936 129.7162,161.8276 C130.4282,160.9616 131.4042,159.7766 133.0042,158.0276 C135.5562,155.2396 136.1292,153.2836 135.8442,152.4566 C135.7992,152.3266 135.7102,152.1646 135.5402,152.1366 C135.3212,152.0996 135.1732,151.8916 135.2092,151.6726 C135.2472,151.4536 135.4602,151.3056 135.6732,151.3416 C136.1052,151.4146 136.4442,151.7256 136.6062,152.1946 C137.0892,153.6006 135.9652,155.9846 133.5992,158.5716 C132.0122,160.3036 131.0452,161.4796 130.3382,162.3376 C129.3742,163.5086 128.7932,164.2156 127.6682,165.0966 C124.9862,167.1936 123.0442,168.0936 120.1032,169.4566 L119.5672,169.7056 C117.5822,170.6256 115.1702,172.1366 113.2312,173.3496 L113.0602,173.4576 C112.9922,173.4986 112.9192,173.5186 112.8462,173.5186" id="Fill-42" fill="#000000"></path>
                    <path d="M90.1363,186.9512 C90.0083,186.9512 89.8823,186.8902 89.8043,186.7772 C89.6783,186.5952 89.7243,186.3442 89.9073,186.2182 C92.6963,184.2932 96.3953,183.2912 99.6583,182.4062 C101.1383,182.0042 102.5353,181.6262 103.7893,181.1862 C105.0093,180.7602 106.2843,179.9622 107.4093,179.2572 L107.5283,179.1832 C108.7283,178.4322 110.0253,177.8052 111.2803,177.1982 C111.8293,176.9322 112.3783,176.6672 112.9193,176.3912 C114.4223,175.6262 116.0303,174.9832 117.5843,174.3612 C119.7403,173.5002 121.9713,172.6082 123.9323,171.3802 C128.4903,168.5272 131.0003,164.7402 131.3923,160.1232 C131.4103,159.9012 131.6093,159.7462 131.8263,159.7562 C132.0483,159.7752 132.2123,159.9692 132.1943,160.1902 C131.7813,165.0742 129.1453,169.0682 124.3603,172.0622 C122.3373,173.3292 120.0733,174.2342 117.8833,175.1092 C116.3453,175.7242 114.7553,176.3592 113.2833,177.1092 C112.7393,177.3882 112.1853,177.6542 111.6293,177.9242 C110.3953,178.5202 109.1183,179.1382 107.9553,179.8652 L107.8373,179.9392 C106.6763,180.6662 105.3603,181.4902 104.0563,181.9462 C102.7753,182.3952 101.3643,182.7782 99.8683,183.1822 C96.5113,184.0942 93.0393,185.0342 90.3653,186.8802 C90.2943,186.9292 90.2153,186.9512 90.1363,186.9512" id="Fill-44" fill="#000000"></path>
                    <path d="M92.2105,188.0205 C89.7845,188.0205 86.2295,183.8795 85.7985,183.3675 C82.4515,179.3855 79.8475,174.1475 79.1635,170.0205 L79.0985,169.6475 C78.8195,168.0915 78.2395,164.8535 80.5535,164.0065 C80.7625,163.9305 80.9935,164.0385 81.0695,164.2465 C81.1465,164.4565 81.0385,164.6865 80.8295,164.7625 C79.1515,165.3765 79.6325,168.0635 79.8905,169.5055 L79.9575,169.8885 C80.6195,173.8825 83.1535,178.9705 86.4145,182.8505 C88.4565,185.2785 91.3015,187.6105 92.5515,187.1605 C93.2225,186.9155 93.3625,185.7805 93.3635,184.8715 C93.3635,184.6485 93.5445,184.4685 93.7665,184.4685 C93.9885,184.4685 94.1685,184.6485 94.1685,184.8715 C94.1675,186.5675 93.7165,187.5925 92.8265,187.9165 C92.6325,187.9875 92.4255,188.0205 92.2105,188.0205" id="Fill-46" fill="#000000"></path>
                    <path d="M68.481,172.1865 C68.346,172.1865 68.214,172.1195 68.138,171.9975 C68.021,171.8075 68.079,171.5595 68.267,171.4425 C68.326,171.4065 74.076,167.8175 75.371,166.8085 C76.137,166.2105 80.021,163.2655 81.26,163.8835 C81.458,163.9835 81.536,164.2205 81.439,164.4185 C81.342,164.6175 81.101,164.6995 80.9,164.6045 C80.445,164.3885 78.05,165.7435 75.865,167.4445 C74.538,168.4785 68.931,171.9765 68.693,172.1245 C68.627,172.1665 68.553,172.1865 68.481,172.1865" id="Fill-48" fill="#000000"></path>
                    <path d="M76.6656,200.1084 C76.5506,200.1084 76.4366,200.0604 76.3566,199.9654 C76.2146,199.7964 76.2356,199.5424 76.4056,199.3984 C79.5616,196.7404 85.7026,192.4754 90.0476,189.5004 C90.2626,189.3514 90.4866,189.2094 90.7136,189.0654 C92.0986,188.1824 93.4056,187.3504 93.3096,185.1114 C93.3006,184.8894 93.4726,184.7024 93.6936,184.6914 C93.9156,184.6994 94.1036,184.8544 94.1136,185.0774 C94.2296,187.7804 92.5916,188.8234 91.1456,189.7434 C90.9276,189.8834 90.7106,190.0214 90.5026,190.1634 C86.1726,193.1304 80.0536,197.3794 76.9246,200.0144 C76.8496,200.0774 76.7566,200.1084 76.6656,200.1084" id="Fill-50" fill="#000000"></path>
                    <path d="M144.7183,92.3609 C144.6143,92.3609 144.5123,92.3219 144.4333,92.2429 C143.7273,91.5369 143.1103,90.6809 142.5133,89.8529 C142.1293,89.3199 141.7333,88.7689 141.3253,88.2809 C139.6233,86.2379 137.8403,84.0419 136.4003,81.6389 C136.2613,81.4089 136.0833,81.1539 135.8933,80.8819 C135.1493,79.8139 134.2213,78.4849 134.5463,77.1869 C135.4593,73.5339 140.5413,68.3499 144.9933,64.7179 C147.8913,62.3539 152.0303,59.8599 153.2793,60.0789 C153.9993,60.2029 154.4693,61.0929 155.3233,62.7079 C155.9123,63.8239 156.6473,65.2139 157.7333,66.9019 C160.2513,70.8169 162.8133,73.3899 162.8383,73.4159 C162.9953,73.5729 162.9953,73.8279 162.8383,73.9859 C162.6813,74.1429 162.4263,74.1419 162.2693,73.9859 C162.2433,73.9599 159.6203,71.3239 157.0553,67.3379 C155.9513,65.6199 155.1773,64.1539 154.6113,63.0839 C154.0003,61.9279 153.4723,60.9299 153.1423,60.8729 C152.5473,60.7679 149.0773,62.4249 145.5023,65.3409 C141.3503,68.7299 136.1943,73.9159 135.3273,77.3819 C135.0923,78.3249 135.9033,79.4869 136.5533,80.4209 C136.7543,80.7099 136.9443,80.9809 137.0893,81.2249 C138.5023,83.5779 140.2623,85.7469 141.9443,87.7659 C142.3683,88.2759 142.7753,88.8389 143.1663,89.3819 C143.7443,90.1849 144.3423,91.0139 145.0023,91.6739 C145.1593,91.8309 145.1593,92.0859 145.0023,92.2429 C144.9243,92.3219 144.8213,92.3609 144.7183,92.3609" id="Fill-52" fill="#000000"></path>
                    <path d="M100.4038,152.0576 C100.3558,152.0576 100.3068,152.0486 100.2598,152.0316 C100.0518,151.9516 99.9488,151.7186 100.0278,151.5116 L102.3498,145.4416 C102.4288,145.2336 102.6648,145.1316 102.8698,145.2086 C103.0778,145.2876 103.1818,145.5206 103.1028,145.7296 L100.7798,151.7986 C100.7178,151.9586 100.5658,152.0576 100.4038,152.0576" id="Fill-54" fill="#000000"></path>
                    <path d="M130.4722,150.1719 C130.4272,150.1719 130.3802,150.1639 130.3352,150.1489 C130.1262,150.0739 130.0182,149.8439 130.0932,149.6339 L137.6452,128.5409 C137.8082,128.0169 137.9322,127.0869 137.6632,126.8059 C137.2272,126.3499 136.3192,126.2919 136.3102,126.2909 L113.5302,123.9479 C113.5252,123.9479 112.4202,123.8749 111.7532,124.2899 C111.1092,124.6919 110.7982,125.6209 110.7952,125.6309 L105.4452,139.6089 C105.3642,139.8159 105.1292,139.9189 104.9232,139.8349 C104.7162,139.7539 104.6152,139.5199 104.6972,139.3139 L104.7322,139.2239 L110.0352,125.3639 C110.0432,125.3369 110.4242,124.1689 111.3292,123.6059 C112.2212,123.0529 113.5452,123.1429 113.6002,123.1459 L136.3712,125.4889 C136.4002,125.4889 137.5832,125.5569 138.2462,126.2499 C138.9342,126.9719 138.5022,128.4979 138.4092,128.7969 L130.8512,149.9049 C130.7912,150.0699 130.6372,150.1719 130.4722,150.1719" id="Fill-56" fill="#000000"></path>
                    <path d="M81.438,203.586 C81.308,203.586 81.175,203.579 81.037,203.565 C79.363,203.399 76.267,200.959 73.126,195.88 C69.357,189.783 67.361,183.893 67.028,177.872 C66.782,173.446 67.581,171.008 69.403,170.627 C69.62,170.577 69.834,170.722 69.879,170.939 C69.925,171.156 69.786,171.369 69.568,171.415 C68.234,171.694 67.617,173.971 67.832,177.828 C68.158,183.71 70.114,189.477 73.811,195.457 C77.243,201.005 80.089,202.662 81.117,202.764 C81.831,202.838 82.342,202.684 82.684,202.304 C83.75,201.123 83.087,197.89 82.692,195.958 C82.632,195.666 82.577,195.394 82.531,195.148 C82.489,194.931 82.632,194.72 82.851,194.678 C83.074,194.638 83.28,194.78 83.321,194.999 C83.368,195.24 83.422,195.509 83.481,195.797 C83.935,198.013 84.62,201.36 83.283,202.844 C82.837,203.337 82.218,203.586 81.438,203.586" id="Fill-58" fill="#000000"></path>
                    <path d="M14.7764,193.1533 C14.6734,193.1533 14.5704,193.1143 14.4924,193.0353 C14.3344,192.8783 14.3344,192.6243 14.4924,192.4663 C18.2464,188.7123 26.5434,186.5993 33.8634,184.7373 C37.0414,183.9283 40.0434,183.1643 42.0984,182.3793 C50.1294,179.3103 56.6444,176.1983 61.4024,173.9253 C65.0634,172.1783 67.7064,170.9163 69.3344,170.4793 C69.5504,170.4273 69.7694,170.5493 69.8264,170.7633 C69.8854,170.9793 69.7574,171.1993 69.5424,171.2573 C67.9864,171.6743 65.3704,172.9233 61.7494,174.6523 C56.9794,176.9313 50.4464,180.0503 42.3854,183.1313 C40.2874,183.9323 37.2634,184.7033 34.0624,185.5173 C27.2004,187.2633 18.6594,189.4373 15.0614,193.0353 C14.9824,193.1143 14.8794,193.1533 14.7764,193.1533" id="Fill-60" fill="#000000"></path>
                    <g id="Group-64" transform="translate(0.000000, 83.277000)">
                        <mask id="mask-8" fill="white">
                            <use xlink:href="#path-7"></use>
                        </mask>
                        <g id="Clip-63"></g>
                        <path d="M21.1275,139.982801 C15.4465,139.982801 10.1745,138.9968 6.4375,136.4658 C-3.0605,130.0348 2.0145,92.3738 2.0675,91.9938 C2.6245,87.9578 3.2065,79.9928 3.8215,71.5598 C4.1815,66.6408 4.5525,61.5528 4.9535,56.7218 C6.0615,43.3678 9.9625,26.6328 15.9105,21.4468 C20.1445,17.7548 25.0695,15.8718 30.2835,13.8778 C30.8565,13.6588 31.4325,13.4388 32.0075,13.2148 C40.4385,9.9488 51.3135,5.0048 60.3885,0.3158 C60.5865,0.2128 60.8285,0.2908 60.9315,0.4878 C61.0325,0.6858 60.9555,0.9288 60.7585,1.0308 C51.6585,5.7328 40.7535,10.6898 32.2985,13.9658 C31.7215,14.1898 31.1465,14.4098 30.5715,14.6298 C25.4255,16.5978 20.5655,18.4558 16.4395,22.0538 C10.9175,26.8678 6.8855,43.1708 5.7565,56.7878 C5.3555,61.6168 4.9835,66.7018 4.6245,71.6188 C4.0075,80.0648 3.4255,88.0428 2.8645,92.1038 C2.8135,92.4788 -2.1995,129.6458 6.8885,135.7988 C14.4305,140.9058 28.5745,139.4908 39.2985,136.4618 C45.2165,134.7918 53.9905,131.7558 60.3965,129.5398 L63.0175,128.6338 C65.1245,127.9078 79.6085,121.1238 82.1475,119.4658 C82.3335,119.3458 82.5835,119.3978 82.7045,119.5848 C82.8265,119.7698 82.7735,120.0198 82.5875,120.1408 C80.0235,121.8148 65.4045,128.6638 63.2795,129.3948 L60.6585,130.3008 C54.2445,132.5198 45.4585,135.5588 39.5175,137.2368 C33.8615,138.8348 27.2565,139.982801 21.1275,139.982801" id="Fill-62" fill="#FE7200" mask="url(#mask-8)"></path>
                    </g>
                    <path d="M34.2007,185.0352 C33.9777,185.0352 33.7977,184.8552 33.7977,184.6332 L33.8017,181.4192 C33.8137,173.9192 33.8257,166.1632 33.2167,158.6002 C32.5277,150.0632 30.0257,131.0012 25.4807,119.9622 C25.3957,119.7562 25.4937,119.5212 25.6997,119.4372 C25.9067,119.3502 26.1407,119.4502 26.2247,119.6552 C30.8077,130.7872 33.3267,149.9552 34.0187,158.5372 C34.6317,166.1322 34.6187,173.9042 34.6067,181.4212 L34.6027,184.6332 C34.6027,184.8552 34.4227,185.0352 34.2007,185.0352" id="Fill-65" fill="#000000"></path>
                    <g id="Group-69" transform="translate(146.000000, 127.277000)">
                        <mask id="mask-10" fill="white">
                            <use xlink:href="#path-9"></use>
                        </mask>
                        <g id="Clip-68"></g>
                        <path d="M7.3013,118.5287 C7.0993,118.5287 6.9243,118.3767 6.9023,118.1717 C5.5733,106.2157 2.7773,75.7077 0.9813,49.5227 C0.0323,35.6977 1.1693,11.4887 4.0563,0.9947 C4.1143,0.7797 4.3353,0.6557 4.5513,0.7137 C4.7653,0.7717 4.8923,0.9937 4.8323,1.2087 C1.9663,11.6277 0.8403,35.7067 1.7843,49.4677 C3.5793,75.6407 6.3743,106.1327 7.7013,118.0817 C7.7263,118.3027 7.5683,118.5027 7.3463,118.5267 C7.3303,118.5287 7.3163,118.5287 7.3013,118.5287" id="Fill-67" fill="#000000" mask="url(#mask-10)"></path>
                    </g>
                    <path d="M195.7495,157.4326 C188.9905,157.4326 180.3365,156.2126 170.9665,153.8896 C165.2255,152.4656 153.9515,148.8656 148.1135,144.4006 C147.9365,144.2646 147.9035,144.0126 148.0385,143.8356 C148.1745,143.6596 148.4265,143.6256 148.6035,143.7596 C154.3355,148.1456 165.4785,151.6996 171.1595,153.1086 C183.7135,156.2206 194.9465,157.3396 201.9775,156.1836 C209.3985,154.9586 214.6205,150.0376 215.6045,143.3386 C216.4855,137.3436 210.4375,128.6466 204.6995,120.9646 C202.0615,117.4346 198.2525,113.4626 193.8425,108.8616 C189.9785,104.8316 185.5985,100.2626 181.5585,95.4576 C177.8615,91.0626 174.2385,86.3846 171.3265,82.6246 C167.9945,78.3236 164.8485,74.2606 164.1725,74.0476 C162.6395,73.7386 156.6955,76.5416 152.6145,81.1826 C148.2625,86.1316 144.0735,93.3326 144.4075,94.6706 C144.6625,95.6906 146.7685,98.1316 149.2065,100.9596 C151.6985,103.8496 154.8015,107.4486 157.5115,111.2876 C161.3265,116.6926 163.8245,121.9996 166.0285,126.6836 C167.0045,128.7586 167.9265,130.7176 168.8545,132.4406 C173.9355,141.8646 178.0985,146.3136 183.2245,147.7966 C183.4375,147.8596 183.5615,148.0816 183.4995,148.2956 C183.4365,148.5086 183.2105,148.6336 183.0005,148.5706 C177.6445,147.0206 173.3405,142.4566 168.1455,132.8226 C167.2065,131.0796 166.2805,129.1116 165.2995,127.0266 C163.1095,122.3726 160.6285,117.0986 156.8535,111.7516 C154.1655,107.9446 151.0775,104.3626 148.5975,101.4846 C145.8865,98.3426 143.9285,96.0716 143.6265,94.8656 C143.1235,92.8516 148.3395,84.8236 152.0115,80.6506 C156.2165,75.8676 162.3985,72.8716 164.3365,73.2606 C165.1565,73.4236 166.9755,75.6916 171.9635,82.1326 C174.8705,85.8856 178.4885,90.5566 182.1745,94.9396 C186.1965,99.7246 190.5675,104.2826 194.4235,108.3056 C198.8535,112.9236 202.6775,116.9126 205.3445,120.4836 C211.1805,128.2936 217.3275,137.1556 216.4015,143.4546 C215.3645,150.5136 209.8885,155.6956 202.1075,156.9776 C200.2565,157.2826 198.1185,157.4326 195.7495,157.4326" id="Fill-70" fill="#000000"></path>
                    <path d="M146.4273,98.7393 C146.3383,98.7393 146.2503,98.7103 146.1763,98.6513 C143.1913,96.2613 137.6093,94.9193 131.6983,93.4983 C126.0303,92.1353 120.1673,90.7253 116.2823,88.2573 C116.0953,88.1373 116.0393,87.8893 116.1593,87.7013 C116.2783,87.5133 116.5273,87.4573 116.7153,87.5773 C120.4863,89.9733 126.2813,91.3673 131.8873,92.7153 C137.8863,94.1583 143.5533,95.5213 146.6793,98.0223 C146.8533,98.1613 146.8803,98.4143 146.7413,98.5883 C146.6623,98.6873 146.5453,98.7393 146.4273,98.7393" id="Fill-72" fill="#000000"></path>
                    <path d="M76.8413,166.5703 C76.6463,166.5703 76.4753,166.4293 76.4443,166.2313 L75.8053,162.2553 C74.9703,157.0713 74.1823,152.1743 73.6093,147.9703 C72.7783,141.8793 71.8213,136.3013 70.8973,130.9093 C69.5883,123.2763 68.3523,116.0683 67.4633,107.6243 L67.1123,104.3133 C66.3613,97.2473 65.5833,89.9413 65.1313,82.7083 C65.0403,81.2493 64.7643,76.8093 66.1623,74.3283 C67.5573,71.8583 71.7913,70.2023 73.3223,69.9283 C73.5423,69.8913 73.7503,70.0353 73.7893,70.2543 C73.8283,70.4723 73.6833,70.6813 73.4643,70.7213 C71.7793,71.0223 68.0273,72.6633 66.8643,74.7233 C65.5823,76.9973 65.8483,81.2583 65.9353,82.6573 C66.3863,89.8733 67.1613,97.1713 67.9123,104.2273 L68.2633,107.5393 C69.1503,115.9573 70.3833,123.1533 71.6913,130.7723 C72.6163,136.1733 73.5733,141.7563 74.4063,147.8623 C74.9793,152.0563 75.7663,156.9483 76.6003,162.1283 L77.2383,166.1043 C77.2743,166.3243 77.1243,166.5303 76.9043,166.5663 C76.8833,166.5693 76.8623,166.5703 76.8413,166.5703" id="Fill-74" fill="#000000"></path>
                    <g id="Group-78" transform="translate(80.000000, 203.277000)">
                        <mask id="mask-12" fill="white">
                            <use xlink:href="#path-11"></use>
                        </mask>
                        <g id="Clip-77"></g>
                        <path d="M2.5474,42.2699 C2.3244,42.2699 2.1454,42.0889 2.1454,41.8669 C2.1454,37.7309 1.5794,15.9849 0.5994,0.8509 C0.5844,0.6289 0.7524,0.4379 0.9754,0.4229 C1.1954,0.4089 1.3884,0.5779 1.4024,0.7989 C2.3844,15.9499 2.9494,37.7239 2.9494,41.8669 C2.9494,42.0889 2.7704,42.2699 2.5474,42.2699" id="Fill-76" fill="#000000" mask="url(#mask-12)"></path>
                    </g>
                    <path d="M115.9126,124.0313 C115.7196,124.0313 115.5486,123.8913 115.5166,123.6943 C114.1986,115.7333 111.9226,104.4553 108.5586,95.9413 C108.4756,95.7343 108.5776,95.5003 108.7836,95.4183 C108.9896,95.3363 109.2246,95.4383 109.3066,95.6453 C112.6966,104.2253 114.9856,115.5633 116.3096,123.5623 C116.3466,123.7823 116.1986,123.9893 115.9786,124.0253 C115.9566,124.0293 115.9336,124.0313 115.9126,124.0313" id="Fill-79" fill="#000000"></path>
                    <g id="Group-83" transform="translate(118.000000, 173.277000)">
                        <mask id="mask-14" fill="white">
                            <use xlink:href="#path-13"></use>
                        </mask>
                        <g id="Clip-82"></g>
                        <path d="M1.6294,71.8383 L1.6134,71.8383 C1.3914,71.8303 1.2184,71.6433 1.2274,71.4203 C1.2554,70.6943 1.0544,45.6123 0.9694,34.9023 L0.9424,31.6773 C0.8964,25.8623 0.9054,20.2073 0.9154,14.7383 C0.9234,10.0763 0.9304,5.4823 0.90339583,0.8883 C0.9024,0.6653 1.0814,0.4843 1.3044,0.4833 C1.5464,0.4903 1.7074,0.6613 1.7094,0.8833 C1.7344,5.4793 1.7284,10.0753 1.7204,14.7403 C1.7114,20.2073 1.7014,25.8593 1.7474,31.6703 L1.7744,34.8973 C1.9154,52.6043 2.0574,70.7953 2.0314,71.4513 C2.0234,71.6683 1.8444,71.8383 1.6294,71.8383" id="Fill-81" fill="#000000" mask="url(#mask-14)"></path>
                    </g>
                    <path d="M64.6665,117.3789 C64.5045,117.3789 64.3525,117.2799 64.2905,117.1199 C64.2705,117.0679 62.2625,111.8559 60.6995,109.8269 C59.2335,107.9229 57.4295,106.7269 55.8385,105.6709 L55.4945,105.4419 C54.9145,105.0559 53.9635,104.5669 52.9575,104.0509 C50.1315,102.5989 46.9295,100.9529 46.6245,99.1889 C46.3065,97.3409 49.0945,95.2189 51.1305,93.6699 C51.6135,93.3019 52.0345,92.9819 52.3225,92.7299 C55.2755,90.1459 58.9415,86.6269 61.0955,82.3229 C62.4455,79.6199 65.0245,74.8339 67.1165,73.1409 C67.2885,72.9999 67.5425,73.0279 67.6825,73.1999 C67.8225,73.3729 67.7955,73.6269 67.6225,73.7659 C65.5755,75.4229 62.8795,80.5539 61.8145,82.6829 C59.6005,87.1129 55.8615,90.7029 52.8525,93.3359 C52.5535,93.5969 52.1185,93.9299 51.6185,94.3099 C49.9585,95.5729 47.1835,97.6859 47.4175,99.0519 C47.6545,100.4209 50.9325,102.1049 53.3255,103.3349 C54.3965,103.8849 55.3225,104.3599 55.9415,104.7729 L56.2835,104.9999 C57.9265,106.0899 59.7895,107.3259 61.3375,109.3369 C62.9715,111.4579 64.9585,116.6129 65.0425,116.8319 C65.1225,117.0399 65.0195,117.2729 64.8115,117.3519 C64.7635,117.3699 64.7145,117.3789 64.6665,117.3789" id="Fill-84" fill="#000000"></path>
                    <path d="M66.2476,172.2793 C66.1056,172.2793 65.9696,172.2053 65.8946,172.0733 C65.0206,170.5033 64.0046,168.6033 63.0996,166.4283 C59.7826,158.4703 56.0246,149.4503 53.7746,140.4493 C53.3886,138.9053 52.5336,136.2613 51.6276,133.4643 C48.5096,123.8313 47.6176,120.5103 48.4726,119.8333 C49.1436,119.2983 50.7236,119.7103 53.4566,120.4813 C55.9346,121.1803 58.7396,121.9723 60.4216,121.6363 C62.1686,121.2873 64.9866,116.1653 66.5006,113.4143 C67.2576,112.0373 67.6326,111.3653 67.8676,111.1303 C68.0246,110.9733 68.2796,110.9733 68.4366,111.1303 C68.5946,111.2873 68.5946,111.5423 68.4366,111.6993 C68.2716,111.8643 67.7296,112.8493 67.2056,113.8013 C64.9226,117.9523 62.5296,122.0353 60.5796,122.4263 C58.7086,122.8003 55.8026,121.9793 53.2376,121.2563 C51.5996,120.7933 49.3556,120.1593 48.9726,120.4643 C48.5346,121.2913 50.9506,128.7563 52.3936,133.2163 C53.3036,136.0273 54.1636,138.6823 54.5556,140.2543 C56.7906,149.1963 60.5366,158.1863 63.8426,166.1183 C64.7316,168.2583 65.7346,170.1313 66.5996,171.6813 C66.7076,171.8763 66.6376,172.1213 66.4426,172.2283 C66.3816,172.2633 66.3136,172.2793 66.2476,172.2793" id="Fill-86" fill="#000000"></path>
                    <path d="M134.3697,125.9951 C134.3307,125.9951 134.2917,125.9901 134.2537,125.9781 C134.0397,125.9131 133.9197,125.6881 133.9837,125.4761 C136.0367,118.7031 136.2787,115.7301 135.9397,115.3861 C135.3397,115.2261 133.5177,116.2991 131.9107,117.2371 C130.1257,118.2791 128.1037,119.4601 126.4497,119.8411 C123.1817,120.5961 117.6797,118.9451 113.9117,114.4101 C113.7687,114.2391 113.7927,113.9851 113.9647,113.8431 C114.1337,113.7021 114.3897,113.7251 114.5307,113.8951 C118.0937,118.1851 123.2417,119.7581 126.2687,119.0571 C127.8037,118.7031 129.7697,117.5551 131.5057,116.5421 C133.8087,115.1971 135.2717,114.3841 136.1767,114.6231 C136.3167,114.6611 136.5147,114.7581 136.6577,115.0151 C137.4127,116.3651 135.7897,122.2951 134.7547,125.7091 C134.7017,125.8841 134.5427,125.9951 134.3697,125.9951" id="Fill-88" fill="#000000"></path>
                    <path d="M119.3277,192.5469 C119.3037,192.5469 119.2777,192.5449 119.2527,192.5399 C119.0337,192.4989 118.8907,192.2879 118.9317,192.0699 C119.6997,188.0169 121.1177,182.8379 122.6197,177.3539 C123.1547,175.3969 123.6977,173.4109 124.2217,171.4439 C124.2787,171.2309 124.4967,171.0979 124.7137,171.1579 C124.9287,171.2159 125.0567,171.4369 124.9997,171.6509 C124.4757,173.6199 123.9317,175.6079 123.3947,177.5669 C121.8987,183.0339 120.4847,188.1979 119.7237,192.2199 C119.6857,192.4129 119.5167,192.5469 119.3277,192.5469" id="Fill-90" fill="#000000"></path>
                    <path d="M118.5767,118.044 C118.5267,118.044 118.4757,118.034 118.4277,118.015 C118.2207,117.933 118.1207,117.698 118.2027,117.492 C119.8557,113.358 120.7727,111.751 122.6657,109.676 C123.3207,108.957 124.1687,108.286 124.9877,107.637 C126.5137,106.428 127.9547,105.288 127.8327,104.142 C127.7237,103.137 126.3907,102.334 124.8477,101.403 C123.6887,100.705 122.3747,99.914 121.3327,98.872 L120.7357,98.279 C118.5127,96.078 116.5927,94.177 114.6677,89.481 C114.5837,89.275 114.6817,89.04 114.8887,88.955 C115.0917,88.872 115.3287,88.969 115.4137,89.175 C117.2747,93.721 119.1417,95.568 121.3027,97.707 L121.9017,98.302 C122.8747,99.275 124.1427,100.039 125.2637,100.713 C126.9897,101.754 128.4827,102.653 128.6327,104.057 C128.8027,105.643 127.1917,106.918 125.4877,108.268 C124.6927,108.897 123.8717,109.547 123.2607,110.218 C121.4457,112.208 120.5597,113.764 118.9497,117.791 C118.8877,117.948 118.7357,118.044 118.5767,118.044" id="Fill-92" fill="#000000"></path>
                    <path d="M94.2857,143.1953 C94.0937,143.1953 93.9237,143.0573 93.8897,142.8613 C93.0857,138.1833 92.8687,133.3553 92.6777,129.0953 C92.5517,126.3063 92.4327,123.6723 92.1697,121.3703 C91.7907,118.0833 89.7287,116.2463 86.8747,113.7033 C84.8277,111.8793 82.5067,109.8123 80.2507,106.6903 C74.6537,98.9443 71.4587,87.1233 70.9867,83.9213 C70.9257,83.5023 70.8487,83.0563 70.7687,82.5973 C70.3387,80.0833 69.8487,77.2333 71.1887,75.7923 C71.8237,75.1103 72.8067,74.8293 74.0967,74.9543 C74.3167,74.9753 74.4787,75.1723 74.4577,75.3933 C74.4357,75.6143 74.2357,75.7773 74.0177,75.7553 C72.9737,75.6543 72.2397,75.8443 71.7777,76.3413 C70.7107,77.4893 71.1827,80.2463 71.5627,82.4603 C71.6427,82.9263 71.7217,83.3783 71.7837,83.8033 C72.2477,86.9563 75.3937,98.5923 80.9037,106.2183 C83.1077,109.2703 85.3937,111.3053 87.4107,113.1023 C90.2857,115.6633 92.5567,117.6863 92.9697,121.2793 C93.2367,123.6073 93.3547,126.2563 93.4817,129.0593 C93.6717,133.2963 93.8877,138.0973 94.6827,142.7243 C94.7207,142.9443 94.5737,143.1523 94.3547,143.1903 C94.3317,143.1943 94.3077,143.1953 94.2857,143.1953" id="Fill-94" fill="#000000"></path>
                    <g id="Group-98" transform="translate(97.000000, 183.277000)">
                        <mask id="mask-16" fill="white">
                            <use xlink:href="#path-15"></use>
                        </mask>
                        <g id="Clip-97"></g>
                        <path d="M3.5259,61.726 C3.3259,61.726 3.1519,61.578 3.1269,61.373 C2.3579,55.226 2.9389,46.323 3.4519,38.467 C3.7169,34.392 3.9679,30.541 4.0069,27.464 C4.0989,20.296 2.9449,14.142 1.8279,8.191 C1.5419,6.668 1.2579,5.159 0.9989,3.65 C0.8349,2.693 0.6259,1.7 0.3429,0.525 C0.2919,0.309 0.4239,0.09 0.6409,0.038 C0.8579,-0.008 1.0749,0.121 1.1269,0.336 C1.4129,1.529 1.6249,2.538 1.7929,3.513 C2.0509,5.018 2.3339,6.524 2.6189,8.042 C3.7429,14.032 4.9059,20.226 4.8129,27.475 C4.7729,30.573 4.5209,34.433 4.2549,38.52 C3.7449,46.339 3.1669,55.202 3.9249,61.274 C3.9529,61.495 3.7969,61.696 3.5759,61.723 C3.5589,61.725 3.5429,61.726 3.5259,61.726" id="Fill-96" fill="#000000" mask="url(#mask-16)"></path>
                    </g>
                    <path d="M92.6646,120.1592 C92.5796,120.1592 92.4926,120.1312 92.4196,120.0752 C92.2436,119.9382 92.2106,119.6862 92.3466,119.5102 C95.1696,115.8542 101.0426,108.2472 99.4756,100.2762 C99.4336,100.0582 99.5746,99.8472 99.7926,99.8042 C100.0126,99.7602 100.2226,99.9032 100.2666,100.1202 C101.9026,108.4512 95.8796,116.2532 92.9836,120.0032 C92.9046,120.1052 92.7856,120.1592 92.6646,120.1592" id="Fill-99" fill="#000000"></path>
                    <path d="M65.7222,83.6724 C65.6652,83.6724 65.6082,83.6604 65.5532,83.6354 C65.3522,83.5424 65.2632,83.3034 65.3572,83.1014 C66.3632,80.9214 70.3052,76.4374 71.1122,75.9094 C71.2972,75.7864 71.5462,75.8394 71.6682,76.0254 C71.7902,76.2114 71.7392,76.4604 71.5522,76.5824 C70.9092,77.0054 67.0712,81.3094 66.0872,83.4384 C66.0202,83.5864 65.8742,83.6724 65.7222,83.6724" id="Fill-101" fill="#000000"></path>
                    <path d="M76.0454,123.6484 C75.9944,123.6484 75.9434,123.6454 75.8914,123.6384 C73.4974,123.3384 69.5694,116.9794 67.5384,107.9894 C67.4894,107.7724 67.6254,107.5564 67.8424,107.5074 C68.0574,107.4564 68.2744,107.5944 68.3234,107.8114 C70.5024,117.4524 74.4134,122.6424 75.9904,122.8394 C76.8584,122.9494 77.8434,120.5374 78.6524,118.6044 C79.3994,116.8214 80.1044,115.1374 80.9434,114.3764 C84.1234,111.4934 88.4764,114.7454 90.5684,116.3084 L90.7524,116.4454 C90.9304,116.5784 90.9674,116.8314 90.8344,117.0084 C90.7014,117.1884 90.4494,117.2244 90.2714,117.0914 L90.0874,116.9544 C88.1674,115.5184 84.1724,112.5344 81.4844,114.9724 C80.7774,115.6134 80.0744,117.2924 79.3954,118.9154 C78.3774,121.3464 77.4134,123.6484 76.0454,123.6484" id="Fill-103" fill="#000000"></path>
                    <path d="M112.0669,119.9287 C111.2479,119.9287 110.2139,118.2417 107.9689,113.9357 C107.3929,112.8297 106.8959,111.8757 106.6479,111.5277 C106.0049,110.6207 104.7609,109.9657 103.6249,109.9337 C102.9769,109.9157 102.0469,110.0937 101.2949,111.0397 C100.8039,111.6567 100.3969,112.3887 100.0029,113.0987 C98.9509,114.9937 97.8629,116.9527 95.0869,117.1137 C94.8719,117.1327 94.6739,116.9567 94.6619,116.7357 C94.6479,116.5127 94.8179,116.3227 95.0399,116.3097 C97.3739,116.1747 98.3089,114.4907 99.2979,112.7077 C99.7089,111.9697 100.1319,111.2067 100.6649,110.5377 C101.4229,109.5837 102.4479,109.0957 103.6469,109.1287 C105.0429,109.1677 106.5119,109.9437 107.3039,111.0607 C107.5839,111.4537 108.0699,112.3857 108.6829,113.5637 C109.5359,115.1977 111.2529,118.4897 111.9689,119.0527 C112.0219,118.8027 112.0609,118.1317 111.7939,116.3807 C111.4199,113.9327 109.5599,104.5537 107.3829,96.9297 C107.3219,96.7157 107.4449,96.4937 107.6589,96.4317 C107.8759,96.3717 108.0949,96.4947 108.1569,96.7087 C110.3749,104.4727 112.2019,113.7137 112.5889,116.2597 C113.0159,119.0587 112.7789,119.7277 112.2549,119.8977 C112.1939,119.9177 112.1299,119.9287 112.0669,119.9287" id="Fill-105" fill="#000000"></path>
                    <path d="M123.8413,70.8111 C123.7903,70.8111 123.7393,70.8021 123.6903,70.7821 C123.4843,70.6981 123.3843,70.4641 123.4673,70.2571 C123.7833,69.4781 124.2353,67.7611 124.6703,66.1011 C124.8073,65.5821 124.9423,65.0681 125.0723,64.5861 C125.1293,64.3731 125.3553,64.2461 125.5663,64.3021 C125.7793,64.3611 125.9073,64.5821 125.8493,64.7961 C125.7203,65.2761 125.5853,65.7891 125.4493,66.3061 C125.0073,67.9901 124.5493,69.7321 124.2143,70.5601 C124.1513,70.7161 124.0003,70.8111 123.8413,70.8111" id="Fill-107" fill="#000000"></path>
                    <path d="M97.1392,100.8267 C96.6432,100.8267 96.1452,100.8007 95.6422,100.7467 C83.7002,99.4597 77.8202,87.0067 76.7802,78.9507 C76.7512,78.7297 76.9082,78.5277 77.1272,78.4997 C77.3522,78.4737 77.5502,78.6277 77.5782,78.8477 C78.5462,86.3527 84.3292,98.7187 95.7292,99.9457 C107.1482,101.1727 117.1492,87.2307 119.9602,79.4907 C120.0352,79.2817 120.2662,79.1757 120.4762,79.2487 C120.6852,79.3257 120.7922,79.5557 120.7162,79.7647 C117.9522,87.3767 108.3722,100.8267 97.1392,100.8267" id="Fill-109" fill="#000000"></path>
                    <path d="M101.9927,82.1099 C101.7927,82.1099 101.6197,81.9619 101.5937,81.7579 C101.5657,81.5379 101.7217,81.3359 101.9417,81.3079 C103.8437,81.0669 104.3817,80.4989 104.6207,80.0929 C104.9307,79.5679 104.8507,79.0139 104.7417,78.2469 C104.5417,76.8499 104.2677,74.9369 106.3307,71.9699 C106.4567,71.7869 106.7077,71.7409 106.8897,71.8689 C107.0727,71.9959 107.1177,72.2469 106.9907,72.4289 C105.1097,75.1359 105.3467,76.7979 105.5387,78.1329 C105.6567,78.9559 105.7677,79.7329 105.3137,80.5019 C104.7977,81.3789 103.7587,81.8889 102.0437,82.1069 C102.0257,82.1089 102.0097,82.1099 101.9927,82.1099" id="Fill-111" fill="#000000"></path>
                    <path d="M119.396,72.75 C119.361,72.75 119.325,72.746 119.289,72.735 C118.771,72.592 118.109,72.465 117.407,72.33 C115.228,71.913 112.758,71.439 111.91,70.057 C111.596,69.546 111.532,68.958 111.717,68.309 C111.779,68.095 112.003,67.973 112.215,68.033 C112.429,68.094 112.553,68.317 112.492,68.531 C112.368,68.959 112.403,69.321 112.596,69.636 C113.259,70.716 115.643,71.172 117.559,71.54 C118.277,71.677 118.956,71.807 119.504,71.959 C119.719,72.02 119.844,72.241 119.784,72.456 C119.735,72.634 119.573,72.75 119.396,72.75" id="Fill-113" fill="#000000"></path>
                    <path d="M102.2896,67.5889 C100.9786,67.5889 99.2886,66.9229 97.2796,66.1319 C96.2216,65.7149 95.1266,65.2839 93.9376,64.8859 C93.7276,64.8149 93.6136,64.5869 93.6856,64.3759 C93.7566,64.1659 93.9846,64.0539 94.1946,64.1219 C95.4026,64.5269 96.5566,64.9819 97.5746,65.3829 C99.9596,66.3219 102.0186,67.1339 103.1076,66.6289 C103.4966,66.4479 103.7756,66.0899 103.9626,65.5349 C104.0336,65.3249 104.2616,65.2109 104.4736,65.2819 C104.6836,65.3529 104.7966,65.5809 104.7256,65.7919 C104.4686,66.5569 104.0376,67.0839 103.4476,67.3589 C103.1026,67.5179 102.7176,67.5889 102.2896,67.5889" id="Fill-115" fill="#000000"></path>
                    <path d="M74.9898,71.021 C74.9668,71.021 74.9428,71.019 74.9208,71.015 C69.8548,70.137 67.9038,63.639 68.6378,57.972 C68.8118,56.634 69.5428,53.462 72.5768,52.909 C74.6348,52.533 76.0098,53.763 77.0868,55.015 C77.2318,55.183 77.2128,55.438 77.0448,55.583 C76.8768,55.726 76.6218,55.708 76.4758,55.541 C75.5008,54.408 74.3688,53.4 72.7208,53.701 C70.2088,54.159 69.5878,56.913 69.4358,58.075 C68.7498,63.372 70.4868,69.429 75.0578,70.222 C75.2768,70.26 75.4238,70.468 75.3858,70.688 C75.3518,70.883 75.1808,71.021 74.9898,71.021" id="Fill-117" fill="#000000"></path>
                    <path d="M75.1812,64.1826 C74.9672,64.1826 74.7882,64.0136 74.7802,63.7966 C74.7112,62.1626 73.5372,60.6776 72.4892,60.2396 C72.2842,60.1536 72.1872,59.9176 72.2732,59.7126 C72.3592,59.5066 72.5942,59.4106 72.7992,59.4966 C74.1032,60.0416 75.5012,61.7866 75.5842,63.7636 C75.5932,63.9856 75.4202,64.1726 75.1992,64.1826 C75.1932,64.1826 75.1872,64.1826 75.1812,64.1826" id="Fill-119" fill="#000000"></path>
                    <path d="M83.8462,58.5513 C82.3752,58.5513 80.7662,57.9323 79.0082,56.3153 C78.8442,56.1643 78.8342,55.9093 78.9842,55.7463 C79.1362,55.5823 79.3912,55.5723 79.5532,55.7223 C84.1862,59.9853 87.6302,56.4943 90.3982,53.6893 L90.6602,53.4233 C93.4872,50.5653 95.9272,48.0963 99.1712,47.8163 C99.3932,47.7883 99.5882,47.9613 99.6072,48.1823 C99.6262,48.4043 99.4622,48.5993 99.2412,48.6183 C96.2912,48.8733 93.9482,51.2443 91.2332,53.9893 L90.9712,54.2543 C89.0822,56.1683 86.7312,58.5513 83.8462,58.5513" id="Fill-121" fill="#000000"></path>
                    <path d="M119.4751,25.4741 C119.3721,25.4741 119.2701,25.4351 119.1911,25.3571 C114.4131,20.6141 107.0341,17.7221 100.4221,18.0051 C96.7781,18.1561 93.8951,19.2671 92.3051,21.1321 C92.1621,21.3021 91.9071,21.3221 91.7381,21.1771 C91.5691,21.0331 91.5481,20.7791 91.6931,20.6101 C93.4291,18.5721 96.5181,17.3611 100.3891,17.2001 C107.2231,16.9061 114.8291,19.8931 119.7591,24.7861 C119.9161,24.9431 119.9171,25.1981 119.7601,25.3551 C119.6821,25.4341 119.5791,25.4741 119.4751,25.4741" id="Fill-123" fill="#000000"></path>
                    <path d="M72.0074,37.6719 C71.9854,37.6719 71.9614,37.6699 71.9384,37.6659 C71.7194,37.6269 71.5724,37.4189 71.6114,37.1989 C73.6364,25.6899 79.8724,20.2319 89.1634,21.8349 C89.3824,21.8729 89.5284,22.0809 89.4914,22.2999 C89.4534,22.5189 89.2464,22.6659 89.0274,22.6279 C77.7664,20.6869 73.7734,29.5569 72.4034,37.3389 C72.3694,37.5339 72.1994,37.6719 72.0074,37.6719" id="Fill-125" fill="#000000"></path>
                    <path d="M71.5523,53.5757 C71.3693,53.5757 71.2043,53.4507 71.1603,53.2647 C70.3363,49.7647 70.1943,45.6317 70.7683,41.9267 C70.8023,41.7067 71.0063,41.5587 71.2283,41.5907 C71.4483,41.6247 71.5983,41.8297 71.5643,42.0497 C71.0043,45.6567 71.1433,49.6777 71.9453,53.0807 C71.9953,53.2977 71.8613,53.5137 71.6453,53.5647 C71.6143,53.5717 71.5823,53.5757 71.5523,53.5757" id="Fill-127" fill="#000000"></path>
                    <path d="M105.1958,68.2847 C105.0808,68.2847 104.9668,68.2357 104.8858,68.1397 C104.7448,67.9687 104.7668,67.7157 104.9378,67.5727 C105.4568,67.1397 106.0078,66.1197 106.1778,65.7637 C106.2738,65.5627 106.5138,65.4787 106.7148,65.5727 C106.9158,65.6677 107.0008,65.9077 106.9058,66.1077 C106.8778,66.1667 106.2158,67.5557 105.4538,68.1907 C105.3788,68.2537 105.2868,68.2847 105.1958,68.2847" id="Fill-129" fill="#000000"></path>
                    <path d="M71.0269,81.0308 C70.9349,81.0308 70.8429,80.9998 70.7679,80.9358 C70.5979,80.7928 70.5769,80.5388 70.7189,80.3688 C73.4839,77.0908 74.2679,74.9188 74.6389,72.4758 C74.6729,72.2568 74.8789,72.1058 75.0969,72.1388 C75.3169,72.1718 75.4679,72.3768 75.4349,72.5968 C74.9729,75.6438 73.8619,77.8908 71.3359,80.8878 C71.2559,80.9818 71.1419,81.0308 71.0269,81.0308" id="Fill-131" fill="#000000"></path>
                    <path d="M101.9654,151.8223 C101.9184,151.8223 101.8694,151.8133 101.8224,151.7963 C101.6144,151.7183 101.5104,151.4843 101.5894,151.2773 L110.8504,126.9503 C110.8584,126.9223 111.2374,125.7533 112.1444,125.1893 C113.0334,124.6363 114.3594,124.7273 114.4144,124.7293 L138.0824,127.1743 C138.3044,127.1963 138.4644,127.3943 138.4414,127.6163 C138.4184,127.8373 138.2194,128.0003 137.9994,127.9743 L114.3444,125.5313 C114.3404,125.5313 113.2334,125.4603 112.5694,125.8743 C111.9194,126.2773 111.6124,127.2073 111.6104,127.2173 L102.3424,151.5633 C102.2804,151.7233 102.1284,151.8223 101.9654,151.8223" id="Fill-133" fill="#000000"></path>
                    <g id="Group-137" transform="translate(77.000000, 0.277000)">
                        <mask id="mask-18" fill="white">
                            <use xlink:href="#path-17"></use>
                        </mask>
                        <g id="Clip-136"></g>
                        <path d="M1.1529,19.3563 L1.1529,19.3563 C0.9299,19.3563 0.7509,19.1953 0.7509,18.9733 L0.7939,-0.6007 C0.7949,-0.8227 0.9739,-1.0017 1.1969,-1.0017 L1.1979,-1.0017 C1.4199,-1.0017 1.5989,-0.8207 1.5989,-0.5987 L1.5549,18.9363 C1.5549,19.1583 1.3749,19.3563 1.1529,19.3563" id="Fill-135" fill="#000000" mask="url(#mask-18)"></path>
                    </g>
                    <g id="Group-140" transform="translate(88.000000, 0.277000)">
                        <mask id="mask-20" fill="white">
                            <use xlink:href="#path-19"></use>
                        </mask>
                        <g id="Clip-139"></g>
                        <path d="M0.8413,15.3539 L0.8373,15.3539 C0.6153,15.3519 0.4373,15.1699 0.4393,14.9479 L0.4423,13.9279 L0.4803,-4.2821 C0.4813,-4.5041 0.6603,-4.6841 0.8833,-4.6841 C1.1063,-4.6831 1.2853,-4.5021 1.2853,-4.2801 L1.2443,14.9559 C1.2423,15.1759 1.0623,15.3539 0.8413,15.3539" id="Fill-138" fill="#000000" mask="url(#mask-20)"></path>
                    </g>
                    <g id="Group-143" transform="translate(99.000000, 0.277000)">
                        <mask id="mask-22" fill="white">
                            <use xlink:href="#path-21"></use>
                        </mask>
                        <g id="Clip-142"></g>
                        <path d="M1.1919,12.6874 L1.1899,12.6874 C0.9679,12.6864 0.7889,12.5054 0.7899,12.2834 L0.8359,-5.8756 C0.8359,-6.0976 1.0159,-6.2776 1.2379,-6.2776 L1.2389,-6.2776 C1.4619,-6.2766 1.6409,-6.0966 1.6399,-5.8736 L1.5939,12.2864 C1.5929,12.5084 1.4139,12.6874 1.1919,12.6874" id="Fill-141" fill="#000000" mask="url(#mask-22)"></path>
                    </g>
                    <g id="Group-146" transform="translate(111.000000, 0.277000)">
                        <mask id="mask-24" fill="white">
                            <use xlink:href="#path-23"></use>
                        </mask>
                        <g id="Clip-145"></g>
                        <path d="M0.8628,15.0775 L0.8628,15.0775 C0.6398,15.0775 0.4598,14.9315 0.4598,14.7095 L0.5078,-4.7975 C0.5078,-5.0195 0.6878,-5.1985 0.9098,-5.1985 L0.9108,-5.1985 C1.1338,-5.1985 1.3128,-5.0175 1.3118,-4.7955 L1.2648,14.6415 C1.2648,14.8635 1.0848,15.0775 0.8628,15.0775" id="Fill-144" fill="#000000" mask="url(#mask-24)"></path>
                    </g>
                    <g id="Group-149" transform="translate(121.000000, 0.277000)">
                        <mask id="mask-26" fill="white">
                            <use xlink:href="#path-25"></use>
                        </mask>
                        <g id="Clip-148"></g>
                        <path d="M1.0874,22.7582 L1.0874,22.7582 C0.8644,22.7582 0.6844,22.5772 0.6854,22.3552 L0.7394,-1.3428 C0.7404,-1.5648 0.9204,-1.7448 1.1424,-1.7448 L1.1434,-1.7448 C1.3654,-1.7438 1.5454,-1.5628 1.5444,-1.3418 L1.4904,22.3562 C1.4894,22.5782 1.3094,22.7582 1.0874,22.7582" id="Fill-147" fill="#000000" mask="url(#mask-26)"></path>
                    </g>
                    <path d="M101.3169,90.5337 C101.7329,90.5337 102.1429,90.5497 102.6589,90.7047 C103.0869,90.8327 103.4479,91.0777 103.7659,91.2947 C104.3489,91.6907 104.5799,91.8087 104.8819,91.5897 C104.9899,91.5127 105.1019,91.3937 105.0299,91.1487 C104.9149,90.7627 104.4129,90.3297 103.8459,90.3027 C102.0439,90.2147 100.6299,90.0627 99.6409,89.8507 C98.7559,89.6607 98.0019,89.3447 97.2719,89.0377 C96.5179,88.7217 95.8059,88.4227 94.9599,88.2527 C94.1869,88.0977 93.0669,88.3487 92.9119,88.8507 C92.8679,88.9907 92.8989,89.0397 92.9119,89.0607 C93.0829,89.3387 94.0199,89.4937 94.3289,89.5447 C94.8239,89.6267 95.1039,89.6007 95.4279,89.5717 C95.7899,89.5377 96.1999,89.5007 96.9209,89.6027 C97.4129,89.6737 97.8079,89.8187 98.2269,89.9727 C98.6289,90.1197 99.0829,90.2867 99.7099,90.4167 C100.3009,90.5387 100.7309,90.5377 101.1499,90.5337 C101.2059,90.5337 101.2609,90.5337 101.3169,90.5337 M104.5979,92.5067 C104.1179,92.5067 103.6849,92.2127 103.3129,91.9607 C103.0299,91.7677 102.7369,91.5687 102.4279,91.4757 C101.9589,91.3347 101.5859,91.3367 101.1539,91.3397 C100.7169,91.3417 100.2209,91.3437 99.5469,91.2047 C98.8619,91.0627 98.3769,90.8857 97.9499,90.7287 C97.5549,90.5837 97.2139,90.4587 96.8059,90.4007 C96.1799,90.3107 95.8359,90.3427 95.5019,90.3727 C95.1539,90.4047 94.7939,90.4367 94.1979,90.3387 C93.2319,90.1797 92.5279,89.9727 92.2259,89.4837 C92.1189,89.3087 92.0169,89.0147 92.1429,88.6117 C92.4709,87.5547 94.1109,87.2627 95.1179,87.4637 C96.0439,87.6487 96.8269,87.9777 97.5839,88.2957 C98.3109,88.6007 98.9989,88.8897 99.8099,89.0637 C100.7549,89.2657 102.1269,89.4117 103.8849,89.4977 C104.7359,89.5387 105.5779,90.1637 105.8019,90.9207 C105.9549,91.4357 105.7869,91.9297 105.3539,92.2427 C105.0909,92.4317 104.8379,92.5067 104.5979,92.5067" id="Fill-150" fill="#000000"></path>
                    <path d="M94.8775,70.0864 C95.4935,69.1934 96.5825,68.8454 97.3095,69.3104 C98.0345,69.7754 98.1235,70.8764 97.5065,71.7694 C96.8905,72.6624 95.8015,73.0094 95.0755,72.5444 C94.3495,72.0804 94.2605,70.9794 94.8775,70.0864" id="Fill-152" fill="#000000"></path>
                    <path d="M112.2876,74.898 C112.9036,74.047 113.9316,73.755 114.5826,74.247 C115.2336,74.738 115.2616,75.826 114.6446,76.677 C114.0276,77.527 113.0006,77.818 112.3496,77.327 C111.6986,76.836 111.6706,75.749 112.2876,74.898" id="Fill-154" fill="#000000"></path>
                    <path d="M93.9048,73.8614 C93.8638,73.8614 93.8218,73.8554 93.7808,73.8414 C93.0448,73.6034 92.4628,72.6114 92.4018,71.8704 C92.3838,71.6484 92.5478,71.4544 92.7688,71.4364 C92.9968,71.4084 93.1848,71.5814 93.2038,71.8034 C93.2418,72.2544 93.6478,72.9524 94.0288,73.0754 C94.2398,73.1444 94.3558,73.3714 94.2878,73.5824 C94.2318,73.7534 94.0748,73.8614 93.9048,73.8614" id="Fill-156" fill="#000000"></path>
                    <path d="M113.2906,79.4776 C113.1886,79.4776 113.0936,79.4716 113.0036,79.4616 C112.7826,79.4356 112.6246,79.2356 112.6496,79.0156 C112.6756,78.7946 112.8796,78.6346 113.0966,78.6616 C113.5586,78.7156 114.2526,78.5706 114.6826,78.1246 C114.8366,77.9656 115.0916,77.9606 115.2516,78.1146 C115.4116,78.2696 115.4166,78.5236 115.2626,78.6846 C114.6916,79.2756 113.8996,79.4776 113.2906,79.4776" id="Fill-158" fill="#000000"></path>
                    <path d="M106.3355,51.3101 C104.9955,51.3101 103.4765,50.9051 101.7405,50.0911 C101.5395,49.9971 101.4525,49.7561 101.5475,49.5551 C101.6425,49.3551 101.8805,49.2671 102.0825,49.3621 C104.5425,50.5161 106.4965,50.7921 108.0545,50.2071 C108.2605,50.1311 108.4945,50.2341 108.5725,50.4431 C108.6515,50.6511 108.5465,50.8831 108.3375,50.9611 C107.7195,51.1931 107.0535,51.3101 106.3355,51.3101" id="Fill-160" fill="#000000"></path>
                    <g id="Group-164" transform="translate(0.000000, 84.277000)">
                        <mask id="mask-28" fill="white">
                            <use xlink:href="#path-27"></use>
                        </mask>
                        <g id="Clip-163"></g>
                        <path d="M19.5625,132.8969 C14.1825,132.8969 9.1885,131.9619 5.6485,129.5659 C-3.3475,123.4749 1.4595,87.8039 1.5095,87.4449 C2.0375,83.6219 2.5885,76.0779 3.1715,68.0899 C3.5125,63.4309 3.8635,58.6139 4.2435,54.0379 C5.2925,41.3889 8.9875,25.5389 14.6215,20.6269 C18.6315,17.1299 23.2965,15.3469 28.2345,13.4579 C28.7775,13.2509 29.3225,13.0419 29.8675,12.8309 C37.8525,9.7359 48.1515,5.0549 56.7485,0.6129 C56.9355,0.5159 57.1655,0.5899 57.2625,0.7759 C57.3585,0.9629 57.2855,1.1929 57.0985,1.2909 C48.4795,5.7439 38.1505,10.4389 30.1435,13.5419 C29.5965,13.7529 29.0515,13.9619 28.5065,14.1699 C23.6335,16.0339 19.0305,17.7939 15.1225,21.2019 C9.8925,25.7619 6.0735,41.2029 5.0035,54.0999 C4.6245,58.6729 4.2725,63.4889 3.9325,68.1459 C3.3475,76.1459 2.7955,83.7019 2.2655,87.5479 C2.2165,87.9039 -2.5315,123.1059 6.0765,128.9339 C13.2195,133.7709 26.6165,132.4299 36.7725,129.5619 C42.3785,127.9789 50.6875,125.1049 56.7545,123.0049 L59.2375,122.1479 C61.2335,121.4599 74.9515,115.0349 77.3565,113.4649 C77.5325,113.3509 77.7695,113.3999 77.8845,113.5759 C77.9995,113.7519 77.9495,113.9889 77.7735,114.1039 C75.3455,115.6889 61.4995,122.1759 59.4855,122.8689 L57.0045,123.7259 C50.9285,125.8279 42.6065,128.7069 36.9795,130.2959 C31.6235,131.8079 25.3685,132.8969 19.5625,132.8969" id="Fill-162" fill="#000000" mask="url(#mask-28)"></path>
                    </g>
                </g>
                <path d="M46.47,141.942 C47.7846667,141.942 48.986,141.738 50.074,141.33 C51.162,140.922 52.097,140.366667 52.879,139.664 C53.661,138.961333 54.2673333,138.134 54.698,137.182 C55.1286667,136.23 55.344,135.198667 55.344,134.088 C55.344,133.226667 55.2023333,132.405 54.919,131.623 C54.6356667,130.841 54.2333333,130.121333 53.712,129.464 L53.712,129.464 L57.962,129.464 L57.962,126.166 L48.442,126.166 L48.442,122.46 L44.498,122.46 L44.498,126.166 L34.978,126.166 L34.978,129.464 L39.228,129.464 C38.14,130.824 37.596,132.365333 37.596,134.088 C37.596,135.198667 37.8113333,136.23 38.242,137.182 C38.6726667,138.134 39.279,138.961333 40.061,139.664 C40.843,140.366667 41.778,140.922 42.866,141.33 C43.954,141.738 45.1553333,141.942 46.47,141.942 Z M46.47,138.644 C44.8606667,138.644 43.614,138.224667 42.73,137.386 C41.846,136.547333 41.404,135.448 41.404,134.088 C41.404,132.728 41.846,131.628667 42.73,130.79 C43.614,129.951333 44.8606667,129.532 46.47,129.532 C48.0793333,129.532 49.326,129.951333 50.21,130.79 C51.094,131.628667 51.536,132.728 51.536,134.088 C51.536,135.448 51.094,136.547333 50.21,137.386 C49.326,138.224667 48.0793333,138.644 46.47,138.644 Z M42.934,154.658 L42.934,147.484 L50.346,147.484 L50.346,154.658 L54.154,154.658 L54.154,147.484 L60.784,147.484 L60.784,144.152 L32.496,144.152 L32.496,147.484 L39.126,147.484 L39.126,154.658 L42.934,154.658 Z M90.8845517,153.978 L90.8845517,124.024 L87.0765517,124.024 L87.0765517,134.394 L83.6085517,134.394 L83.6085517,124.024 L79.8685517,124.024 L79.8685517,153.4 L83.6085517,153.4 L83.6085517,137.726 L87.0765517,137.726 L87.0765517,153.978 L90.8845517,153.978 Z M69.2945517,146.6 C71.1305517,146.6 72.8418851,146.509333 74.4285517,146.328 C76.0152184,146.146667 77.3525517,145.829333 78.4405517,145.376 L78.4405517,145.376 L77.7945517,142.418 C76.9332184,142.735333 75.8565517,142.956333 74.5645517,143.081 C73.2725517,143.205667 71.8445517,143.268 70.2805517,143.268 L70.2805517,143.268 L69.1245517,143.268 L69.1245517,128.41 L76.8765517,128.41 L76.8765517,125.078 L62.4605517,125.078 L62.4605517,128.41 L65.2825517,128.41 L65.2825517,146.6 L69.2945517,146.6 Z M121.937103,143.88 L121.937103,140.548 L109.697103,140.548 L109.697103,137.352 L119.013103,137.352 L119.013103,134.054 L115.205103,134.054 L115.205103,127.662 L118.367103,127.662 L118.367103,124.364 L97.2871034,124.364 L97.2871034,127.662 L100.483103,127.662 L100.483103,134.054 L96.6751034,134.054 L96.6751034,137.352 L105.889103,137.352 L105.889103,140.548 L93.6491034,140.548 L93.6491034,143.88 L121.937103,143.88 Z M111.465103,134.054 L104.223103,134.054 L104.223103,127.662 L111.465103,127.662 L111.465103,134.054 Z M118.537103,155.44 L118.537103,152.108 L101.299103,152.108 L101.299103,146.124 L97.4911034,146.124 L97.4911034,155.44 L118.537103,155.44 Z M134.017655,145.104 C135.264322,145.104 136.448655,144.883 137.570655,144.441 C138.692655,143.999 139.672989,143.387 140.511655,142.605 C141.350322,141.823 142.018989,140.888 142.517655,139.8 C143.016322,138.712 143.265655,137.533333 143.265655,136.264 C143.265655,135.153333 143.078655,134.116333 142.704655,133.153 C142.330655,132.189667 141.809322,131.334 141.140655,130.586 C140.471989,129.838 139.689989,129.209 138.794655,128.699 C137.899322,128.189 136.941655,127.832 135.921655,127.628 L135.921655,127.628 L135.921655,123.854 L132.045655,123.854 L132.045655,127.628 C131.025655,127.832 130.067989,128.194667 129.172655,128.716 C128.277322,129.237333 127.506655,129.872 126.860655,130.62 C126.214655,131.368 125.704655,132.218 125.330655,133.17 C124.956655,134.122 124.769655,135.153333 124.769655,136.264 C124.769655,137.533333 125.018989,138.712 125.517655,139.8 C126.016322,140.888 126.684989,141.823 127.523655,142.605 C128.362322,143.387 129.342655,143.999 130.464655,144.441 C131.586655,144.883 132.770989,145.104 134.017655,145.104 Z M151.425655,153.978 L151.425655,124.024 L147.617655,124.024 L147.617655,153.978 L151.425655,153.978 Z M134.017655,141.806 C133.292322,141.806 132.600989,141.675667 131.943655,141.415 C131.286322,141.154333 130.708322,140.786 130.209655,140.31 C129.710989,139.834 129.319989,139.256 129.036655,138.576 C128.753322,137.896 128.611655,137.125333 128.611655,136.264 C128.611655,135.425333 128.753322,134.660333 129.036655,133.969 C129.319989,133.277667 129.710989,132.694 130.209655,132.218 C130.708322,131.742 131.286322,131.373667 131.943655,131.113 C132.600989,130.852333 133.292322,130.722 134.017655,130.722 C134.742989,130.722 135.434322,130.852333 136.091655,131.113 C136.748989,131.373667 137.321322,131.742 137.808655,132.218 C138.295989,132.694 138.686989,133.277667 138.981655,133.969 C139.276322,134.660333 139.423655,135.425333 139.423655,136.264 C139.423655,137.125333 139.276322,137.896 138.981655,138.576 C138.686989,139.256 138.295989,139.834 137.808655,140.31 C137.321322,140.786 136.748989,141.154333 136.091655,141.415 C135.434322,141.675667 134.742989,141.806 134.017655,141.806 Z M57.724,195.978 L57.724,180.168 L62.28,180.168 L62.28,176.836 L57.724,176.836 L57.724,166.024 L53.916,166.024 L53.916,195.978 L57.724,195.978 Z M51.706,188.804 L51.706,185.472 L48.306,185.472 L48.306,170.41 L51.264,170.41 L51.264,167.078 L32.734,167.078 L32.734,170.41 L35.862,170.41 L35.862,185.472 L32.428,185.472 L32.428,188.804 L51.706,188.804 Z M44.566,185.472 L39.602,185.472 L39.602,170.41 L44.566,170.41 L44.566,185.472 Z M87.6545517,179.726 L88.7765517,176.53 C87.4845517,176.348667 86.2548851,176.037 85.0875517,175.595 C83.9202184,175.153 82.8945517,174.643 82.0105517,174.065 C81.1265517,173.487 80.4295517,172.869333 79.9195517,172.212 C79.4095517,171.554667 79.1545517,170.931333 79.1545517,170.342 L79.1545517,170.342 L79.1545517,166.024 L72.9665517,166.024 L72.9665517,169.356 L75.2785517,169.356 L75.2785517,170.376 C75.2785517,170.988 75.1312184,171.571667 74.8365517,172.127 C74.5418851,172.682333 74.1508851,173.186667 73.6635517,173.64 C73.1762184,174.093333 72.6208851,174.484333 71.9975517,174.813 C71.3742184,175.141667 70.7452184,175.396667 70.1105517,175.578 C69.2038851,175.827333 68.3198851,175.997333 67.4585517,176.088 C66.5972184,176.178667 65.9738851,176.224 65.5885517,176.224 L65.5885517,176.224 L65.5885517,179.624 C66.5858851,179.578667 67.5095517,179.499333 68.3595517,179.386 C69.2095517,179.272667 70.0652184,179.091333 70.9265517,178.842 C72.1278851,178.479333 73.2895517,177.992 74.4115517,177.38 C75.5335517,176.768 76.5252184,175.85 77.3865517,174.626 C77.7718851,175.260667 78.3385517,175.855667 79.0865517,176.411 C79.8345517,176.966333 80.6732184,177.465 81.6025517,177.907 C82.5318851,178.349 83.5235517,178.723 84.5775517,179.029 C85.6315517,179.335 86.6572184,179.567333 87.6545517,179.726 L87.6545517,179.726 Z M91.3605517,186.084 L91.3605517,182.752 L79.1205517,182.752 L79.1205517,178.4 L75.3125517,178.4 L75.3125517,182.752 L63.0725517,182.752 L63.0725517,186.084 L91.3605517,186.084 Z M88.1985517,197.44 L88.1985517,194.108 L70.7225517,194.108 L70.7225517,188.464 L66.9145517,188.464 L66.9145517,197.44 L88.1985517,197.44 Z M120.713103,189.348 L120.713103,166.024 L116.905103,166.024 L116.905103,189.348 L120.713103,189.348 Z M105.821103,186.016 C107.181103,186.016 108.671437,185.959333 110.292103,185.846 C111.91277,185.732667 113.56177,185.449333 115.239103,184.996 L115.239103,184.996 L115.239103,181.8 C114.015103,182.072 112.706103,182.276 111.312103,182.412 C109.918103,182.548 108.518437,182.638667 107.113103,182.684 L107.113103,182.684 L107.113103,179.488 C108.29177,179.42 109.425103,179.312333 110.513103,179.165 C111.601103,179.017667 112.54177,178.796667 113.335103,178.502 L113.335103,178.502 L112.723103,175.408 C111.499103,175.748 110.09377,175.969 108.507103,176.071 C106.920437,176.173 105.345103,176.224 103.781103,176.224 L103.781103,176.224 L100.959103,176.224 L100.959103,170.104 L112.485103,170.104 L112.485103,166.772 L94.8391034,166.772 L94.8391034,170.104 L97.1511034,170.104 L97.1511034,179.556 L103.305103,179.556 L103.305103,182.684 L94.2611034,182.684 L94.2611034,186.016 L105.821103,186.016 Z M121.325103,197.44 L121.325103,194.108 L103.917103,194.108 L103.917103,188.09 L100.109103,188.09 L100.109103,197.44 L121.325103,197.44 Z M159.188207,183.092 L159.188207,166.024 L155.380207,166.024 L155.380207,169.458 L149.634207,169.458 L149.634207,172.79 L155.380207,172.79 L155.380207,176.53 L148.784207,176.53 L148.784207,179.862 L155.380207,179.862 L155.380207,183.092 L159.188207,183.092 Z M135.048207,183.602 C136.79354,183.216667 138.482207,182.610333 140.114207,181.783 C141.746207,180.955667 143.191207,179.93 144.449207,178.706 C145.707207,177.482 146.710207,176.088 147.458207,174.524 C148.206207,172.96 148.580207,171.26 148.580207,169.424 L148.580207,169.424 L148.580207,166.602 L134.606207,166.602 L134.606207,169.934 L144.772207,169.934 C144.772207,171.43 144.420874,172.773 143.718207,173.963 C143.01554,175.153 142.11454,176.195667 141.015207,177.091 C139.915874,177.986333 138.69754,178.734333 137.360207,179.335 C136.022874,179.935667 134.71954,180.394667 133.450207,180.712 L133.450207,180.712 L135.048207,183.602 Z M149.498207,198.46 C150.654207,198.46 151.77054,198.278667 152.847207,197.916 C153.923874,197.553333 154.870207,197.032 155.686207,196.352 C156.502207,195.672 157.153874,194.850333 157.641207,193.887 C158.12854,192.923667 158.372207,191.841333 158.372207,190.64 C158.372207,189.438667 158.12854,188.356333 157.641207,187.393 C157.153874,186.429667 156.502207,185.608 155.686207,184.928 C154.870207,184.248 153.923874,183.726667 152.847207,183.364 C151.77054,183.001333 150.654207,182.82 149.498207,182.82 C148.342207,182.82 147.225874,183.001333 146.149207,183.364 C145.07254,183.726667 144.126207,184.248 143.310207,184.928 C142.494207,185.608 141.84254,186.429667 141.355207,187.393 C140.867874,188.356333 140.624207,189.438667 140.624207,190.64 C140.624207,191.841333 140.867874,192.923667 141.355207,193.887 C141.84254,194.850333 142.494207,195.672 143.310207,196.352 C144.126207,197.032 145.07254,197.553333 146.149207,197.916 C147.225874,198.278667 148.342207,198.46 149.498207,198.46 Z M149.498207,195.23 C148.772874,195.23 148.09854,195.128 147.475207,194.924 C146.851874,194.72 146.31354,194.419667 145.860207,194.023 C145.406874,193.626333 145.049874,193.144667 144.789207,192.578 C144.52854,192.011333 144.398207,191.365333 144.398207,190.64 C144.398207,189.914667 144.52854,189.268667 144.789207,188.702 C145.049874,188.135333 145.406874,187.653667 145.860207,187.257 C146.31354,186.860333 146.851874,186.56 147.475207,186.356 C148.09854,186.152 148.772874,186.05 149.498207,186.05 C150.22354,186.05 150.897874,186.152 151.521207,186.356 C152.14454,186.56 152.682874,186.860333 153.136207,187.257 C153.58954,187.653667 153.94654,188.135333 154.207207,188.702 C154.467874,189.268667 154.598207,189.914667 154.598207,190.64 C154.598207,191.365333 154.467874,192.011333 154.207207,192.578 C153.94654,193.144667 153.58954,193.626333 153.136207,194.023 C152.682874,194.419667 152.14454,194.72 151.521207,194.924 C150.897874,195.128 150.22354,195.23 149.498207,195.23 Z M177.456759,183.194 C178.703425,183.194 179.887759,183.012667 181.009759,182.65 C182.131759,182.287333 183.112092,181.766 183.950759,181.086 C184.789425,180.406 185.452425,179.567333 185.939759,178.57 C186.427092,177.572667 186.670759,176.439333 186.670759,175.17 C186.670759,174.059333 186.483759,173.056333 186.109759,172.161 C185.735759,171.265667 185.220092,170.483667 184.562759,169.815 C183.905425,169.146333 183.129092,168.596667 182.233759,168.166 C181.338425,167.735333 180.380759,167.440667 179.360759,167.282 L179.360759,167.282 L179.360759,164.324 L175.484759,164.324 L175.484759,167.282 C174.464759,167.463333 173.512759,167.763667 172.628759,168.183 C171.744759,168.602333 170.979759,169.146333 170.333759,169.815 C169.687759,170.483667 169.177759,171.265667 168.803759,172.161 C168.429759,173.056333 168.242759,174.059333 168.242759,175.17 C168.242759,176.439333 168.486425,177.572667 168.973759,178.57 C169.461092,179.567333 170.124092,180.406 170.962759,181.086 C171.801425,181.766 172.781759,182.287333 173.903759,182.65 C175.025759,183.012667 176.210092,183.194 177.456759,183.194 Z M177.456759,179.862 C176.708759,179.862 176.006092,179.76 175.348759,179.556 C174.691425,179.352 174.119092,179.046 173.631759,178.638 C173.144425,178.23 172.764759,177.737 172.492759,177.159 C172.220759,176.581 172.084759,175.918 172.084759,175.17 C172.084759,174.422 172.220759,173.753333 172.492759,173.164 C172.764759,172.574667 173.144425,172.081667 173.631759,171.685 C174.119092,171.288333 174.691425,170.982333 175.348759,170.767 C176.006092,170.551667 176.708759,170.444 177.456759,170.444 C178.204759,170.444 178.907425,170.551667 179.564759,170.767 C180.222092,170.982333 180.794425,171.288333 181.281759,171.685 C181.769092,172.081667 182.148759,172.574667 182.420759,173.164 C182.692759,173.753333 182.828759,174.422 182.828759,175.17 C182.828759,175.918 182.692759,176.581 182.420759,177.159 C182.148759,177.737 181.769092,178.23 181.281759,178.638 C180.794425,179.046 180.222092,179.352 179.564759,179.556 C178.907425,179.76 178.204759,179.862 177.456759,179.862 Z M179.326759,196.658 L179.326759,188.736 L191.566759,188.736 L191.566759,185.404 L163.278759,185.404 L163.278759,188.736 L175.518759,188.736 L175.518759,196.658 L179.326759,196.658 Z" id="" fill="#0B0B0B" fill-rule="nonzero"></path>
            </g>
        </g>
    </g>
</svg>