<?xml version="1.0" encoding="UTF-8"?>
<svg width="487px" height="320px" viewBox="0 0 487 320" version="1.1" xmlns="http://www.w3.org/2000/svg" xmlns:xlink="http://www.w3.org/1999/xlink">
    <title>card-04</title>
    <defs>
        <polygon id="path-1" points="0.304287407 0.433 60.4967001 0.433 60.4967001 104.9297 0.304287407 104.9297"></polygon>
        <polygon id="path-3" points="0 0.690415876 21.0691781 0.690415876 21.0691781 31.3163 0 31.3163"></polygon>
    </defs>
    <g id="Page-1" stroke="none" stroke-width="1" fill="none" fill-rule="evenodd">
        <g id="Desktop-Copy-2" transform="translate(-733.000000, -575.000000)">
            <g id="card-04" transform="translate(733.000000, 575.000000)">
                <rect id="Rectangle-Copy-3" fill="#FFFFFF" x="0" y="0" width="487" height="320" rx="21"></rect>
                <path d="M57.554,175.978 L57.554,160.848 L62.28,160.848 L62.28,157.516 L57.554,157.516 L57.554,146.024 L53.746,146.024 L53.746,175.978 L57.554,175.978 Z M49.53,168.464 L51.434,165.54 C49.938,164.86 48.7083333,164.083667 47.745,163.211 C46.7816667,162.338333 46.0166667,161.420333 45.45,160.457 C44.8833333,159.493667 44.4923333,158.519 44.277,157.533 C44.0616667,156.547 43.954,155.589333 43.954,154.66 L43.954,154.66 L43.954,150.41 L50.652,150.41 L50.652,147.078 L33.38,147.078 L33.38,150.41 L40.078,150.41 L40.078,154.626 C40.078,156.099333 39.942,157.459333 39.67,158.706 C39.398,159.952667 38.9673333,161.035 38.378,161.953 C37.7886667,162.871 37.0123333,163.590667 36.049,164.112 C35.0856667,164.633333 33.9126667,164.894 32.53,164.894 L32.53,164.894 L32.53,168.362 C33.7313333,168.339333 34.876,168.152333 35.964,167.801 C37.052,167.449667 38.0323333,166.968 38.905,166.356 C39.7776667,165.744 40.5143333,165.035667 41.115,164.231 C41.7156667,163.426333 42.1406667,162.570667 42.39,161.664 C42.934,163.046667 43.8236667,164.338667 45.059,165.54 C46.2943333,166.741333 47.7846667,167.716 49.53,168.464 L49.53,168.464 Z M87.5865517,160.61 L88.9465517,157.516 C87.6545517,157.289333 86.4135517,156.932333 85.2235517,156.445 C84.0335517,155.957667 82.9908851,155.385333 82.0955517,154.728 C81.2002184,154.070667 80.4862184,153.351 79.9535517,152.569 C79.4208851,151.787 79.1545517,150.965333 79.1545517,150.104 L79.1545517,150.104 L79.1545517,149.662 L87.4505517,149.662 L87.4505517,146.33 L66.9825517,146.33 L66.9825517,149.662 L75.2785517,149.662 L75.2785517,150.104 C75.2785517,151.328 74.9782184,152.382 74.3775517,153.266 C73.7768851,154.15 73.0175517,154.875333 72.0995517,155.442 C71.1815517,156.008667 70.1672184,156.428 69.0565517,156.7 C67.9458851,156.972 66.8692184,157.108 65.8265517,157.108 L65.8265517,157.108 L65.8265517,160.542 C67.0505517,160.496667 68.2462184,160.355 69.4135517,160.117 C70.5808851,159.879 71.6688851,159.539 72.6775517,159.097 C73.6862184,158.655 74.5985517,158.105333 75.4145517,157.448 C76.2305517,156.790667 76.8992184,156.008667 77.4205517,155.102 C78.4178851,156.598 79.8118851,157.793667 81.6025517,158.689 C83.3932184,159.584333 85.3878851,160.224667 87.5865517,160.61 L87.5865517,160.61 Z M79.1205517,176.658 L79.1205517,166.934 L91.3605517,166.934 L91.3605517,163.602 L63.0725517,163.602 L63.0725517,166.934 L75.3125517,166.934 L75.3125517,176.658 L79.1205517,176.658 Z M120.723655,152.994 L120.723655,149.662 L113.413655,149.662 L113.413655,145.14 L109.469655,145.14 L109.469655,149.662 L102.159655,149.662 L102.159655,152.994 L120.723655,152.994 Z M127.523655,175.978 L127.523655,161.494 L131.909655,161.494 L131.909655,158.162 L127.523655,158.162 L127.523655,146.024 L123.715655,146.024 L123.715655,175.978 L127.523655,175.978 Z M111.441655,170.232 C112.665655,170.232 113.793322,170.022333 114.824655,169.603 C115.855989,169.183667 116.745655,168.617 117.493655,167.903 C118.241655,167.189 118.830989,166.350333 119.261655,165.387 C119.692322,164.423667 119.907655,163.398 119.907655,162.31 C119.907655,161.222 119.692322,160.196333 119.261655,159.233 C118.830989,158.269667 118.241655,157.431 117.493655,156.717 C116.745655,156.003 115.855989,155.436333 114.824655,155.017 C113.793322,154.597667 112.665655,154.388 111.441655,154.388 C110.217655,154.388 109.089989,154.597667 108.058655,155.017 C107.027322,155.436333 106.137655,156.003 105.389655,156.717 C104.641655,157.431 104.052322,158.269667 103.621655,159.233 C103.190989,160.196333 102.975655,161.222 102.975655,162.31 C102.975655,163.398 103.185322,164.423667 103.604655,165.387 C104.023989,166.350333 104.613322,167.189 105.372655,167.903 C106.131989,168.617 107.027322,169.183667 108.058655,169.603 C109.089989,170.022333 110.217655,170.232 111.441655,170.232 Z M111.441655,167.002 C110.058989,167.002 108.936989,166.571333 108.075655,165.71 C107.214322,164.848667 106.783655,163.715333 106.783655,162.31 C106.783655,160.904667 107.214322,159.771333 108.075655,158.91 C108.936989,158.048667 110.058989,157.618 111.441655,157.618 C112.824322,157.618 113.946322,158.048667 114.807655,158.91 C115.668989,159.771333 116.099655,160.904667 116.099655,162.31 C116.099655,163.715333 115.668989,164.848667 114.807655,165.71 C113.946322,166.571333 112.824322,167.002 111.441655,167.002 Z M147.526207,158.706 C149.792874,158.706 151.815874,158.609667 153.595207,158.417 C155.37454,158.224333 156.75154,157.969333 157.726207,157.652 L157.726207,157.652 L157.182207,154.558 C156.116874,154.875333 154.858874,155.090667 153.408207,155.204 C151.95754,155.317333 150.29154,155.374 148.410207,155.374 L148.410207,155.374 L140.454207,155.374 L140.454207,146.024 L136.646207,146.024 L136.646207,158.706 L147.526207,158.706 Z M160.990207,164.962 L160.990207,161.63 L132.702207,161.63 L132.702207,164.962 L160.990207,164.962 Z M157.658207,177.44 L157.658207,174.108 L140.386207,174.108 L140.386207,167.308 L136.578207,167.308 L136.578207,177.44 L157.658207,177.44 Z M198.41131,162.242 L198.41131,146.024 L194.60331,146.024 L194.60331,162.242 L198.41131,162.242 Z M189.16331,161.8 L190.79531,158.876 C189.77531,158.581333 188.811977,158.179 187.90531,157.669 C186.998644,157.159 186.20531,156.569667 185.52531,155.901 C184.84531,155.232333 184.306977,154.507 183.91031,153.725 C183.513644,152.943 183.31531,152.132667 183.31531,151.294 L183.31531,151.294 L183.31531,149.764 L189.91131,149.764 L189.91131,146.432 L173.01331,146.432 L173.01331,149.764 L179.43931,149.764 L179.43931,151.294 C179.325977,153.538 178.64031,155.306 177.38231,156.598 C176.12431,157.89 174.44131,158.536 172.33331,158.536 L172.33331,158.536 L172.33331,161.8 C174.531977,161.8 176.441644,161.352333 178.06231,160.457 C179.682977,159.561667 180.86731,158.207333 181.61531,156.394 C182.29531,157.618 183.303977,158.694667 184.64131,159.624 C185.978644,160.553333 187.485977,161.278667 189.16331,161.8 L189.16331,161.8 Z M198.81931,178.12 L198.81931,174.822 L182.39731,174.822 L182.39731,172.544 L198.27531,172.544 L198.27531,163.772 L178.58931,163.772 L178.58931,167.07 L194.46731,167.07 L194.46731,169.382 L178.58931,169.382 L178.58931,178.12 L198.81931,178.12 Z M215.931862,159.216 C216.793195,159.216 217.699862,159.193333 218.651862,159.148 C219.603862,159.102667 220.550195,159.023333 221.490862,158.91 C222.431529,158.796667 223.349529,158.638 224.244862,158.434 C225.140195,158.23 225.961862,157.958 226.709862,157.618 L226.709862,157.618 L226.709862,146.398 L204.235862,146.398 L204.235862,149.73 L206.547862,149.73 L206.547862,159.216 L215.931862,159.216 Z M216.441862,155.884 L210.355862,155.884 L210.355862,149.73 L222.901862,149.73 L222.901862,155.238 C221.881862,155.555333 220.867529,155.742333 219.858862,155.799 C218.850195,155.855667 217.711195,155.884 216.441862,155.884 L216.441862,155.884 Z M219.093862,171.218 L219.093862,165.166 L230.619862,165.166 L230.619862,161.834 L202.331862,161.834 L202.331862,165.166 L215.285862,165.166 L215.285862,171.218 L219.093862,171.218 Z M227.457862,177.44 L227.457862,174.108 L209.981862,174.108 L209.981862,167.784 L206.173862,167.784 L206.173862,177.44 L227.457862,177.44 Z" id="자주하는질문" fill="#0B0B0B" fill-rule="nonzero"></path>
                <g id="Group-106" transform="translate(298.000000, 76.000000)">
                    <path d="M31.8039,119.5103 C31.8039,119.5103 25.8559,120.9223 23.7989,121.5393 C19.6419,122.7873 14.7309,123.4863 10.6199,124.8563 C8.8459,125.4473 7.1659,126.7423 5.9029,128.2583 C4.7669,129.6213 4.0309,131.0623 3.6169,132.7183 C2.6939,136.4093 2.7349,139.8673 2.9589,143.6663 C3.0789,145.7153 3.9299,148.8353 4.2169,150.8423 C4.3489,151.7713 5.6429,155.9493 5.6429,155.9493 C5.6429,155.9493 8.7599,157.2023 10.7499,157.6003 C13.4969,158.1503 17.2979,158.1793 20.0789,157.8693 C20.9889,157.7683 23.4779,157.5973 24.3799,157.4483 C25.8559,157.2013 30.8299,155.9113 30.8299,155.9113 C30.8299,155.9113 34.1219,164.7393 35.1559,169.2193 C36.4769,174.9443 36.5039,180.7693 36.8279,186.6033 C37.1389,192.2173 37.1639,198.0663 36.6049,203.6543 C36.3499,206.1963 36.0829,208.9893 35.3789,211.4533 C34.8849,213.1843 34.1669,214.9503 33.8189,216.6923 C33.6369,217.6023 31.8819,220.0793 33.4839,220.4803 C35.9299,221.0923 101.2899,221.0113 101.2899,221.0113 C101.2899,221.0113 101.0619,217.7653 100.9039,216.5803 C100.5119,213.6353 100.8739,209.9663 100.9159,208.7163 C100.9569,207.4653 100.8409,204.6433 101.4709,202.0273 C102.2949,198.6043 104.3329,194.0873 104.3329,194.0873 C104.3329,194.0873 105.5519,194.4913 105.9189,192.2863 C106.3479,189.7133 106.2889,186.7333 106.0299,184.1523 C105.7429,181.2813 106.0299,178.2313 106.0299,175.3483 C106.0299,171.9823 105.6959,168.6023 105.6959,165.2073 C105.6959,164.5063 105.0009,162.4943 105.4729,161.8643 C106.2139,160.8773 108.7579,161.8643 109.7079,161.8643 C113.4209,161.8643 117.5909,161.2133 121.1199,160.3313 C123.3129,159.7823 124.3599,159.0813 124.3599,159.0813 C124.3599,159.0813 123.9899,153.3863 124.0369,150.3773 C124.0829,147.3683 123.0479,138.1813 120.2869,134.7303 C118.2649,132.2033 112.6739,127.0573 109.5419,126.2743 C103.6349,124.7973 103.4319,123.2143 97.1839,124.9993 C96.2469,125.2673 91.4479,127.5843 91.4479,127.5843 C91.4479,127.5843 87.8709,133.3693 85.6379,135.2313 C80.0129,139.9173 73.3089,144.2083 65.5789,142.9203 C63.0669,142.5013 60.1789,142.0743 57.8889,140.8023 C52.5479,137.8343 47.9389,133.6383 43.6249,129.3243 C42.0009,127.6993 40.8019,117.1873 40.8019,117.1873 L31.8039,119.5103 Z" id="Fill-1" fill="#FE7200"></path>
                    <path d="M31.8039,119.5103 C31.8039,119.5103 25.8559,120.9223 23.7989,121.5393 C19.6419,122.7873 14.7309,123.4863 10.6199,124.8563 C8.8459,125.4473 7.1659,126.7423 5.9029,128.2583 C4.7669,129.6213 4.0309,131.0623 3.6169,132.7183 C2.6939,136.4093 2.7349,139.8673 2.9589,143.6663 C3.0789,145.7153 3.9299,148.8353 4.2169,150.8423 C4.3489,151.7713 5.6429,155.9493 5.6429,155.9493 C5.6429,155.9493 8.7599,157.2023 10.7499,157.6003 C13.4969,158.1503 17.2979,158.1793 20.0789,157.8693 C20.9889,157.7683 23.4779,157.5973 24.3799,157.4483 C25.8559,157.2013 30.8299,155.9113 30.8299,155.9113 C30.8299,155.9113 34.1219,164.7393 35.1559,169.2193 C36.4769,174.9443 36.5039,180.7693 36.8279,186.6033 C37.1389,192.2173 37.1639,198.0663 36.6049,203.6543 C36.3499,206.1963 36.0829,208.9893 35.3789,211.4533 C34.8849,213.1843 34.1669,214.9503 33.8189,216.6923 C33.6369,217.6023 31.8819,220.0793 33.4839,220.4803 C35.9299,221.0923 101.2899,221.0113 101.2899,221.0113 C101.2899,221.0113 101.0619,217.7653 100.9039,216.5803 C100.5119,213.6353 100.8739,209.9663 100.9159,208.7163 C100.9569,207.4653 100.8409,204.6433 101.4709,202.0273 C102.2949,198.6043 104.3329,194.0873 104.3329,194.0873 C104.3329,194.0873 105.5519,194.4913 105.9189,192.2863 C106.3479,189.7133 106.2889,186.7333 106.0299,184.1523 C105.7429,181.2813 106.0299,178.2313 106.0299,175.3483 C106.0299,171.9823 105.6959,168.6023 105.6959,165.2073 C105.6959,164.5063 105.0009,162.4943 105.4729,161.8643 C106.2139,160.8773 108.7579,161.8643 109.7079,161.8643 C113.4209,161.8643 117.5909,161.2133 121.1199,160.3313 C123.3129,159.7823 124.3599,159.0813 124.3599,159.0813 C124.3599,159.0813 123.9899,153.3863 124.0369,150.3773 C124.0829,147.3683 123.0479,138.1813 120.2869,134.7303 C118.2649,132.2033 112.6739,127.0573 109.5419,126.2743 C103.6349,124.7973 103.4319,123.2143 97.1839,124.9993 C96.2469,125.2673 91.4479,127.5843 91.4479,127.5843 C91.4479,127.5843 87.8709,133.3693 85.6379,135.2313 C80.0129,139.9173 73.3089,144.2083 65.5789,142.9203 C63.0669,142.5013 60.1789,142.0743 57.8889,140.8023 C52.5479,137.8343 47.9389,133.6383 43.6249,129.3243 C42.0009,127.6993 40.8019,117.1873 40.8019,117.1873 L31.8039,119.5103 Z" id="Stroke-3" stroke="#000000"></path>
                    <path d="M55.3425,120.2701 C55.3425,121.4291 48.9305,135.0601 48.9305,135.0601 C48.9305,135.0601 50.7565,137.5641 54.1095,139.5141 C57.4615,141.4651 60.6235,142.6701 62.3415,142.8621 C67.8925,143.4781 72.9635,142.7151 78.0625,140.5311 C79.9105,139.7381 82.5955,137.7771 82.5955,137.7771 L87.3265,133.6761 L91.5265,127.5431 C91.5265,127.5431 81.0925,122.4771 80.8375,118.6571 C80.5525,114.3881 81.6875,110.1811 82.6655,106.0701 C83.7675,101.4451 84.8525,96.7881 86.0005,92.1931 C87.7525,85.1861 88.9825,77.6931 86.4315,70.6781 C84.6425,65.7601 81.4185,62.0771 78.7935,57.6621 C75.5835,52.2631 73.2825,46.2351 68.7885,41.7411 C67.6135,40.5661 66.2215,36.8271 64.7485,36.0891 C62.6895,35.0601 58.9675,37.0351 56.6325,37.5451 C53.2095,38.2941 49.4575,40.8881 48.1775,43.7691 C45.2795,50.2901 43.9675,58.5881 42.6485,65.6231 C41.4195,72.1731 42.2155,79.3751 43.5085,85.8461 C43.9395,87.9981 44.7485,89.9641 45.2305,92.0851 L55.3425,120.2701 Z" id="Fill-5" fill="#FFEDDE"></path>
                    <path d="M103.4968,161.0924 C103.4968,161.0924 103.8288,164.7774 103.9018,165.9474 C104.0608,168.4934 105.1158,175.0714 105.4468,178.1254 C105.7108,180.5554 105.8628,185.0064 105.6018,187.8564 C105.2258,191.9824 104.3068,194.2014 104.3068,194.2014 C104.3068,194.2014 104.9458,198.5894 105.3738,204.5754 C105.6208,208.0364 106.3298,212.3424 106.3298,215.8324 L106.3298,220.9834 C106.6148,221.2674 126.4528,221.0564 126.4528,221.0564 C126.4528,221.0564 127.0868,215.3414 127.1878,213.9194 C127.5568,208.8064 126.5258,199.8294 126.0478,192.9504 C125.7368,188.4734 125.4128,183.3154 125.1658,178.8614 C124.9288,174.5964 124.7968,168.2304 124.6138,166.1694 C124.4298,164.1094 124.5758,159.1424 124.5758,159.1424 C124.5758,159.1424 120.7278,160.3634 119.3488,160.5024 C117.6888,160.6684 115.6688,161.0374 114.0558,161.2394 C111.8978,161.5094 103.4968,161.0924 103.4968,161.0924" id="Fill-7" fill="#FFEDDE"></path>
                    <path d="M68.2243,27.5143 C66.1013,27.7263 63.9373,28.1713 62.0963,29.1233 C60.0743,30.1693 58.3883,31.7633 56.1883,32.4963 C54.7863,32.9633 52.3383,33.0423 51.0523,33.7963 C49.2943,34.8263 46.6853,37.1293 45.5853,39.5733 C44.8523,41.2023 44.2053,42.2603 43.1383,44.9073 C42.0713,47.5543 38.8333,62.5703 35.7323,70.3243 C34.4993,73.4033 32.9613,76.8763 31.3893,79.6483 C28.6073,84.5513 25.8483,88.6683 25.3933,94.5943 C24.8503,101.6493 31.8093,106.9603 31.1683,114.0123 C30.8763,117.2293 29.1293,117.8233 28.2173,120.5283 C28.9983,120.1733 31.3633,120.1383 34.3423,119.3583 C37.3213,118.5783 40.1333,117.4103 40.1333,117.4103 C40.1333,117.4103 55.2643,114.0773 54.8213,110.0903 C54.6453,108.4993 54.5633,106.7143 54.0503,105.1753 C53.0783,102.2593 52.6783,99.0053 51.4493,96.1373 C50.5373,94.0113 49.4533,91.9163 48.7153,89.7003 C48.0213,87.6173 46.7983,87.5833 46.7983,87.5833 C46.7983,87.5833 44.2813,82.7883 44.0203,70.8093 C43.8923,64.9243 45.2433,57.4863 46.4013,51.6973 C46.9983,48.7073 48.1303,45.3943 49.7513,42.7903 C50.9793,40.8193 52.6833,39.8153 54.4683,39.2193 C55.1253,39.0003 56.9943,38.5133 57.9303,38.1613 C59.5383,37.5563 61.3683,36.4573 62.5593,36.4863 C67.2063,36.5993 69.4133,43.4233 69.9653,44.6643 C70.7953,46.5303 72.6423,50.2743 72.9633,51.1023 C73.4583,52.3733 75.0753,55.1603 75.8513,56.2823 C79.1383,61.0293 82.3853,63.7453 83.6993,69.5303 C84.5383,73.2233 84.5783,77.6143 84.5593,80.9713 C84.5333,85.6153 83.8083,91.3343 81.4743,97.8693 C80.2243,101.3703 80.2513,102.2953 78.9593,106.4593 C78.5323,107.8343 78.1183,113.5863 78.3893,116.8513 C78.4573,117.6643 80.1043,124.9313 88.1423,126.8823 C95.1693,128.5873 100.6793,124.9713 106.3203,126.2033 C112.2003,127.4883 116.6493,131.1583 116.8273,131.2293 C117.3963,129.4733 117.1523,125.9403 115.4363,123.7213 C112.6213,120.0793 106.7583,116.3513 107.0983,111.5833 C107.2883,108.9263 106.9883,106.7723 108.2343,102.5743 C110.2313,95.8443 111.7903,91.4263 110.0193,84.3433 C109.3603,81.7033 102.7793,73.8473 101.5103,71.4923 C98.6363,66.1553 98.9243,63.3893 98.0933,59.2363 C96.5853,51.6883 96.3133,48.5103 93.3323,41.9523 C91.3603,37.6143 87.0393,33.1643 83.0603,30.7773 C81.5223,29.8543 78.3203,28.6563 76.5783,28.3083 C74.0093,27.7933 70.8423,27.2523 68.2243,27.5143" id="Fill-9" fill="#000000"></path>
                    <path d="M10.3762,176.9615 C11.2372,182.9885 12.0602,193.3335 13.0592,199.3295 C13.8492,204.0715 14.2602,208.8155 16.1882,211.8035 C17.3792,213.6485 19.1382,215.1175 21.1722,217.4055 C22.9962,219.4565 23.7322,220.5175 26.2052,221.7535 C29.5532,223.4275 34.0752,220.9525 36.6132,219.0495 C44.8862,212.8435 46.1082,201.1075 46.6782,191.3965 C47.3702,179.6445 46.9562,171.3935 47.5382,159.6325 C47.7022,156.3185 47.4532,149.1885 47.8562,143.0575 C48.0082,140.7335 47.9462,139.4045 48.4882,137.2365 C48.7212,136.3055 49.1272,134.0445 50.1742,131.9905 C51.8412,128.7285 54.3992,125.3605 54.9342,123.9335 C55.4082,122.6705 55.8042,121.5505 56.1322,120.2395 C56.4882,118.8165 56.4332,116.8125 57.4942,115.7515 C59.8622,113.3845 61.7452,109.1825 62.5492,105.9625 C63.1282,103.6455 60.8442,101.4295 60.0752,99.5085 C58.8122,96.3495 59.4492,93.0405 56.3102,90.6875 C55.0082,89.7095 53.2492,89.8675 51.7932,89.5035 C50.5162,89.1845 49.3512,86.8525 48.0632,86.8525 C47.5992,86.8525 46.9652,87.4315 46.3852,89.1695 C46.0522,90.1675 45.4362,92.2135 44.8492,93.6965 C44.4162,94.7975 42.0532,100.0015 41.7812,100.8195 C40.6172,104.3115 41.3842,108.5345 40.8662,111.9505 C40.2632,115.9215 40.2762,117.7435 39.4322,121.6805 C38.5142,125.9635 37.8462,128.6335 36.2602,132.3535 C35.4962,134.1475 35.0872,136.9175 34.6662,138.8775 C34.0382,141.7895 33.5202,143.9415 32.8932,146.7625 C32.2632,149.5985 31.0002,155.8575 31.0002,155.8575 C31.0002,155.8575 23.8972,157.6865 21.0392,157.9455 C17.6932,158.2505 12.9022,157.9465 9.6362,157.2935 C8.6092,157.0885 5.6942,156.0505 5.68066519,156.1035 C5.6292,156.3135 9.3842,170.0135 10.3762,176.9615" id="Fill-11" fill="#FFEDDE"></path>
                    <path d="M16.3132,204.0338 C16.0792,204.0338 15.8902,203.8448 15.8902,203.6108 C15.8902,196.5198 18.6712,190.6238 21.6152,184.3828 L22.0092,183.5458 C24.4112,178.4418 28.0072,167.7548 29.1362,162.3688 C30.1972,157.2988 31.4882,151.5788 32.6262,146.5318 C33.7082,141.7358 34.6412,137.5938 35.0082,135.6378 C35.3152,133.9998 35.9752,132.2538 36.6132,130.5648 C37.1042,129.2658 37.5682,128.0388 37.8802,126.8648 C38.3872,124.9648 38.7462,122.9508 39.0932,121.0028 L39.3112,119.7858 C39.7982,117.1078 40.0202,115.2188 40.2762,113.0298 C40.4152,111.8498 40.5612,110.6008 40.7622,109.1228 C40.8982,108.1268 40.9162,107.0108 40.9352,105.8288 C40.9612,104.1958 40.9882,102.5088 41.3472,101.0728 C41.7092,99.6258 42.5502,97.8308 43.3642,96.0958 C43.8762,94.9998 44.3622,93.9648 44.6852,93.1018 C44.9492,92.4018 45.1352,91.6748 45.3162,90.9718 C45.6092,89.8278 45.9132,88.6448 46.5522,87.5258 C47.6182,85.6628 49.7622,86.5678 51.1802,87.1658 C51.5702,87.3298 51.9372,87.4848 52.2312,87.5688 C52.7132,87.7078 53.3242,87.7848 53.9692,87.8678 C55.3822,88.0478 56.9842,88.2518 57.9272,89.1958 C58.5362,89.8038 58.8042,90.8558 59.0422,91.7838 C59.1522,92.2158 59.2562,92.6238 59.3792,92.9328 C59.4122,93.0128 59.4572,93.1158 59.5092,93.2368 C59.8592,94.0398 60.5102,95.5338 60.2252,96.6088 C60.1662,96.8348 59.9362,96.9708 59.7082,96.9098 C59.4822,96.8488 59.3472,96.6178 59.4072,96.3918 C59.6172,95.6018 59.0202,94.2328 58.7332,93.5748 C58.6762,93.4448 58.6282,93.3338 58.5932,93.2478 C58.4492,92.8868 58.3382,92.4528 58.2212,91.9928 C58.0112,91.1708 57.7732,90.2378 57.3292,89.7948 C56.5892,89.0548 55.1412,88.8698 53.8632,88.7068 C53.1832,88.6208 52.5432,88.5388 51.9992,88.3838 C51.6562,88.2848 51.2652,88.1198 50.8512,87.9458 C49.1702,87.2358 47.9312,86.8208 47.2882,87.9468 C46.7052,88.9668 46.4282,90.0428 46.1352,91.1818 C45.9492,91.9068 45.7562,92.6568 45.4782,93.3988 C45.1422,94.2938 44.6512,95.3438 44.1302,96.4538 C43.3342,98.1528 42.5102,99.9098 42.1682,101.2778 C41.8332,102.6198 41.8072,104.2578 41.7812,105.8418 C41.7632,106.9968 41.7442,108.1898 41.6012,109.2368 C41.4002,110.7088 41.2542,111.9528 41.1172,113.1288 C40.8592,115.3308 40.6362,117.2328 40.1442,119.9368 L39.9262,121.1508 C39.5772,123.1168 39.2142,125.1478 38.6982,127.0828 C38.3752,128.2978 37.8812,129.6018 37.4052,130.8638 C36.7802,132.5188 36.1332,134.2288 35.8402,135.7938 C35.4702,137.7648 34.5352,141.9138 33.4522,146.7178 C32.3142,151.7618 31.0252,157.4788 29.9642,162.5418 C28.8262,167.9758 25.1982,178.7588 22.7752,183.9058 L22.3802,184.7428 C19.4782,190.8968 16.7362,196.7098 16.7362,203.6108 C16.7362,203.8448 16.5472,204.0338 16.3132,204.0338" id="Fill-13" fill="#000000"></path>
                    <path d="M19.3498,216.1002 C19.2618,216.1002 19.1728,216.0732 19.0968,216.0162 C15.9598,213.6632 14.6718,210.0132 13.8268,206.7532 C12.9348,203.3212 12.6258,200.0842 12.2668,196.3372 C12.0798,194.3812 11.8868,192.3592 11.5928,190.1072 C10.6958,183.2542 9.7678,176.3202 9.1378,173.4122 C7.8108,167.2832 4.6148,153.5532 4.2858,152.4022 C2.6368,146.6312 0.8688,135.2442 4.7028,129.1732 C7.6888,124.4452 12.8868,123.4122 18.9038,122.2162 C20.0928,121.9802 21.3218,121.7362 22.5628,121.4562 C23.5578,121.2322 24.8708,120.9942 26.3918,120.7192 C30.6398,119.9512 36.4578,118.8992 39.8368,117.2512 C40.0468,117.1472 40.3008,117.2362 40.4018,117.4472 C40.5048,117.6572 40.4178,117.9112 40.2078,118.0122 C36.7238,119.7112 30.8388,120.7762 26.5418,121.5522 C25.0308,121.8262 23.7258,122.0622 22.7488,122.2822 C21.4978,122.5642 20.2628,122.8092 19.0688,123.0462 C13.2428,124.2042 8.2098,125.2042 5.4178,129.6252 C2.2198,134.6892 3.0118,144.8612 5.0998,152.1692 C5.4658,153.4532 8.7258,167.5082 9.9658,173.2332 C10.6018,176.1722 11.5328,183.1262 12.4318,189.9962 C12.7278,192.2632 12.9228,194.2932 13.1098,196.2562 C13.4648,199.9682 13.7718,203.1732 14.6448,206.5402 C15.4548,209.6602 16.6768,213.1432 19.6038,215.3392 C19.7908,215.4792 19.8288,215.7452 19.6888,215.9322 C19.6058,216.0422 19.4788,216.1002 19.3498,216.1002" id="Fill-15" fill="#000000"></path>
                    <path d="M49.5388,98.8121 C49.3058,98.8121 49.1158,98.6231 49.1158,98.3891 C49.1158,96.7161 50.2998,92.7381 50.3508,92.5691 C50.4018,92.3941 50.5598,92.2731 50.7428,92.2671 C51.3078,92.2501 53.1798,92.2011 53.5568,92.2761 C53.9698,92.3591 54.2968,92.8471 54.9368,93.8571 C55.4778,94.7081 56.1518,95.7681 56.7808,96.1781 C56.9768,96.3051 57.0328,96.5681 56.9048,96.7631 C56.7768,96.9601 56.5168,97.0151 56.3198,96.8871 C55.5358,96.3771 54.8388,95.2801 54.2228,94.3111 C53.9218,93.8361 53.5088,93.1871 53.3458,93.0911 C53.2008,93.0691 52.1208,93.0781 51.0748,93.1051 C50.8018,94.0591 49.9618,97.0861 49.9618,98.3891 C49.9618,98.6231 49.7728,98.8121 49.5388,98.8121" id="Fill-17" fill="#000000"></path>
                    <path d="M53.6325,93.1939 C53.5245,93.1939 53.4155,93.1519 53.3325,93.0689 C53.1675,92.9039 53.1685,92.6349 53.3335,92.4699 L53.4935,92.2619 C53.5065,92.2379 53.5215,92.2139 53.5385,92.1909 L54.1325,91.3829 C54.2375,91.1749 54.4905,91.0899 54.7005,91.1939 C54.9095,91.2979 54.9945,91.5519 54.8905,91.7609 L54.8115,91.9219 C54.7975,91.9469 54.7825,91.9699 54.7665,91.9929 L54.1715,92.7989 C54.1515,92.8409 54.1245,92.8789 54.0915,92.9119 L53.9315,93.0709 C53.8485,93.1529 53.7405,93.1939 53.6325,93.1939" id="Fill-19" fill="#000000"></path>
                    <path d="M50.6755,93.0348 C50.4785,93.0348 50.3005,92.8948 50.2605,92.6938 C50.2065,92.4208 50.1095,92.1598 50.0065,91.8828 C49.8865,91.5568 49.7625,91.2218 49.6985,90.8438 C49.6605,90.6118 49.8165,90.3938 50.0465,90.3558 C50.2825,90.3208 50.4955,90.4728 50.5335,90.7028 C50.5835,91.0028 50.6895,91.2878 50.8005,91.5888 C50.9105,91.8848 51.0235,92.1898 51.0905,92.5288 C51.1365,92.7588 50.9875,92.9808 50.7585,93.0258 C50.7305,93.0318 50.7025,93.0348 50.6755,93.0348" id="Fill-21" fill="#000000"></path>
                    <path d="M62.1218,108.6422 C61.9858,108.6422 61.8528,108.5782 61.7708,108.4552 C61.6408,108.2622 61.6908,107.9992 61.8848,107.8692 C63.7848,106.5822 62.9808,104.1732 62.2718,102.0472 C62.1278,101.6122 62.0148,101.2052 61.9028,100.8042 C61.4628,99.2172 61.0818,97.8482 59.5178,97.0652 C58.7408,96.6762 57.4118,96.8212 56.4988,97.1632 C54.1218,98.0542 51.3288,98.6652 49.1608,99.0992 C48.8998,99.1522 48.6258,99.1972 48.3438,99.2442 C47.1988,99.4322 46.0168,99.6282 45.3018,100.3422 C45.1368,100.5082 44.8678,100.5072 44.7028,100.3422 C44.5378,100.1762 44.5378,99.9092 44.7028,99.7442 C45.6098,98.8372 46.9888,98.6092 48.2058,98.4092 C48.4768,98.3642 48.7438,98.3202 48.9948,98.2692 C51.1318,97.8422 53.8818,97.2402 56.2018,96.3712 C57.2868,95.9632 58.8508,95.7862 59.8948,96.3082 C61.7968,97.2582 62.2658,98.9462 62.7188,100.5782 C62.8258,100.9652 62.9338,101.3582 63.0638,101.7462 C63.7998,103.9512 64.7918,106.9242 62.3588,108.5702 C62.2858,108.6192 62.2038,108.6422 62.1218,108.6422" id="Fill-23" fill="#000000"></path>
                    <path d="M59.0798,114.4381 C58.8468,114.4381 58.6568,114.2481 58.6568,114.0141 C58.6568,113.7811 58.8468,113.5901 59.0798,113.5901 C59.7568,113.5901 61.2968,109.6531 61.4458,108.4551 C61.5968,107.2491 60.7968,104.4701 59.6838,103.0681 C59.3118,102.6001 58.9458,102.3351 58.6238,102.3021 C55.2138,101.9461 52.6218,102.0771 49.8238,102.2691 C49.2078,102.3121 48.6418,102.3181 48.1418,102.3241 C46.3298,102.3421 45.3318,102.3531 44.4968,103.8471 C44.3828,104.0501 44.1248,104.1251 43.9208,104.0101 C43.7168,103.8961 43.6438,103.6381 43.7578,103.4341 C44.8318,101.5121 46.2888,101.4971 48.1338,101.4771 C48.6448,101.4711 49.1748,101.4661 49.7658,101.4251 C52.6028,101.2291 55.2328,101.0971 58.7118,101.4601 C59.2728,101.5191 59.8228,101.8821 60.3468,102.5421 C61.6348,104.1651 62.4608,107.1611 62.2858,108.5601 C62.2398,108.9281 60.7938,114.4381 59.0798,114.4381" id="Fill-25" fill="#000000"></path>
                    <path d="M53.6706,116.7848 C52.9416,116.7848 52.3716,116.6448 52.0246,116.2098 C51.6786,115.7768 51.6326,115.2368 51.8966,114.6888 C52.5856,113.2538 55.3906,111.8058 56.3576,111.8058 C56.5906,111.8058 56.7796,111.9968 56.7796,112.2298 C56.7796,112.4648 56.5906,112.6528 56.3576,112.6528 C55.7376,112.6528 53.1996,113.9308 52.6586,115.0558 C52.5016,115.3828 52.5836,115.5558 52.6856,115.6808 C53.0156,116.0958 54.3306,115.9218 55.6036,115.7548 L56.2106,115.6768 C57.7406,115.4838 58.1006,114.5878 58.2346,114.2508 L58.4706,113.6708 C59.0856,112.1668 59.7216,110.6108 59.5256,109.0458 C59.3746,107.8368 58.5606,107.5188 57.2426,107.1018 C56.9746,107.0168 56.7036,106.9308 56.4416,106.8328 C55.3526,106.4238 54.1496,106.1688 52.9856,105.9218 C52.6896,105.8578 52.3946,105.7958 52.1036,105.7298 C51.6386,105.6278 51.2176,105.5188 50.8236,105.4178 C49.0636,104.9658 47.9996,104.6908 46.1496,105.6158 C45.9426,105.7208 45.6876,105.6358 45.5826,105.4268 C45.4786,105.2178 45.5636,104.9638 45.7726,104.8588 C47.9036,103.7928 49.2176,104.1308 51.0346,104.5978 C51.4196,104.6968 51.8326,104.8038 52.2866,104.9038 C52.5756,104.9688 52.8676,105.0308 53.1616,105.0938 C54.3556,105.3468 55.5896,105.6088 56.7376,106.0398 C56.9876,106.1338 57.2436,106.2148 57.4986,106.2958 C58.7366,106.6878 60.1406,107.1328 60.3656,108.9398 C60.5886,110.7258 59.9106,112.3868 59.2546,113.9908 L59.0246,114.5558 C58.5696,115.6908 57.6596,116.3478 56.3156,116.5158 L55.7136,116.5938 C54.9496,116.6938 54.2586,116.7848 53.6706,116.7848" id="Fill-27" fill="#000000"></path>
                    <path d="M50.9958,125.9596 C50.9328,125.9596 50.8678,125.9446 50.8078,125.9146 C50.5988,125.8106 50.5128,125.5556 50.6178,125.3466 C51.7148,123.1516 51.7228,118.0236 51.5548,115.3406 C51.5068,114.5626 51.4368,113.8746 51.3798,113.2986 C51.2988,112.4906 51.2398,111.9076 51.2818,111.5346 C51.2998,111.3746 51.4398,111.2136 51.5908,111.1586 C52.0078,111.0076 54.2738,111.0766 55.3928,112.1536 C55.5608,112.3156 55.5648,112.5846 55.4028,112.7526 C55.2398,112.9216 54.9728,112.9256 54.8048,112.7636 C54.1038,112.0886 52.7008,111.9256 52.1158,111.9386 C52.1248,112.2526 52.1698,112.6936 52.2218,113.2146 C52.2798,113.7996 52.3508,114.4976 52.3988,115.2876 C52.4468,116.0506 52.8238,122.8236 51.3748,125.7256 C51.3008,125.8736 51.1508,125.9596 50.9958,125.9596 L50.9958,125.9596 Z" id="Fill-29" fill="#000000"></path>
                    <path d="M28.9006,222.567 C25.5456,222.567 22.6176,220.691 20.1926,216.982 C20.0646,216.787 20.1196,216.525 20.3156,216.397 C20.5106,216.268 20.7726,216.323 20.9006,216.519 C23.2986,220.185 26.1826,221.927 29.4816,221.701 C35.1566,221.306 40.3856,215.255 41.7996,212.254 C42.8476,210.033 43.8276,206.824 44.3596,203.878 L44.5156,203.021 C45.3296,198.551 46.3436,192.99 46.4976,182.571 C46.5566,178.689 46.7726,165.199 47.1256,154.588 C47.1656,153.382 47.2046,152.051 47.2456,150.68 C47.4056,145.304 47.5866,139.212 47.9096,137.596 C48.5756,134.268 49.6176,132.098 51.1926,129.473 C51.4146,129.103 51.6456,128.724 51.8816,128.338 C53.7776,125.235 55.9266,121.718 55.9266,118.263 C55.9266,118.03 56.1156,117.84 56.3506,117.84 C56.5836,117.84 56.7736,118.03 56.7736,118.263 C56.7736,121.957 54.5586,125.582 52.6046,128.78 C52.3696,129.164 52.1396,129.541 51.9186,129.909 C50.3546,132.514 49.3846,134.538 48.7396,137.762 C48.4306,139.307 48.2506,145.363 48.0926,150.705 C48.0516,152.078 48.0116,153.41 47.9716,154.616 C47.6176,165.219 47.4016,178.704 47.3446,182.584 C47.1896,193.072 46.1686,198.672 45.3476,203.173 L45.1926,204.028 C44.6486,207.042 43.6426,210.332 42.5656,212.615 C41.0786,215.767 35.5616,222.127 29.5406,222.545 C29.3256,222.559 29.1116,222.567 28.9006,222.567" id="Fill-31" fill="#000000"></path>
                    <path d="M101.363,221.6637 C101.164,221.6637 100.986,221.5207 100.947,221.3177 C100.248,217.5877 100.365,212.3547 100.422,209.8407 C100.432,209.3247 100.442,208.9107 100.442,208.6307 C100.442,205.8487 100.669,203.5757 101.157,201.4807 C101.517,199.9287 102.112,198.3717 102.636,196.9977 C102.792,196.5907 102.943,196.1947 103.082,195.8167 C103.192,195.5167 103.328,195.2017 103.479,194.8527 C104.388,192.7697 105.759,189.6207 105.193,180.7667 C104.999,177.7187 104.58,174.4837 104.175,171.3557 C103.441,165.6917 102.749,160.3427 103.366,156.3807 C103.401,156.1477 103.619,155.9897 103.849,156.0267 C104.08,156.0617 104.238,156.2787 104.202,156.5097 C103.604,160.3527 104.289,165.6447 105.014,171.2477 C105.421,174.3887 105.842,177.6367 106.038,180.7127 C106.618,189.7717 105.139,193.1647 104.256,195.1917 C104.111,195.5227 103.981,195.8217 103.877,196.1067 C103.737,196.4897 103.585,196.8887 103.427,197.2997 C102.913,198.6487 102.329,200.1767 101.981,201.6727 C101.509,203.7027 101.289,205.9147 101.289,208.6307 C101.289,208.9147 101.279,209.3357 101.267,209.8587 C101.212,212.3457 101.096,217.5177 101.78,221.1627 C101.823,221.3927 101.671,221.6127 101.441,221.6557 C101.415,221.6607 101.389,221.6637 101.363,221.6637" id="Fill-33" fill="#000000"></path>
                    <path d="M106.1462,221.8473 C106.1352,221.8473 106.1242,221.8473 106.1132,221.8463 C105.8792,221.8273 105.7062,221.6233 105.7242,221.3913 C106.1252,216.2943 105.3712,208.8203 104.7642,202.8143 C104.3752,198.9633 104.0412,195.6373 104.0412,193.4903 C104.0412,193.2563 104.2302,193.0673 104.4632,193.0673 C104.6982,193.0673 104.8872,193.2563 104.8872,193.4903 C104.8872,195.5953 105.2202,198.9013 105.6072,202.7283 C106.2162,208.7683 106.9752,216.2853 106.5682,221.4573 C106.5502,221.6793 106.3652,221.8473 106.1462,221.8473" id="Fill-35" fill="#000000"></path>
                    <path d="M126.3776,222.024 C126.3576,222.024 126.3386,222.023 126.3186,222.021 C126.0876,221.989 125.9256,221.775 125.9576,221.544 C127.1596,212.85 127.2216,209.629 126.3486,201.272 C125.8306,196.337 125.2796,186.98 124.8776,180.147 C124.7486,177.947 124.6336,175.994 124.5386,174.509 C124.2816,170.496 124.1706,164.722 124.0966,160.903 L124.0556,158.821 C123.8856,151.088 123.7096,143.094 121.9196,138.73 C120.0836,134.255 117.5296,131.175 109.3086,127.718 C109.0926,127.628 108.9906,127.379 109.0816,127.165 C109.1726,126.949 109.4206,126.846 109.6366,126.938 C118.1286,130.508 120.7806,133.724 122.7026,138.409 C124.5526,142.919 124.7306,150.993 124.9006,158.802 L124.9426,160.886 C125.0166,164.699 125.1276,170.461 125.3836,174.456 C125.4786,175.941 125.5936,177.895 125.7226,180.097 C126.1246,186.921 126.6746,196.268 127.1896,201.184 C128.0726,209.628 128.0106,212.88 126.7966,221.659 C126.7676,221.872 126.5856,222.024 126.3776,222.024" id="Fill-37" fill="#000000"></path>
                    <path d="M45.2614,58.9273 C45.2414,58.9273 45.2214,58.9263 45.2004,58.9223 C44.9694,58.8903 44.8094,58.6753 44.8424,58.4443 C45.5694,53.3513 46.7254,47.0103 49.2324,43.1513 C49.3604,42.9533 49.6234,42.8993 49.8184,43.0263 C50.0134,43.1533 50.0704,43.4153 49.9424,43.6113 C47.5254,47.3323 46.3954,53.5573 45.6794,58.5643 C45.6504,58.7753 45.4684,58.9273 45.2614,58.9273" id="Fill-39" fill="#000000"></path>
                    <path d="M46.7624,88.0133 C46.5944,88.0133 46.4354,87.9123 46.3684,87.7473 C43.2354,79.9103 43.4084,71.8843 43.6294,68.7973 C43.6464,68.5653 43.8414,68.3933 44.0814,68.4063 C44.3154,68.4223 44.4914,68.6253 44.4744,68.8583 C44.2574,71.8863 44.0854,79.7593 47.1554,87.4333 C47.2414,87.6503 47.1364,87.8973 46.9194,87.9833 C46.8674,88.0043 46.8154,88.0133 46.7624,88.0133" id="Fill-41" fill="#000000"></path>
                    <path d="M54.9929,97.6695 C54.9309,97.6695 54.8699,97.6565 54.8109,97.6285 C53.0519,96.7925 51.4769,95.6175 50.1329,94.1385 C49.9749,93.9655 49.9879,93.6975 50.1609,93.5405 C50.3349,93.3845 50.6019,93.3975 50.7589,93.5685 C52.0289,94.9665 53.5149,96.0755 55.1749,96.8645 C55.3869,96.9655 55.4749,97.2175 55.3759,97.4285 C55.3029,97.5805 55.1509,97.6695 54.9929,97.6695" id="Fill-43" fill="#000000"></path>
                    <path d="M61.7204,99.067 C61.4914,99.067 61.3044,98.884 61.2972573,98.655 C61.2914,98.421 61.4754,98.226 61.7094,98.22 C63.3034,98.177 64.9134,97.882 66.4944,97.344 C70.5184,95.975 75.0284,92.449 77.0644,89.831 C77.2074,89.645 77.4734,89.613 77.6584,89.756 C77.8424,89.9 77.8764,90.166 77.7334,90.35 C75.6194,93.067 70.9414,96.725 66.7684,98.145 C65.1064,98.712 63.4114,99.021 61.7324,99.066 C61.7284,99.067 61.7244,99.067 61.7204,99.067" id="Fill-45" fill="#000000"></path>
                    <path d="M58.362,72.7174 C58.322,72.7174 58.281,72.7114 58.241,72.6994 C56.757,72.2584 55.672,70.7974 55.822,69.4444 C55.917,68.5864 56.492,67.8254 57.1,67.0204 C57.637,66.3094 58.192,65.5744 58.382,64.7894 C58.781,63.1274 58.626,62.2194 58.222,61.2104 C58.136,60.9934 58.241,60.7474 58.459,60.6604 C58.675,60.5734 58.923,60.6794 59.008,60.8974 C59.464,62.0334 59.655,63.1144 59.205,64.9884 C58.974,65.9444 58.365,66.7504 57.776,67.5304 C57.239,68.2404 56.732,68.9114 56.663,69.5364 C56.559,70.4704 57.41,71.5694 58.482,71.8884 C58.706,71.9544 58.834,72.1904 58.767,72.4144 C58.713,72.5984 58.544,72.7174 58.362,72.7174" id="Fill-47" fill="#000000"></path>
                    <path d="M49.3493,57.1715 C49.1923,57.1715 49.0403,57.0825 48.9673,56.9315 C48.8663,56.7215 48.9543,56.4685 49.1653,56.3665 C50.2193,55.8595 50.9833,55.8755 51.6593,55.8915 C52.1883,55.9035 52.6883,55.9145 53.3383,55.6835 C53.5593,55.6045 53.8013,55.7185 53.8793,55.9395 C53.9583,56.1585 53.8433,56.4005 53.6233,56.4805 C52.8263,56.7645 52.2243,56.7505 51.6383,56.7375 C51.0033,56.7205 50.4043,56.7085 49.5333,57.1295 C49.4733,57.1575 49.4113,57.1715 49.3493,57.1715" id="Fill-49" fill="#000000"></path>
                    <path d="M72.2478,58.0143 C72.1848,58.0143 72.1198,58.0003 72.0598,57.9703 C71.3148,57.5983 70.5878,57.5283 69.8848,57.4593 C69.0498,57.3783 68.2618,57.3013 67.5548,56.7513 C67.3708,56.6083 67.3378,56.3423 67.4808,56.1583 C67.6248,55.9723 67.8898,55.9403 68.0748,56.0833 C68.5878,56.4833 69.2268,56.5443 69.9658,56.6173 C70.7098,56.6893 71.5538,56.7713 72.4368,57.2123 C72.6468,57.3173 72.7318,57.5723 72.6268,57.7813 C72.5538,57.9293 72.4038,58.0143 72.2478,58.0143" id="Fill-51" fill="#000000"></path>
                    <path d="M49.7507,62.1246 C49.7507,61.4446 50.3117,60.8956 51.0027,60.8956 C51.6927,60.8956 52.2537,61.4446 52.2537,62.1246 C52.2537,62.8036 51.6927,63.3536 51.0027,63.3536 C50.3117,63.3536 49.7507,62.8036 49.7507,62.1246" id="Fill-53" fill="#000000"></path>
                    <path d="M69.5847,63.1109 C69.5847,62.4449 70.1337,61.9069 70.8117,61.9069 C71.4877,61.9069 72.0367,62.4449 72.0367,63.1109 C72.0367,63.7759 71.4877,64.3149 70.8117,64.3149 C70.1337,64.3149 69.5847,63.7759 69.5847,63.1109" id="Fill-55" fill="#000000"></path>
                    <path d="M62.0446,84.2242 C61.9366,84.2242 61.8276,84.1832 61.7446,84.1002 C61.2146,83.5692 60.6386,83.5072 59.9086,83.4302 C59.6156,83.3992 59.3116,83.3662 58.9956,83.3032 C58.1626,83.1362 57.4826,82.8872 56.9196,82.5422 C56.7206,82.4202 56.6566,82.1602 56.7786,81.9602 C56.9006,81.7602 57.1616,81.6982 57.3606,81.8202 C57.8386,82.1132 58.4286,82.3272 59.1616,82.4732 C59.4506,82.5312 59.7296,82.5602 59.9986,82.5882 C60.7866,82.6722 61.6016,82.7582 62.3446,83.5012 C62.5096,83.6662 62.5096,83.9352 62.3446,84.1002 C62.2616,84.1832 62.1526,84.2242 62.0446,84.2242" id="Fill-57" fill="#000000"></path>
                    <path d="M65.2575,143.4078 C63.4065,143.4078 61.8355,143.2418 60.6915,143.0118 C59.3795,142.7498 52.0385,140.3878 48.8065,135.4958 C48.6775,135.3008 48.7315,135.0378 48.9265,134.9088 C49.1195,134.7798 49.3835,134.8328 49.5125,135.0278 C52.5845,139.6788 59.6025,141.9308 60.8575,142.1828 C66.5435,143.3198 83.0795,142.8638 91.1885,127.3018 C91.2965,127.0948 91.5515,127.0138 91.7595,127.1218 C91.9665,127.2298 92.0475,127.4848 91.9395,127.6928 C85.2205,140.5868 72.8765,143.4078 65.2575,143.4078" id="Fill-59" fill="#000000"></path>
                    <path d="M16.8264,158.4176 C12.6684,158.4176 8.4864,157.8706 5.6324,156.3686 C5.4254,156.2606 5.3464,156.0036 5.4544,155.7976 C5.5634,155.5896 5.8204,155.5116 6.0264,155.6196 C11.8944,158.7076 23.6684,157.5926 28.6114,156.1026 C28.8354,156.0336 29.0714,156.1606 29.1394,156.3846 C29.2064,156.6076 29.0794,156.8446 28.8564,156.9116 C26.1734,157.7216 21.5154,158.4176 16.8264,158.4176" id="Fill-61" fill="#000000"></path>
                    <path d="M110.8083,161.6998 C108.2703,161.6998 105.9123,161.5458 104.1013,161.3188 C103.8703,161.2908 103.7043,161.0788 103.7343,160.8458 C103.7623,160.6148 103.9773,160.4498 104.2063,160.4788 C109.3103,161.1178 118.8333,161.1848 124.1523,158.7588 C124.3653,158.6598 124.6173,158.7558 124.7133,158.9688 C124.8103,159.1808 124.7163,159.4308 124.5033,159.5288 C120.9323,161.1578 115.5573,161.6998 110.8083,161.6998" id="Fill-63" fill="#000000"></path>
                    <path d="M87.987,99.2135 C87.842,99.2135 87.703,99.1405 87.624,99.0085 C85.676,95.7745 86.638,91.3245 87.57,87.0215 C88.258,83.8385 88.97,80.5485 88.467,77.8675 C87.271,71.4895 83.992,67.4955 80.195,62.8705 C79.326,61.8135 78.428,60.7195 77.53,59.5655 C75.908,57.4785 73.865,53.9095 72.56,51.2985 C71.879,49.9375 71.252,48.5195 70.645,47.1495 C69.443,44.4335 68.2,41.6235 66.499,39.1675 C65.939,38.3595 64.468,37.0985 62.713,36.9405 C61.38,36.8175 60.128,37.3445 58.975,38.4965 C58.809,38.6625 58.542,38.6625 58.377,38.4965 C58.211,38.3315 58.211,38.0645 58.377,37.8985 C59.716,36.5605 61.205,35.9555 62.788,36.0975 C64.994,36.2955 66.635,37.8775 67.195,38.6865 C68.941,41.2075 70.201,44.0545 71.42,46.8065 C72.022,48.1685 72.645,49.5765 73.317,50.9195 C74.562,53.4105 76.621,57.0155 78.198,59.0455 C79.09,60.1915 79.984,61.2795 80.848,62.3335 C84.719,67.0485 88.063,71.1205 89.299,77.7115 C89.834,80.5605 89.103,83.9355 88.397,87.1995 C87.501,91.3425 86.574,95.6255 88.349,98.5715 C88.469,98.7725 88.405,99.0315 88.205,99.1525 C88.136,99.1935 88.061,99.2135 87.987,99.2135" id="Fill-65" fill="#000000"></path>
                    <path d="M28.0803,121.1695 C27.9793,121.1695 27.8773,121.1335 27.7973,121.0615 C27.6233,120.9045 27.6093,120.6365 27.7663,120.4625 C32.8603,114.8155 30.2893,109.4845 27.8043,104.3305 C26.4473,101.5165 25.1663,98.8585 25.0303,96.1485 C24.7443,90.4085 27.6023,85.4115 30.3683,80.5785 C31.5723,78.4745 32.8173,76.2985 33.7443,74.1365 C35.4513,70.1515 37.2793,64.7665 38.6343,59.7315 C39.0073,58.3475 39.3493,57.0015 39.6913,55.6565 C40.6313,51.9555 41.6043,48.1265 43.2203,43.5805 C44.6923,39.4435 48.7613,32.4405 54.6833,32.4405 C54.9163,32.4405 55.1073,32.6305 55.1073,32.8635 C55.1073,33.0985 54.9163,33.2875 54.6833,33.2875 C49.2333,33.2875 45.4153,39.9365 44.0183,43.8645 C42.4143,48.3735 41.4473,52.1825 40.5113,55.8655 C40.1683,57.2135 39.8263,58.5635 39.4533,59.9505 C38.0863,65.0235 36.2443,70.4495 34.5213,74.4705 C33.5763,76.6765 32.3183,78.8735 31.1023,80.9985 C28.3983,85.7265 25.6013,90.6135 25.8763,96.1065 C26.0033,98.6455 27.2483,101.2285 28.5673,103.9625 C31.0523,109.1175 33.8693,114.9605 28.3943,121.0305 C28.3113,121.1225 28.1963,121.1695 28.0803,121.1695" id="Fill-67" fill="#000000"></path>
                    <path d="M91.695,127.9078 C88.503,127.9078 85.248,126.9808 81.93,123.6968 C75.316,117.1478 77.48,109.9028 80.219,100.7318 C81.241,97.3148 82.296,93.7818 83.049,89.8558 C84.133,84.2028 84.862,74.1828 83.413,70.0738 C83.335,69.8528 83.45,69.6118 83.671,69.5338 C83.891,69.4588 84.133,69.5718 84.211,69.7928 C85.779,74.2358 84.94,84.4868 83.881,90.0148 C83.119,93.9828 82.057,97.5368 81.031,100.9738 C78.373,109.8738 76.273,116.9038 82.526,123.0948 C87.703,128.2208 92.576,127.2798 97.737,126.2828 C101.05,125.6438 104.475,124.9818 107.904,126.1208 C108.126,126.1938 108.246,126.4338 108.173,126.6558 C108.099,126.8768 107.858,126.9978 107.637,126.9238 C104.418,125.8548 101.251,126.4678 97.898,127.1148 C95.858,127.5088 93.79,127.9078 91.695,127.9078" id="Fill-69" fill="#000000"></path>
                    <g id="Group-73" transform="translate(57.000000, 26.567000)">
                        <mask id="mask-2" fill="white">
                            <use xlink:href="#path-1"></use>
                        </mask>
                        <g id="Clip-72"></g>
                        <path d="M59.9548,104.9297 C59.9358,104.9297 59.9168,104.9297 59.8968,104.9257 C59.6658,104.8947 59.5038,104.6807 59.5348,104.4497 C60.2588,99.1647 57.4568,96.4427 54.7478,93.8087 C53.3528,92.4537 51.9118,91.0517 51.0278,89.3447 C48.7008,84.8527 49.8898,79.9817 51.0368,75.2697 C51.1798,74.6847 51.3228,74.0977 51.4608,73.5087 C51.6518,72.6867 51.8578,71.8747 52.0608,71.0727 C53.0608,67.1237 54.0058,63.3957 53.0588,59.3757 C52.2468,55.9237 50.4028,53.5677 47.8508,50.3057 C47.0418,49.2717 46.1248,48.0997 45.1728,46.7977 C42.2268,42.7707 41.1018,35.8747 40.1988,30.3357 C39.8988,28.5007 39.6168,26.7677 39.3048,25.3847 C37.2608,16.3407 33.8728,10.5317 27.9768,5.9607 C21.5538,0.9807 7.8668,-1.4923 1.0398,5.9687 C0.8818,6.1407 0.6138,6.1527 0.4418,5.9947 C0.2688,5.8377 0.2578,5.5697 0.4158,5.3977 C7.5638,-2.4153 21.8208,0.1167 28.4958,5.2917 C34.5588,9.9927 38.0388,15.9467 40.1298,25.1987 C40.4478,26.6057 40.7328,28.3517 41.0338,30.1997 C41.9238,35.6507 43.0298,42.4347 45.8558,46.2987 C46.7998,47.5887 47.6738,48.7047 48.5168,49.7837 C51.0378,53.0047 53.0278,55.5487 53.8838,59.1827 C54.8768,63.4027 53.9078,67.2297 52.8818,71.2807 C52.6798,72.0777 52.4758,72.8837 52.2848,73.7007 C52.1458,74.2927 52.0028,74.8817 51.8598,75.4697 C50.6968,80.2407 49.5998,84.7447 51.7788,88.9557 C52.6008,90.5407 53.9308,91.8337 55.3378,93.2017 C58.0638,95.8527 61.1548,98.8567 60.3738,104.5637 C60.3448,104.7767 60.1628,104.9297 59.9548,104.9297" id="Fill-71" fill="#000000" mask="url(#mask-2)"></path>
                    </g>
                    <path d="M55.6003,38.7769 C55.4993,38.7769 55.3983,38.7409 55.3173,38.6679 L55.2533,38.6109 C54.4813,37.9139 53.6043,37.1229 52.0743,37.8049 C51.8593,37.9009 51.6113,37.8049 51.5153,37.5909 C51.4193,37.3779 51.5153,37.1279 51.7293,37.0329 C53.7613,36.1249 55.0503,37.2879 55.8213,37.9819 L55.8833,38.0389 C56.0573,38.1949 56.0713,38.4639 55.9143,38.6359 C55.8313,38.7299 55.7153,38.7769 55.6003,38.7769" id="Fill-74" fill="#000000"></path>
                    <path d="M50.072,40.5289 C49.934,40.5289 49.799,40.4619 49.718,40.3369 C49.59,40.1409 49.645,39.8789 49.841,39.7509 C50.889,39.0649 53.04,38.6039 53.96,39.0649 C54.169,39.1699 54.254,39.4249 54.149,39.6329 C54.044,39.8419 53.79,39.9269 53.581,39.8219 C53.054,39.5589 51.238,39.8479 50.303,40.4599 C50.232,40.5069 50.152,40.5289 50.072,40.5289" id="Fill-76" fill="#000000"></path>
                    <path d="M57.7995,101.9185 C57.7065,101.9185 57.6125,101.8885 57.5355,101.8255 C57.3535,101.6805 57.3225,101.4135 57.4695,101.2315 L57.6905,100.9615 C57.8285,100.7945 57.9675,100.6265 58.0945,100.4485 C58.2295,100.2585 58.4935,100.2135 58.6845,100.3495 C58.8745,100.4845 58.9195,100.7495 58.7835,100.9395 C58.6455,101.1355 58.4935,101.3175 58.3415,101.5015 L58.1305,101.7595 C58.0465,101.8635 57.9235,101.9185 57.7995,101.9185" id="Fill-78" fill="#000000"></path>
                    <path d="M56.5163,106.8053 C56.4513,106.8053 56.3843,106.7893 56.3243,106.7573 C56.1213,106.6493 56.0373,106.4093 56.1403,106.2053 C56.2563,105.9713 56.4963,105.7893 56.7083,105.6283 C56.7903,105.5663 56.8703,105.5083 56.9243,105.4533 C57.0903,105.2903 57.3573,105.2893 57.5233,105.4553 C57.6883,105.6203 57.6873,105.8893 57.5223,106.0543 C57.4453,106.1303 57.3353,106.2153 57.2193,106.3033 C57.1203,106.3793 56.9333,106.5213 56.8963,106.5843 C56.8173,106.7233 56.6673,106.8053 56.5163,106.8053" id="Fill-80" fill="#000000"></path>
                    <path d="M51.6257,111.775 C51.4817,111.775 51.3417,111.702 51.2627,111.569 C51.0857,111.275 50.8627,111.007 50.6277,110.723 L51.2647,110.166 L50.9387,110.436 L51.2777,110.182 C51.5237,110.478 51.7777,110.784 51.9877,111.134 C52.1087,111.336 52.0437,111.595 51.8427,111.715 C51.7747,111.756 51.6997,111.775 51.6257,111.775" id="Fill-82" fill="#000000"></path>
                    <path d="M54.8316,112.4246 C54.5976,112.4246 54.4076,112.2346 54.4076,112.0006 C54.4076,111.4666 55.4886,110.5696 55.7476,110.4386 C55.9556,110.3346 56.2106,110.4186 56.3166,110.6286 C56.4206,110.8376 56.3356,111.0916 56.1276,111.1966 C55.9416,111.2886 55.3546,111.8576 55.2496,112.0656 C55.2186,112.2696 55.0436,112.4246 54.8316,112.4246 L54.8316,112.4246 Z" id="Fill-84" fill="#000000"></path>
                    <path d="M100.4147,126.4332 C99.6187,126.4332 98.5777,125.5842 98.1667,125.2192 C96.3167,123.5772 95.3457,120.7292 95.6897,117.9642 C96.0127,115.3852 97.0567,113.0642 98.0647,110.8192 C98.7337,109.3312 99.4247,107.7932 99.8857,106.2142 C101.1867,101.7502 101.2277,97.6862 100.0107,93.7912 C99.9407,93.5682 100.0647,93.3312 100.2877,93.2612 C100.5137,93.1912 100.7487,93.3162 100.8187,93.5382 C102.0877,97.5982 102.0477,101.8222 100.6977,106.4522 C100.2217,108.0862 99.5177,109.6522 98.8367,111.1662 C97.8527,113.3542 96.8367,115.6172 96.5297,118.0692 C96.2187,120.5652 97.0817,123.1232 98.7277,124.5872 C99.3807,125.1662 100.0907,125.5872 100.4147,125.5872 C100.6477,125.5872 100.8377,125.7772 100.8377,126.0102 C100.8377,126.2442 100.6477,126.4332 100.4147,126.4332" id="Fill-86" fill="#000000"></path>
                    <path d="M1.2155,42.649 C0.5065,41.42 -0.1515,39.053 2.4155,35.154 C4.9815,31.254 9.9695,30.338 13.9955,31.063 C17.0785,31.618 18.7735,33.061 19.7935,35.837 C20.7745,38.504 20.5325,41.391 20.1595,43.054 C19.7875,44.717 18.1775,47.101 17.3095,48.449 C16.5375,49.647 15.5455,51.27 15.0825,53.469 C14.6205,55.669 14.7825,57.303 14.0265,59.053 C13.2705,60.802 9.9135,60.708 9.2525,58.769 C8.5905,56.831 8.6465,53.206 9.8195,50.607 C10.7795,48.478 13.0145,44.767 13.5405,42.906 C14.0675,41.045 14.8275,38.213 12.0185,37.424 C9.2085,36.635 6.7945,38.206 6.1795,40.9 C5.2625,44.92 1.9245,43.878 1.2155,42.649" id="Fill-88" fill="#FFFFFF"></path>
                    <g id="Group-92" transform="translate(0.000000, 29.567000)">
                        <mask id="mask-4" fill="white">
                            <use xlink:href="#path-3"></use>
                        </mask>
                        <g id="Clip-91"></g>
                        <path d="M10.5891,7.0693 C11.1091,7.0693 11.6431,7.1443 12.1761,7.2943 C13.1241,7.5593 13.8091,8.0593 14.2131,8.7803 C15.0281,10.2343 14.4721,12.1983 14.1041,13.4983 C13.7581,14.7203 12.7611,16.6083 11.7971,18.4323 C11.2361,19.4963 10.7061,20.4993 10.3531,21.2813 C9.2331,23.7633 9.1971,27.2273 9.8061,29.0123 C10.0771,29.8033 10.9681,30.1153 11.6511,30.1423 C12.3581,30.1703 13.2071,29.9073 13.4891,29.2533 C13.9221,28.2543 14.0311,27.2793 14.1581,26.1513 C14.2411,25.4133 14.3261,24.6503 14.5091,23.7813 C15.0211,21.3493 16.1901,19.5383 16.8181,18.5643 L17.0501,18.2043 C17.8811,16.9233 19.2701,14.7813 19.5891,13.3593 C19.7821,12.4923 20.3321,9.4313 19.2441,6.4713 C18.2831,3.8583 16.7321,2.5833 13.8911,2.0723 C10.4031,1.4433 5.4291,2.0723 2.9041,5.9093 C1.0841,8.6763 0.6861,10.9913 1.7231,12.7893 C1.9591,13.1983 2.7901,13.7153 3.6901,13.5783 C4.6231,13.4373 5.2861,12.6163 5.6081,11.2033 C5.9501,9.7033 6.8071,8.4793 8.0211,7.7573 C8.7891,7.3013 9.6691,7.0693 10.5891,7.0693 M11.7651,31.3163 C11.7131,31.3163 11.6581,31.3153 11.6051,31.3133 C10.2191,31.2583 9.0771,30.5043 8.6971,29.3903 C8.0011,27.3513 8.0301,23.5803 9.2851,20.7993 C9.6531,19.9843 10.1921,18.9653 10.7611,17.8853 C11.6531,16.1973 12.6651,14.2833 12.9771,13.1793 C13.2921,12.0653 13.7681,10.3833 13.1911,9.3523 C12.9411,8.9073 12.5061,8.6033 11.8601,8.4223 C10.6761,8.0883 9.5571,8.2083 8.6201,8.7653 C7.6841,9.3213 7.0211,10.2793 6.7501,11.4633 C6.1671,14.0203 4.6931,14.6113 3.8651,14.7363 C2.5031,14.9453 1.1881,14.2063 0.7091,13.3753 C-0.1699,11.8523 -0.6709,9.2113 1.9261,5.2653 C4.7641,0.9513 10.2561,0.2263 14.0991,0.9193 C17.3651,1.5073 19.2331,3.0473 20.3431,6.0673 C21.5421,9.3283 20.9431,12.6693 20.7321,13.6153 C20.3671,15.2423 18.9631,17.4083 18.0331,18.8413 L17.8021,19.1983 C16.9901,20.4593 16.0871,21.9743 15.6551,24.0223 C15.4851,24.8373 15.4021,25.5713 15.3221,26.2823 C15.1901,27.4533 15.0661,28.5583 14.5651,29.7183 C14.1401,30.7003 13.0521,31.3163 11.7651,31.3163" id="Fill-90" fill="#000000" mask="url(#mask-4)"></path>
                    </g>
                    <path d="M9.2233,66.0846 C9.1883,64.4486 10.4603,63.0946 12.0643,63.0606 C13.6683,63.0256 14.9963,64.3246 15.0313,65.9616 C15.0663,67.5976 13.7943,68.9506 12.1903,68.9846 C10.5863,69.0196 9.2583,67.7206 9.2233,66.0846" id="Fill-93" fill="#FFFFFF"></path>
                    <path d="M12.1266,63.6451 C12.1106,63.6451 12.0936,63.6461 12.0766,63.6461 C10.7986,63.6731 9.7806,64.7621 9.8096,66.0721 C9.8226,66.7081 10.0776,67.3021 10.5276,67.7421 C10.9746,68.1781 11.5466,68.4271 12.1776,68.3991 C13.4566,68.3721 14.4736,67.2841 14.4456,65.9731 C14.4326,65.3361 14.1766,64.7441 13.7266,64.3031 C13.2926,63.8781 12.7256,63.6451 12.1266,63.6451 L12.1266,63.6451 Z M12.1276,69.5711 C11.2206,69.5711 10.3646,69.2201 9.7096,68.5801 C9.0386,67.9241 8.6576,67.0421 8.6376,66.0971 C8.5956,64.1411 10.1276,62.5161 12.0526,62.4751 C12.9666,62.4581 13.8716,62.8071 14.5456,63.4651 C15.2166,64.1221 15.5966,65.0021 15.6176,65.9491 C15.6586,67.9051 14.1266,69.5291 12.2026,69.5711 L12.1276,69.5711 Z" id="Fill-95" fill="#000000"></path>
                    <path d="M66.7946,57.8648 C66.6906,57.8648 66.5876,57.8278 66.5056,57.7508 C66.3726,57.6258 66.2266,57.5148 66.0806,57.4048 C65.9116,57.2758 65.7436,57.1468 65.5886,57.0018 C65.4186,56.8418 65.4096,56.5738 65.5696,56.4028 C65.7306,56.2318 65.9976,56.2228 66.1686,56.3848 C66.3016,56.5098 66.4476,56.6208 66.5946,56.7308 C66.7626,56.8598 66.9306,56.9888 67.0846,57.1338 C67.2556,57.2928 67.2636,57.5608 67.1036,57.7308 C67.0206,57.8198 66.9076,57.8648 66.7946,57.8648" id="Fill-97" fill="#000000"></path>
                    <path d="M96,3.9584 C96,2.5284 97.13,1.3984 98.559,1.3984 L111.586,1.3984 C112.883,1.3984 113.912,2.4294 113.912,3.7254 C113.912,5.0214 112.883,6.0514 111.586,6.0514 L101.117,6.0514 L101.117,11.0034 L110.091,11.0034 C111.387,11.0034 112.417,12.0334 112.417,13.3294 C112.417,14.6264 111.387,15.6564 110.091,15.6564 L101.117,15.6564 L101.117,22.3034 C101.117,23.7314 99.987,24.8614 98.559,24.8614 C97.13,24.8614 96,23.7314 96,22.3034 L96,3.9584 Z" id="Fill-99" fill="#CCCCCC"></path>
                    <path d="M128.7392,14.9252 L125.5152,7.2482 L122.2922,14.9252 L128.7392,14.9252 Z M114.3482,21.3722 L122.4582,3.0612 C123.0232,1.7972 124.0532,1.0332 125.4492,1.0332 L125.7482,1.0332 C127.1432,1.0332 128.1402,1.7972 128.7062,3.0612 L136.8152,21.3722 C136.9812,21.7372 137.0812,22.0712 137.0812,22.4032 C137.0812,23.7652 136.0172,24.8622 134.6542,24.8622 C133.4582,24.8622 132.6612,24.1642 132.1952,23.1012 L130.6342,19.4452 L120.3972,19.4452 L118.7692,23.2672 C118.3372,24.2642 117.4722,24.8622 116.4092,24.8622 C115.0802,24.8622 114.0502,23.7982 114.0502,22.4692 C114.0502,22.1042 114.1822,21.7372 114.3482,21.3722 L114.3482,21.3722 Z" id="Fill-101" fill="#CCCCCC"></path>
                    <g id="Group-105" transform="translate(139.000000, 0.567000)" fill="#CCCCCC">
                        <path d="M12.3427,15.156 C12.3427,13.826 13.4057,12.729 14.7357,12.729 C15.4337,12.729 15.8987,12.963 16.4307,13.427 L18.9887,15.72 C19.3887,14.79 19.6207,13.693 19.6207,12.53 L19.6207,12.464 C19.6207,8.475 16.6967,5.152 12.5747,5.152 C8.4537,5.152 5.5967,8.409 5.5967,12.397 L5.5967,12.464 C5.5967,16.452 8.5207,19.775 12.6417,19.775 C13.7717,19.775 14.8017,19.576 15.6987,19.143 L13.2737,17.083 C12.7407,16.618 12.3427,15.986 12.3427,15.156 M0.2457,12.53 L0.2457,12.464 C0.2457,5.85 5.4637,0.433 12.6417,0.433 C19.8207,0.433 24.9717,5.784 24.9717,12.397 L24.9717,12.464 C24.9717,14.923 24.2067,17.217 22.9107,19.143 L23.9077,19.974 C24.4397,20.44 24.8387,21.071 24.8387,21.902 C24.8387,23.231 23.7757,24.328 22.4467,24.328 C21.7477,24.328 21.1497,24.029 20.7507,23.631 L19.4887,22.5 C17.5277,23.763 15.1677,24.494 12.5747,24.494 C5.3967,24.494 0.2457,19.143 0.2457,12.53" id="Fill-103"></path>
                    </g>
                </g>
            </g>
        </g>
    </g>
</svg>