<?xml version="1.0" encoding="UTF-8"?>
<svg width="302px" height="98px" viewBox="0 0 302 98" version="1.1" xmlns="http://www.w3.org/2000/svg" xmlns:xlink="http://www.w3.org/1999/xlink">
    <title>card-04-mobile</title>
    <defs>
        <polygon id="path-1" points="0 0.183573923 9.84006988 0.183573923 9.84006988 14.4871 0 14.4871"></polygon>
    </defs>
    <g id="Page-1" stroke="none" stroke-width="1" fill="none" fill-rule="evenodd">
        <g id="Android" transform="translate(-32.000000, -607.000000)">
            <g id="card-04-mobile" transform="translate(32.000000, 607.000000)">
                <rect id="guide-box-copy-2" x="0" y="0" width="302" height="96"></rect>
                <path d="M264.114,26.14 C264.744,26.14 265.164,25.874 265.164,25.412 L265.164,21.814 L268.51,21.814 C269,21.814 269.308,21.478 269.308,20.974 C269.308,20.456 269,20.134 268.51,20.134 L265.164,20.134 L265.164,17.32 L269.014,17.32 C269.504,17.32 269.812,16.984 269.812,16.48 C269.812,15.962 269.504,15.64 269.014,15.64 L264.254,15.64 C263.484,15.64 263.064,16.06 263.064,16.83 L263.064,25.384 C263.064,25.874 263.484,26.14 264.114,26.14 Z M272.304,25.608 L273.088,23.522 L277.246,23.522 L278.03,25.608 C278.212,26.098 278.842,26.252 279.402,26.028 C279.948,25.804 280.144,25.3 279.92,24.81 L276.392,16.144 C276.21,15.724 275.832,15.43 275.16,15.43 C274.488,15.43 274.11,15.724 273.928,16.144 L270.4,24.81 C270.176,25.3 270.344,25.832 270.932,26.042 C271.548,26.266 272.122,26.098 272.304,25.608 Z M276.616,21.842 L273.718,21.842 L275.16,17.978 L276.616,21.842 Z M291.442,26.35 C291.89,25.888 291.778,25.272 291.428,24.922 L290.756,24.25 C291.498,23.354 291.932,22.178 291.932,20.82 C291.932,17.502 289.65,15.43 286.43,15.43 C283.21,15.43 280.928,17.502 280.928,20.82 C280.928,24.138 283.21,26.21 286.43,26.21 C287.424,26.21 288.348,25.986 289.146,25.566 L289.986,26.392 C290.364,26.77 290.994,26.812 291.442,26.35 Z M286.43,24.502 C284.512,24.502 283.028,23.06 283.028,20.82 C283.028,18.58 284.512,17.138 286.43,17.138 C288.348,17.138 289.832,18.58 289.832,20.82 C289.832,21.632 289.664,22.318 289.384,22.878 L288.264,21.744 C287.928,21.394 287.312,21.38 286.864,21.828 C286.402,22.29 286.458,22.864 286.822,23.228 L287.844,24.264 C287.424,24.432 286.948,24.502 286.43,24.502 Z" id="FAQ" fill="#C1C1C1" fill-rule="nonzero"></path>
                <g id="Group-98" transform="translate(208.000000, 6.000000)">
                    <path d="M14.8537,43.2062 C14.8537,43.2062 12.0757,43.8662 11.1157,44.1542 C9.1737,44.7362 6.8797,45.0632 4.9597,45.7032 C4.1307,45.9792 3.3467,46.5842 2.7567,47.2922 C2.2267,47.9292 1.8827,48.6022 1.6887,49.3752 C1.2577,51.0992 1.2777,52.7142 1.3817,54.4882 C1.4377,55.4452 1.8357,56.9022 1.9697,57.8402 C2.0317,58.2732 2.6357,60.2252 2.6357,60.2252 C2.6357,60.2252 4.0917,60.8102 5.0207,60.9962 C6.3037,61.2532 8.0787,61.2662 9.3777,61.1212 C9.8027,61.0742 10.9647,60.9942 11.3867,60.9252 C12.0757,60.8102 14.3987,60.2072 14.3987,60.2072 C14.3987,60.2072 15.9367,64.3302 16.4187,66.4222 C17.0367,69.0962 17.0487,71.8162 17.2007,74.5412 C17.3457,77.1632 17.3567,79.8942 17.0957,82.5052 C16.9777,83.6922 16.8527,84.9972 16.5237,86.1472 C16.2927,86.9562 15.9577,87.7812 15.7947,88.5942 C15.7097,89.0192 14.8907,90.1772 15.6387,90.3632 C16.7807,90.6492 47.3067,90.6112 47.3067,90.6112 C47.3067,90.6112 47.1997,89.0962 47.1267,88.5422 C46.9427,87.1662 47.1117,85.4532 47.1317,84.8692 C47.1507,84.2852 47.0967,82.9672 47.3917,81.7452 C47.7757,80.1462 48.7277,78.0372 48.7277,78.0372 C48.7277,78.0372 49.2967,78.2262 49.4687,77.1952 C49.6687,75.9942 49.6417,74.6022 49.5207,73.3962 C49.3867,72.0562 49.5207,70.6312 49.5207,69.2852 C49.5207,67.7122 49.3647,66.1342 49.3647,64.5492 C49.3647,64.2222 49.0397,63.2812 49.2607,62.9872 C49.6057,62.5262 50.7947,62.9872 51.2377,62.9872 C52.9727,62.9872 54.9197,62.6842 56.5677,62.2712 C57.5927,62.0162 58.0817,61.6872 58.0817,61.6872 C58.0817,61.6872 57.9087,59.0272 57.9307,57.6232 C57.9517,56.2172 57.4687,51.9272 56.1787,50.3142 C55.2347,49.1352 52.6227,46.7302 51.1607,46.3652 C48.4017,45.6762 48.3077,44.9362 45.3897,45.7692 C44.9517,45.8942 42.7107,46.9772 42.7107,46.9772 C42.7107,46.9772 41.0397,49.6792 39.9957,50.5482 C37.3697,52.7372 34.2387,54.7412 30.6277,54.1402 C29.4547,53.9442 28.1057,53.7442 27.0367,53.1502 C24.5417,51.7652 22.3897,49.8052 20.3747,47.7902 C19.6157,47.0312 19.0557,42.1212 19.0557,42.1212 L14.8537,43.2062 Z" id="Fill-1" fill="#FE7200"></path>
                    <path d="M14.8537,43.2062 C14.8537,43.2062 12.0757,43.8662 11.1157,44.1542 C9.1737,44.7362 6.8797,45.0632 4.9597,45.7032 C4.1307,45.9792 3.3467,46.5842 2.7567,47.2922 C2.2267,47.9292 1.8827,48.6022 1.6887,49.3752 C1.2577,51.0992 1.2777,52.7142 1.3817,54.4882 C1.4377,55.4452 1.8357,56.9022 1.9697,57.8402 C2.0317,58.2732 2.6357,60.2252 2.6357,60.2252 C2.6357,60.2252 4.0917,60.8102 5.0207,60.9962 C6.3037,61.2532 8.0787,61.2662 9.3777,61.1212 C9.8027,61.0742 10.9647,60.9942 11.3867,60.9252 C12.0757,60.8102 14.3987,60.2072 14.3987,60.2072 C14.3987,60.2072 15.9367,64.3302 16.4187,66.4222 C17.0367,69.0962 17.0487,71.8162 17.2007,74.5412 C17.3457,77.1632 17.3567,79.8942 17.0957,82.5052 C16.9777,83.6922 16.8527,84.9972 16.5237,86.1472 C16.2927,86.9562 15.9577,87.7812 15.7947,88.5942 C15.7097,89.0192 14.8907,90.1772 15.6387,90.3632 C16.7807,90.6492 47.3067,90.6112 47.3067,90.6112 C47.3067,90.6112 47.1997,89.0962 47.1267,88.5422 C46.9427,87.1662 47.1117,85.4532 47.1317,84.8692 C47.1507,84.2852 47.0967,82.9672 47.3917,81.7452 C47.7757,80.1462 48.7277,78.0372 48.7277,78.0372 C48.7277,78.0372 49.2967,78.2262 49.4687,77.1952 C49.6687,75.9942 49.6417,74.6022 49.5207,73.3962 C49.3867,72.0562 49.5207,70.6312 49.5207,69.2852 C49.5207,67.7122 49.3647,66.1342 49.3647,64.5492 C49.3647,64.2222 49.0397,63.2812 49.2607,62.9872 C49.6057,62.5262 50.7947,62.9872 51.2377,62.9872 C52.9727,62.9872 54.9197,62.6842 56.5677,62.2712 C57.5927,62.0162 58.0817,61.6872 58.0817,61.6872 C58.0817,61.6872 57.9087,59.0272 57.9307,57.6232 C57.9517,56.2172 57.4687,51.9272 56.1787,50.3142 C55.2347,49.1352 52.6227,46.7302 51.1607,46.3652 C48.4017,45.6762 48.3077,44.9362 45.3897,45.7692 C44.9517,45.8942 42.7107,46.9772 42.7107,46.9772 C42.7107,46.9772 41.0397,49.6792 39.9957,50.5482 C37.3697,52.7372 34.2387,54.7412 30.6277,54.1402 C29.4547,53.9442 28.1057,53.7442 27.0367,53.1502 C24.5417,51.7652 22.3897,49.8052 20.3747,47.7902 C19.6157,47.0312 19.0557,42.1212 19.0557,42.1212 L14.8537,43.2062 Z" id="Stroke-3" stroke="#000000" stroke-width="0.467"></path>
                    <path d="M25.8469,43.5607 C25.8469,44.1027 22.8529,50.4687 22.8529,50.4687 C22.8529,50.4687 23.7049,51.6377 25.2709,52.5487 C26.8369,53.4597 28.3139,54.0227 29.1169,54.1127 C31.7089,54.4007 34.0769,54.0437 36.4579,53.0237 C37.3219,52.6537 38.5759,51.7377 38.5759,51.7377 L40.7849,49.8227 L42.7469,46.9577 C42.7469,46.9577 37.8739,44.5917 37.7549,42.8077 C37.6219,40.8147 38.1509,38.8487 38.6079,36.9287 C39.1229,34.7687 39.6299,32.5937 40.1659,30.4487 C40.9839,27.1757 41.5579,23.6757 40.3669,20.3997 C39.5319,18.1027 38.0259,16.3827 36.7999,14.3207 C35.3009,11.7987 34.2259,8.9837 32.1279,6.8847 C31.5779,6.3357 30.9289,4.5887 30.2409,4.2457 C29.2789,3.7647 27.5399,4.6867 26.4499,4.9247 C24.8509,5.2747 23.0989,6.4867 22.5009,7.8317 C21.1469,10.8767 20.5349,14.7527 19.9189,18.0387 C19.3449,21.0977 19.7159,24.4607 20.3209,27.4837 C20.5209,28.4887 20.8989,29.4077 21.1239,30.3977 L25.8469,43.5607 Z" id="Fill-5" fill="#FFEDDE"></path>
                    <path d="M48.3376,62.6271 C48.3376,62.6271 48.4926,64.3481 48.5266,64.8951 C48.6016,66.0831 49.0936,69.1551 49.2476,70.5821 C49.3716,71.7171 49.4416,73.7961 49.3206,75.1261 C49.1456,77.0541 48.7156,78.0901 48.7156,78.0901 C48.7156,78.0901 49.0146,80.1401 49.2136,82.9361 C49.3286,84.5521 49.6606,86.5631 49.6606,88.1921 L49.6606,90.5981 C49.7936,90.7311 59.0586,90.6321 59.0586,90.6321 C59.0586,90.6321 59.3546,87.9631 59.4016,87.2991 C59.5736,84.9111 59.0926,80.7191 58.8696,77.5061 C58.7246,75.4151 58.5726,73.0061 58.4576,70.9251 C58.3466,68.9341 58.2856,65.9601 58.1996,64.9981 C58.1136,64.0361 58.1826,61.7161 58.1826,61.7161 C58.1826,61.7161 56.3856,62.2871 55.7406,62.3521 C54.9656,62.4291 54.0226,62.6021 53.2686,62.6951 C52.2616,62.8211 48.3376,62.6271 48.3376,62.6271" id="Fill-7" fill="#FFEDDE"></path>
                    <path d="M31.8635,0.2404 C30.8725,0.3394 29.8615,0.5474 29.0015,0.9914 C28.0565,1.4804 27.2695,2.2244 26.2425,2.5664 C25.5875,2.7854 24.4445,2.8224 23.8435,3.1754 C23.0225,3.6554 21.8035,4.7304 21.2905,5.8724 C20.9475,6.6334 20.6455,7.1274 20.1475,8.3634 C19.6495,9.5994 18.1365,16.6124 16.6885,20.2344 C16.1135,21.6724 15.3945,23.2944 14.6595,24.5894 C13.3615,26.8794 12.0725,28.8024 11.8595,31.5694 C11.6065,34.8644 14.8565,37.3444 14.5565,40.6384 C14.4205,42.1404 13.6045,42.4184 13.1785,43.6814 C13.5435,43.5154 14.6485,43.4994 16.0395,43.1354 C17.4305,42.7714 18.7435,42.2244 18.7435,42.2244 C18.7435,42.2244 25.8105,40.6694 25.6035,38.8064 C25.5215,38.0634 25.4835,37.2304 25.2435,36.5114 C24.7895,35.1494 24.6035,33.6304 24.0295,32.2904 C23.6035,31.2974 23.0965,30.3184 22.7525,29.2834 C22.4275,28.3104 21.8565,28.2954 21.8565,28.2954 C21.8565,28.2954 20.6805,26.0554 20.5595,20.4604 C20.4995,17.7134 21.1305,14.2384 21.6715,11.5344 C21.9505,10.1384 22.4795,8.5914 23.2365,7.3754 C23.8095,6.4544 24.6055,5.9854 25.4395,5.7074 C25.7465,5.6044 26.6185,5.3774 27.0555,5.2134 C27.8075,4.9304 28.6615,4.4174 29.2175,4.4304 C31.3885,4.4834 32.4195,7.6714 32.6765,8.2504 C33.0645,9.1214 33.9265,10.8704 34.0765,11.2574 C34.3085,11.8504 35.0635,13.1514 35.4255,13.6764 C36.9605,15.8924 38.4775,17.1624 39.0915,19.8634 C39.4835,21.5884 39.5015,23.6384 39.4925,25.2074 C39.4805,27.3754 39.1425,30.0474 38.0525,33.0994 C37.4685,34.7344 37.4815,35.1664 36.8775,37.1104 C36.6775,37.7534 36.4845,40.4394 36.6115,41.9644 C36.6435,42.3444 37.4115,45.7384 41.1655,46.6494 C44.4475,47.4454 47.0215,45.7574 49.6555,46.3324 C52.4025,46.9314 54.4805,48.6454 54.5635,48.6784 C54.8285,47.8594 54.7145,46.2094 53.9135,45.1734 C52.5995,43.4724 49.8615,41.7304 50.0195,39.5044 C50.1085,38.2624 49.9685,37.2574 50.5495,35.2964 C51.4825,32.1534 52.2105,30.0904 51.3835,26.7814 C51.0755,25.5494 48.0025,21.8794 47.4095,20.7794 C46.0675,18.2874 46.2015,16.9954 45.8145,15.0554 C45.1095,11.5304 44.9825,10.0464 43.5905,6.9834 C42.6685,4.9574 40.6515,2.8794 38.7925,1.7634 C38.0735,1.3334 36.5785,0.7734 35.7655,0.6104 C34.5665,0.3714 33.0865,0.1184 31.8635,0.2404" id="Fill-9" fill="#000000"></path>
                    <path d="M4.8464,70.0383 C5.2484,72.8533 5.6324,77.6843 6.0994,80.4853 C6.4684,82.7003 6.6604,84.9153 7.5604,86.3103 C8.1174,87.1723 8.9384,87.8583 9.8884,88.9283 C10.7404,89.8863 11.0844,90.3813 12.2394,90.9583 C13.8034,91.7403 15.9144,90.5843 17.0994,89.6953 C20.9644,86.7973 21.5344,81.3153 21.8014,76.7793 C22.1234,71.2913 21.9304,67.4373 22.2024,61.9453 C22.2784,60.3973 22.1624,57.0663 22.3504,54.2033 C22.4224,53.1183 22.3924,52.4983 22.6454,51.4853 C22.7544,51.0503 22.9444,49.9943 23.4334,49.0353 C24.2124,47.5123 25.4064,45.9383 25.6564,45.2723 C25.8784,44.6823 26.0624,44.1593 26.2164,43.5473 C26.3824,42.8833 26.3564,41.9453 26.8514,41.4503 C27.9574,40.3453 28.8374,38.3833 29.2134,36.8793 C29.4844,35.7963 28.4164,34.7623 28.0574,33.8643 C27.4674,32.3893 27.7654,30.8443 26.2994,29.7443 C25.6914,29.2883 24.8694,29.3623 24.1894,29.1913 C23.5934,29.0433 23.0494,27.9533 22.4474,27.9533 C22.2314,27.9533 21.9344,28.2243 21.6634,29.0363 C21.5084,29.5023 21.2204,30.4573 20.9464,31.1503 C20.7434,31.6643 19.6404,34.0953 19.5134,34.4763 C18.9704,36.1073 19.3284,38.0803 19.0864,39.6763 C18.8044,41.5303 18.8104,42.3813 18.4164,44.2203 C17.9884,46.2203 17.6764,47.4673 16.9354,49.2043 C16.5784,50.0423 16.3874,51.3363 16.1904,52.2513 C15.8974,53.6113 15.6554,54.6163 15.3624,55.9343 C15.0684,57.2593 14.4784,60.1823 14.4784,60.1823 C14.4784,60.1823 11.1604,61.0363 9.8264,61.1573 C8.2634,61.3003 6.0264,61.1573 4.5004,60.8523 C4.0204,60.7573 2.6594,60.2723 2.65315594,60.2973 C2.6294,60.3943 4.3824,66.7933 4.8464,70.0383" id="Fill-11" fill="#FFEDDE"></path>
                    <path d="M7.6188,82.6818 C7.5098,82.6818 7.4208,82.5938 7.4208,82.4848 C7.4208,79.1728 8.7208,76.4188 10.0948,73.5038 L10.2798,73.1138 C11.4008,70.7298 13.0808,65.7388 13.6078,63.2228 C14.1038,60.8548 14.7058,58.1838 15.2378,55.8268 C15.7428,53.5858 16.1788,51.6518 16.3498,50.7388 C16.4938,49.9738 16.8018,49.1588 17.0998,48.3688 C17.3288,47.7628 17.5458,47.1898 17.6918,46.6418 C17.9288,45.7538 18.0958,44.8128 18.2578,43.9038 L18.3598,43.3348 C18.5878,42.0838 18.6908,41.2018 18.8108,40.1798 C18.8748,39.6278 18.9438,39.0448 19.0378,38.3548 C19.1008,37.8898 19.1098,37.3688 19.1188,36.8168 C19.1308,36.0538 19.1428,35.2658 19.3108,34.5948 C19.4798,33.9188 19.8728,33.0808 20.2528,32.2708 C20.4928,31.7588 20.7188,31.2758 20.8698,30.8718 C20.9928,30.5448 21.0798,30.2058 21.1638,29.8768 C21.3018,29.3428 21.4438,28.7908 21.7418,28.2688 C22.2398,27.3978 23.2408,27.8208 23.9038,28.0998 C24.0848,28.1768 24.2568,28.2488 24.3938,28.2878 C24.6188,28.3528 24.9048,28.3888 25.2058,28.4278 C25.8658,28.5118 26.6138,28.6068 27.0548,29.0478 C27.3388,29.3318 27.4648,29.8238 27.5748,30.2568 C27.6258,30.4578 27.6748,30.6488 27.7328,30.7938 C27.7478,30.8308 27.7688,30.8788 27.7928,30.9358 C27.9568,31.3108 28.2608,32.0078 28.1278,32.5098 C28.0998,32.6158 27.9928,32.6798 27.8858,32.6508 C27.7808,32.6228 27.7178,32.5148 27.7458,32.4098 C27.8438,32.0398 27.5648,31.4008 27.4308,31.0928 C27.4048,31.0328 27.3818,30.9808 27.3658,30.9408 C27.2988,30.7718 27.2458,30.5698 27.1918,30.3548 C27.0938,29.9708 26.9828,29.5358 26.7748,29.3278 C26.4298,28.9828 25.7528,28.8958 25.1558,28.8198 C24.8388,28.7798 24.5398,28.7418 24.2858,28.6678 C24.1248,28.6228 23.9428,28.5458 23.7498,28.4638 C22.9648,28.1328 22.3858,27.9388 22.0848,28.4648 C21.8128,28.9408 21.6838,29.4438 21.5468,29.9758 C21.4598,30.3148 21.3698,30.6638 21.2398,31.0108 C21.0838,31.4288 20.8538,31.9188 20.6108,32.4378 C20.2388,33.2318 19.8538,34.0518 19.6948,34.6908 C19.5378,35.3178 19.5258,36.0818 19.5138,36.8228 C19.5048,37.3618 19.4958,37.9188 19.4298,38.4088 C19.3358,39.0958 19.2678,39.6768 19.2028,40.2258 C19.0828,41.2538 18.9788,42.1428 18.7488,43.4058 L18.6468,43.9728 C18.4838,44.8908 18.3148,45.8388 18.0738,46.7438 C17.9228,47.3098 17.6918,47.9188 17.4698,48.5088 C17.1778,49.2818 16.8758,50.0798 16.7388,50.8118 C16.5658,51.7318 16.1298,53.6688 15.6228,55.9128 C15.0918,58.2688 14.4898,60.9388 13.9948,63.3038 C13.4628,65.8418 11.7678,70.8768 10.6368,73.2818 L10.4528,73.6728 C9.0968,76.5468 7.8168,79.2618 7.8168,82.4848 C7.8168,82.5938 7.7278,82.6818 7.6188,82.6818" id="Fill-13" fill="#000000"></path>
                    <path d="M9.0373,88.3176 C8.9953,88.3176 8.9543,88.3046 8.9183,88.2786 C7.4543,87.1796 6.8523,85.4746 6.4573,83.9526 C6.0413,82.3496 5.8963,80.8386 5.7293,79.0886 C5.6413,78.1736 5.5523,77.2296 5.4143,76.1776 C4.9953,72.9776 4.5613,69.7386 4.2673,68.3806 C3.6483,65.5176 2.1553,59.1056 2.0013,58.5686 C1.2313,55.8736 0.4053,50.5536 2.1963,47.7196 C3.5913,45.5106 6.0183,45.0286 8.8293,44.4696 C9.3843,44.3596 9.9583,44.2456 10.5373,44.1156 C11.0023,44.0096 11.6153,43.8996 12.3263,43.7706 C14.3093,43.4126 17.0273,42.9216 18.6053,42.1516 C18.7033,42.1026 18.8223,42.1436 18.8693,42.2426 C18.9173,42.3406 18.8763,42.4596 18.7783,42.5066 C17.1513,43.2996 14.4033,43.7966 12.3963,44.1606 C11.6903,44.2876 11.0803,44.3976 10.6243,44.5006 C10.0403,44.6316 9.4633,44.7476 8.9063,44.8576 C6.1843,45.3986 3.8343,45.8656 2.5303,47.9306 C1.0373,50.2956 1.4063,55.0466 2.3813,58.4596 C2.5533,59.0586 4.0753,65.6236 4.6543,68.2966 C4.9513,69.6706 5.3863,72.9186 5.8063,76.1266 C5.9443,77.1846 6.0353,78.1326 6.1223,79.0496 C6.2883,80.7836 6.4323,82.2806 6.8403,83.8536 C7.2183,85.3096 7.7883,86.9366 9.1563,87.9626 C9.2433,88.0276 9.2613,88.1516 9.1953,88.2396 C9.1573,88.2916 9.0973,88.3176 9.0373,88.3176" id="Fill-15" fill="#000000"></path>
                    <path d="M23.1369,33.5393 C23.0279,33.5393 22.9389,33.4513 22.9389,33.3423 C22.9389,32.5603 23.4919,30.7023 23.5149,30.6243 C23.5399,30.5423 23.6139,30.4853 23.6989,30.4823 C23.9629,30.4753 24.8369,30.4513 25.0129,30.4863 C25.2059,30.5253 25.3589,30.7543 25.6579,31.2253 C25.9109,31.6233 26.2249,32.1173 26.5189,32.3093 C26.6109,32.3683 26.6369,32.4913 26.5769,32.5823 C26.5169,32.6743 26.3959,32.7003 26.3039,32.6413 C25.9379,32.4023 25.6119,31.8903 25.3249,31.4363 C25.1829,31.2153 24.9909,30.9123 24.9149,30.8673 C24.8469,30.8563 24.3429,30.8603 23.8539,30.8743 C23.7259,31.3193 23.3339,32.7333 23.3339,33.3423 C23.3339,33.4513 23.2459,33.5393 23.1369,33.5393" id="Fill-17" fill="#000000"></path>
                    <path d="M25.0485,30.9152 C24.9985,30.9152 24.9475,30.8952 24.9085,30.8572 C24.8315,30.7792 24.8315,30.6542 24.9095,30.5772 L24.9835,30.4802 C24.9895,30.4692 24.9965,30.4572 25.0045,30.4472 L25.2825,30.0692 C25.3315,29.9732 25.4495,29.9332 25.5475,29.9812 C25.6455,30.0292 25.6845,30.1482 25.6365,30.2462 L25.5985,30.3212 C25.5925,30.3332 25.5865,30.3442 25.5775,30.3542 L25.3005,30.7312 C25.2915,30.7502 25.2785,30.7682 25.2625,30.7832 L25.1885,30.8572 C25.1495,30.8962 25.0995,30.9152 25.0485,30.9152" id="Fill-19" fill="#000000"></path>
                    <path d="M23.6677,30.841 C23.5757,30.841 23.4927,30.777 23.4737,30.682 C23.4487,30.554 23.4027,30.432 23.3557,30.303 C23.2987,30.152 23.2407,29.994 23.2117,29.818 C23.1937,29.71 23.2667,29.608 23.3737,29.59 C23.4837,29.573 23.5837,29.645 23.6017,29.752 C23.6247,29.892 23.6737,30.025 23.7267,30.166 C23.7767,30.304 23.8297,30.446 23.8617,30.605 C23.8827,30.712 23.8137,30.816 23.7067,30.837 C23.6927,30.84 23.6807,30.841 23.6677,30.841" id="Fill-21" fill="#000000"></path>
                    <path d="M29.0134,38.1301 C28.9504,38.1301 28.8884,38.1001 28.8494,38.0431 C28.7884,37.9531 28.8124,37.8301 28.9024,37.7691 C29.7904,37.1691 29.4144,36.0431 29.0834,35.0511 C29.0154,34.8471 28.9634,34.6571 28.9114,34.4701 C28.7054,33.7291 28.5284,33.0891 27.7974,32.7241 C27.4344,32.5421 26.8134,32.6091 26.3874,32.7691 C25.2774,33.1861 23.9724,33.4711 22.9604,33.6741 C22.8384,33.6971 22.7104,33.7191 22.5784,33.7411 C22.0444,33.8291 21.4914,33.9201 21.1584,34.2541 C21.0804,34.3311 20.9554,34.3311 20.8784,34.2541 C20.8014,34.1771 20.8014,34.0521 20.8784,33.9751 C21.3014,33.5511 21.9464,33.4441 22.5134,33.3511 C22.6404,33.3301 22.7654,33.3101 22.8824,33.2861 C23.8804,33.0861 25.1654,32.8051 26.2484,32.3991 C26.7554,32.2091 27.4854,32.1261 27.9734,32.3701 C28.8624,32.8141 29.0804,33.6021 29.2924,34.3641 C29.3424,34.5451 29.3934,34.7291 29.4534,34.9101 C29.7974,35.9401 30.2604,37.3281 29.1244,38.0971 C29.0904,38.1191 29.0524,38.1301 29.0134,38.1301" id="Fill-23" fill="#000000"></path>
                    <path d="M27.593,40.8371 C27.484,40.8371 27.395,40.7481 27.395,40.6401 C27.395,40.5301 27.484,40.4411 27.593,40.4411 C27.909,40.4411 28.628,38.6031 28.697,38.0431 C28.768,37.4801 28.395,36.1821 27.875,35.5261 C27.701,35.3091 27.531,35.1851 27.38,35.1691 C25.787,35.0031 24.576,35.0641 23.27,35.1541 C22.982,35.1741 22.718,35.1771 22.485,35.1791 C21.638,35.1891 21.172,35.1931 20.782,35.8911 C20.729,35.9851 20.608,36.0211 20.513,35.9671 C20.418,35.9141 20.384,35.7931 20.437,35.6981 C20.939,34.8001 21.619,34.7931 22.48,34.7841 C22.719,34.7811 22.967,34.7781 23.242,34.7601 C24.568,34.6681 25.796,34.6071 27.421,34.7761 C27.683,34.8041 27.94,34.9741 28.184,35.2811 C28.786,36.0391 29.172,37.4391 29.09,38.0921 C29.069,38.2641 28.393,40.8371 27.593,40.8371" id="Fill-25" fill="#000000"></path>
                    <path d="M25.0661,41.9338 C24.7261,41.9338 24.4601,41.8688 24.2971,41.6648 C24.1361,41.4628 24.1141,41.2098 24.2371,40.9548 C24.5601,40.2848 25.8691,39.6088 26.3211,39.6088 C26.4301,39.6088 26.5191,39.6968 26.5191,39.8058 C26.5191,39.9148 26.4301,40.0038 26.3211,40.0038 C26.0321,40.0038 24.8461,40.5998 24.5941,41.1258 C24.5211,41.2788 24.5591,41.3588 24.6061,41.4178 C24.7601,41.6118 25.3751,41.5308 25.9691,41.4528 L26.2531,41.4148 C26.9671,41.3268 27.1351,40.9078 27.1981,40.7488 L27.3081,40.4788 C27.5951,39.7768 27.8931,39.0498 27.8011,38.3188 C27.7311,37.7538 27.3501,37.6058 26.7351,37.4118 C26.6091,37.3718 26.4831,37.3308 26.3601,37.2858 C25.8521,37.0938 25.2901,36.9748 24.7461,36.8598 C24.6081,36.8298 24.4701,36.8008 24.3341,36.7708 C24.1171,36.7218 23.9201,36.6718 23.7371,36.6238 C22.9151,36.4128 22.4181,36.2858 21.5541,36.7168 C21.4571,36.7658 21.3381,36.7268 21.2891,36.6278 C21.2401,36.5308 21.2801,36.4128 21.3781,36.3638 C22.3731,35.8658 22.9861,36.0238 23.8351,36.2418 C24.0151,36.2878 24.2081,36.3368 24.4201,36.3848 C24.5551,36.4138 24.6911,36.4438 24.8291,36.4728 C25.3861,36.5908 25.9621,36.7138 26.4991,36.9148 C26.6151,36.9578 26.7351,36.9968 26.8551,37.0348 C27.4331,37.2178 28.0871,37.4248 28.1931,38.2698 C28.2971,39.1038 27.9811,39.8788 27.6741,40.6278 L27.5671,40.8928 C27.3551,41.4228 26.9291,41.7288 26.3011,41.8078 L26.0211,41.8438 C25.6641,41.8908 25.3411,41.9338 25.0661,41.9338" id="Fill-27" fill="#000000"></path>
                    <path d="M23.8174,46.2176 C23.7874,46.2176 23.7574,46.2116 23.7294,46.1976 C23.6314,46.1486 23.5914,46.0296 23.6404,45.9316 C24.1524,44.9066 24.1564,42.5116 24.0784,41.2586 C24.0554,40.8956 24.0234,40.5746 23.9964,40.3046 C23.9584,39.9276 23.9314,39.6556 23.9504,39.4816 C23.9594,39.4066 24.0244,39.3316 24.0944,39.3056 C24.2894,39.2346 25.3484,39.2676 25.8704,39.7706 C25.9484,39.8456 25.9514,39.9716 25.8754,40.0496 C25.7994,40.1286 25.6744,40.1306 25.5954,40.0546 C25.2694,39.7406 24.6134,39.6646 24.3404,39.6706 C24.3444,39.8166 24.3654,40.0226 24.3894,40.2656 C24.4174,40.5396 24.4494,40.8656 24.4724,41.2346 C24.4944,41.5896 24.6714,44.7536 23.9944,46.1086 C23.9594,46.1776 23.8894,46.2176 23.8174,46.2176 L23.8174,46.2176 Z" id="Fill-29" fill="#000000"></path>
                    <path d="M13.4977,91.3381 C11.9307,91.3381 10.5637,90.4621 9.4307,88.7301 C9.3707,88.6391 9.3967,88.5161 9.4877,88.4561 C9.5797,88.3971 9.7017,88.4221 9.7617,88.5141 C10.8817,90.2261 12.2277,91.0391 13.7687,90.9341 C16.4197,90.7491 18.8617,87.9231 19.5217,86.5221 C20.0117,85.4841 20.4697,83.9851 20.7177,82.6091 L20.7897,82.2091 C21.1707,80.1221 21.6437,77.5251 21.7167,72.6581 C21.7437,70.8451 21.8447,64.5451 22.0097,59.5891 C22.0287,59.0261 22.0467,58.4041 22.0657,57.7641 C22.1407,55.2531 22.2247,52.4071 22.3757,51.6531 C22.6867,50.0991 23.1737,49.0851 23.9087,47.8591 C24.0127,47.6871 24.1207,47.5101 24.2307,47.3291 C25.1167,45.8801 26.1207,44.2371 26.1207,42.6241 C26.1207,42.5151 26.2087,42.4261 26.3177,42.4261 C26.4267,42.4261 26.5157,42.5151 26.5157,42.6241 C26.5157,44.3491 25.4807,46.0421 24.5677,47.5351 C24.4587,47.7151 24.3517,47.8911 24.2477,48.0631 C23.5177,49.2791 23.0647,50.2251 22.7637,51.7311 C22.6197,52.4521 22.5357,55.2801 22.4607,57.7751 C22.4417,58.4171 22.4237,59.0381 22.4047,59.6021 C22.2397,64.5551 22.1387,70.8521 22.1117,72.6641 C22.0397,77.5631 21.5627,80.1791 21.1797,82.2801 L21.1067,82.6801 C20.8527,84.0871 20.3827,85.6231 19.8797,86.6901 C19.1857,88.1621 16.6087,91.1321 13.7967,91.3271 C13.6957,91.3341 13.5967,91.3381 13.4977,91.3381" id="Fill-31" fill="#000000"></path>
                    <path d="M47.3405,90.9162 C47.2475,90.9162 47.1645,90.8502 47.1465,90.7552 C46.8195,89.0132 46.8745,86.5682 46.9015,85.3952 C46.9055,85.1532 46.9105,84.9602 46.9105,84.8292 C46.9105,83.5292 47.0165,82.4692 47.2435,81.4892 C47.4125,80.7652 47.6905,80.0382 47.9355,79.3962 C48.0085,79.2062 48.0785,79.0202 48.1435,78.8452 C48.1945,78.7042 48.2585,78.5582 48.3295,78.3952 C48.7535,77.4222 49.3945,75.9512 49.1295,71.8152 C49.0385,70.3922 48.8435,68.8812 48.6535,67.4202 C48.3115,64.7752 47.9875,62.2762 48.2765,60.4262 C48.2925,60.3172 48.3945,60.2432 48.5015,60.2612 C48.6105,60.2772 48.6835,60.3792 48.6665,60.4862 C48.3875,62.2812 48.7075,64.7532 49.0455,67.3702 C49.2365,68.8372 49.4325,70.3542 49.5245,71.7902 C49.7945,76.0212 49.1045,77.6052 48.6925,78.5532 C48.6245,78.7072 48.5635,78.8472 48.5145,78.9802 C48.4485,79.1592 48.3785,79.3452 48.3055,79.5372 C48.0645,80.1672 47.7915,80.8812 47.6295,81.5792 C47.4085,82.5272 47.3065,83.5612 47.3065,84.8292 C47.3065,84.9622 47.3015,85.1582 47.2965,85.4032 C47.2705,86.5642 47.2165,88.9792 47.5345,90.6822 C47.5555,90.7892 47.4855,90.8932 47.3775,90.9122 C47.3645,90.9152 47.3535,90.9162 47.3405,90.9162" id="Fill-33" fill="#000000"></path>
                    <path d="M49.5749,91.0021 C49.5699,91.0021 49.5639,91.0021 49.5589,91.0011 C49.4499,90.9921 49.3689,90.8981 49.3779,90.7891 C49.5649,88.4081 49.2129,84.9171 48.9289,82.1121 C48.7479,80.3141 48.5919,78.7611 48.5919,77.7581 C48.5919,77.6481 48.6789,77.5601 48.7889,77.5601 C48.8979,77.5601 48.9869,77.6481 48.9869,77.7581 C48.9869,78.7411 49.1419,80.2851 49.3229,82.0721 C49.6069,84.8941 49.9619,88.4041 49.7709,90.8191 C49.7629,90.9231 49.6769,91.0021 49.5749,91.0021" id="Fill-35" fill="#000000"></path>
                    <path d="M59.0241,91.0842 C59.0141,91.0842 59.0051,91.0842 58.9971,91.0832 C58.8881,91.0672 58.8121,90.9682 58.8281,90.8592 C59.3891,86.8002 59.4181,85.2962 59.0091,81.3932 C58.7681,79.0882 58.5111,74.7172 58.3231,71.5262 C58.2621,70.4982 58.2091,69.5862 58.1651,68.8932 C58.0451,67.0192 57.9931,64.3222 57.9591,62.5382 L57.9391,61.5652 C57.8591,57.9542 57.7781,54.2212 56.9411,52.1832 C56.0841,50.0932 54.8911,48.6542 51.0511,47.0392 C50.9511,46.9972 50.9041,46.8822 50.9461,46.7812 C50.9881,46.6812 51.1041,46.6332 51.2051,46.6752 C55.1711,48.3432 56.4101,49.8452 57.3071,52.0322 C58.1711,54.1392 58.2541,57.9102 58.3341,61.5572 L58.3531,62.5302 C58.3871,64.3112 58.4401,67.0022 58.5591,68.8682 C58.6031,69.5622 58.6571,70.4752 58.7171,71.5032 C58.9061,74.6902 59.1631,79.0562 59.4031,81.3522 C59.8151,85.2952 59.7861,86.8142 59.2191,90.9142 C59.2061,91.0132 59.1211,91.0842 59.0241,91.0842" id="Fill-37" fill="#000000"></path>
                    <path d="M21.1389,14.9113 C21.1299,14.9113 21.1199,14.9113 21.1109,14.9093 C21.0029,14.8933 20.9279,14.7943 20.9429,14.6853 C21.2829,12.3073 21.8229,9.3463 22.9929,7.5433 C23.0539,7.4513 23.1769,7.4263 23.2669,7.4843 C23.3589,7.5443 23.3849,7.6673 23.3259,7.7583 C22.1969,9.4963 21.6689,12.4033 21.3339,14.7413 C21.3209,14.8403 21.2359,14.9113 21.1389,14.9113" id="Fill-39" fill="#000000"></path>
                    <path d="M21.84,28.4963 C21.761,28.4963 21.687,28.4493 21.656,28.3713 C20.193,24.7113 20.274,20.9633 20.377,19.5213 C20.385,19.4123 20.476,19.3323 20.588,19.3383 C20.697,19.3463 20.779,19.4403 20.771,19.5503 C20.67,20.9643 20.59,24.6413 22.024,28.2253 C22.064,28.3263 22.015,28.4413 21.913,28.4813 C21.889,28.4913 21.864,28.4963 21.84,28.4963" id="Fill-41" fill="#000000"></path>
                    <path d="M25.6838,33.0061 C25.6558,33.0061 25.6268,33.0001 25.5988,32.9861 C24.7768,32.5961 24.0418,32.0471 23.4138,31.3571 C23.3408,31.2761 23.3468,31.1511 23.4278,31.0771 C23.5088,31.0041 23.6338,31.0101 23.7058,31.0911 C24.2998,31.7431 24.9938,32.2611 25.7688,32.6301 C25.8678,32.6771 25.9098,32.7951 25.8628066,32.8931 C25.8288,32.9641 25.7578,33.0061 25.6838,33.0061" id="Fill-43" fill="#000000"></path>
                    <path d="M28.8259,33.6584 C28.7199,33.6584 28.6319,33.5734 28.6288238,33.4664 C28.6259,33.3564 28.7119,33.2654 28.8209,33.2624 C29.5659,33.2434 30.3179,33.1054 31.0559,32.8534 C32.9349,32.2144 35.0419,30.5674 35.9919,29.3454 C36.0589,29.2584 36.1829,29.2434 36.2689,29.3094 C36.3559,29.3774 36.3719,29.5014 36.3049,29.5874 C35.3179,30.8564 33.1329,32.5644 31.1829,33.2274 C30.4079,33.4924 29.6159,33.6374 28.8319,33.6584 L28.8259,33.6584 Z" id="Fill-45" fill="#000000"></path>
                    <path d="M27.2575,21.3518 C27.2385,21.3518 27.2195,21.3488 27.2005,21.3438 C26.5075,21.1378 26.0005,20.4558 26.0705,19.8238 C26.1155,19.4228 26.3835,19.0678 26.6685,18.6918 C26.9195,18.3598 27.1785,18.0158 27.2665,17.6498 C27.4535,16.8728 27.3815,16.4498 27.1925,15.9778 C27.1525,15.8758 27.2015,15.7618 27.3025,15.7208 C27.4035,15.6808 27.5195,15.7298 27.5595,15.8308 C27.7725,16.3628 27.8615,16.8678 27.6515,17.7418 C27.5435,18.1888 27.2585,18.5658 26.9835,18.9298 C26.7335,19.2608 26.4965,19.5748 26.4645,19.8668 C26.4155,20.3028 26.8125,20.8158 27.3135,20.9648 C27.4185,20.9968 27.4775,21.1058 27.4465,21.2098 C27.4215,21.2958 27.3425,21.3518 27.2575,21.3518" id="Fill-47" fill="#000000"></path>
                    <path d="M23.048,14.091 C22.975,14.091 22.904,14.05 22.87,13.98 C22.822,13.881 22.864,13.763 22.962,13.715 C23.455,13.479 23.811,13.487 24.127,13.493 C24.374,13.499 24.608,13.505 24.911,13.397 C25.014,13.36 25.128,13.413 25.164,13.516 C25.201,13.618 25.147,13.732 25.045,13.769 C24.672,13.902 24.391,13.895 24.117,13.889 C23.821,13.881 23.541,13.875 23.134,14.071 C23.106,14.085 23.077,14.091 23.048,14.091" id="Fill-49" fill="#000000"></path>
                    <path d="M33.7429,14.4855 C33.7139,14.4855 33.6829,14.4785 33.6549,14.4645 C33.3069,14.2915 32.9679,14.2575 32.6389,14.2255 C32.2489,14.1875 31.8809,14.1525 31.5509,13.8955 C31.4649,13.8285 31.4499,13.7045 31.5159,13.6185 C31.5839,13.5315 31.7069,13.5165 31.7939,13.5835 C32.0339,13.7695 32.3319,13.7985 32.6769,13.8325 C33.0249,13.8665 33.4189,13.9045 33.8319,14.1105 C33.9299,14.1595 33.9689,14.2785 33.9199,14.3765 C33.8859,14.4455 33.8149,14.4855 33.7429,14.4855" id="Fill-51" fill="#000000"></path>
                    <path d="M23.2355,16.4045 C23.2355,16.0875 23.4975,15.8305 23.8195,15.8305 C24.1425,15.8305 24.4045,16.0875 24.4045,16.4045 C24.4045,16.7215 24.1425,16.9785 23.8195,16.9785 C23.4975,16.9785 23.2355,16.7215 23.2355,16.4045" id="Fill-53" fill="#000000"></path>
                    <path d="M32.4992,16.8654 C32.4992,16.5544 32.7552,16.3034 33.0712,16.3034 C33.3882,16.3034 33.6442,16.5544 33.6442,16.8654 C33.6442,17.1764 33.3882,17.4274 33.0712,17.4274 C32.7552,17.4274 32.4992,17.1764 32.4992,16.8654" id="Fill-55" fill="#000000"></path>
                    <path d="M28.9772,26.7258 C28.9272,26.7258 28.8762,26.7068 28.8372,26.6678 C28.5892,26.4198 28.3202,26.3918 27.9802,26.3558 C27.8432,26.3408 27.7012,26.3258 27.5532,26.2958 C27.1642,26.2178 26.8472,26.1018 26.5832,25.9408 C26.4902,25.8838 26.4612,25.7618 26.5182,25.6688 C26.5752,25.5758 26.6972,25.5458 26.7892,25.6038 C27.0132,25.7408 27.2882,25.8398 27.6312,25.9088 C27.7662,25.9358 27.8962,25.9488 28.0212,25.9618 C28.3902,26.0008 28.7702,26.0408 29.1172,26.3888 C29.1942,26.4658 29.1942,26.5908 29.1172,26.6678 C29.0792,26.7068 29.0282,26.7258 28.9772,26.7258" id="Fill-57" fill="#000000"></path>
                    <path d="M30.4777,54.3674 C29.6137,54.3674 28.8797,54.2904 28.3447,54.1824 C27.7327,54.0594 24.3047,52.9574 22.7947,50.6724 C22.7347,50.5814 22.7597,50.4584 22.8507,50.3974 C22.9407,50.3384 23.0637,50.3624 23.1237,50.4544 C24.5597,52.6254 27.8367,53.6784 28.4227,53.7954 C31.0787,54.3264 38.8017,54.1134 42.5887,46.8454 C42.6397,46.7484 42.7587,46.7114 42.8547,46.7614 C42.9527,46.8114 42.9897,46.9304 42.9387,47.0274 C39.8017,53.0504 34.0367,54.3674 30.4777,54.3674" id="Fill-59" fill="#000000"></path>
                    <path d="M7.8586,61.3781 C5.9166,61.3781 3.9636,61.1221 2.6306,60.4211 C2.5336,60.3701 2.4966,60.2501 2.5476,60.1531 C2.5986,60.0571 2.7186,60.0211 2.8146,60.0701 C5.5546,61.5131 11.0546,60.9921 13.3626,60.2961 C13.4676,60.2651 13.5776,60.3231 13.6086,60.4281 C13.6406,60.5321 13.5816,60.6431 13.4766,60.6741 C12.2236,61.0521 10.0486,61.3781 7.8586,61.3781" id="Fill-61" fill="#000000"></path>
                    <path d="M51.7517,62.9104 C50.5667,62.9104 49.4657,62.8384 48.6197,62.7324 C48.5117,62.7194 48.4347,62.6204 48.4477,62.5124 C48.4617,62.4034 48.5617,62.3264 48.6687,62.3404 C51.0527,62.6394 55.5007,62.6704 57.9837,61.5374 C58.0837,61.4914 58.2007,61.5354 58.2457,61.6354 C58.2917,61.7344 58.2477,61.8504 58.1477,61.8964 C56.4807,62.6574 53.9707,62.9104 51.7517,62.9104" id="Fill-63" fill="#000000"></path>
                    <path d="M41.0935,33.7268 C41.0265,33.7268 40.9605,33.6928 40.9235,33.6308 C40.0145,32.1208 40.4635,30.0418 40.8995,28.0328 C41.2205,26.5458 41.5525,25.0088 41.3185,23.7568 C40.7595,20.7788 39.2275,18.9138 37.4535,16.7528 C37.0485,16.2588 36.6295,15.7478 36.2095,15.2088 C35.4515,14.2348 34.4975,12.5678 33.8885,11.3488 C33.5705,10.7128 33.2775,10.0508 32.9945,9.4108 C32.4325,8.1418 31.8525,6.8308 31.0575,5.6828 C30.7965,5.3048 30.1095,4.7158 29.2895,4.6428 C28.6665,4.5848 28.0825,4.8308 27.5435,5.3698 C27.4665,5.4478 27.3415,5.4478 27.2645,5.3698 C27.1865,5.2918 27.1865,5.1668 27.2645,5.0898 C27.8895,4.4648 28.5855,4.1828 29.3245,4.2478 C30.3545,4.3418 31.1215,5.0808 31.3835,5.4578 C32.1985,6.6358 32.7865,7.9648 33.3555,9.2498 C33.6375,9.8868 33.9285,10.5438 34.2415,11.1718 C34.8235,12.3348 35.7845,14.0188 36.5225,14.9668 C36.9385,15.5018 37.3565,16.0108 37.7595,16.5018 C39.5685,18.7048 41.1295,20.6068 41.7065,23.6848 C41.9555,25.0148 41.6145,26.5908 41.2845,28.1168 C40.8665,30.0508 40.4345,32.0508 41.2625,33.4268 C41.3195,33.5208 41.2885,33.6418 41.1955,33.6988 C41.1635,33.7178 41.1285,33.7268 41.0935,33.7268" id="Fill-65" fill="#000000"></path>
                    <path d="M13.1149,43.9816 C13.0679,43.9816 13.0199,43.9636 12.9819,43.9306 C12.9009,43.8576 12.8949,43.7326 12.9679,43.6516 C15.3469,41.0136 14.1469,38.5246 12.9859,36.1166 C12.3519,34.8016 11.7539,33.5606 11.6899,32.2946 C11.5559,29.6146 12.8919,27.2806 14.1829,25.0236 C14.7449,24.0416 15.3269,23.0246 15.7599,22.0146 C16.5569,20.1536 17.4109,17.6386 18.0439,15.2876 C18.2179,14.6406 18.3779,14.0116 18.5369,13.3836 C18.9769,11.6556 19.4309,9.8676 20.1859,7.7446 C20.8729,5.8116 22.7739,2.5416 25.5389,2.5416 C25.6489,2.5416 25.7369,2.6296 25.7369,2.7386 C25.7369,2.8476 25.6489,2.9366 25.5389,2.9366 C22.9939,2.9366 21.2109,6.0426 20.5579,7.8776 C19.8099,9.9826 19.3579,11.7606 18.9209,13.4816 C18.7609,14.1116 18.5999,14.7416 18.4259,15.3896 C17.7879,17.7576 16.9279,20.2936 16.1229,22.1706 C15.6809,23.2016 15.0939,24.2276 14.5269,25.2196 C13.2629,27.4276 11.9569,29.7106 12.0849,32.2756 C12.1449,33.4606 12.7259,34.6686 13.3419,35.9446 C14.5029,38.3526 15.8189,41.0816 13.2609,43.9166 C13.2219,43.9596 13.1689,43.9816 13.1149,43.9816" id="Fill-67" fill="#000000"></path>
                    <path d="M42.8249,47.1281 C41.3349,47.1281 39.8139,46.6951 38.2639,45.1611 C35.1759,42.1031 36.1859,38.7201 37.4669,34.4361 C37.9429,32.8401 38.4349,31.1901 38.7869,29.3571 C39.2939,26.7161 39.6349,22.0361 38.9569,20.1171 C38.9209,20.0151 38.9749,19.9011 39.0779,19.8651 C39.1799,19.8301 39.2939,19.8831 39.3299,19.9851 C40.0619,22.0621 39.6709,26.8491 39.1759,29.4311 C38.8199,31.2841 38.3239,32.9431 37.8449,34.5491 C36.6029,38.7051 35.6229,41.9891 38.5429,44.8801 C40.9609,47.2741 43.2369,46.8351 45.6469,46.3691 C47.1949,46.0701 48.7949,45.7621 50.3949,46.2931 C50.4999,46.3281 50.5549,46.4401 50.5209,46.5431 C50.4869,46.6471 50.3749,46.7031 50.2709,46.6691 C48.7669,46.1701 47.2879,46.4551 45.7219,46.7581 C44.7689,46.9411 43.8039,47.1281 42.8249,47.1281" id="Fill-69" fill="#000000"></path>
                    <path d="M54.6228,48.8039 C54.6138,48.8039 54.6048,48.8039 54.5958,48.8029 C54.4878,48.7879 54.4118,48.6889 54.4268,48.5799 C54.7648,46.1129 53.4558,44.8409 52.1908,43.6109 C51.5398,42.9779 50.8658,42.3239 50.4538,41.5259 C49.3668,39.4279 49.9218,37.1529 50.4578,34.9519 C50.5238,34.6789 50.5918,34.4049 50.6558,34.1299 C50.7448,33.7449 50.8418,33.3659 50.9358,32.9909 C51.4028,31.1479 51.8448,29.4069 51.4018,27.5299 C51.0228,25.9169 50.1618,24.8159 48.9698,23.2929 C48.5918,22.8099 48.1638,22.2629 47.7198,21.6549 C46.3438,19.7739 45.8178,16.5529 45.3958,13.9659 C45.2568,13.1089 45.1238,12.2989 44.9778,11.6539 C44.0228,7.4299 42.4408,4.7169 39.6878,2.5819 C36.6878,0.2559 30.2958,-0.8991 27.1068,2.5859 C27.0328,2.6659 26.9078,2.6709 26.8278,2.5979 C26.7468,2.5249 26.7418,2.3999 26.8148,2.3189 C30.1538,-1.3301 36.8128,-0.1471 39.9308,2.2699 C42.7628,4.4649 44.3878,7.2449 45.3638,11.5669 C45.5128,12.2239 45.6448,13.0389 45.7858,13.9029 C46.2018,16.4489 46.7188,19.6169 48.0378,21.4209 C48.4788,22.0239 48.8868,22.5449 49.2808,23.0489 C50.4588,24.5529 51.3888,25.7419 51.7878,27.4389 C52.2508,29.4089 51.7988,31.1969 51.3188,33.0889 C51.2258,33.4609 51.1298,33.8369 51.0408,34.2189 C50.9768,34.4949 50.9088,34.7709 50.8428,35.0459 C50.2988,37.2739 49.7858,39.3769 50.8048,41.3439 C51.1878,42.0839 51.8098,42.6889 52.4668,43.3269 C53.7398,44.5659 55.1838,45.9679 54.8178,48.6339 C54.8048,48.7329 54.7208,48.8039 54.6228,48.8039" id="Fill-71" fill="#000000"></path>
                    <path d="M25.9675,5.5002 C25.9205,5.5002 25.8735,5.4832 25.8355,5.4492 L25.8055,5.4232 C25.4455,5.0972 25.0355,4.7282 24.3215,5.0472 C24.2205,5.0912 24.1045,5.0462 24.0595,4.9462 C24.0155,4.8472 24.0595,4.7302 24.1595,4.6862 C25.1095,4.2622 25.7115,4.8052 26.0705,5.1292 L26.0995,5.1552 C26.1805,5.2292 26.1875,5.3542 26.1145,5.4352 C26.0755,5.4792 26.0215,5.5002 25.9675,5.5002" id="Fill-73" fill="#000000"></path>
                    <path d="M23.3859,6.3186 C23.3219,6.3186 23.2579,6.2876 23.2199,6.2286 C23.1599,6.1376 23.1859,6.0146 23.2779,5.9556 C23.7679,5.6346 24.7719,5.4206 25.2009,5.6346 C25.2989,5.6836 25.3389,5.8026 25.2899,5.9006 C25.2399,5.9986 25.1219,6.0376 25.0249,5.9886 C24.7789,5.8656 23.9299,6.0016 23.4939,6.2866 C23.4609,6.3076 23.4229,6.3186 23.3859,6.3186" id="Fill-75" fill="#000000"></path>
                    <path d="M26.9948,34.9904 C26.9518,34.9904 26.9078,34.9754 26.8708,34.9474 C26.7868,34.8794 26.7718,34.7544 26.8408,34.6694 L26.9438,34.5434 C27.0088,34.4654 27.0738,34.3864 27.1328,34.3034 C27.1958,34.2154 27.3188,34.1934 27.4088,34.2574 C27.4968,34.3204 27.5178,34.4444 27.4548,34.5334 C27.3898,34.6244 27.3188,34.7104 27.2478,34.7964 L27.1488,34.9164 C27.1098,34.9654 27.0528,34.9904 26.9948,34.9904" id="Fill-77" fill="#000000"></path>
                    <path d="M26.3957,37.2727 C26.3647,37.2727 26.3337,37.2657 26.3057,37.2507 C26.2107,37.1997 26.1717,37.0877 26.2197,36.9927 C26.2737,36.8827 26.3857,36.7977 26.4847,36.7227 C26.5237,36.6937 26.5607,36.6677 26.5857,36.6417 C26.6637,36.5647 26.7887,36.5647 26.8657,36.6417 C26.9427,36.7187 26.9427,36.8447 26.8647,36.9217 C26.8297,36.9577 26.7777,36.9977 26.7237,37.0387 C26.6767,37.0737 26.5897,37.1397 26.5727,37.1687 C26.5357,37.2347 26.4667,37.2727 26.3957,37.2727" id="Fill-79" fill="#000000"></path>
                    <path d="M24.1115,39.5939 C24.0445,39.5939 23.9785,39.5599 23.9415,39.4969 C23.8595,39.3599 23.7555,39.2349 23.6455,39.1029 L23.9425,38.8419 L23.7905,38.9679 L23.9485,38.8499 C24.0635,38.9879 24.1825,39.1309 24.2805,39.2939 C24.3375,39.3879 24.3065,39.5099 24.2125,39.5659 C24.1805,39.5849 24.1465,39.5939 24.1115,39.5939" id="Fill-81" fill="#000000"></path>
                    <path d="M25.6083,39.8964 C25.4993,39.8964 25.4103,39.8084 25.4103,39.6994 C25.4103,39.4494 25.9153,39.0304 26.0363,38.9704 C26.1343,38.9214 26.2523,38.9604 26.3023,39.0574 C26.3503,39.1554 26.3113,39.2744 26.2133,39.3234 C26.1273,39.3664 25.8523,39.6334 25.8043,39.7294 C25.7893,39.8244 25.7073,39.8964 25.6083,39.8964 L25.6083,39.8964 Z" id="Fill-83" fill="#000000"></path>
                    <path d="M46.8981,46.4396 C46.5261,46.4396 46.0401,46.0436 45.8471,45.8726 C44.9841,45.1056 44.5301,43.7756 44.6911,42.4846 C44.8411,41.2796 45.3291,40.1956 45.8001,39.1476 C46.1131,38.4526 46.4351,37.7336 46.6511,36.9966 C47.2581,34.9116 47.2781,33.0136 46.7091,31.1946 C46.6761,31.0896 46.7351,30.9796 46.8381,30.9466 C46.9441,30.9146 47.0531,30.9726 47.0861,31.0766 C47.6791,32.9726 47.6611,34.9456 47.0301,37.1076 C46.8071,37.8716 46.4791,38.6016 46.1611,39.3096 C45.7021,40.3316 45.2271,41.3876 45.0841,42.5336 C44.9381,43.6996 45.3411,44.8936 46.1101,45.5776 C46.4151,45.8476 46.7461,46.0436 46.8981,46.0436 C47.0071,46.0436 47.0951,46.1326 47.0951,46.2426 C47.0951,46.3506 47.0071,46.4396 46.8981,46.4396" id="Fill-85" fill="#000000"></path>
                    <path d="M0.5676,7.3088 C0.2366,6.7348 -0.0704,5.6298 1.1286,3.8088 C2.3266,1.9878 4.6566,1.5598 6.5366,1.8978 C7.9766,2.1568 8.7676,2.8308 9.2446,4.1268 C9.7026,5.3728 9.5896,6.7208 9.4156,7.4978 C9.2416,8.2748 8.4896,9.3878 8.0846,10.0178 C7.7236,10.5778 7.2606,11.3348 7.0446,12.3628 C6.8286,13.3888 6.9046,14.1538 6.5506,14.9698 C6.1976,15.7878 4.6296,15.7438 4.3206,14.8368 C4.0116,13.9328 4.0386,12.2398 4.5866,11.0258 C5.0346,10.0318 6.0786,8.2978 6.3236,7.4288 C6.5696,6.5598 6.9246,5.2378 5.6126,4.8698 C4.3006,4.4998 3.1726,5.2338 2.8856,6.4928 C2.4576,8.3698 0.8996,7.8828 0.5676,7.3088" id="Fill-87" fill="#FFFFFF"></path>
                    <g id="Group-91" transform="translate(0.000000, 1.338100)">
                        <mask id="mask-2" fill="white">
                            <use xlink:href="#path-1"></use>
                        </mask>
                        <g id="Clip-90"></g>
                        <path d="M4.9455,3.1631 C5.1885,3.1631 5.4375,3.1971 5.6865,3.2671 C6.1295,3.3921 6.4495,3.6251 6.6375,3.9621 C7.0185,4.6411 6.7585,5.5591 6.5875,6.1651 C6.4255,6.7361 5.9605,7.6171 5.5095,8.4701 C5.2475,8.9661 5.0005,9.4351 4.8355,9.8001 C4.3115,10.9601 4.2955,12.5771 4.5805,13.4111 C4.7065,13.7801 5.1225,13.9261 5.4415,13.9381 C5.7715,13.9511 6.1685,13.8291 6.2995,13.5231 C6.5025,13.0571 6.5525,12.6011 6.6125,12.0751 C6.6515,11.7301 6.6915,11.3741 6.7765,10.9681 C7.0155,9.8321 7.5615,8.9861 7.8545,8.5311 L7.9635,8.3631 C8.3505,7.7661 8.9995,6.7651 9.1485,6.1011 C9.2395,5.6951 9.4955,4.2661 8.9875,2.8841 C8.5385,1.6631 7.8145,1.0671 6.4875,0.8291 C4.8585,0.5351 2.5355,0.8291 1.3565,2.6211 C0.5065,3.9131 0.3205,4.9941 0.8045,5.8341 C0.9145,6.0241 1.3025,6.2671 1.7235,6.2021 C2.1585,6.1371 2.4685,5.7531 2.6195,5.0931 C2.7785,4.3921 3.1795,3.8211 3.7465,3.4841 C4.1045,3.2711 4.5155,3.1631 4.9455,3.1631 M5.4945,14.4871 C5.4695,14.4871 5.4455,14.4861 5.4195,14.4851 C4.7725,14.4601 4.2395,14.1071 4.0625,13.5881 C3.7375,12.6351 3.7505,10.8741 4.3365,9.5751 C4.5085,9.1941 4.7595,8.7191 5.0265,8.2141 C5.4425,7.4261 5.9155,6.5321 6.0605,6.0171 C6.2085,5.4961 6.4305,4.7101 6.1605,4.2291 C6.0445,4.0211 5.8415,3.8791 5.5385,3.7941 C4.9865,3.6391 4.4635,3.6941 4.0265,3.9551 C3.5895,4.2151 3.2785,4.6621 3.1525,5.2151 C2.8805,6.4091 2.1915,6.6851 1.8045,6.7431 C1.1695,6.8411 0.5545,6.4961 0.3305,6.1071 C-0.0795,5.3961 -0.3135,4.1631 0.8995,2.3201 C2.2245,0.3061 4.7895,-0.0329 6.5845,0.2901 C8.1105,0.5641 8.9825,1.2841 9.5015,2.6941 C10.0605,4.2181 9.7815,5.7771 9.6825,6.2201 C9.5125,6.9791 8.8565,7.9911 8.4225,8.6611 L8.3145,8.8271 C7.9355,9.4161 7.5135,10.1241 7.3115,11.0811 C7.2325,11.4611 7.1935,11.8041 7.1555,12.1361 C7.0945,12.6831 7.0365,13.1991 6.8025,13.7411 C6.6035,14.1991 6.0955,14.4871 5.4945,14.4871" id="Fill-89" fill="#000000" mask="url(#mask-2)"></path>
                    </g>
                    <path d="M4.3078,18.2541 C4.2908,17.4901 4.8858,16.8581 5.6348,16.8421 C6.3838,16.8261 7.0038,17.4331 7.0198,18.1961 C7.0368,18.9611 6.4428,19.5931 5.6938,19.6081 C4.9448,19.6251 4.3238,19.0191 4.3078,18.2541" id="Fill-92" fill="#FFFFFF"></path>
                    <path d="M5.6638,17.1154 L5.6408,17.1154 C5.0428,17.1284 4.5678,17.6364 4.5808,18.2484 C4.5878,18.5464 4.7068,18.8224 4.9168,19.0284 C5.1258,19.2324 5.3928,19.3484 5.6878,19.3354 C6.2848,19.3224 6.7598,18.8134 6.7468,18.2024 C6.7408,17.9044 6.6218,17.6284 6.4108,17.4224 C6.2078,17.2234 5.9428,17.1154 5.6638,17.1154 M5.6638,19.8834 C5.2408,19.8834 4.8408,19.7194 4.5348,19.4204 C4.2218,19.1134 4.0438,18.7014 4.0338,18.2604 C4.0148,17.3464 4.7298,16.5884 5.6288,16.5684 C6.0558,16.5604 6.4788,16.7234 6.7938,17.0314 C7.1068,17.3374 7.2848,17.7494 7.2938,18.1904 C7.3138,19.1044 6.5978,19.8634 5.6998,19.8824 C5.6878,19.8834 5.6758,19.8834 5.6638,19.8834" id="Fill-94" fill="#000000"></path>
                    <path d="M31.196,14.4152 C31.148,14.4152 31.099,14.3972 31.061,14.3612 C30.999,14.3042 30.93,14.2522 30.863,14.2002 C30.784,14.1402 30.705,14.0802 30.633,14.0122 C30.553,13.9372 30.549,13.8112 30.624,13.7322 C30.698,13.6522 30.823,13.6482 30.904,13.7242 C30.966,13.7822 31.034,13.8342 31.102,13.8862 C31.181,13.9452 31.259,14.0062 31.331,14.0732 C31.411,14.1482 31.415,14.2732 31.34,14.3532 C31.301,14.3942 31.249,14.4152 31.196,14.4152" id="Fill-96" fill="#000000"></path>
                </g>
                <path d="M17.182,58.574 L17.182,48.784 L20.24,48.784 L20.24,46.628 L17.182,46.628 L17.182,39.192 L14.718,39.192 L14.718,58.574 L17.182,58.574 Z M11.99,53.712 L13.222,51.82 C12.254,51.38 11.4583333,50.8776667 10.835,50.313 C10.2116667,49.7483333 9.71666667,49.1543333 9.35,48.531 C8.98333333,47.9076667 8.73033333,47.277 8.591,46.639 C8.45166667,46.001 8.382,45.3813333 8.382,44.78 L8.382,44.78 L8.382,42.03 L12.716,42.03 L12.716,39.874 L1.54,39.874 L1.54,42.03 L5.874,42.03 L5.874,44.758 C5.874,45.7113333 5.786,46.5913333 5.61,47.398 C5.434,48.2046667 5.15533333,48.905 4.774,49.499 C4.39266667,50.093 3.89033333,50.5586667 3.267,50.896 C2.64366667,51.2333333 1.88466667,51.402 0.99,51.402 L0.99,51.402 L0.99,53.646 C1.76733333,53.6313333 2.508,53.5103333 3.212,53.283 C3.916,53.0556667 4.55033333,52.744 5.115,52.348 C5.67966667,51.952 6.15633333,51.4936667 6.545,50.973 C6.93366667,50.4523333 7.20866667,49.8986667 7.37,49.312 C7.722,50.2066667 8.29766667,51.0426667 9.097,51.82 C9.89633333,52.5973333 10.8606667,53.228 11.99,53.712 L11.99,53.712 Z M36.214828,48.63 L37.094828,46.628 C36.258828,46.4813333 35.455828,46.2503333 34.685828,45.935 C33.915828,45.6196667 33.2411613,45.2493333 32.661828,44.824 C32.0824947,44.3986667 31.6204947,43.933 31.275828,43.427 C30.9311613,42.921 30.758828,42.3893333 30.758828,41.832 L30.758828,41.832 L30.758828,41.546 L36.126828,41.546 L36.126828,39.39 L22.882828,39.39 L22.882828,41.546 L28.250828,41.546 L28.250828,41.832 C28.250828,42.624 28.0564947,43.306 27.667828,43.878 C27.2791613,44.45 26.787828,44.9193333 26.193828,45.286 C25.599828,45.6526667 24.9434947,45.924 24.224828,46.1 C23.5061613,46.276 22.8094947,46.364 22.134828,46.364 L22.134828,46.364 L22.134828,48.586 C22.926828,48.5566667 23.7004947,48.465 24.455828,48.311 C25.2111613,48.157 25.9151613,47.937 26.567828,47.651 C27.2204947,47.365 27.810828,47.0093333 28.338828,46.584 C28.866828,46.1586667 29.2994947,45.6526667 29.636828,45.066 C30.2821613,46.034 31.1841613,46.8076667 32.342828,47.387 C33.5014947,47.9663333 34.7921613,48.3806667 36.214828,48.63 L36.214828,48.63 Z M30.736828,59.014 L30.736828,52.722 L38.656828,52.722 L38.656828,50.566 L20.352828,50.566 L20.352828,52.722 L28.272828,52.722 L28.272828,59.014 L30.736828,59.014 Z M56.856484,43.702 L56.856484,41.546 L52.126484,41.546 L52.126484,38.62 L49.574484,38.62 L49.574484,41.546 L44.844484,41.546 L44.844484,43.702 L56.856484,43.702 Z M61.256484,58.574 L61.256484,49.202 L64.094484,49.202 L64.094484,47.046 L61.256484,47.046 L61.256484,39.192 L58.792484,39.192 L58.792484,58.574 L61.256484,58.574 Z M50.850484,54.856 C51.642484,54.856 52.3721507,54.7203333 53.039484,54.449 C53.7068173,54.1776667 54.282484,53.811 54.766484,53.349 C55.250484,52.887 55.6318173,52.3443333 55.910484,51.721 C56.1891507,51.0976667 56.328484,50.434 56.328484,49.73 C56.328484,49.026 56.1891507,48.3623333 55.910484,47.739 C55.6318173,47.1156667 55.250484,46.573 54.766484,46.111 C54.282484,45.649 53.7068173,45.2823333 53.039484,45.011 C52.3721507,44.7396667 51.642484,44.604 50.850484,44.604 C50.058484,44.604 49.3288173,44.7396667 48.661484,45.011 C47.9941507,45.2823333 47.418484,45.649 46.934484,46.111 C46.450484,46.573 46.0691507,47.1156667 45.790484,47.739 C45.5118173,48.3623333 45.372484,49.026 45.372484,49.73 C45.372484,50.434 45.5081507,51.0976667 45.779484,51.721 C46.0508173,52.3443333 46.4321507,52.887 46.923484,53.349 C47.4148173,53.811 47.9941507,54.1776667 48.661484,54.449 C49.3288173,54.7203333 50.058484,54.856 50.850484,54.856 Z M50.850484,52.766 C49.9558173,52.766 49.2298173,52.4873333 48.672484,51.93 C48.1151507,51.3726667 47.836484,50.6393333 47.836484,49.73 C47.836484,48.8206667 48.1151507,48.0873333 48.672484,47.53 C49.2298173,46.9726667 49.9558173,46.694 50.850484,46.694 C51.7451507,46.694 52.4711507,46.9726667 53.028484,47.53 C53.5858173,48.0873333 53.864484,48.8206667 53.864484,49.73 C53.864484,50.6393333 53.5858173,51.3726667 53.028484,51.93 C52.4711507,52.4873333 51.7451507,52.766 50.850484,52.766 Z M73.799312,47.398 C75.2659787,47.398 76.5749787,47.3356667 77.726312,47.211 C78.8776453,47.0863333 79.7686453,46.9213333 80.399312,46.716 L80.399312,46.716 L80.047312,44.714 C79.3579787,44.9193333 78.5439787,45.0586667 77.605312,45.132 C76.6666453,45.2053333 75.5886453,45.242 74.371312,45.242 L74.371312,45.242 L69.223312,45.242 L69.223312,39.192 L66.759312,39.192 L66.759312,47.398 L73.799312,47.398 Z M82.511312,51.446 L82.511312,49.29 L64.207312,49.29 L64.207312,51.446 L82.511312,51.446 Z M80.355312,59.52 L80.355312,57.364 L69.179312,57.364 L69.179312,52.964 L66.715312,52.964 L66.715312,59.52 L80.355312,59.52 Z M105.924968,49.686 L105.924968,39.192 L103.460968,39.192 L103.460968,49.686 L105.924968,49.686 Z M99.940968,49.4 L100.996968,47.508 C100.336968,47.3173333 99.7136347,47.057 99.126968,46.727 C98.5403013,46.397 98.026968,46.0156667 97.586968,45.583 C97.146968,45.1503333 96.7986347,44.681 96.541968,44.175 C96.2853013,43.669 96.156968,43.1446667 96.156968,42.602 L96.156968,42.602 L96.156968,41.612 L100.424968,41.612 L100.424968,39.456 L89.490968,39.456 L89.490968,41.612 L93.648968,41.612 L93.648968,42.602 C93.5756347,44.054 93.131968,45.198 92.317968,46.034 C91.503968,46.87 90.414968,47.288 89.050968,47.288 L89.050968,47.288 L89.050968,49.4 C90.4736347,49.4 91.7093013,49.1103333 92.757968,48.531 C93.8066347,47.9516667 94.572968,47.0753333 95.056968,45.902 C95.496968,46.694 96.1496347,47.3906667 97.014968,47.992 C97.8803013,48.5933333 98.8556347,49.0626667 99.940968,49.4 L99.940968,49.4 Z M106.188968,59.96 L106.188968,57.826 L95.562968,57.826 L95.562968,56.352 L105.836968,56.352 L105.836968,50.676 L93.098968,50.676 L93.098968,52.81 L103.372968,52.81 L103.372968,54.306 L93.098968,54.306 L93.098968,59.96 L106.188968,59.96 Z M116.861796,47.728 C117.419129,47.728 118.005796,47.7133333 118.621796,47.684 C119.237796,47.6546667 119.850129,47.6033333 120.458796,47.53 C121.067463,47.4566667 121.661463,47.354 122.240796,47.222 C122.820129,47.09 123.351796,46.914 123.835796,46.694 L123.835796,46.694 L123.835796,39.434 L109.293796,39.434 L109.293796,41.59 L110.789796,41.59 L110.789796,47.728 L116.861796,47.728 Z M117.191796,45.572 L113.253796,45.572 L113.253796,41.59 L121.371796,41.59 L121.371796,45.154 C120.711796,45.3593333 120.055463,45.4803333 119.402796,45.517 C118.750129,45.5536667 118.013129,45.572 117.191796,45.572 L117.191796,45.572 Z M118.907796,55.494 L118.907796,51.578 L126.365796,51.578 L126.365796,49.422 L108.061796,49.422 L108.061796,51.578 L116.443796,51.578 L116.443796,55.494 L118.907796,55.494 Z M124.319796,59.52 L124.319796,57.364 L113.011796,57.364 L113.011796,53.272 L110.547796,53.272 L110.547796,59.52 L124.319796,59.52 Z" id="" fill="#0B0B0B" fill-rule="nonzero"></path>
            </g>
        </g>
    </g>
</svg>