<?xml version="1.0" encoding="UTF-8"?>
<svg width="302px" height="108px" viewBox="0 0 302 108" version="1.1" xmlns="http://www.w3.org/2000/svg" xmlns:xlink="http://www.w3.org/1999/xlink">
    <title>card-02-mobile</title>
    <defs>
        <polygon id="path-1" points="0.2901 0.366807925 53.5735101 0.366807925 53.5735101 66.997 0.2901 66.997"></polygon>
        <polygon id="path-3" points="0.8907 0.2468 27.722707 0.2468 27.722707 65.997 0.8907 65.997"></polygon>
        <polygon id="path-5" points="0.881937122 0.766196224 41.8492551 0.766196224 41.8492551 68.997 0.881937122 68.997"></polygon>
        <polygon id="path-7" points="0.692420993 0.314135866 41.4022006 0.314135866 41.4022006 61.997 0.692420993 61.997"></polygon>
        <polygon id="path-9" points="0.0773562237 0.342582289 3.5738046 0.342582289 3.5738046 39.997 0.0773562237 39.997"></polygon>
        <polygon id="path-11" points="0.325087884 0.888992318 1.4915 0.888992318 1.4915 2.997 0.325087884 2.997"></polygon>
        <polygon id="path-13" points="0.0989713779 0.0445 1.09897138 0.0445 1.09897138 16.997 0.0989713779 16.997"></polygon>
        <polygon id="path-15" points="0.622436055 0.777132568 2.84668067 0.777132568 2.84668067 12.997 0.622436055 12.997"></polygon>
        <polygon id="path-17" points="0.6233 0.249 1.6233 0.249 1.6233 9.6237 0.6233 9.6237"></polygon>
        <polygon id="path-19" points="0.922595827 0.249 1.92259583 0.249 1.92259583 7.6389 0.922595827 7.6389"></polygon>
        <polygon id="path-21" points="0.551604127 0.249 1.55160413 0.249 1.55160413 6.3166 0.551604127 6.3166"></polygon>
        <polygon id="path-23" points="0.3387 0.249 1.3387 0.249 1.3387 7.5021 0.3387 7.5021"></polygon>
        <polygon id="path-25" points="0.4105 0.249 1.4105 0.249 1.4105 11.3102 0.4105 11.3102"></polygon>
        <polygon id="path-27" points="0.452889582 0.958250991 39.0106146 0.958250991 39.0106146 61.997 0.452889582 61.997"></polygon>
    </defs>
    <g id="Page-1" stroke="none" stroke-width="1" fill="none" fill-rule="evenodd">
        <g id="Android" transform="translate(-32.000000, -310.000000)">
            <g id="card-02-mobile" transform="translate(32.000000, 310.000000)">
                <rect id="guide-box" x="0" y="0" width="302" height="108"></rect>
                <path d="M10.01,43.786 C10.8606667,43.786 11.638,43.654 12.342,43.39 C13.046,43.126 13.651,42.7666667 14.157,42.312 C14.663,41.8573333 15.0553333,41.322 15.334,40.706 C15.6126667,40.09 15.752,39.4226667 15.752,38.704 C15.752,38.1466667 15.6603333,37.615 15.477,37.109 C15.2936667,36.603 15.0333333,36.1373333 14.696,35.712 L14.696,35.712 L17.446,35.712 L17.446,33.578 L11.286,33.578 L11.286,31.18 L8.734,31.18 L8.734,33.578 L2.574,33.578 L2.574,35.712 L5.324,35.712 C4.62,36.592 4.268,37.5893333 4.268,38.704 C4.268,39.4226667 4.40733333,40.09 4.686,40.706 C4.96466667,41.322 5.357,41.8573333 5.863,42.312 C6.369,42.7666667 6.974,43.126 7.678,43.39 C8.382,43.654 9.15933333,43.786 10.01,43.786 Z M10.01,41.652 C8.96866667,41.652 8.162,41.3806667 7.59,40.838 C7.018,40.2953333 6.732,39.584 6.732,38.704 C6.732,37.824 7.018,37.1126667 7.59,36.57 C8.162,36.0273333 8.96866667,35.756 10.01,35.756 C11.0513333,35.756 11.858,36.0273333 12.43,36.57 C13.002,37.1126667 13.288,37.824 13.288,38.704 C13.288,39.584 13.002,40.2953333 12.43,40.838 C11.858,41.3806667 11.0513333,41.652 10.01,41.652 Z M7.722,52.014 L7.722,47.372 L12.518,47.372 L12.518,52.014 L14.982,52.014 L14.982,47.372 L19.272,47.372 L19.272,45.216 L0.968,45.216 L0.968,47.372 L5.258,47.372 L5.258,52.014 L7.722,52.014 Z M38.348828,51.574 L38.348828,32.192 L35.884828,32.192 L35.884828,38.902 L33.640828,38.902 L33.640828,32.192 L31.220828,32.192 L31.220828,51.2 L33.640828,51.2 L33.640828,41.058 L35.884828,41.058 L35.884828,51.574 L38.348828,51.574 Z M24.378828,46.8 C25.566828,46.8 26.6741613,46.7413333 27.700828,46.624 C28.7274947,46.5066667 29.592828,46.3013333 30.296828,46.008 L30.296828,46.008 L29.878828,44.094 C29.3214947,44.2993333 28.624828,44.4423333 27.788828,44.523 C26.952828,44.6036667 26.028828,44.644 25.016828,44.644 L25.016828,44.644 L24.268828,44.644 L24.268828,35.03 L29.284828,35.03 L29.284828,32.874 L19.956828,32.874 L19.956828,35.03 L21.782828,35.03 L21.782828,46.8 L24.378828,46.8 Z M58.041656,45.04 L58.041656,42.884 L50.121656,42.884 L50.121656,40.816 L56.149656,40.816 L56.149656,38.682 L53.685656,38.682 L53.685656,34.546 L55.731656,34.546 L55.731656,32.412 L42.091656,32.412 L42.091656,34.546 L44.159656,34.546 L44.159656,38.682 L41.695656,38.682 L41.695656,40.816 L47.657656,40.816 L47.657656,42.884 L39.737656,42.884 L39.737656,45.04 L58.041656,45.04 Z M51.265656,38.682 L46.579656,38.682 L46.579656,34.546 L51.265656,34.546 L51.265656,38.682 Z M55.841656,52.52 L55.841656,50.364 L44.687656,50.364 L44.687656,46.492 L42.223656,46.492 L42.223656,52.52 L55.841656,52.52 Z M65.458484,45.832 C66.2651507,45.832 67.031484,45.689 67.757484,45.403 C68.483484,45.117 69.1178173,44.721 69.660484,44.215 C70.2031507,43.709 70.6358173,43.104 70.958484,42.4 C71.2811507,41.696 71.442484,40.9333333 71.442484,40.112 C71.442484,39.3933333 71.321484,38.7223333 71.079484,38.099 C70.837484,37.4756667 70.5001507,36.922 70.067484,36.438 C69.6348173,35.954 69.1288173,35.547 68.549484,35.217 C67.9701507,34.887 67.350484,34.656 66.690484,34.524 L66.690484,34.524 L66.690484,32.082 L64.182484,32.082 L64.182484,34.524 C63.522484,34.656 62.9028173,34.8906667 62.323484,35.228 C61.7441507,35.5653333 61.245484,35.976 60.827484,36.46 C60.409484,36.944 60.079484,37.494 59.837484,38.11 C59.595484,38.726 59.474484,39.3933333 59.474484,40.112 C59.474484,40.9333333 59.6358173,41.696 59.958484,42.4 C60.2811507,43.104 60.7138173,43.709 61.256484,44.215 C61.7991507,44.721 62.433484,45.117 63.159484,45.403 C63.885484,45.689 64.6518173,45.832 65.458484,45.832 Z M76.722484,51.574 L76.722484,32.192 L74.258484,32.192 L74.258484,51.574 L76.722484,51.574 Z M65.458484,43.698 C64.9891507,43.698 64.5418173,43.6136667 64.116484,43.445 C63.6911507,43.2763333 63.3171507,43.038 62.994484,42.73 C62.6718173,42.422 62.4188173,42.048 62.235484,41.608 C62.0521507,41.168 61.960484,40.6693333 61.960484,40.112 C61.960484,39.5693333 62.0521507,39.0743333 62.235484,38.627 C62.4188173,38.1796667 62.6718173,37.802 62.994484,37.494 C63.3171507,37.186 63.6911507,36.9476667 64.116484,36.779 C64.5418173,36.6103333 64.9891507,36.526 65.458484,36.526 C65.9278173,36.526 66.3751507,36.6103333 66.800484,36.779 C67.2258173,36.9476667 67.5961507,37.186 67.911484,37.494 C68.2268173,37.802 68.4798173,38.1796667 68.670484,38.627 C68.8611507,39.0743333 68.956484,39.5693333 68.956484,40.112 C68.956484,40.6693333 68.8611507,41.168 68.670484,41.608 C68.4798173,42.048 68.2268173,42.422 67.911484,42.73 C67.5961507,43.038 67.2258173,43.2763333 66.800484,43.445 C66.3751507,43.6136667 65.9278173,43.698 65.458484,43.698 Z M17.292,77.574 L17.292,67.344 L20.24,67.344 L20.24,65.188 L17.292,65.188 L17.292,58.192 L14.828,58.192 L14.828,77.574 L17.292,77.574 Z M13.398,72.932 L13.398,70.776 L11.198,70.776 L11.198,61.03 L13.112,61.03 L13.112,58.874 L1.122,58.874 L1.122,61.03 L3.146,61.03 L3.146,70.776 L0.924,70.776 L0.924,72.932 L13.398,72.932 Z M8.778,70.776 L5.566,70.776 L5.566,61.03 L8.778,61.03 L8.778,70.776 Z M36.258828,67.058 L36.984828,64.99 C36.148828,64.8726667 35.3531613,64.671 34.597828,64.385 C33.8424947,64.099 33.178828,63.769 32.606828,63.395 C32.034828,63.021 31.583828,62.6213333 31.253828,62.196 C30.923828,61.7706667 30.758828,61.3673333 30.758828,60.986 L30.758828,60.986 L30.758828,58.192 L26.754828,58.192 L26.754828,60.348 L28.250828,60.348 L28.250828,61.008 C28.250828,61.404 28.1554947,61.7816667 27.964828,62.141 C27.7741613,62.5003333 27.5211613,62.8266667 27.205828,63.12 C26.8904947,63.4133333 26.5311613,63.6663333 26.127828,63.879 C25.7244947,64.0916667 25.3174947,64.2566667 24.906828,64.374 C24.3201613,64.5353333 23.7481613,64.6453333 23.190828,64.704 C22.6334947,64.7626667 22.2301613,64.792 21.980828,64.792 L21.980828,64.792 L21.980828,66.992 C22.6261613,66.9626667 23.223828,66.9113333 23.773828,66.838 C24.323828,66.7646667 24.8774947,66.6473333 25.434828,66.486 C26.2121613,66.2513333 26.963828,65.936 27.689828,65.54 C28.415828,65.144 29.0574947,64.55 29.614828,63.758 C29.8641613,64.1686667 30.230828,64.5536667 30.714828,64.913 C31.198828,65.2723333 31.7414947,65.595 32.342828,65.881 C32.9441613,66.167 33.585828,66.409 34.267828,66.607 C34.949828,66.805 35.6134947,66.9553333 36.258828,67.058 L36.258828,67.058 Z M38.656828,71.172 L38.656828,69.016 L30.736828,69.016 L30.736828,66.2 L28.272828,66.2 L28.272828,69.016 L20.352828,69.016 L20.352828,71.172 L38.656828,71.172 Z M36.610828,78.52 L36.610828,76.364 L25.302828,76.364 L25.302828,72.712 L22.838828,72.712 L22.838828,78.52 L36.610828,78.52 Z M57.249656,73.284 L57.249656,58.192 L54.785656,58.192 L54.785656,73.284 L57.249656,73.284 Z M47.613656,71.128 C48.493656,71.128 49.4579893,71.0913333 50.506656,71.018 C51.5553227,70.9446667 52.6223227,70.7613333 53.707656,70.468 L53.707656,70.468 L53.707656,68.4 C52.915656,68.576 52.068656,68.708 51.166656,68.796 C50.264656,68.884 49.3589893,68.9426667 48.449656,68.972 L48.449656,68.972 L48.449656,66.904 C49.2123227,66.86 49.945656,66.7903333 50.649656,66.695 C51.353656,66.5996667 51.9623227,66.4566667 52.475656,66.266 L52.475656,66.266 L52.079656,64.264 C51.287656,64.484 50.3783227,64.627 49.351656,64.693 C48.3249893,64.759 47.305656,64.792 46.293656,64.792 L46.293656,64.792 L44.467656,64.792 L44.467656,60.832 L51.925656,60.832 L51.925656,58.676 L40.507656,58.676 L40.507656,60.832 L42.003656,60.832 L42.003656,66.948 L45.985656,66.948 L45.985656,68.972 L40.133656,68.972 L40.133656,71.128 L47.613656,71.128 Z M57.645656,78.52 L57.645656,76.364 L46.381656,76.364 L46.381656,72.47 L43.917656,72.47 L43.917656,78.52 L57.645656,78.52 Z M81.345312,69.236 L81.345312,58.192 L78.881312,58.192 L78.881312,60.414 L75.163312,60.414 L75.163312,62.57 L78.881312,62.57 L78.881312,64.99 L74.613312,64.99 L74.613312,67.146 L78.881312,67.146 L78.881312,69.236 L81.345312,69.236 Z M65.725312,69.566 C66.8546453,69.3166667 67.947312,68.9243333 69.003312,68.389 C70.059312,67.8536667 70.994312,67.19 71.808312,66.398 C72.622312,65.606 73.271312,64.704 73.755312,63.692 C74.239312,62.68 74.481312,61.58 74.481312,60.392 L74.481312,60.392 L74.481312,58.566 L65.439312,58.566 L65.439312,60.722 L72.017312,60.722 C72.017312,61.69 71.7899787,62.559 71.335312,63.329 C70.8806453,64.099 70.2976453,64.7736667 69.586312,65.353 C68.8749787,65.9323333 68.0866453,66.4163333 67.221312,66.805 C66.3559787,67.1936667 65.5126453,67.4906667 64.691312,67.696 L64.691312,67.696 L65.725312,69.566 Z M75.075312,79.18 C75.823312,79.18 76.5456453,79.0626667 77.242312,78.828 C77.9389787,78.5933333 78.551312,78.256 79.079312,77.816 C79.607312,77.376 80.0289787,76.8443333 80.344312,76.221 C80.6596453,75.5976667 80.817312,74.8973333 80.817312,74.12 C80.817312,73.3426667 80.6596453,72.6423333 80.344312,72.019 C80.0289787,71.3956667 79.607312,70.864 79.079312,70.424 C78.551312,69.984 77.9389787,69.6466667 77.242312,69.412 C76.5456453,69.1773333 75.823312,69.06 75.075312,69.06 C74.327312,69.06 73.6049787,69.1773333 72.908312,69.412 C72.2116453,69.6466667 71.599312,69.984 71.071312,70.424 C70.543312,70.864 70.1216453,71.3956667 69.806312,72.019 C69.4909787,72.6423333 69.333312,73.3426667 69.333312,74.12 C69.333312,74.8973333 69.4909787,75.5976667 69.806312,76.221 C70.1216453,76.8443333 70.543312,77.376 71.071312,77.816 C71.599312,78.256 72.2116453,78.5933333 72.908312,78.828 C73.6049787,79.0626667 74.327312,79.18 75.075312,79.18 Z M75.075312,77.09 C74.6059787,77.09 74.1696453,77.024 73.766312,76.892 C73.3629787,76.76 73.0146453,76.5656667 72.721312,76.309 C72.4279787,76.0523333 72.1969787,75.7406667 72.028312,75.374 C71.8596453,75.0073333 71.775312,74.5893333 71.775312,74.12 C71.775312,73.6506667 71.8596453,73.2326667 72.028312,72.866 C72.1969787,72.4993333 72.4279787,72.1876667 72.721312,71.931 C73.0146453,71.6743333 73.3629787,71.48 73.766312,71.348 C74.1696453,71.216 74.6059787,71.15 75.075312,71.15 C75.5446453,71.15 75.9809787,71.216 76.384312,71.348 C76.7876453,71.48 77.1359787,71.6743333 77.429312,71.931 C77.7226453,72.1876667 77.9536453,72.4993333 78.122312,72.866 C78.2909787,73.2326667 78.375312,73.6506667 78.375312,74.12 C78.375312,74.5893333 78.2909787,75.0073333 78.122312,75.374 C77.9536453,75.7406667 77.7226453,76.0523333 77.429312,76.309 C77.1359787,76.5656667 76.7876453,76.76 76.384312,76.892 C75.9809787,77.024 75.5446453,77.09 75.075312,77.09 Z M92.76614,69.302 C93.5728067,69.302 94.33914,69.1846667 95.06514,68.95 C95.79114,68.7153333 96.4254733,68.378 96.96814,67.938 C97.5108067,67.498 97.9398067,66.9553333 98.25514,66.31 C98.5704733,65.6646667 98.72814,64.9313333 98.72814,64.11 C98.72814,63.3913333 98.60714,62.7423333 98.36514,62.163 C98.12314,61.5836667 97.7894733,61.0776667 97.36414,60.645 C96.9388067,60.2123333 96.4364733,59.8566667 95.85714,59.578 C95.2778067,59.2993333 94.65814,59.1086667 93.99814,59.006 L93.99814,59.006 L93.99814,57.092 L91.49014,57.092 L91.49014,59.006 C90.83014,59.1233333 90.21414,59.3176667 89.64214,59.589 C89.07014,59.8603333 88.57514,60.2123333 88.15714,60.645 C87.73914,61.0776667 87.40914,61.5836667 87.16714,62.163 C86.92514,62.7423333 86.80414,63.3913333 86.80414,64.11 C86.80414,64.9313333 86.9618067,65.6646667 87.27714,66.31 C87.5924733,66.9553333 88.0214733,67.498 88.56414,67.938 C89.1068067,68.378 89.74114,68.7153333 90.46714,68.95 C91.19314,69.1846667 91.9594733,69.302 92.76614,69.302 Z M92.76614,67.146 C92.28214,67.146 91.8274733,67.08 91.40214,66.948 C90.9768067,66.816 90.6064733,66.618 90.29114,66.354 C89.9758067,66.09 89.73014,65.771 89.55414,65.397 C89.37814,65.023 89.29014,64.594 89.29014,64.11 C89.29014,63.626 89.37814,63.1933333 89.55414,62.812 C89.73014,62.4306667 89.9758067,62.1116667 90.29114,61.855 C90.6064733,61.5983333 90.9768067,61.4003333 91.40214,61.261 C91.8274733,61.1216667 92.28214,61.052 92.76614,61.052 C93.25014,61.052 93.7048067,61.1216667 94.13014,61.261 C94.5554733,61.4003333 94.9258067,61.5983333 95.24114,61.855 C95.5564733,62.1116667 95.80214,62.4306667 95.97814,62.812 C96.15414,63.1933333 96.24214,63.626 96.24214,64.11 C96.24214,64.594 96.15414,65.023 95.97814,65.397 C95.80214,65.771 95.5564733,66.09 95.24114,66.354 C94.9258067,66.618 94.5554733,66.816 94.13014,66.948 C93.7048067,67.08 93.25014,67.146 92.76614,67.146 Z M93.97614,78.014 L93.97614,72.888 L101.89614,72.888 L101.89614,70.732 L83.59214,70.732 L83.59214,72.888 L91.51214,72.888 L91.51214,78.014 L93.97614,78.014 Z" id="휴대폰이파손된경우" fill="#0B0B0B" fill-rule="nonzero"></path>
                <g id="Group-165" transform="translate(193.000000, 2.000000)">
                    <path d="M47.4038,64.9622 C47.5778,65.4392 48.2588,63.6322 48.4958,63.2142 C49.0518,62.2352 49.5478,61.1672 49.9378,60.1122 C50.5338,58.5042 50.9628,56.7402 51.2048,55.0442 C51.4558,53.2912 51.5198,51.5312 52.2978,49.9762 C53.1098,48.3512 54.9998,47.0542 56.2738,45.7812 C59.0998,42.9542 60.6568,38.8152 61.7788,35.0762 C62.1868,33.7172 62.7908,32.1602 62.6098,30.7072 C61.9528,25.4612 55.1288,20.6152 49.8948,21.4872 C47.2168,21.9342 45.4688,24.0552 42.9468,24.8962 C40.9068,25.5752 38.5778,25.0262 36.6548,25.9882 C35.9758,26.3272 34.9778,27.0172 34.7768,27.8232 C34.3298,29.6092 34.5470218,31.8732 35.3248,33.4292 C35.7948,34.3702 37.2818,34.5222 37.4418,35.6442 C37.7798,38.0092 35.5908,39.8382 35.5908,39.8382 C35.5908,39.8382 35.8738,42.1672 36.2128,43.6942 C36.9518,47.0312 37.8258,48.6372 39.5248,51.6112 C40.9058,54.0282 43.5128,56.0822 45.4878,58.0582 C46.2858,58.8562 47.0118,63.8912 47.4038,64.9622" id="Fill-1" fill="#FFEDDE"></path>
                    <g id="Group-5" transform="translate(54.000000, 36.087000)">
                        <mask id="mask-2" fill="white">
                            <use xlink:href="#path-1"></use>
                        </mask>
                        <g id="Clip-4"></g>
                        <path d="M0.2901,11.3981 C0.2901,11.3981 1.5501,14.3171 1.8841,15.4891 C3.0461,19.5531 3.3131,23.6401 4.0051,27.7841 C4.7241,32.1021 4.6731,36.5241 5.2161,40.8671 C5.5111,43.2311 5.0001,45.7181 5.3371,48.0751 C5.7741,51.1361 5.5191,54.4731 5.5191,57.5841 C5.5191,61.1371 5.3171,85.2161 5.6611,85.1531 C6.8691,84.9321 9.9141,84.5421 13.3801,84.9561 C15.5271,85.2121 17.4171,85.5161 18.8641,85.6561 C20.3111,85.7961 21.9541,85.5761 22.2501,85.3781 C22.5401,85.1851 22.1381,83.6691 22.1081,83.2761 C22.0271,82.2141 21.5521,79.1571 21.4321,76.7791 C21.3061,74.2731 20.7481,67.3301 20.3371,63.2191 C19.7801,57.6531 19.2071,52.5431 19.2071,46.9241 C19.2071,44.5421 19.3721,42.6401 19.3721,40.2581 C19.3721,39.4371 19.6091,38.0561 19.6091,37.2501 C19.6091,37.1241 19.7711,35.2171 19.7711,35.2171 C19.7711,35.2171 20.6171,35.8131 20.9241,36.0431 C22.2381,37.0281 24.5651,37.8121 25.6951,38.2901 C26.8251,38.7671 28.8031,39.4371 30.6721,39.8521 C31.5131,40.0391 33.4601,40.6451 34.3131,40.7521 C38.3361,41.2541 42.0521,42.1881 46.1141,41.6071 C47.3981,41.4241 49.8001,40.6821 50.7741,39.7081 C52.7231,37.7581 54.0621,35.7831 53.4041,33.1491 C52.7721,30.6221 49.2761,25.3251 47.6901,23.3431 C44.9411,19.9061 43.9601,18.9541 40.8461,15.8401 C38.7311,13.7241 35.0781,9.2961 33.1991,6.9481 C32.2051,5.7071 30.6621,3.6591 29.4441,2.1671 C28.8181,1.4001 28.0371,0.6021 27.9621,0.5071 C27.7621,0.2511 27.2181,0.4011 26.8611,0.5201 C26.0871,0.7781 24.5161,1.7451 23.7871,2.2111 C23.0571,2.6761 21.6041,4.2391 20.1801,6.1341 C19.3111,7.2891 18.4041,9.4271 17.8451,10.3211 C17.3411,11.1271 18.8541,12.5641 18.8541,12.5641 C18.8541,12.5641 17.3041,11.6741 17.1331,11.6311 C16.3991,11.4471 15.3021,10.9451 14.5441,10.7861 C12.5781,10.3721 10.5181,9.8131 9.6601,9.5321 C8.9361,9.2941 7.5561,8.9301 6.7971,8.6751 C5.4001,8.2081 3.9591,7.3841 3.9591,7.3841 C3.9591,7.3841 2.5081,9.1331 1.8601,9.8401 C1.4991,10.2341 0.2901,11.3981 0.2901,11.3981" id="Fill-3" fill="#FE7200" mask="url(#mask-2)"></path>
                    </g>
                    <path d="M68.0918,36.9236 C68.0918,36.9236 67.4738,36.0096 66.7118,35.2436 C65.8528,34.3786 64.9228,34.0066 64.1058,33.3576 C61.7908,31.5176 58.6608,27.3256 56.0288,25.8196 C54.3318,24.8486 52.5328,24.7126 50.8578,23.7546 C50.5988,23.6056 49.7258,22.6376 49.9688,22.2506 C50.2208,21.8506 51.5278,22.0946 51.9048,22.1676 C53.2988,22.4326 55.0538,22.9876 56.4718,23.1806 C56.8078,23.2266 58.3988,23.4986 58.5758,23.1606 C58.8448,22.6466 56.3398,21.1796 56.0348,21.0146 C54.4328,20.1406 52.4908,19.9436 51.0098,18.8846 C50.7908,18.7276 49.4038,17.3526 50.0368,16.9506 C50.7428,16.5016 51.4198,16.7616 52.3428,17.0416 C53.2658,17.3206 55.4998,17.3086 56.8628,18.1206 C57.5288,18.5176 58.3528,18.8986 59.0538,19.2326 C59.1898,19.2976 59.8948,19.7406 59.9468,19.4916 C60.0908,18.8086 58.3308,18.1336 57.8878,17.8806 C56.3678,17.0106 54.6978,16.9616 52.9608,16.4526 C52.5948,16.3456 52.0378,16.0526 51.6938,15.9216 C51.1468,15.7136 49.3038,14.7236 50.3818,14.0636 C51.0238,13.6696 52.3458,13.8746 53.4288,13.9836 C54.8238,14.1226 55.9398,14.2486 55.9398,14.2486 C55.9398,14.2486 54.3848,12.7236 54.8328,12.2976 C55.2398,11.9086 56.2758,11.8816 56.7838,11.9786 C58.8918,12.3806 60.6598,12.3296 62.5438,13.4076 C63.9278,14.1986 65.0778,15.8716 66.3678,16.7946 C66.6818,17.0186 67.6188,17.9976 67.9888,18.0856 C67.9888,18.0856 68.0228,17.1446 68.0848,16.9966 C68.3188,16.4386 68.3978,15.6186 69.0698,15.7476 C69.4898,15.8276 69.6648,16.0166 69.8458,16.2476 C70.2998,16.8246 70.7138,18.3986 70.8618,19.1076 C70.9778,19.6636 72.1158,21.4656 72.2628,22.0276 C72.4888,22.8876 72.3568,23.0976 72.5768,24.3466 C72.7158,25.1276 73.4758,26.8556 73.7458,27.8796 C73.9368,28.6026 74.9468,30.5976 74.9468,30.5976 C74.9468,30.5976 74.3888,31.4696 73.9638,32.0376 C72.9258,33.4236 71.5028,34.4786 69.8668,35.1476 C69.2578,35.3966 68.0918,36.9236 68.0918,36.9236" id="Fill-6" fill="#FFEDDE"></path>
                    <g id="Group-10" transform="translate(32.000000, 37.087000)">
                        <mask id="mask-4" fill="white">
                            <use xlink:href="#path-3"></use>
                        </mask>
                        <g id="Clip-9"></g>
                        <path d="M9.3057,84.4548 C9.3277,83.7958 9.1627,76.4338 9.0797,75.4348 C8.7257,71.1918 8.5157,66.9518 8.3977,62.7008 C8.2367,56.9268 7.3177,51.5828 6.5297,45.8858 C5.6457,39.4928 4.4307,31.4788 3.1657,24.5158 C2.3037,19.7748 1.9667,15.0148 1.2917,10.2858 C1.0677,8.7158 0.8907,4.1038 0.8907,4.1038 C0.8907,4.1038 2.7817,0.9558 4.1857,0.3318 C4.3097,0.2768 5.2477,0.2468 5.2477,0.2468 L4.7267,1.3348 L3.5657,2.8748 C3.5657,2.8748 3.7947,4.3808 4.0147,5.6298 C4.4327,7.9958 5.6467,10.5648 6.6017,12.7118 C8.2247,16.3648 10.1387,17.5998 13.0097,20.4698 C13.7267,21.1868 14.2117,22.2868 14.2117,22.2868 C14.2117,22.2868 15.0607,21.3148 15.8887,20.0248 C16.4707,19.1178 17.0417,17.8958 17.2987,17.4168 C18.1097,15.9048 17.9257,12.5968 17.9257,12.5968 C17.9257,12.5968 19.1987,12.2158 20.3107,11.6378 C21.4237,11.0588 22.3767,10.2848 22.3767,10.2848 C22.3767,10.2848 23.8297,14.7968 24.0367,15.6338 C24.7257,18.4258 25.8317,24.1058 25.8317,24.1058 C25.8317,24.1058 25.8677,27.2708 26.3617,31.7188 C26.9007,36.5678 26.4977,41.5048 26.8737,46.3858 C27.0557,48.7578 27.5547,49.1988 27.5547,49.1988 C27.5547,49.1988 27.5037,60.2868 27.5287,62.9438 C27.5517,65.4118 27.6297,74.5058 27.6297,76.3828 C27.6297,76.9558 27.7387,79.5388 27.7207,81.6598 C27.7107,82.7828 27.7777,83.9828 27.5277,84.2328 C27.0217,84.7388 20.8657,84.4988 15.6997,84.0108 C12.2427,83.6838 9.3057,84.4548 9.3057,84.4548" id="Fill-8" fill="#FCF7F4" mask="url(#mask-4)"></path>
                    </g>
                    <path d="M39.9995,81.6531 C39.3155,81.5111 38.7295,82.3391 38.1235,82.6761 C36.7635,83.4321 34.2625,84.5441 33.5185,86.0301 C33.0625,86.9451 33.6365,88.3791 33.8025,89.2711 C34.3675,92.2821 34.6585,95.1861 36.9305,97.4571 C37.3315,97.8591 37.7215,98.6301 38.1805,98.9351 C38.3795,99.0681 39.5115,97.9401 39.8295,97.7411 C41.2255,96.8681 42.4125,95.8611 43.6945,94.8991 C44.2665,94.4701 45.2965,93.9691 45.6275,93.3071 C45.6845,93.1941 43.9895,91.7821 43.8085,91.6021 C42.8895,90.6821 42.0055,89.1321 41.4205,87.9631 C40.7915,86.7051 40.4595,85.4401 40.2275,84.0411 C40.1345,83.4881 40.5415,81.7661 39.9995,81.6531" id="Fill-11" fill="#FCF7F4"></path>
                    <path d="M72.1001,45.5662 C72.1001,45.5662 70.7681,43.9572 69.9501,42.8642 C69.3161,42.0202 67.5311,40.0512 67.3011,38.9012 C67.0621,37.7052 68.4411,36.1062 69.1671,35.2582 C70.4201,33.7962 72.2501,32.0802 74.0351,30.9422 C74.7701,30.4732 75.3481,30.1142 76.1701,29.9082 C77.1251,29.6692 76.7741,30.8152 77.6101,31.9872 C78.4451,33.1602 78.8041,34.1602 79.7601,35.1162 C80.1351,35.4902 80.8791,36.5022 80.8791,36.5022 C80.8791,36.5022 79.2151,37.3232 78.9431,37.5502 C77.8001,38.5032 77.1901,38.7522 76.1341,39.8082 C75.1711,40.7712 74.2031,42.1802 73.4511,43.3092 C73.1061,43.8252 72.1001,45.5662 72.1001,45.5662" id="Fill-13" fill="#FCF7F4"></path>
                    <path d="M50.8667,44.4568 C50.0957,44.3318 49.8187,44.4018 49.0267,44.0618 C48.1617,43.6908 47.4327,43.1958 46.5357,43.6448 C46.1587,43.8328 45.9857,43.9778 46.4247,44.4158 C46.6397,44.6318 48.6767,44.6978 48.9627,44.7338 C49.3827,44.7868 49.6847,44.8148 50.0127,45.1068 C50.1897,45.2648 50.7817,45.1368 51.2267,45.2598 C51.5617,45.3528 51.8617,45.5048 52.1067,45.5828 C52.3097,45.6468 52.4747,45.6598 52.5897,45.5448 C52.8867,45.2478 52.5697,44.9308 52.4817,44.7518 C52.3937,44.5748 51.6377,44.5818 50.8667,44.4568" id="Fill-15" fill="#FBB1B1"></path>
                    <path d="M35.7466,26.4759 C35.7466,26.4759 36.2996,26.2879 36.9816,26.4449 C37.4506,26.5529 38.0096,26.9659 38.3766,27.1419 C39.2766,27.5749 41.2516,28.9979 41.9116,28.8649 C43.7776,28.4889 45.5286,26.2759 46.1276,25.7299 C46.9376,24.9929 48.2936,23.9169 49.3426,24.0389 C50.3916,24.1609 51.0956,24.7939 52.0326,24.9659 C53.6076,25.2549 54.1006,25.0419 54.1006,25.0419 C54.1006,25.0419 51.9416,24.4759 50.7836,23.6139 C50.0086,23.0379 49.9336,22.0959 50.3166,21.9729 C51.1596,21.7029 52.0086,22.0649 52.8316,22.2349 C54.1486,22.5079 55.0386,22.9719 56.3566,23.2349 C56.5516,23.2739 58.5856,23.6549 58.5676,23.3139 C58.5346,22.7209 57.2226,21.6859 56.8006,21.4329 C54.9426,20.3169 53.1196,19.8259 51.1476,18.9729 C50.4266,18.6609 49.8886,17.8999 50.0166,17.1569 C50.0476,16.9739 50.2426,16.6969 50.7616,16.7219 C51.5986,16.7629 53.0486,17.2159 54.2866,17.3119 C55.3936,17.3989 59.5566,19.3389 60.1506,19.5959 C60.1866,19.6109 59.6226,18.8889 59.5566,18.8389 C59.0136,18.4349 57.7686,17.7949 57.1466,17.5259 C55.1456,16.6599 53.3066,16.5979 51.2796,15.8149 C50.5776,15.5439 50.0426,14.6049 50.2266,14.4999 C50.4106,14.3939 50.5356,13.8229 51.5236,13.8509 C51.8766,13.8599 55.6216,14.2829 55.9366,14.1579 C56.0646,14.1069 54.4866,12.7959 54.7526,12.3689 C55.0176,11.9409 55.3806,12.0349 56.3896,12.0479 C57.3726,12.0599 59.7426,12.5589 59.7086,12.4369 C59.6876,12.3609 59.6406,12.2839 58.7376,11.5539 C57.5506,10.5949 55.8996,9.8699 55.8226,9.8319 C55.2676,9.5579 52.9236,8.9519 52.3116,8.8159 C51.1566,8.5599 49.2646,8.6379 48.1386,8.9929 C47.3596,9.2389 45.9766,10.5779 45.1576,10.6929 C43.7436,10.8929 42.9336,10.7879 41.4926,11.0679 C38.1526,11.7169 36.7596,14.7569 36.1706,17.8699 C35.6716,20.5089 35.1396,21.0239 35.4046,23.7019 C35.4496,24.1579 35.7466,26.4759 35.7466,26.4759" id="Fill-17" fill="#4D4D4D"></path>
                    <path d="M39.7281,82.2063 C39.7281,82.2063 40.3321,81.8733 40.6181,81.4863 C40.9991,80.9713 41.2781,80.6663 41.5461,80.1993 C42.0421,79.3323 42.3551,78.1973 42.5171,77.4403 C42.7651,76.2753 43.1301,75.0063 43.9941,74.0413 C44.2201,73.7893 45.0881,72.9473 45.3461,72.6903 C46.4491,71.5893 46.7421,70.8643 48.2121,70.2163 C48.5151,70.0823 49.7941,69.7553 50.1141,69.6463 C50.5921,69.4853 51.2841,69.0873 51.7711,69.0333 C52.7851,68.9193 53.0091,70.0933 52.3251,71.0183 C51.3641,72.3193 50.1161,72.8283 49.0701,74.0903 C48.7981,74.4183 48.2031,75.0183 48.1811,75.4623 C48.1751,75.5923 49.0891,75.4153 49.7211,75.2733 C50.3531,75.1313 52.1731,75.0473 53.0351,74.8993 C54.5111,74.6453 54.9851,74.6073 56.3291,74.1403 C57.9431,73.5783 59.4491,72.6973 61.1581,72.1793 C61.8881,71.9573 64.2401,71.2503 64.9361,71.9083 C65.5651,72.5033 65.0171,73.0283 64.4971,73.4303 C63.9451,73.8553 63.3711,74.1423 62.7501,74.5313 C61.7331,75.1713 60.4081,76.0123 59.4941,76.7173 C59.0491,77.0603 57.2381,78.0063 57.2381,78.0063 C57.2381,78.0063 58.3181,77.9733 58.4091,77.9333 C59.0601,77.6463 60.1611,77.4713 60.7971,77.1303 C62.4791,76.2283 63.9311,74.6793 65.6831,73.9073 C66.3991,73.5913 67.5011,73.1073 67.9911,73.5453 C68.4811,73.9843 67.6951,75.1703 67.6951,75.1703 C67.6951,75.1703 68.0021,76.1063 67.9151,76.3943 C67.6191,77.3763 65.8121,79.2183 65.8121,79.2183 C65.8121,79.2183 65.7671,80.1393 65.4841,80.8793 C65.1351,81.7903 64.4991,82.8503 63.7881,83.6023 C62.3791,85.0933 60.4571,85.8473 58.6531,86.6643 C56.6911,87.5533 54.7461,88.6303 52.6131,89.6733 C50.9991,90.4643 49.1521,90.8503 47.5761,91.2783 C46.4821,91.5753 44.9611,92.6103 44.9611,92.6103 C44.9611,92.6103 43.6971,91.4953 43.2341,91.0063 C42.3421,90.0643 41.3251,88.5273 40.7921,87.3183 C40.4041,86.4373 39.9121,85.0593 39.7021,84.1443 C39.5871,83.6463 39.7281,82.2063 39.7281,82.2063" id="Fill-19" fill="#FFEDDE"></path>
                    <path d="M50.0782,75.2722 C50.0782,75.2722 50.5342,74.0442 50.5682,73.9592 C50.7572,73.4912 50.9232,73.0232 51.1022,72.5532 C51.4032,71.7642 52.7882,70.6942 52.7042,69.7412 C52.6752,69.4002 52.4222,69.0852 52.4222,69.0852 C52.4222,69.0852 54.0962,64.6132 54.6302,63.4112 C54.8432,62.9312 55.2662,61.4522 55.8502,61.2752 C56.2422,61.1572 57.3982,61.3012 57.3982,61.3012 L67.3122,62.3252 C67.3122,62.3252 68.4472,62.2932 68.7962,62.7672 C69.2512,63.3862 68.3842,64.9122 68.3842,64.9122 L67.3282,67.9082 L65.0782,74.2902 C65.0782,74.2902 63.5722,75.2842 62.3672,76.1692 C61.3632,76.9082 60.2112,77.5652 58.9092,77.9102 C58.2702,78.0792 57.2412,78.0372 57.3262,77.9802 C57.8762,77.6192 58.6912,77.2352 59.2392,76.8842 C59.9832,76.4082 60.9352,75.7502 61.6532,75.2602 C62.4152,74.7382 63.4142,74.3662 64.0752,73.7162 C64.3862,73.4092 65.4682,72.6922 65.1962,72.1842 C64.5532,70.9842 62.0692,71.8712 61.2832,72.1862 C58.7062,73.2192 57.0752,74.0412 54.3512,74.6662 C53.6632,74.8242 52.2122,75.0402 51.5132,75.1012 C51.1292,75.1342 50.0782,75.2722 50.0782,75.2722" id="Fill-21" fill="#E1DFE0"></path>
                    <g id="Group-25" transform="translate(0.000000, 34.087000)">
                        <mask id="mask-6" fill="white">
                            <use xlink:href="#path-5"></use>
                        </mask>
                        <g id="Clip-24"></g>
                        <path d="M37.2974,0.8908 C36.8584,0.6898 36.5944,0.7588 36.1204,0.9088 C35.1324,1.2218 33.9384,2.0528 33.3004,2.6908 C32.2054,3.7868 30.3824,7.5698 30.3824,7.5698 C30.3824,7.5698 27.3624,9.1268 25.9694,9.7238 C24.2744,10.4508 22.8544,11.2568 21.1464,11.9608 C18.7424,12.9508 16.0624,13.9818 13.1154,15.1748 C11.4864,15.8338 9.0154,17.0958 7.8494,18.4938 C5.5504,21.2528 3.9564,27.2748 3.5634,30.8078 C3.3844,32.4148 3.1884,34.1118 3.0084,35.7338 C2.9804,35.9848 2.2284,46.0508 1.9084,49.6008 C1.7294,51.5858 1.5044,53.0468 1.3204,55.0298 C1.1594,56.7668 0.8934,60.2108 0.9124,61.2118 C0.9394,62.5478 0.8144,64.7268 0.9364,66.4398 C1.0584,68.1528 1.3774,72.4858 3.2654,74.3738 C3.8584,74.9668 6.1524,76.0168 9.7804,76.3578 C13.4084,76.6988 15.8074,75.9578 15.8074,75.9578 C15.8074,75.9578 15.8224,77.5918 15.8064,79.0188 C15.7794,81.3708 15.0964,87.6368 15.4054,87.8688 C15.7724,88.1428 18.1154,87.9638 20.9464,87.5478 C22.4334,87.3288 24.8364,86.8468 26.5664,86.7198 C29.4454,86.5088 31.9424,86.8768 33.7134,87.2048 C37.5624,87.9158 41.0444,87.8958 41.2984,87.3878 C41.4824,87.0208 41.1734,83.4538 41.1734,82.2668 C41.1734,80.1698 40.9394,76.2888 40.9234,75.2118 C40.9064,74.0308 40.7484,71.4498 40.7614,71.0288 C40.7754,70.6068 40.5254,67.0228 40.5254,67.0228 C40.5254,67.0228 41.4474,66.7528 41.7364,66.0058 C41.9644,65.4188 41.7764,64.6758 41.7764,64.0978 C41.7764,63.8428 41.5124,62.5958 41.5124,62.5958 L38.3374,64.9938 C38.3374,64.9938 36.7524,62.9958 36.4674,62.4278 C35.3844,60.2628 34.7714,59.1078 34.1834,56.7568 C33.9704,55.9038 33.6634,51.9358 34.1584,51.1118 C34.2454,50.9668 35.5274,50.2458 36.7284,49.4738 C37.5984,48.9138 38.5034,48.2188 38.5034,48.2188 C38.5034,48.2188 37.7424,44.3688 37.5994,43.2238 C37.1954,39.9948 36.6514,36.2398 36.1154,33.0948 C35.8794,31.7128 34.8764,26.4498 34.7264,25.0238 C34.3844,21.7838 34.0964,20.1828 33.9044,18.2448 C33.8184,17.3698 33.5914,16.1008 33.4964,14.4928 C33.4014,12.8848 32.8784,7.1228 32.8784,7.1228 C32.8784,7.1228 34.2184,5.2238 34.7774,4.6398 C35.3364,4.0568 35.7314,3.5568 35.9854,3.4128 C36.4754,3.1368 37.1984,3.2868 37.1984,3.2868 C37.1984,3.2868 37.8954,1.1638 37.2974,0.8908" id="Fill-23" fill="#FE7200" mask="url(#mask-6)"></path>
                    </g>
                    <path d="M67.9346,36.9261 C67.8706,36.9261 67.8066,36.8941 67.7676,36.8361 C66.7896,35.3431 65.9486,34.7911 65.0586,34.2071 C64.5876,33.8991 64.1016,33.5801 63.5846,33.1151 C62.6446,32.2691 62.0276,31.4371 61.3126,30.4741 L60.9486,29.9861 C60.6476,29.5851 59.0726,27.5401 57.6116,26.6711 C56.1376,25.7951 55.0556,25.4661 54.1066,25.2411 C53.3366,25.0591 51.7986,24.5901 50.9236,23.9841 C50.6846,23.8191 49.8986,23.2291 49.7996,22.5831 C49.7636,22.3481 49.8186,22.1341 49.9656,21.9461 C50.2666,21.5591 51.1136,21.7571 52.5856,22.1401 C53.1716,22.2931 53.7776,22.4511 54.2906,22.5331 C54.7016,22.5991 55.0896,22.6941 55.4646,22.7851 C56.4886,23.0351 57.5476,23.2941 59.2006,22.9931 C59.3066,22.9721 59.4126,23.0451 59.4326,23.1541 C59.4516,23.2621 59.3806,23.3661 59.2716,23.3861 C57.5356,23.7021 56.4346,23.4331 55.3706,23.1731 C54.9856,23.0791 54.6216,22.9901 54.2276,22.9271 C53.6956,22.8421 53.0806,22.6821 52.4846,22.5271 C51.7176,22.3261 50.4346,21.9911 50.2806,22.1911 C50.2026,22.2911 50.1746,22.3971 50.1936,22.5231 C50.2536,22.9111 50.7466,23.3761 51.1506,23.6551 C51.8706,24.1531 53.2346,24.6251 54.1986,24.8531 C55.1786,25.0851 56.2956,25.4251 57.8156,26.3281 C59.3416,27.2351 60.9596,29.3341 61.2676,29.7461 L61.6336,30.2361 C62.3356,31.1821 62.9416,31.9981 63.8526,32.8191 C64.3466,33.2631 64.8196,33.5731 65.2766,33.8731 C66.1626,34.4541 67.0786,35.0551 68.1016,36.6171 C68.1626,36.7101 68.1366,36.8331 68.0436,36.8941 C68.0106,36.9161 67.9726,36.9261 67.9346,36.9261" id="Fill-26" fill="#000000"></path>
                    <path d="M58.563,23.2576 C58.483,23.2576 58.407,23.2086 58.376,23.1296 C57.987,22.1076 55.171,20.7466 53.771,20.3026 L53.623,20.2566 C52.352,19.8556 50.611,19.3056 49.944,18.0196 C49.7819941,17.7056 49.708,17.2196 49.882,16.8966 C49.989,16.6976 50.172,16.5806 50.41,16.5556 C50.89,16.5076 51.49,16.6506 52.188,16.8176 C52.612,16.9186 53.051,17.0236 53.519,17.1006 C54.753,17.3046 55.569,17.4396 56.668,17.8256 C57.083,17.9726 57.572,18.2266 58.137,18.5206 C59.04,18.9886 60.164,19.5726 61.347,19.8756 C61.454,19.9026 61.518,20.0116 61.49,20.1176 C61.463,20.2246 61.356,20.2906 61.248,20.2616 C60.02,19.9486 58.874,19.3526 57.953,18.8746 C57.401,18.5876 56.924,18.3396 56.536,18.2026 C55.469,17.8266 54.667,17.6956 53.455,17.4946 C52.972,17.4156 52.506,17.3036 52.095,17.2056 C51.433,17.0476 50.861,16.9106 50.452,16.9526 C50.346,16.9636 50.277,17.0056 50.234,17.0856 C50.132,17.2756 50.188,17.6226 50.299,17.8366 C50.89,18.9746 52.539,19.4956 53.743,19.8756 L53.892,19.9226 C54.967,20.2626 58.25,21.6776 58.75,22.9866 C58.789,23.0896 58.737,23.2046 58.634,23.2446 C58.61,23.2536 58.587,23.2576 58.563,23.2576" id="Fill-28" fill="#000000"></path>
                    <path d="M60.1231,19.7932 C60.0481,19.7932 59.9761,19.7502 59.9421,19.6772 C59.3281,18.3492 56.1481,17.2742 54.0861,16.9352 C52.4631,16.6682 50.2941,15.7082 50.0781,14.9662 C49.9701,14.5992 49.9981,14.3022 50.1631,14.0852 C50.4731,13.6742 51.1681,13.6802 51.7251,13.6852 L51.8971,13.6862 L51.8981,13.6862 C52.1221,13.6862 52.7021,13.7582 53.3731,13.8412 C54.2611,13.9512 55.3601,14.0852 55.8341,14.0772 C56.8201,14.0522 57.6341,14.2332 58.5011,14.4232 C58.8961,14.5102 59.4711,14.8152 60.1991,15.2012 C61.2201,15.7422 62.4911,16.4152 63.7341,16.7342 C63.8411,16.7622 63.9051,16.8712 63.8781,16.9782 C63.8511,17.0842 63.7411,17.1482 63.6351,17.1212 C62.3461,16.7902 61.0521,16.1052 60.0121,15.5532 C59.3391,15.1972 58.7571,14.8892 58.4251,14.8152 C57.5361,14.6202 56.7741,14.4532 55.8431,14.4762 C55.3381,14.4832 54.2711,14.3542 53.3251,14.2372 C52.6931,14.1592 52.0971,14.0852 51.8981,14.0852 L51.8971,14.0852 L51.7221,14.0852 C51.2761,14.0792 50.6701,14.0752 50.4811,14.3252 C50.3971,14.4372 50.3911,14.6142 50.4611,14.8542 C50.5861,15.2812 52.4191,16.2572 54.1501,16.5412 C55.5901,16.7772 59.5021,17.7722 60.3051,19.5102 C60.3511,19.6102 60.3071,19.7292 60.2071,19.7752 C60.1801,19.7872 60.1511,19.7932 60.1231,19.7932" id="Fill-30" fill="#000000"></path>
                    <path d="M74.8838,30.6233 C74.8228,30.6233 74.7628,30.5963 74.7248,30.5433 C74.0098,29.5933 73.4948,27.9963 73.0388,26.5873 C72.8878,26.1213 72.7458,25.6803 72.6108,25.3133 C72.1548,24.0713 71.6138,22.8473 71.0058,21.6733 C70.2918,20.2993 69.3038,19.5043 68.1588,18.5843 L67.7708,18.2703 C66.7728,17.4603 64.5158,15.3373 63.8028,14.6573 C62.3828,13.3013 61.1428,12.9203 59.0638,12.6203 C58.6798,12.5643 58.2858,12.4963 57.8988,12.4293 C56.7388,12.2273 55.5408,12.0183 55.1288,12.2883 C54.9898,12.3793 55.0208,12.5943 55.0518,12.7143 C55.1928,13.2593 55.8788,14.0503 56.8018,14.1203 C56.9118,14.1283 56.9938,14.2243 56.9858,14.3343 C56.9778,14.4443 56.8798,14.5243 56.7718,14.5183 C55.7218,14.4383 54.8608,13.5723 54.6658,12.8143 C54.5678,12.4343 54.6568,12.1203 54.9098,11.9543 C55.4548,11.5983 56.6178,11.8003 57.9668,12.0353 C58.3498,12.1023 58.7408,12.1703 59.1208,12.2253 C61.2398,12.5313 62.5888,12.9463 64.0788,14.3683 C64.7878,15.0453 67.0348,17.1593 68.0228,17.9613 L68.4088,18.2733 C69.5888,19.2213 70.6068,20.0403 71.3598,21.4893 C71.9768,22.6783 72.5238,23.9183 72.9858,25.1763 C73.1228,25.5503 73.2668,25.9943 73.4188,26.4643 C73.8418,27.7753 74.3698,29.4063 75.0438,30.3043 C75.1098,30.3923 75.0918,30.5173 75.0038,30.5833 C74.9678,30.6103 74.9258,30.6233 74.8838,30.6233" id="Fill-32" fill="#000000"></path>
                    <path d="M73.0572,26.156 C72.9762,26.156 72.9002,26.107 72.8702,26.026 C72.5372,25.139 72.3792,24.126 72.2512,23.312 C72.1812,22.86 72.1192,22.469 72.0482,22.246 C71.7732,21.385 71.5772,21.015 71.3062,20.503 C71.1522,20.212 70.9772,19.883 70.7572,19.402 C70.5282,18.903 70.3712,18.379 70.2202,17.872 C70.1292,17.567 70.0382,17.262 69.9322,16.962 C69.7642,16.488 69.5732,16.171 69.3632,16.019 C69.2262,15.921 69.0982,15.917 68.9492,16.01 C68.4732,16.303 68.0762,17.409 68.1902,18.123 C68.2072,18.232 68.1332,18.335 68.0242,18.352 C67.9132,18.369 67.8132,18.295 67.7952,18.187 C67.6542,17.298 68.1212,16.052 68.7392,15.67 C69.0242,15.493 69.3292,15.503 69.5972,15.696 C69.8772,15.898 70.1102,16.268 70.3082,16.829 C70.4172,17.135 70.5102,17.447 70.6032,17.758 C70.7502,18.251 70.9032,18.762 71.1202,19.235 C71.3352,19.706 71.5072,20.03 71.6592,20.316 C71.9292,20.826 72.1422,21.229 72.4292,22.124 C72.5092,22.377 72.5692,22.762 72.6452,23.25 C72.7702,24.046 72.9262,25.037 73.2442,25.886 C73.2832,25.989 73.2302,26.104 73.1272,26.143 C73.1042,26.152 73.0802,26.156 73.0572,26.156" id="Fill-34" fill="#000000"></path>
                    <path d="M39.6695,82.6756 C39.6175,82.6756 39.5655,82.6546 39.5255,82.6146 C39.4495,82.5346 39.4515,82.4086 39.5305,82.3326 C40.8525,81.0546 41.5615,79.9916 41.9765,78.6636 C42.1005,78.2686 42.2065,77.8586 42.3085,77.4636 C42.6155,76.2766 42.9325,75.0506 43.7675,74.0396 C44.0275,73.7236 44.3305,73.4316 44.6235,73.1496 C44.8565,72.9246 45.0985,72.6926 45.3105,72.4536 L45.5675,72.1626 C46.2445,71.3926 46.8835,70.6656 47.8425,70.1866 C48.2845,69.9646 48.7775,69.8426 49.2535,69.7246 C49.5245,69.6576 49.7805,69.5946 50.0265,69.5146 C50.1675,69.4686 50.3535,69.3856 50.5515,69.2966 C51.1805,69.0136 51.9625,68.6636 52.4815,68.9466 C52.7225,69.0806 52.8725,69.3306 52.9245,69.6916 C52.9785,70.0696 52.9205,70.7106 51.7905,71.9026 C51.4265,72.2856 51.0435,72.5936 50.6375,72.9206 C49.8195,73.5776 48.9735,74.2586 48.1125,75.6856 C48.0555,75.7796 47.9335,75.8106 47.8385,75.7536 C47.7445,75.6966 47.7135,75.5736 47.7715,75.4796 C48.6685,73.9916 49.5815,73.2576 50.3875,72.6096 C50.7825,72.2916 51.1555,71.9916 51.5015,71.6276 C52.6285,70.4386 52.5535,69.9186 52.5285,69.7476 C52.4955,69.5146 52.4165,69.3676 52.2885,69.2976 C51.9445,69.1076 51.2335,69.4276 50.7145,69.6606 C50.5065,69.7546 50.3105,69.8426 50.1505,69.8946 C49.8905,69.9786 49.6155,70.0466 49.3495,70.1126 C48.8945,70.2246 48.4235,70.3416 48.0215,70.5436 C47.1315,70.9876 46.5185,71.6866 45.8675,72.4256 L45.6085,72.7196 C45.3855,72.9686 45.1395,73.2066 44.9005,73.4366 C44.6155,73.7116 44.3215,73.9946 44.0745,74.2936 C43.2965,75.2366 43.0045,76.3666 42.6945,77.5626 C42.5915,77.9636 42.4845,78.3776 42.3575,78.7826 C41.9205,80.1806 41.1825,81.2916 39.8085,82.6196 C39.7695,82.6566 39.7195,82.6756 39.6695,82.6756" id="Fill-36" fill="#000000"></path>
                    <path d="M52.9019,79.4597 C52.8229,79.4597 52.7479,79.4127 52.7169,79.3347 C52.6749,79.2317 52.7249,79.1157 52.8279,79.0747 C53.9669,78.6177 54.7269,78.3227 55.6759,78.0937 C56.4859,77.8977 57.5939,77.5897 58.2699,77.2357 C58.8409,76.9367 59.5769,76.4197 60.0179,76.1117 L60.5309,75.7497 C61.2249,75.2567 61.7279,74.8997 62.9589,74.1637 C64.8009,73.0607 64.9989,72.5277 64.9979,72.3497 C64.9979,72.2867 64.9769,72.1897 64.7959,72.0827 C64.0049,71.6137 62.5369,71.9807 61.5019,72.2977 C60.4279,72.6247 59.6359,72.9807 58.7979,73.3577 C58.2949,73.5847 57.7749,73.8187 57.1579,74.0647 C55.6549,74.6637 53.7039,75.0957 51.8059,75.2497 C51.1889,75.2997 49.1319,75.5417 47.9609,75.8797 L47.5609,75.9957 C46.5819,76.2757 45.8079,76.4977 44.5209,77.0107 C44.4179,77.0507 44.3019,77.0017 44.2609,76.8987 C44.2199,76.7967 44.2709,76.6807 44.3729,76.6397 C45.6789,76.1197 46.4609,75.8957 47.4509,75.6107 L47.8499,75.4967 C49.0269,75.1567 51.0369,74.9107 51.7729,74.8517 C53.6339,74.7007 55.5429,74.2787 57.0089,73.6937 C57.6189,73.4507 58.1349,73.2187 58.6339,72.9947 C59.4839,72.6117 60.2869,72.2497 61.3849,71.9157 C62.5859,71.5487 64.0819,71.1967 64.9999,71.7387 C65.3269,71.9327 65.3969128,72.1777 65.3969128,72.3487 C65.3989,72.6997 65.1679,73.3067 63.1639,74.5057 C61.9459,75.2347 61.4489,75.5867 60.7619,76.0747 L60.2469,76.4387 C59.7989,76.7527 59.0489,77.2777 58.4559,77.5897 C57.7429,77.9627 56.6009,78.2807 55.7699,78.4817 C54.8469,78.7047 54.0989,78.9947 52.9769,79.4457 C52.9519,79.4557 52.9269,79.4597 52.9019,79.4597" id="Fill-38" fill="#000000"></path>
                    <path d="M55.6333,83.6199 C55.5723,83.6199 55.5123,83.5919 55.4733,83.5399 C55.4073,83.4519 55.4253,83.3259 55.5133,83.2599 C56.6513,82.4089 57.9953,81.9559 59.1813,81.5569 C59.6443,81.3999 60.0823,81.2529 60.4493,81.0979 C61.7163,80.5649 62.6063,80.0529 63.2513,79.4869 C63.6383,79.1469 63.8853,78.8459 64.1983,78.4629 L64.3663,78.2579 C64.7583,77.7829 65.5663,76.8799 65.9823,76.4699 C66.1373,76.3169 66.2963,76.1709 66.4543,76.0259 C67.0173,75.5099 67.5493,75.0209 67.8053,74.2979 L67.8203,74.2569 C67.9213,73.9799 67.9623,73.7869 67.6203,73.6219 C66.9603,73.3049 65.4613,74.2819 64.7413,74.7519 C64.6333,74.8229 64.5373,74.8849 64.4583,74.9339 C63.8723,75.3019 63.3913,75.6589 62.9263,76.0039 C62.0763,76.6369 61.2733,77.2339 60.0263,77.7209 C58.8403,78.1829 56.7463,78.4759 55.0553,78.6809 C54.9533,78.6959 54.8463,78.6159 54.8333,78.5059 C54.8203,78.3969 54.8983,78.2979 55.0073,78.2849 C56.6753,78.0829 58.7373,77.7949 59.8813,77.3489 C61.0783,76.8819 61.8243,76.3269 62.6893,75.6839 C63.1593,75.3339 63.6473,74.9709 64.2463,74.5959 C64.3233,74.5479 64.4173,74.4869 64.5243,74.4169 C65.6883,73.6579 66.9963,72.8779 67.7933,73.2629 C68.4873,73.5959 68.2753,74.1759 68.1953,74.3939 L68.1813,74.4319 C67.8923,75.2479 67.2983,75.7929 66.7233,76.3209 C66.5703,76.4619 66.4143,76.6049 66.2623,76.7539 C65.8543,77.1559 65.0603,78.0439 64.6743,78.5119 L64.5073,78.7159 C64.1963,79.0969 63.9263,79.4259 63.5153,79.7869 C62.8363,80.3819 61.9113,80.9159 60.6043,81.4659 C60.2233,81.6259 59.7793,81.7759 59.3083,81.9349 C58.1513,82.3249 56.8403,82.7669 55.7533,83.5799 C55.7173,83.6069 55.6753,83.6199 55.6333,83.6199" id="Fill-40" fill="#000000"></path>
                    <path d="M56.315,86.0115 C56.249,86.0115 56.183,85.9785 56.146,85.9175 C56.087,85.8245 56.116,85.7005 56.209,85.6425 L56.294,85.5895 C57.265,84.9815 58.473,84.2255 59.479,83.7585 L59.745,83.6355 C61.178,82.9705 62.125,82.5325 63.418,81.5215 C63.941,81.1115 64.204,80.7925 64.679,80.2145 C65.033,79.7845 65.517,79.1975 66.31,78.3305 C67.575,76.9475 67.859,75.9785 67.718,75.5685 C67.696,75.5035 67.652,75.4235 67.567,75.4095 C67.459,75.3905 67.385,75.2875 67.403,75.1795 C67.422,75.0705 67.528,74.9975 67.633,75.0155 C67.847,75.0525 68.016,75.2055 68.095,75.4385 C68.335,76.1355 67.778,77.3175 66.605,78.5995 C65.818,79.4595 65.338,80.0415 64.988,80.4675 C64.51,81.0485 64.222,81.3985 63.664,81.8355 C62.334,82.8755 61.371,83.3215 59.913,83.9965 L59.647,84.1205 C58.663,84.5765 57.467,85.3255 56.506,85.9275 L56.421,85.9815 C56.388,86.0015 56.351,86.0115 56.315,86.0115" id="Fill-42" fill="#000000"></path>
                    <path d="M45.0547,92.6717 C44.9917,92.6717 44.9287,92.6417 44.8897,92.5857 C44.8277,92.4947 44.8497,92.3707 44.9407,92.3077 C46.3237,91.3537 48.1577,90.8567 49.7757,90.4177 C50.5097,90.2187 51.2027,90.0307 51.8247,89.8137 C52.4297,89.6017 53.0617,89.2057 53.6187,88.8567 L53.6777,88.8197 C54.2727,88.4477 54.9157,88.1367 55.5377,87.8357 C55.8107,87.7047 56.0827,87.5727 56.3507,87.4357 C57.0967,87.0567 57.8927,86.7377 58.6637,86.4297 C59.7337,86.0027 60.8397,85.5597 61.8117,84.9507 C64.0717,83.5367 65.3167,81.6587 65.5107,79.3697 C65.5197,79.2597 65.6177,79.1827 65.7257,79.1877 C65.8357,79.1967 65.9167,79.2937 65.9077,79.4027 C65.7027,81.8247 64.3967,83.8047 62.0237,85.2897 C61.0207,85.9177 59.8977,86.3657 58.8117,86.7997 C58.0497,87.1047 57.2617,87.4197 56.5317,87.7917 C56.2617,87.9297 55.9867,88.0627 55.7117,88.1957 C55.0997,88.4917 54.4667,88.7977 53.8897,89.1587 L53.8317,89.1947 C53.2557,89.5547 52.6027,89.9637 51.9567,90.1897 C51.3217,90.4127 50.6207,90.6027 49.8807,90.8027 C48.2157,91.2547 46.4937,91.7207 45.1677,92.6357 C45.1337,92.6607 45.0937,92.6717 45.0547,92.6717" id="Fill-44" fill="#000000"></path>
                    <path d="M46.083,93.2014 C44.88,93.2014 43.117,91.1484 42.904,90.8944 C41.244,88.9204 39.953,86.3234 39.614,84.2774 L39.582,84.0914 C39.443,83.3204 39.156,81.7144 40.303,81.2954 C40.406,81.2574 40.521,81.3104 40.559,81.4134 C40.597,81.5174 40.544,81.6324 40.44,81.6704 C39.608,81.9744 39.846,83.3064 39.975,84.0214 L40.007,84.2114 C40.336,86.1924 41.592,88.7144 43.209,90.6384 C44.222,91.8424 45.632,92.9984 46.252,92.7754 C46.584,92.6534 46.654,92.0904 46.655,91.6394 C46.655,91.5294 46.744,91.4404 46.854,91.4404 C46.965,91.4404 47.054,91.5294 47.054,91.6394 C47.054,92.4814 46.83,92.9894 46.389,93.1504 C46.292,93.1854 46.189,93.2014 46.083,93.2014" id="Fill-46" fill="#000000"></path>
                    <path d="M34.3169,85.3509 C34.2509,85.3509 34.1849,85.3179 34.1479,85.2569 C34.0889,85.1629 34.1179,85.0399 34.2109,84.9819 C34.2399,84.9639 37.0909,83.1839 37.7329,82.6839 C38.1129,82.3879 40.0389,80.9279 40.6539,81.2339 C40.7519,81.2839 40.7899,81.4009 40.7419,81.4989 C40.6939,81.5979 40.5749,81.6389 40.4749,81.5909 C40.2489,81.4849 39.0619,82.1559 37.9789,82.9989 C37.3199,83.5119 34.5409,85.2469 34.4219,85.3199 C34.3899,85.3409 34.3529,85.3509 34.3169,85.3509" id="Fill-48" fill="#000000"></path>
                    <path d="M38.3755,99.1956 C38.3185,99.1956 38.2615,99.1716 38.2225,99.1246 C38.1515,99.0406 38.1625,98.9146 38.2465,98.8426 C39.8115,97.5256 42.8565,95.4106 45.0105,93.9356 C45.1175,93.8626 45.2285,93.7906 45.3405,93.7196 C46.0275,93.2816 46.6755,92.8696 46.6275,91.7596 C46.6235,91.6496 46.7085,91.5566 46.8185,91.5506 C46.9285,91.5546 47.0215,91.6326 47.0265,91.7426 C47.0845,93.0826 46.2715,93.5996 45.5555,94.0556 C45.4465,94.1256 45.3395,94.1936 45.2365,94.2646 C43.0885,95.7356 40.0545,97.8426 38.5035,99.1486 C38.4665,99.1796 38.4205,99.1956 38.3755,99.1956" id="Fill-50" fill="#000000"></path>
                    <path d="M72.1177,45.7708 C72.0667,45.7708 72.0157,45.7508 71.9767,45.7118 C71.6267,45.3618 71.3207,44.9378 71.0247,44.5278 C70.8347,44.2638 70.6377,43.9898 70.4357,43.7478 C69.5917,42.7348 68.7077,41.6458 67.9927,40.4548 C67.9247,40.3408 67.8367,40.2138 67.7427,40.0788 C67.3727,39.5498 66.9127,38.8908 67.0747,38.2468 C67.5267,36.4358 70.0467,33.8658 72.2547,32.0648 C73.6907,30.8928 75.7437,29.6558 76.3627,29.7648 C76.7197,29.8258 76.9527,30.2678 77.3767,31.0678 C77.6687,31.6218 78.0327,32.3108 78.5707,33.1478 C79.8197,35.0888 81.0897,36.3648 81.1017,36.3768 C81.1807,36.4558 81.1807,36.5818 81.1017,36.6598 C81.0247,36.7378 80.8977,36.7378 80.8197,36.6598 C80.8067,36.6468 79.5067,35.3398 78.2347,33.3638 C77.6877,32.5118 77.3037,31.7858 77.0227,31.2548 C76.7207,30.6818 76.4587,30.1868 76.2947,30.1578 C75.9997,30.1058 74.2797,30.9278 72.5067,32.3738 C70.4477,34.0538 67.8907,36.6248 67.4617,38.3438 C67.3447,38.8118 67.7467,39.3878 68.0697,39.8508 C68.1697,39.9938 68.2637,40.1278 68.3357,40.2498 C69.0357,41.4168 69.9087,42.4918 70.7427,43.4928 C70.9527,43.7458 71.1547,44.0238 71.3487,44.2938 C71.6357,44.6918 71.9317,45.1028 72.2587,45.4298 C72.3367,45.5078 72.3367,45.6348 72.2587,45.7118 C72.2207,45.7508 72.1687,45.7708 72.1177,45.7708" id="Fill-52" fill="#000000"></path>
                    <path d="M50.1455,75.3704 C50.1215,75.3704 50.0975,75.3664 50.0745,75.3574 C49.9715,75.3174 49.9195,75.2024 49.9585,75.0994 L51.1105,72.0894 C51.1495,71.9864 51.2665,71.9364 51.3685,71.9744 C51.4715,72.0134 51.5225,72.1294 51.4835,72.2324 L50.3325,75.2424 C50.3015,75.3214 50.2255,75.3704 50.1455,75.3704" id="Fill-54" fill="#000000"></path>
                    <path d="M65.0542,74.4353 C65.0322,74.4353 65.0092,74.4313 64.9872,74.4233 C64.8832,74.3863 64.8292,74.2723 64.8662,74.1683 L68.6112,63.7093 C68.6912,63.4503 68.7532,62.9893 68.6202,62.8503 C68.4042,62.6233 67.9532,62.5953 67.9492,62.5943 L56.6542,61.4333 C56.6512,61.4333 56.1042,61.3963 55.7732,61.6023 C55.4532,61.8013 55.2992,62.2623 55.2982,62.2673 L52.6452,69.1973 C52.6052,69.3003 52.4892,69.3513 52.3862,69.3103 C52.2832,69.2693 52.2332,69.1533 52.2742,69.0513 L52.2912,69.0063 L54.9212,62.1353 C54.9252,62.1213 55.1142,61.5423 55.5622,61.2633 C56.0052,60.9893 56.6612,61.0333 56.6882,61.0353 L67.9792,62.1963 C67.9932,62.1973 68.5802,62.2303 68.9082,62.5743 C69.2502,62.9323 69.0352,63.6883 68.9892,63.8363 L65.2422,74.3033 C65.2132,74.3853 65.1362,74.4353 65.0542,74.4353" id="Fill-56" fill="#000000"></path>
                    <path d="M40.7417,100.9192 C40.6777,100.9192 40.6117,100.9162 40.5427,100.9092 C39.7127,100.8272 38.1777,99.6172 36.6207,97.0982 C34.7517,94.0752 33.7627,91.1542 33.5967,88.1702 C33.4747,85.9752 33.8707,84.7662 34.7747,84.5772 C34.8817,84.5522 34.9877,84.6242 35.0107,84.7322 C35.0337,84.8402 34.9637,84.9452 34.8557,84.9682 C34.1947,85.1062 33.8887,86.2352 33.9947,88.1482 C34.1567,91.0652 35.1267,93.9232 36.9597,96.8892 C38.6607,99.6392 40.0737,100.4612 40.5817,100.5112 C40.9357,100.5482 41.1897,100.4722 41.3597,100.2842 C41.8877,99.6982 41.5597,98.0952 41.3637,97.1372 C41.3337,96.9922 41.3057,96.8572 41.2837,96.7362 C41.2627,96.6272 41.3337,96.5232 41.4427,96.5022 C41.5527,96.4822 41.6557,96.5532 41.6757,96.6622 C41.6987,96.7812 41.7257,96.9142 41.7547,97.0572 C41.9797,98.1562 42.3197,99.8162 41.6567,100.5512 C41.4357,100.7952 41.1287,100.9192 40.7417,100.9192" id="Fill-58" fill="#000000"></path>
                    <path d="M7.689,95.7469 C7.638,95.7469 7.587,95.7269 7.548,95.6879 C7.47,95.6109 7.47,95.4839 7.548,95.4059 C9.41,93.5449 13.523,92.4969 17.153,91.5739 C18.729,91.1729 20.217,90.7939 21.236,90.4049 C25.218,88.8829 28.448,87.3399 30.808,86.2129 C32.623,85.3469 33.934,84.7209 34.74,84.5039 C34.847,84.4779 34.956,84.5389 34.984,84.6449 C35.013,84.7519 34.95,84.8619 34.843,84.8909 C34.072,85.0969 32.775,85.7159 30.98,86.5739 C28.614,87.7039 25.375,89.2499 21.378,90.7779 C20.338,91.1749 18.838,91.5569 17.252,91.9609 C13.849,92.8269 9.614,93.9049 7.83,95.6879 C7.791,95.7269 7.74,95.7469 7.689,95.7469" id="Fill-60" fill="#000000"></path>
                    <g id="Group-64" transform="translate(0.000000, 41.087000)">
                        <mask id="mask-8" fill="white">
                            <use xlink:href="#path-7"></use>
                        </mask>
                        <g id="Clip-63"></g>
                        <path d="M10.8379,69.5876 C8.0219,69.5876 5.4069,69.0986 3.5539,67.8436 C-1.1551,64.6546 1.3609,45.9816 1.3869,45.7936 C1.6639,43.7916 1.9519,39.8426 2.2569,35.6616 C2.4359,33.2226 2.6199,30.6996 2.8179,28.3046 C3.3679,21.6826 5.3019,13.3856 8.2509,10.8136 C10.3509,8.9836 12.7929,8.0496 15.3779,7.0606 C15.6619,6.9516 15.9469,6.8426 16.2329,6.7326 C20.4129,5.1126 25.8049,2.6616 30.3049,0.3366 C30.4029,0.2856 30.5229,0.3246 30.5739,0.4216 C30.6249,0.5196 30.5859,0.6406 30.4879,0.6916 C25.9759,3.0226 20.5689,5.4806 16.3769,7.1046 C16.0909,7.2156 15.8049,7.3246 15.5209,7.4336 C12.9689,8.4096 10.5599,9.3306 8.5139,11.1146 C5.7759,13.5016 3.7759,21.5856 3.2159,28.3376 C3.0179,30.7316 2.8339,33.2526 2.6549,35.6906 C2.3499,39.8786 2.0609,43.8336 1.7829,45.8476 C1.7569,46.0336 -0.7281,64.4626 3.7779,67.5126 C7.5169,70.0456 14.5309,69.3436 19.8479,67.8416 C22.7819,67.0136 27.1319,65.5086 30.3079,64.4096 L31.6079,63.9606 C32.6529,63.6006 39.8349,60.2366 41.0929,59.4146 C41.1859,59.3556 41.3099,59.3806 41.3699,59.4726 C41.4299,59.5656 41.4039,59.6896 41.3119,59.7496 C40.0399,60.5786 32.7919,63.9756 31.7379,64.3376 L30.4389,64.7866 C27.2579,65.8866 22.9019,67.3946 19.9559,68.2256 C17.1519,69.0176 13.8769,69.5876 10.8379,69.5876" id="Fill-62" fill="#FE7200" mask="url(#mask-8)"></path>
                    </g>
                    <path d="M17.3199,91.7215 C17.2099,91.7215 17.1199,91.6325 17.1199,91.5215 L17.1219,89.9285 C17.1279,86.2095 17.1339,82.3645 16.8319,78.6145 C16.4909,74.3815 15.2499,64.9295 12.9959,59.4565 C12.9549,59.3545 13.0029,59.2375 13.1049,59.1965 C13.2079,59.1535 13.3239,59.2025 13.3649,59.3045 C15.6379,64.8235 16.8869,74.3275 17.2299,78.5825 C17.5339,82.3485 17.5279,86.2025 17.5219,89.9295 L17.5199,91.5215 C17.5199,91.6325 17.4299,91.7215 17.3199,91.7215" id="Fill-65" fill="#000000"></path>
                    <g id="Group-69" transform="translate(73.000000, 63.087000)">
                        <mask id="mask-10" fill="white">
                            <use xlink:href="#path-9"></use>
                        </mask>
                        <g id="Clip-68"></g>
                        <path d="M3.3736,58.7663 C3.2726,58.7663 3.1866,58.6913 3.1756,58.5893 C2.5176,52.6613 1.1306,37.5343 0.2396,24.5513 C-0.2304,17.6963 0.3336,5.6923 1.7646,0.4893 C1.7936,0.3833 1.9026,0.3213 2.0106,0.3493 C2.1166,0.3793 2.1786,0.4893 2.1496,0.5953 C0.7286,5.7613 0.1696,17.7003 0.6386,24.5243 C1.5286,37.5013 2.9136,52.6203 3.5726,58.5443 C3.5846,58.6553 3.5056,58.7533 3.3956,58.7653 C3.3886,58.7663 3.3816,58.7663 3.3736,58.7663" id="Fill-67" fill="#000000" mask="url(#mask-10)"></path>
                    </g>
                    <path d="M97.4204,78.0354 C94.0694,78.0354 89.7784,77.4314 85.1324,76.2784 C82.2854,75.5724 76.6954,73.7874 73.8014,71.5734 C73.7134,71.5064 73.6974,71.3814 73.7644,71.2934 C73.8314,71.2054 73.9564,71.1894 74.0444,71.2564 C76.8864,73.4304 82.4114,75.1924 85.2284,75.8914 C91.4524,77.4344 97.0234,77.9894 100.5084,77.4154 C104.1884,76.8084 106.7774,74.3684 107.2654,71.0474 C107.7024,68.0744 104.7034,63.7624 101.8574,59.9534 C100.5504,58.2024 98.6614,56.2334 96.4754,53.9524 C94.5594,51.9544 92.3874,49.6884 90.3844,47.3064 C88.5514,45.1274 86.7554,42.8074 85.3114,40.9434 C83.6584,38.8104 82.0994,36.7964 81.7634,36.6904 C81.0034,36.5374 78.0574,37.9274 76.0324,40.2284 C73.8754,42.6814 71.7984,46.2524 71.9634,46.9164 C72.0904,47.4224 73.1344,48.6324 74.3434,50.0344 C75.5784,51.4674 77.1174,53.2514 78.4614,55.1554 C80.3534,57.8354 81.5914,60.4674 82.6844,62.7884 C83.1674,63.8174 83.6254,64.7894 84.0854,65.6434 C86.6044,70.3164 88.6684,72.5224 91.2104,73.2574 C91.3164,73.2884 91.3774,73.3994 91.3464,73.5044 C91.3164,73.6104 91.2034,73.6724 91.0994,73.6414 C88.4424,72.8724 86.3094,70.6104 83.7334,65.8324 C83.2684,64.9694 82.8094,63.9934 82.3224,62.9584 C81.2364,60.6514 80.0064,58.0364 78.1354,55.3854 C76.8024,53.4974 75.2714,51.7224 74.0414,50.2944 C72.6974,48.7364 71.7264,47.6104 71.5764,47.0134 C71.3274,46.0144 73.9134,42.0344 75.7334,39.9644 C77.8184,37.5934 80.8844,36.1074 81.8454,36.3004 C82.2514,36.3814 83.1534,37.5064 85.6264,40.6994 C87.0684,42.5604 88.8614,44.8764 90.6904,47.0494 C92.6844,49.4214 94.8514,51.6814 96.7634,53.6764 C98.9594,55.9664 100.8564,57.9444 102.1784,59.7154 C105.0714,63.5874 108.1194,67.9814 107.6604,71.1044 C107.1464,74.6044 104.4314,77.1734 100.5734,77.8094 C99.6544,77.9604 98.5954,78.0354 97.4204,78.0354" id="Fill-70" fill="#000000"></path>
                    <path d="M72.9654,48.9334 C72.9214,48.9334 72.8774,48.9194 72.8404,48.8904 C71.3604,47.7054 68.5924,47.0394 65.6624,46.3344 C62.8514,45.6594 59.9444,44.9594 58.0184,43.7364 C57.9254,43.6774 57.8984,43.5534 57.9574,43.4604 C58.0164,43.3674 58.1394,43.3394 58.2334,43.3994 C60.1034,44.5874 62.9764,45.2784 65.7564,45.9464 C68.7304,46.6624 71.5404,47.3374 73.0904,48.5784 C73.1764,48.6464 73.1904,48.7724 73.1214,48.8584 C73.0824,48.9084 73.0244,48.9334 72.9654,48.9334" id="Fill-72" fill="#000000"></path>
                    <path d="M38.4624,82.5662 C38.3654,82.5662 38.2814,82.4962 38.2654,82.3982 L37.9484,80.4262 C37.5344,77.8562 37.1444,75.4282 36.8594,73.3442 C36.4474,70.3232 35.9734,67.5582 35.5154,64.8842 C34.8664,61.1002 34.2534,57.5252 33.8124,53.3392 L33.6384,51.6972 C33.2664,48.1932 32.8804,44.5712 32.6564,40.9842 C32.6114,40.2612 32.4744,38.0602 33.1684,36.8302 C33.8584,35.6052 35.9584,34.7842 36.7174,34.6482 C36.8274,34.6292 36.9304,34.7012 36.9494,34.8102 C36.9684,34.9182 36.8964,35.0222 36.7884,35.0412 C35.9524,35.1912 34.0914,36.0042 33.5154,37.0252 C32.8804,38.1532 33.0114,40.2662 33.0544,40.9602 C33.2784,44.5372 33.6634,48.1562 34.0354,51.6542 L34.2094,53.2962 C34.6494,57.4702 35.2604,61.0392 35.9084,64.8162 C36.3674,67.4942 36.8424,70.2622 37.2554,73.2902 C37.5394,75.3702 37.9294,77.7952 38.3424,80.3632 L38.6594,82.3352 C38.6764,82.4442 38.6034,82.5462 38.4944,82.5642 C38.4834,82.5662 38.4724,82.5662 38.4624,82.5662" id="Fill-74" fill="#000000"></path>
                    <g id="Group-78" transform="translate(40.000000, 100.087000)">
                        <mask id="mask-12" fill="white">
                            <use xlink:href="#path-11"></use>
                        </mask>
                        <g id="Clip-77"></g>
                        <path d="M1.2915,21.6374 C1.1815,21.6374 1.0925,21.5484 1.0925,21.4384 C1.0925,19.3874 0.8125,8.6054 0.3255,1.1014 C0.3185,0.9914 0.4015,0.8964 0.5115,0.8894 C0.6215,0.8824 0.7165,0.9664 0.7245,1.0754 C1.2105,8.5874 1.4915,19.3844 1.4915,21.4384 C1.4915,21.5484 1.4015,21.6374 1.2915,21.6374" id="Fill-76" fill="#000000" mask="url(#mask-12)"></path>
                    </g>
                    <path d="M57.835,61.4739 C57.739,61.4739 57.655,61.4049 57.639,61.3069 C56.985,57.3599 55.856,51.7679 54.189,47.5459 C54.148,47.4429 54.198,47.3279 54.301,47.2869 C54.403,47.2459 54.519,47.2969 54.56,47.3989 C56.241,51.6539 57.376,57.2749 58.032,61.2419 C58.05,61.3499 57.977,61.4529 57.868,61.4719 C57.857,61.4739 57.846,61.4739 57.835,61.4739" id="Fill-79" fill="#000000"></path>
                    <g id="Group-83" transform="translate(59.000000, 86.087000)">
                        <mask id="mask-14" fill="white">
                            <use xlink:href="#path-13"></use>
                        </mask>
                        <g id="Clip-82"></g>
                        <path d="M0.6778,35.4245 L0.6708,35.4245 C0.5598,35.4195 0.4738,35.3265 0.4788,35.2165 C0.4928,34.8575 0.3928,22.4205 0.3508,17.1105 L0.3378,15.5105 C0.3148,12.6275 0.3198,9.8235 0.3238,7.1125 C0.3278,4.8005 0.3318,2.5225 0.3188,0.2445 C0.3178,0.1345 0.4068,0.0455 0.5168,0.0445 C0.6368,0.0475 0.7168,0.1325 0.7178,0.2425 C0.7308,2.5205 0.7268,4.8005 0.7228,7.1135 C0.7188,9.8235 0.7138,12.6265 0.7368,15.5075 L0.7498,17.1075 C0.8198,25.8875 0.8898,34.9065 0.8778,35.2325 C0.8728,35.3395 0.7848,35.4245 0.6778,35.4245" id="Fill-81" fill="#000000" mask="url(#mask-14)"></path>
                    </g>
                    <path d="M32.4258,58.1756 C32.3458,58.1756 32.2698,58.1266 32.2398,58.0476 C32.2298,58.0216 31.2338,55.4376 30.4588,54.4316 C29.7318,53.4876 28.8378,52.8936 28.0488,52.3696 L27.8788,52.2576 C27.5908,52.0656 27.1188,51.8226 26.6198,51.5676 C25.2188,50.8466 23.6318,50.0306 23.4798,49.1566 C23.3228,48.2406 24.7048,47.1886 25.7148,46.4196 C25.9538,46.2376 26.1628,46.0786 26.3048,45.9536 C27.7698,44.6726 29.5878,42.9276 30.6548,40.7936 C31.3248,39.4536 32.6038,37.0806 33.6408,36.2406 C33.7258,36.1716 33.8518,36.1846 33.9218,36.2706 C33.9908,36.3566 33.9778,36.4816 33.8918,36.5506 C32.8768,37.3726 31.5398,39.9166 31.0118,40.9716 C29.9138,43.1686 28.0598,44.9486 26.5678,46.2546 C26.4198,46.3836 26.2038,46.5486 25.9558,46.7376 C25.1338,47.3636 23.7568,48.4116 23.8738,49.0886 C23.9908,49.7666 25.6158,50.6026 26.8028,51.2116 C27.3338,51.4846 27.7928,51.7206 28.0998,51.9256 L28.2688,52.0376 C29.0838,52.5786 30.0078,53.1916 30.7758,54.1886 C31.5858,55.2396 32.5708,57.7966 32.6128,57.9046 C32.6518,58.0076 32.6008,58.1226 32.4978,58.1626 C32.4738,58.1716 32.4498,58.1756 32.4258,58.1756" id="Fill-84" fill="#000000"></path>
                    <path d="M33.21,85.3972 C33.14,85.3972 33.072,85.3602 33.035,85.2942 C32.602,84.5162 32.098,83.5742 31.648,82.4962 C30.004,78.5502 28.141,74.0772 27.025,69.6142 C26.834,68.8492 26.41,67.5382 25.961,66.1512 C24.415,61.3752 23.972,59.7282 24.396,59.3922 C24.73,59.1272 25.513,59.3312 26.868,59.7132 C28.096,60.0602 29.487,60.4532 30.321,60.2872 C31.187,60.1132 32.585,57.5742 33.335,56.2102 C33.71,55.5272 33.897,55.1932 34.013,55.0772 C34.091,54.9992 34.217,54.9992 34.295,55.0772 C34.374,55.1552 34.374,55.2812 34.295,55.3592 C34.213,55.4412 33.945,55.9302 33.685,56.4022 C32.553,58.4602 31.366,60.4842 30.399,60.6782 C29.472,60.8632 28.031,60.4572 26.759,60.0982 C25.947,59.8682 24.835,59.5542 24.644,59.7052 C24.427,60.1152 25.625,63.8162 26.341,66.0282 C26.792,67.4222 27.218,68.7382 27.413,69.5182 C28.521,73.9522 30.378,78.4092 32.017,82.3422 C32.459,83.4032 32.956,84.3312 33.384,85.1002 C33.438,85.1962 33.403,85.3182 33.307,85.3722 C33.276,85.3892 33.243,85.3972 33.21,85.3972" id="Fill-86" fill="#000000"></path>
                    <path d="M66.9868,62.448 C66.9668,62.448 66.9478,62.445 66.9288,62.439 C66.8228,62.407 66.7638,62.296 66.7958,62.191 C67.8128,58.832 67.9328,57.358 67.7658,57.188 C67.4678,57.108 66.5648,57.64 65.7678,58.105 C64.8828,58.622 63.8798,59.207 63.0598,59.396 C61.4398,59.771 58.7108,58.952 56.8428,56.703 C56.7728,56.619 56.7838,56.493 56.8688,56.422 C56.9528,56.352 57.0798,56.364 57.1498,56.448 C58.9168,58.575 61.4688,59.355 62.9698,59.008 C63.7308,58.832 64.7058,58.263 65.5668,57.761 C66.7088,57.094 67.4338,56.691 67.8828,56.809 C67.9518,56.828 68.0498,56.876 68.1208,57.004 C68.4948,57.673 67.6908,60.613 67.1778,62.306 C67.1518,62.392 67.0718,62.448 66.9868,62.448" id="Fill-88" fill="#000000"></path>
                    <path d="M59.5288,95.4461 C59.5158,95.4461 59.5038,95.4451 59.4908,95.4431 C59.3828,95.4221 59.3118,95.3181 59.3318,95.2101 C59.7128,93.2001 60.4158,90.6321 61.1608,87.9131 C61.4258,86.9431 61.6958,85.9581 61.9548,84.9831 C61.9838,84.8771 62.0918,84.8111 62.1988,84.8411 C62.3058,84.8691 62.3688,84.9791 62.3408,85.0851 C62.0808,86.0621 61.8118,87.0471 61.5458,88.0181 C60.8028,90.7291 60.1018,93.2901 59.7248,95.2831 C59.7058,95.3801 59.6228,95.4461 59.5288,95.4461" id="Fill-90" fill="#000000"></path>
                    <path d="M59.1558,58.5052 C59.1318,58.5052 59.1058,58.5012 59.0818,58.4912 C58.9798,58.4502 58.9298,58.3342 58.9708,58.2322 C59.7908,56.1822 60.2448,55.3852 61.1838,54.3562 C61.5088,54.0002 61.9288,53.6672 62.3348,53.3452 C63.0918,52.7462 63.8058,52.1802 63.7448,51.6122 C63.6918,51.1142 63.0308,50.7152 62.2658,50.2552 C61.6908,49.9082 61.0398,49.5162 60.5228,48.9992 L60.2268,48.7052 C59.1248,47.6142 58.1728,46.6722 57.2178,44.3422 C57.1768,44.2402 57.2248,44.1242 57.3268,44.0822 C57.4278,44.0412 57.5458,44.0892 57.5878,44.1912 C58.5108,46.4452 59.4358,47.3612 60.5078,48.4222 L60.8048,48.7162 C61.2868,49.1992 61.9158,49.5782 62.4708,49.9122 C63.3278,50.4282 64.0678,50.8742 64.1418,51.5702 C64.2268,52.3572 63.4278,52.9892 62.5828,53.6582 C62.1888,53.9702 61.7818,54.2932 61.4788,54.6252 C60.5788,55.6112 60.1398,56.3832 59.3418,58.3802 C59.3098,58.4582 59.2348,58.5052 59.1558,58.5052" id="Fill-92" fill="#000000"></path>
                    <path d="M47.1118,70.9763 C47.0168,70.9763 46.9318,70.9073 46.9158,70.8103 C46.5168,68.4913 46.4088,66.0973 46.3148,63.9853 C46.2518,62.6023 46.1938,61.2953 46.0628,60.1543 C45.8748,58.5243 44.8528,57.6143 43.4378,56.3533 C42.4228,55.4493 41.2718,54.4243 40.1538,52.8753 C37.3778,49.0353 35.7938,43.1733 35.5598,41.5863 C35.5288,41.3783 35.4908,41.1573 35.4518,40.9293 C35.2378,39.6833 34.9958,38.2703 35.6598,37.5563 C35.9748,37.2173 36.4618,37.0783 37.1018,37.1403 C37.2108,37.1503 37.2918,37.2483 37.2808,37.3583 C37.2698,37.4673 37.1708,37.5483 37.0628,37.5373 C36.5448,37.4873 36.1808,37.5813 35.9518,37.8283 C35.4228,38.3973 35.6568,39.7643 35.8448,40.8623 C35.8848,41.0933 35.9238,41.3173 35.9548,41.5283 C36.1848,43.0913 37.7448,48.8603 40.4768,52.6423 C41.5698,54.1553 42.7028,55.1643 43.7028,56.0553 C45.1288,57.3253 46.2548,58.3283 46.4588,60.1093 C46.5918,61.2643 46.6508,62.5773 46.7138,63.9673 C46.8078,66.0673 46.9148,68.4483 47.3088,70.7433 C47.3278,70.8513 47.2548,70.9553 47.1458,70.9733 C47.1348,70.9753 47.1228,70.9763 47.1118,70.9763" id="Fill-94" fill="#000000"></path>
                    <g id="Group-98" transform="translate(48.000000, 90.087000)">
                        <mask id="mask-16" fill="white">
                            <use xlink:href="#path-15"></use>
                        </mask>
                        <g id="Clip-97"></g>
                        <path d="M2.2061,31.3688 C2.1061,31.3688 2.0201,31.2948 2.0081,31.1928 C1.6271,28.1448 1.9151,23.7308 2.1691,19.8358 C2.3011,17.8148 2.4251,15.9058 2.4451,14.3798 C2.4901,10.8268 1.9181,7.7748 1.3641,4.8238 C1.2221,4.0688 1.0811,3.3208 0.9531,2.5728 C0.8721,2.0978 0.7681,1.6048 0.6281,1.0228 C0.6021,0.9158 0.6681,0.8078 0.7751,0.7818 C0.8831,0.7588 0.9911,0.8228 1.0161,0.9298 C1.1581,1.5208 1.2631,2.0208 1.3471,2.5048 C1.4751,3.2508 1.6151,3.9978 1.7561,4.7498 C2.3131,7.7208 2.8901,10.7918 2.8441,14.3858 C2.8241,15.9218 2.6991,17.8358 2.5671,19.8618 C2.3141,23.7388 2.0281,28.1338 2.4041,31.1438 C2.4181,31.2538 2.3401,31.3528 2.2311,31.3668 C2.2231,31.3678 2.2141,31.3688 2.2061,31.3688" id="Fill-96" fill="#000000" mask="url(#mask-16)"></path>
                    </g>
                    <path d="M46.3081,59.554 C46.2661,59.554 46.2231,59.54 46.1861,59.512 C46.0991,59.445 46.0831,59.32 46.1501,59.232 C47.5501,57.42 50.4621,53.648 49.6851,49.696 C49.6641,49.588 49.7341,49.483 49.8431,49.461 C49.9511,49.44 50.0561,49.511 50.0771,49.618 C50.8891,53.749 47.9021,57.617 46.4671,59.476 C46.4271,59.528 46.3681,59.554 46.3081,59.554" id="Fill-99" fill="#000000"></path>
                    <path d="M32.9492,41.4632 C32.9212,41.4632 32.8932,41.4572 32.8662,41.4442 C32.7652,41.3992 32.7212,41.2792 32.7682,41.1802 C33.2672,40.0992 35.2212,37.8762 35.6212,37.6132 C35.7132,37.5532 35.8372,37.5792 35.8972,37.6712 C35.9582,37.7632 35.9322,37.8872 35.8402,37.9472 C35.5212,38.1572 33.6172,40.2912 33.1312,41.3472 C33.0972,41.4202 33.0242,41.4632 32.9492,41.4632" id="Fill-101" fill="#000000"></path>
                    <path d="M38.0679,61.284 C38.0429,61.284 38.0169,61.283 37.9909,61.28 C36.8049,61.131 34.8569,57.977 33.8499,53.52 C33.8259,53.412 33.8929,53.305 34.0009,53.281 C34.1069,53.256 34.2149,53.324 34.2389,53.432 C35.3189,58.212 37.2589,60.785 38.0409,60.884 C38.4709,60.938 38.9589,59.742 39.3599,58.784 C39.7309,57.899 40.0799,57.064 40.4969,56.687 C42.0729,55.258 44.2319,56.87 45.2689,57.645 L45.3599,57.713 C45.4479,57.779 45.4669,57.904 45.4009,57.992 C45.3349,58.081 45.2099,58.099 45.1219,58.033 L45.0299,57.965 C44.0779,57.253 42.0969,55.774 40.7649,56.982 C40.4139,57.3 40.0659,58.133 39.7289,58.937 C39.2239,60.143 38.7459,61.284 38.0679,61.284" id="Fill-103" fill="#000000"></path>
                    <path d="M55.9283,59.4397 C55.5223,59.4397 55.0103,58.6037 53.8973,56.4687 C53.6113,55.9197 53.3643,55.4467 53.2413,55.2737 C52.9223,54.8247 52.3063,54.4997 51.7423,54.4837 C51.4213,54.4747 50.9603,54.5637 50.5873,55.0327 C50.3443,55.3377 50.1423,55.7017 49.9473,56.0537 C49.4253,56.9927 48.8853,57.9647 47.5093,58.0437 C47.4023,58.0537 47.3043,57.9667 47.2983,57.8567 C47.2913,57.7467 47.3753,57.6517 47.4863,57.6457 C48.6433,57.5787 49.1073,56.7437 49.5973,55.8597 C49.8013,55.4937 50.0113,55.1147 50.2753,54.7837 C50.6513,54.3107 51.1593,54.0687 51.7533,54.0857 C52.4453,54.1047 53.1743,54.4887 53.5673,55.0427 C53.7053,55.2377 53.9463,55.6997 54.2513,56.2837 C54.6733,57.0937 55.5243,58.7267 55.8803,59.0057 C55.9063,58.8817 55.9253,58.5487 55.7923,57.6807 C55.6073,56.4667 54.6853,51.8157 53.6063,48.0367 C53.5753,47.9307 53.6363,47.8197 53.7423,47.7897 C53.8503,47.7597 53.9593,47.8207 53.9903,47.9267 C55.0893,51.7757 55.9953,56.3577 56.1873,57.6207 C56.3993,59.0087 56.2813,59.3397 56.0223,59.4247 C55.9913,59.4347 55.9603,59.4397 55.9283,59.4397" id="Fill-105" fill="#000000"></path>
                    <path d="M61.7666,35.0862 C61.7416,35.0862 61.7166,35.0812 61.6916,35.0712 C61.5896,35.0302 61.5396,34.9142 61.5806,34.8112 C61.7376,34.4242 61.9616,33.5732 62.1776,32.7502 C62.2456,32.4932 62.3116,32.2382 62.3766,31.9992 C62.4056,31.8932 62.5166,31.8302 62.6216,31.8582 C62.7276,31.8872 62.7906,31.9972 62.7626,32.1042 C62.6986,32.3412 62.6316,32.5952 62.5636,32.8522 C62.3446,33.6872 62.1176,34.5512 61.9516,34.9612 C61.9196,35.0392 61.8456,35.0862 61.7666,35.0862" id="Fill-107" fill="#000000"></path>
                    <path d="M48.5264,49.9685 C48.2804,49.9685 48.0334,49.9555 47.7844,49.9285 C41.8634,49.2905 38.9474,43.1155 38.4324,39.1215 C38.4184,39.0115 38.4954,38.9125 38.6044,38.8975 C38.7154,38.8855 38.8144,38.9615 38.8284,39.0705 C39.3084,42.7915 42.1754,48.9235 47.8274,49.5315 C53.4894,50.1405 58.4484,43.2275 59.8424,39.3885 C59.8794,39.2855 59.9934,39.2335 60.0974,39.2695 C60.2014,39.3075 60.2554,39.4215 60.2174,39.5255 C58.8464,43.2995 54.0964,49.9685 48.5264,49.9685" id="Fill-109" fill="#000000"></path>
                    <path d="M50.9331,40.6883 C50.8341,40.6883 50.7481,40.6143 50.7351,40.5143 C50.7221,40.4043 50.7991,40.3043 50.9081,40.2903 C51.8511,40.1713 52.1181,39.8893 52.2361,39.6883 C52.3901,39.4273 52.3501,39.1533 52.2961,38.7723 C52.1971,38.0803 52.0611,37.1313 53.0841,35.6603 C53.1461,35.5693 53.2711,35.5473 53.3611,35.6103 C53.4521,35.6733 53.4751,35.7973 53.4121,35.8883 C52.4791,37.2303 52.5971,38.0543 52.6911,38.7163 C52.7501,39.1243 52.8051,39.5093 52.5801,39.8913 C52.3241,40.3263 51.8081,40.5793 50.9581,40.6873 C50.9501,40.6883 50.9411,40.6883 50.9331,40.6883" id="Fill-111" fill="#000000"></path>
                    <path d="M59.5625,36.0471 C59.5445,36.0471 59.5265,36.0451 59.5095,36.0401 C59.2525,35.9691 58.9235,35.9061 58.5765,35.8391 C57.4965,35.6321 56.2715,35.3971 55.8505,34.7121 C55.6945,34.4581 55.6635,34.1671 55.7555,33.8451 C55.7855,33.7391 55.8965,33.6781 56.0015,33.7081 C56.1075,33.7391 56.1695,33.8491 56.1385,33.9551 C56.0775,34.1681 56.0945,34.3471 56.1905,34.5031 C56.5195,35.0381 57.7015,35.2651 58.6515,35.4471 C59.0075,35.5151 59.3435,35.5801 59.6165,35.6551 C59.7225,35.6851 59.7845,35.7951 59.7545,35.9011 C59.7305,35.9891 59.6495,36.0471 59.5625,36.0471" id="Fill-113" fill="#000000"></path>
                    <path d="M51.0806,33.4886 C50.4306,33.4886 49.5926,33.1586 48.5966,32.7656 C48.0716,32.5596 47.5286,32.3456 46.9396,32.1476 C46.8356,32.1126 46.7786,31.9996 46.8136,31.8946 C46.8496,31.7906 46.9626,31.7356 47.0666,31.7696 C47.6656,31.9696 48.2376,32.1956 48.7426,32.3946 C49.9256,32.8606 50.9466,33.2626 51.4866,33.0116 C51.6786,32.9226 51.8176,32.7446 51.9106,32.4696 C51.9456,32.3656 52.0586,32.3086 52.1636,32.3446 C52.2676,32.3796 52.3236,32.4926 52.2886,32.5966 C52.1606,32.9766 51.9476,33.2386 51.6546,33.3736 C51.4836,33.4536 51.2926,33.4886 51.0806,33.4886" id="Fill-115" fill="#000000"></path>
                    <path d="M37.5445,35.1902 C37.5325,35.1902 37.5215,35.1892 37.5095,35.1872 C34.9985,34.7522 34.0305,31.5302 34.3955,28.7192 C34.4815,28.0562 34.8435,26.4842 36.3485,26.2102 C37.3685,26.0232 38.0495,26.6332 38.5845,27.2532 C38.6565,27.3372 38.6465,27.4632 38.5635,27.5352 C38.4805,27.6062 38.3535,27.5972 38.2815,27.5142 C37.7975,26.9522 37.2365,26.4532 36.4195,26.6022 C35.1735,26.8292 34.8655,28.1942 34.7915,28.7712 C34.4505,31.3972 35.3115,34.4002 37.5785,34.7942 C37.6865,34.8132 37.7595,34.9162 37.7405,35.0242 C37.7245,35.1222 37.6395,35.1902 37.5445,35.1902" id="Fill-117" fill="#000000"></path>
                    <path d="M37.6397,31.7991 C37.5337,31.7991 37.4447,31.7151 37.4407,31.6081 C37.4067,30.7981 36.8247,30.0611 36.3047,29.8441 C36.2027,29.8011 36.1547,29.6841 36.1977,29.5831 C36.2397,29.4811 36.3567,29.4331 36.4587,29.4761 C37.1047,29.7461 37.7977,30.6121 37.8397,31.5911 C37.8437,31.7011 37.7587,31.7941 37.6477,31.7991 L37.6397,31.7991 Z" id="Fill-119" fill="#000000"></path>
                    <path d="M41.9356,29.0071 C41.2066,29.0071 40.4086,28.7001 39.5376,27.8981 C39.4556,27.8231 39.4506,27.6971 39.5246,27.6161 C39.6006,27.5351 39.7266,27.5291 39.8076,27.6041 C42.1046,29.7181 43.8116,27.9871 45.1846,26.5961 L45.3146,26.4651 C46.7156,25.0481 47.9256,23.8231 49.5346,23.6841 C49.6446,23.6711 49.7416,23.7561 49.7506,23.8661 C49.7606,23.9761 49.6786,24.0721 49.5686,24.0821 C48.1066,24.2091 46.9446,25.3841 45.5986,26.7451 L45.4686,26.8771 C44.5316,27.8251 43.3656,29.0071 41.9356,29.0071" id="Fill-121" fill="#000000"></path>
                    <path d="M59.6016,12.6067 C59.5506,12.6067 59.4996,12.5867 59.4606,12.5487 C57.0926,10.1967 53.4336,8.7627 50.1546,8.9027 C48.3476,8.9777 46.9186,9.5287 46.1296,10.4537 C46.0586,10.5377 45.9326,10.5477 45.8486,10.4757 C45.7646,10.4037 45.7546,10.2787 45.8266,10.1947 C46.6866,9.1847 48.2186,8.5837 50.1386,8.5037 C53.5266,8.3577 57.2986,9.8387 59.7426,12.2657 C59.8206,12.3427 59.8216,12.4697 59.7436,12.5477 C59.7046,12.5867 59.6526,12.6067 59.6016,12.6067" id="Fill-123" fill="#000000"></path>
                    <path d="M36.0659,18.6546 C36.0539,18.6546 36.0429,18.6536 36.0309,18.6516 C35.9219,18.6326 35.8499,18.5296 35.8689,18.4206 C36.8729,12.7136 39.9649,10.0076 44.5719,10.8016 C44.6809,10.8206 44.7539,10.9246 44.7349,11.0326 C44.7159,11.1416 44.6129,11.2136 44.5039,11.1956 C38.9209,10.2326 36.9409,14.6306 36.2619,18.4886 C36.2449,18.5866 36.1609,18.6546 36.0659,18.6546" id="Fill-125" fill="#000000"></path>
                    <path d="M35.8399,26.5398 C35.7499,26.5398 35.6679,26.4778 35.6459,26.3858 C35.2369,24.6498 35.1669,22.6018 35.4509,20.7638 C35.4679,20.6558 35.5689,20.5818 35.6789,20.5978 C35.7879,20.6148 35.8629,20.7168 35.8459,20.8258 C35.5689,22.6138 35.6369,24.6068 36.0349,26.2948 C36.0599,26.4018 35.9929,26.5098 35.8859,26.5348 C35.8709,26.5388 35.8549,26.5398 35.8399,26.5398" id="Fill-127" fill="#000000"></path>
                    <path d="M52.5215,33.8333 C52.4645,33.8333 52.4075,33.8093 52.3685,33.7613 C52.2975,33.6763 52.3095,33.5513 52.3935,33.4803 C52.6505,33.2653 52.9245,32.7603 53.0085,32.5833 C53.0565,32.4833 53.1755,32.4413 53.2745,32.4883 C53.3745,32.5353 53.4165,32.6543 53.3695,32.7543 C53.3555,32.7833 53.0265,33.4713 52.6495,33.7873 C52.6115,33.8183 52.5665,33.8333 52.5215,33.8333" id="Fill-129" fill="#000000"></path>
                    <path d="M35.5796,40.1531 C35.5346,40.1531 35.4886,40.1371 35.4516,40.1061 C35.3666,40.0351 35.3556,39.9091 35.4276,39.8251 C36.7976,38.1991 37.1866,37.1221 37.3706,35.9111 C37.3866,35.8021 37.4896,35.7281 37.5976,35.7441 C37.7066,35.7601 37.7816,35.8621 37.7656,35.9711 C37.5366,37.4821 36.9846,38.5961 35.7326,40.0821 C35.6926,40.1291 35.6366,40.1531 35.5796,40.1531" id="Fill-131" fill="#000000"></path>
                    <path d="M50.92,75.2537 C50.897,75.2537 50.873,75.2497 50.849,75.2407 C50.746,75.2017 50.694,75.0867 50.733,74.9827 L55.325,62.9217 C55.329,62.9077 55.518,62.3277 55.966,62.0477 C56.408,61.7747 57.065,61.8187 57.092,61.8197 L68.828,63.0317 C68.938,63.0437 69.017,63.1417 69.006,63.2517 C68.994,63.3607 68.896,63.4417 68.787,63.4287 L57.057,62.2177 C57.056,62.2177 56.506,62.1827 56.177,62.3877 C55.855,62.5877 55.703,63.0487 55.702,63.0537 L51.107,75.1257 C51.076,75.2047 51.001,75.2537 50.92,75.2537" id="Fill-133" fill="#000000"></path>
                    <g id="Group-137" transform="translate(38.000000, 0.087000)">
                        <mask id="mask-18" fill="white">
                            <use xlink:href="#path-17"></use>
                        </mask>
                        <g id="Clip-136"></g>
                        <path d="M1.1128,9.6237 L1.1128,9.6237 C1.0028,9.6237 0.9128,9.5437 0.9128,9.4337 L0.9348,-0.2713 C0.9348,-0.3813 1.0248,-0.4703 1.1338,-0.4703 L1.1348,-0.4703 C1.2448,-0.4703 1.3338,-0.3803 1.3338,-0.2713 L1.3128,9.4157 C1.3118,9.5247 1.2228,9.6237 1.1128,9.6237" id="Fill-135" fill="#000000" mask="url(#mask-18)"></path>
                    </g>
                    <g id="Group-140" transform="translate(43.000000, 0.087000)">
                        <mask id="mask-20" fill="white">
                            <use xlink:href="#path-19"></use>
                        </mask>
                        <g id="Clip-139"></g>
                        <path d="M1.4126,7.6389 L1.4106,7.6389 C1.3006,7.6379 1.2116,7.5479 1.2126,7.4369 L1.2146,6.9319 L1.2336,-2.0971 C1.2336,-2.2071 1.3226,-2.2961 1.4336,-2.2961 L1.4336,-2.2961 C1.5436,-2.2961 1.6326,-2.2061 1.6326,-2.0961 L1.6126,7.4409 C1.6116,7.5509 1.5216,7.6389 1.4126,7.6389" id="Fill-138" fill="#000000" mask="url(#mask-20)"></path>
                    </g>
                    <g id="Group-143" transform="translate(49.000000, 0.087000)">
                        <mask id="mask-22" fill="white">
                            <use xlink:href="#path-21"></use>
                        </mask>
                        <g id="Clip-142"></g>
                        <path d="M1.0406,6.3166 L1.0396,6.3166 C0.9296,6.3166 0.8406,6.2266 0.8406,6.1166 L0.8636,-2.8874 C0.8636,-2.9974 0.9536,-3.0864 1.0626,-3.0864 L1.0636,-3.0864 C1.1736,-3.0864 1.2636,-2.9964 1.2626,-2.8864 L1.2396,6.1176 C1.2396,6.2276 1.1506,6.3166 1.0406,6.3166" id="Fill-141" fill="#000000" mask="url(#mask-22)"></path>
                    </g>
                    <g id="Group-146" transform="translate(55.000000, 0.087000)">
                        <mask id="mask-24" fill="white">
                            <use xlink:href="#path-23"></use>
                        </mask>
                        <g id="Clip-145"></g>
                        <path d="M0.8272,7.5021 L0.8272,7.5021 C0.7172,7.5021 0.6272,7.4291 0.6272,7.3191 L0.6512,-2.3519 C0.6512,-2.4629 0.7402,-2.5519 0.8502,-2.5519 C0.9612,-2.5519 1.0502,-2.4619 1.0502,-2.3519 L1.0262,7.2861 C1.0262,7.3961 0.9372,7.5021 0.8272,7.5021" id="Fill-144" fill="#000000" mask="url(#mask-24)"></path>
                    </g>
                    <g id="Group-149" transform="translate(60.000000, 0.087000)">
                        <mask id="mask-26" fill="white">
                            <use xlink:href="#path-25"></use>
                        </mask>
                        <g id="Clip-148"></g>
                        <path d="M0.897,11.3102 L0.897,11.3102 C0.786,11.3102 0.697,11.2202 0.697,11.1102 L0.724,-0.6398 C0.725,-0.7498 0.814,-0.8388 0.924,-0.8388 L0.924,-0.8388 C1.035,-0.8388 1.124,-0.7498 1.124,-0.6388 L1.097,11.1112 C1.096,11.2212 1.007,11.3102 0.897,11.3102" id="Fill-147" fill="#000000" mask="url(#mask-26)"></path>
                    </g>
                    <path d="M50.5982,44.865 C50.8052,44.865 51.0082,44.873 51.2642,44.949 C51.4752,45.013 51.6552,45.135 51.8122,45.242 C52.1012,45.439 52.2162,45.497 52.3662,45.388 C52.4192,45.35 52.4752,45.291 52.4392,45.17 C52.3822,44.978 52.1332,44.764 51.8522,44.75 L51.8522,44.75 C50.9582,44.707 50.2572,44.631 49.7672,44.527 C49.3282,44.432 48.9542,44.275 48.5922,44.123 C48.2192,43.966 47.8662,43.818 47.4462,43.734 C47.0632,43.657 46.5082,43.782 46.4312,44.031 C46.4092,44.099 46.4242,44.124 46.4312,44.135 C46.5152,44.272 46.9802,44.349 47.1332,44.375 C47.3782,44.415 47.5172,44.403 47.6792,44.387 C47.8572,44.371 48.0612,44.353 48.4182,44.404 C48.6622,44.438 48.8582,44.511 49.0662,44.587 C49.2652,44.66 49.4902,44.742 49.8012,44.807 C50.0952,44.867 50.3072,44.867 50.5152,44.865 L50.5982,44.865 Z M52.2252,45.843 C51.9872,45.843 51.7722,45.698 51.5882,45.572 C51.4482,45.477 51.3022,45.378 51.1492,45.332 C50.9162,45.262 50.7312,45.263 50.5172,45.264 C50.3012,45.265 50.0552,45.267 49.7212,45.198 C49.3812,45.127 49.1402,45.039 48.9292,44.962 C48.7332,44.889 48.5642,44.827 48.3622,44.799 C48.0512,44.755 47.8802,44.77 47.7152,44.785 C47.5422,44.801 47.3642,44.817 47.0682,44.768 C46.5892,44.689 46.2402,44.587 46.0912,44.344 C46.0372,44.258 45.9872,44.112 46.0492,43.912 C46.2122,43.387 47.0252,43.243 47.5242,43.343 C47.9832,43.434 48.3712,43.597 48.7472,43.755 C49.1082,43.907 49.4492,44.05 49.8512,44.136 C50.3192,44.237 50.9992,44.309 51.8712,44.351 C52.2932,44.372 52.7112,44.681 52.8222,45.056 C52.8972,45.312 52.8142,45.557 52.5992,45.712 C52.4702,45.806 52.3442,45.843 52.2252,45.843 L52.2252,45.843 Z" id="Fill-150" fill="#000000"></path>
                    <path d="M47.4053,34.7268 C47.7113,34.2838 48.2513,34.1118 48.6113,34.3418 C48.9703,34.5728 49.0143,35.1188 48.7093,35.5608 C48.4033,36.0038 47.8633,36.1758 47.5033,35.9458 C47.1433,35.7148 47.0993,35.1688 47.4053,34.7268" id="Fill-152" fill="#000000"></path>
                    <path d="M56.0376,37.1121 C56.3436,36.6901 56.8526,36.5461 57.1756,36.7891 C57.4986,37.0331 57.5126,37.5721 57.2066,37.9941 C56.9006,38.4161 56.3916,38.5601 56.0686,38.3171 C55.7456,38.0731 55.7316,37.5341 56.0376,37.1121" id="Fill-154" fill="#000000"></path>
                    <path d="M46.9229,36.5984 C46.9029,36.5984 46.8819,36.5954 46.8609,36.5884 C46.4969,36.4704 46.2079,35.9784 46.1779,35.6114 C46.1689,35.5014 46.2499,35.4044 46.3599,35.3954 C46.4729,35.3824 46.5669,35.4684 46.5749,35.5774 C46.5939,35.8014 46.7959,36.1474 46.9849,36.2084 C47.0899,36.2424 47.1469,36.3554 47.1129,36.4604 C47.0859,36.5444 47.0069,36.5984 46.9229,36.5984" id="Fill-156" fill="#000000"></path>
                    <path d="M56.5352,39.3831 C56.4852,39.3831 56.4372,39.3801 56.3922,39.3751 C56.2832,39.3621 56.2042,39.2631 56.2172,39.1541 C56.2302,39.0441 56.3312,38.9651 56.4382,38.9781 C56.6682,39.0051 57.0122,38.9331 57.2252,38.7121 C57.3022,38.6331 57.4282,38.6311 57.5072,38.7071 C57.5872,38.7831 57.5892,38.9101 57.5132,38.9891 C57.2302,39.2821 56.8372,39.3831 56.5352,39.3831" id="Fill-158" fill="#000000"></path>
                    <path d="M53.0865,25.4168 C52.4225,25.4168 51.6695,25.2158 50.8085,24.8128 C50.7085,24.7658 50.6655,24.6458 50.7125,24.5468 C50.7595,24.4468 50.8775,24.4038 50.9785,24.4508 C52.1975,25.0228 53.1665,25.1598 53.9395,24.8698 C54.0415,24.8328 54.1575,24.8838 54.1955,24.9868 C54.2345,25.0898 54.1825,25.2048 54.0795,25.2438 C53.7725,25.3588 53.4425,25.4168 53.0865,25.4168" id="Fill-160" fill="#000000"></path>
                    <g id="Group-164" transform="translate(0.000000, 41.087000)">
                        <mask id="mask-28" fill="white">
                            <use xlink:href="#path-27"></use>
                        </mask>
                        <g id="Clip-163"></g>
                        <path d="M10.062,66.5695 C7.394,66.5695 4.918,66.1065 3.163,64.9185 C-1.297,61.8985 1.086,44.2115 1.111,44.0325 C1.373,42.1375 1.645,38.3975 1.935,34.4365 C2.104,32.1265 2.278,29.7375 2.466,27.4685 C2.987,21.1975 4.818,13.3385 7.612,10.9025 C9.6,9.1695 11.913,8.2845 14.362,7.3485 C14.631,7.2455 14.901,7.1425 15.171,7.0375 C19.13,5.5035 24.238,3.1815 28.499,0.9795 C28.592,0.9315 28.707,0.9675 28.754,1.0605 C28.802,1.1535 28.766,1.2675 28.673,1.3155 C24.4,3.5235 19.279,5.8515 15.308,7.3905 C15.037,7.4945 14.767,7.5985 14.497,7.7015 C12.081,8.6255 9.798,9.4985 7.86,11.1885 C5.267,13.4485 3.374,21.1055 2.843,27.4995 C2.655,29.7675 2.481,32.1555 2.312,34.4645 C2.022,38.4305 1.749,42.1775 1.485,44.0845 C1.461,44.2605 -0.893,61.7155 3.375,64.6045 C6.917,67.0035 13.56,66.3385 18.596,64.9165 C21.375,64.1315 25.495,62.7065 28.503,61.6655 L29.734,61.2395 C30.724,60.8995 37.526,57.7135 38.718,56.9345 C38.805,56.8785 38.923,56.9025 38.98,56.9895 C39.037,57.0775 39.012,57.1945 38.925,57.2515 C37.721,58.0375 30.855,61.2545 29.857,61.5975 L28.627,62.0225 C25.614,63.0645 21.488,64.4925 18.698,65.2795 C16.042,66.0295 12.94,66.5695 10.062,66.5695" id="Fill-162" fill="#000000" mask="url(#mask-28)"></path>
                    </g>
                </g>
            </g>
        </g>
    </g>
</svg>