<?xml version="1.0" encoding="UTF-8"?>
<svg width="487px" height="321px" viewBox="0 0 487 321" version="1.1" xmlns="http://www.w3.org/2000/svg" xmlns:xlink="http://www.w3.org/1999/xlink">
    <title>card-03</title>
    <defs>
        <polygon id="path-1" points="0.7937 0.322 34.4887 0.322 34.4887 39.159 0.7937 39.159"></polygon>
        <polygon id="path-3" points="0.0002 0.281620355 23.1322 0.281620355 23.1322 39 0.0002 39"></polygon>
        <polygon id="path-5" points="0.0459 0.1605 166.201072 0.1605 166.201072 128.287 0.0459 128.287"></polygon>
        <polygon id="path-7" points="0.8315 0.0602 144.1815 0.0602 144.1815 80.287 0.8315 80.287"></polygon>
        <polygon id="path-9" points="0.830212641 0.217 33.1874 0.217 33.1874 23.287 0.830212641 23.287"></polygon>
        <polygon id="path-11" points="0.1101867 0.599525883 27.1826203 0.599525883 27.1826203 9.287 0.1101867 9.287"></polygon>
        <polygon id="path-13" points="0.4008 0.3525 1.4008 0.3525 1.4008 2.287 0.4008 2.287"></polygon>
        <polygon id="path-15" points="0.732129963 0.6587 125.140314 0.6587 125.140314 7.287 0.732129963 7.287"></polygon>
        <polygon id="path-17" points="0.816368695 0.139497707 2.81843145 0.139497707 2.81843145 77.287 0.816368695 77.287"></polygon>
        <polygon id="path-19" points="0.654157579 0.899157579 48.453375 0.899157579 48.453375 118.287 0.654157579 118.287"></polygon>
    </defs>
    <g id="Page-1" stroke="none" stroke-width="1" fill="none" fill-rule="evenodd">
        <g id="Desktop-Copy-2" transform="translate(-220.000000, -575.000000)">
            <g id="card-03" transform="translate(220.000000, 575.000000)">
                <rect id="Rectangle-Copy-2" fill="#FFFFFF" x="0" y="0" width="487" height="320" rx="21"></rect>
                <path d="M252.149,92.233 L252.149,90.007 L249.692,90.007 L249.692,84.337 L251.981,84.337 L251.981,82.111 L238.037,82.111 L238.037,84.337 L240.41,84.337 L240.41,90.007 L237.911,90.007 L237.911,92.233 L252.149,92.233 Z M247.046,90.007 L243.056,90.007 L243.056,84.337 L247.046,84.337 L247.046,90.007 Z M253.976,97.567 L253.976,95.32 L236.084,95.32 L236.084,97.567 L253.976,97.567 Z M270.587,100.024 L270.587,80.494 L267.92,80.494 L267.92,100.024 L270.587,100.024 Z M259.541,95.383 C262.103,95.383 264.518,95.278 266.492,94.984 L266.198,92.758 C264.245,93.01 262.082,93.136 260.171,93.136 L258.134,93.136 L258.134,89.608 L264.434,89.608 L264.434,82.006 L255.509,82.006 L255.509,84.253 L261.809,84.253 L261.809,87.445 L255.509,87.445 L255.509,95.383 L259.541,95.383 Z M288.647,100.024 L288.647,80.494 L285.98,80.494 L285.98,100.024 L288.647,100.024 Z M282.977,94.942 L282.977,82.195 L273.506,82.195 L273.506,94.942 L282.977,94.942 Z M280.331,92.695 L276.152,92.695 L276.152,84.442 L280.331,84.442 L280.331,92.695 Z M306.476,91.414 L306.476,80.494 L303.83,80.494 L303.83,84.736 L300.575,84.736 C300.197,82.783 298.433,81.145 295.661,81.145 C292.532,81.145 290.663,83.245 290.663,85.513 L290.663,86.269 C290.663,88.537 292.532,90.637 295.661,90.637 C298.454,90.637 300.26,88.957 300.596,86.962 L303.83,86.962 L303.83,91.414 L306.476,91.414 Z M295.661,88.39 C294.086,88.39 293.183,87.256 293.183,86.206 L293.183,85.576 C293.183,84.526 294.086,83.392 295.661,83.392 C297.236,83.392 298.139,84.526 298.139,85.576 L298.139,86.206 C298.139,87.256 297.236,88.39 295.661,88.39 Z M306.476,100.024 L306.476,92.296 L294.065,92.296 L294.065,100.024 L306.476,100.024 Z M303.851,97.819 L296.69,97.819 L296.69,94.501 L303.851,94.501 L303.851,97.819 Z M329.03,89.776 L329.03,81.523 L316.01,81.523 L316.01,89.776 L329.03,89.776 Z M326.384,87.55 L318.656,87.55 L318.656,83.749 L326.384,83.749 L326.384,87.55 Z M323.864,100.024 L323.864,93.913 L331.466,93.913 L331.466,91.666 L313.574,91.666 L313.574,93.913 L321.197,93.913 L321.197,100.024 L323.864,100.024 Z M347.132,92.044 L347.132,87.256 L349.694,87.256 L349.694,84.946 L347.132,84.946 L347.132,80.494 L344.486,80.494 L344.486,92.044 L347.132,92.044 Z M332.915,91.813 C334.091,90.931 335.141,90.07 336.107,89.23 C336.968,88.474 337.283,88.117 337.409,87.781 L337.43,87.781 C337.535,88.117 338.207,88.621 338.921,89.188 C339.698,89.797 340.622,90.469 341.588,91.141 L343.058,89.293 C342.008,88.579 340.853,87.739 340.034,87.067 C338.9,86.143 338.648,85.408 338.648,84.022 L338.648,81.292 L335.96,81.292 L335.96,84.106 C335.96,85.471 335.393,86.5 334.532,87.277 C333.524,88.201 332.558,88.957 331.34,89.86 L332.915,91.813 Z M341.21,100.612 C344.78,100.612 347.195,99.058 347.195,96.811 L347.195,95.929 C347.195,93.682 344.78,92.128 341.21,92.128 C337.64,92.128 335.225,93.682 335.225,95.929 L335.225,96.811 C335.225,99.058 337.64,100.612 341.21,100.612 Z M341.21,98.449 C339.089,98.449 337.829,97.462 337.829,96.643 L337.829,96.097 C337.829,95.278 339.089,94.291 341.21,94.291 C343.331,94.291 344.591,95.278 344.591,96.097 L344.591,96.643 C344.591,97.462 343.331,98.449 341.21,98.449 Z M371.429,100.024 L371.429,80.494 L368.762,80.494 L368.762,86.374 L364.919,86.374 L364.919,88.684 L368.762,88.684 L368.762,100.024 L371.429,100.024 Z M356.477,95.362 C357.674,94.249 358.493,93.451 359.27,92.632 C359.963,91.918 360.719,91.057 360.845,90.679 L360.887,90.679 C361.034,91.036 361.643,91.729 362.441,92.548 C363.218,93.346 364.142,94.27 365.087,95.152 L366.788,93.367 C365.696,92.38 364.604,91.309 363.701,90.322 C362.441,88.957 362.21,88.033 362.21,86.374 L362.21,81.88 L359.501,81.88 L359.501,86.374 C359.501,88.096 359.102,89.125 357.884,90.469 C356.981,91.456 355.91,92.506 354.734,93.556 L356.477,95.362 Z M389.447,100.024 L389.447,80.494 L386.78,80.494 L386.78,100.024 L389.447,100.024 Z M383.735,94.984 L383.735,82.048 L381.11,82.048 L381.11,86.437 L376.931,86.437 L376.931,82.048 L374.306,82.048 L374.306,94.984 L383.735,94.984 Z M381.11,92.758 L376.931,92.758 L376.931,88.705 L381.11,88.705 L381.11,92.758 Z M393.395,92.758 C395.411,91.624 396.902,90.721 398.036,89.965 C399.086,89.251 399.863,88.726 400.073,88.243 L400.094,88.243 C400.304,88.705 400.955,89.209 402.005,89.923 C403.139,90.679 404.63,91.582 406.646,92.716 L407.927,90.658 C406.394,89.797 404.714,88.81 403.496,87.97 C401.837,86.836 401.354,85.807 401.354,83.98 L401.354,81.817 L398.666,81.817 L398.666,83.98 C398.666,85.807 398.183,86.836 396.524,87.97 C395.306,88.81 393.626,89.797 392.093,90.658 L393.395,92.758 Z M408.956,97.567 L408.956,95.32 L391.064,95.32 L391.064,97.567 L408.956,97.567 Z" id="프리미엄무상서비스" fill="#4B4564" fill-rule="nonzero"></path>
                <g id="Group-13" transform="translate(31.000000, 64.000000)">
                    <path d="M82.2279,22.6284 C81.5599,22.7544 80.8849,22.8184 80.1979,22.8184 L76.5999,22.8434 L76.5999,20.1664 L83.1209,20.1664 C83.3379,19.2444 83.4739,18.2074 83.5269,17.0544 L77.0589,17.0544 L77.0589,14.2924 L87.3169,14.2924 L87.2349,16.1854 C87.1639,17.5244 86.9919,18.7764 86.7209,19.9474 L89.4559,19.9474 L89.4559,13.7504 L92.7559,13.7504 L92.7559,33.3724 C92.7559,33.9694 92.5949,34.4234 92.2699,34.7414 C91.9449,35.0574 91.5579,35.2144 91.1059,35.2144 C90.6549,35.2144 90.2669,35.0514 89.9419,34.7264 C89.6169,34.4004 89.4549,33.9494 89.4549,33.3724 L89.4549,22.8434 L85.7469,22.8434 C84.3749,25.9294 81.9839,28.3934 78.5759,30.2334 C78.3039,30.3974 78.0329,30.4764 77.7629,30.4764 C77.4009,30.4764 77.0989,30.3514 76.8559,30.0974 C76.6119,29.8464 76.4899,29.5404 76.4899,29.1794 C76.4899,28.6894 76.7339,28.2844 77.2219,27.9604 C79.5679,26.3334 81.2359,24.5614 82.2279,22.6284 L82.2279,22.6284 Z M94.7059,33.4544 L94.7059,13.7504 L98.0609,13.7504 L98.0609,33.4544 C98.0609,34.0304 97.8949,34.4784 97.5609,34.7924 C97.2259,35.1104 96.8339,35.2674 96.3839,35.2674 C95.9329,35.2674 95.5409,35.1104 95.2069,34.7924 C94.8719,34.4774 94.7059,34.0294 94.7059,33.4544 L94.7059,33.4544 Z M115.0849,22.6284 C114.7969,24.3584 114.0339,25.7454 112.7979,26.7814 C111.5619,27.8194 110.0329,28.3404 108.2109,28.3404 C106.1529,28.3404 104.4809,27.6774 103.1899,26.3494 C101.8999,25.0234 101.2549,23.3144 101.2549,21.2214 C101.2549,19.1094 101.8999,17.3904 103.1899,16.0654 C104.4809,14.7384 106.1529,14.0754 108.2109,14.0754 C110.0159,14.0754 111.5299,14.5834 112.7579,15.6034 C113.9849,16.6254 114.7509,17.9824 115.0589,19.6764 L118.0369,19.6764 L118.0369,13.7504 L121.6899,13.7504 L121.6899,33.4544 C121.6899,34.0484 121.5089,34.5094 121.1479,34.8344 C120.7869,35.1594 120.3539,35.3214 119.8489,35.3214 C119.3609,35.3214 118.9369,35.1594 118.5779,34.8344 C118.2159,34.5094 118.0369,34.0484 118.0369,33.4544 L118.0369,22.6284 L115.0849,22.6284 Z M111.2969,21.2204 C111.2969,19.8674 111.0119,18.8304 110.4449,18.1074 C109.8749,17.3864 109.1329,17.0244 108.2109,17.0244 C107.3089,17.0244 106.5729,17.3864 106.0059,18.1074 C105.4359,18.8304 105.1519,19.8664 105.1519,21.2214 C105.1519,22.5554 105.4359,23.5854 106.0059,24.3074 C106.5729,25.0284 107.3089,25.3884 108.2109,25.3884 C109.1329,25.3884 109.8749,25.0274 110.4449,24.3074 C111.0119,23.5854 111.2969,22.5554 111.2969,21.2214 L111.2969,21.2204 Z" id="Fill-1" fill="#D71020"></path>
                    <path d="M52.4418,13.6293 L59.4858,32.1833 C59.6438,32.6173 59.7218,32.9523 59.7218,33.1893 C59.7218,34.2943 59.1498,34.9343 58.0058,35.1133 C57.8678,35.1503 57.7398,35.1723 57.6218,35.1723 C56.6148,35.1723 55.9058,34.6393 55.4898,33.5733 L54.0108,29.6963 L46.1688,29.6963 L44.5718,33.7793 C44.2158,34.7273 43.5448,35.2023 42.5588,35.2023 C41.9868,35.2023 41.5038,35.0303 41.1098,34.6853 C40.7138,34.3393 40.5178,33.8903 40.5178,33.3383 C40.5178,33.0623 40.5578,32.8153 40.6348,32.5973 L47.8858,13.6293 L52.4428,13.6293 L52.4418,13.6293 Z M52.8278,26.2353 L51.1108,21.2903 C50.7958,20.3633 50.5198,19.3893 50.2828,18.3623 L50.1928,17.8303 L50.0748,17.8303 C50.0558,18.0843 49.9578,18.5423 49.7788,19.1923 C49.5808,19.9593 49.3648,20.6593 49.1288,21.2903 L47.3228,26.2343 L52.8278,26.2343 L52.8278,26.2353 Z M65.2578,13.7753 L65.2578,33.4053 C65.2578,34.3003 64.8658,34.8923 64.0828,35.1833 C63.8268,35.2913 63.5718,35.3483 63.3168,35.3483 C62.7528,35.3483 62.2908,35.1653 61.9368,34.8003 C61.5818,34.4363 61.4028,33.9713 61.4028,33.4053 L61.4028,13.7763 L65.2578,13.7763 L65.2578,13.7753 Z M72.5578,13.7753 L72.5578,33.4053 C72.5578,34.3003 72.1658,34.8923 71.3828,35.1833 C71.1268,35.2913 70.8718,35.3483 70.6168,35.3483 C70.0518,35.3483 69.5908,35.1653 69.2368,34.8003 C68.8808,34.4363 68.7028,33.9713 68.7028,33.4053 L68.7028,13.7763 L72.5578,13.7763 L72.5578,13.7753 Z" id="Fill-3" fill="#E7680B"></path>
                    <g id="Group-7" transform="translate(4.000000, 0.678300)">
                        <mask id="mask-2" fill="white">
                            <use xlink:href="#path-1"></use>
                        </mask>
                        <g id="Clip-6"></g>
                        <path d="M17.1337,37.785 L17.1337,28.674 C17.1337,26.244 17.8147,24.142 19.5917,23.494 L27.1837,20.791 C27.3757,20.314 27.7287,19.365 27.7007,18.028 C27.6047,13.416 25.0767,10.069 21.5887,8.926 L0.7937,2.426 L6.2177,0.484 C6.5097,0.38 6.8717,0.321 7.1917,0.321 C7.5327,0.321 7.9357,0.391 8.2067,0.479 L29.4207,7.109 C33.1127,8.34 34.4887,12.751 34.4887,15.139 C34.4887,17.076 33.8297,19.311 31.7697,20.061 C29.9397,20.726 24.4467,22.694 24.4467,22.694 C24.2467,23.168 23.9107,24.062 23.9107,26.02 L23.9107,34.231 C23.9107,36.816 22.6657,39.159 20.2777,39.159 C19.2407,39.159 18.0617,38.678 17.1347,37.785" id="Fill-5" fill="#E7690A" mask="url(#mask-2)"></path>
                    </g>
                    <g id="Group-10" transform="translate(0.000000, 3.678300)">
                        <mask id="mask-4" fill="white">
                            <use xlink:href="#path-3"></use>
                        </mask>
                        <g id="Clip-9"></g>
                        <path d="M15.6952,14.0751 C16.7882,15.7341 17.3412,17.8221 17.3412,19.5911 L17.3412,27.2351 C17.3412,31.9651 19.5282,35.8231 23.1322,36.9231 L17.5702,38.8441 C16.4552,39.2301 15.3632,38.8301 14.7042,38.4071 C11.9972,36.6731 10.5672,33.9821 10.5672,29.8491 C10.5672,27.9081 10.5562,25.2511 10.5562,21.8261 C10.5562,19.8731 9.7252,17.5971 8.4422,15.9131 C7.4782,14.6431 6.3632,13.8491 4.9462,13.3431 C2.2092,12.3651 0.0002,8.8131 0.0002,5.3231 C0.0002,2.3221 1.5252,0.4331 3.5542,0.2881 C3.9932,0.2581 4.3622,0.3361 4.7152,0.4431 C5.9212,0.8111 6.8922,1.1441 6.8922,1.1441 C6.2212,4.6161 8.2442,9.9401 12.3252,11.3821 C13.9292,11.9481 14.8772,12.8301 15.6952,14.0751" id="Fill-8" fill="#D71020" mask="url(#mask-4)"></path>
                    </g>
                    <path d="M175.0434,33.8442 L175.0434,30.9292 L196.9714,30.9292 C197.4254,30.9292 197.7844,31.0742 198.0474,31.3652 C198.3114,31.6562 198.4414,32.0012 198.4414,32.4022 C198.4414,32.7992 198.3114,33.1402 198.0474,33.4222 C197.7834,33.7032 197.4254,33.8442 196.9714,33.8442 L175.0434,33.8442 Z M195.6644,24.7192 C196.2804,25.0452 196.5894,25.4992 196.5894,26.0812 C196.5894,26.8622 196.1364,27.2512 195.2274,27.2512 C195.0824,27.2512 194.9284,27.2352 194.7654,27.1982 C193.8744,27.0532 192.5044,26.3632 190.6514,25.1272 C188.5444,23.7112 187.1744,22.3582 186.5394,21.0682 C185.9204,22.3952 184.5954,23.7472 182.5614,25.1272 C180.7814,26.3252 179.3654,27.0242 178.3124,27.2252 C178.1854,27.2432 178.0584,27.2512 177.9314,27.2512 C177.5314,27.2512 177.2054,27.1252 176.9504,26.8712 C176.6964,26.6172 176.5694,26.3182 176.5694,25.9722 C176.5694,25.4082 176.8694,24.9822 177.4674,24.6912 C179.3744,23.7472 180.9364,22.5862 182.1534,21.2042 C183.7874,19.3532 184.6044,17.2642 184.6044,14.9412 L184.6044,13.9052 L188.4724,13.9052 L188.4724,14.9412 C188.4724,17.2822 189.3624,19.4252 191.1424,21.3692 C192.3404,22.6402 193.8484,23.7572 195.6644,24.7192 L195.6644,24.7192 Z M164.3394,29.3232 C162.3234,29.9762 159.9354,30.3032 157.1754,30.3032 C156.6304,30.3032 156.0854,30.2852 155.5414,30.2482 C153.1064,30.1402 151.8904,28.9232 151.8904,26.5992 L151.8904,22.5942 C151.8904,21.1972 152.5994,20.4962 154.0154,20.4962 L159.6814,20.4962 C159.9354,20.4962 160.0624,20.3622 160.0624,20.0882 L160.0624,16.9022 L152.3544,16.9022 L152.3544,14.0142 L163.7114,14.0142 L163.7114,21.1232 C163.7114,22.5402 163.0044,23.2472 161.5874,23.2472 L156.1404,23.2472 C155.7404,23.2472 155.5414,23.4482 155.5414,23.8472 L155.5414,26.0532 C155.5414,26.6712 155.9134,27.0622 156.6574,27.2252 C156.9114,27.2792 157.5474,27.3072 158.5644,27.3072 C160.4164,27.3072 162.1234,27.1152 163.6864,26.7352 C163.8494,26.6792 164.0024,26.6532 164.1474,26.6532 C164.5304,26.6532 164.8374,26.7802 165.0734,27.0342 C165.3104,27.2892 165.4284,27.5892 165.4284,27.9332 C165.4284,28.6232 165.0644,29.0862 164.3394,29.3232 L164.3394,29.3232 Z M164.3394,22.6492 L164.3394,19.6812 L168.0984,19.6812 L168.0984,13.4962 L171.7764,13.4962 L171.7764,33.3262 C171.7764,33.9262 171.5934,34.3882 171.2304,34.7152 C170.8664,35.0422 170.4314,35.2062 169.9224,35.2062 C169.4324,35.2062 169.0054,35.0422 168.6424,34.7152 C168.2794,34.3882 168.0984,33.9262 168.0984,33.3262 L168.0984,22.6492 L164.3394,22.6492 Z M125.9864,26.4622 L125.9864,23.6842 L147.9144,23.6842 C148.3864,23.6842 148.7574,23.8202 149.0314,24.0922 C149.3034,24.3652 149.4394,24.6922 149.4394,25.0732 C149.4394,25.4542 149.3034,25.7812 149.0314,26.0532 C148.7584,26.3252 148.3864,26.4622 147.9144,26.4622 L125.9874,26.4622 L125.9864,26.4622 Z M131.3534,19.2982 L131.3534,16.2472 L128.4384,16.2472 L128.4384,13.5512 L146.6884,13.5512 L146.6884,16.2472 L143.8014,16.2472 L143.8014,19.2972 L145.5444,19.2972 C146.0344,19.2972 146.4114,19.4292 146.6744,19.6942 C146.9384,19.9572 147.0694,20.2702 147.0694,20.6332 C147.0694,20.9972 146.9374,21.3102 146.6744,21.5732 C146.4104,21.8362 146.0344,21.9682 145.5444,21.9682 L128.3284,21.9682 L128.3284,19.2982 L131.3534,19.2982 Z M145.8154,32.7822 C145.8154,33.4732 145.6854,33.9482 145.4224,34.2122 C145.1584,34.4742 144.6634,34.6082 143.9384,34.6082 L133.2324,34.6082 C132.9964,34.6082 132.8774,34.7252 132.8774,34.9612 L132.8774,35.6422 C132.8774,35.9322 133.0424,36.0772 133.3684,36.0772 L145.2724,36.0772 C145.7434,36.0772 146.1114,36.2092 146.3754,36.4732 C146.6394,36.7352 146.7704,37.0402 146.7704,37.3852 C146.7704,37.7292 146.6384,38.0302 146.3744,38.2832 C146.1114,38.5382 145.7434,38.6652 145.2724,38.6652 L131.6254,38.6652 C130.7894,38.6652 130.1894,38.5112 129.8284,38.2022 C129.3914,37.8392 129.1734,37.2222 129.1734,36.3502 L129.1734,33.8172 C129.1734,32.7082 129.7544,32.1562 130.9174,32.1562 L141.7584,32.1562 C141.9934,32.1562 142.1134,32.0452 142.1134,31.8282 L142.1134,31.0662 C142.1134,30.8652 142.0034,30.7662 141.7854,30.7662 L129.3654,30.7662 L129.3654,28.1792 L144.1564,28.1792 C145.2634,28.1792 145.8154,28.7052 145.8154,29.7582 L145.8154,32.7822 Z M134.9484,19.2982 L140.2054,19.2982 L140.2054,16.2472 L134.9484,16.2472 L134.9484,19.2972 L134.9484,19.2982 Z" id="Fill-11" fill="#4B4564"></path>
                </g>
                <path d="M46.746,151.806 L46.746,144.122 L49.874,144.122 L49.874,151.806 L53.682,151.806 L53.682,134.024 L49.874,134.024 L49.874,140.79 L46.746,140.79 L46.746,134.024 L43.006,134.024 L43.006,151.806 L46.746,151.806 Z M33.282,149.97 C34.3473333,149.97 35.3616667,149.788667 36.325,149.426 C37.2883333,149.063333 38.127,148.542 38.841,147.862 C39.555,147.182 40.1216667,146.354667 40.541,145.38 C40.9603333,144.405333 41.17,143.306 41.17,142.082 C41.17,140.858 40.9603333,139.758667 40.541,138.784 C40.1216667,137.809333 39.555,136.987667 38.841,136.319 C38.127,135.650333 37.2883333,135.134667 36.325,134.772 C35.3616667,134.409333 34.3473333,134.228 33.282,134.228 C32.2166667,134.228 31.2023333,134.409333 30.239,134.772 C29.2756667,135.134667 28.437,135.650333 27.723,136.319 C27.009,136.987667 26.4423333,137.809333 26.023,138.784 C25.6036667,139.758667 25.394,140.858 25.394,142.082 C25.394,143.306 25.6036667,144.405333 26.023,145.38 C26.4423333,146.354667 27.009,147.182 27.723,147.862 C28.437,148.542 29.2756667,149.063333 30.239,149.426 C31.2023333,149.788667 32.2166667,149.97 33.282,149.97 Z M33.282,146.774 C32.67,146.774 32.109,146.660667 31.599,146.434 C31.089,146.207333 30.647,145.884333 30.273,145.465 C29.899,145.045667 29.61,144.547 29.406,143.969 C29.202,143.391 29.1,142.762 29.1,142.082 C29.1,140.699333 29.491,139.577333 30.273,138.716 C31.055,137.854667 32.058,137.424 33.282,137.424 C33.894,137.424 34.455,137.537333 34.965,137.764 C35.475,137.990667 35.917,138.308 36.291,138.716 C36.665,139.124 36.9596667,139.617 37.175,140.195 C37.3903333,140.773 37.498,141.402 37.498,142.082 C37.498,142.762 37.3903333,143.391 37.175,143.969 C36.9596667,144.547 36.665,145.045667 36.291,145.465 C35.917,145.884333 35.475,146.207333 34.965,146.434 C34.455,146.660667 33.894,146.774 33.282,146.774 Z M53.342,165.78 L53.342,153.438 L32.738,153.438 L32.738,156.77 L49.534,156.77 L49.534,165.78 L53.342,165.78 Z M82.7285517,151.126 L82.7285517,134.024 L78.9205517,134.024 L78.9205517,140.348 L72.4265517,140.348 L72.4265517,143.68 L78.9205517,143.68 L78.9205517,151.126 L82.7285517,151.126 Z M56.4805517,150.106 C58.7018851,149.97 60.6172184,149.454333 62.2265517,148.559 C63.8358851,147.663667 65.0485517,146.366 65.8645517,144.666 C66.5218851,145.844667 67.4908851,146.870333 68.7715517,147.743 C70.0522184,148.615667 71.5312184,149.301333 73.2085517,149.8 L73.2085517,149.8 L74.8065517,146.808 C73.7865517,146.513333 72.8288851,146.122333 71.9335517,145.635 C71.0382184,145.147667 70.2675517,144.586667 69.6215517,143.952 C68.9755517,143.317333 68.4655517,142.620333 68.0915517,141.861 C67.7175517,141.101667 67.5305517,140.302667 67.5305517,139.464 L67.5305517,139.464 L67.5305517,137.934 L74.0245517,137.934 L74.0245517,134.602 L57.3305517,134.602 L57.3305517,137.934 L63.6545517,137.934 L63.6545517,139.464 C63.5638851,141.776 62.8952184,143.566667 61.6485517,144.836 C60.4018851,146.105333 58.6792184,146.74 56.4805517,146.74 L56.4805517,146.74 L56.4805517,150.106 Z M73.3105517,166.426 C74.4665517,166.426 75.5828851,166.250333 76.6595517,165.899 C77.7362184,165.547667 78.6825517,165.037667 79.4985517,164.369 C80.3145517,163.700333 80.9662184,162.895667 81.4535517,161.955 C81.9408851,161.014333 82.1845517,159.943333 82.1845517,158.742 C82.1845517,157.563333 81.9408851,156.498 81.4535517,155.546 C80.9662184,154.594 80.3145517,153.789333 79.4985517,153.132 C78.6825517,152.474667 77.7362184,151.964667 76.6595517,151.602 C75.5828851,151.239333 74.4665517,151.058 73.3105517,151.058 C72.1545517,151.058 71.0382184,151.233667 69.9615517,151.585 C68.8848851,151.936333 67.9385517,152.446333 67.1225517,153.115 C66.3065517,153.783667 65.6548851,154.594 65.1675517,155.546 C64.6802184,156.498 64.4365517,157.563333 64.4365517,158.742 C64.4365517,159.943333 64.6802184,161.014333 65.1675517,161.955 C65.6548851,162.895667 66.3065517,163.700333 67.1225517,164.369 C67.9385517,165.037667 68.8848851,165.547667 69.9615517,165.899 C71.0382184,166.250333 72.1545517,166.426 73.3105517,166.426 Z M73.3105517,163.196 C72.5852184,163.196 71.9108851,163.094 71.2875517,162.89 C70.6642184,162.686 70.1258851,162.397 69.6725517,162.023 C69.2192184,161.649 68.8622184,161.184333 68.6015517,160.629 C68.3408851,160.073667 68.2105517,159.444667 68.2105517,158.742 C68.2105517,158.039333 68.3408851,157.410333 68.6015517,156.855 C68.8622184,156.299667 69.2192184,155.835 69.6725517,155.461 C70.1258851,155.087 70.6642184,154.798 71.2875517,154.594 C71.9108851,154.39 72.5852184,154.288 73.3105517,154.288 C74.0358851,154.288 74.7102184,154.39 75.3335517,154.594 C75.9568851,154.798 76.4952184,155.087 76.9485517,155.461 C77.4018851,155.835 77.7588851,156.299667 78.0195517,156.855 C78.2802184,157.410333 78.4105517,158.039333 78.4105517,158.742 C78.4105517,159.444667 78.2802184,160.073667 78.0195517,160.629 C77.7588851,161.184333 77.4018851,161.649 76.9485517,162.023 C76.4952184,162.397 75.9568851,162.686 75.3335517,162.89 C74.7102184,163.094 74.0358851,163.196 73.3105517,163.196 Z M120.353655,163.978 L120.353655,148.168 L124.909655,148.168 L124.909655,144.836 L120.353655,144.836 L120.353655,134.024 L116.545655,134.024 L116.545655,163.978 L120.353655,163.978 Z M114.335655,156.804 L114.335655,153.472 L110.935655,153.472 L110.935655,138.41 L113.893655,138.41 L113.893655,135.078 L95.3636552,135.078 L95.3636552,138.41 L98.4916552,138.41 L98.4916552,153.472 L95.0576552,153.472 L95.0576552,156.804 L114.335655,156.804 Z M107.195655,153.472 L102.231655,153.472 L102.231655,138.41 L107.195655,138.41 L107.195655,153.472 Z M150.284207,147.726 L151.406207,144.53 C150.114207,144.348667 148.88454,144.037 147.717207,143.595 C146.549874,143.153 145.524207,142.643 144.640207,142.065 C143.756207,141.487 143.059207,140.869333 142.549207,140.212 C142.039207,139.554667 141.784207,138.931333 141.784207,138.342 L141.784207,138.342 L141.784207,134.024 L135.596207,134.024 L135.596207,137.356 L137.908207,137.356 L137.908207,138.376 C137.908207,138.988 137.760874,139.571667 137.466207,140.127 C137.17154,140.682333 136.78054,141.186667 136.293207,141.64 C135.805874,142.093333 135.25054,142.484333 134.627207,142.813 C134.003874,143.141667 133.374874,143.396667 132.740207,143.578 C131.83354,143.827333 130.94954,143.997333 130.088207,144.088 C129.226874,144.178667 128.60354,144.224 128.218207,144.224 L128.218207,144.224 L128.218207,147.624 C129.21554,147.578667 130.139207,147.499333 130.989207,147.386 C131.839207,147.272667 132.694874,147.091333 133.556207,146.842 C134.75754,146.479333 135.919207,145.992 137.041207,145.38 C138.163207,144.768 139.154874,143.85 140.016207,142.626 C140.40154,143.260667 140.968207,143.855667 141.716207,144.411 C142.464207,144.966333 143.302874,145.465 144.232207,145.907 C145.16154,146.349 146.153207,146.723 147.207207,147.029 C148.261207,147.335 149.286874,147.567333 150.284207,147.726 L150.284207,147.726 Z M153.990207,154.084 L153.990207,150.752 L141.750207,150.752 L141.750207,146.4 L137.942207,146.4 L137.942207,150.752 L125.702207,150.752 L125.702207,154.084 L153.990207,154.084 Z M150.828207,165.44 L150.828207,162.108 L133.352207,162.108 L133.352207,156.464 L129.544207,156.464 L129.544207,165.44 L150.828207,165.44 Z M191.75131,151.772 L191.75131,134.024 L187.94331,134.024 L187.94331,151.772 L191.75131,151.772 Z M184.81531,150.48 L184.81531,147.216 L181.31331,147.216 L181.31331,138.036 L183.99931,138.036 L183.99931,134.772 L166.04731,134.772 L166.04731,138.036 L168.73331,138.036 L168.73331,147.216 L165.74131,147.216 L165.74131,150.48 L184.81531,150.48 Z M177.64131,147.216 L172.40531,147.216 L172.40531,138.036 L177.64131,138.036 L177.64131,147.216 Z M191.58131,165.78 L191.58131,153.438 L171.48731,153.438 L171.48731,156.77 L187.77331,156.77 L187.77331,165.78 L191.58131,165.78 Z M222.327862,150.616 L222.327862,134.024 L218.519862,134.024 L218.519862,140.484 L213.691862,140.484 L213.691862,143.816 L218.519862,143.816 L218.519862,150.616 L222.327862,150.616 Z M204.205862,149.8 C205.361862,149.8 206.449862,149.607333 207.469862,149.222 C208.489862,148.836667 209.379529,148.298333 210.138862,147.607 C210.898195,146.915667 211.498862,146.088333 211.940862,145.125 C212.382862,144.161667 212.603862,143.090667 212.603862,141.912 C212.603862,140.733333 212.382862,139.662333 211.940862,138.699 C211.498862,137.735667 210.898195,136.908333 210.138862,136.217 C209.379529,135.525667 208.489862,134.987333 207.469862,134.602 C206.449862,134.216667 205.361862,134.024 204.205862,134.024 C203.049862,134.024 201.961862,134.216667 200.941862,134.602 C199.921862,134.987333 199.032195,135.525667 198.272862,136.217 C197.513529,136.908333 196.912862,137.735667 196.470862,138.699 C196.028862,139.662333 195.807862,140.733333 195.807862,141.912 C195.807862,143.090667 196.028862,144.161667 196.470862,145.125 C196.912862,146.088333 197.513529,146.915667 198.272862,147.607 C199.032195,148.298333 199.921862,148.836667 200.941862,149.222 C201.961862,149.607333 203.049862,149.8 204.205862,149.8 Z M204.205862,146.604 C203.548529,146.604 202.936529,146.496333 202.369862,146.281 C201.803195,146.065667 201.310195,145.754 200.890862,145.346 C200.471529,144.938 200.142862,144.445 199.904862,143.867 C199.666862,143.289 199.547862,142.637333 199.547862,141.912 C199.547862,141.186667 199.666862,140.535 199.904862,139.957 C200.142862,139.379 200.471529,138.886 200.890862,138.478 C201.310195,138.07 201.803195,137.758333 202.369862,137.543 C202.936529,137.327667 203.548529,137.22 204.205862,137.22 C204.863195,137.22 205.475195,137.327667 206.041862,137.543 C206.608529,137.758333 207.101529,138.07 207.520862,138.478 C207.940195,138.886 208.268862,139.379 208.506862,139.957 C208.744862,140.535 208.863862,141.186667 208.863862,141.912 C208.863862,142.637333 208.744862,143.289 208.506862,143.867 C208.268862,144.445 207.940195,144.938 207.520862,145.346 C207.101529,145.754 206.608529,146.065667 206.041862,146.281 C205.475195,146.496333 204.863195,146.604 204.205862,146.604 Z M222.157862,165.78 L222.157862,152.248 L218.383862,152.248 L218.383862,156.09 L206.007862,156.09 L206.007862,152.248 L202.233862,152.248 L202.233862,165.78 L222.157862,165.78 Z M218.383862,162.516 L206.007862,162.516 L206.007862,159.286 L218.383862,159.286 L218.383862,162.516 Z M259.034966,149.086 L260.326966,146.026 C259.034966,145.776667 257.793966,145.385667 256.603966,144.853 C255.413966,144.320333 254.365632,143.685667 253.458966,142.949 C252.552299,142.212333 251.826966,141.396333 251.282966,140.501 C250.738966,139.605667 250.466966,138.682 250.466966,137.73 L250.466966,137.73 L250.466966,133.99 L244.278966,133.99 L244.278966,137.322 L246.590966,137.322 L246.590966,137.73 C246.590966,138.636667 246.432299,139.469667 246.114966,140.229 C245.797632,140.988333 245.383966,141.662667 244.873966,142.252 C244.363966,142.841333 243.780299,143.345667 243.122966,143.765 C242.465632,144.184333 241.785632,144.518667 241.082966,144.768 C240.198966,145.085333 239.343299,145.300667 238.515966,145.414 C237.688632,145.527333 237.082299,145.584 236.696966,145.584 L236.696966,145.584 L236.696966,149.018 C237.694299,148.972667 238.595299,148.887667 239.399966,148.763 C240.204632,148.638333 241.037632,148.417333 241.898966,148.1 C242.646966,147.828 243.332632,147.527667 243.955966,147.199 C244.579299,146.870333 245.168632,146.490667 245.723966,146.06 C246.279299,145.629333 246.806299,145.142 247.304966,144.598 C247.803632,144.054 248.279632,143.430667 248.732966,142.728 C249.095632,143.476 249.633966,144.195667 250.347966,144.887 C251.061966,145.578333 251.883632,146.213 252.812966,146.791 C253.742299,147.369 254.739632,147.856333 255.804966,148.253 C256.870299,148.649667 257.946966,148.927333 259.034966,149.086 L259.034966,149.086 Z M250.432966,164.658 L250.432966,155.274 L262.672966,155.274 L262.672966,151.942 L234.384966,151.942 L234.384966,155.274 L246.624966,155.274 L246.624966,164.658 L250.432966,164.658 Z M291.787517,163.978 L291.787517,134.024 L287.979517,134.024 L287.979517,163.978 L291.787517,163.978 Z M274.549517,157.076 C275.546851,157.076 276.566851,157.053333 277.609517,157.008 C278.652184,156.962667 279.655184,156.894667 280.618517,156.804 C281.581851,156.713333 282.465851,156.594333 283.270517,156.447 C284.075184,156.299667 284.749517,156.124 285.293517,155.92 L285.293517,155.92 L284.613517,152.792 C283.525517,153.064 282.131517,153.290667 280.431517,153.472 C278.731517,153.653333 276.736851,153.744 274.447517,153.744 L274.447517,153.744 L270.605517,153.744 L270.605517,147.488 L281.655517,147.488 L281.655517,135.078 L266.797517,135.078 L266.797517,138.41 L277.847517,138.41 L277.847517,144.224 L266.797517,144.224 L266.797517,157.076 L274.549517,157.076 Z M53.308,205.978 L53.308,176.024 L49.5,176.024 L49.5,186.394 L46.032,186.394 L46.032,176.024 L42.292,176.024 L42.292,205.4 L46.032,205.4 L46.032,189.726 L49.5,189.726 L49.5,205.978 L53.308,205.978 Z M31.718,198.6 C33.554,198.6 35.2653333,198.509333 36.852,198.328 C38.4386667,198.146667 39.776,197.829333 40.864,197.376 L40.864,197.376 L40.218,194.418 C39.3566667,194.735333 38.28,194.956333 36.988,195.081 C35.696,195.205667 34.268,195.268 32.704,195.268 L32.704,195.268 L31.548,195.268 L31.548,180.41 L39.3,180.41 L39.3,177.078 L24.884,177.078 L24.884,180.41 L27.706,180.41 L27.706,198.6 L31.718,198.6 Z M63.9945517,192.548 C64.9692184,192.548 65.8928851,192.378 66.7655517,192.038 C67.6382184,191.698 68.4088851,191.216333 69.0775517,190.593 C69.7462184,189.969667 70.2788851,189.227333 70.6755517,188.366 C71.0722184,187.504667 71.2705517,186.552667 71.2705517,185.51 C71.2705517,184.784667 71.1742184,184.104667 70.9815517,183.47 C70.7888851,182.835333 70.5225517,182.257333 70.1825517,181.736 L70.1825517,181.736 L72.2225517,181.736 L72.2225517,178.472 L65.9665517,178.472 L65.9665517,174.834 L62.0225517,174.834 L62.0225517,178.472 L55.5285517,178.472 L55.5285517,181.736 L57.7725517,181.736 C57.0698851,182.824 56.7185517,184.082 56.7185517,185.51 C56.7185517,186.552667 56.9168851,187.504667 57.3135517,188.366 C57.7102184,189.227333 58.2428851,189.969667 58.9115517,190.593 C59.5802184,191.216333 60.3508851,191.698 61.2235517,192.038 C62.0962184,192.378 63.0198851,192.548 63.9945517,192.548 Z M84.1905517,193.806 L84.1905517,176.024 L80.3825517,176.024 L80.3825517,182.756 L77.2205517,182.756 L77.2205517,176.024 L73.4125517,176.024 L73.4125517,192.174 L77.2205517,192.174 L77.2205517,186.088 L80.3825517,186.088 L80.3825517,193.806 L84.1905517,193.806 Z M63.9945517,189.42 C63.5185517,189.42 63.0595517,189.335 62.6175517,189.165 C62.1755517,188.995 61.7845517,188.751333 61.4445517,188.434 C61.1045517,188.116667 60.8268851,187.714333 60.6115517,187.227 C60.3962184,186.739667 60.2885517,186.167333 60.2885517,185.51 C60.2885517,184.875333 60.3962184,184.308667 60.6115517,183.81 C60.8268851,183.311333 61.1045517,182.903333 61.4445517,182.586 C61.7845517,182.268667 62.1755517,182.025 62.6175517,181.855 C63.0595517,181.685 63.5185517,181.6 63.9945517,181.6 C64.4705517,181.6 64.9295517,181.685 65.3715517,181.855 C65.8135517,182.025 66.2045517,182.268667 66.5445517,182.586 C66.8845517,182.903333 67.1622184,183.311333 67.3775517,183.81 C67.5928851,184.308667 67.7005517,184.875333 67.7005517,185.51 C67.7005517,186.167333 67.5928851,186.739667 67.3775517,187.227 C67.1622184,187.714333 66.8845517,188.116667 66.5445517,188.434 C66.2045517,188.751333 65.8135517,188.995 65.3715517,189.165 C64.9295517,189.335 64.4705517,189.42 63.9945517,189.42 Z M73.9565517,208.426 C75.1578851,208.426 76.3025517,208.256 77.3905517,207.916 C78.4785517,207.576 79.4418851,207.083 80.2805517,206.437 C81.1192184,205.791 81.7822184,205.009 82.2695517,204.091 C82.7568851,203.173 83.0005517,202.136 83.0005517,200.98 C83.0005517,199.824 82.7568851,198.787 82.2695517,197.869 C81.7822184,196.951 81.1192184,196.169 80.2805517,195.523 C79.4418851,194.877 78.4785517,194.384 77.3905517,194.044 C76.3025517,193.704 75.1578851,193.534 73.9565517,193.534 C72.7552184,193.534 71.6105517,193.704 70.5225517,194.044 C69.4345517,194.384 68.4712184,194.877 67.6325517,195.523 C66.7938851,196.169 66.1308851,196.951 65.6435517,197.869 C65.1562184,198.787 64.9125517,199.824 64.9125517,200.98 C64.9125517,202.136 65.1562184,203.173 65.6435517,204.091 C66.1308851,205.009 66.7938851,205.791 67.6325517,206.437 C68.4712184,207.083 69.4345517,207.576 70.5225517,207.916 C71.6105517,208.256 72.7552184,208.426 73.9565517,208.426 Z M73.9565517,205.196 C72.3925517,205.196 71.1288851,204.816333 70.1655517,204.057 C69.2022184,203.297667 68.7205517,202.272 68.7205517,200.98 C68.7205517,199.688 69.2022184,198.662333 70.1655517,197.903 C71.1288851,197.143667 72.3925517,196.764 73.9565517,196.764 C75.5205517,196.764 76.7842184,197.143667 77.7475517,197.903 C78.7108851,198.662333 79.1925517,199.688 79.1925517,200.98 C79.1925517,202.272 78.7108851,203.297667 77.7475517,204.057 C76.7842184,204.816333 75.5205517,205.196 73.9565517,205.196 Z M122.121655,205.978 L122.121655,176.024 L118.313655,176.024 L118.313655,185 L111.819655,185 L111.819655,188.332 L118.313655,188.332 L118.313655,205.978 L122.121655,205.978 Z M112.941655,198.022 L114.879655,194.996 C113.383655,194.384 112.148322,193.67 111.173655,192.854 C110.198989,192.038 109.433989,191.154 108.878655,190.202 C108.323322,189.25 107.932322,188.258333 107.705655,187.227 C107.478989,186.195667 107.365655,185.17 107.365655,184.15 L107.365655,184.15 L107.365655,176.908 L101.177655,176.908 L101.177655,180.24 L103.489655,180.24 L103.489655,184.116 C103.489655,185.566667 103.398989,186.802 103.217655,187.822 C103.036322,188.842 102.769989,189.714667 102.418655,190.44 C102.067322,191.165333 101.613989,191.777333 101.058655,192.276 C100.503322,192.774667 99.8516552,193.228 99.1036552,193.636 C98.6729885,193.862667 98.1006552,194.061 97.3866552,194.231 C96.6726552,194.401 95.8963218,194.486 95.0576552,194.486 L95.0576552,194.486 L95.0576552,197.852 C95.9189885,197.852 96.7859885,197.778333 97.6586552,197.631 C98.5313218,197.483667 99.2963218,197.274 99.9536552,197.002 C101.313655,196.412667 102.486655,195.693 103.472655,194.843 C104.458655,193.993 105.223655,192.888 105.767655,191.528 C106.311655,192.797333 107.201322,193.993 108.436655,195.115 C109.671989,196.237 111.173655,197.206 112.941655,198.022 L112.941655,198.022 Z M152.766207,205.978 L152.766207,176.024 L148.958207,176.024 L148.958207,205.978 L152.766207,205.978 Z M143.382207,198.736 L143.382207,177.078 L139.608207,177.078 L139.608207,184.592 L130.768207,184.592 L130.768207,177.078 L126.994207,177.078 L126.994207,198.736 L143.382207,198.736 Z M139.608207,195.404 L130.768207,195.404 L130.768207,187.924 L139.608207,187.924 L139.608207,195.404 Z M181.336759,193.738 L182.764759,190.678 C181.472759,190.428667 180.203425,190.020667 178.956759,189.454 C177.710092,188.887333 176.599425,188.218667 175.624759,187.448 C174.650092,186.677333 173.862425,185.838667 173.261759,184.932 C172.661092,184.025333 172.360759,183.107333 172.360759,182.178 L172.360759,182.178 L172.360759,176.67 L166.172759,176.67 L166.172759,180.002 L168.484759,180.002 L168.484759,182.178 C168.484759,183.062 168.326092,183.883667 168.008759,184.643 C167.691425,185.402333 167.277759,186.088 166.767759,186.7 C166.257759,187.312 165.674092,187.839 165.016759,188.281 C164.359425,188.723 163.679425,189.08 162.976759,189.352 C162.523425,189.533333 162.058759,189.675 161.582759,189.777 C161.106759,189.879 160.647759,189.964 160.205759,190.032 C159.763759,190.1 159.361425,190.145333 158.998759,190.168 C158.636092,190.190667 158.364092,190.202 158.182759,190.202 L158.182759,190.202 L158.182759,193.568 C159.180092,193.522667 160.149092,193.437667 161.089759,193.313 C162.030425,193.188333 162.931425,192.967333 163.792759,192.65 C165.288759,192.106 166.626092,191.409 167.804759,190.559 C168.983425,189.709 169.924092,188.604 170.626759,187.244 C170.989425,187.992 171.550425,188.711667 172.309759,189.403 C173.069092,190.094333 173.936092,190.729 174.910759,191.307 C175.885425,191.885 176.928092,192.383667 178.038759,192.803 C179.149425,193.222333 180.248759,193.534 181.336759,193.738 L181.336759,193.738 Z M184.566759,201.66 L184.566759,198.328 L156.278759,198.328 L156.278759,201.66 L184.566759,201.66 Z" id="액정파손픽업수리대행서비스" fill="#0B0B0B" fill-rule="nonzero"></path>
                <g id="Group-135" transform="translate(278.000000, 115.000000)">
                    <g id="Group-125" transform="translate(0.000000, 0.980000)">
                        <g id="Group-3" transform="translate(30.000000, 76.000000)">
                            <mask id="mask-6" fill="white">
                                <use xlink:href="#path-5"></use>
                            </mask>
                            <g id="Clip-2"></g>
                            <path d="M0.0459,48.6555 C0.0459,48.6555 0.4819,45.9055 0.6599,45.1935 C1.5749,41.5315 2.5499,37.4525 3.5259,33.7925 C5.6449,25.8495 11.1329,17.7955 18.4889,13.8715 C25.9999,9.8665 33.9629,7.5925 42.1009,5.1985 C45.9829,4.0555 58.1359,0.1605 58.1359,0.1605 L65.4839,7.0415 C65.4839,7.0415 71.2519,8.7815 75.5919,9.0525 C81.0519,9.3945 85.6689,7.9325 90.7719,6.4025 C93.5879,5.5585 96.1189,1.6305 96.1189,1.6305 C96.1189,1.6305 106.5809,6.9745 112.2459,9.1545 C116.9169,10.9505 126.9629,13.8595 133.0029,17.2095 C136.2049,18.9845 140.7729,24.9015 142.3999,27.5275 C144.8799,31.5255 149.9559,48.3065 153.6129,62.9345 C155.6369,71.0355 158.7669,80.3175 159.7869,84.8135 C160.8059,89.3085 164.1019,102.7965 164.7619,107.2325 C165.4209,111.6685 167.3109,117.9745 165.3009,122.9975 C163.7849,126.7905 161.9069,128.3465 157.7959,129.5815 C153.1439,130.9805 146.1179,131.7495 142.5229,130.8505 C140.1209,130.2495 134.9049,129.8615 133.7119,127.0735 C131.7939,122.5995 137.2609,117.9035 136.3089,113.1385 C135.9189,111.1865 133.7249,109.1885 134.1399,107.1155 C134.2619,106.5105 134.1989,104.7565 135.3369,104.6785 C136.5879,104.5945 140.7239,104.8355 140.7239,104.8355 C140.7239,104.8355 139.6099,100.2475 139.3449,99.5595 C137.5129,94.7935 135.7879,91.6625 133.4709,87.0315 C131.9549,83.9985 130.1469,79.9575 129.0819,76.7575 C128.9069,76.2345 127.3569,71.4465 127.3569,71.4465 C127.3569,71.4465 126.6769,74.5215 126.4299,75.3115 C125.1849,79.2975 122.9209,88.1105 122.9209,88.1105 C122.9209,88.1105 121.3169,94.6095 119.7449,98.5415 C119.3169,99.6105 120.7609,103.3375 119.6839,103.9835 C118.8409,104.4895 117.4689,104.2245 116.5519,104.2245 C114.1629,104.2245 111.7009,104.3935 109.3239,104.2245 C87.0329,102.6325 65.3409,101.0165 44.0289,93.6235 C32.9949,89.7945 22.0959,85.2125 14.1519,76.2755 C12.0919,73.9575 10.6629,72.2475 8.8519,69.7695 C5.2759,64.8785 1.9109,58.6345 0.4189,52.6635 C0.0459,51.1765 0.0459,48.6555 0.0459,48.6555" id="Fill-1" fill="#FF0000" mask="url(#mask-6)"></path>
                        </g>
                        <path d="M9.3159,172.4318 C8.1829,171.7228 7.1649,175.0488 6.5559,176.1438 C6.1879,176.8078 3.6449,183.3698 3.6449,183.3698 L9.0049,181.3018 C9.0049,181.3018 11.7569,173.9598 9.3159,172.4318" id="Fill-4" fill="#FFEDDE"></path>
                        <path d="M163.4898,180.1408 C166.6558,180.9278 168.3798,182.8828 169.6118,185.7338 C171.1348,189.2548 171.7038,193.9878 170.8708,197.7328 C170.5048,199.3798 169.4908,201.2668 168.0568,202.3418 C167.0368,203.1078 164.2728,203.3608 164.2728,203.3608 L157.4798,197.3928 C157.4798,197.3928 159.8498,192.1998 160.5388,188.8958 C160.9688,186.8298 161.0658,179.5388 163.4898,180.1408" id="Fill-6" fill="#FFEDDE"></path>
                        <path d="M88.5015,76.2209 C88.5015,76.2209 89.6085,79.0559 91.2725,80.8849 C92.8145,82.5829 95.6585,83.8089 96.7995,84.3789 C98.5385,85.2489 100.6025,85.9699 103.6445,86.2459 C106.6865,86.5229 113.9055,86.2079 120.2125,83.4659 C123.9985,81.8209 126.1185,77.6299 126.1185,77.6299 C126.1185,77.6299 124.8025,75.9449 124.5245,73.5239 C124.1155,69.9379 125.0095,64.1199 125.0095,64.1199 C125.0095,64.1199 125.8745,59.4189 126.7375,56.9299 C127.6035,54.4409 128.4665,54.1639 128.4665,54.1639 C128.4665,54.1639 132.8525,52.2689 133.8595,48.9089 C134.1315,48.0029 134.3305,45.3889 133.9295,44.4839 C133.4165,43.3299 130.1275,41.4279 129.1335,40.4339 C126.7045,38.0039 127.0735,33.3939 124.1845,30.9169 C120.9285,28.1259 116.3225,26.6389 112.1935,25.7779 C107.3645,24.7719 103.8955,25.4619 99.6305,27.8709 C94.6315,30.6979 86.9115,41.5109 86.9115,41.5109 C86.9115,41.5109 83.7995,42.6349 84.2135,45.9529 C84.3665,47.1759 85.4865,49.7379 86.4755,50.7279 C88.0905,52.3499 89.8155,52.0899 89.8155,52.0899 L93.6185,65.9179 C93.6185,65.9179 93.7895,69.5519 93.0035,71.7669 C92.0275,74.5149 88.5015,76.2209 88.5015,76.2209" id="Fill-8" fill="#FFEDDE"></path>
                        <g id="Group-12" transform="translate(8.000000, 124.000000)">
                            <mask id="mask-8" fill="white">
                                <use xlink:href="#path-7"></use>
                            </mask>
                            <g id="Clip-11"></g>
                            <polygon id="Fill-10" fill="#E1CFBB" mask="url(#mask-8)" points="1.2315 3.8322 2.4055 1.7502 4.9225 1.0882 93.2805 0.0602 103.0765 0.3342 140.1855 3.1402 143.1995 3.7882 144.1815 5.8792 143.6865 84.7202 142.2635 86.7772 103.5195 89.9272 0.8315 87.2482"></polygon>
                        </g>
                        <path d="M163.0112,181.2844 C162.4282,178.6894 161.2642,177.4034 161.2642,177.4034 C161.2642,177.4034 161.8532,174.5624 161.0222,172.0664 C160.5682,170.7054 158.8402,168.5064 157.9842,167.2234 C156.8932,165.5884 155.8092,163.6704 154.0382,162.3554 C152.7992,161.4344 150.6522,160.2094 149.4432,159.7444 C149.0272,159.5844 144.2982,158.2924 143.9912,158.6754 C142.9022,160.0384 143.6342,161.4994 144.3312,162.2644 C145.4362,163.4804 147.7012,164.4964 149.4942,165.7494 C150.7992,166.6604 151.9002,168.0394 151.9002,168.0394 L151.9002,171.0474 C151.9002,171.0474 150.3232,170.7384 149.4252,170.7074 C146.5642,170.6114 144.0072,169.7414 141.4682,169.8834 C140.2302,169.9514 138.2312,170.1214 138.8002,172.1154 C139.1982,173.5074 139.6242,173.8294 141.0322,174.4924 C143.5912,175.6964 151.9002,177.6944 151.9002,177.6944 L151.7552,182.6434 C151.7552,182.6434 146.6462,183.0664 144.7692,183.6144 C144.0362,183.8274 140.8402,184.3404 140.1582,184.6804 C139.5402,184.9904 138.6402,186.0204 138.4612,186.3794 C136.7732,189.7554 145.1562,188.8654 146.4662,188.8054 C147.2682,188.7684 151.7552,188.5624 151.7552,188.5624 L151.7552,192.5904 C151.7552,192.5904 149.0212,193.9604 148.7462,194.0454 C146.8542,194.6274 139.1462,195.6524 141.7602,198.2664 C142.9912,199.4984 148.4472,198.5934 149.9102,198.4604 C151.9282,198.2774 155.8302,196.7634 155.8302,196.7634 C155.8302,196.7634 159.3162,197.1954 159.9542,196.3254 C161.0222,194.8704 163.2262,191.4644 163.5932,187.7864 C163.6612,187.0984 163.5932,183.8814 163.0112,181.2844" id="Fill-13" fill="#FFEDDE"></path>
                        <g id="Group-17" transform="translate(0.000000, 181.000000)">
                            <mask id="mask-10" fill="white">
                                <use xlink:href="#path-9"></use>
                            </mask>
                            <g id="Clip-16"></g>
                            <path d="M8.9204,0.217 C8.9204,0.217 5.1324,1.072 3.6454,2.835 C2.1574,4.596 2.9694,7.265 2.9694,7.265 C2.9694,7.265 0.9744,8.845 0.8384,10.576 C0.6924,12.439 2.5474,15.368 2.5474,15.368 C2.5474,15.368 2.0514,19.409 1.9874,20.427 C1.6794,25.363 0.9064,30.167 4.1924,34.276 C5.6724,36.124 9.2674,36.615 11.4944,37.062 C16.4174,38.045 23.6844,36.84 28.2914,35.035 C32.3844,33.432 33.1874,30.942 33.1874,30.942 L27.6584,30.562 C27.6584,30.562 25.8014,29.393 24.8304,29.169 C21.1464,28.319 16.0734,30.481 12.3064,29.841 C9.9134,29.435 9.0044,27.396 9.0044,27.396 L8.9624,21.994 C8.9624,21.994 11.3364,21.784 11.3254,19.505 C11.3154,17.225 8.9204,12.878 8.9204,12.878 L8.9204,0.217 Z" id="Fill-15" fill="#FFEDDE" mask="url(#mask-10)"></path>
                        </g>
                        <path d="M69.2896,126.6437 C69.2896,126.6437 70.0536,138.1377 69.9676,142.3727 C69.8786,146.7847 70.4506,157.2427 69.6486,157.8887 C69.0236,158.3927 67.4066,154.4787 66.9486,153.8187 C66.2356,152.7897 65.6316,155.9717 64.3696,155.5177 C63.9116,155.3537 62.5216,152.0827 61.1596,151.4957 C60.3076,151.1267 59.0036,154.1817 58.2836,154.8257 C58.0286,155.0527 57.5246,154.9587 57.1256,154.2057 C56.3996,152.8267 55.6736,150.2157 54.9876,150.2407 C53.7716,150.2837 53.4426,152.8577 52.8426,153.3817 C52.0706,154.0547 51.6866,152.6467 51.4466,150.4067 C51.0056,146.2767 51.1126,136.2327 51.1126,136.2327 L50.9406,126.6717 L69.2896,126.6437 Z" id="Fill-18" fill="#FFEDDA"></path>
                        <path d="M134.9663,27.4055 C134.9663,27.4055 135.8653,29.2425 136.0713,30.1715 C136.3933,31.6125 136.6083,32.0335 136.6733,33.4925 C136.8323,37.0865 131.3323,34.2405 127.9823,33.0065 C125.5253,32.1005 122.7963,30.8625 120.9303,30.3095 C119.0633,29.7575 116.9383,28.4255 112.7713,28.0285 C105.8193,27.3655 97.5123,29.6945 90.8533,31.2085 C87.8103,31.8995 82.2293,33.3935 81.9333,33.1445 C80.6193,32.0385 84.3533,27.4735 84.3533,27.4735 C84.3533,27.4735 84.2403,19.4825 84.8713,17.5895 C88.3393,7.1835 100.3473,0.3025 111.3883,1.4085 C121.9503,2.4635 131.3393,9.4025 134.7583,19.6615 C136.0023,23.3925 134.9663,27.4055 134.9663,27.4055" id="Fill-20" fill="#FF0000"></path>
                        <path d="M85.3207199,32.9367 L86.4268,41.7177 C86.4268,41.7177 86.1568,41.4757 87.0828,41.6617 C87.7918,41.8027 89.3318,41.5807 90.1618,39.9897 C90.9908,38.3997 92.3738,34.6657 92.3738,34.6657 C92.3738,34.6657 96.0978,34.0197 97.6288,32.1077 C97.8548,31.8247 100.3538,29.5677 99.9428,29.1567 C99.3128,28.5267 94.2698,30.5517 92.3738,30.9317 C91.3418,31.1387 88.5678,31.8787 87.6148,32.2597 C87.1328,32.4547 85.3068,32.2327 85.3207199,32.9367" id="Fill-22" fill="#4D4D4D"></path>
                        <path d="M123.6265,31.4162 C123.6265,31.4162 124.4375,34.7432 125.3385,36.9622 C126.3245,39.3932 127.4765,40.7822 129.1205,42.0162 C129.9505,42.6392 132.1995,42.2712 132.1995,42.2712 L133.4445,35.2192 C133.4445,35.2192 129.5905,33.7372 128.0565,32.9702 C127.4235,32.6542 123.6265,31.4162 123.6265,31.4162" id="Fill-24" fill="#4D4D4D"></path>
                        <path d="M128.5737,54.673 C128.3757,54.673 128.1897,54.55 128.1197,54.353 C128.0307,54.103 128.1617,53.827 128.4127,53.738 C130.5937,52.962 133.1097,50.905 133.6317,47.459 C133.8507,46.004 133.5527,44.719 132.7907,43.841 C132.1517,43.105 131.2187,42.704 130.1667,42.714 L130.1617,42.714 C129.8977,42.714 129.6827,42.501 129.6807,42.237 C129.6777,41.971 129.8917,41.754 130.1577,41.751 C131.4927,41.74 132.6907,42.257 133.5177,43.209 C134.4687,44.304 134.8457,45.864 134.5837,47.603 C133.9987,51.47 131.1787,53.777 128.7347,54.646 C128.6807,54.664 128.6277,54.673 128.5737,54.673" id="Fill-26" fill="#000000"></path>
                        <path d="M89.23,52.5451 C89.209,52.5451 89.189,52.5441 89.168,52.5411 C86.832,52.2421 85.059,50.5651 84.305,47.9411 C83.606,45.5071 84.031,42.8911 85.293,41.8551 C86.041,41.2411 87.015,41.1951 88.038,41.7231 C88.274,41.8451 88.367,42.1361 88.245,42.3721 C88.124,42.6071 87.834,42.7011 87.596,42.5781 C86.917,42.2291 86.348,42.2341 85.905,42.5991 C84.937,43.3931 84.64,45.6221 85.23,47.6741 C85.535,48.7321 86.54,51.2331 89.291,51.5861 C89.554,51.6201 89.741,51.8611 89.708,52.1251 C89.676,52.3681 89.469,52.5451 89.23,52.5451" id="Fill-28" fill="#000000"></path>
                        <path d="M128.77,49.8576 C128.674,49.8576 128.577,49.8286 128.492,49.7686 C128.275,49.6146 128.224,49.3146 128.378,49.0976 C128.505,48.9186 129.652,47.3296 130.617,46.9336 C130.863,46.8336 131.143,46.9516 131.245,47.1976 C131.345,47.4436 131.227,47.7246 130.981,47.8256 C130.449,48.0436 129.583,49.0636 129.164,49.6546 C129.07,49.7876 128.921,49.8576 128.77,49.8576" id="Fill-30" fill="#000000"></path>
                        <path d="M89.688,51.9611 C89.459,51.9611 89.254,51.7951 89.214,51.5611 C88.986,50.2331 88.802,49.0401 88.599,47.5701 C88.563,47.3071 88.748,47.0651 89.01,47.0271 C89.275,46.9911 89.517,47.1761 89.553,47.4391 C89.754,48.8981 89.937,50.0821 90.164,51.3981 C90.209,51.6591 90.033,51.9081 89.77,51.9531 C89.743,51.9581 89.715,51.9611 89.688,51.9611" id="Fill-32" fill="#000000"></path>
                        <path d="M108.0484,48.2668 C108.0274,48.2668 108.0054,48.2648 107.9834,48.2628 C107.7194,48.2268 107.5344,47.9838 107.5704,47.7198 L107.5784,47.6628 C107.6974,46.7888 107.8104,45.9638 107.5334,45.2878 C107.4334,45.0428 107.5514,44.7618 107.7974,44.6608 C108.0424,44.5598 108.3234,44.6768 108.4254,44.9238 C108.7994,45.8378 108.6634,46.8318 108.5324,47.7938 L108.5254,47.8508 C108.4914,48.0918 108.2854,48.2668 108.0484,48.2668" id="Fill-34" fill="#000000"></path>
                        <path d="M119.1597,45.6164 C119.1387,44.5824 118.4777,43.7574 117.6847,43.7734 C116.8927,43.7904 116.2677,44.6404 116.2887,45.6764 C116.3097,46.7104 116.9697,47.5354 117.7627,47.5194 C118.5557,47.5034 119.1807,46.6514 119.1597,45.6164" id="Fill-36" fill="#000000"></path>
                        <path d="M122.0894,39.8117 C122.0034,39.8117 121.9164,39.7897 121.8384,39.7417 C119.9254,38.5707 116.9434,38.7137 115.1084,39.4427 C114.8604,39.5407 114.5804,39.4197 114.4834,39.1727 C114.3844,38.9257 114.5054,38.6457 114.7524,38.5477 C116.8054,37.7327 120.1614,37.5857 122.3414,38.9187 C122.5684,39.0587 122.6394,39.3547 122.5004,39.5817 C122.4094,39.7297 122.2514,39.8117 122.0894,39.8117" id="Fill-38" fill="#000000"></path>
                        <path d="M101.9273,39.883 C101.8463,39.883 101.7653,39.863 101.6903,39.821 C100.0293,38.879 96.8993,38.8 95.8133,39.674 C95.6063,39.84 95.3023,39.808 95.1363,39.601 C94.9693,39.394 95.0023,39.09 95.2093,38.923 C96.7343,37.695 100.3093,37.93 102.1643,38.983 C102.3963,39.114 102.4773,39.408 102.3463,39.639 C102.2573,39.796 102.0943,39.883 101.9273,39.883" id="Fill-40" fill="#000000"></path>
                        <path d="M91.5601,35.1047 C90.9721,35.1047 90.3601,35.0427 89.7201,34.9097 C89.4601,34.8547 89.2931,34.5987 89.3471,34.3387 C89.4021,34.0787 89.6591,33.9127 89.9171,33.9657 C94.4501,34.9137 97.4701,31.8247 99.9461,28.8537 C100.1171,28.6497 100.4201,28.6227 100.6241,28.7927 C100.8291,28.9627 100.8561,29.2667 100.6861,29.4707 C98.2131,32.4357 95.4031,35.1047 91.5601,35.1047" id="Fill-42" fill="#000000"></path>
                        <path d="M131.9585,42.675 C131.9335,42.675 131.9065,42.673 131.8805,42.668 C131.6175,42.625 131.4395,42.377 131.4825,42.115 C131.6345,41.197 131.8445,40.322 132.0465,39.477 C132.3925,38.038 132.7185,36.679 132.7185,35.277 C132.7185,35.01 132.9345,34.795 133.1995,34.795 C133.4655,34.795 133.6815,35.01 133.6815,35.277 C133.6815,36.793 133.3425,38.206 132.9825,39.701 C132.7845,40.53 132.5785,41.388 132.4335,42.272 C132.3955,42.507 132.1895,42.675 131.9585,42.675" id="Fill-44" fill="#000000"></path>
                        <path d="M86.1118,40.8566 C85.8748,40.8566 85.6678,40.6806 85.6348,40.4396 C85.1148,36.5496 85.0058,34.0856 85.0058,32.7046 C85.0058,32.4386 85.2198,32.2226 85.4868,32.2226 C85.7528,32.2226 85.9678,32.4386 85.9678,32.7046 C85.9678,34.0566 86.0758,36.4746 86.5898,40.3106 C86.6258,40.5756 86.4398,40.8176 86.1758,40.8526 C86.1548,40.8556 86.1328,40.8566 86.1118,40.8566" id="Fill-46" fill="#000000"></path>
                        <path d="M100.7349,45.5754 C100.7139,44.5414 100.0539,43.7164 99.2619,43.7314 C98.4689,43.7484 97.8439,44.5994 97.8659,45.6344 C97.8859,46.6694 98.5469,47.4944 99.3389,47.4774 C100.1309,47.4614 100.7569,46.6094 100.7349,45.5754" id="Fill-48" fill="#000000"></path>
                        <path d="M129.4409,41.008 C129.4309,41.008 129.4209,41.007 129.4119,41.007 C125.9069,40.801 124.6899,36.874 123.5129,33.077 C123.3709,32.616 123.2279,32.155 123.0809,31.7 C122.9999,31.447 123.1379,31.176 123.3909,31.094 C123.6439,31.013 123.9159,31.152 123.9979,31.404 C124.1449,31.863 124.2899,32.328 124.4329,32.792 C125.5619,36.437 126.6289,39.879 129.4679,40.046 C129.7339,40.061 129.9359,40.289 129.9199,40.555 C129.9059,40.811 129.6939,41.008 129.4409,41.008" id="Fill-50" fill="#000000"></path>
                        <path d="M88.313,40.4299 C88.062,40.4299 87.85,40.2349 87.834,39.9809 C87.816,39.7149 88.016,39.4859 88.282,39.4679 C89.838,39.3659 90.844,37.4059 91.038,36.3789 C91.086,36.1179 91.34,35.9469 91.6,35.9949 C91.861,36.0439 92.033,36.2959 91.984,36.5579 C91.767,37.7089 90.55,40.2839 88.345,40.4289 C88.334,40.4299 88.324,40.4299 88.313,40.4299" id="Fill-52" fill="#000000"></path>
                        <path d="M161.1206,178.0441 C161.0886,178.0441 161.0566,178.0411 161.0236,178.0351 C160.7636,177.9821 160.5956,177.7281 160.6476,177.4671 C161.5866,172.8331 159.7976,170.4621 157.9026,167.9511 C157.7566,167.7571 157.6086,167.5621 157.4626,167.3641 C156.9906,166.7311 156.6186,166.1391 156.2596,165.5661 C155.3306,164.0871 154.5986,162.9191 152.7136,161.9821 C151.4126,161.3361 150.2296,160.8071 149.0996,160.3631 L148.7246,160.2141 C147.7266,159.8181 146.5966,159.3691 145.5736,159.1971 C144.4256,159.0031 144.0256,159.2151 143.8906,159.3571 C143.6846,159.5721 143.7246,160.0001 143.7946,160.3211 C144.1726,162.0651 146.3196,163.2681 148.2146,164.3281 C148.9306,164.7301 149.6066,165.1071 150.1426,165.4931 C151.9026,166.7581 153.0306,168.8311 153.8536,170.3451 C154.0366,170.6811 154.2036,170.9871 154.3566,171.2471 C154.4926,171.4761 154.4176,171.7711 154.1876,171.9061 C153.9606,172.0421 153.6646,171.9671 153.5286,171.7371 C153.3696,171.4701 153.1976,171.1521 153.0086,170.8051 C152.2286,169.3731 151.1616,167.4121 149.5806,166.2751 C149.0886,165.9211 148.4346,165.5561 147.7436,165.1681 C145.6716,164.0081 143.3226,162.6921 142.8536,160.5241 C142.6806,159.7271 142.7956,159.1101 143.1936,158.6921 C143.6766,158.1871 144.5066,158.0411 145.7336,158.2481 C146.8566,158.4371 148.0376,158.9051 149.0796,159.3181 L149.4526,159.4671 C150.6086,159.9201 151.8146,160.4611 153.1416,161.1201 C155.2686,162.1781 156.1056,163.5111 157.0746,165.0551 C157.4246,165.6111 157.7856,166.1871 158.2346,166.7891 C158.3806,166.9841 158.5256,167.1791 158.6716,167.3711 C160.6106,169.9411 162.6166,172.5991 161.5916,177.6581 C161.5456,177.8871 161.3446,178.0441 161.1206,178.0441" id="Fill-54" fill="#000000"></path>
                        <path d="M155.0581,182.1633 C154.9991,182.1633 154.9401,182.1523 154.8821,182.1303 C154.6351,182.0333 154.5121,181.7543 154.6091,181.5063 C154.7891,181.0433 154.7871,180.6173 154.6031,180.2033 C154.2241,179.3543 153.1081,178.5793 151.2861,177.8973 C149.6291,177.2773 147.8871,176.8533 146.2031,176.4433 C144.6001,176.0543 142.9431,175.6503 141.3511,175.0783 C139.8421,174.5363 138.1061,173.3153 138.1781,171.6603 C138.2101,170.9283 138.4561,170.3673 138.9101,169.9943 C139.9311,169.1523 141.7361,169.4243 144.0221,169.7653 C144.3881,169.8193 144.7651,169.8763 145.1501,169.9293 C145.8421,170.0243 146.5811,170.0763 147.3641,170.1323 C150.4681,170.3503 154.3321,170.6233 159.0991,173.8823 C159.3191,174.0323 159.3751,174.3313 159.2251,174.5513 C159.0761,174.7703 158.7751,174.8263 158.5561,174.6773 C154.0041,171.5643 150.2861,171.3033 147.2961,171.0923 C146.4971,171.0363 145.7431,170.9823 145.0181,170.8833 C144.6301,170.8293 144.2491,170.7723 143.8791,170.7173 C141.9941,170.4353 140.2131,170.1693 139.5221,170.7383 C139.2861,170.9333 139.1611,171.2483 139.1401,171.7023 C139.0941,172.7563 140.4221,173.7213 141.6761,174.1723 C143.2211,174.7263 144.8521,175.1243 146.4301,175.5083 C148.1421,175.9253 149.9121,176.3553 151.6221,176.9953 C152.3961,177.2843 154.7461,178.1643 155.4821,179.8093 C155.7741,180.4623 155.7821,181.1503 155.5061,181.8563 C155.4321,182.0473 155.2501,182.1633 155.0581,182.1633" id="Fill-56" fill="#000000"></path>
                        <path d="M143.8071,199.1926 C142.4281,199.1926 141.2221,198.9236 140.8481,197.5306 C140.7261,197.0766 140.7841,196.6476 141.0201,196.2566 C141.7611,195.0296 144.1361,194.4916 146.6511,193.9216 L147.2691,193.7806 C150.1421,193.1196 150.7151,192.7636 151.7571,192.1186 L151.8761,192.0456 C152.9411,191.3856 153.9451,190.7646 154.1131,189.7696 C154.1241,189.7006 154.1191,189.6456 154.0511,189.5716 C153.5961,189.0726 151.6941,188.9186 150.8421,188.9786 C150.3681,189.0126 149.9041,189.0486 149.4451,189.0856 C146.7521,189.2966 144.2081,189.4946 140.8161,189.1276 C139.2811,188.9616 137.6571,188.2616 137.7031,186.7976 C137.7471,185.3616 139.2221,184.3186 142.0851,183.6996 C144.0111,183.2816 145.9841,182.9806 147.8911,182.6896 C149.3441,182.4676 150.8451,182.2396 152.3091,181.9606 C153.5581,181.7226 157.1311,181.1896 158.6311,181.5736 C158.8891,181.6386 159.0441,181.9016 158.9781,182.1586 C158.9131,182.4166 158.6501,182.5726 158.3931,182.5056 C157.1651,182.1926 153.8861,182.6406 152.4891,182.9066 C151.0081,183.1886 149.4971,183.4196 148.0361,183.6416 C146.1441,183.9296 144.1861,184.2286 142.2881,184.6396 C139.9811,185.1396 138.6941,185.9176 138.6651,186.8286 C138.6381,187.6916 140.0701,188.0776 140.9191,188.1706 C144.2231,188.5276 146.7231,188.3326 149.3691,188.1256 C149.8301,188.0886 150.2971,188.0516 150.7741,188.0176 C150.8041,188.0166 153.7901,187.8536 154.7631,188.9236 C155.0221,189.2086 155.1251,189.5556 155.0631,189.9286 C154.8231,191.3546 153.5821,192.1216 152.3831,192.8636 L152.2641,192.9366 C151.1721,193.6146 150.5141,194.0226 147.4851,194.7186 L146.8641,194.8606 C144.7591,195.3386 142.3731,195.8786 141.8441,196.7546 C141.7451,196.9196 141.7251,197.0816 141.7791,197.2816 C142.0541,198.3076 143.1601,198.2936 145.0921,198.1776 C145.5341,198.1516 145.9901,198.1246 146.4551,198.1166 C149.1441,198.0706 151.0451,197.8376 152.1071,197.4216 C152.3381,197.3326 152.5671,197.2446 152.7921,197.1576 C155.1061,196.2686 157.1041,195.5026 158.6211,193.4226 C159.1571,192.6906 159.0411,191.8636 158.9091,190.9056 C158.8101,190.1926 158.7071,189.4556 158.8811,188.7086 C159.0791,187.8586 159.5851,187.2196 160.0751,186.6016 C160.5031,186.0606 160.9091,185.5496 161.0781,184.9346 C161.2771,184.2136 161.0131,183.3606 160.7341,182.4556 C160.5211,181.7626 160.3001,181.0466 160.2881,180.3536 C160.2851,180.0886 160.4961,179.8686 160.7621,179.8646 L160.7701,179.8646 C161.0331,179.8646 161.2471,180.0756 161.2511,180.3386 C161.2601,180.8946 161.4521,181.5146 161.6551,182.1716 C161.9611,183.1686 162.2801,184.1996 162.0061,185.1906 C161.7851,185.9946 161.2991,186.6076 160.8291,187.2006 C160.3871,187.7586 159.9681,188.2886 159.8201,188.9256 C159.6861,189.5006 159.7721,190.1186 159.8631,190.7726 C160.0031,191.7906 160.1631,192.9446 159.4001,193.9906 C157.7141,196.2986 155.4921,197.1526 153.1381,198.0566 C152.9131,198.1426 152.6861,198.2296 152.4571,198.3196 C151.2721,198.7826 149.3141,199.0316 146.4721,199.0796 C146.0271,199.0866 145.5801,199.1136 145.1491,199.1386 C144.6991,199.1666 144.2441,199.1926 143.8071,199.1926" id="Fill-58" fill="#000000"></path>
                        <path d="M9.4068,203.2473 C8.8768,203.2473 8.3048,203.0583 7.7288,202.6803 C5.0258,200.9043 3.3668,198.3293 1.4458,195.3483 L1.3138,195.1433 C0.3288,193.6163 0.0558,192.1983 0.5018,190.9293 C1.0958,189.2423 2.9758,187.8603 6.0908,186.8223 C6.3428,186.7383 6.6148,186.8753 6.6988,187.1273 C6.7828,187.3793 6.6468,187.6513 6.3948,187.7363 C3.5768,188.6753 1.8998,189.8563 1.4108,191.2493 C1.0678,192.2233 1.3078,193.3573 2.1228,194.6223 L2.2548,194.8263 C4.1168,197.7163 5.7248,200.2113 8.2578,201.8753 C8.7848,202.2213 9.5408,202.5263 10.1408,202.0063 C10.8958,201.3513 11.1678,199.5863 10.3148,197.7653 C9.8188,196.7053 9.2968,195.9053 8.7918,195.1323 C7.8148,193.6373 6.9708,192.3453 6.8338,189.9143 C6.8188,189.6483 7.0218,189.4213 7.2868,189.4063 C7.5478,189.3873 7.7798,189.5943 7.7948,189.8593 C7.9178,192.0333 8.6588,193.1693 9.5978,194.6053 C10.0968,195.3693 10.6618,196.2353 11.1868,197.3563 C12.1398,199.3913 11.9618,201.7033 10.7708,202.7343 C10.3758,203.0763 9.9098,203.2473 9.4068,203.2473" id="Fill-60" fill="#000000"></path>
                        <path d="M3.8438,184.1662 C3.8128,184.1662 3.7818,184.1632 3.7508,184.1562 C3.4898,184.1052 3.3198,183.8532 3.3708,183.5912 C4.1068,179.8552 5.8338,175.8092 8.5048,171.5632 C8.6468,171.3392 8.9438,171.2712 9.1688,171.4132 C9.3938,171.5552 9.4618,171.8522 9.3198,172.0772 C6.7488,176.1632 5.0188,180.2092 4.3158,183.7772 C4.2708,184.0072 4.0698,184.1662 3.8438,184.1662" id="Fill-62" fill="#000000"></path>
                        <g id="Group-66" transform="translate(1.000000, 195.000000)">
                            <mask id="mask-12" fill="white">
                                <use xlink:href="#path-11"></use>
                            </mask>
                            <g id="Clip-65"></g>
                            <path d="M11.6836,21.55 C11.0596,21.55 10.4146,21.491 9.7276,21.339 C8.7356,21.118 7.2716,20.733 5.9346,20.149 C4.2906,19.43 2.0406,18.446 1.0186,16.81 C-0.3374,14.641 0.1106,10.688 0.5436,6.864 C0.7866,4.718 1.0166,2.692 0.9166,1.112 C0.8996,0.847 1.1016,0.618 1.3666,0.601 C1.6336,0.58 1.8606,0.786 1.8776,1.051 C1.9826,2.715 1.7486,4.783 1.5006,6.973 C1.0856,10.631 0.6576,14.415 1.8356,16.299 C2.6996,17.683 4.8786,18.636 6.3206,19.266 C7.5866,19.82 8.9856,20.188 9.9366,20.399 C11.5626,20.759 12.9216,20.538 14.4956,20.282 C14.8536,20.224 15.2196,20.164 15.5986,20.11 C17.9316,19.777 20.3806,19.405 22.4256,18.856 L22.5696,18.817 C25.9836,17.909 26.2076,17.247 26.2186,17.123 C26.2386,16.884 26.0346,16.494 24.9496,15.998 C23.4086,15.291 21.3736,15.449 19.5796,15.589 C19.2816,15.613 18.9916,15.635 18.7106,15.654 C17.8976,15.705 17.0736,15.842 16.2006,15.987 C14.4776,16.271 12.6956,16.565 10.9656,16.181 C9.6006,15.877 5.4996,13.051 4.5016,10.32 C4.4116,10.071 4.5386,9.794 4.7886,9.702 C5.0386,9.612 5.3156,9.739 5.4066,9.989 C6.2746,12.365 10.1476,15.013 11.1746,15.241 C12.7226,15.585 14.4116,15.306 16.0436,15.036 C16.9016,14.895 17.7886,14.748 18.6486,14.693 C18.9246,14.674 19.2116,14.652 19.5046,14.629 C21.4166,14.481 23.5826,14.312 25.3506,15.122 C25.8276,15.341 27.2786,16.005 27.1776,17.203 C27.0746,18.451 24.9146,19.19 22.8166,19.747 L22.6766,19.785 C20.5786,20.349 18.0966,20.726 15.7346,21.064 C15.3626,21.116 15.0026,21.175 14.6496,21.233 C13.6576,21.394 12.6986,21.55 11.6836,21.55" id="Fill-64" fill="#000000" mask="url(#mask-12)"></path>
                        </g>
                        <path d="M8.9629,194.8683 L8.9479,194.8683 C8.6829,194.8593 8.4729,194.6383 8.48162116,194.3723 L8.5069,189.7803 L8.8489,128.1253 C8.8549,128.0253 8.9769,126.3513 9.9919,125.4923 C10.9929,124.6453 12.7569,124.6983 12.8319,124.7003 L96.8249,123.6023 C96.9269,123.6023 106.3749,123.6333 111.1579,123.8083 C116.1119,123.9913 125.7189,124.7503 125.8159,124.7573 L149.7469,126.8773 C149.8079,126.8833 151.2729,127.0213 152.0289,127.9393 C152.7569,128.8253 152.7309,130.2963 152.727281,130.4613 L152.2359,160.5453 C152.2309,160.8083 152.0159,161.0193 151.7549,161.0193 C151.7519,161.0193 151.7489,161.0193 151.7469,161.0183 C151.4799,161.0143 151.2679,160.7963 151.2729,160.5303 L151.7629,130.4373 C151.7739,130.0823 151.7079,129.0653 151.2849,128.5513 C150.8729,128.0513 149.9719,127.8653 149.6609,127.8363 L125.7349,125.7173 C125.6439,125.7103 116.0559,124.9523 111.1229,124.7703 C106.3549,124.5963 96.9239,124.5653 96.8299,124.5653 L12.8209,125.6623 C12.3939,125.6533 11.2079,125.7253 10.6139,126.2273 C10.0319,126.7203 9.8369,127.7903 9.8109,128.1603 L9.4449,194.3583 C9.4449,194.3623 9.4439,194.3973 9.4439,194.4013 C9.4359,194.6623 9.2219,194.8683 8.9629,194.8683" id="Fill-67" fill="#000000"></path>
                        <g id="Group-71" transform="translate(8.000000, 202.000000)">
                            <mask id="mask-14" fill="white">
                                <use xlink:href="#path-13"></use>
                            </mask>
                            <g id="Clip-70"></g>
                            <path d="M0.8848,7.0285 C0.6188,7.0285 0.4038,6.8125 0.4038,6.5475 L0.4058,6.2105 L0.4348,0.8425 C0.4358,0.5785 0.6518,0.3525 0.9168,0.3525 L0.9178,0.3525 C1.1828,0.3535 1.3978,0.5565 1.3978,0.8225 L1.3968,1.0365 L1.3658,6.5475 C1.3658,6.8125 1.1508,7.0285 0.8848,7.0285" id="Fill-69" fill="#000000" mask="url(#mask-14)"></path>
                        </g>
                        <g id="Group-74" transform="translate(27.000000, 197.000000)">
                            <mask id="mask-16" fill="white">
                                <use xlink:href="#path-15"></use>
                            </mask>
                            <g id="Clip-73"></g>
                            <path d="M83.2183,17.1447 C82.0223,17.1447 81.0703,17.0957 81.0173,17.0927 L1.2013,15.1367 C0.9353,15.1307 0.7253,14.9107 0.732129963,14.6437 C0.7383,14.3777 0.9533,14.1757 1.2253,14.1747 L81.0543,16.1307 C81.0843,16.1317 82.7923,16.2197 84.4793,16.1617 C86.1643,16.1027 87.8803,15.8967 87.8973,15.8947 L121.9973,13.1867 C122.0163,13.1857 122.0333,13.1857 122.0533,13.1857 C122.3453,13.1947 123.2183,13.1237 123.6133,12.6937 C124.0253,12.2447 124.1013,11.2467 124.0953,10.8997 L124.1773,1.1357 C124.1793,0.8717 124.3943,0.6587 124.6583,0.6587 L124.6623,0.6587 C124.9283,0.6607 125.1423,0.8767 125.140314,1.1437 L125.0583,10.8957 C125.0613,11.0487 125.0673,12.5327 124.3223,13.3437 C123.5963,14.1387 122.2983,14.1537 122.0483,14.1487 L87.9933,16.8527 C87.9423,16.8597 86.2403,17.0637 84.5123,17.1237 C84.0703,17.1387 83.6293,17.1447 83.2183,17.1447" id="Fill-72" fill="#000000" mask="url(#mask-16)"></path>
                        </g>
                        <path d="M151.7075,192.7639 L151.7035,192.7639 C151.4375,192.7609 151.2245,192.5439 151.2265,192.2779 L151.2575,188.6099 C151.2595,188.3459 151.4755,188.1319 151.7385,188.1319 L151.7425,188.1319 C152.0085,188.1349 152.2225,188.3519 152.2205,188.6179 L152.1885,192.2849 C152.1865,192.5499 151.9725,192.7639 151.7075,192.7639" id="Fill-75" fill="#000000"></path>
                        <path d="M151.7905,182.8732 C151.7855,182.8732 151.7805,182.8722 151.7755,182.8722 C151.5105,182.8642 151.3015,182.6432 151.3095,182.3762 L151.3115,182.0912 L151.3495,177.6442 C151.3525,177.3802 151.5665,177.1672 151.8305,177.1672 L151.8345,177.1672 C152.1015,177.1692 152.3145,177.3872 152.3115,177.6522 L152.2725,182.3652 C152.2725,182.3692 152.2715,182.4022 152.2715,182.4062 C152.2645,182.6672 152.0495,182.8732 151.7905,182.8732" id="Fill-77" fill="#000000"></path>
                        <path d="M151.8892,171.2531 L151.8852,171.2531 C151.6182,171.2501 151.4052,171.0331 151.4072,170.7671 L151.4272,168.3281 C151.4292,168.0641 151.6452,167.8511 151.9092,167.8511 L151.9122,167.8511 C152.1782,167.8531 152.3932,168.0691 152.3902,168.3361 L152.3702,170.7751 C152.3682,171.0391 152.1532,171.2531 151.8892,171.2531" id="Fill-79" fill="#000000"></path>
                        <path d="M151.2749,128.6711 L151.2629,128.6711 L112.8059,127.7841 L10.7789,126.2921 C10.5139,126.2891 10.3009,126.0691 10.3048446,125.8041 C10.3089,125.5411 10.5239,125.3291 10.7869,125.3291 C10.7889,125.3291 10.7909,125.3291 10.7939,125.3301 L112.8249,126.8211 L151.2859,127.7081 C151.5509,127.7151 151.7619,127.9351 151.755069,128.2001 C151.7499,128.4631 151.5349,128.6711 151.2749,128.6711" id="Fill-81" fill="#000000"></path>
                        <g id="Group-85" transform="translate(110.000000, 127.000000)">
                            <mask id="mask-18" fill="white">
                                <use xlink:href="#path-17"></use>
                            </mask>
                            <g id="Clip-84"></g>
                            <path d="M1.2984,86.6945 L1.2914,86.6945 C1.0264,86.6915 0.8134,86.4725 0.8164,86.2075 L1.8554,0.6155 C1.8594,0.3495 2.0814,0.1225 2.3424,0.1405 C2.6094,0.1435 2.8214,0.3615 2.8184,0.6285 L1.7784,86.2185 C1.7764,86.4825 1.5614,86.6945 1.2984,86.6945" id="Fill-83" fill="#000000" mask="url(#mask-18)"></path>
                        </g>
                        <path d="M153.5659,161.881 C153.5189,161.881 153.4719,161.874 153.4249,161.86 C153.1699,161.782 153.0269,161.514 153.1039,161.259 C154.4329,156.893 156.0629,149.794 157.5009,143.53 C158.2529,140.252 158.9639,137.156 159.5469,134.824 C160.0689,132.74 162.8109,122.204 165.6269,119.388 C165.8149,119.2 166.1199,119.2 166.3079,119.388 C166.4959,119.576 166.4959,119.881 166.3079,120.068 C164.2629,122.113 161.8909,129.421 160.4809,135.058 C159.8999,137.381 159.1909,140.473 158.4399,143.745 C156.9989,150.025 155.3649,157.142 154.0259,161.54 C153.9619,161.747 153.7719,161.881 153.5659,161.881" id="Fill-86" fill="#000000"></path>
                        <path d="M170.1831,178.7482 C169.9581,178.7482 169.7571,178.5902 169.7111,178.3612 C169.2261,175.9292 168.2061,173.9752 167.1281,171.9052 C166.5961,170.8842 166.0461,169.8282 165.5441,168.6822 C164.9491,167.3192 164.2951,165.8882 163.6051,164.3712 C161.0701,158.8072 158.1961,152.5012 156.9811,147.0342 C156.9221,146.7742 157.0861,146.5182 157.3461,146.4602 C157.6061,146.4002 157.8631,146.5652 157.9201,146.8252 C159.1141,152.1932 161.9651,158.4512 164.4811,163.9722 C165.1741,165.4912 165.8281,166.9272 166.4261,168.2962 C166.9151,169.4122 167.4571,170.4532 167.9831,171.4602 C169.0931,173.5922 170.1431,175.6052 170.6561,178.1722 C170.7081,178.4342 170.5391,178.6862 170.2781,178.7382 C170.2461,178.7452 170.2141,178.7482 170.1831,178.7482" id="Fill-88" fill="#000000"></path>
                        <path d="M164.8081,203.6154 C164.7311,203.6154 164.6511,203.5954 164.5781,203.5554 C162.2741,202.2974 160.5201,200.6714 158.9721,199.2374 C158.3681,198.6774 157.7971,198.1474 157.2151,197.6554 C157.0121,197.4844 156.9871,197.1804 157.1581,196.9774 C157.3291,196.7734 157.6331,196.7494 157.8361,196.9214 C158.4351,197.4274 159.0141,197.9634 159.6261,198.5304 C161.2061,199.9954 162.8411,201.5104 165.0391,202.7114 C165.2731,202.8384 165.3591,203.1314 165.2311,203.3644 C165.1441,203.5244 164.9791,203.6154 164.8081,203.6154" id="Fill-90" fill="#000000"></path>
                        <path d="M149.2486,87.8351 C149.1966,87.8351 149.1446,87.8271 149.0926,87.8101 C146.3656,86.8741 134.1186,82.5961 130.1186,80.4681 C123.6386,77.0191 123.2666,74.0791 124.5856,63.9771 C124.6196,63.7131 124.8626,63.5271 125.1246,63.5621 C125.3886,63.5961 125.5736,63.8381 125.5396,64.1021 C124.1786,74.5351 124.8366,76.5651 130.5716,79.6171 C134.5116,81.7131 146.7116,85.9751 149.4046,86.8981 C149.6566,86.9841 149.7906,87.2591 149.7036,87.5101 C149.6356,87.7101 149.4486,87.8351 149.2486,87.8351" id="Fill-92" fill="#000000"></path>
                        <g id="Group-96" transform="translate(148.000000, 86.000000)">
                            <mask id="mask-20" fill="white">
                                <use xlink:href="#path-19"></use>
                            </mask>
                            <g id="Clip-95"></g>
                            <path d="M28.6333,121.4953 C25.7793,121.4953 22.5853,121.1753 19.7283,120.1363 C18.4313,119.6643 14.2423,117.9883 14.7863,116.2503 C14.8653,115.9963 15.1373,115.8533 15.3903,115.9343 C15.6433,116.0143 15.7843,116.2843 15.7053,116.5373 C15.5483,117.0403 17.7033,118.3743 20.0573,119.2313 C25.1093,121.0663 31.3123,120.5633 34.5603,120.1003 C38.9393,119.4743 42.0723,118.3963 43.8743,116.8943 C47.0853,114.2183 48.0523,110.4673 47.2093,103.9483 C45.0223,87.0263 40.4443,71.3693 35.5963,54.7933 C34.2063,50.0383 32.7683,45.1213 31.4043,40.2093 C31.0463,38.9233 30.7043,37.6363 30.3423,36.2723 C28.4273,29.0703 26.4463,21.6243 22.5823,15.6133 C17.7323,8.0673 10.7483,5.4703 2.6603,2.4633 C2.0993,2.2543 1.5343,2.0443 0.9663,1.8313 C0.7173,1.7373 0.5913,1.4603 0.6853,1.2113 C0.7793,0.9623 1.0563,0.8363 1.3053,0.9303 C1.8713,1.1423 2.4363,1.3513 2.9963,1.5603 C10.9023,4.5003 18.3683,7.2763 23.3933,15.0933 C27.3393,21.2293 29.3383,28.7513 31.2733,36.0243 C31.6343,37.3853 31.9763,38.6703 32.3313,39.9513 C33.6953,44.8573 35.1313,49.7713 36.5213,54.5223 C41.3783,71.1363 45.9673,86.8283 48.1643,103.8253 C49.0433,110.6263 47.9453,114.7553 44.4913,117.6343 C42.5233,119.2743 39.3193,120.3933 34.6963,121.0543 C33.1763,121.2703 31.0233,121.4953 28.6333,121.4953" id="Fill-94" fill="#000000" mask="url(#mask-20)"></path>
                        </g>
                        <path d="M169.2437,181.3693 C168.0277,181.3693 167.0247,181.2043 166.2377,181.0743 C165.5687,180.9643 164.9917,180.8703 164.7347,180.9683 C164.4867,181.0623 164.2087,180.9393 164.1127,180.6913 C164.0167,180.4423 164.1407,180.1643 164.3897,180.0683 C164.8897,179.8763 165.5207,179.9803 166.3937,180.1243 C167.7857,180.3533 169.8887,180.7003 172.6567,179.9313 C173.6087,179.6663 174.6827,179.2653 175.8197,178.8423 C179.9527,177.3013 185.0957,175.3833 189.0447,178.3463 C189.2577,178.5053 189.3007,178.8063 189.1407,179.0193 C188.9807,179.2323 188.6807,179.2753 188.4667,179.1163 C184.9387,176.4693 180.2717,178.2093 176.1567,179.7443 C174.9997,180.1763 173.9067,180.5833 172.9147,180.8583 C171.5287,181.2433 170.3057,181.3693 169.2437,181.3693" id="Fill-97" fill="#000000"></path>
                        <path d="M166.1655,181.8635 C166.0925,181.8635 166.0185,181.8465 165.9485,181.8125 C165.9505,181.8135 165.8935,181.8015 165.8235,181.7815 C165.3055,181.6435 164.0945,181.3215 162.5875,180.3165 C162.3655,180.1695 162.3065,179.8705 162.4535,179.6495 C162.6015,179.4275 162.8995,179.3685 163.1215,179.5155 C164.4955,180.4315 165.5995,180.7255 166.0705,180.8505 C166.2225,180.8915 166.3065,180.9145 166.3825,180.9525 C166.6195,181.0715 166.7155,181.3615 166.5955,181.5985 C166.5115,181.7665 166.3415,181.8635 166.1655,181.8635" id="Fill-99" fill="#000000"></path>
                        <path d="M71.9683,81.8127 C71.7593,81.8127 71.5673,81.6757 71.5063,81.4647 C71.4323,81.2097 71.5783,80.9427 71.8343,80.8687 L74.2963,80.1567 C75.0873,79.9217 75.9413,79.6857 76.8443,79.4367 C80.1513,78.5227 84.2663,77.3867 88.3733,75.3817 C92.2853,73.4747 93.2823,71.5547 93.0113,66.4507 C92.9963,66.1847 93.2003,65.9577 93.4663,65.9437 C93.7323,65.9297 93.9583,66.1327 93.9723,66.3987 C94.2633,71.8697 93.0543,74.1707 88.7953,76.2487 C84.6083,78.2917 80.4463,79.4407 77.1013,80.3647 C76.2013,80.6127 75.3533,80.8467 74.5673,81.0817 L72.1033,81.7927 C72.0583,81.8067 72.0123,81.8127 71.9683,81.8127" id="Fill-101" fill="#000000"></path>
                        <path d="M29.978,125.1818 C29.942,125.1818 29.905,125.1778 29.869,125.1688 C29.609,125.1088 29.448,124.8508 29.508,124.5908 C29.689,123.8118 29.913,122.7968 30.171,121.6278 C31.424,115.9438 34.29,106.7338 35.375,102.8718 C39.389,88.5968 61.476,84.1588 72.615,80.6978 C72.869,80.6188 73.138,80.7598 73.217,81.0138 C73.295,81.2678 73.154,81.5378 72.9,81.6178 C61.96,85.0158 42.386,88.6878 36.229,103.3178 C34.724,106.8968 32.354,116.1978 31.111,121.8348 C30.853,123.0088 30.628,124.0278 30.446,124.8088 C30.395,125.0318 30.197,125.1818 29.978,125.1818" id="Fill-103" fill="#000000"></path>
                        <path d="M52.458,124.8664 C52.273,124.8664 52.097,124.7604 52.018,124.5794 C51.152,122.6194 50.619,120.6114 50.055,118.4864 C49.432,116.1404 48.725,113.4814 47.44,110.4194 C47.337,110.1744 47.452,109.8914 47.697,109.7884 C47.943,109.6854 48.225,109.8014 48.328,110.0464 C49.639,113.1694 50.354,115.8624 50.985,118.2394 C51.54,120.3274 52.063,122.3004 52.898,124.1904 C53.006,124.4334 52.895,124.7184 52.652,124.8254 C52.589,124.8534 52.523,124.8664 52.458,124.8664" id="Fill-105" fill="#000000"></path>
                        <path d="M165.5269,203.7697 C164.8489,203.7697 164.1289,203.6487 163.3709,203.4037 C163.1179,203.3227 162.9789,203.0507 163.0599,202.7977 C163.1419,202.5447 163.4119,202.4047 163.6669,202.4877 C167.1189,203.6017 168.8479,201.5467 169.6899,199.6267 C172.0319,194.2837 170.1579,183.9537 165.1059,181.1017 C164.8749,180.9717 164.7939,180.6777 164.9239,180.4467 C165.0539,180.2147 165.3479,180.1327 165.5799,180.2637 C171.1119,183.3857 173.1149,194.2117 170.5719,200.0137 C169.4889,202.4837 167.7369,203.7687 165.5269,203.7697" id="Fill-107" fill="#000000"></path>
                        <path d="M106.7612,86.8986 C105.7722,86.8986 104.7802,86.8536 103.7952,86.7596 C99.1782,86.3196 91.0032,84.4066 88.1192,76.5336 C88.0312,76.2896 88.1442,76.0146 88.3742,75.9196 C88.6042,75.8256 88.8632,75.9456 88.9512,76.1896 C91.6602,83.5856 99.4642,85.3946 103.8742,85.8146 C112.6352,86.6486 122.3082,83.4176 124.9982,78.7556 C125.1272,78.5336 125.4022,78.4626 125.6132,78.5996 C125.8232,78.7366 125.8892,79.0286 125.7602,79.2516 C123.1732,83.7326 115.0362,86.8986 106.7612,86.8986" id="Fill-109" fill="#000000"></path>
                        <path d="M135.2652,28.4982 C135.2442,28.4982 135.2232,28.4972 135.2032,28.4942 C134.9392,28.4602 134.7522,28.2182 134.7862,27.9542 C135.5992,21.6862 133.2522,14.8912 128.5072,9.7772 C121.8562,2.6092 110.3712,-0.0648 100.5802,3.2732 C95.5452,4.9892 91.0202,8.2862 88.1632,12.3202 C85.4732,16.1172 84.2852,21.3982 84.8162,27.1902 C84.8402,27.4552 84.6462,27.6892 84.3812,27.7142 C84.1162,27.7402 83.8812,27.5432 83.8572,27.2782 C83.3042,21.2582 84.5552,15.7482 87.3772,11.7642 C90.3482,7.5682 95.0472,4.1422 100.2702,2.3622 C110.4112,-1.0958 122.3112,1.6852 129.2132,9.1222 C134.1502,14.4422 136.5902,21.5292 135.7422,28.0782 C135.7102,28.3212 135.5032,28.4982 135.2652,28.4982" id="Fill-111" fill="#000000"></path>
                        <path d="M134.7437,27.6574 C134.6647,27.6574 134.5837,27.6374 134.5097,27.5954 C132.2297,26.3224 124.6637,23.2204 115.8257,21.7634 C107.8517,20.4494 96.3897,20.0904 87.0587,25.8404 C86.8327,25.9794 86.5357,25.9084 86.3967,25.6824 C86.2577,25.4564 86.3277,25.1594 86.5547,25.0194 C96.1377,19.1144 107.8477,19.4724 115.9817,20.8134 C125.6657,22.4094 133.1287,25.7204 134.9787,26.7554 C135.2117,26.8854 135.2947,27.1784 135.1647,27.4104 C135.0767,27.5684 134.9127,27.6574 134.7437,27.6574" id="Fill-113" fill="#000000"></path>
                        <path d="M134.7974,35.7551 C132.8604,35.7551 130.2044,34.6911 128.1254,33.6851 C125.2344,32.2861 117.5684,29.2341 114.2224,28.6411 C108.2984,27.5921 104.1434,28.5721 98.8814,29.8151 C97.4784,30.1461 96.0264,30.4881 94.4444,30.8151 C93.2344,31.0651 91.3404,31.5651 89.3344,32.0941 C86.5244,32.8351 83.6184,33.6021 82.4334,33.7121 C81.7074,33.7801 81.3694,33.4721 81.2144,33.2011 C81.0224,32.8641 80.4354,31.8411 83.9754,26.9171 C84.1294,26.7011 84.4304,26.6511 84.6474,26.8071 C84.8624,26.9621 84.9114,27.2631 84.7564,27.4791 C82.2424,30.9761 81.8874,32.4381 82.0504,32.7221 C82.0604,32.7391 82.1484,32.7731 82.3434,32.7531 C83.4494,32.6511 86.3164,31.8941 89.0884,31.1621 C91.1074,30.6301 93.0144,30.1271 94.2504,29.8711 C95.8184,29.5481 97.2634,29.2071 98.6594,28.8771 C103.8174,27.6591 108.2704,26.6091 114.3904,27.6921 C117.8704,28.3101 125.5324,31.3611 128.5454,32.8171 C131.8514,34.4181 134.5284,35.1041 135.7094,34.6541 C135.8514,34.6011 135.9444,34.5051 136.0144,34.3451 C136.5514,33.1121 135.1294,29.6011 134.5234,28.1021 C134.3584,27.6931 134.2274,27.3711 134.1514,27.1511 C134.0654,26.9001 134.1974,26.6251 134.4494,26.5381 C134.7014,26.4521 134.9754,26.5861 135.0624,26.8371 C135.1294,27.0331 135.2624,27.3611 135.4154,27.7401 C136.4704,30.3461 137.5414,33.2501 136.8974,34.7301 C136.7254,35.1231 136.4344,35.4081 136.0534,35.5541 C135.6894,35.6931 135.2644,35.7541 134.7974,35.7551" id="Fill-115" fill="#000000"></path>
                        <path d="M3.1323,188.6252 C2.9163,188.6252 2.7203,188.4792 2.6653,188.2602 C2.2043,186.4142 2.4883,184.8152 3.5093,183.5082 C4.9653,181.6422 7.4973,180.9462 8.7523,180.9462 C9.0173,180.9462 9.2333,181.1622 9.2333,181.4282 C9.2333,181.6942 9.0173,181.9102 8.7523,181.9102 C7.6333,181.9102 5.4353,182.6052 4.2683,184.1012 C3.4393,185.1622 3.2143,186.4832 3.6003,188.0262 C3.6643,188.2842 3.5073,188.5462 3.2493,188.6102 C3.2103,188.6202 3.1713,188.6252 3.1323,188.6252" id="Fill-117" fill="#000000"></path>
                        <path d="M157.1626,197.718 C156.4876,197.718 155.8436,197.514 155.2646,197.111 C155.0456,196.959 154.9906,196.658 155.1426,196.441 C155.2946,196.222 155.5956,196.168 155.8126,196.32 C156.4406,196.756 157.1436,196.866 157.9066,196.645 C159.4176,196.207 160.9476,194.536 161.8986,192.284 C163.7426,187.921 163.1916,182.131 161.7386,178.898 C161.6296,178.656 161.7376,178.369 161.9806,178.261 C162.2236,178.152 162.5086,178.26 162.6166,178.503 C164.1536,181.922 164.7356,188.045 162.7856,192.659 C161.7076,195.21 159.9836,197.046 158.1746,197.57 C157.8326,197.669 157.4936,197.718 157.1626,197.718" id="Fill-119" fill="#000000"></path>
                        <path d="M125.5894,52.2043 C125.5164,52.2043 125.4434,52.1873 125.3734,52.1533 C125.1364,52.0343 125.0394,51.7453 125.1584,51.5073 C125.5584,50.7083 125.8534,49.6833 126.1644,48.5963 C126.7084,46.7053 127.2704,44.7493 128.5024,43.5163 C128.6914,43.3293 128.9954,43.3283 129.1834,43.5163 C129.3714,43.7043 129.3714,44.0103 129.1834,44.1973 C128.1274,45.2543 127.6004,47.0893 127.0904,48.8623 C126.7664,49.9923 126.4594,51.0593 126.0204,51.9373 C125.9354,52.1063 125.7654,52.2043 125.5894,52.2043" id="Fill-121" fill="#000000"></path>
                        <path d="M91.0757,51.1574 C90.8467,51.1574 90.6437,50.9934 90.6017,50.7604 C90.5937,50.7064 89.6467,45.4104 88.5947,43.6554 C88.4577,43.4274 88.5317,43.1314 88.7597,42.9944 C88.9867,42.8574 89.2837,42.9314 89.4207,43.1604 C90.5637,45.0664 91.5117,50.3674 91.5507,50.5924 C91.5967,50.8534 91.4227,51.1034 91.1607,51.1494 C91.1327,51.1554 91.1037,51.1574 91.0757,51.1574" id="Fill-123" fill="#000000"></path>
                    </g>
                    <g id="Group-134" transform="translate(89.000000, 4.980000)">
                        <path d="M20.9761,10.9865 L20.9761,8.5455 C20.9761,7.8945 21.1441,7.3315 21.5821,7.1575 L23.4551,6.4335 C23.5011,6.3055 23.5891,6.0515 23.5811,5.6935 C23.5581,4.4575 22.9351,3.5605 22.0751,3.2555 L16.9481,1.5135 L18.2851,0.9935 C18.3571,0.9655 18.4461,0.9495 18.5251,0.9495 C18.6091,0.9495 18.7081,0.9675 18.7751,0.9915 L24.0061,2.7675 C24.9161,3.0975 25.2551,4.2795 25.2551,4.9195 C25.2551,5.4385 25.0931,6.0375 24.5851,6.2385 C24.1341,6.4165 22.7801,6.9435 22.7801,6.9435 C22.7301,7.0705 22.6481,7.3095 22.6481,7.8345 L22.6481,10.0345 C22.6481,10.7265 22.3401,11.3545 21.7511,11.3545 C21.4961,11.3545 21.2051,11.2255 20.9771,10.9865" id="Fill-126" fill="#FFFFFF"></path>
                        <path d="M19.6353,5.4377 C19.9053,5.8817 20.0413,6.4417 20.0413,6.9157 L20.0413,8.9637 C20.0413,10.2307 20.5803,11.2637 21.4693,11.5587 L20.0973,12.0737 C19.8223,12.1767 19.5533,12.0697 19.3913,11.9567 C18.7233,11.4927 18.3703,10.7717 18.3703,9.6647 C18.3703,9.1437 18.3683,8.4317 18.3683,7.5147 C18.3683,6.9917 18.1633,6.3817 17.8473,5.9297 C17.6103,5.5897 17.3343,5.3767 16.9853,5.2427 C16.3103,4.9797 15.7653,4.0287 15.7653,3.0927 C15.7653,2.2897 16.1413,1.7837 16.6423,1.7447 C16.7493,1.7367 16.8413,1.7567 16.9283,1.7867 C17.2253,1.8847 17.4643,1.9737 17.4643,1.9737 C17.2993,2.9037 17.7983,4.3307 18.8043,4.7157 C19.1993,4.8687 19.4343,5.1047 19.6353,5.4377" id="Fill-128" fill="#FFFFFF"></path>
                        <path d="M0.77,47.9533 C0.77,47.9533 0.49,55.4913 6.249,60.8723 C12.008,66.2533 16.033,68.0233 20.057,67.5473 C24.082,67.0703 33.795,62.5753 35.808,57.2633 C37.82,51.9503 37.7502963,49.8383 37.7502963,49.8383" id="Stroke-130" stroke="#000000" stroke-width="1.009" stroke-linecap="round" stroke-linejoin="round"></path>
                        <path d="M13.9126,54.1418 C13.9126,54.1418 18.1356,58.2628 23.0396,54.7648" id="Stroke-132" stroke="#000000" stroke-linecap="round" stroke-linejoin="round"></path>
                    </g>
                </g>
            </g>
        </g>
    </g>
</svg>