<?xml version="1.0" encoding="UTF-8"?>
<svg width="302px" height="108px" viewBox="0 0 302 108" version="1.1" xmlns="http://www.w3.org/2000/svg" xmlns:xlink="http://www.w3.org/1999/xlink">
    <title>card-03-mobile</title>
    <defs>
        <polygon id="path-1" points="0.453542857 0.1771 19.7078286 0.1771 19.7078286 21.53745 0.453542857 21.53745"></polygon>
        <polygon id="path-3" points="0.000108333333 0.158862764 12.5299417 0.158862764 12.5299417 22 0.000108333333 22"></polygon>
        <polygon id="path-5" points="0.1037 0.7644 83.4864039 0.7644 83.4864039 65.063 0.1037 65.063"></polygon>
        <polygon id="path-7" points="0.4574 0.8021 72.3954 0.8021 72.3954 41.063 0.4574 41.063"></polygon>
        <polygon id="path-9" points="0.442020941 0.4862 16.6801 0.4862 16.6801 12.063 0.442020941 12.063"></polygon>
        <polygon id="path-11" points="0.582657333 0.703047322 14.1692538 0.703047322 14.1692538 5.063 0.582657333 5.063"></polygon>
        <polygon id="path-13" points="0.992 0.0922 1.992 0.0922 1.992 1.063 0.992 1.063"></polygon>
        <polygon id="path-15" points="0.942071898 0.7366 63.375107 0.7366 63.375107 4.063 0.942071898 4.063"></polygon>
        <polygon id="path-17" points="0.638072158 0.34760285 1.64212759 0.34760285 1.64212759 39.063 0.638072158 39.063"></polygon>
        <polygon id="path-19" points="0.625997871 0.153262276 24.6131143 0.153262276 24.6131143 59.063 0.625997871 59.063"></polygon>
    </defs>
    <g id="Page-1" stroke="none" stroke-width="1" fill="none" fill-rule="evenodd">
        <g id="Android" transform="translate(-32.000000, -454.000000)">
            <g id="card-03-mobile" transform="translate(32.000000, 454.000000)">
                <rect id="guide-box-copy" x="0" y="0" width="302" height="108"></rect>
                <path d="M14.718,58.698 L14.718,53.726 L16.742,53.726 L16.742,58.698 L19.206,58.698 L19.206,47.192 L16.742,47.192 L16.742,51.57 L14.718,51.57 L14.718,47.192 L12.298,47.192 L12.298,58.698 L14.718,58.698 Z M6.006,57.51 C6.69533333,57.51 7.35166667,57.3926667 7.975,57.158 C8.59833333,56.9233333 9.141,56.586 9.603,56.146 C10.065,55.706 10.4316667,55.1706667 10.703,54.54 C10.9743333,53.9093333 11.11,53.198 11.11,52.406 C11.11,51.614 10.9743333,50.9026667 10.703,50.272 C10.4316667,49.6413333 10.065,49.1096667 9.603,48.677 C9.141,48.2443333 8.59833333,47.9106667 7.975,47.676 C7.35166667,47.4413333 6.69533333,47.324 6.006,47.324 C5.31666667,47.324 4.66033333,47.4413333 4.037,47.676 C3.41366667,47.9106667 2.871,48.2443333 2.409,48.677 C1.947,49.1096667 1.58033333,49.6413333 1.309,50.272 C1.03766667,50.9026667 0.902,51.614 0.902,52.406 C0.902,53.198 1.03766667,53.9093333 1.309,54.54 C1.58033333,55.1706667 1.947,55.706 2.409,56.146 C2.871,56.586 3.41366667,56.9233333 4.037,57.158 C4.66033333,57.3926667 5.31666667,57.51 6.006,57.51 Z M6.006,55.442 C5.61,55.442 5.247,55.3686667 4.917,55.222 C4.587,55.0753333 4.301,54.8663333 4.059,54.595 C3.817,54.3236667 3.63,54.001 3.498,53.627 C3.366,53.253 3.3,52.846 3.3,52.406 C3.3,51.5113333 3.553,50.7853333 4.059,50.228 C4.565,49.6706667 5.214,49.392 6.006,49.392 C6.402,49.392 6.765,49.4653333 7.095,49.612 C7.425,49.7586667 7.711,49.964 7.953,50.228 C8.195,50.492 8.38566667,50.811 8.525,51.185 C8.66433333,51.559 8.734,51.966 8.734,52.406 C8.734,52.846 8.66433333,53.253 8.525,53.627 C8.38566667,54.001 8.195,54.3236667 7.953,54.595 C7.711,54.8663333 7.425,55.0753333 7.095,55.222 C6.765,55.3686667 6.402,55.442 6.006,55.442 Z M18.986,67.74 L18.986,59.754 L5.654,59.754 L5.654,61.91 L16.522,61.91 L16.522,67.74 L18.986,67.74 Z M37.600828,58.258 L37.600828,47.192 L35.136828,47.192 L35.136828,51.284 L30.934828,51.284 L30.934828,53.44 L35.136828,53.44 L35.136828,58.258 L37.600828,58.258 Z M20.616828,57.598 C22.0541613,57.51 23.2934947,57.1763333 24.334828,56.597 C25.3761613,56.0176667 26.160828,55.178 26.688828,54.078 C27.1141613,54.8406667 27.7411613,55.5043333 28.569828,56.069 C29.3984947,56.6336667 30.3554947,57.0773333 31.440828,57.4 L31.440828,57.4 L32.474828,55.464 C31.814828,55.2733333 31.1951613,55.0203333 30.615828,54.705 C30.0364947,54.3896667 29.537828,54.0266667 29.119828,53.616 C28.701828,53.2053333 28.371828,52.7543333 28.129828,52.263 C27.887828,51.7716667 27.766828,51.2546667 27.766828,50.712 L27.766828,50.712 L27.766828,49.722 L31.968828,49.722 L31.968828,47.566 L21.166828,47.566 L21.166828,49.722 L25.258828,49.722 L25.258828,50.712 C25.2001613,52.208 24.7674947,53.3666667 23.960828,54.188 C23.1541613,55.0093333 22.0394947,55.42 20.616828,55.42 L20.616828,55.42 L20.616828,57.598 Z M31.506828,68.158 C32.254828,68.158 32.9771613,68.0443333 33.673828,67.817 C34.3704947,67.5896667 34.982828,67.2596667 35.510828,66.827 C36.038828,66.3943333 36.4604947,65.8736667 36.775828,65.265 C37.0911613,64.6563333 37.248828,63.9633333 37.248828,63.186 C37.248828,62.4233333 37.0911613,61.734 36.775828,61.118 C36.4604947,60.502 36.038828,59.9813333 35.510828,59.556 C34.982828,59.1306667 34.3704947,58.8006667 33.673828,58.566 C32.9771613,58.3313333 32.254828,58.214 31.506828,58.214 C30.758828,58.214 30.0364947,58.3276667 29.339828,58.555 C28.6431613,58.7823333 28.030828,59.1123333 27.502828,59.545 C26.974828,59.9776667 26.5531613,60.502 26.237828,61.118 C25.9224947,61.734 25.764828,62.4233333 25.764828,63.186 C25.764828,63.9633333 25.9224947,64.6563333 26.237828,65.265 C26.5531613,65.8736667 26.974828,66.3943333 27.502828,66.827 C28.030828,67.2596667 28.6431613,67.5896667 29.339828,67.817 C30.0364947,68.0443333 30.758828,68.158 31.506828,68.158 Z M31.506828,66.068 C31.0374947,66.068 30.6011613,66.002 30.197828,65.87 C29.7944947,65.738 29.4461613,65.551 29.152828,65.309 C28.8594947,65.067 28.6284947,64.7663333 28.459828,64.407 C28.2911613,64.0476667 28.206828,63.6406667 28.206828,63.186 C28.206828,62.7313333 28.2911613,62.3243333 28.459828,61.965 C28.6284947,61.6056667 28.8594947,61.305 29.152828,61.063 C29.4461613,60.821 29.7944947,60.634 30.197828,60.502 C30.6011613,60.37 31.0374947,60.304 31.506828,60.304 C31.9761613,60.304 32.4124947,60.37 32.815828,60.502 C33.2191613,60.634 33.5674947,60.821 33.860828,61.063 C34.1541613,61.305 34.3851613,61.6056667 34.553828,61.965 C34.7224947,62.3243333 34.806828,62.7313333 34.806828,63.186 C34.806828,63.6406667 34.7224947,64.0476667 34.553828,64.407 C34.3851613,64.7663333 34.1541613,65.067 33.860828,65.309 C33.5674947,65.551 33.2191613,65.738 32.815828,65.87 C32.4124947,66.002 31.9761613,66.068 31.506828,66.068 Z M61.146484,66.574 L61.146484,56.344 L64.094484,56.344 L64.094484,54.188 L61.146484,54.188 L61.146484,47.192 L58.682484,47.192 L58.682484,66.574 L61.146484,66.574 Z M57.252484,61.932 L57.252484,59.776 L55.052484,59.776 L55.052484,50.03 L56.966484,50.03 L56.966484,47.874 L44.976484,47.874 L44.976484,50.03 L47.000484,50.03 L47.000484,59.776 L44.778484,59.776 L44.778484,61.932 L57.252484,61.932 Z M52.632484,59.776 L49.420484,59.776 L49.420484,50.03 L52.632484,50.03 L52.632484,59.776 Z M80.113312,56.058 L80.839312,53.99 C80.003312,53.8726667 79.2076453,53.671 78.452312,53.385 C77.6969787,53.099 77.033312,52.769 76.461312,52.395 C75.889312,52.021 75.438312,51.6213333 75.108312,51.196 C74.778312,50.7706667 74.613312,50.3673333 74.613312,49.986 L74.613312,49.986 L74.613312,47.192 L70.609312,47.192 L70.609312,49.348 L72.105312,49.348 L72.105312,50.008 C72.105312,50.404 72.0099787,50.7816667 71.819312,51.141 C71.6286453,51.5003333 71.3756453,51.8266667 71.060312,52.12 C70.7449787,52.4133333 70.3856453,52.6663333 69.982312,52.879 C69.5789787,53.0916667 69.1719787,53.2566667 68.761312,53.374 C68.1746453,53.5353333 67.6026453,53.6453333 67.045312,53.704 C66.4879787,53.7626667 66.0846453,53.792 65.835312,53.792 L65.835312,53.792 L65.835312,55.992 C66.4806453,55.9626667 67.078312,55.9113333 67.628312,55.838 C68.178312,55.7646667 68.7319787,55.6473333 69.289312,55.486 C70.0666453,55.2513333 70.818312,54.936 71.544312,54.54 C72.270312,54.144 72.9119787,53.55 73.469312,52.758 C73.7186453,53.1686667 74.085312,53.5536667 74.569312,53.913 C75.053312,54.2723333 75.5959787,54.595 76.197312,54.881 C76.7986453,55.167 77.440312,55.409 78.122312,55.607 C78.804312,55.805 79.4679787,55.9553333 80.113312,56.058 L80.113312,56.058 Z M82.511312,60.172 L82.511312,58.016 L74.591312,58.016 L74.591312,55.2 L72.127312,55.2 L72.127312,58.016 L64.207312,58.016 L64.207312,60.172 L82.511312,60.172 Z M80.465312,67.52 L80.465312,65.364 L69.157312,65.364 L69.157312,61.712 L66.693312,61.712 L66.693312,67.52 L80.465312,67.52 Z M106.144968,58.676 L106.144968,47.192 L103.680968,47.192 L103.680968,58.676 L106.144968,58.676 Z M101.656968,57.84 L101.656968,55.728 L99.390968,55.728 L99.390968,49.788 L101.128968,49.788 L101.128968,47.676 L89.512968,47.676 L89.512968,49.788 L91.250968,49.788 L91.250968,55.728 L89.314968,55.728 L89.314968,57.84 L101.656968,57.84 Z M97.014968,55.728 L93.626968,55.728 L93.626968,49.788 L97.014968,49.788 L97.014968,55.728 Z M106.034968,67.74 L106.034968,59.754 L93.032968,59.754 L93.032968,61.91 L103.570968,61.91 L103.570968,67.74 L106.034968,67.74 Z M125.529796,57.928 L125.529796,47.192 L123.065796,47.192 L123.065796,51.372 L119.941796,51.372 L119.941796,53.528 L123.065796,53.528 L123.065796,57.928 L125.529796,57.928 Z M113.803796,57.4 C114.551796,57.4 115.255796,57.2753333 115.915796,57.026 C116.575796,56.7766667 117.151463,56.4283333 117.642796,55.981 C118.134129,55.5336667 118.522796,54.9983333 118.808796,54.375 C119.094796,53.7516667 119.237796,53.0586667 119.237796,52.296 C119.237796,51.5333333 119.094796,50.8403333 118.808796,50.217 C118.522796,49.5936667 118.134129,49.0583333 117.642796,48.611 C117.151463,48.1636667 116.575796,47.8153333 115.915796,47.566 C115.255796,47.3166667 114.551796,47.192 113.803796,47.192 C113.055796,47.192 112.351796,47.3166667 111.691796,47.566 C111.031796,47.8153333 110.456129,48.1636667 109.964796,48.611 C109.473463,49.0583333 109.084796,49.5936667 108.798796,50.217 C108.512796,50.8403333 108.369796,51.5333333 108.369796,52.296 C108.369796,53.0586667 108.512796,53.7516667 108.798796,54.375 C109.084796,54.9983333 109.473463,55.5336667 109.964796,55.981 C110.456129,56.4283333 111.031796,56.7766667 111.691796,57.026 C112.351796,57.2753333 113.055796,57.4 113.803796,57.4 Z M113.803796,55.332 C113.378463,55.332 112.982463,55.2623333 112.615796,55.123 C112.249129,54.9836667 111.930129,54.782 111.658796,54.518 C111.387463,54.254 111.174796,53.935 111.020796,53.561 C110.866796,53.187 110.789796,52.7653333 110.789796,52.296 C110.789796,51.8266667 110.866796,51.405 111.020796,51.031 C111.174796,50.657 111.387463,50.338 111.658796,50.074 C111.930129,49.81 112.249129,49.6083333 112.615796,49.469 C112.982463,49.3296667 113.378463,49.26 113.803796,49.26 C114.229129,49.26 114.625129,49.3296667 114.991796,49.469 C115.358463,49.6083333 115.677463,49.81 115.948796,50.074 C116.220129,50.338 116.432796,50.657 116.586796,51.031 C116.740796,51.405 116.817796,51.8266667 116.817796,52.296 C116.817796,52.7653333 116.740796,53.187 116.586796,53.561 C116.432796,53.935 116.220129,54.254 115.948796,54.518 C115.677463,54.782 115.358463,54.9836667 114.991796,55.123 C114.625129,55.2623333 114.229129,55.332 113.803796,55.332 Z M125.419796,67.74 L125.419796,58.984 L122.977796,58.984 L122.977796,61.47 L114.969796,61.47 L114.969796,58.984 L112.527796,58.984 L112.527796,67.74 L125.419796,67.74 Z M122.977796,65.628 L114.969796,65.628 L114.969796,63.538 L122.977796,63.538 L122.977796,65.628 Z M148.481452,56.938 L149.317452,54.958 C148.481452,54.7966667 147.678452,54.5436667 146.908452,54.199 C146.138452,53.8543333 145.460119,53.4436667 144.873452,52.967 C144.286785,52.4903333 143.817452,51.9623333 143.465452,51.383 C143.113452,50.8036667 142.937452,50.206 142.937452,49.59 L142.937452,49.59 L142.937452,47.17 L138.933452,47.17 L138.933452,49.326 L140.429452,49.326 L140.429452,49.59 C140.429452,50.1766667 140.326785,50.7156667 140.121452,51.207 C139.916119,51.6983333 139.648452,52.1346667 139.318452,52.516 C138.988452,52.8973333 138.610785,53.2236667 138.185452,53.495 C137.760119,53.7663333 137.320119,53.9826667 136.865452,54.144 C136.293452,54.3493333 135.739785,54.4886667 135.204452,54.562 C134.669119,54.6353333 134.276785,54.672 134.027452,54.672 L134.027452,54.672 L134.027452,56.894 C134.672785,56.8646667 135.255785,56.8096667 135.776452,56.729 C136.297119,56.6483333 136.836119,56.5053333 137.393452,56.3 C137.877452,56.124 138.321119,55.9296667 138.724452,55.717 C139.127785,55.5043333 139.509119,55.2586667 139.868452,54.98 C140.227785,54.7013333 140.568785,54.386 140.891452,54.034 C141.214119,53.682 141.522119,53.2786667 141.815452,52.824 C142.050119,53.308 142.398452,53.7736667 142.860452,54.221 C143.322452,54.6683333 143.854119,55.079 144.455452,55.453 C145.056785,55.827 145.702119,56.1423333 146.391452,56.399 C147.080785,56.6556667 147.777452,56.8353333 148.481452,56.938 L148.481452,56.938 Z M142.915452,67.014 L142.915452,60.942 L150.835452,60.942 L150.835452,58.786 L132.531452,58.786 L132.531452,60.942 L140.451452,60.942 L140.451452,67.014 L142.915452,67.014 Z M169.27428,66.574 L169.27428,47.192 L166.81028,47.192 L166.81028,66.574 L169.27428,66.574 Z M158.12028,62.108 C158.765613,62.108 159.425613,62.0933333 160.10028,62.064 C160.774947,62.0346667 161.423947,61.9906667 162.04728,61.932 C162.670613,61.8733333 163.242613,61.7963333 163.76328,61.701 C164.283947,61.6056667 164.72028,61.492 165.07228,61.36 L165.07228,61.36 L164.63228,59.336 C163.92828,59.512 163.02628,59.6586667 161.92628,59.776 C160.82628,59.8933333 159.535613,59.952 158.05428,59.952 L158.05428,59.952 L155.56828,59.952 L155.56828,55.904 L162.71828,55.904 L162.71828,47.874 L153.10428,47.874 L153.10428,50.03 L160.25428,50.03 L160.25428,53.792 L153.10428,53.792 L153.10428,62.108 L158.12028,62.108 Z M18.964,92.574 L18.964,73.192 L16.5,73.192 L16.5,79.902 L14.256,79.902 L14.256,73.192 L11.836,73.192 L11.836,92.2 L14.256,92.2 L14.256,82.058 L16.5,82.058 L16.5,92.574 L18.964,92.574 Z M4.994,87.8 C6.182,87.8 7.28933333,87.7413333 8.316,87.624 C9.34266667,87.5066667 10.208,87.3013333 10.912,87.008 L10.912,87.008 L10.494,85.094 C9.93666667,85.2993333 9.24,85.4423333 8.404,85.523 C7.568,85.6036667 6.644,85.644 5.632,85.644 L5.632,85.644 L4.884,85.644 L4.884,76.03 L9.9,76.03 L9.9,73.874 L0.572,73.874 L0.572,76.03 L2.398,76.03 L2.398,87.8 L4.994,87.8 Z M25.478828,83.884 C26.1094947,83.884 26.7071613,83.774 27.271828,83.554 C27.8364947,83.334 28.3351613,83.0223333 28.767828,82.619 C29.2004947,82.2156667 29.5451613,81.7353333 29.801828,81.178 C30.0584947,80.6206667 30.186828,80.0046667 30.186828,79.33 C30.186828,78.8606667 30.1244947,78.4206667 29.999828,78.01 C29.8751613,77.5993333 29.702828,77.2253333 29.482828,76.888 L29.482828,76.888 L30.802828,76.888 L30.802828,74.776 L26.754828,74.776 L26.754828,72.422 L24.202828,72.422 L24.202828,74.776 L20.000828,74.776 L20.000828,76.888 L21.452828,76.888 C20.9981613,77.592 20.770828,78.406 20.770828,79.33 C20.770828,80.0046667 20.8991613,80.6206667 21.155828,81.178 C21.4124947,81.7353333 21.7571613,82.2156667 22.189828,82.619 C22.6224947,83.0223333 23.1211613,83.334 23.685828,83.554 C24.2504947,83.774 24.8481613,83.884 25.478828,83.884 Z M38.546828,84.698 L38.546828,73.192 L36.082828,73.192 L36.082828,77.548 L34.036828,77.548 L34.036828,73.192 L31.572828,73.192 L31.572828,83.642 L34.036828,83.642 L34.036828,79.704 L36.082828,79.704 L36.082828,84.698 L38.546828,84.698 Z M25.478828,81.86 C25.170828,81.86 24.873828,81.805 24.587828,81.695 C24.301828,81.585 24.048828,81.4273333 23.828828,81.222 C23.608828,81.0166667 23.4291613,80.7563333 23.289828,80.441 C23.1504947,80.1256667 23.080828,79.7553333 23.080828,79.33 C23.080828,78.9193333 23.1504947,78.5526667 23.289828,78.23 C23.4291613,77.9073333 23.608828,77.6433333 23.828828,77.438 C24.048828,77.2326667 24.301828,77.075 24.587828,76.965 C24.873828,76.855 25.170828,76.8 25.478828,76.8 C25.786828,76.8 26.083828,76.855 26.369828,76.965 C26.655828,77.075 26.908828,77.2326667 27.128828,77.438 C27.348828,77.6433333 27.5284947,77.9073333 27.667828,78.23 C27.8071613,78.5526667 27.876828,78.9193333 27.876828,79.33 C27.876828,79.7553333 27.8071613,80.1256667 27.667828,80.441 C27.5284947,80.7563333 27.348828,81.0166667 27.128828,81.222 C26.908828,81.4273333 26.655828,81.585 26.369828,81.695 C26.083828,81.805 25.786828,81.86 25.478828,81.86 Z M31.924828,94.158 C32.7021613,94.158 33.442828,94.048 34.146828,93.828 C34.850828,93.608 35.4741613,93.289 36.016828,92.871 C36.5594947,92.453 36.9884947,91.947 37.303828,91.353 C37.6191613,90.759 37.776828,90.088 37.776828,89.34 C37.776828,88.592 37.6191613,87.921 37.303828,87.327 C36.9884947,86.733 36.5594947,86.227 36.016828,85.809 C35.4741613,85.391 34.850828,85.072 34.146828,84.852 C33.442828,84.632 32.7021613,84.522 31.924828,84.522 C31.1474947,84.522 30.406828,84.632 29.702828,84.852 C28.998828,85.072 28.3754947,85.391 27.832828,85.809 C27.2901613,86.227 26.8611613,86.733 26.545828,87.327 C26.2304947,87.921 26.072828,88.592 26.072828,89.34 C26.072828,90.088 26.2304947,90.759 26.545828,91.353 C26.8611613,91.947 27.2901613,92.453 27.832828,92.871 C28.3754947,93.289 28.998828,93.608 29.702828,93.828 C30.406828,94.048 31.1474947,94.158 31.924828,94.158 Z M31.924828,92.068 C30.912828,92.068 30.0951613,91.8223333 29.471828,91.331 C28.8484947,90.8396667 28.536828,90.176 28.536828,89.34 C28.536828,88.504 28.8484947,87.8403333 29.471828,87.349 C30.0951613,86.8576667 30.912828,86.612 31.924828,86.612 C32.936828,86.612 33.7544947,86.8576667 34.377828,87.349 C35.0011613,87.8403333 35.312828,88.504 35.312828,89.34 C35.312828,90.176 35.0011613,90.8396667 34.377828,91.331 C33.7544947,91.8223333 32.936828,92.068 31.924828,92.068 Z M62.290484,92.574 L62.290484,73.192 L59.826484,73.192 L59.826484,79 L55.624484,79 L55.624484,81.156 L59.826484,81.156 L59.826484,92.574 L62.290484,92.574 Z M56.350484,87.426 L57.604484,85.468 C56.636484,85.072 55.8371507,84.61 55.206484,84.082 C54.5758173,83.554 54.0808173,82.982 53.721484,82.366 C53.3621507,81.75 53.1091507,81.1083333 52.962484,80.441 C52.8158173,79.7736667 52.742484,79.11 52.742484,78.45 L52.742484,78.45 L52.742484,73.764 L48.738484,73.764 L48.738484,75.92 L50.234484,75.92 L50.234484,78.428 C50.234484,79.3666667 50.1758173,80.166 50.058484,80.826 C49.9411507,81.486 49.7688173,82.0506667 49.541484,82.52 C49.3141507,82.9893333 49.0208173,83.3853333 48.661484,83.708 C48.3021507,84.0306667 47.880484,84.324 47.396484,84.588 C47.1178173,84.7346667 46.747484,84.863 46.285484,84.973 C45.823484,85.083 45.3211507,85.138 44.778484,85.138 L44.778484,85.138 L44.778484,87.316 C45.3358173,87.316 45.8968173,87.2683333 46.461484,87.173 C47.0261507,87.0776667 47.5211507,86.942 47.946484,86.766 C48.826484,86.3846667 49.585484,85.919 50.223484,85.369 C50.861484,84.819 51.356484,84.104 51.708484,83.224 C52.060484,84.0453333 52.6361507,84.819 53.435484,85.545 C54.2348173,86.271 55.206484,86.898 56.350484,87.426 L56.350484,87.426 Z M81.719312,92.574 L81.719312,73.192 L79.255312,73.192 L79.255312,92.574 L81.719312,92.574 Z M75.647312,87.888 L75.647312,73.874 L73.205312,73.874 L73.205312,78.736 L67.485312,78.736 L67.485312,73.874 L65.043312,73.874 L65.043312,87.888 L75.647312,87.888 Z M73.205312,85.732 L67.485312,85.732 L67.485312,80.892 L73.205312,80.892 L73.205312,85.732 Z M99.80614,84.654 L100.73014,82.674 C99.89414,82.5126667 99.0728067,82.2486667 98.26614,81.882 C97.4594733,81.5153333 96.7408067,81.0826667 96.11014,80.584 C95.4794733,80.0853333 94.9698067,79.5426667 94.58114,78.956 C94.1924733,78.3693333 93.99814,77.7753333 93.99814,77.174 L93.99814,77.174 L93.99814,73.61 L89.99414,73.61 L89.99414,75.766 L91.49014,75.766 L91.49014,77.174 C91.49014,77.746 91.3874733,78.2776667 91.18214,78.769 C90.9768067,79.2603333 90.70914,79.704 90.37914,80.1 C90.04914,80.496 89.6714733,80.837 89.24614,81.123 C88.8208067,81.409 88.3808067,81.64 87.92614,81.816 C87.6328067,81.9333333 87.33214,82.025 87.02414,82.091 C86.71614,82.157 86.41914,82.212 86.13314,82.256 C85.84714,82.3 85.5868067,82.3293333 85.35214,82.344 C85.1174733,82.3586667 84.9414733,82.366 84.82414,82.366 L84.82414,82.366 L84.82414,84.544 C85.4694733,84.5146667 86.0964733,84.4596667 86.70514,84.379 C87.3138067,84.2983333 87.8968067,84.1553333 88.45414,83.95 C89.42214,83.598 90.2874733,83.147 91.05014,82.597 C91.8128067,82.047 92.4214733,81.332 92.87614,80.452 C93.1108067,80.936 93.4738067,81.4016667 93.96514,81.849 C94.4564733,82.2963333 95.0174733,82.707 95.64814,83.081 C96.2788067,83.455 96.9534733,83.7776667 97.67214,84.049 C98.3908067,84.3203333 99.10214,84.522 99.80614,84.654 L99.80614,84.654 Z M101.89614,89.78 L101.89614,87.624 L83.59214,87.624 L83.59214,89.78 L101.89614,89.78 Z" id="액정파손픽업수리대행서비스" fill="#0B0B0B" fill-rule="nonzero"></path>
                <path d="M125.766,24.822 L125.766,23.338 L124.128,23.338 L124.128,19.558 L125.654,19.558 L125.654,18.074 L116.358,18.074 L116.358,19.558 L117.94,19.558 L117.94,23.338 L116.274,23.338 L116.274,24.822 L125.766,24.822 Z M122.364,23.338 L119.704,23.338 L119.704,19.558 L122.364,19.558 L122.364,23.338 Z M126.984,28.378 L126.984,26.88 L115.056,26.88 L115.056,28.378 L126.984,28.378 Z M138.058,30.016 L138.058,16.996 L136.28,16.996 L136.28,30.016 L138.058,30.016 Z M130.694,26.922 C132.402,26.922 134.012,26.852 135.328,26.656 L135.132,25.172 C133.83,25.34 132.388,25.424 131.114,25.424 L129.756,25.424 L129.756,23.072 L133.956,23.072 L133.956,18.004 L128.006,18.004 L128.006,19.502 L132.206,19.502 L132.206,21.63 L128.006,21.63 L128.006,26.922 L130.694,26.922 Z M150.098,30.016 L150.098,16.996 L148.32,16.996 L148.32,30.016 L150.098,30.016 Z M146.318,26.628 L146.318,18.13 L140.004,18.13 L140.004,26.628 L146.318,26.628 Z M144.554,25.13 L141.768,25.13 L141.768,19.628 L144.554,19.628 L144.554,25.13 Z M161.984,24.276 L161.984,16.996 L160.22,16.996 L160.22,19.824 L158.05,19.824 C157.798,18.522 156.622,17.43 154.774,17.43 C152.688,17.43 151.442,18.83 151.442,20.342 L151.442,20.846 C151.442,22.358 152.688,23.758 154.774,23.758 C156.636,23.758 157.84,22.638 158.064,21.308 L160.22,21.308 L160.22,24.276 L161.984,24.276 Z M154.774,22.26 C153.724,22.26 153.122,21.504 153.122,20.804 L153.122,20.384 C153.122,19.684 153.724,18.928 154.774,18.928 C155.824,18.928 156.426,19.684 156.426,20.384 L156.426,20.804 C156.426,21.504 155.824,22.26 154.774,22.26 Z M161.984,30.016 L161.984,24.864 L153.71,24.864 L153.71,30.016 L161.984,30.016 Z M160.234,28.546 L155.46,28.546 L155.46,26.334 L160.234,26.334 L160.234,28.546 Z M177.02,23.184 L177.02,17.682 L168.34,17.682 L168.34,23.184 L177.02,23.184 Z M175.256,21.7 L170.104,21.7 L170.104,19.166 L175.256,19.166 L175.256,21.7 Z M173.576,30.016 L173.576,25.942 L178.644,25.942 L178.644,24.444 L166.716,24.444 L166.716,25.942 L171.798,25.942 L171.798,30.016 L173.576,30.016 Z M189.088,24.696 L189.088,21.504 L190.796,21.504 L190.796,19.964 L189.088,19.964 L189.088,16.996 L187.324,16.996 L187.324,24.696 L189.088,24.696 Z M179.61,24.542 C180.394,23.954 181.094,23.38 181.738,22.82 C182.312,22.316 182.522,22.078 182.606,21.854 L182.62,21.854 C182.69,22.078 183.138,22.414 183.614,22.792 C184.132,23.198 184.748,23.646 185.392,24.094 L186.372,22.862 C185.672,22.386 184.902,21.826 184.356,21.378 C183.6,20.762 183.432,20.272 183.432,19.348 L183.432,17.528 L181.64,17.528 L181.64,19.404 C181.64,20.314 181.262,21 180.688,21.518 C180.016,22.134 179.372,22.638 178.56,23.24 L179.61,24.542 Z M185.14,30.408 C187.52,30.408 189.13,29.372 189.13,27.874 L189.13,27.286 C189.13,25.788 187.52,24.752 185.14,24.752 C182.76,24.752 181.15,25.788 181.15,27.286 L181.15,27.874 C181.15,29.372 182.76,30.408 185.14,30.408 Z M185.14,28.966 C183.726,28.966 182.886,28.308 182.886,27.762 L182.886,27.398 C182.886,26.852 183.726,26.194 185.14,26.194 C186.554,26.194 187.394,26.852 187.394,27.398 L187.394,27.762 C187.394,28.308 186.554,28.966 185.14,28.966 Z M205.286,30.016 L205.286,16.996 L203.508,16.996 L203.508,20.916 L200.946,20.916 L200.946,22.456 L203.508,22.456 L203.508,30.016 L205.286,30.016 Z M195.318,26.908 C196.116,26.166 196.662,25.634 197.18,25.088 C197.642,24.612 198.146,24.038 198.23,23.786 L198.258,23.786 C198.356,24.024 198.762,24.486 199.294,25.032 C199.812,25.564 200.428,26.18 201.058,26.768 L202.192,25.578 C201.464,24.92 200.736,24.206 200.134,23.548 C199.294,22.638 199.14,22.022 199.14,20.916 L199.14,17.92 L197.334,17.92 L197.334,20.916 C197.334,22.064 197.068,22.75 196.256,23.646 C195.654,24.304 194.94,25.004 194.156,25.704 L195.318,26.908 Z M217.298,30.016 L217.298,16.996 L215.52,16.996 L215.52,30.016 L217.298,30.016 Z M213.49,26.656 L213.49,18.032 L211.74,18.032 L211.74,20.958 L208.954,20.958 L208.954,18.032 L207.204,18.032 L207.204,26.656 L213.49,26.656 Z M211.74,25.172 L208.954,25.172 L208.954,22.47 L211.74,22.47 L211.74,25.172 Z M219.93,25.172 C221.274,24.416 222.268,23.814 223.024,23.31 C223.724,22.834 224.242,22.484 224.382,22.162 L224.396,22.162 C224.536,22.47 224.97,22.806 225.67,23.282 C226.426,23.786 227.42,24.388 228.764,25.144 L229.618,23.772 C228.596,23.198 227.476,22.54 226.664,21.98 C225.558,21.224 225.236,20.538 225.236,19.32 L225.236,17.878 L223.444,17.878 L223.444,19.32 C223.444,20.538 223.122,21.224 222.016,21.98 C221.204,22.54 220.084,23.198 219.062,23.772 L219.93,25.172 Z M230.304,28.378 L230.304,26.88 L218.376,26.88 L218.376,28.378 L230.304,28.378 Z" id="프리미엄무상서비스" fill="#4B4564" fill-rule="nonzero"></path>
                <g id="Group-13" transform="translate(0.000000, 11.000000)">
                    <path d="M46.1736726,11.9388531 C45.8042035,12.0089472 45.4308628,12.0445506 45.050885,12.0445506 L43.0608407,12.0584581 L43.0608407,10.5692365 L46.6675885,10.5692365 C46.7876106,10.0563256 46.8628319,9.47943999 46.892146,8.83802327 L43.3147124,8.83802327 L43.3147124,7.30151592 L48.988385,7.30151592 L48.943031,8.35459645 C48.9037611,9.09948542 48.8086283,9.79597608 48.6587389,10.4474062 L50.1714602,10.4474062 L50.1714602,7 L51.9966814,7 L51.9966814,17.9157665 C51.9966814,18.2478791 51.9076327,18.5004404 51.7278761,18.6773446 C51.5481195,18.8531362 51.3340708,18.9404756 51.0840708,18.9404756 C50.8346239,18.9404756 50.6200221,18.8497983 50.4402655,18.669 C50.2605088,18.4876454 50.1709071,18.236753 50.1709071,17.9157665 L50.1709071,12.0584581 L48.1200221,12.0584581 C47.3611726,13.7752075 46.0387168,15.1459367 44.1537611,16.1695332 C44.0033186,16.2607668 43.8534292,16.3047147 43.7040929,16.3047147 C43.5038717,16.3047147 43.3368363,16.2351769 43.2024336,16.093876 C43.0674779,15.9542441 43,15.7840156 43,15.5831904 C43,15.3106022 43.1349558,15.0852997 43.4048673,14.9050577 C44.7024336,13.9999536 45.625,13.0141857 46.1736726,11.9388531 L46.1736726,11.9388531 Z M53.0752212,17.9613833 L53.0752212,7 L54.9308628,7 L54.9308628,17.9613833 C54.9308628,18.2818135 54.8390487,18.531037 54.6543142,18.705716 C54.4690265,18.8826202 54.2522124,18.9699597 54.0033186,18.9699597 C53.7538717,18.9699597 53.5370575,18.8826202 53.352323,18.705716 C53.1670354,18.5304807 53.0752212,18.2812572 53.0752212,17.9613833 L53.0752212,17.9613833 Z M64.346792,11.9388531 C64.1875,12.9012563 63.7654867,13.6728478 63.0818584,14.2491771 C62.3982301,14.8266191 61.5525442,15.1164526 60.5448009,15.1164526 C59.4065265,15.1164526 58.4817478,14.7476241 57.7676991,14.0088545 C57.0542035,13.2711974 56.6974558,12.3204766 56.6974558,11.1561356 C56.6974558,9.98122479 57.0542035,9.02494089 57.7676991,8.28784016 C58.4817478,7.54962681 59.4065265,7.18079829 60.5448009,7.18079829 C61.5431416,7.18079829 62.380531,7.46339994 63.0597345,8.03082843 C63.738385,8.59936952 64.1620575,9.35427194 64.3324115,10.2966483 L65.9795354,10.2966483 L65.9795354,7 L68,7 L68,17.9613833 C68,18.291827 67.8998894,18.5482824 67.7002212,18.7290807 C67.5005531,18.909879 67.2610619,19 66.9817478,19 C66.7118363,19 66.477323,18.909879 66.2787611,18.7290807 C66.0785398,18.5482824 65.9795354,18.291827 65.9795354,17.9613833 L65.9795354,11.9388531 L64.346792,11.9388531 Z M62.2516593,11.1555792 C62.2516593,10.402902 62.0940265,9.82601641 61.7804204,9.42380974 C61.4651549,9.02271568 61.0547566,8.8213342 60.5448009,8.8213342 C60.0459071,8.8213342 59.6388274,9.02271568 59.3252212,9.42380974 C59.0099558,9.82601641 58.8528761,10.4023457 58.8528761,11.1561356 C58.8528761,11.898243 59.0099558,12.4712345 59.3252212,12.8728849 C59.6388274,13.273979 60.0459071,13.4742478 60.5448009,13.4742478 C61.0547566,13.4742478 61.4651549,13.2734227 61.7804204,12.8728849 C62.0940265,12.4712345 62.2516593,11.898243 62.2516593,11.1561356 L62.2516593,11.1555792 Z" id="Fill-1" fill="#D71020"></path>
                    <path d="M29.6988764,7 L33.6561798,17.2513007 C33.7449438,17.4910908 33.788764,17.6761821 33.788764,17.8071274 C33.788764,18.4176527 33.4674157,18.7712602 32.8247191,18.8701598 C32.747191,18.8906027 32.6752809,18.902758 32.6089888,18.902758 C32.0432584,18.902758 31.6449438,18.6082693 31.411236,18.0192919 L30.5803371,15.8772043 L26.1747191,15.8772043 L25.2775281,18.1331093 C25.0775281,18.6568903 24.7005618,18.9193333 24.1466292,18.9193333 C23.8252809,18.9193333 23.5539326,18.8243013 23.3325843,18.6336848 C23.1101124,18.4425158 23,18.194438 23,17.8894516 C23,17.7369584 23.0224719,17.6004881 23.0657303,17.4800405 L27.1393258,7 L29.6994382,7 L29.6988764,7 Z M29.9157303,13.9649616 L28.9511236,11.2327916 C28.7741573,10.7206133 28.6191011,10.182467 28.4859551,9.61503752 L28.4353933,9.32110134 L28.3691011,9.32110134 C28.358427,9.46143929 28.3033708,9.71448962 28.202809,10.0736222 C28.091573,10.4973986 27.9702247,10.8841567 27.8376404,11.2327916 L26.8230337,13.964409 L29.9157303,13.964409 L29.9157303,13.9649616 Z M36.8988764,7.0806667 L36.8988764,17.9264699 C36.8988764,18.4209678 36.6786517,18.7480547 36.238764,18.9088356 C36.0949438,18.9685068 35.9516854,19 35.808427,19 C35.491573,19 35.2320225,18.8988904 35.0331461,18.6972236 C34.8337079,18.4961094 34.7331461,18.2391915 34.7331461,17.9264699 L34.7331461,7.08121921 L36.8988764,7.08121921 L36.8988764,7.0806667 Z M41,7.0806667 L41,17.9264699 C41,18.4209678 40.7797753,18.7480547 40.3398876,18.9088356 C40.1960674,18.9685068 40.052809,19 39.9095506,19 C39.5921348,19 39.3331461,18.8988904 39.1342697,18.6972236 C38.9342697,18.4961094 38.8342697,18.2391915 38.8342697,17.9264699 L38.8342697,7.08121921 L41,7.08121921 L41,7.0806667 Z" id="Fill-3" fill="#E7680B"></path>
                    <g id="Group-7" transform="translate(2.000000, 0.000000)">
                        <mask id="mask-2" fill="white">
                            <use xlink:href="#path-1"></use>
                        </mask>
                        <g id="Clip-6"></g>
                        <path d="M9.79068571,20.78175 L9.79068571,15.7707 C9.79068571,14.4342 10.1798286,13.2781 11.1952571,12.9217 L15.5335429,11.43505 C15.6432571,11.1727 15.8449714,10.65075 15.8289714,9.9154 C15.7741143,7.3788 14.3295429,5.53795 12.3364,4.9093 L0.453542857,1.3343 L3.55297143,0.2662 C3.71982857,0.209 3.92668571,0.17655 4.10954286,0.17655 C4.3044,0.17655 4.53468571,0.21505 4.68954286,0.26345 L16.8118286,3.90995 C18.9215429,4.587 19.7078286,7.01305 19.7078286,8.32645 C19.7078286,9.3918 19.3312571,10.62105 18.1541143,11.03355 C17.1084,11.3993 13.9695429,12.4817 13.9695429,12.4817 C13.8552571,12.7424 13.6632571,13.2341 13.6632571,14.311 L13.6632571,18.82705 C13.6632571,20.2488 12.9518286,21.53745 11.5872571,21.53745 C10.9946857,21.53745 10.3209714,21.2729 9.79125714,20.78175" id="Fill-5" fill="#E7690A" mask="url(#mask-2)"></path>
                    </g>
                    <g id="Group-10" transform="translate(0.000000, 1.000000)">
                        <mask id="mask-4" fill="white">
                            <use xlink:href="#path-3"></use>
                        </mask>
                        <g id="Clip-9"></g>
                        <path d="M8.50156667,7.9398 C9.09360833,8.87564615 9.39315,10.0534923 9.39315,11.0513897 L9.39315,15.3633897 C9.39315,18.0315949 10.577775,20.2079026 12.5299417,20.8284154 L9.51719167,21.9120564 C8.91323333,22.1298 8.32173333,21.904159 7.964775,21.6655436 C6.49848333,20.6873897 5.7239,19.1693897 5.7239,16.8379538 C5.7239,15.7430308 5.71794167,14.2442103 5.71794167,12.312159 C5.71794167,11.2104667 5.26781667,9.92656923 4.57285833,8.97662051 C4.05069167,8.26021026 3.44673333,7.81231282 2.67919167,7.52687692 C1.19665,6.97518462 0.000108333333,4.97149231 0.000108333333,3.00277436 C0.000108333333,1.30990256 0.82615,0.244312821 1.92519167,0.162517949 C2.16298333,0.145594872 2.36285833,0.189594872 2.55406667,0.249953846 C3.20731667,0.45754359 3.733275,0.645389744 3.733275,0.645389744 C3.36981667,2.60395385 4.46560833,5.6072359 6.67615,6.42067179 C7.54498333,6.73995385 8.05848333,7.23749231 8.50156667,7.9398" id="Fill-8" fill="#D71020" mask="url(#mask-4)"></path>
                    </g>
                    <path d="M97.082741,18.3183678 L97.082741,16.6969288 L109.188462,16.6969288 C109.4391,16.6969288 109.637292,16.7775835 109.782486,16.9394493 C109.928231,17.1013151 110,17.2932178 110,17.51627 C110,17.7370972 109.928231,17.926775 109.782486,18.0836346 C109.63674,18.239938 109.4391,18.3183678 109.188462,18.3183678 L97.082741,18.3183678 Z M108.46691,13.2426795 C108.806984,13.4240137 108.977572,13.6765465 108.977572,14.0002781 C108.977572,14.4347014 108.727486,14.6510787 108.225657,14.6510787 C108.145608,14.6510787 108.060589,14.6421789 107.970602,14.621598 C107.478711,14.5409432 106.722379,14.1571377 105.6994,13.4696253 C104.536195,12.6819897 103.779863,11.9293973 103.429301,11.2118479 C103.087572,11.9499781 102.356083,12.7020144 101.233179,13.4696253 C100.2505,14.1360006 99.4687737,14.5248123 98.8874474,14.6366165 C98.8173349,14.6466288 98.7472224,14.6510787 98.6771099,14.6510787 C98.4562832,14.6510787 98.2763094,14.5809925 98.1355324,14.4397076 C97.9953074,14.2984227 97.9251949,14.132107 97.9251949,13.939648 C97.9251949,13.6259287 98.090815,13.3889706 98.4209509,13.2271048 C99.4737423,12.7020144 100.336071,12.05622 101.007936,11.2874965 C101.910013,10.2578966 102.361052,9.09591164 102.361052,7.80376654 L102.361052,7.22750209 L104.496446,7.22750209 L104.496446,7.80376654 C104.496446,9.10592395 104.987786,10.2979459 105.970464,11.3792761 C106.63184,12.0862569 107.464357,12.7075768 108.46691,13.2426795 L108.46691,13.2426795 Z M91.173418,15.8036076 C90.0604513,16.1668322 88.7421158,16.3487226 87.2184114,16.3487226 C86.917535,16.3487226 86.6166586,16.3387103 86.3163343,16.3181294 C84.9720516,16.2580555 84.3007384,15.5811117 84.3007384,14.2884103 L84.3007384,12.0606699 C84.3007384,11.2836028 84.6921538,10.8936787 85.4738803,10.8936787 L88.6018908,10.8936787 C88.7421158,10.8936787 88.8122283,10.8191426 88.8122283,10.6667329 L88.8122283,8.89455282 L84.5568974,8.89455282 L84.5568974,7.28813223 L90.82672,7.28813223 L90.82672,11.2424411 C90.82672,12.0306329 90.4364088,12.4238945 89.6541301,12.4238945 L86.6470223,12.4238945 C86.4261956,12.4238945 86.3163343,12.5356987 86.3163343,12.7576384 L86.3163343,13.9847034 C86.3163343,14.3284596 86.5217031,14.5459494 86.9324408,14.6366165 C87.0726658,14.6666534 87.4237803,14.6822281 87.9852322,14.6822281 C89.0076599,14.6822281 89.950038,14.5754301 90.8129184,14.364059 C90.9029053,14.3329095 90.9873715,14.3184473 91.0674212,14.3184473 C91.2788627,14.3184473 91.4483473,14.3890898 91.578635,14.5303747 C91.7094748,14.6722158 91.7746187,14.8390878 91.7746187,15.0304343 C91.7746187,15.4142397 91.5736664,15.6717788 91.173418,15.8036076 L91.173418,15.8036076 Z M91.173418,12.0912631 L91.173418,10.4403433 L93.2486371,10.4403433 L93.2486371,7 L95.2791388,7 L95.2791388,18.0302356 C95.2791388,18.3639795 95.1781106,18.6209623 94.9777103,18.8028527 C94.776758,18.9847431 94.5366089,19.0759665 94.2556069,19.0759665 C93.9850942,19.0759665 93.7493617,18.9847431 93.5489614,18.8028527 C93.3485612,18.6209623 93.2486371,18.3639795 93.2486371,18.0302356 L93.2486371,12.0912631 L91.173418,12.0912631 Z M70,14.2122055 L70,12.6669713 L82.1057208,12.6669713 C82.3662963,12.6669713 82.5711131,12.7426199 82.7223794,12.8939171 C82.8725416,13.0457706 82.9476227,13.227661 82.9476227,13.4395884 C82.9476227,13.6515158 82.8725416,13.8334062 82.7223794,13.9847034 C82.5716652,14.1360006 82.3662963,14.2122055 82.1057208,14.2122055 L70.0005521,14.2122055 L70,14.2122055 Z M72.9629425,10.2273034 L72.9629425,8.53021574 L71.3536678,8.53021574 L71.3536678,7.03059319 L81.4288869,7.03059319 L81.4288869,8.53021574 L79.83507,8.53021574 L79.83507,10.2267472 L80.7973225,10.2267472 C81.0678352,10.2267472 81.2759644,10.3001708 81.421158,10.4475744 C81.5669036,10.5938655 81.6392243,10.7679685 81.6392243,10.9698836 C81.6392243,11.1723549 81.5663515,11.3464579 81.421158,11.492749 C81.2754123,11.6390401 81.0678352,11.7124637 80.7973225,11.7124637 L71.2929404,11.7124637 L71.2929404,10.2273034 L72.9629425,10.2273034 Z M80.9469326,17.7276411 C80.9469326,18.1120029 80.8751639,18.3762168 80.7299703,18.5230641 C80.5842247,18.6687989 80.3109516,18.7433351 79.9107032,18.7433351 L74.000276,18.7433351 C73.8699883,18.7433351 73.8042923,18.8084151 73.8042923,18.9396877 L73.8042923,19.318487 C73.8042923,19.4797966 73.8953833,19.5604513 74.0753571,19.5604513 L80.6471603,19.5604513 C80.9071838,19.5604513 81.1103444,19.633875 81.25609,19.7807223 C81.4018356,19.9264571 81.4741564,20.0961103 81.4741564,20.288013 C81.4741564,20.4793595 81.4012836,20.6467877 81.2555379,20.7875164 C81.1103444,20.9293575 80.9071838,21 80.6471603,21 L73.1131047,21 C72.6515768,21 72.3203368,20.9143391 72.1210406,20.742461 C71.8797875,20.5405459 71.7594369,20.1973459 71.7594369,19.7123048 L71.7594369,18.3033494 C71.7594369,17.6864794 72.0801877,17.379435 72.7222414,17.379435 L78.7071976,17.379435 C78.8369333,17.379435 78.9031813,17.3176924 78.9031813,17.1969884 L78.9031813,16.7731336 C78.9031813,16.6613294 78.8424539,16.6062617 78.7221034,16.6062617 L71.8654337,16.6062617 L71.8654337,15.1672693 L80.0310538,15.1672693 C80.6421917,15.1672693 80.9469326,15.4598514 80.9469326,16.0455719 L80.9469326,17.7276411 Z M74.9476227,10.2273034 L77.8498378,10.2273034 L77.8498378,8.53021574 L74.9476227,8.53021574 L74.9476227,10.2267472 L74.9476227,10.2273034 Z" id="Fill-11" fill="#4B4564"></path>
                </g>
                <g id="Group-135" transform="translate(202.000000, 3.000000)">
                    <g id="Group-125" transform="translate(0.000000, 0.973000)">
                        <g id="Group-3" transform="translate(15.000000, 38.000000)">
                            <mask id="mask-6" fill="white">
                                <use xlink:href="#path-5"></use>
                            </mask>
                            <g id="Clip-2"></g>
                            <path d="M0.1037,25.1014 C0.1037,25.1014 0.3227,23.7214 0.4127,23.3644 C0.8717,21.5264 1.3607,19.4794 1.8507,17.6424 C2.9137,13.6564 5.6677,9.6144 9.3597,7.6454 C13.1287,5.6354 17.1247,4.4944 21.2087,3.2924 C23.1567,2.7194 29.2557,0.7644 29.2557,0.7644 L32.9437,4.2174 C32.9437,4.2174 35.8367,5.0904 38.0157,5.2274 C40.7557,5.3984 43.0727,4.6644 45.6327,3.8974 C47.0457,3.4734 48.3167,1.5024 48.3167,1.5024 C48.3167,1.5024 53.5667,4.1844 56.4097,5.2784 C58.7537,6.1794 63.7947,7.6394 66.8267,9.3204 C68.4327,10.2114 70.7257,13.1804 71.5417,14.4974 C72.7877,16.5044 75.3337,24.9264 77.1687,32.2674 C78.1857,36.3314 79.7557,40.9914 80.2677,43.2474 C80.7797,45.5024 82.4337,52.2714 82.7647,54.4974 C83.0947,56.7234 84.0427,59.8884 83.0357,62.4094 C82.2737,64.3124 81.3317,65.0934 79.2687,65.7124 C76.9337,66.4144 73.4087,66.8004 71.6037,66.3494 C70.3987,66.0474 67.7817,65.8534 67.1817,64.4544 C66.2197,62.2084 68.9637,59.8524 68.4857,57.4604 C68.2897,56.4814 67.1897,55.4794 67.3977,54.4384 C67.4577,54.1344 67.4267,53.2544 67.9977,53.2154 C68.6257,53.1734 70.7017,53.2934 70.7017,53.2934 C70.7017,53.2934 70.1427,50.9924 70.0097,50.6474 C69.0897,48.2544 68.2237,46.6834 67.0617,44.3604 C66.3007,42.8374 65.3937,40.8094 64.8587,39.2044 C64.7707,38.9414 63.9937,36.5394 63.9937,36.5394 C63.9937,36.5394 63.6527,38.0814 63.5287,38.4784 C62.9037,40.4784 61.7667,44.9014 61.7667,44.9014 C61.7667,44.9014 60.9617,48.1634 60.1727,50.1354 C59.9577,50.6724 60.6827,52.5414 60.1427,52.8674 C59.7197,53.1214 59.0317,52.9884 58.5707,52.9884 C57.3727,52.9884 56.1357,53.0734 54.9437,52.9884 C43.7567,52.1884 32.8717,51.3774 22.1767,47.6674 C16.6387,45.7464 11.1687,43.4464 7.1827,38.9614 C6.1487,37.7984 5.4317,36.9404 4.5227,35.6974 C2.7287,33.2424 1.0397,30.1094 0.2907,27.1134 C0.1037,26.3664 0.1037,25.1014 0.1037,25.1014" id="Fill-1" fill="#FF0000" mask="url(#mask-6)"></path>
                        </g>
                        <path d="M4.7008,87.077 C4.1318,86.722 3.6208,88.39 3.3158,88.94 C3.1308,89.273 1.8548,92.566 1.8548,92.566 L4.5448,91.528 C4.5448,91.528 5.9258,87.845 4.7008,87.077" id="Fill-4" fill="#FFEDDE"></path>
                        <path d="M82.0705,90.9461 C83.6595,91.3411 84.5245,92.3221 85.1435,93.7531 C85.9075,95.5191 86.1925,97.8941 85.7745,99.7741 C85.5915,100.6001 85.0825,101.5481 84.3625,102.0871 C83.8505,102.4711 82.4645,102.5981 82.4645,102.5981 L79.0545,99.6031 C79.0545,99.6031 80.2445,96.9971 80.5905,95.3401 C80.8055,94.3021 80.8545,90.6431 82.0705,90.9461" id="Fill-6" fill="#FFEDDE"></path>
                        <path d="M44.4386,38.7948 C44.4386,38.7948 44.9956,40.2178 45.8296,41.1358 C46.6036,41.9878 48.0306,42.6028 48.6036,42.8888 C49.4756,43.3258 50.5116,43.6878 52.0386,43.8258 C53.5646,43.9648 57.1876,43.8078 60.3526,42.4308 C62.2516,41.6058 63.3166,39.5028 63.3166,39.5028 C63.3166,39.5028 62.6566,38.6558 62.5166,37.4408 C62.3116,35.6418 62.7596,32.7228 62.7596,32.7228 C62.7596,32.7228 63.1946,30.3628 63.6266,29.1138 C64.0616,27.8648 64.4956,27.7268 64.4956,27.7268 C64.4956,27.7268 66.6956,26.7748 67.2016,25.0888 C67.3376,24.6338 67.4376,23.3218 67.2366,22.8678 C66.9786,22.2888 65.3286,21.3348 64.8296,20.8358 C63.6106,19.6158 63.7956,17.3028 62.3456,16.0598 C60.7116,14.6588 58.4006,13.9128 56.3286,13.4808 C53.9056,12.9758 52.1646,13.3218 50.0236,14.5308 C47.5146,15.9498 43.6416,21.3758 43.6416,21.3758 C43.6416,21.3758 42.0796,21.9408 42.2876,23.6058 C42.3636,24.2188 42.9256,25.5048 43.4226,26.0018 C44.2326,26.8158 45.0986,26.6858 45.0986,26.6858 L47.0066,33.6248 C47.0066,33.6248 47.0926,35.4478 46.6986,36.5598 C46.2096,37.9398 44.4386,38.7948 44.4386,38.7948" id="Fill-8" fill="#FFEDDE"></path>
                        <g id="Group-12" transform="translate(4.000000, 62.000000)">
                            <mask id="mask-8" fill="white">
                                <use xlink:href="#path-7"></use>
                            </mask>
                            <g id="Clip-11"></g>
                            <polygon id="Fill-10" fill="#E1CFBB" mask="url(#mask-8)" points="0.6584 2.6951 1.2474 1.6511 2.5114 1.3181 46.8524 0.8021 51.7674 0.9401 70.3904 2.3481 71.9034 2.6741 72.3954 3.7221 72.1474 43.2881 71.4334 44.3201 51.9904 45.9011 0.4574 44.5561"></polygon>
                        </g>
                        <path d="M81.8302,91.5203 C81.5382,90.2173 80.9542,89.5723 80.9542,89.5723 C80.9542,89.5723 81.2502,88.1463 80.8322,86.8933 C80.6042,86.2103 79.7372,85.1073 79.3082,84.4633 C78.7612,83.6423 78.2162,82.6803 77.3282,82.0203 C76.7062,81.5583 75.6282,80.9433 75.0212,80.7093 C74.8122,80.6293 72.4392,79.9813 72.2862,80.1733 C71.7382,80.8573 72.1062,81.5903 72.4562,81.9753 C73.0112,82.5843 74.1472,83.0943 75.0482,83.7233 C75.7022,84.1803 76.2552,84.8733 76.2552,84.8733 L76.2552,86.3823 C76.2552,86.3823 75.4632,86.2273 75.0132,86.2113 C73.5762,86.1643 72.2942,85.7273 71.0192,85.7983 C70.3982,85.8333 69.3942,85.9173 69.6812,86.9183 C69.8802,87.6173 70.0942,87.7783 70.8012,88.1113 C72.0852,88.7153 76.2552,89.7183 76.2552,89.7183 L76.1822,92.2023 C76.1822,92.2023 73.6182,92.4143 72.6762,92.6893 C72.3092,92.7953 70.7042,93.0533 70.3622,93.2243 C70.0522,93.3793 69.6012,93.8963 69.5112,94.0763 C68.6632,95.7703 72.8702,95.3243 73.5272,95.2933 C73.9312,95.2753 76.1822,95.1723 76.1822,95.1723 L76.1822,97.1933 C76.1822,97.1933 74.8092,97.8803 74.6722,97.9233 C73.7232,98.2153 69.8542,98.7303 71.1662,100.0413 C71.7842,100.6603 74.5212,100.2063 75.2562,100.1393 C76.2682,100.0473 78.2262,99.2873 78.2262,99.2873 C78.2262,99.2873 79.9762,99.5043 80.2972,99.0683 C80.8322,98.3373 81.9382,96.6283 82.1232,94.7833 C82.1572,94.4373 82.1232,92.8233 81.8302,91.5203" id="Fill-13" fill="#FFEDDE"></path>
                        <g id="Group-17" transform="translate(0.000000, 91.000000)">
                            <mask id="mask-10" fill="white">
                                <use xlink:href="#path-9"></use>
                            </mask>
                            <g id="Clip-16"></g>
                            <path d="M4.5021,0.4862 C4.5021,0.4862 2.6021,0.9152 1.8551,1.7992 C1.1081,2.6832 1.5161,4.0232 1.5161,4.0232 C1.5161,4.0232 0.5141,4.8152 0.4461,5.6842 C0.3731,6.6192 1.3041,8.0902 1.3041,8.0902 C1.3041,8.0902 1.0551,10.1172 1.0231,10.6282 C0.8691,13.1042 0.4811,15.5162 2.1301,17.5782 C2.8721,18.5062 4.6761,18.7522 5.7941,18.9752 C8.2641,19.4692 11.9111,18.8642 14.2231,17.9592 C16.2771,17.1542 16.6801,15.9052 16.6801,15.9052 L13.9061,15.7142 C13.9061,15.7142 12.9741,15.1282 12.4861,15.0152 C10.6381,14.5892 8.0921,15.6742 6.2011,15.3522 C5.0011,15.1482 4.5441,14.1252 4.5441,14.1252 L4.5231,11.4152 C4.5231,11.4152 5.7141,11.3082 5.7101,10.1652 C5.7041,9.0212 4.5021,6.8402 4.5021,6.8402 L4.5021,0.4862 Z" id="Fill-15" fill="#FFEDDE" mask="url(#mask-10)"></path>
                        </g>
                        <path d="M34.798,64.0985 C34.798,64.0985 35.181,69.8675 35.138,71.9925 C35.093,74.2055 35.381,79.4535 34.978,79.7795 C34.665,80.0325 33.853,78.0675 33.623,77.7365 C33.265,77.2205 32.962,78.8175 32.329,78.5885 C32.099,78.5065 31.402,76.8655 30.718,76.5705 C30.29,76.3855 29.636,77.9185 29.274,78.2425 C29.147,78.3565 28.894,78.3085 28.694,77.9305 C28.329,77.2385 27.965,75.9285 27.621,75.9405 C27.01,75.9615 26.845,77.2535 26.544,77.5175 C26.157,77.8555 25.964,77.1485 25.844,76.0245 C25.622,73.9525 25.675,68.9105 25.675,68.9105 L25.59,64.1135 L34.798,64.0985 Z" id="Fill-18" fill="#FFEDDA"></path>
                        <path d="M67.757,14.2977 C67.757,14.2977 68.208,15.2197 68.312,15.6857 C68.473,16.4087 68.581,16.6197 68.613,17.3527 C68.694,19.1547 65.933,17.7277 64.252,17.1087 C63.019,16.6537 61.65,16.0317 60.713,15.7547 C59.776,15.4777 58.709,14.8097 56.618,14.6097 C53.129,14.2767 48.961,15.4457 45.619,16.2057 C44.092,16.5527 41.291,17.3027 41.143,17.1777 C40.484,16.6217 42.357,14.3317 42.357,14.3317 C42.357,14.3317 42.3,10.3217 42.617,9.3717 C44.358,4.1497 50.384,0.6967 55.925,1.2507 C61.226,1.7807 65.937,5.2627 67.653,10.4107 C68.277,12.2837 67.757,14.2977 67.757,14.2977" id="Fill-20" fill="#FF0000"></path>
                        <path d="M42.8428601,17.0731 L43.3979,21.4801 C43.3979,21.4801 43.2619,21.3581 43.7269,21.4521 C44.0829,21.5231 44.8559,21.4111 45.2729,20.6121 C45.6889,19.8141 46.3819,17.9411 46.3819,17.9411 C46.3819,17.9411 48.2509,17.6171 49.0199,16.6571 C49.1329,16.5151 50.3869,15.3831 50.1809,15.1771 C49.8639,14.8601 47.3339,15.8771 46.3819,16.0671 C45.8639,16.1711 44.4729,16.5431 43.9939,16.7341 C43.7519,16.8311 42.8359,16.7191 42.8428601,17.0731" id="Fill-22" fill="#4D4D4D"></path>
                        <path d="M62.0666,16.3104 C62.0666,16.3104 62.4726,17.9804 62.9246,19.0934 C63.4206,20.3134 63.9976,21.0104 64.8236,21.6294 C65.2396,21.9424 66.3686,21.7574 66.3686,21.7574 L66.9936,18.2184 C66.9936,18.2184 65.0586,17.4754 64.2896,17.0894 C63.9716,16.9314 62.0666,16.3104 62.0666,16.3104" id="Fill-24" fill="#4D4D4D"></path>
                        <path d="M64.549,27.9813 C64.449,27.9813 64.356,27.9193 64.32,27.8213 C64.277,27.6953 64.342,27.5573 64.468,27.5123 C65.563,27.1233 66.825,26.0903 67.087,24.3613 C67.197,23.6303 67.047,22.9863 66.665,22.5453 C66.344,22.1763 65.876,21.9743 65.348,21.9803 L65.346,21.9803 C65.213,21.9803 65.106,21.8733 65.105,21.7413 C65.103,21.6073 65.21,21.4983 65.344,21.4973 C66.014,21.4913 66.615,21.7513 67.029,22.2283 C67.507,22.7783 67.696,23.5603 67.565,24.4333 C67.272,26.3743 65.857,27.5313 64.629,27.9673 C64.603,27.9773 64.575,27.9813 64.549,27.9813" id="Fill-26" fill="#000000"></path>
                        <path d="M44.8048,26.9139 C44.7938,26.9139 44.7838,26.9129 44.7738,26.9119 C43.6008,26.7619 42.7118,25.9199 42.3328,24.6019 C41.9818,23.3819 42.1958,22.0679 42.8288,21.5489 C43.2038,21.2409 43.6928,21.2179 44.2058,21.4819 C44.3248,21.5439 44.3708,21.6889 44.3098,21.8089 C44.2488,21.9269 44.1038,21.9739 43.9848,21.9119 C43.6438,21.7359 43.3588,21.7399 43.1358,21.9229 C42.6498,22.3209 42.5018,23.4389 42.7978,24.4699 C42.9498,25.0009 43.4538,26.2559 44.8348,26.4329 C44.9678,26.4489 45.0608,26.5699 45.0438,26.7029 C45.0288,26.8249 44.9248,26.9139 44.8048,26.9139" id="Fill-28" fill="#000000"></path>
                        <path d="M64.6476,25.5653 C64.5986,25.5653 64.5496,25.5503 64.5076,25.5203 C64.3986,25.4433 64.3736,25.2923 64.4506,25.1833 C64.5146,25.0933 65.0896,24.2953 65.5736,24.0973 C65.6976,24.0463 65.8376,24.1063 65.8886,24.2293 C65.9396,24.3533 65.8796,24.4953 65.7566,24.5443 C65.4896,24.6543 65.0556,25.1663 64.8446,25.4623 C64.7976,25.5293 64.7226,25.5653 64.6476,25.5653" id="Fill-30" fill="#000000"></path>
                        <path d="M45.0343,26.6199 C44.9193,26.6199 44.8173,26.5369 44.7973,26.4199 C44.6823,25.7539 44.5903,25.1549 44.4883,24.4169 C44.4703,24.2849 44.5623,24.1629 44.6943,24.1449 C44.8273,24.1269 44.9483,24.2189 44.9673,24.3509 C45.0673,25.0829 45.1593,25.6779 45.2723,26.3379 C45.2963,26.4699 45.2073,26.5949 45.0763,26.6169 C45.0613,26.6189 45.0483,26.6199 45.0343,26.6199" id="Fill-32" fill="#000000"></path>
                        <path d="M54.2482,24.7664 C54.2372,24.7664 54.2272,24.7654 54.2152,24.7644 C54.0832,24.7454 53.9902,24.6244 54.0092,24.4924 L54.0132,24.4634 C54.0722,24.0254 54.1292,23.6114 53.9902,23.2724 C53.9392,23.1484 53.9992,23.0074 54.1222,22.9564 C54.2452,22.9064 54.3872,22.9654 54.4372,23.0884 C54.6252,23.5474 54.5572,24.0464 54.4912,24.5294 L54.4872,24.5574 C54.4712,24.6784 54.3672,24.7664 54.2482,24.7664" id="Fill-34" fill="#000000"></path>
                        <path d="M59.8244,23.4364 C59.8134,22.9174 59.4824,22.5034 59.0844,22.5114 C58.6864,22.5204 58.3734,22.9474 58.3844,23.4664 C58.3944,23.9854 58.7254,24.3994 59.1234,24.3914 C59.5204,24.3834 59.8354,23.9564 59.8244,23.4364" id="Fill-36" fill="#000000"></path>
                        <path d="M61.2951,20.5233 C61.2521,20.5233 61.2081,20.5123 61.1691,20.4883 C60.2091,19.9003 58.7121,19.9723 57.7911,20.3383 C57.6671,20.3873 57.5261,20.3273 57.4781,20.2033 C57.4281,20.0793 57.4881,19.9383 57.6121,19.8893 C58.6431,19.4803 60.3271,19.4073 61.4211,20.0763 C61.5341,20.1453 61.5701,20.2943 61.5011,20.4083 C61.4551,20.4823 61.3761,20.5233 61.2951,20.5233" id="Fill-38" fill="#000000"></path>
                        <path d="M51.1759,20.5594 C51.1359,20.5594 51.0949,20.5494 51.0579,20.5284 C50.2239,20.0554 48.6529,20.0154 48.1089,20.4544 C48.0039,20.5384 47.8519,20.5214 47.7689,20.4174 C47.6849,20.3134 47.7009,20.1614 47.8049,20.0784 C48.5709,19.4614 50.3639,19.5794 51.2959,20.1074 C51.4119,20.1734 51.4519,20.3214 51.3869,20.4374 C51.3419,20.5154 51.2609,20.5594 51.1759,20.5594" id="Fill-40" fill="#000000"></path>
                        <path d="M45.9738,18.1619 C45.6788,18.1619 45.3708,18.1299 45.0508,18.0629 C44.9198,18.0359 44.8358,17.9079 44.8638,17.7769 C44.8908,17.6459 45.0198,17.5629 45.1498,17.5899 C47.4238,18.0649 48.9398,16.5159 50.1828,15.0239 C50.2678,14.9219 50.4198,14.9079 50.5228,14.9939 C50.6248,15.0789 50.6388,15.2309 50.5538,15.3339 C49.3128,16.8219 47.9028,18.1619 45.9738,18.1619" id="Fill-42" fill="#000000"></path>
                        <path d="M66.2472,21.9608 C66.2342,21.9608 66.2212,21.9588 66.2082,21.9568 C66.0762,21.9358 65.9872,21.8118 66.0092,21.6798 C66.0842,21.2188 66.1892,20.7798 66.2912,20.3558 C66.4652,19.6338 66.6282,18.9508 66.6282,18.2478 C66.6282,18.1138 66.7362,18.0058 66.8702,18.0058 C67.0042,18.0058 67.1112,18.1138 67.1112,18.2478 C67.1112,19.0088 66.9412,19.7178 66.7622,20.4688 C66.6612,20.8848 66.5592,21.3148 66.4852,21.7578 C66.4662,21.8758 66.3632,21.9608 66.2472,21.9608" id="Fill-44" fill="#000000"></path>
                        <path d="M43.2399,21.0477 C43.1209,21.0477 43.0169,20.9597 43.0009,20.8387 C42.7399,18.8867 42.6839,17.6507 42.6839,16.9567 C42.6839,16.8227 42.7929,16.7147 42.9259,16.7147 C43.0589,16.7147 43.1679,16.8227 43.1679,16.9567 C43.1679,17.6357 43.2219,18.8487 43.4799,20.7747 C43.4969,20.9057 43.4049,21.0277 43.2719,21.0457 C43.2609,21.0477 43.2509,21.0477 43.2399,21.0477" id="Fill-46" fill="#000000"></path>
                        <path d="M50.5783,23.4158 C50.5673,22.8968 50.2363,22.4818 49.8393,22.4908 C49.4413,22.4988 49.1273,22.9268 49.1383,23.4448 C49.1483,23.9648 49.4793,24.3788 49.8773,24.3708 C50.2753,24.3618 50.5893,23.9348 50.5783,23.4158" id="Fill-48" fill="#000000"></path>
                        <path d="M64.9836,21.1239 C64.9786,21.1239 64.9736,21.1239 64.9696,21.1229 C63.2106,21.0199 62.5996,19.0499 62.0086,17.1449 C61.9376,16.9129 61.8666,16.6819 61.7926,16.4529 C61.7516,16.3259 61.8216,16.1899 61.9476,16.1489 C62.0756,16.1079 62.2116,16.1779 62.2526,16.3049 C62.3266,16.5349 62.3986,16.7679 62.4706,17.0009 C63.0376,18.8299 63.5726,20.5579 64.9976,20.6409 C65.1306,20.6479 65.2326,20.7629 65.2246,20.8959 C65.2166,21.0239 65.1106,21.1239 64.9836,21.1239" id="Fill-50" fill="#000000"></path>
                        <path d="M44.3449,20.8338 C44.2189,20.8338 44.1119,20.7358 44.1039,20.6078 C44.0949,20.4758 44.1959,20.3598 44.3289,20.3518 C45.1099,20.2998 45.6159,19.3158 45.7119,18.8008 C45.7369,18.6698 45.8639,18.5838 45.9939,18.6078 C46.1249,18.6328 46.2109,18.7598 46.1869,18.8908 C46.0779,19.4688 45.4669,20.7598 44.3609,20.8328 C44.3559,20.8338 44.3499,20.8338 44.3449,20.8338" id="Fill-52" fill="#000000"></path>
                        <path d="M80.882,89.8934 C80.866,89.8934 80.85,89.8924 80.833,89.8894 C80.702,89.8624 80.618,89.7354 80.645,89.6044 C81.116,87.2784 80.218,86.0884 79.267,84.8294 C79.194,84.7314 79.119,84.6334 79.046,84.5344 C78.809,84.2164 78.623,83.9184 78.443,83.6314 C77.977,82.8894 77.609,82.3034 76.663,81.8324 C76.01,81.5084 75.417,81.2434 74.85,81.0204 L74.661,80.9464 C74.16,80.7474 73.593,80.5224 73.079,80.4354 C72.503,80.3374 72.303,80.4444 72.236,80.5164 C72.132,80.6234 72.153,80.8384 72.187,80.9994 C72.377,81.8744 73.454,82.4784 74.405,83.0104 C74.764,83.2114 75.104,83.4014 75.373,83.5954 C76.256,84.2304 76.822,85.2704 77.236,86.0304 C77.327,86.1984 77.41,86.3524 77.487,86.4824 C77.556,86.5974 77.518,86.7454 77.403,86.8134 C77.288,86.8814 77.141,86.8434 77.072,86.7284 C76.992,86.5944 76.905,86.4354 76.811,86.2604 C76.42,85.5414 75.884,84.5584 75.091,83.9874 C74.844,83.8104 74.516,83.6264 74.169,83.4324 C73.129,82.8494 71.95,82.1904 71.715,81.1014 C71.628,80.7014 71.686,80.3914 71.886,80.1824 C72.128,79.9284 72.544,79.8554 73.16,79.9584 C73.724,80.0544 74.317,80.2894 74.839,80.4974 L75.027,80.5714 C75.607,80.7984 76.212,81.0704 76.878,81.4004 C77.945,81.9314 78.365,82.6004 78.852,83.3744 C79.028,83.6544 79.208,83.9434 79.434,84.2464 C79.507,84.3434 79.58,84.4414 79.653,84.5384 C80.626,85.8274 81.633,87.1614 81.118,89.7004 C81.095,89.8144 80.994,89.8934 80.882,89.8934" id="Fill-54" fill="#000000"></path>
                        <path d="M77.839,91.9608 C77.81,91.9608 77.78,91.9558 77.751,91.9438 C77.627,91.8958 77.566,91.7558 77.614,91.6308 C77.705,91.3988 77.704,91.1848 77.611,90.9778 C77.421,90.5518 76.86,90.1618 75.946,89.8198 C75.115,89.5088 74.24,89.2968 73.396,89.0908 C72.591,88.8948 71.76,88.6918 70.961,88.4048 C70.203,88.1328 69.332,87.5208 69.368,86.6898 C69.385,86.3218 69.508,86.0408 69.735,85.8548 C70.248,85.4318 71.154,85.5668 72.301,85.7388 C72.485,85.7668 72.674,85.7948 72.867,85.8208 C73.215,85.8688 73.585,85.8958 73.979,85.9228 C75.536,86.0328 77.476,86.1698 79.867,87.8048 C79.978,87.8798 80.006,88.0298 79.931,88.1408 C79.856,88.2508 79.705,88.2788 79.595,88.2038 C77.311,86.6428 75.444,86.5108 73.944,86.4048 C73.543,86.3768 73.164,86.3508 72.801,86.2998 C72.607,86.2738 72.415,86.2438 72.23,86.2168 C71.283,86.0748 70.39,85.9408 70.043,86.2278 C69.924,86.3248 69.861,86.4828 69.852,86.7108 C69.828,87.2398 70.495,87.7248 71.124,87.9498 C71.9,88.2298 72.718,88.4288 73.51,88.6208 C74.369,88.8298 75.257,89.0458 76.115,89.3668 C76.503,89.5128 77.683,89.9538 78.052,90.7798 C78.198,91.1068 78.202,91.4528 78.065,91.8068 C78.027,91.9018 77.936,91.9608 77.839,91.9608" id="Fill-56" fill="#000000"></path>
                        <path d="M72.1935,100.5067 C71.5015,100.5067 70.8955,100.3717 70.7095,99.6727 C70.6475,99.4447 70.6755,99.2297 70.7945,99.0337 C71.1665,98.4177 72.3585,98.1477 73.6205,97.8607 L73.9305,97.7907 C75.3725,97.4587 75.6605,97.2807 76.1825,96.9567 L76.2425,96.9197 C76.7765,96.5897 77.2815,96.2777 77.3655,95.7777 C77.3715,95.7427 77.3685,95.7157 77.3345,95.6787 C77.1065,95.4277 76.1515,95.3507 75.7235,95.3807 C75.4855,95.3987 75.2535,95.4157 75.0225,95.4347 C73.6715,95.5397 72.3945,95.6397 70.6925,95.4557 C69.9225,95.3717 69.1065,95.0217 69.1305,94.2867 C69.1525,93.5657 69.8925,93.0427 71.3295,92.7317 C72.2965,92.5217 73.2865,92.3707 74.2435,92.2247 C74.9715,92.1137 75.7255,91.9987 76.4605,91.8597 C77.0875,91.7387 78.8805,91.4727 79.6325,91.6647 C79.7615,91.6977 79.8395,91.8287 79.8065,91.9587 C79.7745,92.0877 79.6415,92.1657 79.5125,92.1327 C78.8975,91.9757 77.2515,92.1997 76.5495,92.3337 C75.8065,92.4757 75.0485,92.5907 74.3155,92.7017 C73.3665,92.8477 72.3835,92.9967 71.4315,93.2037 C70.2735,93.4547 69.6275,93.8447 69.6135,94.3017 C69.5985,94.7357 70.3175,94.9287 70.7445,94.9757 C72.4025,95.1547 73.6565,95.0567 74.9845,94.9527 C75.2155,94.9347 75.4505,94.9157 75.6895,94.8997 C75.7045,94.8987 77.2035,94.8167 77.6915,95.3537 C77.8215,95.4957 77.8735,95.6707 77.8415,95.8587 C77.7205,96.5727 77.0985,96.9577 76.4975,97.3297 L76.4375,97.3667 C75.8895,97.7067 75.5585,97.9117 74.0395,98.2617 L73.7275,98.3327 C72.6715,98.5717 71.4735,98.8437 71.2085,99.2827 C71.1585,99.3657 71.1485,99.4467 71.1745,99.5477 C71.3135,100.0627 71.8685,100.0557 72.8385,99.9967 C73.0595,99.9847 73.2895,99.9707 73.5225,99.9667 C74.8715,99.9447 75.8265,99.8257 76.3585,99.6177 C76.4745,99.5727 76.5895,99.5287 76.7025,99.4857 C77.8635,99.0397 78.8665,98.6537 79.6285,97.6107 C79.8965,97.2437 79.8395,96.8287 79.7715,96.3477 C79.7215,95.9897 79.6715,95.6197 79.7575,95.2447 C79.8575,94.8197 80.1115,94.4987 80.3575,94.1887 C80.5725,93.9167 80.7755,93.6597 80.8605,93.3517 C80.9605,92.9897 80.8285,92.5617 80.6875,92.1077 C80.5815,91.7597 80.4695,91.4007 80.4645,91.0527 C80.4625,90.9187 80.5685,90.8097 80.7025,90.8077 L80.7065,90.8077 C80.8385,90.8077 80.9455,90.9127 80.9475,91.0447 C80.9525,91.3237 81.0475,91.6357 81.1495,91.9647 C81.3035,92.4657 81.4645,92.9827 81.3265,93.4797 C81.2145,93.8837 80.9715,94.1917 80.7365,94.4877 C80.5135,94.7697 80.3035,95.0337 80.2285,95.3547 C80.1625,95.6427 80.2055,95.9527 80.2505,96.2807 C80.3215,96.7917 80.4015,97.3707 80.0185,97.8967 C79.1725,99.0547 78.0565,99.4837 76.8765,99.9367 C76.7625,99.9807 76.6495,100.0237 76.5345,100.0687 C75.9395,100.3007 74.9575,100.4257 73.5305,100.4497 C73.3075,100.4537 73.0835,100.4667 72.8675,100.4797 C72.6405,100.4927 72.4125,100.5067 72.1935,100.5067" id="Fill-58" fill="#000000"></path>
                        <path d="M4.7462,102.5418 C4.4802,102.5418 4.1932,102.4458 3.9042,102.2568 C2.5472,101.3658 1.7152,100.0728 0.7512,98.5768 L0.6852,98.4748 C0.1902,97.7088 0.0542,96.9968 0.2782,96.3598 C0.5752,95.5138 1.5192,94.8188 3.0822,94.2988 C3.2082,94.2568 3.3452,94.3248 3.3872,94.4518 C3.4302,94.5778 3.3612,94.7158 3.2342,94.7578 C1.8212,95.2288 0.9792,95.8218 0.7332,96.5208 C0.5612,97.0088 0.6822,97.5788 1.0912,98.2128 L1.1572,98.3148 C2.0912,99.7658 2.8982,101.0178 4.1692,101.8528 C4.4342,102.0258 4.8132,102.1798 5.1142,101.9188 C5.4942,101.5908 5.6302,100.7038 5.2022,99.7898 C4.9532,99.2588 4.6912,98.8568 4.4372,98.4688 C3.9472,97.7188 3.5242,97.0698 3.4542,95.8508 C3.4472,95.7178 3.5492,95.6038 3.6822,95.5958 C3.8132,95.5858 3.9302,95.6898 3.9372,95.8228 C3.9992,96.9138 4.3712,97.4838 4.8422,98.2048 C5.0922,98.5878 5.3762,99.0218 5.6402,99.5848 C6.1182,100.6058 6.0282,101.7668 5.4312,102.2838 C5.2332,102.4558 4.9992,102.5418 4.7462,102.5418" id="Fill-60" fill="#000000"></path>
                        <path d="M1.9547,92.9657 C1.9387,92.9657 1.9237,92.9647 1.9077,92.9607 C1.7767,92.9357 1.6917,92.8087 1.7177,92.6777 C2.0867,90.8027 2.9537,88.7727 4.2937,86.6417 C4.3647,86.5287 4.5147,86.4947 4.6267,86.5667 C4.7397,86.6377 4.7737,86.7857 4.7027,86.8997 C3.4127,88.9497 2.5437,90.9807 2.1917,92.7717 C2.1687,92.8857 2.0677,92.9657 1.9547,92.9657" id="Fill-62" fill="#000000"></path>
                        <g id="Group-66" transform="translate(0.000000, 98.000000)">
                            <mask id="mask-12" fill="white">
                                <use xlink:href="#path-11"></use>
                            </mask>
                            <g id="Clip-65"></g>
                            <path d="M6.3908,11.2176 C6.0778,11.2176 5.7538,11.1876 5.4098,11.1116 C4.9118,11.0006 4.1768,10.8076 3.5058,10.5136 C2.6808,10.1536 1.5518,9.6586 1.0388,8.8386 C0.3578,7.7496 0.5828,5.7656 0.8008,3.8476 C0.9228,2.7706 1.0378,1.7526 0.9878,0.9606 C0.9788,0.8276 1.0798,0.7126 1.2138,0.7036 C1.3478,0.6946 1.4618,0.7966 1.4698,0.9306 C1.5228,1.7656 1.4048,2.8026 1.2808,3.9026 C1.0728,5.7386 0.8578,7.6366 1.4488,8.5816 C1.8828,9.2766 2.9758,9.7546 3.6998,10.0716 C4.3348,10.3486 5.0368,10.5326 5.5138,10.6396 C6.3298,10.8206 7.0128,10.7096 7.8018,10.5806 C7.9818,10.5516 8.1648,10.5216 8.3548,10.4946 C9.5258,10.3266 10.7558,10.1406 11.7818,9.8646 L11.8538,9.8456 C13.5668,9.3906 13.6798,9.0576 13.6848,8.9956 C13.6948,8.8756 13.5928,8.6806 13.0478,8.4306 C12.2748,8.0756 11.2538,8.1556 10.3528,8.2266 C10.2038,8.2376 10.0578,8.2486 9.9168,8.2576 C9.5098,8.2836 9.0958,8.3526 8.6578,8.4246 C7.7928,8.5686 6.8988,8.7156 6.0308,8.5236 C5.3458,8.3706 3.2868,6.9516 2.7868,5.5816 C2.7408,5.4556 2.8058,5.3176 2.9308,5.2716 C3.0568,5.2266 3.1948,5.2906 3.2408,5.4156 C3.6768,6.6086 5.6198,7.9366 6.1358,8.0516 C6.9118,8.2236 7.7598,8.0836 8.5788,7.9476 C9.0098,7.8766 9.4538,7.8036 9.8858,7.7766 C10.0248,7.7666 10.1688,7.7556 10.3158,7.7436 C11.2748,7.6696 12.3618,7.5846 13.2488,7.9916 C13.4888,8.1016 14.2168,8.4346 14.1668,9.0356 C14.1148,9.6616 13.0308,10.0326 11.9778,10.3126 L11.9078,10.3316 C10.8548,10.6146 9.6088,10.8036 8.4238,10.9736 C8.2368,10.9996 8.0568,11.0296 7.8798,11.0586 C7.3818,11.1396 6.9008,11.2176 6.3908,11.2176" id="Fill-64" fill="#000000" mask="url(#mask-12)"></path>
                        </g>
                        <path d="M4.5236,98.3367 L4.5166,98.3367 C4.3826,98.3327 4.2776,98.2207 4.28148941,98.0877 L4.2946,95.7827 L4.4666,64.8427 C4.4696,64.7927 4.5306,63.9527 5.0406,63.5217 C5.5426,63.0967 6.4276,63.1227 6.4646,63.1237 L48.6166,62.5727 C48.6676,62.5727 53.4086,62.5887 55.8086,62.6767 C58.2946,62.7677 63.1166,63.1487 63.1656,63.1517 L75.1736,64.2167 C75.2056,64.2187 75.9406,64.2887 76.3196,64.7497 C76.6846,65.1937 76.6716,65.9317 76.6701435,66.0147 L76.4226,81.1117 C76.4206,81.2437 76.3126,81.3507 76.1816,81.3507 C76.1796,81.3507 76.1786,81.3507 76.1776,81.3497 C76.0446,81.3477 75.9376,81.2377 75.9396,81.1047 L76.1866,66.0027 C76.1916,65.8237 76.1586,65.3147 75.9466,65.0567 C75.7396,64.8057 75.2876,64.7117 75.1306,64.6967 L63.1246,63.6337 C63.0786,63.6307 58.2666,63.2497 55.7916,63.1587 C53.3986,63.0707 48.6666,63.0567 48.6186,63.0567 L6.4596,63.6067 C6.2456,63.6027 5.6506,63.6387 5.3526,63.8907 C5.0596,64.1377 4.9616,64.6747 4.9496,64.8597 L4.7656,98.0807 C4.7656,98.0827 4.7656,98.1007 4.7656,98.1027 C4.7606,98.2327 4.6536,98.3367 4.5236,98.3367" id="Fill-67" fill="#000000"></path>
                        <g id="Group-71" transform="translate(3.000000, 102.000000)">
                            <mask id="mask-14" fill="white">
                                <use xlink:href="#path-13"></use>
                            </mask>
                            <g id="Clip-70"></g>
                            <path d="M1.4845,3.4432 C1.3505,3.4432 1.2425,3.3352 1.2425,3.2012 L1.2435,3.0322 L1.2585,0.3392 C1.2595,0.2062 1.3675,0.0922 1.5005,0.0922 L1.5015,0.0922 C1.6335,0.0922 1.7415,0.1952 1.7415,0.3282 L1.7415,0.4352 L1.7255,3.2012 C1.7255,3.3352 1.6175,3.4432 1.4845,3.4432" id="Fill-69" fill="#000000" mask="url(#mask-14)"></path>
                        </g>
                        <g id="Group-74" transform="translate(13.000000, 99.000000)">
                            <mask id="mask-16" fill="white">
                                <use xlink:href="#path-15"></use>
                            </mask>
                            <g id="Clip-73"></g>
                            <path d="M42.3371,9.0106 C41.7361,9.0106 41.2591,8.9866 41.2331,8.9846 L1.1781,8.0026 C1.0451,7.9996 0.9401,7.8886 0.942071898,7.7556 C0.9461,7.6216 1.0531,7.5206 1.1901,7.5196 L41.2511,8.5016 C41.2671,8.5016 42.1231,8.5456 42.9701,8.5166 C43.8161,8.4876 44.6771,8.3836 44.6861,8.3826 L61.7981,7.0246 C61.8081,7.0236 61.8161,7.0236 61.8261,7.0236 C61.9731,7.0286 62.4111,6.9926 62.6081,6.7766 C62.8161,6.5506 62.8541,6.0506 62.8511,5.8756 L62.8921,0.9766 C62.8931,0.8436 63.0011,0.7366 63.1341,0.7366 L63.1361,0.7366 C63.2691,0.7386 63.3761,0.8466 63.375107,0.9806 L63.3341,5.8736 C63.3351,5.9506 63.3381,6.6956 62.9651,7.1026 C62.6011,7.5016 61.9491,7.5096 61.8231,7.5066 L44.7331,8.8636 C44.7071,8.8666 43.8541,8.9696 42.9861,8.9996 C42.7651,9.0076 42.5441,9.0106 42.3371,9.0106" id="Fill-72" fill="#000000" mask="url(#mask-16)"></path>
                        </g>
                        <path d="M76.1584,97.2801 L76.1564,97.2801 C76.0224,97.2791 75.9154,97.1701 75.9164,97.0371 L75.9314,95.1961 C75.9334,95.0631 76.0414,94.9561 76.1744,94.9561 L76.1764,94.9561 C76.3094,94.9581 76.4164,95.0661 76.4154,95.2001 L76.3994,97.0411 C76.3984,97.1741 76.2914,97.2801 76.1584,97.2801" id="Fill-75" fill="#000000"></path>
                        <path d="M76.1994,92.3172 C76.1974,92.3172 76.1944,92.3162 76.1924,92.3162 C76.0584,92.3122 75.9544,92.2012 75.9584,92.0682 L75.9594,91.9242 L75.9784,89.6932 C75.9794,89.5602 76.0874,89.4532 76.2204,89.4532 L76.2214,89.4532 C76.3554,89.4552 76.4634,89.5632 76.4624,89.6972 L76.4414,92.0622 L76.4414,92.0832 C76.4374,92.2132 76.3304,92.3172 76.1994,92.3172" id="Fill-77" fill="#000000"></path>
                        <path d="M76.2492,86.4852 L76.2472,86.4852 C76.1132,86.4842 76.0062,86.3752 76.0072,86.2422 L76.0182,85.0172 C76.0192,84.8842 76.1262,84.7782 76.2592,84.7782 L76.2612,84.7782 C76.3952,84.7792 76.5022,84.8882 76.5012,85.0212 L76.4902,86.2462 C76.4892,86.3792 76.3822,86.4852 76.2492,86.4852" id="Fill-79" fill="#000000"></path>
                        <path d="M75.9406,65.117 C75.9386,65.117 75.9366,65.116 75.9346,65.116 L56.6356,64.672 L5.4356,63.923 C5.3016,63.921 5.1956,63.811 5.19757216,63.678 C5.1996,63.546 5.3066,63.439 5.4386,63.439 L5.4426,63.439 L56.6456,64.188 L75.9466,64.634 C76.0796,64.637 76.1856,64.747 76.1817096,64.881 C76.1786,65.012 76.0716,65.117 75.9406,65.117" id="Fill-81" fill="#000000"></path>
                        <g id="Group-85" transform="translate(55.000000, 64.000000)">
                            <mask id="mask-18" fill="white">
                                <use xlink:href="#path-17"></use>
                            </mask>
                            <g id="Clip-84"></g>
                            <path d="M0.8791,43.784 L0.8761,43.784 C0.7421,43.782 0.6361,43.673 0.6381,43.54 L1.1591,0.587 C1.1601,0.454 1.2731,0.34 1.4031,0.34760285 C1.5371,0.349 1.6441,0.46 1.6421,0.593 L1.1201,43.546 C1.1191,43.678 1.0111,43.784 0.8791,43.784" id="Fill-83" fill="#000000" mask="url(#mask-18)"></path>
                        </g>
                        <path d="M77.091,81.7821 C77.068,81.7821 77.043,81.7791 77.02,81.7721 C76.893,81.7331 76.82,81.5971 76.86,81.4701 C77.527,79.2791 78.344,75.7171 79.066,72.5731 C79.443,70.9281 79.8,69.3751 80.092,68.2041 C80.354,67.1591 81.731,61.8711 83.144,60.4581 C83.237,60.3631 83.391,60.3631 83.485,60.4581 C83.579,60.5531 83.579,60.7051 83.485,60.8001 C82.459,61.8251 81.269,65.4931 80.561,68.3211 C80.27,69.4871 79.913,71.0391 79.536,72.6811 C78.813,75.8321 77.993,79.4041 77.321,81.6111 C77.29,81.7161 77.194,81.7821 77.091,81.7821" id="Fill-86" fill="#000000"></path>
                        <path d="M85.4298,90.2469 C85.3178,90.2469 85.2158,90.1679 85.1938,90.0529 C84.9498,88.8319 84.4378,87.8509 83.8968,86.8129 C83.6298,86.3009 83.3538,85.7699 83.1018,85.1949 C82.8028,84.5119 82.4758,83.7929 82.1288,83.0319 C80.8568,80.2399 79.4138,77.0749 78.8048,74.3319 C78.7758,74.2019 78.8578,74.0719 78.9878,74.0439 C79.1178,74.0139 79.2468,74.0969 79.2768,74.2269 C79.8748,76.9209 81.3058,80.0609 82.5688,82.8319 C82.9158,83.5949 83.2438,84.3139 83.5448,85.0019 C83.7898,85.5609 84.0618,86.0839 84.3258,86.5899 C84.8828,87.6589 85.4088,88.6699 85.6668,89.9579 C85.6938,90.0889 85.6088,90.2159 85.4778,90.2419 C85.4618,90.2459 85.4458,90.2469 85.4298,90.2469" id="Fill-88" fill="#000000"></path>
                        <path d="M82.7326,102.7264 C82.6936,102.7264 82.6536,102.7164 82.6176,102.6964 C81.4616,102.0644 80.5806,101.2484 79.8036,100.5294 C79.5006,100.2474 79.2136,99.9824 78.9216,99.7354 C78.8206,99.6494 78.8076,99.4974 78.8936,99.3954 C78.9796,99.2924 79.1316,99.2804 79.2336,99.3674 C79.5346,99.6214 79.8246,99.8894 80.1316,100.1744 C80.9246,100.9094 81.7456,101.6694 82.8486,102.2724 C82.9656,102.3354 83.0086,102.4834 82.9446,102.6004 C82.9006,102.6804 82.8186,102.7264 82.7326,102.7264" id="Fill-90" fill="#000000"></path>
                        <path d="M74.924,44.6239 C74.899,44.6239 74.872,44.6189 74.846,44.6099 C73.478,44.1419 67.331,41.9939 65.324,40.9269 C62.071,39.1949 61.885,37.7209 62.547,32.6499 C62.565,32.5189 62.687,32.4259 62.818,32.4419 C62.95,32.4599 63.043,32.5809 63.027,32.7129 C62.343,37.9489 62.673,38.9679 65.551,40.4999 C67.528,41.5519 73.652,43.6899 75.003,44.1529 C75.129,44.1969 75.196,44.3339 75.153,44.4609 C75.118,44.5609 75.025,44.6239 74.924,44.6239" id="Fill-92" fill="#000000"></path>
                        <g id="Group-96" transform="translate(74.000000, 44.000000)">
                            <mask id="mask-20" fill="white">
                                <use xlink:href="#path-19"></use>
                            </mask>
                            <g id="Clip-95"></g>
                            <path d="M14.6671,60.6737 C13.2341,60.6737 11.6321,60.5127 10.1971,59.9907 C9.5471,59.7537 7.4451,58.9127 7.7181,58.0407 C7.7581,57.9137 7.8941,57.8427 8.0211,57.8827 C8.1471,57.9227 8.2191,58.0587 8.1791,58.1857 C8.1011,58.4377 9.1821,59.1077 10.3621,59.5367 C12.8971,60.4577 16.0111,60.2057 17.6411,59.9737 C19.8391,59.6587 21.4111,59.1177 22.3151,58.3637 C23.9271,57.0217 24.4121,55.1397 23.9891,51.8677 C22.8911,43.3757 20.5941,35.5187 18.1611,27.1997 C17.4631,24.8137 16.7421,22.3467 16.0571,19.8807 C15.8781,19.2357 15.7061,18.5897 15.5241,17.9047 C14.5631,14.2907 13.5691,10.5547 11.6301,7.5377 C9.1961,3.7507 5.6911,2.4477 1.6331,0.9387 C1.3511,0.8337 1.0671,0.7287 0.7821,0.6207 C0.6571,0.5737 0.5941,0.4357 0.6421,0.3107 C0.6881,0.1857 0.8271,0.1217 0.9521,0.1687 C1.2371,0.2767 1.5201,0.3807 1.8011,0.4857 C5.7691,1.9607 9.5161,3.3547 12.0371,7.2767 C14.0171,10.3567 15.0211,14.1307 15.9911,17.7807 C16.1731,18.4637 16.3441,19.1087 16.5221,19.7517 C17.2071,22.2137 17.9281,24.6797 18.6251,27.0647 C21.0631,35.4017 23.3651,43.2767 24.4681,51.8057 C24.9091,55.2187 24.3581,57.2907 22.6251,58.7367 C21.6371,59.5597 20.0291,60.1197 17.7091,60.4517 C16.9461,60.5607 15.8661,60.6737 14.6671,60.6737" id="Fill-94" fill="#000000" mask="url(#mask-20)"></path>
                        </g>
                        <path d="M84.9582,91.5623 C84.3482,91.5623 83.8452,91.4793 83.4502,91.4153 C83.1142,91.3593 82.8242,91.3113 82.6952,91.3603 C82.5712,91.4083 82.4322,91.3463 82.3842,91.2213 C82.3362,91.0973 82.3972,90.9583 82.5222,90.9103 C82.7732,90.8133 83.0902,90.8653 83.5282,90.9373 C84.2272,91.0523 85.2812,91.2263 86.6712,90.8403 C87.1492,90.7083 87.6872,90.5063 88.2592,90.2933 C90.3322,89.5203 92.9132,88.5583 94.8962,90.0443 C95.0022,90.1253 95.0232,90.2763 94.9432,90.3833 C94.8632,90.4903 94.7122,90.5113 94.6052,90.4313 C92.8352,89.1033 90.4932,89.9763 88.4282,90.7473 C87.8472,90.9633 87.2982,91.1673 86.8012,91.3063 C86.1052,91.4993 85.4912,91.5623 84.9582,91.5623" id="Fill-97" fill="#000000"></path>
                        <path d="M83.4132,91.8104 C83.3772,91.8104 83.3402,91.8014 83.3052,91.7854 C83.3062,91.7854 83.2762,91.7794 83.2422,91.7694 C82.9822,91.7004 82.3742,91.5384 81.6182,91.0344 C81.5072,90.9594 81.4762,90.8104 81.5512,90.6994 C81.6252,90.5874 81.7742,90.5584 81.8862,90.6324 C82.5752,91.0914 83.1302,91.2394 83.3662,91.3024 C83.4422,91.3224 83.4842,91.3334 83.5222,91.3534 C83.6422,91.4134 83.6892,91.5584 83.6292,91.6774 C83.5872,91.7614 83.5022,91.8104 83.4132,91.8104" id="Fill-99" fill="#000000"></path>
                        <path d="M36.1422,41.6014 C36.0372,41.6014 35.9402,41.5324 35.9102,41.4264 C35.8722,41.2984 35.9462,41.1644 36.0752,41.1274 L37.3102,40.7704 C37.7072,40.6524 38.1362,40.5344 38.5892,40.4094 C40.2482,39.9504 42.3132,39.3794 44.3742,38.3734 C46.3382,37.4164 46.8382,36.4534 46.7022,33.8914 C46.6942,33.7584 46.7972,33.6444 46.9312,33.6374 C47.0632,33.6304 47.1782,33.7324 47.1842,33.8664 C47.3302,36.6114 46.7242,37.7664 44.5862,38.8084 C42.4852,39.8334 40.3962,40.4114 38.7182,40.8744 C38.2672,40.9984 37.8402,41.1174 37.4462,41.2344 L36.2092,41.5914 C36.1872,41.5974 36.1642,41.6014 36.1422,41.6014" id="Fill-101" fill="#000000"></path>
                        <path d="M15.0695,63.3651 C15.0515,63.3651 15.0335,63.3631 15.0145,63.3591 C14.8845,63.3291 14.8035,63.1991 14.8345,63.0691 C14.9245,62.6781 15.0375,62.1691 15.1665,61.5821 C15.7955,58.7291 17.2335,54.1071 17.7785,52.1701 C19.7925,45.0061 30.8765,42.7781 36.4665,41.0411 C36.5935,41.0021 36.7295,41.0731 36.7685,41.2001 C36.8085,41.3281 36.7365,41.4641 36.6095,41.5031 C31.1195,43.2091 21.2965,45.0521 18.2075,52.3931 C17.4515,54.1891 16.2625,58.8561 15.6385,61.6851 C15.5085,62.2751 15.3955,62.7861 15.3045,63.1781 C15.2785,63.2901 15.1795,63.3651 15.0695,63.3651" id="Fill-103" fill="#000000"></path>
                        <path d="M26.3512,63.2069 C26.2582,63.2069 26.1702,63.1529 26.1302,63.0629 C25.6962,62.0789 25.4282,61.0719 25.1452,60.0059 C24.8322,58.8279 24.4772,57.4939 23.8322,55.9569 C23.7812,55.8339 23.8392,55.6919 23.9622,55.6409 C24.0852,55.5889 24.2262,55.6459 24.2782,55.7699 C24.9362,57.3369 25.2952,58.6879 25.6122,59.8819 C25.8902,60.9299 26.1532,61.9189 26.5722,62.8679 C26.6262,62.9899 26.5702,63.1329 26.4482,63.1859 C26.4162,63.1999 26.3842,63.2069 26.3512,63.2069" id="Fill-105" fill="#000000"></path>
                        <path d="M83.0929,102.8035 C82.7529,102.8035 82.3919,102.7425 82.0109,102.6195 C81.8839,102.5785 81.8149,102.4435 81.8559,102.3165 C81.8969,102.1895 82.0309,102.1175 82.1589,102.1595 C83.8919,102.7195 84.7599,101.6885 85.1819,100.7245 C86.3579,98.0425 85.4169,92.8595 82.8819,91.4285 C82.7659,91.3635 82.7249,91.2145 82.7899,91.0995 C82.8569,90.9835 83.0029,90.9425 83.1199,91.0075 C85.8959,92.5745 86.9009,98.0075 85.6249,100.9185 C85.0809,102.1575 84.2019,102.8035 83.0929,102.8035" id="Fill-107" fill="#000000"></path>
                        <path d="M53.6027,44.1532 C53.1057,44.1532 52.6087,44.1312 52.1147,44.0842 C49.7967,43.8632 45.6947,42.9032 44.2477,38.9522 C44.2027,38.8292 44.2597,38.6912 44.3747,38.6432 C44.4907,38.5962 44.6207,38.6572 44.6647,38.7792 C46.0247,42.4912 49.9407,43.3992 52.1537,43.6092 C56.5497,44.0282 61.4047,42.4062 62.7547,40.0672 C62.8197,39.9552 62.9567,39.9202 63.0627,39.9892 C63.1677,40.0572 63.2017,40.2042 63.1367,40.3162 C61.8387,42.5642 57.7547,44.1532 53.6027,44.1532" id="Fill-109" fill="#000000"></path>
                        <path d="M67.9064,14.8455 C67.8964,14.8455 67.8854,14.8455 67.8754,14.8435 C67.7424,14.8265 67.6494,14.7055 67.6664,14.5735 C68.0744,11.4275 66.8964,8.0175 64.5154,5.4505 C61.1774,1.8545 55.4144,0.5115 50.5014,2.1875 C47.9734,3.0485 45.7034,4.7025 44.2694,6.7275 C42.9194,8.6325 42.3234,11.2825 42.5894,14.1895 C42.6014,14.3235 42.5044,14.4405 42.3714,14.4515 C42.2384,14.4655 42.1204,14.3665 42.1084,14.2345 C41.8314,11.2125 42.4584,8.4485 43.8754,6.4485 C45.3664,4.3425 47.7234,2.6225 50.3444,1.7305 C55.4334,-0.0055 61.4064,1.3895 64.8694,5.1215 C67.3464,7.7925 68.5724,11.3485 68.1454,14.6355 C68.1304,14.7565 68.0264,14.8455 67.9064,14.8455" id="Fill-111" fill="#000000"></path>
                        <path d="M67.6447,14.4237 C67.6047,14.4237 67.5647,14.4137 67.5277,14.3937 C66.3827,13.7537 62.5857,12.1967 58.1517,11.4667 C54.1497,10.8077 48.3967,10.6267 43.7157,13.5117 C43.6017,13.5817 43.4527,13.5467 43.3827,13.4337 C43.3127,13.3197 43.3487,13.1707 43.4617,13.1007 C48.2707,10.1367 54.1477,10.3177 58.2297,10.9897 C63.0887,11.7907 66.8337,13.4517 67.7627,13.9717 C67.8797,14.0367 67.9207,14.1837 67.8567,14.3007 C67.8117,14.3797 67.7297,14.4237 67.6447,14.4237" id="Fill-113" fill="#000000"></path>
                        <path d="M67.672,18.4871 C66.7,18.4871 65.367,17.9541 64.324,17.4491 C62.872,16.7471 59.026,15.2161 57.347,14.9181 C54.374,14.3911 52.288,14.8831 49.648,15.5071 C48.943,15.6731 48.215,15.8441 47.422,16.0081 C46.815,16.1331 45.863,16.3841 44.857,16.6501 C43.447,17.0221 41.989,17.4071 41.394,17.4631 C41.029,17.4971 40.86,17.3411 40.782,17.2061 C40.685,17.0371 40.391,16.5231 42.167,14.0521 C42.245,13.9441 42.396,13.9191 42.505,13.9971 C42.613,14.0751 42.638,14.2261 42.56,14.3351 C41.298,16.0901 41.12,16.8231 41.201,16.9661 C41.207,16.9741 41.251,16.9911 41.349,16.9811 C41.904,16.9291 43.342,16.5501 44.734,16.1831 C45.746,15.9161 46.703,15.6631 47.324,15.5351 C48.11,15.3731 48.836,15.2021 49.537,15.0361 C52.125,14.4251 54.359,13.8971 57.431,14.4421 C59.178,14.7521 63.023,16.2831 64.534,17.0131 C66.193,17.8161 67.537,18.1611 68.13,17.9351 C68.2,17.9081 68.247,17.8601 68.282,17.7801 C68.552,17.1621 67.839,15.3991 67.534,14.6471 C67.451,14.4421 67.386,14.2801 67.348,14.1701 C67.304,14.0441 67.371,13.9061 67.497,13.8621 C67.624,13.8191 67.761,13.8861 67.805,14.0121 C67.839,14.1111 67.905,14.2751 67.983,14.4661 C68.511,15.7731 69.049,17.2301 68.726,17.9731 C68.64,18.1711 68.493,18.3131 68.302,18.3861 C68.119,18.4571 67.906,18.4871 67.672,18.4871" id="Fill-115" fill="#000000"></path>
                        <path d="M1.5978,95.203 C1.4898,95.203 1.3908,95.13 1.3638,95.02 C1.1318,94.095 1.2748,93.292 1.7868,92.636 C2.5178,91.699 3.7878,91.35 4.4178,91.35 C4.5508,91.35 4.6598,91.459 4.6598,91.592 C4.6598,91.725 4.5508,91.834 4.4178,91.834 C3.8568,91.834 2.7528,92.182 2.1678,92.932 C1.7518,93.466 1.6388,94.129 1.8318,94.903 C1.8648,95.032 1.7858,95.164 1.6568,95.196 C1.6368,95.201 1.6178,95.203 1.5978,95.203" id="Fill-117" fill="#000000"></path>
                        <path d="M78.8957,99.7664 C78.5567,99.7664 78.2337,99.6634 77.9427,99.4614 C77.8337,99.3854 77.8057,99.2354 77.8817,99.1254 C77.9587,99.0154 78.1097,98.9894 78.2187,99.0654 C78.5337,99.2844 78.8867,99.3384 79.2697,99.2284 C80.0277,99.0084 80.7947,98.1694 81.2727,97.0394 C82.1977,94.8504 81.9217,91.9444 81.1927,90.3224 C81.1377,90.2004 81.1917,90.0574 81.3137,90.0024 C81.4357,89.9474 81.5787,90.0014 81.6327,90.1234 C82.4047,91.8394 82.6967,94.9124 81.7177,97.2274 C81.1767,98.5074 80.3117,99.4294 79.4037,99.6924 C79.2317,99.7424 79.0617,99.7664 78.8957,99.7664" id="Fill-119" fill="#000000"></path>
                        <path d="M63.0509,26.743 C63.0149,26.743 62.9779,26.734 62.9429,26.717 C62.8229,26.657 62.7759,26.513 62.8349,26.392 C63.0349,25.992 63.1839,25.477 63.3399,24.931 C63.6129,23.983 63.8949,23.002 64.5129,22.383 C64.6079,22.289 64.7599,22.289 64.8549,22.383 C64.9489,22.477 64.9489,22.63 64.8549,22.724 C64.3239,23.255 64.0599,24.176 63.8039,25.065 C63.6419,25.633 63.4879,26.168 63.2669,26.609 C63.2249,26.693 63.1399,26.743 63.0509,26.743" id="Fill-121" fill="#000000"></path>
                        <path d="M45.7306,26.2176 C45.6166,26.2176 45.5136,26.1346 45.4936,26.0176 C45.4886,25.9906 45.0136,23.3326 44.4856,22.4516 C44.4176,22.3376 44.4546,22.1896 44.5686,22.1206 C44.6826,22.0526 44.8316,22.0896 44.8996,22.2036 C45.4736,23.1606 45.9496,25.8216 45.9686,25.9336 C45.9926,26.0656 45.9046,26.1906 45.7736,26.2136 C45.7586,26.2156 45.7456,26.2176 45.7306,26.2176" id="Fill-123" fill="#000000"></path>
                    </g>
                    <g id="Group-134" transform="translate(45.000000, 3.973000)">
                        <path d="M10.216,5.0653 L10.216,3.8403 C10.216,3.5133 10.3,3.2313 10.52,3.1433 L11.459,2.7803 C11.484,2.7163 11.527,2.5883 11.524,2.4093 C11.512,1.7893 11.198,1.3383 10.767,1.1853 L8.195,0.3113 L8.865,0.0503 C8.902,0.0363 8.946,0.0283 8.986,0.0283 C9.028,0.0283 9.078,0.0383 9.112,0.0493 L11.737,0.9413 C12.194,1.1063 12.363,1.6993 12.363,2.0203 C12.363,2.2813 12.282,2.5823 12.027,2.6823 C11.801,2.7713 11.121,3.0363 11.121,3.0363 C11.096,3.1003 11.055,3.2203 11.055,3.4833 L11.055,4.5873 C11.055,4.9353 10.901,5.2503 10.605,5.2503 C10.477,5.2503 10.331,5.1853 10.216,5.0653" id="Fill-126" fill="#FFFFFF"></path>
                        <path d="M9.5431,2.2811 C9.6781,2.5041 9.7461,2.7851 9.7461,3.0221 L9.7461,4.0511 C9.7461,4.6861 10.0181,5.2051 10.4631,5.3521 L9.7741,5.6111 C9.6371,5.6631 9.5021,5.6091 9.4201,5.5521 C9.0851,5.3191 8.9081,4.9571 8.9081,4.4011 C8.9081,4.1401 8.9071,3.7831 8.9071,3.3231 C8.9071,3.0601 8.8041,2.7551 8.6461,2.5281 C8.5261,2.3571 8.3881,2.2511 8.2131,2.1821 C7.8741,2.0511 7.6011,1.5731 7.6011,1.1041 C7.6011,0.7011 7.7891,0.4471 8.0411,0.4271 C8.0951,0.4231 8.1411,0.4331 8.1841,0.4481 C8.3331,0.4981 8.4531,0.5431 8.4531,0.5431 C8.3701,1.0101 8.6211,1.7241 9.1261,1.9191 C9.3241,1.9951 9.4411,2.1131 9.5431,2.2811" id="Fill-128" fill="#FFFFFF"></path>
                        <path d="M0.0763,23.617 C0.0763,23.617 -0.0657,27.399 2.8253,30.099 C5.7153,32.8 7.7353,33.688 9.7553,33.449 C11.7743,33.21 16.6493,30.954 17.6593,28.288 C18.6693,25.622 18.634447,24.562 18.634447,24.562" id="Stroke-130" stroke="#000000" stroke-width="0.507" stroke-linecap="round" stroke-linejoin="round"></path>
                        <path d="M6.6711,26.7225 C6.6711,26.7225 8.7901,28.7895 11.2511,27.0345" id="Stroke-132" stroke="#000000" stroke-width="0.502" stroke-linecap="round" stroke-linejoin="round"></path>
                    </g>
                </g>
            </g>
        </g>
    </g>
</svg>