<svg xmlns="http://www.w3.org/2000/svg" xmlns:xlink="http://www.w3.org/1999/xlink" viewBox="0 0 154.3 36.24"><defs><style>.cls-1{fill:url(#linear-gradient);}.cls-2{fill:url(#linear-gradient-2);}.cls-3{fill:url(#linear-gradient-3);}.cls-4{fill:url(#linear-gradient-4);}.cls-5{opacity:0.2;}.cls-5,.cls-6,.cls-7{isolation:isolate;}.cls-6{opacity:0.12;}.cls-7{fill:#fff;opacity:0.25;}</style><linearGradient id="linear-gradient" x1="15.75" y1="47.29" x2="-6.6" y2="24.94" gradientTransform="matrix(1, 0, 0, -1, 0, 49.75)" gradientUnits="userSpaceOnUse"><stop offset="0" stop-color="#00a0ff"/><stop offset="0.01" stop-color="#00a1ff"/><stop offset="0.26" stop-color="#00beff"/><stop offset="0.51" stop-color="#00d2ff"/><stop offset="0.76" stop-color="#00dfff"/><stop offset="1" stop-color="#00e3ff"/></linearGradient><linearGradient id="linear-gradient-2" x1="31.78" y1="32.25" x2="-0.45" y2="32.25" gradientTransform="matrix(1, 0, 0, -1, 0, 49.75)" gradientUnits="userSpaceOnUse"><stop offset="0" stop-color="#ffe000"/><stop offset="0.41" stop-color="#ffbd00"/><stop offset="0.78" stop-color="orange"/><stop offset="1" stop-color="#ff9c00"/></linearGradient><linearGradient id="linear-gradient-3" x1="19.79" y1="29.2" x2="-10.53" y2="-1.12" gradientTransform="matrix(1, 0, 0, -1, 0, 49.75)" gradientUnits="userSpaceOnUse"><stop offset="0" stop-color="#ff3a44"/><stop offset="1" stop-color="#c31162"/></linearGradient><linearGradient id="linear-gradient-4" x1="-3.56" y1="58.66" x2="9.97" y2="45.12" gradientTransform="matrix(1, 0, 0, -1, 0, 49.75)" gradientUnits="userSpaceOnUse"><stop offset="0" stop-color="#32a071"/><stop offset="0.07" stop-color="#2da771"/><stop offset="0.48" stop-color="#15cf74"/><stop offset="0.8" stop-color="#06e775"/><stop offset="1" stop-color="#00f076"/></linearGradient></defs><g id="레이어_2" data-name="레이어 2"><g id="artwork"><path d="M49.88,4.5a3.61,3.61,0,0,1-1,2.67A3.89,3.89,0,0,1,46,8.35,4,4,0,0,1,43,7.15a4,4,0,0,1-1.21-3A4,4,0,0,1,43,1.2,4,4,0,0,1,46,0a4.18,4.18,0,0,1,1.64.33,3.38,3.38,0,0,1,1.25.9l-.7.7A2.71,2.71,0,0,0,46,1a3.09,3.09,0,0,0-3.11,3.19A3.09,3.09,0,0,0,46,7.37a3,3,0,0,0,2.23-.9,2.46,2.46,0,0,0,.67-1.61H46v-1h3.87A3.05,3.05,0,0,1,49.88,4.5Z"/><path d="M56,1.16H52.38V3.69h3.28v1H52.38V7.19H56v1H51.35v-8H56Z"/><path d="M60.35,8.17h-1v-7H57.09v-1h5.49v1H60.35Z"/><path d="M66.55,8.17v-8h1v8Z"/><path d="M72.13,8.17h-1v-7H68.87v-1h5.49v1H72.13Z"/><path d="M84.76,7.14a4.15,4.15,0,0,1-5.86,0,4.09,4.09,0,0,1-1.18-3,4.08,4.08,0,0,1,1.18-3A3.9,3.9,0,0,1,81.83,0a3.94,3.94,0,0,1,2.93,1.22,4.1,4.1,0,0,1,1.18,3A4.13,4.13,0,0,1,84.76,7.14Zm-5.1-.67a3.07,3.07,0,0,0,4.34,0,3.15,3.15,0,0,0,.89-2.3A3.13,3.13,0,0,0,84,1.88a3.07,3.07,0,0,0-4.34,0,3.13,3.13,0,0,0-.89,2.29A3.15,3.15,0,0,0,79.66,6.47Z"/><path d="M87.38,8.17v-8h1.25L92.51,6.4h0l0-1.54V.18h1v8H92.47L88.4,1.65h0l0,1.54v5Z"/><path d="M77.47,19.83a5.67,5.67,0,1,0,5.69,5.66A5.59,5.59,0,0,0,77.47,19.83Zm0,9.1a3.28,3.28,0,0,1-3.2-3.44,3.21,3.21,0,1,1,6.4,0A3.28,3.28,0,0,1,77.47,28.93Zm-12.4-9.1a5.67,5.67,0,1,0,5.68,5.66A5.58,5.58,0,0,0,65.07,19.83Zm0,9.1a3.28,3.28,0,0,1-3.2-3.44,3.2,3.2,0,1,1,6.39,0A3.28,3.28,0,0,1,65.07,28.93ZM50.31,21.57V24h5.75a5,5,0,0,1-1.31,3,5.89,5.89,0,0,1-4.44,1.76,6.4,6.4,0,0,1,0-12.79,6.14,6.14,0,0,1,4.33,1.72L56.34,16a8.37,8.37,0,0,0-6-2.43,8.93,8.93,0,0,0-8.93,8.8,8.93,8.93,0,0,0,8.93,8.8,7.79,7.79,0,0,0,8.22-8.09,8.21,8.21,0,0,0-.13-1.5Zm60.35,1.86a5.28,5.28,0,0,0-4.85-3.6,5.38,5.38,0,0,0-5.35,5.66,5.55,5.55,0,0,0,5.63,5.67,5.66,5.66,0,0,0,4.72-2.51l-1.93-1.29a3.26,3.26,0,0,1-2.79,1.57,2.88,2.88,0,0,1-2.75-1.72l7.57-3.13Zm-7.73,1.89a3.11,3.11,0,0,1,3-3.3,2.2,2.2,0,0,1,2.11,1.2Zm-6.16,5.49h2.49V14.16H96.77ZM92.7,21.09h-.09a3.94,3.94,0,0,0-3-1.26,5.67,5.67,0,0,0,0,11.33,3.85,3.85,0,0,0,3-1.29h.09v.81c0,2.17-1.16,3.33-3,3.33a3.12,3.12,0,0,1-2.85-2l-2.17.91a5.39,5.39,0,0,0,5,3.34c2.92,0,5.39-1.71,5.39-5.9V20.17H92.7Zm-2.86,7.84a3.26,3.26,0,0,1-3.15-3.42,3.28,3.28,0,0,1,3.15-3.45,3.19,3.19,0,0,1,3,3.45A3.17,3.17,0,0,1,89.84,28.93Zm32.48-14.77h-6V30.81h2.49v-6.3h3.47a5.28,5.28,0,0,0,5.46-5.18A5.28,5.28,0,0,0,122.32,14.16Zm.06,8h-3.53V16.48h3.53a2.86,2.86,0,1,1,0,5.71Zm15.36-2.39a4.65,4.65,0,0,0-4.43,2.55l2.2.92a2.35,2.35,0,0,1,2.27-1.22,2.4,2.4,0,0,1,2.62,2.14v.17a5.5,5.5,0,0,0-2.6-.64c-2.37,0-4.79,1.3-4.79,3.75a3.85,3.85,0,0,0,4.13,3.66,3.51,3.51,0,0,0,3.17-1.63h.09v1.29h2.4V24.4C142.8,21.45,140.59,19.8,137.74,19.8Zm-.3,9.12c-.81,0-1.95-.4-1.95-1.41,0-1.29,1.41-1.78,2.64-1.78a4.46,4.46,0,0,1,2.27.56A3,3,0,0,1,137.44,28.92Zm14.1-8.76-2.85,7.22h-.09l-3-7.22H143l4.43,10.09-2.53,5.61h2.6l6.83-15.7ZM129.15,30.81h2.48V14.16h-2.48Z"/><path class="cls-1" d="M.62.9A2.64,2.64,0,0,0,0,2.77V32.22A2.67,2.67,0,0,0,.62,34.1l.09.09,16.51-16.5V17.3L.71.8Z"/><path class="cls-2" d="M22.72,23.19l-5.5-5.5V17.3l5.5-5.5.12.07,6.52,3.7c1.86,1.06,1.86,2.79,0,3.85l-6.52,3.7Z"/><path class="cls-3" d="M22.84,23.12,17.22,17.5.62,34.1a2.17,2.17,0,0,0,2.76.08L22.84,23.12"/><path class="cls-4" d="M22.84,11.87,3.38.81A2.16,2.16,0,0,0,.62.9l16.6,16.6Z"/><path class="cls-5" d="M22.72,23,3.38,34A2.2,2.2,0,0,1,.72,34h0l-.1.1h0l.09.09h0a2.21,2.21,0,0,0,2.66,0L22.84,23.12Z"/><path class="cls-6" d="M.62,33.9A2.66,2.66,0,0,1,0,32v.19A2.67,2.67,0,0,0,.62,34.1l.1-.1Z"/><path class="cls-6" d="M29.36,19.22,22.72,23l.12.12,6.52-3.7a2.34,2.34,0,0,0,1.39-1.92h0A2.45,2.45,0,0,1,29.36,19.22Z"/><path class="cls-7" d="M3.38,1l26,14.76a2.44,2.44,0,0,1,1.39,1.73h0a2.32,2.32,0,0,0-1.39-1.93L3.38.81C1.52-.24,0,.64,0,2.77V3C0,.83,1.52,0,3.38,1Z"/></g></g></svg>