<?xml version="1.0" encoding="UTF-8"?>
<svg width="21px" height="21px" viewBox="0 0 21 21" version="1.1" xmlns="http://www.w3.org/2000/svg" xmlns:xlink="http://www.w3.org/1999/xlink">
    <title>Q</title>
    <g id="Page-1" stroke="none" stroke-width="1" fill="none" fill-rule="evenodd">
        <g id="Desktop-Copy" transform="translate(-240.000000, -257.000000)" fill="#000000" fill-rule="nonzero">
            <path d="M250.686,277.312 C251.882,277.312 252.987,277.138667 254.001,276.792 C255.015,276.445333 255.938,275.951333 256.77,275.31 L256.77,275.31 L258.98,277.286 L260.722,275.362 L258.616,273.412 C259.188,272.597333 259.634333,271.691667 259.955,270.695 C260.275667,269.698333 260.436,268.628 260.436,267.484 C260.436,266.062667 260.193333,264.754 259.708,263.558 C259.222667,262.362 258.546667,261.326333 257.68,260.451 C256.813333,259.575667 255.782,258.891 254.586,258.397 C253.39,257.903 252.09,257.656 250.686,257.656 C249.282,257.656 247.982,257.903 246.786,258.397 C245.59,258.891 244.558667,259.575667 243.692,260.451 C242.825333,261.326333 242.149333,262.362 241.664,263.558 C241.178667,264.754 240.936,266.062667 240.936,267.484 C240.936,268.905333 241.178667,270.214 241.664,271.41 C242.149333,272.606 242.825333,273.641667 243.692,274.517 C244.558667,275.392333 245.59,276.077 246.786,276.571 C247.982,277.065 249.282,277.312 250.686,277.312 Z M250.686,274.66 C249.732667,274.66 248.848667,274.495333 248.034,274.166 C247.219333,273.836667 246.508667,273.364333 245.902,272.749 C245.295333,272.133667 244.818667,271.384 244.472,270.5 C244.125333,269.616 243.952,268.610667 243.952,267.484 C243.952,266.374667 244.125333,265.373667 244.472,264.481 C244.818667,263.588333 245.295333,262.834333 245.902,262.219 C246.508667,261.603667 247.219333,261.131333 248.034,260.802 C248.848667,260.472667 249.732667,260.308 250.686,260.308 C251.639333,260.308 252.523333,260.472667 253.338,260.802 C254.152667,261.131333 254.863333,261.603667 255.47,262.219 C256.076667,262.834333 256.553333,263.588333 256.9,264.481 C257.246667,265.373667 257.42,266.374667 257.42,267.484 C257.42,268.992 257.099333,270.309333 256.458,271.436 L256.458,271.436 L253.442,268.628 L251.648,270.682 L254.69,273.438 C253.563333,274.252667 252.228667,274.66 250.686,274.66 Z" id="Q"></path>
        </g>
    </g>
</svg>