<?xml version="1.0" encoding="utf-8"?>
<!-- Generator: Adobe Illustrator 24.2.3, SVG Export Plug-In . SVG Version: 6.00 Build 0)  -->
<svg version="1.1" id="레이어_1" xmlns="http://www.w3.org/2000/svg" xmlns:xlink="http://www.w3.org/1999/xlink" x="0px"
	 y="0px" viewBox="0 0 160.2 49" style="enable-background:new 0 0 160.2 49;" xml:space="preserve">
<style type="text/css">
	.st0{fill:none;}
</style>
<g id="레이어_2_1_">
	<g id="artwork">
		<rect class="st0" width="160.2" height="49"/>
		<path d="M32.9,24.1c0-2.5,1.3-4.7,3.4-6c-1.3-1.9-3.5-3-5.8-3.1c-2.4-0.3-4.8,1.5-6,1.5s-3.2-1.3-5.2-1.3
			c-2.7,0.1-5.1,1.6-6.5,3.9c-2.8,4.8-0.7,11.9,2,15.8c1.3,1.9,2.9,4,4.9,4s2.7-1.3,5.1-1.3s3.1,1.3,5.2,1.2s3.5-1.9,4.8-3.9
			c1-1.4,1.7-2.9,2.2-4.5C34.5,29.4,32.9,26.9,32.9,24.1z"/>
		<path d="M28.9,12.5c1.2-1.4,1.7-3.2,1.6-5c-1.8,0.2-3.4,1-4.6,2.4c-1.2,1.3-1.8,3.1-1.6,4.9C26,14.7,27.8,13.9,28.9,12.5z"/>
		<path d="M61.8,38.6H59l-1.5-4.8h-5.3l-1.5,4.8H48l5.3-16.4h3.2L61.8,38.6z M57,31.8l-1.4-4.3c-0.2-0.4-0.4-1.5-0.8-3.1l0,0
			c-0.2,0.7-0.4,1.7-0.8,3.1l-1.4,4.3H57z"/>
		<path d="M75.4,32.6c0.1,1.7-0.5,3.4-1.6,4.8c-0.9,1-2.3,1.6-3.6,1.6c-1.3,0.1-2.6-0.5-3.3-1.7h-0.1v6.2h-2.6V30.7
			c0-1.3,0-2.6-0.1-3.9h2.3l0.2,1.9l0,0c0.8-1.4,2.4-2.2,4-2.1c1.4,0,2.6,0.6,3.5,1.6C74.9,29.4,75.5,31,75.4,32.6z M72.7,32.7
			c0-1-0.2-2-0.8-2.8c-0.5-0.8-1.4-1.2-2.3-1.2c-0.6,0-1.3,0.2-1.8,0.6c-0.5,0.4-0.9,1-1,1.7c-0.1,0.3-0.1,0.5-0.1,0.8v2
			c0,0.8,0.3,1.6,0.8,2.2c0.5,0.6,1.2,0.9,2,0.9c0.9,0,1.8-0.4,2.3-1.2C72.5,34.8,72.8,33.7,72.7,32.7z"/>
		<path d="M89,32.6c0.1,1.7-0.5,3.5-1.6,4.8c-0.9,1-2.2,1.6-3.6,1.6c-1.3,0.1-2.6-0.5-3.4-1.7l0,0v6.2h-2.7V30.7
			c0-1.3,0-2.6-0.1-3.9h2.3l0.1,1.9l0,0c1.4-2.2,4.3-2.8,6.5-1.3c0.4,0.2,0.7,0.5,1,0.9C88.5,29.4,89,31,89,32.6z M86.3,32.7
			c0-1-0.2-2-0.8-2.8c-0.5-0.8-1.4-1.2-2.3-1.2c-0.6,0-1.3,0.2-1.8,0.6c-0.5,0.4-0.9,1-1,1.7c-0.1,0.3-0.1,0.5-0.1,0.8v2
			c0,0.8,0.3,1.6,0.8,2.2c0.5,0.6,1.3,0.9,2.1,0.9c0.9,0,1.8-0.4,2.3-1.1C86.1,34.8,86.4,33.7,86.3,32.7z"/>
		<path d="M104.2,34c0,1.3-0.5,2.5-1.5,3.4c-1.3,1-2.8,1.5-4.5,1.4c-1.5,0.1-3-0.3-4.2-1l0.6-2.2c1.1,0.7,2.5,1.1,3.8,1
			c0.8,0,1.6-0.2,2.3-0.7c0.5-0.4,0.8-1.1,0.8-1.8c0-0.6-0.2-1.2-0.7-1.7c-0.7-0.6-1.4-1-2.3-1.3c-2.9-1.1-4.3-2.6-4.3-4.7
			c0-1.3,0.5-2.5,1.5-3.3c1.1-0.9,2.6-1.4,4-1.3c1.3,0,2.6,0.2,3.7,0.8l-0.6,2.1c-1-0.5-2-0.8-3.1-0.8c-0.8,0-1.5,0.2-2.2,0.7
			c-0.4,0.4-0.7,0.9-0.7,1.5c0,0.6,0.3,1.2,0.8,1.6c0.7,0.5,1.5,0.9,2.4,1.2c1.2,0.4,2.2,1.1,3.1,2C103.9,31.9,104.2,33,104.2,34z"
			/>
		<path d="M112.9,28.8H110v5.7c0,1.5,0.5,2.2,1.5,2.2c0.4,0,0.8,0,1.2-0.1l0.1,2c-0.6,0.2-1.3,0.3-2,0.3c-0.9,0.1-1.8-0.3-2.4-1
			c-0.7-0.9-1-2-0.9-3.2v-6h-1.7v-2h1.7v-2.1l2.6-0.8v2.9h2.8V28.8z"/>
		<path d="M125.9,32.6c0.1,1.6-0.5,3.3-1.5,4.5c-1.1,1.2-2.7,1.9-4.3,1.8c-1.6,0.1-3.1-0.6-4.2-1.8c-1.1-1.2-1.6-2.8-1.6-4.3
			c-0.1-1.7,0.5-3.3,1.6-4.5c1.1-1.2,2.7-1.8,4.3-1.8c1.6-0.1,3.1,0.6,4.2,1.7C125.4,29.5,126,31,125.9,32.6z M123.2,32.7
			c0-1-0.2-2-0.7-2.8c-0.5-0.9-1.4-1.4-2.4-1.4c-1,0-1.9,0.5-2.4,1.4c-0.5,0.9-0.7,1.9-0.7,2.9c0,1,0.2,1.9,0.7,2.8
			c0.5,0.9,1.4,1.4,2.4,1.4c1,0,1.9-0.5,2.3-1.4C122.9,34.7,123.2,33.7,123.2,32.7L123.2,32.7z"/>
		<path d="M134.5,29.1c-0.3,0-0.5-0.1-0.8-0.1c-0.8,0-1.6,0.3-2.1,1c-0.5,0.7-0.7,1.5-0.7,2.3v6.2h-2.6v-8.1c0-1.4,0-2.6-0.1-3.7
			h2.3l0.1,2.3h0.1c0.3-0.7,0.7-1.4,1.3-1.9c0.5-0.4,1.2-0.6,1.9-0.6c0.2,0,0.4,0,0.6,0L134.5,29.1z"/>
		<path d="M146.2,32.1c0,0.4,0,0.8-0.1,1.2h-7.9c0,1,0.4,2,1.1,2.7c0.7,0.6,1.6,0.9,2.6,0.8c1.1,0,2.2-0.2,3.2-0.6l0.4,1.8
			c-1.3,0.5-2.6,0.8-4,0.7c-1.6,0.1-3.2-0.5-4.3-1.6c-1.1-1.2-1.6-2.7-1.6-4.3c-0.1-1.6,0.5-3.2,1.5-4.5c1-1.3,2.5-2,4.1-1.9
			c1.5-0.1,3,0.6,3.9,1.9C145.9,29.5,146.2,30.8,146.2,32.1z M143.7,31.5c0-0.7-0.1-1.4-0.5-2c-0.4-0.7-1.2-1.1-2.1-1.1
			c-0.8,0-1.6,0.4-2.1,1.1c-0.4,0.6-0.7,1.3-0.8,2L143.7,31.5z"/>
		<path d="M56.2,12.1c0.1,1.2-0.4,2.4-1.3,3.3c-1,0.7-2.2,1.1-3.4,1c-0.6,0-1.3,0-1.9-0.1V8.4c0.7-0.1,1.5-0.2,2.2-0.2
			c1.1-0.1,2.3,0.2,3.2,0.9C55.8,9.9,56.2,11,56.2,12.1z M54.8,12.1c0.1-0.8-0.2-1.6-0.7-2.2c-0.6-0.5-1.4-0.8-2.2-0.7
			c-0.3,0-0.7,0-1,0.1v6c0.3,0,0.6,0,0.9,0c0.8,0.1,1.7-0.2,2.3-0.8C54.6,13.9,54.9,13,54.8,12.1z"/>
		<path d="M63.4,13.4c0,0.8-0.2,1.6-0.8,2.2c-0.5,0.6-1.3,0.9-2.1,0.9c-0.8,0-1.5-0.3-2-0.9c-0.5-0.6-0.8-1.4-0.8-2.1
			c0-0.8,0.2-1.6,0.8-2.2c1.2-1.1,3-1.1,4.2,0C63.2,11.9,63.4,12.6,63.4,13.4z M62,13.4c0-0.5-0.1-1-0.3-1.4
			c-0.4-0.6-1.2-0.9-1.8-0.5c-0.2,0.1-0.4,0.3-0.5,0.5C59.1,12.5,59,13,59,13.4c0,0.5,0.1,1,0.3,1.4c0.2,0.4,0.7,0.7,1.2,0.7
			c0.5,0,0.9-0.3,1.2-0.7C61.9,14.4,62,13.9,62,13.4L62,13.4z"/>
		<path d="M73.1,10.6l-1.8,5.8h-1.2l-0.8-2.5c-0.2-0.6-0.3-1.2-0.4-1.9l0,0c-0.1,0.6-0.3,1.3-0.5,1.9l-0.8,2.5h-1.3l-1.7-5.8H66
			l0.7,2.8c0.2,0.6,0.3,1.3,0.4,1.9l0,0c0.1-0.6,0.3-1.2,0.5-1.9l0.8-2.8h1.1l0.8,2.7c0.2,0.7,0.3,1.3,0.5,1.9l0,0
			c0.1-0.6,0.2-1.3,0.4-1.9l0.7-2.7L73.1,10.6z"/>
		<path d="M79.7,16.4h-1.3V13c0-1-0.4-1.5-1.2-1.5c-0.4,0-0.7,0.1-0.9,0.4c-0.2,0.3-0.4,0.6-0.4,1v3.4h-1.3v-4.1c0-0.5,0-1.1,0-1.7
			h1.1l0.1,0.9l0,0c0.2-0.3,0.4-0.5,0.7-0.7c0.4-0.2,0.8-0.3,1.2-0.3c0.5,0,1,0.2,1.3,0.5c0.5,0.5,0.7,1.2,0.7,1.9L79.7,16.4z"/>
		<path d="M83.3,16.4H82V7.9h1.3V16.4z"/>
		<path d="M90.9,13.4c0,0.8-0.2,1.6-0.8,2.2c-0.5,0.6-1.3,0.9-2.1,0.9c-0.8,0-1.5-0.3-2-0.9c-0.5-0.6-0.8-1.3-0.8-2.1
			c0-0.8,0.2-1.6,0.8-2.2c0.5-0.6,1.3-0.9,2.1-0.9c0.8,0,1.5,0.3,2.1,0.8C90.7,11.9,90.9,12.6,90.9,13.4z M89.5,13.4
			c0-0.5-0.1-1-0.3-1.4c-0.2-0.4-0.7-0.7-1.2-0.7c-0.5,0-1,0.3-1.2,0.7c-0.2,0.4-0.4,0.9-0.3,1.4c0,0.5,0.1,1,0.4,1.4
			c0.3,0.6,1.1,0.9,1.8,0.5c0.2-0.1,0.4-0.3,0.5-0.5C89.5,14.4,89.6,13.9,89.5,13.4L89.5,13.4z"/>
		<path d="M97.2,16.4H96l-0.1-0.7l0,0c-0.4,0.5-1,0.8-1.7,0.8c-0.5,0-1-0.2-1.3-0.5c-0.3-0.3-0.5-0.7-0.4-1.2c0-0.7,0.3-1.3,0.8-1.6
			c0.8-0.4,1.6-0.6,2.5-0.6v-0.1c0-0.8-0.4-1.1-1.2-1.1c-0.5,0-1.1,0.1-1.5,0.4l-0.3-0.9c0.6-0.4,1.3-0.5,2-0.5
			c1.5,0,2.3,0.8,2.3,2.4V15C97.1,15.4,97.1,15.9,97.2,16.4z M95.8,14.4v-0.9c-1.4,0-2.1,0.4-2.1,1.2c0,0.3,0.1,0.5,0.2,0.7
			c0.2,0.2,0.4,0.2,0.6,0.2c0.3,0,0.6-0.1,0.8-0.3c0.2-0.2,0.4-0.4,0.4-0.7C95.8,14.5,95.8,14.4,95.8,14.4L95.8,14.4z"/>
		<path d="M104.5,16.4h-1.1l-0.1-0.9l0,0c-0.3,0.7-1.1,1.1-1.9,1.1c-0.7,0-1.3-0.3-1.8-0.8c-0.5-0.6-0.7-1.4-0.7-2.1
			c0-0.8,0.2-1.6,0.8-2.3c0.4-0.5,1.1-0.8,1.8-0.8c0.6-0.1,1.3,0.2,1.6,0.8l0,0V7.9h1.3v6.9C104.4,15.4,104.5,15.9,104.5,16.4z
			 M103.1,13.9v-1c0-0.1,0-0.3,0-0.4c-0.1-0.3-0.2-0.6-0.5-0.8c-0.2-0.2-0.5-0.3-0.9-0.3c-0.5,0-0.9,0.2-1.1,0.6
			c-0.3,0.4-0.4,0.9-0.4,1.5c0,0.5,0.1,1,0.4,1.4c0.3,0.4,0.7,0.6,1.1,0.6c0.4,0,0.8-0.2,1-0.5C103,14.7,103.1,14.3,103.1,13.9z"/>
		<path d="M115.5,13.4c0,0.8-0.2,1.6-0.8,2.2c-0.5,0.6-1.3,0.9-2.1,0.9c-0.8,0-1.5-0.3-2-0.9c-0.5-0.6-0.8-1.3-0.8-2.1
			c0-0.8,0.2-1.6,0.8-2.2c0.5-0.6,1.3-0.9,2.1-0.9c0.8,0,1.5,0.3,2.1,0.8C115.3,11.9,115.6,12.6,115.5,13.4z M114.2,13.4
			c0-0.5-0.1-1-0.3-1.4c-0.4-0.6-1.2-0.9-1.8-0.5c-0.2,0.1-0.4,0.3-0.5,0.5c-0.2,0.4-0.4,0.9-0.3,1.4c0,0.5,0.1,1,0.3,1.4
			c0.3,0.6,1.1,0.9,1.8,0.5c0.2-0.1,0.4-0.3,0.5-0.5C114.1,14.4,114.2,13.9,114.2,13.4L114.2,13.4z"/>
		<path d="M122.5,16.4h-1.3V13c0-1-0.4-1.5-1.2-1.5c-0.4,0-0.7,0.1-0.9,0.4c-0.2,0.3-0.4,0.6-0.4,1v3.4h-1.3v-4.1
			c0-0.5,0-1.1-0.1-1.7h1.1l0.1,0.9l0,0c0.2-0.3,0.4-0.5,0.7-0.7c0.4-0.2,0.8-0.3,1.2-0.3c0.5,0,1,0.2,1.3,0.5
			c0.5,0.5,0.7,1.2,0.7,1.9L122.5,16.4z"/>
		<path d="M131.2,11.5h-1.4v2.8c0,0.7,0.2,1.1,0.8,1.1c0.2,0,0.4,0,0.6-0.1v1c-0.3,0.1-0.7,0.1-1,0.1c-0.4,0-0.9-0.1-1.2-0.5
			c-0.3-0.5-0.5-1-0.4-1.6v-3h-0.8v-1h0.8v-1l1.3-0.4v1.5h1.4L131.2,11.5z"/>
		<path d="M138,16.4h-1.3v-3.3c0-1-0.4-1.6-1.2-1.6c-0.6,0-1.1,0.4-1.2,0.9c0,0.1-0.1,0.3-0.1,0.5v3.5h-1.3V7.9h1.3v3.5l0,0
			c0.4-0.6,1-1,1.8-1c0.5,0,1,0.2,1.3,0.5c0.5,0.5,0.7,1.2,0.7,1.9L138,16.4z"/>
		<path d="M145,13.1c0,0.2,0,0.4-0.1,0.6h-3.9c0,0.5,0.2,1,0.6,1.3c0.4,0.3,0.8,0.4,1.3,0.4c0.5,0,1.1-0.1,1.6-0.3l0.2,0.9
			c-0.6,0.3-1.3,0.4-2,0.4c-0.8,0-1.6-0.2-2.1-0.8c-0.5-0.6-0.8-1.3-0.7-2.1c0-0.8,0.2-1.6,0.7-2.2c0.5-0.6,1.2-1,2-0.9
			c0.8,0,1.5,0.3,1.9,0.9C144.9,11.9,145,12.5,145,13.1z M143.8,12.8c0-0.4-0.1-0.7-0.2-1c-0.2-0.3-0.6-0.6-1-0.5
			c-0.4,0-0.8,0.2-1,0.5c-0.2,0.3-0.4,0.6-0.4,1L143.8,12.8z"/>
	</g>
</g>
</svg>
