<?xml version="1.0" encoding="UTF-8"?>
<svg width="590px" height="517px" viewBox="0 0 590 517" version="1.1" xmlns="http://www.w3.org/2000/svg" xmlns:xlink="http://www.w3.org/1999/xlink">
    <title>img-01-5</title>
    <defs>
        <polygon id="path-1" points="0.830948535 0.511142162 77.5010243 0.511142162 77.5010243 113 0.830948535 113"></polygon>
        <polygon id="path-3" points="0 0.508856871 113.549032 0.508856871 113.549032 6.4554 0 6.4554"></polygon>
        <polygon id="path-5" points="0 316.349 370.187 316.349 370.187 0 0 0"></polygon>
    </defs>
    <g id="img-01-5" stroke="none" stroke-width="1" fill="none" fill-rule="evenodd">
        <rect id="Rectangle-Copy" fill="#FFFFFF" x="0" y="0" width="590" height="517"></rect>
        <g id="Group-175" transform="translate(105.000000, 124.000000)">
            <path d="M171.9458,90.4196 C171.9458,90.4196 172.5848,105.9736 172.8378,111.5496 C173.2678,121.0176 173.1378,129.2886 173.7908,138.7546 C174.1588,144.0896 175.1748,232.8536 175.1748,232.8536 C175.1748,232.8536 182.0758,232.3566 183.4708,232.5566 C187.0578,233.0686 199.9108,233.0366 204.0698,232.4216 C209.4988,231.6186 214.8728,228.1226 219.6908,225.6176 C221.9968,224.4186 229.8478,216.4656 229.8478,216.4656 C229.8478,216.4656 226.6088,213.6406 226.1098,212.4246 C225.3858,210.6616 224.6968,208.8766 224.1858,207.0386 C221.6868,198.0406 221.1888,188.5646 218.6088,179.5326 C216.3788,171.7286 220.4618,166.3096 219.8328,158.3086 C219.0688,148.5666 220.5138,122.9656 220.1758,114.6686 C219.8438,106.4896 213.4448,88.0056 213.4448,88.0056 L210.3888,86.8936 C210.3888,86.8936 209.0088,90.9546 208.0848,91.9326 C205.5678,94.5966 202.5688,98.6216 198.9888,99.5166 C192.2708,101.1956 186.3108,99.4906 179.9468,97.0156 C177.7258,96.1526 171.9458,90.4196 171.9458,90.4196" id="Fill-1" fill="#FFFFFF"></path>
            <path d="M212.8003,86.9303 C212.8003,86.9303 214.2003,92.6803 215.0823,96.5993 C216.2153,101.6243 216.8463,109.7593 217.1543,114.0613 C217.8623,123.9883 217.7893,133.6333 218.0413,143.5893 C218.3213,154.6653 217.9353,166.1983 217.7933,177.2783 C217.6923,185.1613 217.5153,191.6183 218.8003,199.3323 C219.5073,203.5763 220.7033,207.6203 223.2153,211.2733 C224.7353,213.4843 229.4013,217.3073 229.4013,217.3073 C229.4013,217.3073 241.7463,209.4623 246.6533,207.0083 C248.5823,206.0433 257.6813,205.2853 257.6813,205.2853 C257.6813,205.2853 259.5453,200.3713 259.4723,197.1173 C259.3453,191.3633 255.9883,185.9753 255.9883,180.2203 C255.9883,175.0423 257.1483,161.9143 257.4163,155.0663 C257.6513,149.0833 256.4403,142.1733 256.4403,142.1733 C256.4403,142.1733 255.6463,131.9313 254.6753,125.5313 C253.7003,119.0973 252.9263,112.9073 249.4103,107.2293 C247.6983,104.4633 240.6333,99.5883 240.6333,99.5883 C240.6333,99.5883 237.7893,96.6433 235.4633,95.4883 C230.5773,93.0623 226.0463,92.0653 221.2783,90.3823 C219.9713,89.9203 218.2103,88.2213 216.0113,87.3403 C214.1753,86.6053 212.8003,86.9303 212.8003,86.9303" id="Fill-3" fill="#FE7200"></path>
            <path d="M171.5317,83.5812 C171.5317,83.5812 169.6167,83.6062 167.8407,84.3732 C163.6317,86.1972 158.8607,87.4032 154.7887,88.6452 C145.7437,91.4052 133.7557,91.4842 126.4587,97.7172 C119.2547,103.8722 117.3497,113.3242 115.8707,121.2232 C114.3747,129.2142 113.4077,138.8662 113.1497,147.4622 C112.9167,155.2862 109.7367,168.8512 108.5777,174.6482 C107.5927,179.5822 107.8947,183.6242 107.9427,185.3192 C107.9897,187.0142 108.6817,190.3672 108.6817,190.3672 C108.6817,190.3672 114.8557,193.0042 117.4037,194.2232 C119.8987,195.4162 124.5587,198.2452 126.5017,199.7382 C138.8577,209.2372 140.5217,222.1952 142.6437,235.3372 C143.4857,240.5482 146.5197,248.3152 146.5197,248.3152 C146.5197,248.3152 152.3147,245.8952 153.1547,245.6692 C155.4917,245.0392 165.0927,241.7582 167.2847,240.8222 C172.0147,238.8012 174.3207,236.0782 175.5737,231.9982 C176.8277,227.9172 177.5907,216.3872 175.5867,202.6432 C174.0247,191.9202 174.4867,181.1302 174.6347,170.8982 C174.6897,167.1022 175.2497,162.7372 175.2497,162.7372 C175.2497,162.7372 174.6447,150.0292 174.9277,144.8352 C175.2767,138.4142 173.1467,128.8062 173.1467,128.8062 C173.1467,128.8062 171.8857,116.5332 172.1177,107.4772 C172.2197,103.4492 172.0707,98.4982 171.7807,95.7562 C171.3997,92.1852 171.5317,83.5812 171.5317,83.5812" id="Fill-5" fill="#FE7200"></path>
            <path d="M160.7202,159.1037 C160.7202,159.1037 162.7512,158.2297 164.8572,155.2817 C166.3852,153.1407 168.0972,149.0857 168.3982,147.4557 C169.1472,143.3847 168.9292,137.8307 170.1672,133.8077 C171.2012,130.4427 172.6092,130.1827 174.6862,127.7667 C176.4672,125.6947 177.9812,122.8587 180.3772,121.1447 C182.5912,119.5647 187.9912,118.1377 190.4192,116.9237 C191.1762,116.5457 193.6142,115.9667 194.5372,116.2437 C195.4872,116.5287 193.5022,119.2517 192.8022,119.9547 C190.4192,122.3367 187.0682,121.9497 184.9732,124.3787 C184.7072,124.6867 181.4742,127.9457 181.6032,128.4627 C181.7182,128.9187 185.7562,127.5847 186.8122,127.6797 C188.2782,127.8137 192.5482,128.1787 193.1982,128.3057 C194.2032,128.5007 193.9742,130.0827 195.8052,130.4907 C198.3102,131.0507 201.7502,131.6737 203.4882,132.9637 C204.1762,133.4777 204.1172,134.0237 204.0002,134.9647 C203.9162,135.6337 202.1492,135.9657 201.8562,135.9857 C198.6472,136.1917 193.4832,134.7937 190.6922,134.3177 C187.9012,133.8407 185.6462,133.9007 185.6462,134.5047 C185.6462,135.4737 195.8332,138.1207 198.3192,139.8147 C198.7202,140.0887 201.6252,141.6787 200.8342,142.6107 C200.0412,143.5417 197.3392,143.8687 197.3392,143.8687 C197.3392,143.8687 196.5112,145.8077 196.0342,145.9657 C193.9382,146.6637 186.2512,145.8717 186.2512,145.8717 C186.2512,145.8717 184.6702,146.3027 183.3632,147.2227 C180.7152,149.0857 182.0322,153.0747 181.1532,155.8867 C179.2572,161.9547 173.3452,166.3717 170.9232,168.9337 C168.5002,171.4957 168.1182,174.1957 166.2642,172.9867 C163.2722,171.0357 160.8792,165.3067 160.4882,162.0387 C160.3452,160.8547 160.7202,159.1037 160.7202,159.1037" id="Fill-7" fill="#FFE5CE"></path>
            <path d="M171.3188,85.4592 C171.3188,85.4592 173.3898,84.2252 174.5318,80.1842 C175.7438,75.8912 176.0218,68.6782 175.7328,65.0722 C175.6118,63.5532 172.1478,61.6802 171.2068,60.7392 C169.4578,58.9902 160.8068,47.7132 161.9468,45.1282 C163.5528,41.4882 167.1188,35.6622 171.1248,34.2622 C177.5858,26.9792 190.8848,29.5632 200.6648,27.0112 C204.3038,26.0622 208.8068,19.3802 211.8758,22.2222 C214.0868,24.2702 217.3668,27.7932 218.2898,30.5642 C219.6148,34.5402 218.1168,45.2802 218.2508,49.4142 C218.4448,55.4362 216.6528,65.4322 213.7218,70.8762 C211.6038,74.8082 211.6728,74.8032 208.7658,78.1962 C208.4848,78.5232 204.2048,81.6302 204.2048,81.6302 C204.2048,81.6302 205.2318,83.6602 206.9038,84.8172 C209.5868,86.6762 211.5248,87.3172 211.5248,87.3172 C211.5248,87.3172 210.4558,92.0472 207.1328,95.9332 C202.7958,101.0072 195.8468,101.7422 189.5078,100.8892 C185.6458,100.3692 182.0548,99.2922 178.6388,97.3412 C174.9518,95.2332 172.3888,91.7102 172.3888,91.7102 L171.3188,85.4592 Z" id="Fill-9" fill="#FFE5CE"></path>
            <path d="M245.9184,136.3244 C243.3064,137.2184 240.0214,135.7474 237.3434,135.2744 C234.6524,134.8004 230.8914,134.7254 230.8914,134.7254 C230.8914,134.7254 227.2064,134.0724 227.3854,132.9954 C227.6974,131.1324 229.7364,126.3414 229.7364,126.3414 L243.1814,90.0484 C243.1814,90.0484 243.9354,88.2074 245.0444,87.4754 C246.1524,86.7434 247.6164,87.1204 247.6164,87.1204 L264.4324,89.0734 C264.4324,89.0734 267.0934,89.4834 267.5824,90.0934 C268.5584,91.3094 267.1834,93.1544 267.1834,93.1544 L260.1734,112.2764 L253.6064,130.2004 C253.6064,130.2004 249.7744,135.0054 245.9184,136.3244" id="Fill-11" fill="#666666"></path>
            <path d="M244.8237,162.1169 C247.9657,161.0689 250.5527,157.8739 250.5527,157.8739 C250.5527,157.8739 251.0187,149.0949 254.3867,144.6959 C254.9257,143.9949 258.7657,139.9459 259.2347,139.2969 C260.5397,137.4879 261.2287,133.4239 261.5037,133.2179 C262.4937,132.4689 264.3567,130.4149 264.4187,129.6149 C264.5317,128.1559 262.8797,127.0059 262.8797,127.0059 C262.8797,127.0059 262.9077,117.9079 262.5737,116.5009 C262.2787,115.2629 261.9027,113.7549 261.0197,113.1339 C259.1177,111.7929 255.9917,112.3069 254.2277,112.5869 C251.6447,112.9959 248.6947,112.6929 247.9717,114.1399 C247.5937,114.8979 248.3267,116.3129 250.1467,117.1119 C251.9657,117.9099 257.9107,118.3539 257.9107,118.3539 L256.5797,121.5939 C256.5797,121.5939 254.1857,120.1849 253.9177,120.0849 C250.3527,118.7489 245.4587,117.6829 241.7167,116.9349 C241.2247,116.8359 236.2607,115.8389 236.6147,117.7789 C236.8007,118.7999 239.4127,121.0299 240.1637,121.4159 C243.9167,123.3429 248.5837,124.6539 250.2787,125.5859 C251.9747,126.5189 254.2287,127.3769 254.7167,128.5589 C254.9457,129.1169 255.1637,130.1229 254.5827,130.2889 C253.5237,130.5919 248.7527,129.3079 247.7507,129.1349 C243.6697,128.4319 240.9917,128.3759 237.1017,126.9169 C235.8147,126.4349 233.1517,124.7449 231.7787,126.1179 C229.8577,128.0389 233.6947,130.6579 235.1947,131.2649 C236.3857,131.7479 240.8747,132.8629 242.3377,133.4839 C243.8017,134.1039 245.8207,135.1919 246.0637,135.9239 C246.2057,136.3449 241.4247,135.4409 240.6957,135.2579 C238.0227,134.5899 236.2617,134.0839 233.5537,133.8379 C232.9977,133.7869 231.7197,133.7209 231.4237,134.4599 C231.0077,135.4999 233.1547,137.0329 234.7077,137.8319 C236.2607,138.6299 239.7897,138.1049 241.0947,140.2279 C242.1947,142.0119 239.1347,147.0139 238.7767,148.8039 C237.8417,153.4809 238.0347,162.4349 238.0347,162.4349 C238.0347,162.4349 241.6807,163.1639 244.8237,162.1169" id="Fill-13" fill="#FFE5CE"></path>
            <path d="M175.8149,232.5358 C175.8149,232.5358 174.2279,237.1908 171.0019,239.4128 C169.0629,240.7468 164.2859,243.0178 160.1549,244.2758 C157.4109,245.1118 151.2209,248.2968 151.2209,248.2968 L153.9709,276.5398 C153.9709,276.5398 157.9729,278.2338 161.3139,279.1288 C165.4519,280.2368 169.3849,280.6578 173.0179,281.4958 C178.8649,282.8448 188.7109,282.1428 194.6159,282.1428 C204.2799,282.1428 212.8899,282.7918 222.5479,282.7918 C228.8229,282.7918 244.5859,284.6328 244.5859,284.6328 C244.5859,284.6328 248.5369,293.1258 251.7109,300.6498 C254.0509,306.2018 254.9599,307.0588 257.2779,311.8408 C258.5619,314.4888 272.0829,315.8658 282.4139,315.838219 C291.0159,315.8118 300.8189,314.3628 300.8189,312.9978 C300.8189,311.7348 300.7239,309.4798 300.2289,301.2848 C299.8279,294.6268 298.5039,285.5008 297.8439,276.5748 C297.2309,268.2818 294.5889,257.9908 291.7929,250.7188 C289.2399,244.0808 277.2279,243.1318 277.2279,243.1318 C277.2279,243.1318 275.4979,232.3958 274.8359,229.4958 C274.1759,226.5958 273.3749,224.2078 272.1919,219.5238 C271.0209,214.8928 267.4699,211.0068 265.5779,209.5008 C263.0839,207.5158 260.3319,205.8498 257.7399,205.0868 C249.8889,202.7778 241.2909,207.3838 234.8489,212.5298 C229.2509,217.0028 225.6689,221.6968 220.7849,224.9528 C216.3919,227.8808 210.7929,230.4638 205.6449,231.6898 C198.2279,233.4558 197.0569,232.8538 189.4599,232.8538 C188.9469,232.8538 181.7939,232.4088 180.1519,232.3248 C178.0509,232.2168 175.8149,232.5358 175.8149,232.5358" id="Fill-15" fill="#FFFFFF"></path>
            <path d="M199.0844,82.798 C192.0114,82.798 185.2404,78.258 180.3994,70.225 C180.2244,69.932 180.3174,69.553 180.6094,69.377 C180.9034,69.198 181.2814,69.294 181.4584,69.587 C186.2404,77.523 192.9124,81.898 199.8364,81.543 C205.7504,81.253 211.1354,76.123 214.2404,67.82 C215.3104,64.964 216.0714,62.018 216.5054,59.064 C216.5564,58.726 216.8744,58.488 217.2064,58.542 C217.5454,58.592 217.7784,58.906 217.7304,59.244 C217.2824,62.284 216.4994,65.316 215.3994,68.254 C212.1134,77.032 206.3184,82.463 199.8964,82.778 C199.6264,82.792 199.3554,82.798 199.0844,82.798" id="Fill-17" fill="#000000"></path>
            <path d="M213.2749,88.4992 C213.2039,88.4992 213.1299,88.4872 213.0589,88.4602 C208.7209,86.8552 205.2559,85.3592 203.4209,81.9822 C203.2569,81.6822 203.3689,81.3082 203.6679,81.1442 C203.9679,80.9832 204.3429,81.0912 204.5059,81.3922 C206.0029,84.1442 208.5959,85.4902 213.4899,87.3012 C213.8089,87.4192 213.9719,87.7752 213.8539,88.0952 C213.7619,88.3452 213.5259,88.4992 213.2749,88.4992" id="Fill-19" fill="#000000"></path>
            <path d="M170.9907,86.2223 C170.8057,86.2223 170.6247,86.1393 170.5027,85.9823 C170.2927,85.7123 170.3427,85.3243 170.6117,85.1153 C176.0877,80.8693 175.1317,70.7053 174.6177,65.2443 L174.5767,64.8103 C174.5457,64.4703 174.7957,64.1693 175.1357,64.1373 C175.4707,64.1033 175.7767,64.3553 175.8077,64.6953 L175.8487,65.1293 C176.3857,70.8263 177.3827,81.4303 171.3687,86.0923 C171.2567,86.1803 171.1237,86.2223 170.9907,86.2223" id="Fill-21" fill="#000000"></path>
            <path d="M150.7192,156.2511 C150.3972,156.2511 150.1252,156.0021 150.1032,155.6761 C149.8922,152.6541 149.8712,148.8981 149.8512,144.9221 C149.7892,133.3621 149.7122,118.9751 145.1312,109.3701 C144.9842,109.0621 145.1152,108.6931 145.4232,108.5461 C145.7322,108.3981 146.1002,108.5301 146.2462,108.8371 C150.9482,118.6921 151.0252,133.2331 151.0872,144.9151 C151.1082,148.8721 151.1282,152.6071 151.3362,155.5891 C151.3602,155.9301 151.1032,156.2261 150.7622,156.2501 C150.7472,156.2511 150.7342,156.2511 150.7192,156.2511" id="Fill-23" fill="#000000"></path>
            <path d="M240.3022,163.5016 C238.6002,163.5016 237.0032,163.1316 235.9402,162.2516 C235.1972,161.6356 234.3812,160.4856 234.7222,158.4986 C234.7802,158.1596 235.1062,157.9346 235.4352,157.9926 C235.7722,158.0496 235.9982,158.3706 235.9412,158.7056 C235.7442,159.8506 236.0032,160.6986 236.7292,161.2986 C238.3592,162.6466 242.0242,162.4486 244.6272,161.4746 C245.7742,161.0456 251.4372,158.7266 250.2472,155.2156 C250.1372,154.8916 250.3112,154.5416 250.6352,154.4316 C250.9592,154.3256 251.3102,154.4956 251.4182,154.8196 C252.6222,158.3766 248.9232,161.1866 245.0592,162.6336 C243.6182,163.1706 241.9122,163.5016 240.3022,163.5016" id="Fill-25" fill="#000000"></path>
            <path d="M168.7544,174.5197 C167.9044,174.5197 167.0464,174.2337 166.1924,173.6637 C162.8424,171.4287 160.2754,165.2197 159.7114,161.5967 C159.7074,161.5697 159.3244,158.9967 160.5294,157.4257 C161.0354,156.7657 161.7314,156.3837 162.5974,156.2897 C162.9264,156.2487 163.2414,156.4977 163.2784,156.8377 C163.3154,157.1777 163.0694,157.4827 162.7304,157.5187 C162.2064,157.5757 161.8074,157.7917 161.5104,158.1777 C160.6514,159.2977 160.9304,161.3847 160.9334,161.4057 C161.4494,164.7187 163.8634,170.6247 166.8784,172.6347 C167.7394,173.2097 168.5784,173.4007 169.3704,173.2087 C169.6964,173.1257 170.0354,173.3297 170.1174,173.6617 C170.1984,173.9937 169.9954,174.3277 169.6634,174.4087 C169.3624,174.4817 169.0594,174.5197 168.7544,174.5197" id="Fill-27" fill="#000000"></path>
            <path d="M242.7602,174.9977 C242.6002,174.9977 242.4472,174.9897 242.3032,174.9717 C241.9652,174.9287 241.7252,174.6197 241.7672,174.2807 C241.8102,173.9397 242.1192,173.6977 242.4572,173.7447 C243.8382,173.9277 246.8072,172.8667 248.1752,172.0977 C250.2072,170.9567 253.5532,168.1017 253.2092,164.6287 C253.1562,164.0967 252.9702,163.5667 252.7742,163.0047 C252.4712,162.1387 252.1582,161.2417 252.2812,160.2087 C252.3672,159.4597 252.5212,158.7687 252.6692,158.0997 C253.1672,155.8447 253.4972,154.3527 251.0892,152.7847 C250.8022,152.5987 250.7222,152.2167 250.9072,151.9297 C251.0952,151.6437 251.4792,151.5637 251.7622,151.7487 C254.8902,153.7847 254.3742,156.1137 253.8752,158.3667 C253.7342,159.0047 253.5882,159.6667 253.5082,160.3537 C253.4192,161.1017 253.6722,161.8297 253.9422,162.5987 C254.1532,163.2037 254.3702,163.8277 254.4382,164.5057 C254.7952,168.1017 251.8542,171.4507 248.7812,173.1747 C247.5302,173.8797 244.6122,174.9977 242.7602,174.9977" id="Fill-29" fill="#000000"></path>
            <path d="M257.5913,205.6213 C257.5093,205.6213 257.4253,205.6043 257.3453,205.5703 C257.0323,205.4343 256.8893,205.0693 257.0243,204.7563 C259.7443,198.4943 258.9733,195.7643 257.5733,190.8093 C256.9623,188.6473 256.2033,185.9553 255.5933,182.4073 C255.1073,179.5693 255.2103,177.0543 255.3013,174.8363 C255.4433,171.3853 255.5453,168.8913 253.4463,167.0823 C253.1893,166.8593 253.1593,166.4693 253.3813,166.2103 C253.6053,165.9513 253.9983,165.9243 254.2533,166.1453 C256.8063,168.3453 256.6813,171.3773 256.5363,174.8873 C256.4483,177.0443 256.3483,179.4893 256.8133,182.1973 C257.4103,185.6833 258.1293,188.2283 258.7633,190.4743 C260.1913,195.5303 261.0533,198.5823 258.1583,205.2493 C258.0583,205.4823 257.8293,205.6213 257.5913,205.6213" id="Fill-31" fill="#000000"></path>
            <path d="M233.6235,213.6838 C233.4915,213.6838 233.3585,213.6428 233.2475,213.5558 C224.2735,206.6788 225.9105,199.1948 227.6425,191.2718 C227.9435,189.8938 228.2555,188.4698 228.5065,187.0508 C229.1755,183.2718 228.6545,180.8288 228.1945,178.6718 C227.5505,175.6468 227.0405,173.2578 230.7145,169.4378 C230.9515,169.1928 231.3455,169.1838 231.5895,169.4208 C231.8355,169.6578 231.8425,170.0488 231.6055,170.2948 C228.3875,173.6418 228.7695,175.4388 229.4045,178.4148 C229.8635,180.5688 230.4355,183.2498 229.7235,187.2658 C229.4675,188.7088 229.1535,190.1448 228.8515,191.5348 C227.1325,199.3918 225.6495,206.1758 233.9985,212.5758 C234.2695,212.7838 234.3205,213.1708 234.1135,213.4408 C233.9925,213.6008 233.8085,213.6838 233.6235,213.6838" id="Fill-33" fill="#000000"></path>
            <path d="M237.1665,175.0197 C237.0975,175.0197 237.0255,175.0077 236.9565,174.9817 C234.5995,174.1297 233.1575,173.2627 231.9825,171.9907 C229.2365,169.0197 230.2375,165.1297 231.5805,161.7177 C231.8465,161.0417 231.9715,160.3007 232.0935,159.5837 C232.4745,157.3377 232.9055,154.7937 237.7935,154.0827 C238.1205,154.0417 238.4455,154.2667 238.4945,154.6057 C238.5435,154.9437 238.3105,155.2577 237.9725,155.3067 C233.9755,155.8877 233.6825,157.6097 233.3125,159.7897 C233.1805,160.5697 233.0425,161.3747 232.7295,162.1697 C231.4685,165.3787 230.6145,168.6877 232.8905,171.1527 C233.9355,172.2827 235.1915,173.0297 237.3775,173.8207 C237.6975,173.9367 237.8645,174.2907 237.7475,174.6117 C237.6565,174.8637 237.4195,175.0197 237.1665,175.0197" id="Fill-35" fill="#000000"></path>
            <path d="M151.2173,172.9841 C151.0093,172.9841 150.8063,172.8791 150.6893,172.6901 C148.7063,169.4571 148.1103,166.0331 149.0083,163.0471 C149.6253,160.9991 151.7133,160.1441 153.5553,159.3901 C154.4233,159.0341 155.2433,158.6981 155.8353,158.2771 C156.2243,158.0011 156.7803,157.3501 157.3693,156.6621 C158.4933,155.3471 159.7683,153.8581 161.0183,153.5791 C161.3523,153.5091 161.6823,153.7141 161.7563,154.0491 C161.8303,154.3821 161.6203,154.7121 161.2873,154.7871 C160.4393,154.9751 159.2583,156.3561 158.3093,157.4661 C157.6413,158.2461 157.0653,158.9201 156.5523,159.2841 C155.8443,159.7891 154.9593,160.1511 154.0243,160.5341 C152.3603,161.2161 150.6393,161.9201 150.1923,163.4051 C149.3973,166.0471 149.9473,169.1151 151.7433,172.0421 C151.9223,172.3331 151.8303,172.7141 151.5393,172.8921 C151.4393,172.9551 151.3273,172.9841 151.2173,172.9841" id="Fill-37" fill="#000000"></path>
            <path d="M122.0298,177.2966 C121.9208,177.2966 121.8098,177.2676 121.7098,177.2076 C121.4178,177.0296 121.3248,176.6496 121.5028,176.3576 C124.6068,171.2446 129.2738,170.4776 133.3918,169.7996 C135.2668,169.4926 137.0368,169.2016 138.4908,168.5266 C140.3148,167.6776 141.6068,166.5136 142.7458,165.4876 C144.5248,163.8826 146.2028,162.3616 149.2138,162.7776 C149.5508,162.8236 149.7888,163.1356 149.7428,163.4736 C149.6948,163.8116 149.3808,164.0436 149.0458,164.0026 C146.6128,163.6766 145.3368,164.8176 143.5738,166.4046 C142.3698,167.4906 141.0058,168.7206 139.0098,169.6466 C137.4038,170.3926 135.5528,170.6976 133.5928,171.0196 C129.5498,171.6846 125.3678,172.3716 122.5588,176.9996 C122.4428,177.1906 122.2388,177.2966 122.0298,177.2966" id="Fill-39" fill="#000000"></path>
            <path d="M107.8364,191.1017 C107.4954,191.1017 107.1894,190.9037 107.1144,190.6137 C106.9974,190.1577 106.8864,189.6947 106.7834,189.2227 C105.3384,182.5487 106.8644,175.5637 108.4804,168.1697 C109.2074,164.8377 109.9604,161.3927 110.5114,157.7407 C111.4454,151.5557 111.8074,146.4027 112.1554,141.4177 C112.6014,135.0637 113.0224,129.0617 114.5464,121.3727 C117.1474,108.2517 119.4784,99.9027 129.8974,94.5957 C135.5124,91.7357 144.1254,90.0957 151.0454,88.7767 C154.0874,88.1977 156.7134,87.6977 158.6684,87.1807 C161.5644,86.4147 163.9344,85.4817 165.8384,84.7317 C168.7394,83.5917 170.8354,82.7647 172.7104,83.3207 C173.0954,83.4347 173.2964,83.7877 173.1594,84.1097 C173.0234,84.4307 172.5974,84.5977 172.2164,84.4857 C170.9154,84.1007 169.0514,84.8337 166.4684,85.8507 C164.5244,86.6167 162.1054,87.5687 159.1144,88.3587 C157.1014,88.8917 154.4474,89.3967 151.3744,89.9827 C144.5584,91.2807 136.0754,92.8967 130.6664,95.6517 C120.7864,100.6837 118.5364,108.8017 116.0044,121.5747 C114.4924,129.1997 114.0744,135.1697 113.6314,141.4907 C113.2814,146.4947 112.9184,151.6687 111.9784,157.8957 C111.4214,161.5807 110.6654,165.0427 109.9344,168.3927 C108.2744,175.9887 106.8424,182.5487 108.2394,189.0027 C108.3384,189.4607 108.4454,189.9117 108.5604,190.3527 C108.6464,190.6867 108.3924,191.0157 107.9924,191.0877 C107.9404,191.0967 107.8884,191.1017 107.8364,191.1017" id="Fill-41" fill="#000000"></path>
            <path d="M146.3286,201.4416 C146.1496,201.4416 145.9736,201.3636 145.8506,201.2166 C145.6336,200.9526 145.6716,200.5636 145.9346,200.3466 C147.0536,199.4246 148.1986,198.3236 149.3396,197.0716 C151.8246,194.3466 154.4266,193.3146 156.7226,192.4026 C160.3756,190.9516 162.7886,189.9936 162.6546,183.0336 C162.6476,182.6926 162.9196,182.4106 163.2616,182.4036 C163.6466,182.3796 163.8846,182.6696 163.8906,183.0096 C164.0416,190.8266 160.8616,192.0886 157.1796,193.5516 C155.0076,194.4146 152.5456,195.3916 150.2536,197.9046 C149.0726,199.1996 147.8846,200.3426 146.7216,201.2996 C146.6056,201.3956 146.4666,201.4416 146.3286,201.4416" id="Fill-43" fill="#000000"></path>
            <path d="M173.4995,129.568 C173.1695,129.568 172.8955,129.308 172.8825,128.976 C172.7885,126.731 172.6945,124.689 172.6045,122.714 C172.3355,116.825 172.1025,111.739 171.9665,103.733 C171.7835,93.036 171.3195,88.707 169.8965,84.435 C169.7895,84.11 169.9645,83.76 170.2875,83.652 C170.6145,83.546 170.9625,83.72 171.0695,84.044 C172.5395,88.456 173.0185,92.867 173.2025,103.712 C173.3385,111.7 173.5705,116.778 173.8395,122.657 C173.9305,124.633 174.0235,126.677 174.1175,128.924 C174.1325,129.265 173.8665,129.553 173.5255,129.568 C173.5175,129.568 173.5085,129.568 173.4995,129.568" id="Fill-45" fill="#000000"></path>
            <path d="M151.1587,248.6579 C150.9377,248.6579 150.7227,248.5379 150.6117,248.3289 C150.4527,248.0269 150.5677,247.6529 150.8697,247.4939 C154.5287,245.5549 158.1567,244.2389 161.3577,243.0769 C166.7017,241.1379 170.9237,239.6069 173.2117,236.2139 C177.3407,230.0899 176.4847,218.9409 175.4017,204.8269 C174.4827,192.8509 173.4417,179.2779 174.8847,164.2679 C174.9167,163.9279 175.2177,163.6869 175.5577,163.7119 C175.8977,163.7439 176.1467,164.0459 176.1147,164.3869 C174.6827,179.2899 175.7197,192.8059 176.6357,204.7319 C177.7357,219.0869 178.6057,230.4239 174.2367,236.9039 C171.7237,240.6309 167.1157,242.3039 161.7787,244.2399 C158.6167,245.3879 155.0317,246.6879 151.4477,248.5849 C151.3547,248.6349 151.2567,248.6579 151.1587,248.6579" id="Fill-47" fill="#000000"></path>
            <path d="M163.354,183.0426 C160.628,183.0436 157.531,181.5216 155.333,178.9036 C155.113,178.6426 155.146,178.2526 155.408,178.0326 C155.671,177.8126 156.06,177.8486 156.279,178.1086 C158.883,181.2086 162.829,182.6086 165.453,181.3676 C167.095,180.5916 169.144,176.9186 170.129,175.1536 C170.376,174.7116 170.571,174.3636 170.697,174.1676 C171.916,172.2536 171.728,171.5926 170.395,169.5936 C170.206,169.3096 170.282,168.9256 170.566,168.7366 C170.848,168.5456 171.232,168.6246 171.423,168.9076 C172.994,171.2606 173.259,172.4466 171.74,174.8316 C171.622,175.0176 171.44,175.3416 171.209,175.7556 C170.082,177.7766 167.981,181.5396 165.982,182.4856 C165.184,182.8626 164.291,183.0426 163.354,183.0426" id="Fill-49" fill="#000000"></path>
            <path d="M167.2329,173.8171 C167.0959,173.8171 166.9579,173.7721 166.8439,173.6781 C166.5789,173.4631 166.5389,173.0741 166.7539,172.8091 C169.8889,168.9481 172.7319,166.0601 175.0169,163.7401 C177.1989,161.5251 178.7759,159.9241 179.2799,158.7871 C180.6899,155.6151 180.9609,152.6051 181.1389,150.6141 C181.2429,149.4661 181.3169,148.6371 181.5649,148.1131 C182.2959,146.5621 185.1439,145.3411 186.1999,145.2181 C187.1599,145.1091 188.6989,145.2231 190.3299,145.3431 C191.4559,145.4251 192.6289,145.4991 193.4649,145.5051 C195.9999,145.4841 196.3759,144.9911 196.4099,144.5121 C196.4509,143.9471 193.5329,143.1041 191.7909,142.6001 C191.2669,142.4481 190.7249,142.2911 190.1759,142.1261 C186.6949,141.0771 186.2739,141.0371 183.7389,141.5071 C183.4269,141.5651 183.0469,141.6451 182.6289,141.7341 C180.8539,142.1121 178.4229,142.6291 177.0159,142.3181 C176.6829,142.2451 176.4719,141.9141 176.5459,141.5811 C176.6199,141.2471 176.9459,141.0361 177.2839,141.1111 C178.4289,141.3621 180.8009,140.8591 182.3709,140.5251 C182.8019,140.4341 183.1919,140.3511 183.5119,140.2911 C186.3549,139.7651 186.9729,139.8701 190.5339,140.9421 C191.0779,141.1061 191.6149,141.2621 192.1329,141.4121 C195.3979,142.3561 197.7559,143.0381 197.6429,144.6001 C197.4939,146.7071 194.7789,146.7301 193.4739,146.7411 C192.5779,146.7441 191.3889,146.6591 190.2389,146.5751 C188.7359,146.4631 187.1829,146.3461 186.3419,146.4471 C185.4749,146.5471 183.1389,147.6741 182.6819,148.6411 C182.5289,148.9671 182.4559,149.7811 182.3709,150.7251 C182.1839,152.7971 181.9029,155.9291 180.4109,159.2891 C179.8139,160.6311 178.1709,162.2991 175.8979,164.6071 C173.6309,166.9081 170.8109,169.7721 167.7129,173.5891 C167.5909,173.7381 167.4129,173.8171 167.2329,173.8171" id="Fill-51" fill="#000000"></path>
            <path d="M197.5268,144.2223 C196.9858,144.2223 196.4978,144.1643 196.1448,144.0543 C195.8188,143.9513 195.6368,143.6053 195.7398,143.2793 C195.8408,142.9533 196.1838,142.7683 196.5138,142.8743 C197.6288,143.2223 200.0778,142.7733 200.4228,142.1533 C200.5078,141.9983 200.1478,141.6783 200.0758,141.6153 C198.8038,140.5213 196.9938,139.8183 195.2418,139.1393 C194.4198,138.8203 193.6418,138.5193 192.9108,138.1783 L192.6128,138.0383 C190.2768,136.9423 187.8598,135.8103 185.4058,135.3943 C183.7828,135.1193 181.8218,135.4563 179.9258,135.7833 C178.4318,136.0403 176.8848,136.3063 175.5088,136.2653 C175.1678,136.2553 174.8998,135.9703 174.9098,135.6293 C174.9208,135.2873 175.2478,135.0253 175.5458,135.0293 C176.7948,135.0763 178.2158,134.8223 179.7168,134.5643 C181.7138,134.2203 183.7788,133.8673 185.6118,134.1753 C188.2328,134.6183 190.7258,135.7883 193.1368,136.9183 L193.4348,137.0573 C194.1278,137.3813 194.8858,137.6763 195.6888,137.9873 C197.5378,138.7043 199.4488,139.4453 200.8818,140.6793 C201.9258,141.5763 201.7188,142.3643 201.5028,142.7533 C200.9368,143.7743 199.0278,144.2223 197.5268,144.2223" id="Fill-53" fill="#000000"></path>
            <path d="M200.9585,136.4167 C199.6275,136.4167 198.1255,136.1897 196.7655,135.9847 L196.0515,135.8777 C194.6275,135.6707 193.4605,135.4527 192.2945,135.2337 C191.0555,135.0007 189.7725,134.7607 188.1855,134.5407 C186.8485,134.3567 183.8665,134.9567 182.8305,135.2037 C182.5025,135.2847 182.1655,135.0787 182.0865,134.7457 C182.0075,134.4137 182.2115,134.0797 182.5435,134.0007 C182.7045,133.9617 186.5085,133.0607 188.3545,133.3157 C189.9725,133.5397 191.2695,133.7827 192.5225,134.0187 C193.6735,134.2347 194.8245,134.4507 196.2295,134.6547 L196.9495,134.7617 C199.3775,135.1267 203.0455,135.6827 203.4415,134.2327 C203.4565,134.1817 203.4665,134.1177 203.3995,134.0047 C202.7715,132.9447 198.9055,132.0247 196.8295,131.5297 C195.9715,131.3247 195.2925,131.1637 194.8705,131.0197 C193.8515,130.6717 193.0695,130.3697 192.3675,130.0967 C190.8645,129.5147 189.7795,129.0947 187.4645,128.6487 C185.8665,128.3347 183.7775,128.8887 181.7585,129.4187 C180.0565,129.8667 178.3015,130.3317 176.7825,130.2837 C176.4415,130.2737 176.1735,129.9887 176.183229,129.6477 C176.1935,129.3067 176.5125,129.0417 176.8185,129.0477 C178.1525,129.0877 179.7525,128.6667 181.4445,128.2227 C183.5985,127.6577 185.8225,127.0707 187.6985,127.4347 C190.1225,127.9007 191.3105,128.3607 192.8135,128.9437 C193.5035,129.2107 194.2705,129.5087 195.2695,129.8497 C195.6355,129.9747 196.3215,130.1377 197.1155,130.3267 C200.6465,131.1677 203.6355,131.9777 204.4635,133.3757 C204.6855,133.7497 204.7445,134.1587 204.6345,134.5597 C204.2395,136.0017 202.7565,136.4167 200.9585,136.4167" id="Fill-55" fill="#000000"></path>
            <path d="M160.5688,160.0602 C160.3808,160.0602 160.1948,159.9852 160.0808,159.8322 C159.8748,159.5592 159.8878,159.2032 160.1618,158.9982 C161.7648,157.7962 164.0608,156.0762 165.9898,152.0672 C168.1048,147.6732 168.4538,142.9652 168.7328,139.1832 C168.9108,136.7832 169.0638,134.7102 169.6368,133.2902 C170.5138,131.1212 172.0968,129.5892 173.6288,128.1072 C174.6288,127.1382 175.5748,126.2222 176.2058,125.2182 C178.0398,122.2952 179.6718,120.5412 181.1928,119.8552 C182.3018,119.3562 183.4698,118.9812 184.5998,118.6182 C186.0768,118.1442 187.4708,117.6972 188.7638,116.9922 C189.1388,116.7882 192.4758,115.0142 194.2498,115.6712 C194.7188,115.8452 195.0568,116.1762 195.2278,116.6292 C195.8118,118.1762 194.1798,119.4482 193.1008,120.2892 C192.8668,120.4722 192.6538,120.6362 192.4968,120.7812 C191.1828,121.9842 189.7358,122.6082 188.3358,123.2112 C186.6688,123.9302 185.0948,124.6082 183.9148,126.2252 C183.5858,126.6772 181.8708,128.9532 181.8708,128.9532 L180.8828,128.2092 C180.8828,128.2092 182.5878,125.9452 182.9168,125.4962 C184.2958,123.6062 186.0998,122.8292 187.8458,122.0762 C189.2128,121.4872 190.5028,120.9312 191.6608,119.8692 C191.8388,119.7062 192.0768,119.5192 192.3408,119.3142 C193.1338,118.6962 194.3338,117.7612 194.0718,117.0652 C194.0388,116.9802 193.9868,116.8922 193.8188,116.8302 C192.9388,116.5022 190.6338,117.3812 189.3558,118.0782 C187.9608,118.8382 186.4438,119.3252 184.9778,119.7952 C183.8808,120.1482 182.7468,120.5122 181.7008,120.9832 C180.4258,121.5572 178.9288,123.2032 177.2518,125.8762 C176.5418,127.0062 175.5448,127.9722 174.4878,128.9952 C173.0488,130.3882 171.5618,131.8282 170.7838,133.7542 C170.2828,134.9952 170.1348,136.9782 169.9648,139.2742 C169.6778,143.1602 169.3208,147.9972 167.1038,152.6032 C165.0448,156.8852 162.5048,158.7882 160.9878,159.9242 C160.8678,160.0142 160.7168,160.0602 160.5688,160.0602" id="Fill-57" fill="#000000"></path>
            <path d="M263.103,127.423 C262.776,127.423 262.502,127.167 262.487,126.836 C262.448,126.068 262.416,125.204 262.383,124.3 C262.274,121.256 262.136,117.468 261.622,115.707 L261.508,115.298 C261.342,114.666 261.182,114.069 260.722,113.777 C259.476,112.985 257.647,113.112 256.031,113.221 C255.616,113.249 255.21,113.277 254.831,113.289 L253.88,113.312 C252.476,113.342 251.024,113.374 249.688,113.68 C248.625,113.924 248.459,114.213 248.434,114.295 C248.076,115.461 249.43,116.217 250.03,116.488 C252.389,117.555 255.859,117.629 258.647,117.688 L259.154,117.699 C259.495,117.707 259.765,117.99 259.757,118.331 C259.75,118.673 259.458,118.963 259.125,118.935 L258.621,118.924 C255.72,118.862 252.11,118.786 249.521,117.614 C247.65,116.769 246.803,115.392 247.253,113.931 C247.54,113.004 248.623,112.656 249.412,112.475 C250.871,112.14 252.387,112.108 253.854,112.076 L254.791,112.053 C255.158,112.042 255.546,112.015 255.948,111.988 C257.753,111.864 259.797,111.724 261.384,112.733 C262.253,113.284 262.503,114.224 262.704,114.98 L262.807,115.359 C263.367,117.269 263.5,120.981 263.619,124.255 C263.652,125.153 263.683,126.01 263.72,126.774 C263.737,127.115 263.475,127.405 263.134,127.423 C263.124,127.423 263.113,127.423 263.103,127.423" id="Fill-59" fill="#000000"></path>
            <path d="M250.3608,158.5426 C250.3418,158.5426 250.3248,158.5416 250.3058,158.5406 C249.9658,158.5116 249.7138,158.2106 249.7438,157.8716 L249.7958,157.2186 C249.9708,154.9606 250.3338,150.2656 251.8388,147.2296 C253.2258,144.4346 254.5438,143.1726 255.9358,141.8366 C256.8628,140.9496 257.8188,140.0326 258.8878,138.5746 C259.2708,138.0556 259.5958,136.8366 259.8818,135.7616 C260.1378,134.8036 260.3798,133.8986 260.6848,133.3526 C260.9868,132.8146 261.4988,132.3246 262.0418,131.8066 C262.8458,131.0386 263.6758,130.2446 263.7048,129.3976 C263.7448,128.1966 262.0898,126.8606 260.8828,125.8846 C260.6748,125.7176 260.4778,125.5586 260.3018,125.4096 C259.9028,125.0726 259.4968,124.7146 259.0828,124.3486 C257.4068,122.8666 255.6738,121.3336 253.7418,120.7176 C251.1718,119.8966 248.7538,119.2846 245.9148,118.6196 C245.2248,118.4586 244.5338,118.2716 243.8428,118.0836 C242.7548,117.7876 241.6268,117.4806 240.5208,117.2936 L240.2708,117.2506 C239.5928,117.1296 238.1848,116.8776 237.6998,117.2516 C237.2538,117.5926 237.2278,117.8636 237.2488,118.0386 C237.3438,118.8576 238.8158,120.0586 240.8278,120.9576 C241.7778,121.3816 243.0078,121.8766 244.2988,122.3976 C246.7898,123.4006 249.3658,124.4386 250.8368,125.3066 C251.2198,125.5326 251.6368,125.7616 252.0568,125.9926 C253.8258,126.9646 255.4958,127.8816 255.7818,129.0516 C255.8828,129.4646 255.8058,129.8796 255.5578,130.2506 C254.6308,131.6456 251.4738,130.9056 248.0478,129.9546 C247.5718,129.8226 247.1868,129.7156 246.9478,129.6646 C245.7068,129.3996 244.5068,129.1926 243.3198,128.9876 C241.0968,128.6046 238.9978,128.2416 236.7368,127.5456 L236.0788,127.3346 C234.7088,126.8866 232.4128,126.1396 231.8568,126.9746 C231.8358,127.0076 231.7758,127.0956 231.8428,127.3246 C232.1738,128.4396 234.5948,130.2756 236.0008,130.8836 C236.8078,131.2316 237.8908,131.5406 238.9378,131.8396 C239.9168,132.1186 240.9278,132.4076 241.7358,132.7346 C244.4978,133.8546 246.7568,134.8856 249.4838,136.5646 C249.7748,136.7436 249.8658,137.1246 249.6868,137.4156 C249.5068,137.7066 249.1238,137.7956 248.8378,137.6176 C246.1818,135.9836 243.9738,134.9766 241.2718,133.8806 C240.5258,133.5786 239.5458,133.2986 238.5988,133.0286 C237.5128,132.7186 236.3918,132.3986 235.5098,132.0186 C234.0418,131.3836 231.1638,129.3896 230.6578,127.6746 C230.4658,127.0266 230.6448,126.5636 230.8288,126.2886 C231.9078,124.6696 234.5408,125.5316 236.4638,126.1596 L237.0998,126.3646 C239.2858,127.0366 241.3468,127.3926 243.5308,127.7696 C244.7318,127.9776 245.9478,128.1876 247.2048,128.4546 C247.4598,128.5096 247.8718,128.6226 248.3778,128.7626 C253.0468,130.0556 254.2988,129.9116 254.5298,129.5646 C254.6008,129.4586 254.5938,129.3986 254.5818,129.3456 C254.4238,128.7036 252.7118,127.7626 251.4628,127.0756 C251.0308,126.8396 250.6038,126.6046 250.2088,126.3716 C248.8178,125.5506 246.1718,124.4846 243.8368,123.5436 C242.5298,123.0176 241.2848,122.5156 240.3228,122.0856 C239.1018,121.5406 236.2408,120.0676 236.0208,118.1806 C235.9638,117.6766 236.0758,116.9356 236.9488,116.2696 C237.8668,115.5676 239.4448,115.8466 240.4868,116.0326 L240.7268,116.0756 C241.8918,116.2716 243.0488,116.5866 244.1688,116.8906 C244.8438,117.0746 245.5188,117.2576 246.1958,117.4166 C249.0638,118.0876 251.5088,118.7066 254.1178,119.5396 C256.2978,120.2346 258.2138,121.9286 259.9028,123.4226 C260.3078,123.7816 260.7068,124.1336 261.0978,124.4636 C261.2678,124.6066 261.4588,124.7606 261.6598,124.9226 C263.0698,126.0616 265.0018,127.6226 264.9408,129.4386 C264.8948,130.7906 263.8338,131.8056 262.8968,132.7006 C262.4228,133.1536 261.9738,133.5806 261.7638,133.9566 C261.5338,134.3676 261.3018,135.2386 261.0778,136.0806 C260.7468,137.3186 260.4048,138.5996 259.8838,139.3076 C258.7518,140.8506 257.7568,141.8056 256.7928,142.7296 C255.4218,144.0436 254.2378,145.1786 252.9468,147.7806 C251.5478,150.5996 251.1978,155.1346 251.0288,157.3136 L250.9748,157.9776 C250.9478,158.2996 250.6768,158.5426 250.3608,158.5426" id="Fill-61" fill="#000000"></path>
            <path d="M256.2036,182.6657 C255.8616,182.6657 255.5856,182.3897 255.5856,182.0477 C255.5856,176.7317 255.9136,171.7507 256.2316,166.9357 C256.7856,158.5587 257.3076,150.6457 255.9966,142.3147 C255.9436,141.9777 256.1746,141.6617 256.5116,141.6087 C256.8376,141.5597 257.1656,141.7857 257.2186,142.1237 C258.5506,150.5887 258.0226,158.5697 257.4656,167.0177 C257.1486,171.8127 256.8216,176.7707 256.8216,182.0477 C256.8216,182.3897 256.5446,182.6657 256.2036,182.6657" id="Fill-63" fill="#000000"></path>
            <path d="M237.8462,163.0739 C237.8272,163.0739 237.8082,163.0729 237.7882,163.0719 C237.4482,163.0399 237.1992,162.7399 237.2302,162.3989 C237.5192,159.2569 237.5052,157.0829 237.4922,155.3359 C237.4772,152.8839 237.4652,151.1129 238.3042,148.5599 C238.5902,147.6899 238.8822,146.8519 239.1582,146.0619 C240.0312,143.5639 240.9332,140.9829 240.4202,140.3749 C240.2362,140.1949 239.2272,139.9329 238.4152,139.7219 C236.7922,139.2999 234.7732,138.7759 233.1662,137.7209 C231.8832,136.8789 230.5352,135.8549 230.7902,134.3659 C230.8472,134.0359 231.0292,133.7619 231.3152,133.5699 C232.3372,132.8869 234.6912,133.3699 238.4482,134.2149 L239.0952,134.3599 C243.5972,135.3669 246.3442,135.7879 247.2482,135.6059 C247.5772,135.5359 247.9092,135.7549 247.9752,136.0919 C248.0412,136.4269 247.8242,136.7519 247.4902,136.8179 C246.3672,137.0429 243.6942,136.6569 238.8252,135.5659 L238.1772,135.4209 C235.9092,134.9099 232.4822,134.1369 231.9932,134.6039 C231.8942,135.2519 232.6592,135.9099 233.8452,136.6879 C235.2812,137.6299 237.1912,138.1259 238.7272,138.5259 C240.2022,138.9089 240.9902,139.1299 241.3672,139.5779 C242.3312,140.7249 241.5342,143.0109 240.3252,146.4689 C240.0522,147.2529 239.7612,148.0839 239.4782,148.9469 C238.7022,151.3069 238.7132,152.9069 238.7292,155.3269 C238.7422,157.1009 238.7572,159.3089 238.4612,162.5119 C238.4312,162.8339 238.1612,163.0739 237.8462,163.0739" id="Fill-65" fill="#000000"></path>
            <path d="M257.1723,312.7741 C256.9223,312.7741 256.6873,312.6221 256.5943,312.3751 C254.0103,305.5161 251.2553,299.7381 248.5913,294.1491 C244.7663,286.1271 241.1523,278.5491 238.4233,268.6661 C237.0303,263.6181 236.2023,258.6471 235.4013,253.8381 C234.0693,245.8611 232.9213,238.9721 229.6173,235.2841 C229.3893,235.0291 229.4103,234.6371 229.6643,234.4111 C229.9173,234.1811 230.3093,234.2021 230.5373,234.4581 C234.0823,238.4141 235.2583,245.4671 236.6193,253.6351 C237.4163,258.4121 238.2393,263.3511 239.6163,268.3371 C242.3153,278.1161 245.9053,285.6461 249.7063,293.6171 C252.3833,299.2301 255.1493,305.0331 257.7513,311.9381 C257.8713,312.2571 257.7103,312.6141 257.3913,312.7341 C257.3183,312.7621 257.2453,312.7741 257.1723,312.7741" id="Fill-67" fill="#000000"></path>
            <g id="Group-71" transform="translate(211.000000, 203.349000)">
                <mask id="mask-2" fill="white">
                    <use xlink:href="#path-1"></use>
                </mask>
                <g id="Clip-70"></g>
                <path d="M76.8823,113.0003 C76.5913,113.0003 76.3303,112.7923 76.2763,112.4953 C75.0413,105.8663 73.9163,97.8713 72.6113,88.6133 C71.4223,80.1713 70.0733,70.6013 68.3013,59.5333 C67.6333,55.3583 67.0203,50.9553 66.4283,46.6973 C64.6463,33.8963 62.8043,20.6593 59.3203,13.1243 C57.6123,9.4303 53.3693,4.8033 47.7393,2.7853 C43.0603,1.1103 38.2683,1.4303 33.4913,3.7363 C21.2363,9.6573 9.5723,23.1163 1.9453,33.3633 C1.7403,33.6393 1.3533,33.6933 1.0803,33.4903 C0.8063,33.2863 0.7493,32.8983 0.9533,32.6253 C8.6633,22.2673 20.4733,8.6533 32.9533,2.6233 C37.9663,0.2013 43.2243,-0.1447 48.1563,1.6213 C54.5323,3.9053 58.7593,8.9653 60.4433,12.6043 C64.0033,20.3063 65.7773,33.0433 67.6533,46.5273 C68.2443,50.7783 68.8573,55.1753 69.5233,59.3383 C71.2963,70.4173 72.6453,79.9933 73.8353,88.4403 C75.1383,97.6853 76.2623,105.6673 77.4903,112.2683 C77.5533,112.6043 77.3323,112.9283 76.9963,112.9893 C76.9573,112.9963 76.9193,113.0003 76.8823,113.0003" id="Fill-69" fill="#000000" mask="url(#mask-2)"></path>
            </g>
            <path d="M300.7133,314.4567 C300.3823,314.4567 300.1093,314.1947 300.0953,313.8627 C299.0833,287.4697 296.1393,263.1087 292.9353,254.6257 C289.8243,246.3877 285.2853,245.3737 280.4813,244.2987 C279.2713,244.0297 278.0203,243.7497 276.7843,243.3527 C276.4603,243.2487 276.2813,242.9007 276.3863,242.5747 C276.4903,242.2497 276.8403,242.0707 277.1643,242.1767 C278.3453,242.5557 279.5673,242.8277 280.7493,243.0927 C285.6633,244.1907 290.7453,245.3257 294.0913,254.1877 C297.3383,262.7837 300.3153,287.3037 301.3313,313.8147 C301.3443,314.1567 301.0783,314.4437 300.7373,314.4567 L300.7133,314.4567 Z" id="Fill-72" fill="#000000"></path>
            <path d="M235.0854,250.2956 C234.9874,250.2956 234.8904,250.2736 234.7984,250.2256 L234.1564,249.8896 C224.4814,244.8166 209.8604,237.1496 191.7014,236.3756 C191.3604,236.3596 191.0964,236.0726 191.1104,235.7316 C191.1254,235.3896 191.4304,235.1566 191.7554,235.1406 C210.1894,235.9276 224.9584,243.6696 234.7314,248.7936 L235.3724,249.1296 C235.6744,249.2886 235.7914,249.6616 235.6334,249.9646 C235.5224,250.1756 235.3074,250.2956 235.0854,250.2956" id="Fill-74" fill="#000000"></path>
            <path d="M244.563,285.1178 C244.529,285.1178 244.497,285.1158 244.463,285.1098 C232.955,283.2498 200.287,282.7408 182.815,282.7788 L182.805,282.7788 C175.711,282.7788 158.964,280.3848 153.741,276.9688 C153.455,276.7818 153.374,276.3968 153.561,276.1128 C153.749,275.8278 154.132,275.7478 154.417,275.9318 C159.072,278.9768 175.157,281.5428 182.803,281.5428 C182.955,281.5278 183.146,281.5428 183.32,281.5428 C200.956,281.5428 233.185,282.0348 244.661,283.8898 C244.998,283.9448 245.227,284.2628 245.171,284.5988 C245.124,284.9018 244.86,285.1178 244.563,285.1178" id="Fill-76" fill="#000000"></path>
            <path d="M239.3647,99.1296 C239.2177,99.1296 239.0697,99.0776 238.9517,98.9716 C234.7187,95.1816 229.9517,93.8066 225.7457,92.5936 C224.4337,92.2166 223.1967,91.8596 222.0177,91.4466 C220.1567,90.7936 218.5317,89.6746 217.3457,88.8576 L216.7607,88.4586 C215.8857,87.8746 213.0717,86.9566 211.9007,87.6896 C211.6157,87.8716 211.2317,87.7836 211.0497,87.4936 C210.8687,87.2036 210.9567,86.8226 211.2467,86.6416 C213.0427,85.5196 216.4527,86.7676 217.4467,87.4306 L218.0467,87.8386 C219.1757,88.6166 220.7207,89.6816 222.4267,90.2796 C223.5717,90.6816 224.7937,91.0336 226.0877,91.4066 C230.4217,92.6556 235.3327,94.0716 239.7767,98.0506 C240.0307,98.2786 240.0517,98.6696 239.8247,98.9236 C239.7027,99.0606 239.5337,99.1296 239.3647,99.1296" id="Fill-78" fill="#000000"></path>
            <path d="M231.0532,135.3097 C231.0242,135.3097 230.9942,135.3077 230.9662,135.3037 L229.8262,135.1437 C229.6192,135.1147 227.8172,134.8257 227.1882,133.7047 C226.5592,132.5757 227.2782,130.9137 227.3612,130.7267 L242.5592,89.7607 C242.5782,89.7007 243.2072,87.8707 244.4972,87.0597 C245.8002,86.2387 247.6382,86.5397 247.7162,86.5547 L265.4302,88.5297 C265.6072,88.5377 267.5352,88.6637 268.1452,89.9507 C268.7152,91.1577 267.8972,93.1257 267.8012,93.3467 L260.6602,112.9727 C260.5412,113.2947 260.1912,113.4567 259.8662,113.3397 C259.5462,113.2227 259.3822,112.8677 259.4992,112.5467 L260.0322,111.0837 L266.6532,92.8897 C266.9592,92.1727 267.2662,90.9837 267.0272,90.4787 C266.7962,89.9917 265.7842,89.7847 265.3302,89.7617 L247.5442,87.7787 C247.4952,87.7707 246.0542,87.5397 245.1562,88.1067 C244.3902,88.5867 243.8632,89.7617 243.7242,90.1727 L228.5042,131.1957 C228.3052,131.6437 228.0102,132.6397 228.2672,133.1007 C228.5282,133.5647 229.5472,133.8537 230.0012,133.9207 L231.1372,134.0797 C231.4752,134.1267 231.7102,134.4387 231.6632,134.7767 C231.6202,135.0857 231.3562,135.3097 231.0532,135.3097" id="Fill-80" fill="#000000"></path>
            <path d="M256.8374,122.2922 C256.7674,122.2922 256.6954,122.2802 256.6254,122.2542 C256.3054,122.1382 256.1394,121.7832 256.2564,121.4622 L257.4304,118.2342 C257.5454,117.9132 257.8984,117.7462 258.2194,117.8602 C258.5414,117.9752 258.7084,118.3292 258.5944,118.6502 L257.4174,121.8852 C257.3254,122.1362 257.0894,122.2922 256.8374,122.2922" id="Fill-82" fill="#000000"></path>
            <path d="M187.8716,128.4123 C187.8436,128.4123 187.8136,128.4103 187.7856,128.4063 C187.4476,128.3593 187.2116,128.0463 187.2596,127.7083 L187.9486,122.7353 C187.9946,122.3973 188.3086,122.1433 188.6456,122.1883 C188.9836,122.2343 189.2246,122.5263 189.1796,122.8643 L188.4826,127.8793 C188.4396,128.1883 188.1756,128.4123 187.8716,128.4123" id="Fill-84" fill="#000000"></path>
            <path d="M186.936,135.1564 C186.908,135.1564 186.879,135.1544 186.85,135.1504 C186.511,135.1034 186.276,134.7914 186.324,134.4524 L186.377,134.0634 L187.61,134.1784 L187.547,134.6234 C187.504,134.9324 187.24,135.1564 186.936,135.1564" id="Fill-86" fill="#000000"></path>
            <path d="M253.7544,130.7907 C253.6834,130.7907 253.6104,130.7787 253.5414,130.7527 C253.2214,130.6337 253.0574,130.2787 253.1754,129.9587 L253.8514,128.1237 C253.9694,127.8037 254.3284,127.6417 254.6454,127.7577 C254.9644,127.8757 255.1284,128.2307 255.0104,128.5517 L254.3344,130.3857 C254.2424,130.6357 254.0054,130.7907 253.7544,130.7907" id="Fill-88" fill="#000000"></path>
            <path d="M229.1508,134.8874 C228.9518,134.8874 228.7548,134.7914 228.6368,134.6114 C228.2308,134.0024 228.2998,133.0904 228.8778,131.4634 L244.0578,90.5964 C244.1068,90.4554 244.6028,89.0594 245.4868,88.5104 C246.2688,88.0264 247.5588,88.1724 247.8098,88.2054 L267.4508,90.5624 C267.7908,90.6034 268.0318,90.9104 267.9908,91.2494 C267.9508,91.5904 267.6388,91.8354 267.3028,91.7894 L247.6528,89.4324 C247.2148,89.3724 246.4388,89.3754 246.1388,89.5614 C245.7358,89.8114 245.3478,90.6464 245.2228,91.0124 L230.0398,131.8854 C229.4808,133.4604 229.6128,133.8464 229.6658,133.9274 C229.8548,134.2114 229.7778,134.5954 229.4938,134.7834 C229.3878,134.8544 229.2688,134.8874 229.1508,134.8874" id="Fill-90" fill="#000000"></path>
            <path d="M217.7612,122.486 C217.4332,122.486 217.1592,122.229 217.1442,121.899 C216.2562,104.004 213.6622,91.892 212.5882,87.515 C212.5062,87.184 212.7092,86.849 213.0412,86.768 C213.3772,86.683 213.7092,86.89 213.7882,87.221 C214.8712,91.632 217.4862,103.836 218.3782,121.838 C218.3952,122.178 218.1332,122.469 217.7912,122.486 C217.7822,122.486 217.7712,122.486 217.7612,122.486" id="Fill-92" fill="#000000"></path>
            <path d="M229.2055,217.4401 C229.1015,217.4401 228.9965,217.4151 228.8995,217.3591 C219.9755,212.2951 217.9545,199.9941 217.5435,193.1101 C217.2095,187.5231 217.2095,181.6791 217.210399,170.0371 L217.210399,168.0001 C217.210399,163.8331 217.2865,159.5521 217.3665,155.0201 C217.4495,150.3021 217.5355,145.4251 217.5425,140.2761 C217.5425,139.9361 217.8195,139.6591 218.1605,139.6591 L218.1615,139.6591 C218.5035,139.6601 218.7785,139.9371 218.7785,140.2781 C218.7715,145.4371 218.6855,150.3191 218.6025,155.0421 C218.5215,159.5691 218.4465,163.8441 218.4465,168.0001 L218.4465,170.0371 C218.4455,181.6551 218.4455,187.4861 218.7775,193.0371 C219.1735,199.6691 221.0945,211.5081 229.5115,216.2851 C229.8085,216.4521 229.9115,216.8301 229.7425,217.1271 C229.6295,217.3281 229.4205,217.4401 229.2055,217.4401" id="Fill-94" fill="#000000"></path>
            <path d="M194.27,233.678903 C190.874,233.6799 187.646,233.4369 184.677,233.2159 C181.237,232.9569 178.264,232.7369 175.761,232.9339 C175.416,232.9609 175.123,232.7079 175.095,232.3679 C175.068,232.0279 175.323,231.7289 175.663,231.7019 C178.262,231.4949 181.277,231.7209 184.77,231.9829 C197,232.8969 213.751,234.1549 228.024,216.7479 C228.24,216.4849 228.628,216.4479 228.894,216.6619 C229.158,216.8789 229.196,217.2689 228.98,217.5329 C217.786,231.1829 205.17,233.678903 194.27,233.678903" id="Fill-96" fill="#000000"></path>
            <path d="M193.6694,101.6222 C193.1924,101.6222 192.7094,101.6102 192.2184,101.5852 C182.4094,101.0902 172.7604,95.7592 171.1474,89.9422 C171.0564,89.6132 171.2484,89.2722 171.5774,89.1812 C171.9084,89.0922 172.2474,89.2822 172.3394,89.6112 C173.7974,94.8702 183.1154,99.8892 192.2804,100.3502 C200.7454,100.7742 207.0434,97.3062 209.5644,90.8292 C209.6894,90.5112 210.0484,90.3512 210.3644,90.4772 C210.6824,90.6012 210.8404,90.9592 210.7164,91.2772 C208.1384,97.9022 201.9674,101.6222 193.6694,101.6222" id="Fill-98" fill="#000000"></path>
            <path d="M305.061,239.4548 L305.056,239.4548 C304.716,239.4528 304.441,239.1738 304.443,238.8318 C304.677,205.5528 296.968,152.2028 290.462,142.0798 C284.53,132.8538 272.966,131.7678 267.409,131.2468 C267.07,131.2148 266.82,130.9128 266.851,130.5738 C266.882,130.2338 267.189,129.9858 267.525,130.0158 C273.277,130.5558 285.245,131.6788 291.502,141.4118 C298.236,151.8868 305.92,204.6988 305.679,238.8418 C305.677,239.1808 305.401,239.4548 305.061,239.4548" id="Fill-100" fill="#C7CBD2"></path>
            <g id="Group-104" transform="translate(0.000000, 132.349000)">
                <mask id="mask-4" fill="white">
                    <use xlink:href="#path-3"></use>
                </mask>
                <g id="Clip-103"></g>
                <path d="M0.6176,6.4554 C0.3096,6.4554 0.0446,6.2264 0.0046,5.9134 C-0.0374,5.5754 0.2026,5.2664 0.5416,5.2244 C28.6646,1.7074 95.7666,-0.5256 112.9856,0.9924 C113.3256,1.0224 113.5766,1.3224 113.5466,1.6624 C113.5156,2.0024 113.2266,2.2644 112.8766,2.2234 C95.7026,0.7084 28.7636,2.9414 0.6946,6.4504 C0.6686,6.4534 0.6426,6.4554 0.6176,6.4554" id="Fill-102" fill="#C7CBD2" mask="url(#mask-4)"></path>
            </g>
            <path d="M302.1372,289.7995 C301.8432,289.7995 301.5822,289.5895 301.5302,289.2895 C301.4692,288.9525 301.6942,288.6315 302.0302,288.5725 C329.0572,283.7635 357.2212,281.3505 365.3952,281.3505 C365.7372,281.3505 366.0132,281.6265 366.0132,281.9685 C366.0132,282.3105 365.7372,282.5865 365.3952,282.5865 C357.4862,282.5865 328.8262,285.0605 302.2462,289.7895 C302.2092,289.7955 302.1732,289.7995 302.1372,289.7995" id="Fill-105" fill="#C7CBD2"></path>
            <path d="M97.104,309.2712 C96.794,309.2712 96.528,309.0402 96.491,308.7242 C96.451,308.3862 96.694,308.0792 97.033,308.0392 C128.114,304.4062 204.554,295.9152 242.99,295.5422 L242.996,295.5422 C243.335,295.5422 243.611,295.8152 243.614043,296.1552 C243.618,296.4972 243.343,296.7752 243.002,296.7792 C204.625,297.1502 128.238,305.6362 97.176,309.2682 C97.152,309.2702 97.127,309.2712 97.104,309.2712" id="Fill-107" fill="#C7CBD2"></path>
            <path d="M369.4077,311.8854 L369.3917,311.8854 C369.0507,311.8754 368.7807,311.5914 368.7897,311.2514 C369.2917,291.9864 368.5957,280.1584 366.7217,276.0984 C363.7377,269.6294 350.0207,261.2574 337.9187,253.8704 C325.2387,246.1304 309.1097,239.7344 305.6357,239.8324 C302.2257,239.9224 297.6407,240.4334 291.6177,241.3954 C291.2727,241.4414 290.9637,241.2184 290.9087,240.8824 C290.8557,240.5454 291.0857,240.2274 291.4217,240.1734 C297.5007,239.2024 302.1377,238.6874 305.6027,238.5964 C305.6307,238.5964 305.6577,238.5954 305.6867,238.5954 C309.5047,238.5954 325.5827,244.8934 338.5627,252.8154 C351.4147,260.6594 364.7027,268.7694 367.8457,275.5784 C369.8267,279.8734 370.5397,291.5524 370.0257,311.2824 C370.0167,311.6184 369.7417,311.8854 369.4077,311.8854" id="Fill-109" fill="#C7CBD2"></path>
            <path d="M292.1958,247.1139 C291.9798,247.1139 291.7678,246.9999 291.6548,246.7969 C291.4898,246.4979 291.5968,246.1219 291.8948,245.9559 C292.3398,245.7089 292.4468,245.4679 292.4888,245.3069 C292.7078,244.4819 291.7978,242.9799 290.7418,241.2419 C289.4648,239.1359 287.8758,236.5149 287.1798,233.4049 C286.5718,230.6769 286.0418,227.5739 285.4798,224.2889 C284.3418,217.6239 283.0498,210.0669 280.7328,203.8729 C277.8768,196.2389 275.5838,192.2599 273.3658,188.4109 C271.6248,185.3889 269.9798,182.5349 268.2368,178.1759 C267.9468,177.4519 267.6728,176.8009 267.4178,176.1979 C266.0348,172.9209 265.1988,170.9439 265.9868,166.7489 C266.1198,166.0409 266.3158,165.2829 266.5148,164.5219 C267.0678,162.4059 267.6398,160.2199 266.7018,159.3319 C266.2428,158.8979 264.3828,158.7349 260.6588,159.7079 C260.3268,159.8009 259.9908,159.5969 259.9048,159.2659 C259.8178,158.9359 260.0158,158.5979 260.3468,158.5119 C264.1338,157.5229 266.5598,157.4959 267.5498,158.4339 C269.0218,159.8239 268.3548,162.3709 267.7118,164.8339 C267.5198,165.5669 267.3288,166.2949 267.2008,166.9759 C266.4838,170.8059 267.2198,172.5509 268.5568,175.7179 C268.8138,176.3269 269.0918,176.9849 269.3838,177.7169 C271.0958,181.9939 272.7178,184.8119 274.4378,187.7949 C276.6798,191.6859 278.9988,195.7099 281.8918,203.4409 C284.2508,209.7429 285.5498,217.3609 286.6988,224.0819 C287.2578,227.3499 287.7858,230.4379 288.3878,233.1349 C289.0388,236.0479 290.5698,238.5719 291.7998,240.5999 C293.0498,242.6629 294.0388,244.2909 293.6838,245.6249 C293.5288,246.2099 293.1298,246.6839 292.4968,247.0369 C292.4008,247.0899 292.2988,247.1139 292.1958,247.1139" id="Fill-111" fill="#C7CBD2"></path>
            <path d="M219.4751,36.5495 C219.6611,37.7765 222.6231,36.0925 223.4001,35.1315 C224.9561,33.2015 225.0271,30.4405 224.4551,28.1735 C222.5471,20.5925 216.0291,14.9915 210.1641,10.0515 C206.1071,6.6335 200.9431,1.7055 195.6211,0.6115 C190.4011,-0.4615 183.7981,0.7775 178.2271,2.8415 C172.7251,4.8815 166.6941,6.6325 164.4531,12.0805 C161.9201,18.2325 162.7631,24.0085 162.8431,30.4525 C162.8621,32.0595 164.2301,38.2785 164.2301,38.2785 C164.2301,38.2785 166.3881,37.6955 167.1711,37.9455 C168.9031,38.4995 169.6281,38.8565 171.0511,39.9445 C173.4861,41.8045 175.4941,44.4085 179.2161,43.3855 C181.3211,42.8065 183.5431,40.5605 185.0991,39.1115 C188.2001,36.2225 191.0661,33.0745 194.6821,30.0165 C196.6491,28.3515 198.7601,26.9905 201.0841,26.2895 C203.5751,25.5395 208.0441,25.1005 211.7871,25.9295 C214.7981,26.5975 217.0091,28.6225 218.2891,30.5645 C219.4611,32.3425 219.1711,34.5445 219.4751,36.5495" id="Fill-113" fill="#4D4D4D"></path>
            <path d="M218.4809,43.1535 C218.8479,43.1535 219.1679,42.8835 219.2219,42.5105 C219.8859,37.8715 219.8239,31.4065 217.4609,28.4515 C217.2019,28.1285 216.7299,28.0775 216.4079,28.3345 C216.0849,28.5925 216.0329,29.0645 216.2919,29.3875 C218.2229,31.8035 218.4099,37.6115 217.7389,42.2985 C217.6799,42.7075 217.9639,43.0875 218.3739,43.1455 C218.4099,43.1515 218.4459,43.1535 218.4809,43.1535" id="Fill-115" fill="#000000"></path>
            <path d="M209.0317,62.7731 C209.0877,62.7731 209.1437,62.7671 209.2007,62.7531 C210.9367,62.3541 211.8607,61.0761 211.8757,60.0211 C211.8867,59.1681 211.4947,58.5231 211.1147,57.8971 C210.8047,57.3881 210.4857,56.8621 210.3557,56.1741 C210.1867,55.2781 210.3507,54.2891 210.4597,53.6351 L210.5087,53.3331 C210.5707,52.9221 210.2887,52.5411 209.8797,52.4801 C209.4717,52.4181 209.0887,52.6991 209.0267,53.1081 L208.9807,53.3891 C208.8547,54.1481 208.6657,55.2951 208.8827,56.4521 C209.0627,57.4071 209.4907,58.1101 209.8337,58.6751 C210.1407,59.1801 210.3837,59.5791 210.3777,60.0001 C210.3717,60.3941 209.8987,61.0551 208.8647,61.2941 C208.4617,61.3871 208.2097,61.7891 208.3027,62.1911 C208.3827,62.5391 208.6917,62.7731 209.0317,62.7731" id="Fill-117" fill="#000000"></path>
            <path d="M217.6596,46.7355 C217.9736,46.7355 218.2656,46.5375 218.3696,46.2235 C218.5016,45.8315 218.2896,45.4065 217.8966,45.2765 C216.2256,44.7175 215.2836,44.8735 214.3076,45.1175 C213.9066,45.2175 213.6616,45.6235 213.7626,46.0255 C213.8626,46.4275 214.2696,46.6735 214.6706,46.5705 C215.4876,46.3665 216.1236,46.2635 217.4226,46.6965 C217.5016,46.7225 217.5806,46.7355 217.6596,46.7355" id="Fill-119" fill="#000000"></path>
            <path d="M201.0044,45.7414 C201.2754,45.7414 201.5384,45.5934 201.6714,45.3344 C201.8604,44.9674 201.7164,44.5154 201.3474,44.3254 C199.5214,43.3854 196.3064,43.0734 194.0934,44.1804 C193.7224,44.3664 193.5714,44.8154 193.7574,45.1854 C193.9424,45.5564 194.3924,45.7074 194.7624,45.5214 C196.5284,44.6394 199.1984,44.9064 200.6624,45.6584 C200.7724,45.7154 200.8894,45.7414 201.0044,45.7414" id="Fill-121" fill="#000000"></path>
            <path d="M215.1714,52.7341 C215.1714,52.0491 214.6444,51.4951 213.9954,51.4951 C213.3454,51.4951 212.8174,52.0491 212.8174,52.7341 C212.8174,53.4181 213.3454,53.9731 213.9954,53.9731 C214.6444,53.9731 215.1714,53.4181 215.1714,52.7341" id="Fill-123" fill="#000000"></path>
            <path d="M197.6333,52.6061 C197.6333,51.8421 197.0433,51.2241 196.3173,51.2241 C195.5913,51.2241 195.0013,51.8421 195.0013,52.6061 C195.0013,53.3691 195.5913,53.9871 196.3173,53.9871 C197.0433,53.9871 197.6333,53.3691 197.6333,52.6061" id="Fill-125" fill="#000000"></path>
            <path d="M203.3989,71.8703 C204.7859,71.8703 206.0209,71.6183 206.7969,71.0703 C207.1339,70.8323 207.2149,70.3643 206.9759,70.0263 C206.7399,69.6883 206.2729,69.6073 205.9319,69.8473 C204.3809,70.9413 199.1889,70.3203 197.0859,68.4173 C196.7809,68.1413 196.3039,68.1633 196.0279,68.4703 C195.7499,68.7763 195.7729,69.2503 196.0809,69.5283 C197.6969,70.9923 200.8099,71.8703 203.3989,71.8703" id="Fill-127" fill="#000000"></path>
            <path d="M219.2885,38.2473 C219.3425,38.2473 219.3975,38.2413 219.4525,38.2293 C221.9085,37.6833 223.6475,36.0523 224.3505,33.6353 C225.2915,30.4043 224.2175,25.9373 221.9565,23.6763 C221.6635,23.3833 221.1895,23.3833 220.8965,23.6763 C220.6035,23.9693 220.6035,24.4433 220.8965,24.7353 C222.5735,26.4143 223.7845,30.2213 222.9125,33.2163 C222.3525,35.1383 221.0795,36.3323 219.1275,36.7663 C218.7235,36.8563 218.4685,37.2573 218.5585,37.6613 C218.6365,38.0103 218.9455,38.2473 219.2885,38.2473" id="Fill-129" fill="#000000"></path>
            <path d="M223.4165,22.4421 C224.1415,22.4421 224.8725,22.2361 225.5955,21.7541 C225.9395,21.5251 226.0315,21.0601 225.8035,20.7151 C225.5735,20.3721 225.1095,20.2781 224.7645,20.5071 C222.4775,22.0281 219.7455,19.2021 217.1405,16.1781 C216.7615,15.7381 216.4215,15.3451 216.1335,15.0391 C206.5765,4.9201 197.7365,0.0001 189.1095,0.0001 C188.3865,0.0001 181.9795,0.0881 180.1285,3.1221 C179.9135,3.4751 180.0255,3.9371 180.3785,4.1521 C180.7325,4.3681 181.1925,4.2551 181.4085,3.9021 C182.4165,2.2511 186.1065,1.4991 189.1095,1.4991 C197.3015,1.4991 205.7855,6.2641 215.0445,16.0671 C215.3195,16.3601 215.6435,16.7361 216.0045,17.1551 C217.7995,19.2391 220.5585,22.4421 223.4165,22.4421" id="Fill-131" fill="#000000"></path>
            <path d="M187.7544,15.6765 C187.8664,15.6765 187.9814,15.6515 188.0894,15.5975 C188.4594,15.4125 188.6094,14.9625 188.4244,14.5915 C186.5294,10.8035 183.8294,7.7775 181.0164,6.2895 C180.6504,6.0975 180.1964,6.2365 180.0034,6.6015 C179.8104,6.9675 179.9494,7.4215 180.3154,7.6145 C182.8584,8.9585 185.3254,11.7465 187.0834,15.2625 C187.2154,15.5255 187.4804,15.6765 187.7544,15.6765" id="Fill-133" fill="#000000"></path>
            <path d="M212.6704,27.7424 C212.7074,27.7424 212.7454,27.7394 212.7834,27.7334 C214.1594,27.5244 215.3554,26.3584 215.9014,24.6904 C216.5124,22.8294 216.1484,20.9304 214.9504,19.7334 C214.6564,19.4394 214.1834,19.4414 213.8914,19.7334 C213.5984,20.0254 213.5984,20.4994 213.8914,20.7924 C214.8424,21.7424 214.8174,23.1874 214.4784,24.2234 C214.1134,25.3334 213.3604,26.1304 212.5604,26.2524 C212.1494,26.3144 211.8684,26.6964 211.9314,27.1054 C211.9874,27.4764 212.3074,27.7424 212.6704,27.7424" id="Fill-135" fill="#000000"></path>
            <path d="M206.895,27.2663 C207.007,27.2663 207.122,27.2413 207.229,27.1873 C207.6,27.0013 207.75,26.5523 207.565,26.1823 C205.982,23.0163 200.644,20.8833 196.385,22.9823 C196.015,23.1653 195.863,23.6153 196.045,23.9863 C196.229,24.3573 196.674,24.5103 197.049,24.3273 C200.464,22.6383 204.952,24.3063 206.224,26.8513 C206.356,27.1153 206.621,27.2663 206.895,27.2663" id="Fill-137" fill="#000000"></path>
            <path d="M182.7085,38.6061 C184.0945,38.6061 185.5355,38.2061 187.0075,37.4031 C188.9185,36.3601 190.7535,34.6981 192.5275,33.0911 C195.8045,30.1241 199.1965,27.0581 203.1335,27.7561 C203.5395,27.8281 203.9305,27.5581 204.0025,27.1501 C204.0745,26.7421 203.8045,26.3531 203.3965,26.2811 C198.7285,25.4541 195.0645,28.7701 191.5215,31.9801 C189.7335,33.6011 188.0455,35.1301 186.2895,36.0881 C183.1045,37.8231 180.3325,37.3701 177.8125,34.6951 C177.5275,34.3951 177.0545,34.3801 176.7525,34.6641 C176.4515,34.9481 176.4375,35.4221 176.7215,35.7231 C178.5275,37.6401 180.5525,38.6061 182.7085,38.6061" id="Fill-139" fill="#000000"></path>
            <path d="M181.3325,41.9221 C181.9855,41.9221 182.6935,41.8241 183.4645,41.6001 C183.8605,41.4841 184.0905,41.0681 183.9755,40.6721 C183.8595,40.2741 183.4395,40.0501 183.0465,40.1601 C180.1425,41.0061 178.4585,39.6341 177.1075,38.2831 C176.8145,37.9901 176.3405,37.9901 176.0485,38.2831 C175.7555,38.5761 175.7555,39.0501 176.0485,39.3431 C177.3675,40.6631 179.0025,41.9221 181.3325,41.9221" id="Fill-141" fill="#000000"></path>
            <path d="M178.5385,45.1281 C178.9525,45.1281 179.2875,44.7921 179.2875,44.3781 C179.2875,43.9651 178.9525,43.6291 178.5385,43.6291 C177.7075,43.6291 176.9345,43.1871 176.4705,42.4441 C176.2525,42.0931 175.7905,41.9871 175.4375,42.2061 C175.0875,42.4251 174.9805,42.8871 175.2005,43.2381 C175.9395,44.4211 177.1865,45.1281 178.5385,45.1281" id="Fill-143" fill="#000000"></path>
            <path d="M171.1196,56.4162 C171.5326,56.4162 171.8686,56.0812 171.8686,55.6672 C171.8686,55.2532 171.5326,54.9172 171.1196,54.9172 C169.6566,54.9172 168.0276,54.0602 166.5316,52.5022 C164.3946,50.2792 162.9106,47.0102 163.0016,44.7292 C163.0896,42.5382 163.7336,41.0032 164.8616,40.2932 C165.7916,39.7092 167.0866,39.6802 168.3206,40.2152 C170.2376,41.0432 172.2496,43.4292 172.5896,43.9652 C172.8126,44.3142 173.2746,44.4162 173.6246,44.1942 C173.9736,43.9722 174.0766,43.5082 173.8536,43.1592 C173.4296,42.4942 171.2086,39.8312 168.9156,38.8392 C167.2236,38.1082 165.4126,38.1782 164.0646,39.0242 C162.9726,39.7112 161.6416,41.2492 161.5056,44.6692 C161.3966,47.3622 163.0186,51.0092 165.4516,53.5412 C167.2326,55.3952 169.2456,56.4162 171.1196,56.4162" id="Fill-145" fill="#000000"></path>
            <path d="M170.3247,48.1188 C170.4617,48.1188 170.6017,48.0808 170.7267,48.0008 C171.0757,47.7778 171.1787,47.3138 170.9547,46.9658 C169.9317,45.3688 169.0967,44.8958 167.8177,44.2558 C167.4447,44.0708 166.9977,44.2208 166.8117,44.5908 C166.6267,44.9608 166.7767,45.4108 167.1467,45.5968 C168.2917,46.1688 168.8767,46.4998 169.6917,47.7738 C169.8357,47.9968 170.0777,48.1188 170.3247,48.1188" id="Fill-147" fill="#000000"></path>
            <path d="M162.729,26.4255 C162.753,26.4255 162.777,26.4245 162.8,26.4215 C163.213,26.3825 163.515,26.0165 163.475,25.6045 C162.766,18.2185 164.59,12.2145 168.609,8.6975 C169.837,7.6215 173.147,5.7375 175.58,6.0605 C176.003,6.1075 176.366,5.8245 176.419,5.4135 C176.472,5.0025 176.183,4.6275 175.773,4.5735 C172.942,4.2115 169.247,6.1475 167.622,7.5695 C163.23,11.4135 161.227,17.8685 161.984,25.7475 C162.021,26.1355 162.347,26.4255 162.729,26.4255" id="Fill-149" fill="#000000"></path>
            <path d="M164.6079,40.0637 C164.7989,40.0637 164.9909,39.9907 165.1369,39.8447 C165.4299,39.5517 165.4299,39.0777 165.1369,38.7847 C163.7129,37.3607 163.2299,32.1917 163.5239,29.2587 C163.5649,28.8467 163.2639,28.4797 162.8519,28.4387 C162.4419,28.3887 162.0729,28.6977 162.0329,29.1097 C161.7569,31.8637 162.0739,37.8407 164.0779,39.8447 C164.2239,39.9907 164.4159,40.0637 164.6079,40.0637" id="Fill-151" fill="#000000"></path>
            <path d="M79.0717,188.0612 C79.0717,188.0612 101.8427,185.7682 114.1727,192.7532 C126.5017,199.7382 137.5467,204.5752 141.6867,229.4952 C145.8287,254.4152 153.4607,266.4792 153.4607,266.4792" id="Stroke-153" stroke="#C7CBD2" stroke-width="1.302"></path>
            <mask id="mask-6" fill="white">
                <use xlink:href="#path-5"></use>
            </mask>
            <g id="Clip-156"></g>
            <polygon id="Stroke-155" stroke="#C7CBD2" stroke-width="0.685" mask="url(#mask-6)" points="60.759 62.249 84.144 62.249 84.144 38.864 60.759 38.864"></polygon>
            <polygon id="Stroke-157" stroke="#C7CBD2" stroke-width="0.685" mask="url(#mask-6)" points="79.6733 48.757 73.7153 48.757 73.7153 42.799 71.1883 42.799 71.1883 48.757 65.2303 48.757 65.2303 51.285 71.1883 51.285 71.1883 57.242 73.7153 57.242 73.7153 51.285 79.6733 51.285"></polygon>
            <polygon id="Stroke-158" stroke="#C7CBD2" stroke-width="0.685" mask="url(#mask-6)" points="84.089 62.249 107.474 62.249 107.474 38.864 84.089 38.864"></polygon>
            <polygon id="Stroke-159" stroke="#C7CBD2" stroke-width="0.685" mask="url(#mask-6)" points="89.553 50.924 102.01 50.924 102.01 48.757 89.553 48.757"></polygon>
            <polygon id="Stroke-160" stroke="#C7CBD2" stroke-width="0.685" mask="url(#mask-6)" points="60.759 85.586 84.144 85.586 84.144 62.201 60.759 62.201"></polygon>
            <polygon id="Stroke-161" stroke="#C7CBD2" stroke-width="0.685" mask="url(#mask-6)" points="76.6645 67.3576 72.4515 71.5696 68.2385 67.3576 66.4515 69.1446 70.6645 73.3576 66.4515 77.5696 68.2385 79.3576 72.4515 75.1446 76.6645 79.3576 78.4515 77.5696 74.2385 73.3576 78.4515 69.1446"></polygon>
            <polygon id="Stroke-162" stroke="#C7CBD2" stroke-width="0.685" mask="url(#mask-6)" points="84.089 85.586 107.474 85.586 107.474 62.201 84.089 62.201"></polygon>
            <polygon id="Stroke-163" stroke="#C7CBD2" stroke-width="0.685" mask="url(#mask-6)" points="89.553 74.26 102.01 74.26 102.01 72.093 89.553 72.093"></polygon>
            <path d="M95.7817,70.111 C96.6467,70.111 97.3477,69.41 97.3477,68.545 C97.3477,67.681 96.6467,66.98 95.7817,66.98 C94.9177,66.98 94.2167,67.681 94.2167,68.545 C94.2167,69.41 94.9177,70.111 95.7817,70.111 Z" id="Stroke-164" stroke="#C7CBD2" stroke-width="0.685" mask="url(#mask-6)"></path>
            <path d="M95.7817,76.486 C94.9177,76.486 94.2167,77.187 94.2167,78.051 C94.2167,78.916 94.9177,79.617 95.7817,79.617 C96.6467,79.617 97.3477,78.916 97.3477,78.051 C97.3477,77.187 96.6467,76.486 95.7817,76.486 Z" id="Stroke-165" stroke="#C7CBD2" stroke-width="0.685" mask="url(#mask-6)"></path>
            <path d="M308.4878,15.4162 L266.3558,15.4162 C259.5928,15.4162 254.1108,20.6512 254.1108,27.1082 L254.1108,50.1862 C254.1108,55.8012 258.2568,60.4892 263.7828,61.6182 L261.2008,69.2642 L273.1748,61.8792 L308.4878,61.8792 C315.2508,61.8792 320.7328,56.6442 320.7328,50.1862 L320.7328,27.1082 C320.7328,20.6512 315.2508,15.4162 308.4878,15.4162 Z" id="Stroke-166" stroke="#C7CBD2" stroke-width="1.027" mask="url(#mask-6)"></path>
            <path d="M300.9809,29.9792 L271.1929,29.9792 C270.2669,29.9792 269.5159,30.7302 269.5159,31.6562 L269.5159,50.2822 C269.5159,51.2082 270.2669,51.9592 271.1929,51.9592 L300.9809,51.9592 C301.9069,51.9592 302.6579,51.2082 302.6579,50.2822 L302.6579,31.6562 C302.6579,30.7302 301.9069,29.9792 300.9809,29.9792" id="Fill-167" fill="#FFFFFF" mask="url(#mask-6)"></path>
            <path d="M300.9809,29.9792 L271.1929,29.9792 C270.2669,29.9792 269.5159,30.7302 269.5159,31.6562 L269.5159,50.2822 C269.5159,51.2082 270.2669,51.9592 271.1929,51.9592 L300.9809,51.9592 C301.9069,51.9592 302.6579,51.2082 302.6579,50.2822 L302.6579,31.6562 C302.6579,30.7302 301.9069,29.9792 300.9809,29.9792 Z" id="Stroke-168" stroke="#000000" stroke-width="0.988" mask="url(#mask-6)"></path>
            <path d="M302.0551,51.5598 L288.1141,39.0198 C286.9611,37.9828 285.2121,37.9828 284.0601,39.0198 L270.1181,51.5598 C270.4091,51.8058 270.7821,51.9588 271.1931,51.9588 L300.9811,51.9588 C301.3921,51.9588 301.7631,51.8058 302.0551,51.5598" id="Fill-169" fill="#FFFFFF" mask="url(#mask-6)"></path>
            <path d="M302.0551,51.5598 L288.1141,39.0198 C286.9611,37.9828 285.2121,37.9828 284.0601,39.0198 L270.1181,51.5598 C270.4091,51.8058 270.7821,51.9588 271.1931,51.9588 L300.9811,51.9588 C301.3921,51.9588 301.7631,51.8058 302.0551,51.5598 Z" id="Stroke-170" stroke="#000000" stroke-width="0.988" mask="url(#mask-6)"></path>
            <path d="M270.1176,30.3791 L284.0596,42.9191 C285.2126,43.9551 286.9616,43.9551 288.1136,42.9191 L302.0546,30.3791 C301.7636,30.1331 301.3916,29.9791 300.9806,29.9791 L271.1926,29.9791 C270.7816,29.9791 270.4096,30.1331 270.1176,30.3791" id="Fill-171" fill="#FFFFFF" mask="url(#mask-6)"></path>
            <path d="M270.1176,30.3791 L284.0596,42.9191 C285.2126,43.9551 286.9616,43.9551 288.1136,42.9191 L302.0546,30.3791 C301.7636,30.1331 301.3916,29.9791 300.9806,29.9791 L271.1926,29.9791 C270.7816,29.9791 270.4096,30.1331 270.1176,30.3791 Z" id="Stroke-172" stroke="#000000" stroke-width="0.988" mask="url(#mask-6)"></path>
            <path d="M311.8716,29.9235 C311.8716,34.4765 308.1806,38.1685 303.6266,38.1685 C299.0726,38.1685 295.3826,34.4765 295.3826,29.9235 C295.3826,25.3705 299.0726,21.6785 303.6266,21.6785 C308.1806,21.6785 311.8716,25.3705 311.8716,29.9235" id="Fill-173" fill="#FE7200" mask="url(#mask-6)"></path>
            <path d="M303.5454,27.7121 L302.9234,27.8741 C302.8304,27.8971 302.7044,27.9201 302.6114,27.9201 C302.1964,27.9201 301.8404,27.5741 301.8404,27.1601 C301.8404,26.8021 302.0704,26.5031 302.4284,26.3991 L303.5684,26.0651 C303.9024,25.9721 304.1554,25.9151 304.3984,25.9151 L304.4214,25.9151 C304.9044,25.9151 305.2974,26.3071 305.2974,26.7911 L305.2974,33.2901 C305.2974,33.7741 304.9044,34.1661 304.4214,34.1661 C303.9384,34.1661 303.5454,33.7741 303.5454,33.2901 L303.5454,27.7121 Z" id="Fill-174" fill="#FFFFFF" mask="url(#mask-6)"></path>
        </g>
        <g id="Group-5-Copy-2" transform="translate(5.000000, 12.000000)">
            <line x1="15.4535831" y1="15.5" x2="571.546417" y2="15.5" id="Line" stroke="#CCCCCC" stroke-linecap="square"></line>
            <g id="01">
                <circle id="Oval" fill="#CCCCCC" cx="15.5" cy="15.5" r="15.5"></circle>
                <polygon id="1" fill="#FFFFFF" fill-rule="nonzero" points="17.5258824 22.02 17.5258824 7.6 15.2658824 7.6 10.4458824 10.28 11.6858824 12.36 14.9658824 10.48 14.9658824 22.02"></polygon>
            </g>
            <g id="02" transform="translate(109.000000, 0.000000)">
                <circle id="Oval-Copy" fill="#CCCCCC" cx="15.5" cy="15.5" r="15.5"></circle>
                <path d="M21.2494118,22.02 L21.2494118,19.9 L14.3894118,19.9 L18.6294118,15.62 C19.9694118,14.28 20.7094118,12.84 20.7094118,11.28 L20.7094118,11.08 C20.7094118,9.1 19.3094118,7.38 16.0494118,7.38 C13.1294118,7.38 11.7894118,9.18 11.1094118,10.42 L13.0294118,11.68 C13.9694118,10 15.0294118,9.66 16.0694118,9.66 C17.5494118,9.66 18.1294118,10.4 18.1294118,11.18 L18.1294118,11.34 C18.1294118,12.16 18.0294118,12.92 16.3494118,14.64 L11.0494118,20.1 L11.0494118,22.02 L21.2494118,22.02 Z" id="2" fill="#FFFFFF" fill-rule="nonzero"></path>
            </g>
            <g id="03" transform="translate(220.000000, 0.000000)">
                <circle id="Oval-Copy-2" fill="#CCCCCC" cx="15.5" cy="15.5" r="15.5"></circle>
                <path d="M15.5694118,22.24 C19.1094118,22.24 20.8094118,20.22 20.8094118,18.04 L20.8094118,17.74 C20.8094118,16.1 19.9094118,14.82 18.0094118,14.48 C19.6494118,13.86 20.0894118,12.32 20.0894118,11.18 L20.0894118,10.98 C20.0894118,8.82 18.3294118,7.38 15.6294118,7.38 C13.5494118,7.38 12.3094118,8.22 11.3494118,9.46 L13.0894118,10.82 C13.7294118,10.12 14.4094118,9.62 15.6294118,9.62 C16.8294118,9.62 17.5894118,10.1 17.5894118,11.18 L17.5894118,11.34 C17.5894118,12.58 17.1894118,13.42 15.3894118,13.42 L13.6694118,13.42 L13.6694118,15.62 L15.6094118,15.62 C17.4494118,15.62 18.2294118,16.26 18.2294118,17.66 L18.2294118,17.92 C18.2294118,19.18 17.3894118,19.96 15.5894118,19.96 C14.4294118,19.96 13.6094118,19.66 12.2094118,18.64 L10.9494118,20.64 C12.3094118,21.72 13.8894118,22.24 15.5694118,22.24 Z" id="3" fill="#FFFFFF" fill-rule="nonzero"></path>
            </g>
            <g id="04" transform="translate(331.000000, 0.000000)">
                <circle id="Oval-Copy-2" fill="#CCCCCC" cx="15.5" cy="15.5" r="15.5"></circle>
                <polygon id="4" fill="#FFFFFF" fill-rule="nonzero" points="19.1176471 22.02 19.1176471 19.02 21.0776471 19.02 21.0776471 16.96 19.1176471 16.96 19.1176471 12.64 16.5976471 12.64 16.5976471 16.96 12.4376471 16.96 18.7376471 7.6 15.9776471 7.6 9.41764706 17.36 9.41764706 19.02 16.5976471 19.02 16.5976471 22.02"></polygon>
            </g>
            <g id="05" transform="translate(441.000000, 0.000000)">
                <circle id="Oval-Copy-2" fill="#FF0000" cx="15.5" cy="15.5" r="15.5"></circle>
                <path d="M15.4176471,22.24 C19.0376471,22.24 20.5576471,19.74 20.5576471,17.44 L20.5576471,17.14 C20.5576471,14.82 19.0376471,12.74 16.2576471,12.74 C15.0576471,12.74 14.2376471,13.08 13.5776471,13.48 L13.7376471,9.72 L19.6176471,9.72 L19.6176471,7.6 L11.4376471,7.6 L10.9776471,15.94 L12.6976471,15.94 C13.3376471,15.32 14.2176471,14.8 15.4376471,14.8 C17.0376471,14.8 17.9776471,15.66 17.9776471,17.2 L17.9776471,17.42 C17.9776471,18.86 17.1576471,19.92 15.3976471,19.92 C14.0576471,19.92 12.8976471,19.7 11.5376471,18.62 L10.2976471,20.64 C11.7376471,21.82 13.3376471,22.24 15.4176471,22.24 Z" id="5" fill="#FFFFFF" fill-rule="nonzero"></path>
            </g>
            <g id="06" transform="translate(551.000000, 0.000000)">
                <circle id="Oval-Copy-2" fill="#CCCCCC" cx="15.5" cy="15.5" r="15.5"></circle>
                <path d="M15.4376471,22.24 C18.6376471,22.24 20.5576471,20.2 20.5576471,17.52 L20.5576471,17.12 C20.5576471,14.32 18.8576471,12.48 16.0576471,12.48 C14.8176471,12.48 13.5176471,12.92 12.8176471,13.74 C12.9976471,10.66 14.3576471,9.7 15.8376471,9.7 C17.0176471,9.7 17.9976471,9.98 18.8976471,10.5 L19.8376471,8.38 C18.7576471,7.66 17.2976471,7.38 15.9976471,7.38 C12.8576471,7.38 10.2776471,8.86 10.2776471,15.22 L10.2776471,16.14 C10.2776471,19.84 11.7576471,22.24 15.4376471,22.24 Z M15.3776471,19.92 C13.7376471,19.92 12.8576471,19 12.8576471,17.44 L12.8576471,17.14 C12.8576471,15.82 13.6376471,14.72 15.4776471,14.72 C17.2376471,14.72 18.0376471,15.52 18.0376471,17.2 L18.0376471,17.42 C18.0376471,19.02 17.1376471,19.92 15.3776471,19.92 Z" id="6" fill="#FFFFFF" fill-rule="nonzero"></path>
            </g>
            <path d="M13.705,52.132 L13.705,46.216 L12.532,46.216 L12.532,48.154 L4.848,48.154 L4.848,46.216 L3.675,46.216 L3.675,52.132 L13.705,52.132 Z M12.532,51.095 L4.848,51.095 L4.848,49.157 L12.532,49.157 L12.532,51.095 Z M9.455,58.082 L9.455,54.954 L15.83,54.954 L15.83,53.934 L1.55,53.934 L1.55,54.954 L8.265,54.954 L8.265,58.082 L9.455,58.082 Z M14.045,61.125 L14.045,60.071 L4.865,60.071 L4.865,56.705 L3.658,56.705 L3.658,61.125 L14.045,61.125 Z M28.937,53.458 L28.937,45.774 L27.747,45.774 L27.747,53.458 L28.937,53.458 Z M17.054,53.747 C18.21,52.914 19.162,52.132 19.757,51.605 C20.505,50.959 20.93,50.483 21.015,50.211 L21.032,50.211 C21.134,50.5 21.763,51.044 22.562,51.673 C23.055,52.064 23.82,52.642 24.619,53.203 L25.299,52.336 C24.398,51.741 23.429,51.01 22.8,50.483 C21.729,49.582 21.576,49.191 21.576,47.95 L21.576,46.165 L20.352,46.165 L20.352,48.001 C20.352,49.242 20.08,49.82 19.094,50.721 C18.397,51.35 17.394,52.149 16.34,52.88 L17.054,53.747 Z M29.345,61.363 L29.345,60.343 L20.607,60.343 L20.607,58.371 L28.937,58.371 L28.937,54.376 L19.349,54.376 L19.349,55.413 L27.764,55.413 L27.764,57.368 L19.434,57.368 L19.434,61.363 L29.345,61.363 Z" id="" fill="#6E6E6E" fill-rule="nonzero"></path>
            <path d="M122.317,56.858 L122.317,45.774 L121.127,45.774 L121.127,56.858 L122.317,56.858 Z M110.519,54.988 C111.505,54.206 112.474,53.39 113.069,52.829 C113.817,52.115 114.344,51.588 114.395,51.299 L114.412,51.299 C114.497,51.571 114.956,52.03 115.738,52.693 C116.316,53.186 117.064,53.798 117.999,54.512 L118.713,53.679 C117.948,53.118 117.03,52.387 116.197,51.656 C115.058,50.636 114.956,50.228 114.956,48.97 L114.956,46.505 L113.732,46.505 L113.732,49.004 C113.732,50.296 113.613,50.721 112.542,51.792 C111.777,52.557 110.689,53.441 109.771,54.138 L110.519,54.988 Z M122.708,61.125 L122.708,60.071 L114.038,60.071 L114.038,55.94 L112.831,55.94 L112.831,61.125 L122.708,61.125 Z M135.713,56.093 C136.121,53.9 136.308,51.928 136.308,49.072 L136.308,47.236 L125.972,47.236 L125.972,48.29 L135.067,48.29 L135.067,49.701 C135.067,51.979 134.846,53.849 134.455,55.94 L135.713,56.093 Z M138.45,59.119 L138.45,58.082 L130.817,58.082 L130.817,52.115 L129.593,52.115 L129.593,58.082 L124.17,58.082 L124.17,59.119 L138.45,59.119 Z" id="" fill="#6E6E6E" fill-rule="nonzero"></path>
            <path d="M224.256,53.764 L224.256,45.774 L223.083,45.774 L223.083,49.174 L220.839,49.174 L220.839,45.978 L219.666,45.978 L219.666,53.73 L220.839,53.73 L220.839,50.245 L223.083,50.245 L223.083,53.764 L224.256,53.764 Z M214.685,53.356 C216.946,53.356 218.102,51.707 218.102,50.313 L218.102,49.463 C218.102,48.069 216.946,46.42 214.685,46.42 C212.424,46.42 211.268,48.069 211.268,49.463 L211.268,50.313 C211.268,51.707 212.424,53.356 214.685,53.356 Z M214.685,52.268 C213.24,52.268 212.441,51.231 212.441,50.194 L212.441,49.582 C212.441,48.545 213.24,47.508 214.685,47.508 C216.13,47.508 216.929,48.545 216.929,49.582 L216.929,50.194 C216.929,51.231 216.13,52.268 214.685,52.268 Z M224.256,61.295 L224.256,54.682 L223.083,54.682 L223.083,56.807 L215.773,56.807 L215.773,54.682 L214.6,54.682 L214.6,61.295 L224.256,61.295 Z M223.083,60.224 L215.773,60.224 L215.773,57.861 L223.083,57.861 L223.083,60.224 Z M242.038,61.312 L242.038,52.608 L244.622,52.608 L244.622,51.537 L242.038,51.537 L242.038,45.774 L240.831,45.774 L240.831,61.312 L242.038,61.312 Z M233.759,57.164 C235.663,57.164 237.703,57.045 239.505,56.722 L239.352,55.651 C237.448,55.974 235.799,56.076 234.065,56.076 L232.059,56.076 L232.059,48.273 L237.924,48.273 L237.924,47.185 L230.852,47.185 L230.852,57.164 L233.759,57.164 Z M251.745,52.353 C254.465,52.353 256.624,51.265 256.624,49.565 L256.624,48.919 C256.624,47.219 254.465,46.131 251.745,46.131 C249.025,46.131 246.866,47.219 246.866,48.919 L246.866,49.565 C246.866,51.265 249.025,52.353 251.745,52.353 Z M251.745,51.333 C249.79,51.333 248.022,50.568 248.022,49.48 L248.022,49.004 C248.022,47.916 249.79,47.151 251.745,47.151 C253.7,47.151 255.468,47.916 255.468,49.004 L255.468,49.48 C255.468,50.568 253.7,51.333 251.745,51.333 Z M252.527,58.014 L252.527,54.801 L258.885,54.801 L258.885,53.781 L244.605,53.781 L244.605,54.801 L251.337,54.801 L251.337,58.014 L252.527,58.014 Z M257.1,61.125 L257.1,60.071 L247.937,60.071 L247.937,56.535 L246.73,56.535 L246.73,61.125 L257.1,61.125 Z" id="" fill="#6E6E6E" fill-rule="nonzero"></path>
            <path d="M333.723,55.056 C334.505,54.495 335.661,53.577 336.256,53.05 C336.97,52.421 337.514,51.86 337.582,51.605 L337.599,51.605 C337.667,51.826 338.33,52.404 339.129,53.05 C339.639,53.458 340.455,54.07 341.135,54.546 L341.832,53.696 C340.863,53.05 339.911,52.336 339.367,51.877 C338.262,50.925 338.143,50.466 338.143,49.497 L338.143,48.613 L341.543,48.613 L341.543,47.576 L338.143,47.576 L338.143,45.638 L336.936,45.638 L336.936,47.576 L333.349,47.576 L333.349,48.613 L336.936,48.613 L336.936,49.548 C336.936,50.432 336.749,51.027 335.916,51.843 C335.083,52.659 333.995,53.492 332.992,54.206 L333.723,55.056 Z M345.47,55.073 L345.47,45.774 L344.28,45.774 L344.28,50.262 L341.101,50.262 L341.101,51.316 L344.28,51.316 L344.28,55.073 L345.47,55.073 Z M340.846,61.72 C343.481,61.72 345.555,60.632 345.555,58.898 L345.555,58.252 C345.555,56.518 343.481,55.43 340.846,55.43 C338.211,55.43 336.137,56.484 336.137,58.235 L336.137,58.898 C336.137,60.632 338.211,61.72 340.846,61.72 Z M340.846,60.7 C338.942,60.7 337.293,59.986 337.293,58.83 L337.293,58.32 C337.293,57.164 338.942,56.45 340.846,56.45 C342.75,56.45 344.399,57.164 344.399,58.32 L344.399,58.83 C344.399,59.986 342.75,60.7 340.846,60.7 Z M354.905,61.312 L354.905,54.954 L361.45,54.954 L361.45,53.917 L358.713,53.917 C359.036,52.37 359.223,50.449 359.223,48.647 L359.223,46.794 L349.04,46.794 L349.04,47.831 L357.999,47.831 L357.999,49.038 C357.999,50.517 357.812,52.387 357.472,53.917 L347.17,53.917 L347.17,54.954 L353.698,54.954 L353.698,61.312 L354.905,61.312 Z" id="" fill="#6E6E6E" fill-rule="nonzero"></path>
            <path d="M454.756,53.611 L454.756,50.194 L457.136,50.194 L457.136,49.14 L454.756,49.14 L454.756,45.774 L453.566,45.774 L453.566,53.611 L454.756,53.611 Z M452.155,52.387 L452.019,51.316 C449.435,51.656 447.99,51.724 444.692,51.724 L444.692,46.624 L443.485,46.624 L443.485,52.812 L444.343322,52.8110915 C448.30488,52.8020229 449.64229,52.7209677 452.155,52.387 Z M454.756,61.278 L454.756,54.529 L453.583,54.529 L453.583,56.722 L446.596,56.722 L446.596,54.529 L445.423,54.529 L445.423,61.278 L454.756,61.278 Z M453.583,60.207 L446.596,60.207 L446.596,57.776 L453.583,57.776 L453.583,60.207 Z M469.342,53.033 L469.342,46.369 L468.169,46.369 L468.169,48.698 L460.451,48.698 L460.451,46.369 L459.278,46.369 L459.278,53.033 L469.342,53.033 Z M468.169,52.03 L460.451,52.03 L460.451,49.735 L468.169,49.735 L468.169,52.03 Z M464.922,61.312 L464.922,56.144 L471.45,56.144 L471.45,55.107 L457.17,55.107 L457.17,56.144 L463.715,56.144 L463.715,61.312 L464.922,61.312 Z" id="" fill="#FF0000" fill-rule="nonzero"></path>
            <path d="M553.063,53.033 C554.44,52.489 555.766,51.877 556.684,51.418 C557.806,50.857 558.469,50.364 558.673,49.973 L558.69,49.973 C558.877,50.364 559.557,50.84 560.679,51.401 C561.597,51.86 562.889,52.455 564.266,52.999 L564.776,52.064 C563.518,51.588 562.141,50.976 561.053,50.415 C559.744,49.752 559.285,49.191 559.285,47.678 L559.285,46.318 L558.078,46.318 L558.078,47.678 C558.078,49.191 557.602,49.752 556.293,50.415 C555.205,50.976 553.794,51.605 552.536,52.081 L553.063,53.033 Z M559.302,61.312 L559.302,55.736 L565.83,55.736 L565.83,54.699 L551.55,54.699 L551.55,55.736 L558.095,55.736 L558.095,61.312 L559.302,61.312 Z M579.107,55.209 L579.107,45.774 L577.934,45.774 L577.934,47.95 L574.687,47.95 L574.687,48.987 L577.934,48.987 L577.934,50.721 L574.687,50.721 L574.687,51.758 L577.934,51.758 L577.934,55.209 L579.107,55.209 Z M575.605,54.104 L575.486,53.067 C573.412,53.305 571.27,53.339 568.346,53.339 L568.346,50.976 L573.497,50.976 L573.497,46.556 L567.173,46.556 L567.173,47.61 L572.324,47.61 L572.324,49.956 L567.173,49.956 L567.173,54.393 L568.031359,54.3922277 C571.755622,54.3850761 573.658207,54.3255862 575.605,54.104 Z M574.466,61.737 C577.22,61.737 579.192,60.683 579.192,58.983 L579.192,58.371 C579.192,56.688 577.22,55.617 574.466,55.617 C571.712,55.617 569.74,56.671 569.74,58.354 L569.74,58.983 C569.74,60.683 571.712,61.737 574.466,61.737 Z M574.466,60.717 C572.409,60.717 570.896,59.952 570.896,58.932 L570.896,58.422 C570.896,57.419 572.409,56.637 574.466,56.637 C576.523,56.637 578.036,57.402 578.036,58.422 L578.036,58.932 C578.036,59.952 576.523,60.717 574.466,60.717 Z" id="" fill="#6E6E6E" fill-rule="nonzero"></path>
        </g>
        <path d="M224.855,493.763 C225.035,493.169 225.215,492.4625 225.395,491.6435 C225.575,490.8245 225.737,489.9335 225.881,488.9705 C226.025,488.0075 226.1375,486.995 226.2185,485.933 C226.2995,484.871 226.34,483.809 226.34,482.747 L226.34,482.747 L226.34,480.155 L209.411,480.155 L209.411,482.801 L223.235,482.801 C223.235,484.961 223.1135,486.9005 222.8705,488.6195 C222.6275,490.3385 222.308,491.873 221.912,493.223 L221.912,493.223 L224.855,493.763 Z M229.067,499.46 L229.067,496.814 L217.646,496.814 L217.646,488.714 L214.622,488.714 L214.622,496.814 L206.603,496.814 L206.603,499.46 L229.067,499.46 Z M247.319,493.385 L247.319,487.391 L249.992,487.391 L249.992,493.385 L253.016,493.385 L253.016,479.372 L249.992,479.372 L249.992,484.745 L247.319,484.745 L247.319,479.372 L244.349,479.372 L244.349,493.385 L247.319,493.385 Z M233.441,493.79 C236.231,492.746 238.3775,491.234 239.8805,489.254 C241.3835,487.274 242.135,484.925 242.135,482.207 L242.135,482.207 L242.135,479.966 L232.496,479.966 L232.496,482.612 L239.111,482.612 C239.111,483.836 238.949,484.907 238.625,485.825 C238.301,486.743 237.833,487.553 237.221,488.255 C236.609,488.957 235.8575,489.578 234.9665,490.118 C234.0755,490.658 233.063,491.162 231.929,491.63 L231.929,491.63 L233.441,493.79 Z M252.935,504.59 L252.935,494.924 L236.843,494.924 L236.843,497.57 L249.911,497.57 L249.911,504.59 L252.935,504.59 Z M275.696,491.279 L275.696,479.507 L272.672,479.507 L272.672,482.801 L262.358,482.801 L262.358,479.507 L259.334,479.507 L259.334,491.279 L275.696,491.279 Z M272.672,488.633 L262.358,488.633 L262.358,485.447 L272.672,485.447 L272.672,488.633 Z M269.027,503.699 L269.027,496.598 L278.747,496.598 L278.747,493.952 L256.283,493.952 L256.283,496.598 L266.003,496.598 L266.003,503.699 L269.027,503.699 Z M300.941,493.196 L300.941,487.472 L304.775,487.472 L304.775,484.826 L300.941,484.826 L300.941,479.372 L297.917,479.372 L297.917,493.196 L300.941,493.196 Z M287.306,492.089 C288.764,492.089 290.2085,492.0125 291.6395,491.8595 C293.0705,491.7065 294.299,491.45 295.325,491.09 L295.325,491.09 L294.839,488.66 C293.885,488.966 292.8275,489.173 291.6665,489.281 C290.5055,489.389 289.304,489.443 288.062,489.443 L288.062,489.443 L285.902,489.443 L285.902,482.612 L293.84,482.612 L293.84,479.966 L280.637,479.966 L280.637,482.612 L282.878,482.612 L282.878,492.089 L287.306,492.089 Z M300.941,504.59 L300.941,494.546 L285.254,494.546 L285.254,504.59 L300.941,504.59 Z M297.944,501.998 L288.251,501.998 L288.251,497.138 L297.944,497.138 L297.944,501.998 Z M328.427,491.819 L328.427,489.173 L324.08,489.173 C324.206,488.561 324.3275,487.895 324.4445,487.175 C324.5615,486.455 324.6605,485.753 324.7415,485.069 C324.8225,484.385 324.8855,483.7595 324.9305,483.1925 C324.9755,482.6255 324.998,482.189 324.998,481.883 L324.998,481.883 L324.998,479.507 L308.933,479.507 L308.933,482.153 L321.866,482.153 C321.866,483.233 321.7985,484.394 321.6635,485.636 C321.5285,486.878 321.335,488.057 321.083,489.173 L321.083,489.173 L305.963,489.173 L305.963,491.819 L328.427,491.819 Z M325.376,504.59 L325.376,494.708 L309.014,494.708 L309.014,504.59 L325.376,504.59 Z M322.379,501.998 L312.011,501.998 L312.011,497.3 L322.379,497.3 L322.379,501.998 Z M357.776,492.116 L357.776,486.905 L361.61,486.905 L361.61,484.259 L357.776,484.259 L357.776,479.453 L354.752,479.453 L354.752,492.116 L357.776,492.116 Z M344.276,491.117 C344.996,491.117 345.7475,491.099 346.5305,491.063 C347.3135,491.027 348.0785,490.964 348.8255,490.874 C349.5725,490.784 350.2835,490.6715 350.9585,490.5365 C351.6335,490.4015 352.223,490.235 352.727,490.037 L352.727,490.037 L352.214,487.634 C351.26,487.976 350.1395,488.201 348.8525,488.309 C347.5655,488.417 346.301,488.471 345.059,488.471 L345.059,488.471 L342.197,488.471 L342.197,479.723 L339.173,479.723 L339.173,491.117 L344.276,491.117 Z M357.776,504.59 L357.776,493.385 L354.779,493.385 L354.779,496.706 L345.086,496.706 L345.086,493.385 L342.089,493.385 L342.089,504.59 L357.776,504.59 Z M354.779,501.998 L345.086,501.998 L345.086,499.244 L354.779,499.244 L354.779,501.998 Z M382.346,491.279 L382.346,479.507 L379.322,479.507 L379.322,482.801 L369.008,482.801 L369.008,479.507 L365.984,479.507 L365.984,491.279 L382.346,491.279 Z M379.322,488.633 L369.008,488.633 L369.008,485.447 L379.322,485.447 L379.322,488.633 Z M375.677,503.699 L375.677,496.598 L385.397,496.598 L385.397,493.952 L362.933,493.952 L362.933,496.598 L372.653,496.598 L372.653,503.699 L375.677,503.699 Z" id="" fill="#242424" fill-rule="nonzero"></path>
    </g>
</svg>