<?xml version="1.0" encoding="UTF-8"?>
<svg width="625px" height="761px" viewBox="0 0 625 761" version="1.1" xmlns="http://www.w3.org/2000/svg" xmlns:xlink="http://www.w3.org/1999/xlink">
    <title>img-m-01-5</title>
    <defs>
        <polygon id="path-1" points="0.371117516 0.714434783 112.343983 0.714434783 112.343983 165 0.371117516 165"></polygon>
        <polygon id="path-3" points="0 0.0182965918 165.834216 0.0182965918 165.834216 8.7029 0 8.7029"></polygon>
        <polygon id="path-5" points="0 462.015 540.643 462.015 540.643 0 0 0"></polygon>
    </defs>
    <g id="img-m-01-5" stroke="none" stroke-width="1" fill="none" fill-rule="evenodd">
        <g id="Group-175" transform="translate(42.000000, 149.000000)">
            <path d="M251.1203,132.0538 C251.1203,132.0538 252.0523,154.7698 252.4223,162.9138 C253.0513,176.7408 252.8613,188.8208 253.8143,202.6458 C254.3523,210.4368 255.8353,340.0728 255.8353,340.0728 C255.8353,340.0728 265.9143,339.3468 267.9523,339.6398 C273.1903,340.3868 291.9623,340.3408 298.0353,339.4428 C305.9643,338.2688 313.8133,333.1638 320.8493,329.5058 C324.2173,327.7538 335.6843,316.1398 335.6843,316.1398 C335.6843,316.1398 330.9543,312.0138 330.2243,310.2368 C329.1683,307.6628 328.1603,305.0548 327.4153,302.3718 C323.7653,289.2308 323.0383,275.3908 319.2693,262.2008 C316.0133,250.8018 321.9743,242.8878 321.0573,231.2038 C319.9413,216.9758 322.0523,179.5868 321.5593,167.4698 C321.0733,155.5228 311.7273,128.5298 311.7273,128.5298 L307.2653,126.9048 C307.2653,126.9048 305.2493,132.8358 303.8983,134.2638 C300.2243,138.1548 295.8443,144.0328 290.6143,145.3398 C280.8053,147.7918 272.0993,145.3018 262.8053,141.6868 C259.5613,140.4268 251.1203,132.0538 251.1203,132.0538" id="Fill-1" fill="#FFFFFF"></path>
            <path d="M310.7872,126.9581 C310.7872,126.9581 312.8312,135.3561 314.1202,141.0801 C315.7742,148.4181 316.6952,160.2991 317.1442,166.5831 C318.1792,181.0801 318.0722,195.1661 318.4402,209.7061 C318.8492,225.8821 318.2852,242.7251 318.0782,258.9071 C317.9302,270.4211 317.6722,279.8511 319.5502,291.1181 C320.5822,297.3141 322.3282,303.2211 325.9972,308.5561 C328.2172,311.7851 335.0312,317.3701 335.0312,317.3701 C335.0312,317.3701 353.0612,305.9111 360.2262,302.3271 C363.0452,300.9181 376.3322,299.8121 376.3322,299.8121 C376.3322,299.8121 379.0562,292.6341 378.9492,287.8821 C378.7632,279.4781 373.8602,271.6101 373.8602,263.2051 C373.8602,255.6431 375.5552,236.4691 375.9462,226.4681 C376.2892,217.7301 374.5192,207.6391 374.5192,207.6391 C374.5192,207.6391 373.3602,192.6811 371.9432,183.3331 C370.5202,173.9371 369.3882,164.8961 364.2552,156.6041 C361.7542,152.5641 351.4342,145.4441 351.4342,145.4441 C351.4342,145.4441 347.2822,141.1431 343.8862,139.4571 C336.7502,135.9141 330.1322,134.4571 323.1682,132.0001 C321.2602,131.3241 318.6882,128.8431 315.4752,127.5561 C312.7952,126.4831 310.7872,126.9581 310.7872,126.9581" id="Fill-3" fill="#FE7200"></path>
            <path d="M250.5148,122.067 C250.5148,122.067 247.7178,122.103 245.1238,123.224 C238.9778,125.888 232.0108,127.648 226.0628,129.463 C212.8538,133.493 195.3448,133.609 184.6878,142.713 C174.1668,151.701 171.3848,165.505 169.2248,177.041 C167.0388,188.712 165.6268,202.809 165.2508,215.363 C164.9108,226.789 160.2668,246.6 158.5738,255.066 C157.1338,262.273 157.5758,268.175 157.6458,270.651 C157.7148,273.127 158.7258,278.024 158.7258,278.024 C158.7258,278.024 167.7438,281.875 171.4628,283.655 C175.1078,285.398 181.9138,289.529 184.7498,291.71 C202.7958,305.583 205.2268,324.507 208.3258,343.701 C209.5558,351.311 213.9868,362.654 213.9868,362.654 C213.9868,362.654 222.4508,359.121 223.6758,358.791 C227.0898,357.87 241.1108,353.079 244.3128,351.711 C251.2208,348.76 254.5878,344.783 256.4178,338.824 C258.2488,332.864 259.3638,316.024 256.4378,295.951 C254.1568,280.291 254.8308,264.534 255.0468,249.59 C255.1268,244.046 255.9458,237.671 255.9458,237.671 C255.9458,237.671 255.0618,219.111 255.4758,211.526 C255.9858,202.148 252.8738,188.116 252.8738,188.116 C252.8738,188.116 251.0328,170.192 251.3708,156.966 C251.5208,151.083 251.3028,143.852 250.8778,139.849 C250.3228,134.632 250.5148,122.067 250.5148,122.067" id="Fill-5" fill="#FE7200"></path>
            <path d="M234.7257,232.3648 C234.7257,232.3648 237.6927,231.0878 240.7667,226.7818 C242.9987,223.6568 245.4987,217.7338 245.9387,215.3518 C247.0327,209.4078 246.7147,201.2958 248.5227,195.4198 C250.0337,190.5068 252.0877,190.1258 255.1217,186.5978 C257.7237,183.5718 259.9337,179.4298 263.4347,176.9268 C266.6667,174.6188 274.5537,172.5358 278.0997,170.7618 C279.2047,170.2098 282.7657,169.3648 284.1147,169.7698 C285.5007,170.1848 282.6037,174.1628 281.5797,175.1878 C278.0997,178.6678 273.2047,178.1028 270.1467,181.6508 C269.7577,182.0998 265.0367,186.8598 265.2237,187.6148 C265.3917,188.2808 271.2887,186.3328 272.8307,186.4708 C274.9727,186.6668 281.2087,187.1988 282.1577,187.3858 C283.6267,187.6708 283.2907,189.9798 285.9647,190.5748 C289.6227,191.3938 294.6487,192.3038 297.1857,194.1888 C298.1917,194.9378 298.1067,195.7358 297.9347,197.1098 C297.8117,198.0868 295.2297,198.5728 294.8017,198.6018 C290.1167,198.9028 282.5747,196.8608 278.4967,196.1658 C274.4217,195.4688 271.1277,195.5568 271.1277,196.4388 C271.1277,197.8538 286.0067,201.7198 289.6357,204.1938 C290.2227,204.5948 294.4657,206.9168 293.3107,208.2778 C292.1537,209.6368 288.2057,210.1148 288.2057,210.1148 C288.2057,210.1148 286.9957,212.9458 286.3007,213.1768 C283.2387,214.1968 272.0127,213.0388 272.0127,213.0388 C272.0127,213.0388 269.7047,213.6698 267.7927,215.0128 C263.9277,217.7338 265.8507,223.5588 264.5667,227.6668 C261.7987,236.5288 253.1637,242.9778 249.6267,246.7208 C246.0877,250.4628 245.5307,254.4058 242.8217,252.6398 C238.4527,249.7908 234.9577,241.4238 234.3857,236.6518 C234.1787,234.9218 234.7257,232.3648 234.7257,232.3648" id="Fill-7" fill="#FFE5CE"></path>
            <path d="M250.2052,124.8096 C250.2052,124.8096 253.2292,123.0076 254.8952,117.1046 C256.6672,110.8356 257.0732,100.3016 256.6512,95.0356 C256.4742,92.8156 251.4152,90.0806 250.0412,88.7066 C247.4852,86.1536 234.8522,69.6826 236.5172,65.9076 C238.8632,60.5916 244.0692,52.0826 249.9212,50.0386 C259.3572,39.4016 278.7802,43.1746 293.0622,39.4486 C298.3792,38.0626 304.9552,28.3046 309.4362,32.4546 C312.6652,35.4446 317.4562,40.5906 318.8032,44.6376 C320.7382,50.4436 318.5512,66.1286 318.7462,72.1666 C319.0292,80.9616 316.4132,95.5606 312.1322,103.5106 C309.0392,109.2546 309.1402,109.2466 304.8952,114.2016 C304.4832,114.6806 298.2322,119.2176 298.2322,119.2176 C298.2322,119.2176 299.7332,122.1826 302.1742,123.8726 C306.0932,126.5866 308.9242,127.5236 308.9242,127.5236 C308.9242,127.5236 307.3612,134.4316 302.5102,140.1066 C296.1742,147.5176 286.0262,148.5896 276.7682,147.3436 C271.1282,146.5856 265.8852,145.0126 260.8952,142.1636 C255.5102,139.0846 251.7672,133.9386 251.7672,133.9386 L250.2052,124.8096 Z" id="Fill-9" fill="#FFE5CE"></path>
            <path d="M359.1544,199.0963 C355.3394,200.4023 350.5414,198.2533 346.6304,197.5633 C342.7014,196.8703 337.2064,196.7623 337.2064,196.7623 C337.2064,196.7623 331.8264,195.8063 332.0884,194.2343 C332.5434,191.5133 335.5214,184.5153 335.5214,184.5153 L355.1564,131.5123 C355.1564,131.5123 356.2584,128.8243 357.8774,127.7543 C359.4974,126.6853 361.6344,127.2363 361.6344,127.2363 L386.1934,130.0873 C386.1934,130.0873 390.0794,130.6873 390.7944,131.5773 C392.2174,133.3533 390.2104,136.0483 390.2104,136.0483 L379.9724,163.9753 L370.3834,190.1533 C370.3834,190.1533 364.7854,197.1693 359.1544,199.0963" id="Fill-11" fill="#666666"></path>
            <path d="M357.5558,236.7652 C362.1438,235.2342 365.9208,230.5682 365.9208,230.5682 C365.9208,230.5682 366.6038,217.7462 371.5228,211.3222 C372.3078,210.2982 377.9178,204.3852 378.6028,203.4372 C380.5068,200.7952 381.5148,194.8602 381.9148,194.5582 C383.3618,193.4642 386.0828,190.4652 386.1728,189.2972 C386.3378,187.1662 383.9248,185.4872 383.9248,185.4872 C383.9248,185.4872 383.9668,172.2002 383.4798,170.1452 C383.0478,168.3372 382.4988,166.1352 381.2088,165.2262 C378.4308,163.2692 373.8668,164.0202 371.2888,164.4282 C367.5178,165.0262 363.2088,164.5832 362.1538,166.6962 C361.6008,167.8032 362.6708,169.8702 365.3288,171.0372 C367.9858,172.2032 376.6678,172.8512 376.6678,172.8512 L374.7238,177.5822 C374.7238,177.5822 371.2288,175.5252 370.8358,175.3792 C365.6308,173.4282 358.4828,171.8712 353.0168,170.7792 C352.2998,170.6342 345.0498,169.1772 345.5668,172.0102 C345.8378,173.5012 349.6528,176.7592 350.7488,177.3222 C356.2308,180.1372 363.0468,182.0512 365.5228,183.4122 C367.9998,184.7762 371.2908,186.0292 372.0028,187.7552 C372.3388,188.5692 372.6568,190.0392 371.8078,190.2812 C370.2618,190.7242 363.2928,188.8492 361.8298,188.5972 C355.8688,187.5692 351.9578,187.4882 346.2788,185.3572 C344.3988,184.6532 340.5088,182.1852 338.5028,184.1912 C335.6998,186.9952 341.3018,190.8192 343.4928,191.7072 C345.2328,192.4112 351.7868,194.0402 353.9248,194.9472 C356.0628,195.8532 359.0108,197.4422 359.3678,198.5112 C359.5728,199.1252 352.5908,197.8052 351.5278,197.5382 C347.6228,196.5632 345.0518,195.8242 341.0958,195.4652 C340.2838,195.3912 338.4158,195.2932 337.9848,196.3732 C337.3758,197.8912 340.5128,200.1312 342.7808,201.2972 C345.0488,202.4642 350.2028,201.6962 352.1108,204.7962 C353.7148,207.4022 349.2458,214.7072 348.7248,217.3222 C347.3578,224.1532 347.6398,237.2292 347.6398,237.2292 C347.6398,237.2292 352.9658,238.2942 357.5558,236.7652" id="Fill-13" fill="#FFE5CE"></path>
            <path d="M256.7706,339.6089 C256.7706,339.6089 254.4536,346.4079 249.7416,349.6519 C246.9096,351.5999 239.9326,354.9189 233.9006,356.7549 C229.8916,357.9759 220.8526,362.6279 220.8526,362.6279 L224.8686,403.8749 C224.8686,403.8749 230.7126,406.3499 235.5916,407.6559 C241.6356,409.2749 247.3806,409.8889 252.6856,411.1129 C261.2246,413.0839 275.6046,412.0589 284.2286,412.0589 C298.3426,412.0589 310.9166,413.0049 325.0226,413.0049 C334.1856,413.0049 357.2086,415.6939 357.2086,415.6939 C357.2086,415.6939 362.9786,428.0989 367.6136,439.0879 C371.0316,447.1949 372.3586,448.4479 375.7446,455.4299 C377.6206,459.2969 397.3666,461.3089 412.4546,461.268514 C425.0176,461.2319 439.3336,459.1139 439.3336,457.1209 C439.3336,455.2769 439.1956,451.9829 438.4726,440.0139 C437.8856,430.2909 435.9546,416.9619 434.9896,403.9269 C434.0936,391.8149 430.2356,376.7849 426.1516,366.1649 C422.4226,356.4699 404.8806,355.0839 404.8806,355.0839 C404.8806,355.0839 402.3536,339.4049 401.3876,335.1699 C400.4226,330.9329 399.2526,327.4469 397.5256,320.6049 C395.8156,313.8429 390.6286,308.1669 387.8656,305.9669 C384.2226,303.0689 380.2046,300.6349 376.4186,299.5209 C364.9536,296.1479 352.3956,302.8759 342.9886,310.3909 C334.8106,316.9229 329.5806,323.7799 322.4476,328.5339 C316.0326,332.8109 307.8546,336.5829 300.3356,338.3749 C289.5036,340.9529 287.7936,340.0729 276.6986,340.0729 C275.9496,340.0729 265.5036,339.4229 263.1046,339.2999 C260.0366,339.1429 256.7706,339.6089 256.7706,339.6089" id="Fill-15" fill="#FFFFFF"></path>
            <path d="M290.755,120.9229 C280.425,120.9229 270.536,114.2919 263.467,102.5609 C263.21,102.1329 263.347,101.5789 263.774,101.3209 C264.202,101.0609 264.755,101.2009 265.014,101.6289 C271.998,113.2189 281.741,119.6079 291.854,119.0899 C300.49,118.6659 308.355,111.1739 312.89,99.0479 C314.452,94.8779 315.565,90.5749 316.197,86.2599 C316.272,85.7669 316.737,85.4189 317.222,85.4989 C317.716,85.5709 318.058,86.0289 317.985,86.5229 C317.333,90.9629 316.189,95.3909 314.582,99.6819 C309.784,112.5029 301.32,120.4329 291.942,120.8939 C291.547,120.9139 291.15,120.9229 290.755,120.9229" id="Fill-17" fill="#000000"></path>
            <path d="M311.4786,129.2496 C311.3746,129.2496 311.2686,129.2316 311.1656,129.1926 C304.8296,126.8486 299.7686,124.6636 297.0866,119.7316 C296.8486,119.2936 297.0106,118.7466 297.4486,118.5076 C297.8876,118.2726 298.4356,118.4296 298.6736,118.8696 C300.8586,122.8896 304.6466,124.8546 311.7926,127.4996 C312.2596,127.6726 312.4986,128.1926 312.3256,128.6596 C312.1916,129.0246 311.8456,129.2496 311.4786,129.2496" id="Fill-19" fill="#000000"></path>
            <path d="M249.7257,125.9239 C249.4557,125.9239 249.1897,125.8039 249.0117,125.5739 C248.7047,125.1799 248.7777,124.6129 249.1717,124.3079 C257.1687,118.1069 255.7727,103.2629 255.0227,95.2879 L254.9627,94.6529 C254.9167,94.1559 255.2817,93.7159 255.7787,93.6699 C256.2697,93.6199 256.7147,93.9879 256.7607,94.4859 L256.8207,95.1189 C257.6037,103.4389 259.0597,118.9259 250.2777,125.7349 C250.1137,125.8619 249.9187,125.9239 249.7257,125.9239" id="Fill-21" fill="#000000"></path>
            <path d="M220.1193,228.1983 C219.6493,228.1983 219.2523,227.8353 219.2193,227.3593 C218.9113,222.9463 218.8823,217.4603 218.8513,211.6533 C218.7613,194.7703 218.6493,173.7583 211.9583,159.7303 C211.7433,159.2803 211.9343,158.7413 212.3853,158.5273 C212.8363,158.3113 213.3733,158.5043 213.5883,158.9533 C220.4533,173.3453 220.5663,194.5813 220.6573,211.6433 C220.6873,217.4213 220.7173,222.8773 221.0203,227.2323 C221.0563,227.7293 220.6803,228.1613 220.1823,228.1973 C220.1613,228.1983 220.1403,228.1983 220.1193,228.1983" id="Fill-23" fill="#000000"></path>
            <path d="M350.9523,238.7872 C348.4663,238.7872 346.1353,238.2472 344.5813,236.9622 C343.4953,236.0622 342.3053,234.3822 342.8023,231.4802 C342.8873,230.9862 343.3623,230.6562 343.8443,230.7412 C344.3363,230.8262 344.6663,231.2932 344.5833,231.7832 C344.2963,233.4542 344.6733,234.6942 345.7323,235.5712 C348.1133,237.5382 353.4673,237.2492 357.2683,235.8272 C358.9433,235.2002 367.2133,231.8132 365.4763,226.6852 C365.3153,226.2132 365.5693,225.7022 366.0423,225.5412 C366.5163,225.3862 367.0283,225.6352 367.1863,226.1072 C368.9443,231.3022 363.5423,235.4072 357.8993,237.5192 C355.7963,238.3042 353.3053,238.7872 350.9523,238.7872" id="Fill-25" fill="#000000"></path>
            <path d="M246.4591,254.879 C245.2191,254.879 243.9651,254.461 242.7181,253.629 C237.8241,250.365 234.0761,241.296 233.2521,236.004 C233.2471,235.966 232.6871,232.208 234.4461,229.914 C235.1861,228.95 236.2021,228.393 237.4671,228.255 C237.9471,228.195 238.4081,228.558 238.4621,229.056 C238.5161,229.551 238.1571,229.997 237.6611,230.05 C236.8961,230.133 236.3131,230.448 235.8791,231.013 C234.6261,232.648 235.0321,235.696 235.0361,235.726 C235.7901,240.565 239.3161,249.191 243.7191,252.127 C244.9781,252.966 246.2011,253.244 247.3581,252.964 C247.8351,252.844 248.3311,253.14 248.4501,253.625 C248.5681,254.11 248.2711,254.599 247.7871,254.717 C247.3471,254.824 246.9031,254.879 246.4591,254.879" id="Fill-27" fill="#000000"></path>
            <path d="M354.5421,255.5772 C354.3081,255.5772 354.0841,255.5652 353.8741,255.5382 C353.3801,255.4762 353.0291,255.0252 353.0911,254.5302 C353.1541,254.0322 353.6051,253.6782 354.1001,253.7472 C356.1161,254.0152 360.4521,252.4652 362.4501,251.3422 C365.4181,249.6752 370.3041,245.5052 369.8021,240.4342 C369.7241,239.6562 369.4521,238.8822 369.1671,238.0622 C368.7251,236.7962 368.2681,235.4862 368.4451,233.9782 C368.5721,232.8852 368.7971,231.8752 369.0141,230.8982 C369.7411,227.6042 370.2231,225.4272 366.7051,223.1362 C366.2871,222.8642 366.1691,222.3062 366.4401,221.8882 C366.7141,221.4702 367.2741,221.3532 367.6891,221.6232 C372.2561,224.5962 371.5031,227.9972 370.7751,231.2872 C370.5681,232.2202 370.3551,233.1872 370.2391,234.1902 C370.1081,235.2832 370.4791,236.3452 370.8721,237.4682 C371.1811,238.3512 371.4981,239.2632 371.5971,240.2542 C372.1181,245.5052 367.8231,250.3962 363.3361,252.9142 C361.5071,253.9442 357.2451,255.5772 354.5421,255.5772" id="Fill-29" fill="#000000"></path>
            <path d="M376.2023,300.3013 C376.0823,300.3013 375.9593,300.2773 375.8433,300.2273 C375.3863,300.0283 375.1763,299.4953 375.3743,299.0393 C379.3473,289.8923 378.2203,285.9053 376.1763,278.6693 C375.2843,275.5113 374.1753,271.5803 373.2843,266.3983 C372.5733,262.2533 372.7253,258.5803 372.8573,255.3413 C373.0633,250.3013 373.2143,246.6583 370.1493,244.0173 C369.7713,243.6913 369.7293,243.1213 370.0543,242.7443 C370.3803,242.3643 370.9553,242.3263 371.3273,242.6483 C375.0553,245.8613 374.8733,250.2893 374.6613,255.4153 C374.5323,258.5663 374.3863,262.1363 375.0653,266.0923 C375.9373,271.1823 376.9873,274.8993 377.9133,278.1793 C379.9993,285.5643 381.2583,290.0213 377.0313,299.7583 C376.8833,300.0983 376.5503,300.3013 376.2023,300.3013" id="Fill-31" fill="#000000"></path>
            <path d="M341.1974,312.0767 C341.0054,312.0767 340.8114,312.0167 340.6494,311.8897 C327.5424,301.8467 329.9334,290.9157 332.4624,279.3447 C332.9024,277.3327 333.3574,275.2517 333.7244,273.1807 C334.7014,267.6607 333.9414,264.0917 333.2694,260.9427 C332.3284,256.5257 331.5844,253.0357 336.9504,247.4567 C337.2954,247.0987 337.8704,247.0867 338.2264,247.4327 C338.5864,247.7777 338.5964,248.3487 338.2514,248.7087 C333.5504,253.5977 334.1094,256.2207 335.0364,260.5677 C335.7064,263.7127 336.5424,267.6297 335.5024,273.4937 C335.1284,275.6007 334.6704,277.6997 334.2274,279.7287 C331.7184,291.2027 329.5524,301.1107 341.7464,310.4577 C342.1424,310.7617 342.2174,311.3277 341.9134,311.7227 C341.7374,311.9547 341.4674,312.0767 341.1974,312.0767" id="Fill-33" fill="#000000"></path>
            <path d="M346.3732,255.6089 C346.2702,255.6089 346.1662,255.5909 346.0652,255.5539 C342.6222,254.3099 340.5172,253.0439 338.8012,251.1849 C334.7912,246.8449 336.2532,241.1659 338.2142,236.1829 C338.6022,235.1949 338.7852,234.1119 338.9632,233.0649 C339.5192,229.7849 340.1502,226.0699 347.2882,225.0319 C347.7662,224.9719 348.2402,225.2999 348.3122,225.7949 C348.3832,226.2889 348.0432,226.7469 347.5492,226.8189 C341.7112,227.6679 341.2842,230.1819 340.7422,233.3669 C340.5512,234.5059 340.3502,235.6819 339.8932,236.8419 C338.0502,241.5289 336.8042,246.3619 340.1272,249.9609 C341.6522,251.6109 343.4882,252.7029 346.6802,253.8579 C347.1482,254.0269 347.3922,254.5439 347.2212,255.0129 C347.0892,255.3809 346.7412,255.6089 346.3732,255.6089" id="Fill-35" fill="#000000"></path>
            <path d="M220.8468,252.6358 C220.5428,252.6358 220.2458,252.4828 220.0758,252.2058 C217.1808,247.4858 216.3088,242.4848 217.6198,238.1238 C218.5228,235.1318 221.5718,233.8838 224.2608,232.7828 C225.5288,232.2628 226.7268,231.7728 227.5908,231.1568 C228.1588,230.7538 228.9718,229.8028 229.8318,228.7978 C231.4738,226.8778 233.3348,224.7038 235.1608,224.2968 C235.6488,224.1938 236.1308,224.4938 236.2398,224.9818 C236.3468,225.4688 236.0408,225.9498 235.5538,226.0598 C234.3158,226.3348 232.5898,228.3518 231.2038,229.9718 C230.2288,231.1118 229.3868,232.0948 228.6388,232.6278 C227.6048,233.3648 226.3128,233.8938 224.9458,234.4528 C222.5158,235.4488 220.0028,236.4768 219.3498,238.6458 C218.1888,242.5058 218.9928,246.9868 221.6158,251.2608 C221.8758,251.6858 221.7428,252.2428 221.3178,252.5018 C221.1698,252.5938 221.0078,252.6358 220.8468,252.6358" id="Fill-37" fill="#000000"></path>
            <path d="M178.2199,258.9346 C178.0599,258.9346 177.8989,258.8926 177.7519,258.8036 C177.3249,258.5446 177.1899,257.9896 177.4489,257.5626 C181.9839,250.0956 188.7999,248.9756 194.8139,247.9866 C197.5519,247.5366 200.1369,247.1116 202.2599,246.1256 C204.9249,244.8866 206.8109,243.1866 208.4749,241.6876 C211.0739,239.3446 213.5229,237.1226 217.9199,237.7306 C218.4139,237.7976 218.7599,238.2526 218.6929,238.7466 C218.6239,239.2406 218.1639,239.5786 217.6749,239.5186 C214.1219,239.0426 212.2579,240.7086 209.6829,243.0276 C207.9249,244.6126 205.9329,246.4096 203.0199,247.7626 C200.6729,248.8516 197.9699,249.2966 195.1069,249.7676 C189.2009,250.7386 183.0949,251.7416 178.9919,258.5006 C178.8229,258.7796 178.5249,258.9346 178.2199,258.9346" id="Fill-39" fill="#000000"></path>
            <path d="M157.4913,279.0958 C156.9933,279.0958 156.5453,278.8068 156.4363,278.3838 C156.2653,277.7168 156.1023,277.0418 155.9543,276.3518 C153.8433,266.6048 156.0723,256.4048 158.4303,245.6058 C159.4933,240.7398 160.5933,235.7068 161.3973,230.3748 C162.7623,221.3408 163.2893,213.8158 163.8003,206.5358 C164.4493,197.2558 165.0633,188.4898 167.2903,177.2608 C171.0883,158.0978 174.4933,145.9038 189.7093,138.1538 C197.9103,133.9758 210.4893,131.5808 220.5963,129.6548 C225.0383,128.8098 228.8743,128.0788 231.7283,127.3238 C235.9583,126.2048 239.4193,124.8428 242.2003,123.7478 C246.4373,122.0818 249.4993,120.8748 252.2363,121.6858 C252.7983,121.8528 253.0923,122.3678 252.8923,122.8378 C252.6923,123.3078 252.0703,123.5508 251.5143,123.3878 C249.6163,122.8248 246.8923,123.8968 243.1203,125.3818 C240.2803,126.4998 236.7473,127.8898 232.3803,129.0448 C229.4403,129.8228 225.5643,130.5608 221.0763,131.4158 C211.1223,133.3118 198.7333,135.6718 190.8323,139.6958 C176.4043,147.0448 173.1183,158.9008 169.4203,177.5548 C167.2123,188.6908 166.6013,197.4098 165.9543,206.6408 C165.4433,213.9498 164.9133,221.5068 163.5403,230.5998 C162.7263,235.9818 161.6233,241.0388 160.5543,245.9298 C158.1313,257.0248 156.0383,266.6048 158.0793,276.0318 C158.2233,276.6998 158.3813,277.3578 158.5483,278.0028 C158.6733,278.4918 158.3023,278.9708 157.7193,279.0768 C157.6423,279.0888 157.5653,279.0958 157.4913,279.0958" id="Fill-41" fill="#000000"></path>
            <path d="M213.7072,294.1968 C213.4462,294.1968 213.1872,294.0838 213.0102,293.8688 C212.6922,293.4828 212.7472,292.9148 213.1322,292.5978 C214.7652,291.2518 216.4382,289.6438 218.1032,287.8158 C221.7332,283.8358 225.5332,282.3278 228.8872,280.9968 C234.2222,278.8778 237.7472,277.4768 237.5512,267.3138 C237.5412,266.8148 237.9372,266.4038 238.4362,266.3928 C239.0002,266.3578 239.3472,266.7808 239.3562,267.2788 C239.5762,278.6938 234.9322,280.5388 229.5542,282.6738 C226.3812,283.9348 222.7862,285.3608 219.4382,289.0318 C217.7152,290.9228 215.9782,292.5928 214.2802,293.9898 C214.1112,294.1298 213.9082,294.1968 213.7072,294.1968" id="Fill-43" fill="#000000"></path>
            <path d="M253.3888,189.2286 C252.9078,189.2286 252.5078,188.8486 252.4878,188.3636 C252.3518,185.0846 252.2148,182.1026 252.0818,179.2186 C251.6898,170.6186 251.3488,163.1896 251.1498,151.4976 C250.8828,135.8746 250.2048,129.5526 248.1268,123.3136 C247.9708,122.8396 248.2258,122.3286 248.6988,122.1706 C249.1768,122.0146 249.6838,122.2696 249.8408,122.7416 C251.9878,129.1866 252.6858,135.6286 252.9548,151.4666 C253.1538,163.1336 253.4928,170.5496 253.8858,179.1356 C254.0188,182.0216 254.1558,185.0066 254.2918,188.2886 C254.3128,188.7866 253.9258,189.2076 253.4278,189.2276 C253.4138,189.2286 253.4028,189.2286 253.3888,189.2286" id="Fill-45" fill="#000000"></path>
            <path d="M220.7619,363.1539 C220.4389,363.1539 220.1249,362.9789 219.9629,362.6749 C219.7299,362.2339 219.8979,361.6869 220.3389,361.4549 C225.6839,358.6249 230.9819,356.7009 235.6569,355.0049 C243.4619,352.1729 249.6269,349.9359 252.9689,344.9799 C258.9989,336.0369 257.7489,319.7549 256.1679,299.1409 C254.8259,281.6509 253.3049,261.8279 255.4109,239.9069 C255.4589,239.4099 255.8989,239.0589 256.3969,239.0939 C256.8929,239.1419 257.2559,239.5829 257.2079,240.0799 C255.1179,261.8459 256.6319,281.5859 257.9679,299.0019 C259.5759,319.9669 260.8469,336.5249 254.4649,345.9889 C250.7959,351.4309 244.0659,353.8739 236.2719,356.7019 C231.6529,358.3799 226.4179,360.2779 221.1839,363.0489 C221.0479,363.1209 220.9039,363.1539 220.7619,363.1539" id="Fill-47" fill="#000000"></path>
            <path d="M238.5724,267.3262 C234.5914,267.3272 230.0674,265.1042 226.8564,261.2812 C226.5354,260.9002 226.5854,260.3312 226.9674,260.0102 C227.3514,259.6872 227.9194,259.7402 228.2394,260.1212 C232.0434,264.6472 237.8034,266.6932 241.6374,264.8802 C244.0354,263.7462 247.0284,258.3822 248.4684,255.8052 C248.8284,255.1592 249.1124,254.6512 249.2964,254.3642 C251.0764,251.5692 250.8014,250.6042 248.8544,247.6842 C248.5784,247.2702 248.6894,246.7092 249.1044,246.4322 C249.5164,246.1542 250.0774,246.2682 250.3564,246.6832 C252.6504,250.1192 253.0384,251.8512 250.8184,255.3332 C250.6464,255.6052 250.3824,256.0792 250.0454,256.6842 C248.3964,259.6362 245.3304,265.1312 242.4094,266.5132 C241.2454,267.0632 239.9404,267.3262 238.5724,267.3262" id="Fill-49" fill="#000000"></path>
            <path d="M244.2365,253.8526 C244.0375,253.8526 243.8355,253.7876 243.6695,253.6496 C243.2815,253.3356 243.2225,252.7686 243.5365,252.3806 C248.1165,246.7416 252.2685,242.5236 255.6055,239.1366 C258.7925,235.9006 261.0945,233.5626 261.8315,231.9016 C263.8905,227.2696 264.2865,222.8736 264.5475,219.9656 C264.6985,218.2886 264.8065,217.0796 265.1685,216.3136 C266.2365,214.0476 270.3945,212.2656 271.9375,212.0856 C273.3405,211.9246 275.5875,212.0926 277.9685,212.2676 C279.6125,212.3866 281.3255,212.4946 282.5485,212.5036 C286.2495,212.4736 286.7985,211.7536 286.8485,211.0536 C286.9085,210.2286 282.6475,208.9976 280.1015,208.2606 C279.3385,208.0396 278.5475,207.8106 277.7455,207.5686 C272.6615,206.0376 272.0455,205.9786 268.3425,206.6646 C267.8875,206.7496 267.3345,206.8666 266.7215,206.9976 C264.1305,207.5496 260.5805,208.3046 258.5255,207.8506 C258.0395,207.7426 257.7305,207.2606 257.8395,206.7736 C257.9465,206.2866 258.4225,205.9776 258.9155,206.0866 C260.5895,206.4536 264.0535,205.7196 266.3455,205.2316 C266.9755,205.0976 267.5455,204.9766 268.0125,204.8896 C272.1635,204.1216 273.0675,204.2746 278.2665,205.8406 C279.0605,206.0796 279.8455,206.3076 280.6035,206.5256 C285.3715,207.9046 288.8155,208.9006 288.6495,211.1826 C288.4305,214.2596 284.4665,214.2926 282.5615,214.3096 C281.2535,214.3146 279.5165,214.1886 277.8365,214.0676 C275.6415,213.9036 273.3735,213.7326 272.1455,213.8806 C270.8795,214.0266 267.4665,215.6716 266.8005,217.0846 C266.5765,217.5606 266.4685,218.7486 266.3455,220.1276 C266.0735,223.1536 265.6625,227.7276 263.4825,232.6346 C262.6115,234.5956 260.2125,237.0306 256.8915,240.4026 C253.5825,243.7636 249.4635,247.9456 244.9385,253.5196 C244.7595,253.7376 244.4995,253.8526 244.2365,253.8526" id="Fill-51" fill="#000000"></path>
            <path d="M288.4806,210.6309 C287.6906,210.6309 286.9766,210.5459 286.4606,210.3859 C285.9856,210.2359 285.7206,209.7299 285.8696,209.2539 C286.0186,208.7769 286.5186,208.5079 287.0016,208.6619 C288.6276,209.1699 292.2066,208.5149 292.7096,207.6089 C292.8346,207.3829 292.3086,206.9159 292.2026,206.8239 C290.3456,205.2249 287.7016,204.1989 285.1436,203.2079 C283.9416,202.7419 282.8056,202.3019 281.7386,201.8029 L281.3036,201.5989 C277.8916,199.9989 274.3626,198.3449 270.7776,197.7379 C268.4076,197.3369 265.5436,197.8289 262.7756,198.3049 C260.5926,198.6809 258.3336,199.0699 256.3256,199.0099 C255.8266,198.9949 255.4346,198.5789 255.448236,198.0809 C255.4636,197.5819 255.9426,197.1989 256.3776,197.2039 C258.2016,197.2739 260.2786,196.9029 262.4696,196.5259 C265.3846,196.0239 268.4016,195.5069 271.0796,195.9579 C274.9066,196.6059 278.5486,198.3139 282.0696,199.9639 L282.5036,200.1679 C283.5156,200.6399 284.6236,201.0699 285.7956,201.5239 C288.4966,202.5719 291.2876,203.6539 293.3806,205.4559 C294.9056,206.7669 294.6026,207.9169 294.2876,208.4859 C293.4596,209.9769 290.6716,210.6309 288.4806,210.6309" id="Fill-53" fill="#000000"></path>
            <path d="M293.4913,199.231 C291.5493,199.231 289.3543,198.899 287.3673,198.6 L286.3253,198.444 C284.2463,198.142 282.5413,197.822 280.8393,197.503 C279.0283,197.164 277.1553,196.812 274.8373,196.491 C272.8843,196.222 268.5293,197.098 267.0173,197.459 C266.5383,197.578 266.0453,197.276 265.9293,196.791 C265.8133,196.305 266.1123,195.818 266.5973,195.703 C266.8333,195.646 272.3873,194.33 275.0843,194.703 C277.4463,195.029 279.3403,195.384 281.1713,195.728 C282.8513,196.044 284.5333,196.359 286.5863,196.657 L287.6373,196.814 C291.1833,197.348 296.5403,198.159 297.1183,196.041 C297.1393,195.966 297.1543,195.873 297.0563,195.709 C296.1393,194.161 290.4943,192.816 287.4613,192.093 C286.2073,191.794 285.2173,191.559 284.5993,191.348 C283.1113,190.84 281.9703,190.398 280.9443,190.001 C278.7503,189.15 277.1653,188.537 273.7853,187.886 C271.4503,187.428 268.3993,188.236 265.4513,189.011 C262.9653,189.664 260.4023,190.343 258.1843,190.274 C257.6853,190.259 257.2943,189.843 257.306985,189.345 C257.3233,188.846 257.7893,188.46 258.2373,188.469 C260.1843,188.528 262.5213,187.914 264.9923,187.265 C268.1373,186.439 271.3873,185.582 274.1273,186.113 C277.6663,186.793 279.4013,187.466 281.5973,188.317 C282.6043,188.708 283.7223,189.142 285.1823,189.64 C285.7183,189.822 286.7203,190.06 287.8793,190.337 C293.0353,191.565 297.4003,192.748 298.6103,194.789 C298.9343,195.336 299.0213,195.934 298.8603,196.518 C298.2843,198.626 296.1173,199.231 293.4913,199.231" id="Fill-55" fill="#000000"></path>
            <path d="M234.505,233.7618 C234.229,233.7618 233.958,233.6528 233.791,233.4288 C233.491,233.0298 233.511,232.5098 233.91,232.2098 C236.251,230.4558 239.605,227.9428 242.421,222.0888 C245.511,215.6708 246.02,208.7948 246.428,203.2708 C246.687,199.7658 246.91,196.7398 247.749,194.6658 C249.029,191.4968 251.341,189.2598 253.576,187.0958 C255.038,185.6788 256.42,184.3428 257.341,182.8768 C260.02,178.6078 262.402,176.0458 264.625,175.0438 C266.245,174.3148 267.951,173.7668 269.601,173.2378 C271.757,172.5458 273.795,171.8908 275.683,170.8628 C276.231,170.5648 281.104,167.9738 283.693,168.9328 C284.38,169.1868 284.873,169.6708 285.123,170.3328 C285.976,172.5918 283.593,174.4488 282.016,175.6768 C281.674,175.9438 281.363,176.1838 281.134,176.3958 C279.216,178.1528 277.102,179.0638 275.057,179.9448 C272.622,180.9938 270.323,181.9858 268.6,184.3458 C268.118,185.0068 265.614,188.3308 265.614,188.3308 L264.172,187.2438 C264.172,187.2438 266.662,183.9378 267.142,183.2818 C269.155,180.5218 271.792,179.3868 274.342,178.2868 C276.337,177.4278 278.222,176.6158 279.913,175.0638 C280.173,174.8268 280.521,174.5538 280.907,174.2528 C282.066,173.3498 283.817,171.9858 283.434,170.9688 C283.386,170.8448 283.31,170.7158 283.066,170.6258 C281.779,170.1478 278.413,171.4298 276.547,172.4478 C274.509,173.5578 272.294,174.2688 270.152,174.9568 C268.551,175.4708 266.894,176.0028 265.367,176.6908 C263.506,177.5298 261.319,179.9338 258.869,183.8368 C257.832,185.4878 256.375,186.8988 254.832,188.3918 C252.733,190.4268 250.56,192.5288 249.422,195.3428 C248.691,197.1548 248.477,200.0508 248.228,203.4038 C247.808,209.0798 247.286,216.1448 244.049,222.8718 C241.041,229.1238 237.331,231.9038 235.116,233.5628 C234.941,233.6948 234.722,233.7618 234.505,233.7618" id="Fill-57" fill="#000000"></path>
            <path d="M384.2521,186.0963 C383.7741,186.0963 383.3741,185.7213 383.3511,185.2383 C383.2941,184.1163 383.2481,182.8553 383.2011,181.5343 C383.0401,177.0893 382.8401,171.5573 382.0881,168.9853 L381.9231,168.3873 C381.6801,167.4643 381.4461,166.5923 380.7741,166.1653 C378.9551,165.0113 376.2831,165.1953 373.9231,165.3543 C373.3151,165.3963 372.7261,165.4353 372.1701,165.4533 L370.7821,165.4883 C368.7311,165.5323 366.6101,165.5773 364.6601,166.0253 C363.1081,166.3823 362.8641,166.8033 362.8281,166.9233 C362.3041,168.6263 364.2821,169.7303 365.1591,170.1263 C368.6051,171.6843 373.6721,171.7923 377.7431,171.8793 L378.4841,171.8943 C378.9811,171.9063 379.3761,172.3193 379.3661,172.8183 C379.3561,173.3173 378.9291,173.7403 378.4411,173.7003 L377.7051,173.6843 C373.4701,173.5943 368.1971,173.4813 364.4151,171.7713 C361.6841,170.5363 360.4451,168.5263 361.1041,166.3913 C361.5221,165.0383 363.1031,164.5303 364.2561,164.2653 C366.3861,163.7763 368.6011,163.7293 370.7431,163.6833 L372.1131,163.6493 C372.6481,163.6323 373.2151,163.5933 373.8011,163.5533 C376.4391,163.3723 379.4241,163.1683 381.7411,164.6413 C383.0111,165.4463 383.3751,166.8203 383.6681,167.9243 L383.8201,168.4763 C384.6361,171.2663 384.8321,176.6873 385.0051,181.4693 C385.0531,182.7813 385.0991,184.0333 385.1531,185.1483 C385.1781,185.6463 384.7951,186.0713 384.2981,186.0953 C384.2821,186.0963 384.2661,186.0963 384.2521,186.0963" id="Fill-59" fill="#000000"></path>
            <path d="M365.6417,231.545 C365.6157,231.545 365.5887,231.544 365.5627,231.542 C365.0657,231.5 364.6977,231.06 364.7417,230.565 L364.8167,229.611 C365.0727,226.314 365.6017,219.456 367.8007,215.023 C369.8267,210.941 371.7497,209.099 373.7857,207.148 C375.1377,205.852 376.5347,204.511 378.0967,202.383 C378.6557,201.624 379.1297,199.845 379.5467,198.275 C379.9207,196.875 380.2737,195.554 380.7197,194.756 C381.1617,193.971 381.9087,193.255 382.7027,192.498 C383.8757,191.377 385.0887,190.217 385.1297,188.98 C385.1887,187.227 382.7727,185.275 381.0087,183.85 C380.7057,183.605 380.4177,183.373 380.1617,183.156 C379.5777,182.664 378.9847,182.14 378.3797,181.606 C375.9327,179.441 373.4027,177.202 370.5787,176.303 C366.8257,175.104 363.2947,174.211 359.1477,173.239 C358.1407,173.004 357.1327,172.731 356.1237,172.456 C354.5337,172.024 352.8867,171.577 351.2717,171.303 L350.9067,171.239 C349.9167,171.064 347.8597,170.695 347.1507,171.241 C346.4997,171.739 346.4627,172.135 346.4927,172.39 C346.6317,173.587 348.7817,175.34 351.7187,176.653 C353.1067,177.274 354.9037,177.997 356.7877,178.756 C360.4257,180.222 364.1897,181.737 366.3367,183.005 C366.8977,183.336 367.5057,183.67 368.1197,184.007 C370.7027,185.426 373.1417,186.766 373.5597,188.475 C373.7067,189.078 373.5947,189.684 373.2337,190.226 C371.8767,192.262 367.2677,191.182 362.2637,189.793 C361.5687,189.601 361.0057,189.444 360.6577,189.37 C358.8447,188.983 357.0917,188.681 355.3587,188.381 C352.1127,187.822 349.0457,187.292 345.7457,186.276 L344.7847,185.967 C342.7827,185.313 339.4287,184.221 338.6187,185.441 C338.5857,185.49 338.4997,185.618 338.5987,185.953 C339.0797,187.581 342.6177,190.262 344.6687,191.15 C345.8487,191.659 347.4307,192.11 348.9587,192.546 C350.3877,192.954 351.8657,193.376 353.0447,193.854 C357.0787,195.489 360.3787,196.995 364.3627,199.447 C364.7877,199.708 364.9187,200.264 364.6587,200.69 C364.3957,201.114 363.8347,201.245 363.4167,200.985 C359.5387,198.599 356.3147,197.128 352.3687,195.527 C351.2787,195.086 349.8467,194.677 348.4637,194.282 C346.8787,193.83 345.2417,193.363 343.9537,192.807 C341.8077,191.88 337.6057,188.968 336.8677,186.464 C336.5867,185.518 336.8477,184.841 337.1157,184.44 C338.6917,182.075 342.5377,183.333 345.3447,184.251 L346.2757,184.55 C349.4677,185.532 352.4777,186.052 355.6667,186.602 C357.4217,186.906 359.1977,187.212 361.0337,187.603 C361.4047,187.682 362.0057,187.848 362.7457,188.053 C369.5637,189.941 371.3927,189.731 371.7307,189.224 C371.8347,189.068 371.8247,188.981 371.8067,188.904 C371.5777,187.966 369.0757,186.593 367.2497,185.589 C366.6207,185.244 365.9957,184.9 365.4197,184.561 C363.3887,183.361 359.5237,181.804 356.1137,180.431 C354.2047,179.662 352.3877,178.929 350.9817,178.302 C349.1997,177.504 345.0207,175.354 344.6997,172.598 C344.6147,171.862 344.7787,170.779 346.0537,169.807 C347.3957,168.782 349.7007,169.19 351.2217,169.462 L351.5727,169.523 C353.2747,169.811 354.9637,170.27 356.5977,170.714 C357.5857,170.983 358.5717,171.25 359.5587,171.481 C363.7477,172.462 367.3197,173.365 371.1287,174.583 C374.3137,175.598 377.1107,178.072 379.5777,180.254 C380.1697,180.778 380.7517,181.292 381.3237,181.775 C381.5717,181.983 381.8507,182.208 382.1427,182.444 C384.2027,184.108 387.0237,186.387 386.9357,189.04 C386.8687,191.014 385.3187,192.496 383.9507,193.804 C383.2577,194.465 382.6037,195.089 382.2957,195.638 C381.9597,196.238 381.6207,197.51 381.2927,198.74 C380.8097,200.548 380.3107,202.419 379.5507,203.452 C377.8967,205.707 376.4427,207.102 375.0357,208.45 C373.0327,210.37 371.3037,212.027 369.4187,215.827 C367.3747,219.944 366.8647,226.567 366.6177,229.75 L366.5387,230.72 C366.4987,231.191 366.1047,231.545 365.6417,231.545" id="Fill-61" fill="#000000"></path>
            <path d="M374.1749,266.7759 C373.6759,266.7759 373.2719,266.3719 373.2719,265.8729 C373.2719,258.1089 373.7509,250.8359 374.2169,243.8019 C375.0249,231.5679 375.7859,220.0109 373.8729,207.8459 C373.7959,207.3529 374.1319,206.8909 374.6239,206.8129 C375.1009,206.7419 375.5799,207.0709 375.6569,207.5659 C377.6029,219.9289 376.8319,231.5839 376.0179,243.9219 C375.5559,250.9249 375.0769,258.1679 375.0769,265.8729 C375.0769,266.3719 374.6739,266.7759 374.1749,266.7759" id="Fill-63" fill="#000000"></path>
            <path d="M347.3654,238.1627 C347.3374,238.1627 347.3084,238.1617 347.2814,238.1597 C346.7834,238.1137 346.4194,237.6747 346.4654,237.1777 C346.8874,232.5877 346.8664,229.4137 346.8484,226.8617 C346.8264,223.2807 346.8084,220.6937 348.0344,216.9667 C348.4514,215.6947 348.8784,214.4717 349.2824,213.3177 C350.5554,209.6697 351.8724,205.8987 351.1254,205.0117 C350.8554,204.7487 349.3814,204.3667 348.1964,204.0587 C345.8264,203.4417 342.8764,202.6757 340.5314,201.1367 C338.6564,199.9067 336.6884,198.4117 337.0604,196.2357 C337.1434,195.7547 337.4084,195.3527 337.8264,195.0737 C339.3194,194.0757 342.7564,194.7817 348.2434,196.0147 L349.1884,196.2267 C355.7634,197.6977 359.7754,198.3137 361.0964,198.0467 C361.5774,197.9447 362.0604,198.2647 362.1574,198.7557 C362.2554,199.2457 361.9374,199.7207 361.4494,199.8177 C359.8084,200.1447 355.9054,199.5807 348.7944,197.9887 L347.8484,197.7767 C344.5354,197.0317 339.5314,195.9007 338.8174,196.5837 C338.6724,197.5307 339.7904,198.4907 341.5214,199.6267 C343.6184,201.0027 346.4084,201.7277 348.6514,202.3107 C350.8054,202.8707 351.9554,203.1937 352.5074,203.8487 C353.9164,205.5237 352.7514,208.8617 350.9854,213.9127 C350.5874,215.0567 350.1624,216.2697 349.7484,217.5307 C348.6154,220.9777 348.6324,223.3137 348.6544,226.8497 C348.6724,229.4397 348.6954,232.6647 348.2624,237.3427 C348.2194,237.8117 347.8254,238.1627 347.3654,238.1627" id="Fill-65" fill="#000000"></path>
            <path d="M375.5909,456.7935 C375.2259,456.7935 374.8819,456.5715 374.7459,456.2105 C370.9729,446.1945 366.9479,437.7555 363.0569,429.5935 C357.4709,417.8765 352.1939,406.8105 348.2079,392.3755 C346.1739,385.0035 344.9639,377.7435 343.7929,370.7205 C341.8499,359.0695 340.1729,349.0095 335.3469,343.6215 C335.0139,343.2495 335.0449,342.6785 335.4159,342.3475 C335.7859,342.0125 336.3579,342.0425 336.6909,342.4155 C341.8669,348.1935 343.5849,358.4955 345.5739,370.4245 C346.7369,377.3995 347.9409,384.6125 349.9499,391.8965 C353.8919,406.1765 359.1359,417.1745 364.6869,428.8155 C368.5959,437.0135 372.6349,445.4875 376.4359,455.5735 C376.6119,456.0395 376.3749,456.5595 375.9099,456.7355 C375.8039,456.7755 375.6959,456.7935 375.5909,456.7935" id="Fill-67" fill="#000000"></path>
            <g id="Group-71" transform="translate(309.000000, 297.015000)">
                <mask id="mask-2" fill="white">
                    <use xlink:href="#path-1"></use>
                </mask>
                <g id="Clip-70"></g>
                <path d="M111.4396,165.0002 C111.0146,165.0002 110.6336,164.6962 110.5546,164.2632 C108.7526,154.5822 107.1096,142.9052 105.2036,129.3852 C103.4656,117.0542 101.4976,103.0782 98.9086,86.9142 C97.9336,80.8162 97.0376,74.3862 96.1726,68.1682 C93.5706,49.4732 90.8796,30.1402 85.7916,19.1352 C83.2976,13.7412 77.1016,6.9822 68.8786,4.0362 C62.0446,1.5902 55.0456,2.0572 48.0706,5.4252 C30.1726,14.0722 13.1376,33.7282 1.9996,48.6942 C1.6996,49.0972 1.1336,49.1762 0.7356,48.8802 C0.3356,48.5822 0.2516,48.0162 0.5496,47.6152 C11.8106,32.4882 29.0566,12.6052 47.2846,3.7992 C54.6056,0.2622 62.2846,-0.2438 69.4876,2.3362 C78.7996,5.6722 84.9726,13.0622 87.4306,18.3762 C92.6306,29.6242 95.2206,48.2262 97.9606,67.9202 C98.8256,74.1282 99.7196,80.5492 100.6926,86.6282 C103.2836,102.8112 105.2526,116.7952 106.9916,129.1332 C108.8936,142.6332 110.5356,154.2912 112.3286,163.9322 C112.4196,164.4222 112.0976,164.8942 111.6076,164.9842 C111.5506,164.9942 111.4946,165.0002 111.4396,165.0002" id="Fill-69" fill="#000000" mask="url(#mask-2)"></path>
            </g>
            <path d="M439.1808,459.2515 C438.6978,459.2515 438.2968,458.8695 438.2778,458.3845 C436.7998,419.8365 432.4988,384.2605 427.8198,371.8695 C423.2778,359.8395 416.6488,358.3575 409.6308,356.7885 C407.8648,356.3955 406.0368,355.9855 404.2338,355.4055 C403.7588,355.2545 403.4978,354.7465 403.6518,354.2715 C403.8038,353.7965 404.3148,353.5355 404.7868,353.6885 C406.5118,354.2425 408.2978,354.6415 410.0248,355.0265 C417.2018,356.6315 424.6218,358.2885 429.5088,371.2315 C434.2498,383.7845 438.5988,419.5955 440.0828,458.3145 C440.1008,458.8135 439.7128,459.2325 439.2158,459.2515 L439.1808,459.2515 Z" id="Fill-72" fill="#000000"></path>
            <path d="M343.3331,365.5464 C343.1901,365.5464 343.0471,365.5134 342.9131,365.4444 L341.9771,364.9524 C327.8481,357.5454 306.4941,346.3484 279.9741,345.2174 C279.4751,345.1944 279.0891,344.7754 279.1101,344.2754 C279.1311,343.7764 279.5761,343.4374 280.0511,343.4124 C306.9741,344.5624 328.5421,355.8694 342.8161,363.3534 L343.7521,363.8434 C344.1931,364.0754 344.3641,364.6204 344.1341,365.0644 C343.9711,365.3704 343.6571,365.5464 343.3331,365.5464" id="Fill-74" fill="#000000"></path>
            <path d="M357.1749,416.4039 C357.1249,416.4039 357.0769,416.3999 357.0289,416.3909 C340.2209,413.6749 292.5109,412.9319 266.9939,412.9869 L266.9799,412.9869 C256.6189,412.9869 232.1609,409.4899 224.5309,404.5019 C224.1129,404.2279 223.9959,403.6679 224.2699,403.2519 C224.5429,402.8359 225.1049,402.7179 225.5199,402.9889 C232.3179,407.4359 255.8089,411.1809 266.9769,411.1809 C267.1969,411.1599 267.4779,411.1809 267.7319,411.1809 C293.4879,411.1809 340.5579,411.8999 357.3179,414.6109 C357.8099,414.6899 358.1449,415.1539 358.0639,415.6459 C357.9929,416.0889 357.6089,416.4039 357.1749,416.4039" id="Fill-76" fill="#000000"></path>
            <path d="M349.5822,144.7745 C349.3672,144.7745 349.1512,144.6985 348.9782,144.5445 C342.7972,139.0085 335.8352,137.0015 329.6922,135.2295 C327.7772,134.6785 325.9702,134.1575 324.2492,133.5535 C321.5292,132.6005 319.1562,130.9655 317.4252,129.7725 L316.5712,129.1905 C315.2912,128.3375 311.1832,126.9955 309.4732,128.0665 C309.0562,128.3325 308.4952,128.2045 308.2292,127.7805 C307.9652,127.3575 308.0942,126.8005 308.5172,126.5365 C311.1412,124.8975 316.1202,126.7195 317.5732,127.6885 L318.4472,128.2845 C320.0962,129.4215 322.3542,130.9765 324.8452,131.8505 C326.5182,132.4365 328.3032,132.9505 330.1912,133.4955 C336.5212,135.3195 343.6942,137.3875 350.1852,143.1985 C350.5562,143.5315 350.5872,144.1025 350.2542,144.4735 C350.0752,144.6725 349.8292,144.7745 349.5822,144.7745" id="Fill-78" fill="#000000"></path>
            <path d="M337.4435,197.6143 C337.4015,197.6143 337.3585,197.6113 337.3165,197.6053 L335.6525,197.3723 C335.3505,197.3293 332.7175,196.9073 331.7985,195.2693 C330.8815,193.6213 331.9295,191.1933 332.0505,190.9213 L354.2475,131.0923 C354.2755,131.0043 355.1945,128.3303 357.0795,127.1473 C358.9825,125.9483 361.6665,126.3873 361.7805,126.4093 L387.6495,129.2943 C387.9095,129.3053 390.7245,129.4893 391.6155,131.3693 C392.4475,133.1323 391.2525,136.0063 391.1135,136.3283 L380.6845,164.9923 C380.5095,165.4623 379.9995,165.6993 379.5245,165.5283 C379.0575,165.3563 378.8175,164.8383 378.9885,164.3693 L379.7675,162.2333 L389.4355,135.6613 C389.8835,134.6153 390.3325,132.8783 389.9825,132.1413 C389.6455,131.4283 388.1685,131.1273 387.5055,131.0933 L361.5285,128.1973 C361.4585,128.1853 359.3525,127.8483 358.0405,128.6763 C356.9225,129.3773 356.1525,131.0933 355.9495,131.6943 L333.7205,191.6063 C333.4295,192.2603 333.0005,193.7143 333.3765,194.3883 C333.7555,195.0663 335.2445,195.4873 335.9075,195.5853 L337.5665,195.8173 C338.0605,195.8863 338.4045,196.3433 338.3365,196.8363 C338.2725,197.2873 337.8855,197.6143 337.4435,197.6143" id="Fill-80" fill="#000000"></path>
            <path d="M375.1007,178.6021 C374.9977,178.6021 374.8937,178.5841 374.7917,178.5471 C374.3227,178.3771 374.0807,177.8591 374.2517,177.3911 L375.9657,172.6761 C376.1357,172.2061 376.6507,171.9631 377.1197,172.1301 C377.5897,172.2971 377.8327,172.8141 377.6657,173.2841 L375.9487,178.0081 C375.8147,178.3741 375.4687,178.6021 375.1007,178.6021" id="Fill-82" fill="#000000"></path>
            <path d="M274.379,187.5406 C274.338,187.5406 274.295,187.5376 274.253,187.5316 C273.76,187.4626 273.415,187.0056 273.484,186.5126 L274.491,179.2496 C274.559,178.7566 275.016,178.3856 275.511,178.4506 C276.004,178.5176 276.355,178.9446 276.288,179.4376 L275.273,186.7626 C275.209,187.2146 274.822,187.5406 274.379,187.5406" id="Fill-84" fill="#000000"></path>
            <path d="M273.0128,197.3902 C272.9708,197.3902 272.9298,197.3872 272.8868,197.3812 C272.3928,197.3122 272.0488,196.8572 272.1178,196.3622 L272.1978,195.7932 L273.9958,195.9622 L273.9058,196.6122 C273.8428,197.0642 273.4558,197.3902 273.0128,197.3902" id="Fill-86" fill="#000000"></path>
            <path d="M370.5988,191.0142 C370.4948,191.0142 370.3888,190.9962 370.2868,190.9582 C369.8198,190.7852 369.5788,190.2672 369.7518,189.7992 L370.7398,187.1192 C370.9118,186.6522 371.4368,186.4142 371.8988,186.5852 C372.3658,186.7572 372.6058,187.2762 372.4328,187.7442 L371.4458,190.4232 C371.3108,190.7882 370.9648,191.0142 370.5988,191.0142" id="Fill-88" fill="#000000"></path>
            <path d="M334.6661,196.9976 C334.3751,196.9976 334.0881,196.8566 333.9151,196.5946 C333.3221,195.7046 333.4231,194.3726 334.2661,191.9966 L356.4371,132.3126 C356.5081,132.1066 357.2321,130.0676 358.5231,129.2666 C359.6661,128.5586 361.5501,128.7726 361.9161,128.8206 L390.6021,132.2616 C391.0971,132.3216 391.4491,132.7706 391.3901,133.2666 C391.3311,133.7636 390.8771,134.1226 390.3871,134.0556 L361.6871,130.6126 C361.0491,130.5246 359.9151,130.5286 359.4761,130.8006 C358.8871,131.1656 358.3211,132.3856 358.1401,132.9186 L335.9641,192.6126 C335.1471,194.9136 335.3401,195.4766 335.4171,195.5956 C335.6941,196.0096 335.5811,196.5706 335.1671,196.8466 C335.0121,196.9496 334.8391,196.9976 334.6661,196.9976" id="Fill-90" fill="#000000"></path>
            <path d="M318.0314,178.8863 C317.5524,178.8863 317.1534,178.5113 317.1304,178.0283 C315.8344,151.8933 312.0454,134.2043 310.4774,127.8123 C310.3574,127.3283 310.6534,126.8393 311.1384,126.7203 C311.6294,126.5973 312.1134,126.9003 312.2294,127.3823 C313.8114,133.8253 317.6294,151.6483 318.9324,177.9383 C318.9574,178.4363 318.5744,178.8603 318.0754,178.8853 C318.0614,178.8863 318.0454,178.8863 318.0314,178.8863" id="Fill-92" fill="#000000"></path>
            <path d="M334.7452,317.5621 C334.5942,317.5621 334.4402,317.5251 334.3002,317.4441 C321.2652,310.0491 318.3132,292.0831 317.7142,282.0301 C317.2252,273.8701 317.2252,265.3351 317.2272,248.3321 L317.2272,245.3571 C317.2272,239.2721 317.3382,233.0201 317.4552,226.4001 C317.5762,219.5111 317.7012,212.3871 317.7122,204.8681 C317.7122,204.3701 318.1182,203.9661 318.6152,203.9661 L318.6162,203.9661 C319.1162,203.9661 319.5172,204.3721 319.5172,204.8701 C319.5072,212.4051 319.3822,219.5351 319.2612,226.4321 C319.1422,233.0441 319.0332,239.2881 319.0332,245.3571 L319.0332,248.3321 C319.0312,265.3001 319.0312,273.8161 319.5162,281.9221 C320.0942,291.6081 322.8992,308.8991 335.1912,315.8751 C335.6252,316.1201 335.7772,316.6711 335.5302,317.1061 C335.3642,317.3981 335.0592,317.5621 334.7452,317.5621" id="Fill-94" fill="#000000"></path>
            <path d="M283.7228,341.278908 C278.7638,341.2809 274.0498,340.9259 269.7138,340.6009 C264.6888,340.2239 260.3478,339.9029 256.6928,340.1909 C256.1888,340.2289 255.7598,339.8609 255.7198,339.3639 C255.6808,338.8669 256.0518,338.4309 256.5478,338.3919 C260.3438,338.0889 264.7478,338.4189 269.8498,338.8009 C287.7118,340.1359 312.1758,341.9729 333.0198,316.5519 C333.3348,316.1679 333.9028,316.1129 334.2908,316.4259 C334.6748,316.7429 334.7318,317.3119 334.4158,317.6979 C318.0668,337.6339 299.6438,341.278908 283.7228,341.278908" id="Fill-96" fill="#000000"></path>
            <path d="M282.8468,148.4146 C282.1508,148.4146 281.4448,148.3966 280.7268,148.3606 C266.4028,147.6386 252.3098,139.8516 249.9538,131.3566 C249.8218,130.8756 250.1028,130.3776 250.5828,130.2446 C251.0658,130.1156 251.5608,130.3936 251.6948,130.8736 C253.8238,138.5546 267.4328,145.8836 280.8178,146.5576 C293.1808,147.1766 302.3788,142.1116 306.0608,132.6526 C306.2428,132.1866 306.7678,131.9546 307.2298,132.1386 C307.6938,132.3196 307.9238,132.8426 307.7428,133.3066 C303.9778,142.9816 294.9658,148.4146 282.8468,148.4146" id="Fill-98" fill="#000000"></path>
            <path d="M445.5304,349.7144 L445.5224,349.7144 C445.0254,349.7104 444.6234,349.3034 444.6274,348.8044 C444.9684,300.2004 433.7104,222.2864 424.2084,207.5024 C415.5454,194.0274 398.6564,192.4424 390.5404,191.6804 C390.0444,191.6334 389.6794,191.1934 389.7254,190.6964 C389.7704,190.2014 390.2184,189.8394 390.7094,189.8814 C399.1094,190.6714 416.5894,192.3124 425.7284,206.5264 C435.5614,221.8244 446.7854,298.9544 446.4324,348.8184 C446.4284,349.3144 446.0254,349.7144 445.5304,349.7144" id="Fill-100" fill="#C7CBD2"></path>
            <g id="Group-104" transform="translate(0.000000, 194.015000)">
                <mask id="mask-4" fill="white">
                    <use xlink:href="#path-3"></use>
                </mask>
                <g id="Clip-103"></g>
                <path d="M0.9015,8.7029 C0.4535,8.7029 0.0645,8.3689 0.0065,7.9119 C-0.0545,7.4179 0.2965,6.9659 0.7915,6.9049 C41.8635,1.7699 139.8635,-1.4921 165.0105,0.7239 C165.5065,0.7679 165.8755,1.2059 165.8305,1.7029 C165.7865,2.1999 165.3645,2.5829 164.8515,2.5229 C139.7695,0.3099 42.0075,3.5709 1.0145,8.6959 C0.9765,8.7009 0.9385,8.7029 0.9015,8.7029" id="Fill-102" fill="#C7CBD2" mask="url(#mask-4)"></path>
            </g>
            <path d="M441.2589,423.2398 C440.8309,423.2398 440.4499,422.9328 440.3719,422.4958 C440.2839,422.0048 440.6129,421.5348 441.1029,421.4488 C480.5749,414.4258 521.7079,410.9008 533.6459,410.9008 C534.1449,410.9008 534.5479,411.3038 534.5479,411.8028 C534.5479,412.3018 534.1449,412.7068 533.6459,412.7068 C522.0939,412.7068 480.2379,416.3188 441.4199,423.2258 C441.3649,423.2348 441.3129,423.2398 441.2589,423.2398" id="Fill-105" fill="#C7CBD2"></path>
            <path d="M141.8165,451.6783 C141.3645,451.6783 140.9745,451.3403 140.9205,450.8793 C140.8625,450.3863 141.2165,449.9363 141.7125,449.8783 C187.1045,444.5733 298.7425,432.1713 354.8775,431.6283 L354.8855,431.6283 C355.3815,431.6283 355.7835,432.0273 355.789546,432.5223 C355.7945,433.0213 355.3935,433.4283 354.8945,433.4343 C298.8465,433.9753 187.2855,446.3683 141.9215,451.6733 C141.8865,451.6763 141.8505,451.6783 141.8165,451.6783" id="Fill-107" fill="#C7CBD2"></path>
            <path d="M539.505,455.4957 L539.482,455.4957 C538.983,455.4817 538.59,455.0677 538.602,454.5697 C539.335,426.4337 538.319,409.1597 535.583,403.2297 C531.225,393.7827 511.192,381.5567 493.517,370.7677 C474.998,359.4637 451.442,350.1217 446.367,350.2667 C441.39,350.3967 434.692,351.1417 425.896,352.5477 C425.393,352.6147 424.94,352.2907 424.86,351.7987 C424.783,351.3067 425.118,350.8427 425.609,350.7637 C434.488,349.3457 441.261,348.5927 446.321,348.4607 C446.36,348.4607 446.401,348.4587 446.443,348.4587 C452.019,348.4587 475.501,357.6557 494.458,369.2267 C513.227,380.6827 532.633,392.5267 537.223,402.4727 C540.116,408.7437 541.158,425.8007 540.407,454.6157 C540.396,455.1057 539.993,455.4957 539.505,455.4957" id="Fill-109" fill="#C7CBD2"></path>
            <path d="M426.7404,360.9009 C426.4254,360.9009 426.1164,360.7329 425.9504,360.4369 C425.7094,359.9999 425.8654,359.4509 426.3014,359.2079 C426.9504,358.8479 427.1064,358.4959 427.1694,358.2609 C427.4884,357.0559 426.1584,354.8629 424.6174,352.3239 C422.7524,349.2489 420.4304,345.4209 419.4164,340.8789 C418.5264,336.8949 417.7534,332.3639 416.9324,327.5659 C415.2694,317.8309 413.3834,306.7939 409.9994,297.7479 C405.8274,286.5989 402.4794,280.7869 399.2404,275.1669 C396.6974,270.7539 394.2964,266.5859 391.7494,260.2179 C391.3264,259.1619 390.9244,258.2099 390.5524,257.3299 C388.5334,252.5449 387.3124,249.6559 388.4634,243.5299 C388.6564,242.4949 388.9444,241.3899 389.2344,240.2769 C390.0434,237.1879 390.8784,233.9949 389.5074,232.6979 C388.8364,232.0639 386.1194,231.8259 380.6814,233.2469 C380.1964,233.3819 379.7064,233.0849 379.5814,232.6019 C379.4544,232.1199 379.7434,231.6269 380.2264,231.5009 C385.7584,230.0549 389.3004,230.0169 390.7464,231.3859 C392.8954,233.4159 391.9224,237.1369 390.9824,240.7339 C390.7024,241.8039 390.4234,242.8669 390.2364,243.8619 C389.1894,249.4549 390.2644,252.0029 392.2174,256.6279 C392.5924,257.5189 392.9984,258.4799 393.4254,259.5479 C395.9254,265.7959 398.2954,269.9109 400.8054,274.2659 C404.0804,279.9489 407.4664,285.8269 411.6924,297.1169 C415.1364,306.3209 417.0354,317.4459 418.7124,327.2619 C419.5284,332.0359 420.2994,336.5459 421.1784,340.4829 C422.1294,344.7379 424.3654,348.4249 426.1624,351.3869 C427.9884,354.3989 429.4304,356.7759 428.9144,358.7249 C428.6864,359.5799 428.1034,360.2729 427.1794,360.7879 C427.0404,360.8639 426.8894,360.9009 426.7404,360.9009" id="Fill-111" fill="#C7CBD2"></path>
            <path d="M320.5343,53.379 C320.8053,55.171 325.1343,52.712 326.2663,51.308 C328.5403,48.49 328.6423,44.457 327.8083,41.146 C325.0213,30.075 315.5013,21.895 306.9373,14.68 C301.0113,9.688 293.4693,2.491 285.6973,0.894 C278.0723,-0.674 268.4303,1.135 260.2943,4.15 C252.2583,7.129 243.4503,9.687 240.1763,17.644 C236.4783,26.628 237.7093,35.063 237.8253,44.475 C237.8533,46.821 239.8513,55.904 239.8513,55.904 C239.8513,55.904 243.0033,55.052 244.1473,55.418 C246.6763,56.227 247.7343,56.748 249.8133,58.337 C253.3693,61.053 256.3023,64.858 261.7383,63.362 C264.8123,62.516 268.0583,59.237 270.3303,57.12 C274.8583,52.902 279.0443,48.303 284.3263,43.837 C287.1983,41.407 290.2813,39.419 293.6773,38.395 C297.3123,37.299 303.8413,36.658 309.3063,37.869 C313.7043,38.844 316.9333,41.802 318.8033,44.637 C320.5143,47.234 320.0913,50.451 320.5343,53.379" id="Fill-113" fill="#4D4D4D"></path>
            <path d="M319.0831,63.0235 C319.6191,63.0235 320.0861,62.6305 320.1641,62.0845 C321.1351,55.3095 321.0441,45.8675 317.5941,41.5525 C317.2141,41.0805 316.5251,41.0065 316.0561,41.3815 C315.5841,41.7585 315.5071,42.4465 315.8851,42.9195 C318.7051,46.4475 318.9791,54.9305 317.9991,61.7735 C317.9131,62.3725 318.3281,62.9265 318.9271,63.0125 C318.9791,63.0205 319.0321,63.0235 319.0831,63.0235" id="Fill-115" fill="#000000"></path>
            <path d="M305.2833,91.6773 C305.3643,91.6773 305.4463,91.6683 305.5293,91.6493 C308.0653,91.0643 309.4153,89.1993 309.4353,87.6573 C309.4533,86.4123 308.8793,85.4693 308.3243,84.5563 C307.8733,83.8123 307.4053,83.0443 307.2163,82.0403 C306.9703,80.7323 307.2093,79.2873 307.3673,78.3313 L307.4383,77.8893 C307.5293,77.2913 307.1183,76.7343 306.5203,76.6443 C305.9263,76.5543 305.3653,76.9653 305.2753,77.5623 L305.2093,77.9723 C305.0243,79.0803 304.7473,80.7563 305.0643,82.4463 C305.3283,83.8413 305.9523,84.8683 306.4543,85.6933 C306.9023,86.4293 307.2563,87.0123 307.2473,87.6283 C307.2393,88.2023 306.5503,89.1683 305.0393,89.5173 C304.4493,89.6523 304.0823,90.2403 304.2193,90.8283 C304.3343,91.3353 304.7853,91.6773 305.2833,91.6773" id="Fill-117" fill="#000000"></path>
            <path d="M317.8839,68.2554 C318.3419,68.2554 318.7689,67.9654 318.9209,67.5074 C319.1129,66.9344 318.8029,66.3154 318.2299,66.1234 C315.7889,65.3074 314.4129,65.5354 312.9879,65.8914 C312.4029,66.0384 312.0449,66.6304 312.1919,67.2184 C312.3379,67.8054 312.9329,68.1644 313.5179,68.0144 C314.7119,67.7164 315.6399,67.5664 317.5369,68.1984 C317.6529,68.2364 317.7679,68.2554 317.8839,68.2554" id="Fill-119" fill="#000000"></path>
            <path d="M293.5587,66.8033 C293.9557,66.8033 294.3387,66.5873 294.5337,66.2093 C294.8097,65.6723 294.5987,65.0123 294.0597,64.7363 C291.3927,63.3623 286.6987,62.9073 283.4647,64.5243 C282.9237,64.7943 282.7047,65.4513 282.9747,65.9913 C283.2457,66.5323 283.9017,66.7533 284.4427,66.4813 C287.0227,65.1933 290.9227,65.5843 293.0597,66.6823 C293.2187,66.7653 293.3897,66.8033 293.5587,66.8033" id="Fill-121" fill="#000000"></path>
            <path d="M314.2482,77.0157 C314.2482,76.0157 313.4792,75.2067 312.5312,75.2067 C311.5812,75.2067 310.8122,76.0157 310.8122,77.0157 C310.8122,78.0147 311.5812,78.8247 312.5312,78.8247 C313.4792,78.8247 314.2482,78.0147 314.2482,77.0157" id="Fill-123" fill="#000000"></path>
            <path d="M288.6349,76.8287 C288.6349,75.7137 287.7749,74.8097 286.7129,74.8097 C285.6529,74.8097 284.7919,75.7137 284.7919,76.8287 C284.7919,77.9437 285.6529,78.8467 286.7129,78.8467 C287.7749,78.8467 288.6349,77.9437 288.6349,76.8287" id="Fill-125" fill="#000000"></path>
            <path d="M297.0558,104.9635 C299.0808,104.9635 300.8858,104.5955 302.0188,103.7955 C302.5118,103.4475 302.6298,102.7635 302.2808,102.2705 C301.9348,101.7775 301.2538,101.6575 300.7558,102.0085 C298.4918,103.6075 290.9088,102.6995 287.8348,99.9215 C287.3908,99.5175 286.6958,99.5495 286.2898,99.9985 C285.8848,100.4455 285.9188,101.1375 286.3678,101.5425 C288.7288,103.6815 293.2748,104.9635 297.0558,104.9635" id="Fill-127" fill="#000000"></path>
            <path d="M320.2628,55.8585 C320.3408,55.8585 320.4228,55.8495 320.5018,55.8325 C324.0878,55.0345 326.6288,52.6525 327.6568,49.1225 C329.0298,44.4045 327.4608,37.8805 324.1588,34.5775 C323.7308,34.1505 323.0378,34.1505 322.6108,34.5775 C322.1838,35.0055 322.1838,35.6975 322.6108,36.1255 C325.0598,38.5755 326.8278,44.1365 325.5548,48.5105 C324.7388,51.3175 322.8768,53.0615 320.0268,53.6955 C319.4368,53.8265 319.0648,54.4125 319.1958,55.0025 C319.3098,55.5125 319.7618,55.8585 320.2628,55.8585" id="Fill-129" fill="#000000"></path>
            <path d="M326.2911,32.7755 C327.3501,32.7755 328.4171,32.4745 329.4731,31.7715 C329.9761,31.4365 330.1111,30.7565 329.7761,30.2535 C329.4411,29.7525 328.7651,29.6155 328.2591,29.9505 C324.9191,32.1715 320.9301,28.0445 317.1241,23.6275 C316.5711,22.9845 316.0751,22.4105 315.6531,21.9645 C301.6961,7.1855 288.7871,0.0005 276.1871,0.0005 C275.1301,0.0005 265.7751,0.1285 263.0711,4.5595 C262.7561,5.0745 262.9201,5.7495 263.4361,6.0645 C263.9531,6.3785 264.6251,6.2135 264.9401,5.6995 C266.4121,3.2865 271.8021,2.1885 276.1871,2.1885 C288.1511,2.1885 300.5411,9.1485 314.0631,23.4655 C314.4661,23.8935 314.9381,24.4425 315.4661,25.0545 C318.0871,28.0985 322.1161,32.7755 326.2911,32.7755" id="Fill-131" fill="#000000"></path>
            <path d="M274.2081,22.8946 C274.3721,22.8946 274.5391,22.8576 274.6971,22.7796 C275.2371,22.5086 275.4561,21.8516 275.1861,21.3106 C272.4191,15.7776 268.4751,11.3586 264.3661,9.1856 C263.8331,8.9046 263.1711,9.1066 262.8871,9.6416 C262.6041,10.1756 262.8091,10.8376 263.3431,11.1206 C267.0581,13.0836 270.6601,17.1556 273.2291,22.2906 C273.4211,22.6736 273.8071,22.8946 274.2081,22.8946" id="Fill-133" fill="#000000"></path>
            <path d="M310.5968,40.5162 C310.6518,40.5162 310.7068,40.5122 310.7628,40.5032 C312.7718,40.1992 314.5168,38.4952 315.3168,36.0592 C316.2078,33.3412 315.6748,30.5672 313.9268,28.8192 C313.4978,28.3902 312.8058,28.3932 312.3798,28.8192 C311.9518,29.2462 311.9518,29.9392 312.3798,30.3662 C313.7688,31.7542 313.7338,33.8642 313.2358,35.3772 C312.7038,36.9982 311.6048,38.1622 310.4348,38.3412 C309.8358,38.4312 309.4258,38.9892 309.5178,39.5862 C309.5998,40.1292 310.0658,40.5162 310.5968,40.5162" id="Fill-135" fill="#000000"></path>
            <path d="M302.1622,39.8209 C302.3262,39.8209 302.4932,39.7839 302.6492,39.7059 C303.1912,39.4349 303.4102,38.7779 303.1402,38.2379 C300.8292,33.6129 293.0322,30.4989 286.8132,33.5649 C286.2712,33.8329 286.0502,34.4879 286.3162,35.0309 C286.5842,35.5719 287.2352,35.7959 287.7822,35.5289 C292.7702,33.0619 299.3242,35.4979 301.1832,39.2159 C301.3752,39.5999 301.7612,39.8209 302.1622,39.8209" id="Fill-137" fill="#000000"></path>
            <path d="M266.838,56.3824 C268.862,56.3824 270.967,55.7984 273.117,54.6264 C275.908,53.1034 278.588,50.6744 281.18,48.3284 C285.964,43.9944 290.92,39.5174 296.669,40.5364 C297.261,40.6414 297.833,40.2474 297.938,39.6514 C298.043,39.0554 297.648,38.4874 297.054,38.3824 C290.234,37.1744 284.884,42.0164 279.709,46.7054 C277.1,49.0724 274.633,51.3064 272.068,52.7054 C267.418,55.2384 263.368,54.5774 259.688,50.6704 C259.273,50.2324 258.58,50.2104 258.14,50.6254 C257.701,51.0394 257.68,51.7324 258.094,52.1724 C260.733,54.9724 263.69,56.3824 266.838,56.3824" id="Fill-139" fill="#000000"></path>
            <path d="M264.8292,61.2257 C265.7832,61.2257 266.8162,61.0817 267.9422,60.7557 C268.5222,60.5857 268.8562,59.9787 268.6882,59.3987 C268.5192,58.8177 267.9062,58.4917 267.3322,58.6527 C263.0912,59.8877 260.6322,57.8847 258.6582,55.9117 C258.2302,55.4837 257.5382,55.4837 257.1112,55.9117 C256.6832,56.3387 256.6832,57.0307 257.1112,57.4587 C259.0392,59.3867 261.4252,61.2257 264.8292,61.2257" id="Fill-141" fill="#000000"></path>
            <path d="M260.7482,65.9073 C261.3522,65.9073 261.8432,65.4173 261.8432,64.8133 C261.8432,64.2093 261.3522,63.7193 260.7482,63.7193 C259.5342,63.7193 258.4062,63.0723 257.7272,61.9883 C257.4102,61.4743 256.7342,61.3213 256.2212,61.6403 C255.7082,61.9603 255.5522,62.6353 255.8732,63.1473 C256.9532,64.8763 258.7752,65.9073 260.7482,65.9073" id="Fill-143" fill="#000000"></path>
            <path d="M249.9132,82.3936 C250.5172,82.3936 251.0072,81.9036 251.0072,81.2996 C251.0072,80.6946 250.5172,80.2056 249.9132,80.2056 C247.7772,80.2056 245.3972,78.9526 243.2122,76.6776 C240.0922,73.4306 237.9252,68.6556 238.0582,65.3266 C238.1852,62.1246 239.1262,59.8836 240.7742,58.8466 C242.1332,57.9946 244.0222,57.9516 245.8252,58.7316 C248.6252,59.9416 251.5622,63.4266 252.0602,64.2086 C252.3872,64.7186 253.0602,64.8686 253.5722,64.5436 C254.0802,64.2186 254.2312,63.5416 253.9062,63.0326 C253.2872,62.0606 250.0432,58.1706 246.6942,56.7236 C244.2242,55.6556 241.5782,55.7576 239.6102,56.9936 C238.0152,57.9976 236.0712,60.2426 235.8722,65.2376 C235.7142,69.1696 238.0832,74.4976 241.6352,78.1946 C244.2362,80.9016 247.1762,82.3936 249.9132,82.3936" id="Fill-145" fill="#000000"></path>
            <path d="M248.7521,70.2755 C248.9531,70.2755 249.1581,70.2205 249.3401,70.1035 C249.8491,69.7765 249.9981,69.1005 249.6721,68.5915 C248.1791,66.2595 246.9591,65.5685 245.0921,64.6335 C244.5461,64.3625 243.8941,64.5825 243.6231,65.1225 C243.3521,65.6635 243.5711,66.3205 244.1111,66.5915 C245.7821,67.4275 246.6381,67.9105 247.8281,69.7715 C248.0381,70.0975 248.3921,70.2755 248.7521,70.2755" id="Fill-147" fill="#000000"></path>
            <path d="M237.6583,38.5929 C237.6943,38.5929 237.7283,38.5919 237.7633,38.5869 C238.3663,38.5309 238.8063,37.9959 238.7483,37.3949 C237.7143,26.6079 240.3773,17.8379 246.2473,12.7019 C248.0413,11.1309 252.8743,8.3789 256.4273,8.8509 C257.0463,8.9189 257.5753,8.5059 257.6543,7.9059 C257.7303,7.3059 257.3073,6.7579 256.7093,6.6789 C252.5743,6.1509 247.1783,8.9779 244.8053,11.0549 C238.3903,16.6689 235.4663,26.0959 236.5713,37.6029 C236.6263,38.1699 237.1013,38.5929 237.6583,38.5929" id="Fill-149" fill="#000000"></path>
            <path d="M240.4025,58.5113 C240.6835,58.5113 240.9635,58.4043 241.1755,58.1903 C241.6035,57.7633 241.6035,57.0713 241.1755,56.6433 C239.0955,54.5633 238.3905,47.0143 238.8195,42.7303 C238.8805,42.1293 238.4405,41.5933 237.8395,41.5333 C237.2395,41.4593 236.7015,41.9113 236.6425,42.5133 C236.2395,46.5363 236.7025,55.2643 239.6295,58.1903 C239.8425,58.4043 240.1225,58.5113 240.4025,58.5113" id="Fill-151" fill="#000000"></path>
            <path d="M115.4806,274.6558 C115.4806,274.6558 148.7386,271.3068 166.7446,281.5088 C184.7506,291.7098 200.8796,298.7738 206.9286,335.1688 C212.9766,371.5618 224.1226,389.1818 224.1226,389.1818" id="Stroke-153" stroke="#C7CBD2" stroke-width="1.902"></path>
            <mask id="mask-6" fill="white">
                <use xlink:href="#path-5"></use>
            </mask>
            <g id="Clip-156"></g>
            <polygon id="Stroke-155" stroke="#C7CBD2" mask="url(#mask-6)" points="88.737 90.912 122.889 90.912 122.889 56.76 88.737 56.76"></polygon>
            <polygon id="Stroke-157" stroke="#C7CBD2" mask="url(#mask-6)" points="116.3595 71.2076 107.6585 71.2076 107.6585 62.5066 103.9665 62.5066 103.9665 71.2076 95.2665 71.2076 95.2665 74.8986 103.9665 74.8986 103.9665 83.5996 107.6585 83.5996 107.6585 74.8986 116.3595 74.8986"></polygon>
            <polygon id="Stroke-158" stroke="#C7CBD2" mask="url(#mask-6)" points="122.81 90.912 156.962 90.912 156.962 56.76 122.81 56.76"></polygon>
            <polygon id="Stroke-159" stroke="#C7CBD2" mask="url(#mask-6)" points="130.79 74.372 148.983 74.372 148.983 71.208 130.79 71.208"></polygon>
            <polygon id="Stroke-160" stroke="#C7CBD2" mask="url(#mask-6)" points="88.737 124.994 122.889 124.994 122.889 90.841 88.737 90.841"></polygon>
            <polygon id="Stroke-161" stroke="#C7CBD2" mask="url(#mask-6)" points="111.966 98.3726 105.813 104.5246 99.66 98.3726 97.05 100.9826 103.203 107.1356 97.05 113.2876 99.66 115.8976 105.813 109.7456 111.966 115.8976 114.575 113.2876 108.423 107.1356 114.575 100.9826"></polygon>
            <polygon id="Stroke-162" stroke="#C7CBD2" mask="url(#mask-6)" points="122.81 124.994 156.962 124.994 156.962 90.841 122.81 90.841"></polygon>
            <polygon id="Stroke-163" stroke="#C7CBD2" mask="url(#mask-6)" points="130.789 108.454 148.982 108.454 148.982 105.29 130.789 105.29"></polygon>
            <path d="M139.8859,102.3941 C141.1489,102.3941 142.1729,101.3701 142.1729,100.1071 C142.1729,98.8451 141.1489,97.8211 139.8859,97.8211 C138.6229,97.8211 137.5999,98.8451 137.5999,100.1071 C137.5999,101.3701 138.6229,102.3941 139.8859,102.3941 Z" id="Stroke-164" stroke="#C7CBD2" mask="url(#mask-6)"></path>
            <path d="M139.8859,111.7042 C138.6229,111.7042 137.5999,112.7282 137.5999,113.9912 C137.5999,115.2542 138.6229,116.2782 139.8859,116.2782 C141.1489,116.2782 142.1729,115.2542 142.1729,113.9912 C142.1729,112.7282 141.1489,111.7042 139.8859,111.7042 Z" id="Stroke-165" stroke="#C7CBD2" mask="url(#mask-6)"></path>
            <path d="M450.5343,22.5142 L389.0023,22.5142 C379.1263,22.5142 371.1193,30.1602 371.1193,39.5912 L371.1193,73.2952 C371.1193,81.4952 377.1733,88.3422 385.2443,89.9912 L381.4723,101.1572 L398.9613,90.3712 L450.5343,90.3712 C460.4113,90.3712 468.4183,82.7262 468.4183,73.2952 L468.4183,39.5912 C468.4183,30.1602 460.4113,22.5142 450.5343,22.5142 Z" id="Stroke-166" stroke="#C7CBD2" stroke-width="1.5" mask="url(#mask-6)"></path>
            <path d="M439.5704,43.7833 L396.0664,43.7833 C394.7144,43.7833 393.6174,44.8803 393.6174,46.2323 L393.6174,73.4353 C393.6174,74.7873 394.7144,75.8843 396.0664,75.8843 L439.5704,75.8843 C440.9234,75.8843 442.0194,74.7873 442.0194,73.4353 L442.0194,46.2323 C442.0194,44.8803 440.9234,43.7833 439.5704,43.7833" id="Fill-167" fill="#FFFFFF" mask="url(#mask-6)"></path>
            <path d="M439.5704,43.7833 L396.0664,43.7833 C394.7144,43.7833 393.6174,44.8803 393.6174,46.2323 L393.6174,73.4353 C393.6174,74.7873 394.7144,75.8843 396.0664,75.8843 L439.5704,75.8843 C440.9234,75.8843 442.0194,74.7873 442.0194,73.4353 L442.0194,46.2323 C442.0194,44.8803 440.9234,43.7833 439.5704,43.7833 Z" id="Stroke-168" stroke="#000000" stroke-width="1.443" mask="url(#mask-6)"></path>
            <path d="M441.1398,75.3009 L420.7788,56.9869 C419.0958,55.4729 416.5408,55.4729 414.8578,56.9869 L394.4968,75.3009 C394.9228,75.6599 395.4658,75.8839 396.0668,75.8839 L439.5708,75.8839 C440.1708,75.8839 440.7138,75.6599 441.1398,75.3009" id="Fill-169" fill="#FFFFFF" mask="url(#mask-6)"></path>
            <path d="M441.1398,75.3009 L420.7788,56.9869 C419.0958,55.4729 416.5408,55.4729 414.8578,56.9869 L394.4968,75.3009 C394.9228,75.6599 395.4658,75.8839 396.0668,75.8839 L439.5708,75.8839 C440.1708,75.8839 440.7138,75.6599 441.1398,75.3009 Z" id="Stroke-170" stroke="#000000" stroke-width="1.443" mask="url(#mask-6)"></path>
            <path d="M394.4972,44.3673 L414.8572,62.6803 C416.5412,64.1953 419.0962,64.1953 420.7782,62.6803 L441.1402,44.3673 C440.7142,44.0083 440.1712,43.7833 439.5702,43.7833 L396.0662,43.7833 C395.4662,43.7833 394.9232,44.0083 394.4972,44.3673" id="Fill-171" fill="#FFFFFF" mask="url(#mask-6)"></path>
            <path d="M394.4972,44.3673 L414.8572,62.6803 C416.5412,64.1953 419.0962,64.1953 420.7782,62.6803 L441.1402,44.3673 C440.7142,44.0083 440.1712,43.7833 439.5702,43.7833 L396.0662,43.7833 C395.4662,43.7833 394.9232,44.0083 394.4972,44.3673 Z" id="Stroke-172" stroke="#000000" stroke-width="1.443" mask="url(#mask-6)"></path>
            <path d="M455.4757,43.7017 C455.4757,50.3517 450.0847,55.7437 443.4347,55.7437 C436.7847,55.7437 431.3937,50.3517 431.3937,43.7017 C431.3937,37.0517 436.7847,31.6607 443.4347,31.6607 C450.0847,31.6607 455.4757,37.0517 455.4757,43.7017" id="Fill-173" fill="#FE7200" mask="url(#mask-6)"></path>
            <path d="M443.3165,40.4722 L442.4075,40.7082 C442.2725,40.7422 442.0875,40.7762 441.9535,40.7762 C441.3465,40.7762 440.8255,40.2712 440.8255,39.6652 C440.8255,39.1432 441.1625,38.7052 441.6835,38.5542 L443.3495,38.0662 C443.8375,37.9312 444.2085,37.8472 444.5615,37.8472 L444.5955,37.8472 C445.3015,37.8472 445.8745,38.4192 445.8745,39.1262 L445.8745,48.6182 C445.8745,49.3262 445.3015,49.8982 444.5955,49.8982 C443.8885,49.8982 443.3165,49.3262 443.3165,48.6182 L443.3165,40.4722 Z" id="Fill-174" fill="#FFFFFF" mask="url(#mask-6)"></path>
        </g>
        <path d="M199.608,736.616 L199.608,715.256 L206.28,715.256 L206.28,710.552 L199.608,710.552 L199.608,694.328 L194.232,694.328 L194.232,736.616 L199.608,736.616 Z M188.28,726.008 L190.968,721.88 C188.856,720.92 187.12,719.824 185.76,718.592 C184.4,717.36 183.32,716.064 182.52,714.704 C181.72,713.344 181.168,711.968 180.864,710.576 C180.56,709.184 180.408,707.832 180.408,706.52 L180.408,706.52 L180.408,700.52 L189.864,700.52 L189.864,695.816 L165.48,695.816 L165.48,700.52 L174.936,700.52 L174.936,706.472 C174.936,708.552 174.744,710.472 174.36,712.232 C173.976,713.992 173.368,715.52 172.536,716.816 C171.704,718.112 170.608,719.128 169.248,719.864 C167.888,720.6 166.232,720.968 164.28,720.968 L164.28,720.968 L164.28,725.864 C165.976,725.832 167.592,725.568 169.128,725.072 C170.664,724.576 172.048,723.896 173.28,723.032 C174.512,722.168 175.552,721.168 176.4,720.032 C177.248,718.896 177.848,717.688 178.2,716.408 C178.968,718.36 180.224,720.184 181.968,721.88 C183.712,723.576 185.816,724.952 188.28,726.008 L188.28,726.008 Z M243.004,736.616 L243.004,694.328 L237.628,694.328 L237.628,736.616 L243.004,736.616 Z M210.076,727.112 C213.436,725.832 216.364,724.216 218.86,722.264 C221.356,720.312 223.444,718.144 225.124,715.76 C226.804,713.376 228.06,710.84 228.892,708.152 C229.724,705.464 230.14,702.728 230.14,699.944 L230.14,699.944 L230.14,695.816 L209.164,695.816 L209.164,700.52 L224.668,700.52 C224.668,705.896 223.172,710.448 220.18,714.176 C217.188,717.904 212.972,720.84 207.532,722.984 L207.532,722.984 L210.076,727.112 Z M281.984,715.496 L281.984,694.568 L276.608,694.568 L276.608,700.424 L258.272,700.424 L258.272,694.568 L252.896,694.568 L252.896,715.496 L281.984,715.496 Z M276.608,710.792 L258.272,710.792 L258.272,705.128 L276.608,705.128 L276.608,710.792 Z M270.128,737.576 L270.128,724.952 L287.408,724.952 L287.408,720.248 L247.472,720.248 L247.472,724.952 L264.752,724.952 L264.752,737.576 L270.128,737.576 Z M324.324,718.904 L324.324,708.728 L331.14,708.728 L331.14,704.024 L324.324,704.024 L324.324,694.328 L318.948,694.328 L318.948,718.904 L324.324,718.904 Z M300.084,716.936 C302.676,716.936 305.244,716.8 307.788,716.528 C310.332,716.256 312.516,715.8 314.34,715.16 L314.34,715.16 L313.476,710.84 C311.78,711.384 309.9,711.752 307.836,711.944 C305.772,712.136 303.636,712.232 301.428,712.232 L301.428,712.232 L297.588,712.232 L297.588,700.088 L311.7,700.088 L311.7,695.384 L288.228,695.384 L288.228,700.088 L292.212,700.088 L292.212,716.936 L300.084,716.936 Z M324.324,739.16 L324.324,721.304 L296.436,721.304 L296.436,739.16 L324.324,739.16 Z M318.996,734.552 L301.764,734.552 L301.764,725.912 L318.996,725.912 L318.996,734.552 Z M370.648,716.456 L370.648,711.752 L362.92,711.752 C363.144,710.664 363.36,709.48 363.568,708.2 C363.776,706.92 363.952,705.672 364.096,704.456 C364.24,703.24 364.352,702.128 364.432,701.12 C364.512,700.112 364.552,699.336 364.552,698.792 L364.552,698.792 L364.552,694.568 L335.992,694.568 L335.992,699.272 L358.984,699.272 C358.984,701.192 358.864,703.256 358.624,705.464 C358.384,707.672 358.04,709.768 357.592,711.752 L357.592,711.752 L330.712,711.752 L330.712,716.456 L370.648,716.456 Z M365.224,739.16 L365.224,721.592 L336.136,721.592 L336.136,739.16 L365.224,739.16 Z M359.896,734.552 L341.464,734.552 L341.464,726.2 L359.896,726.2 L359.896,734.552 Z M417.744,716.984 L417.744,707.72 L424.56,707.72 L424.56,703.016 L417.744,703.016 L417.744,694.472 L412.368,694.472 L412.368,716.984 L417.744,716.984 Z M393.744,715.208 C395.024,715.208 396.36,715.176 397.752,715.112 C399.144,715.048 400.504,714.936 401.832,714.776 C403.16,714.616 404.424,714.416 405.624,714.176 C406.824,713.936 407.872,713.64 408.768,713.288 L408.768,713.288 L407.856,709.016 C406.16,709.624 404.168,710.024 401.88,710.216 C399.592,710.408 397.344,710.504 395.136,710.504 L395.136,710.504 L390.048,710.504 L390.048,694.952 L384.672,694.952 L384.672,715.208 L393.744,715.208 Z M417.744,739.16 L417.744,719.24 L412.416,719.24 L412.416,725.144 L395.184,725.144 L395.184,719.24 L389.856,719.24 L389.856,739.16 L417.744,739.16 Z M412.416,734.552 L395.184,734.552 L395.184,729.656 L412.416,729.656 L412.416,734.552 Z M458.884,715.496 L458.884,694.568 L453.508,694.568 L453.508,700.424 L435.172,700.424 L435.172,694.568 L429.796,694.568 L429.796,715.496 L458.884,715.496 Z M453.508,710.792 L435.172,710.792 L435.172,705.128 L453.508,705.128 L453.508,710.792 Z M447.028,737.576 L447.028,724.952 L464.308,724.952 L464.308,720.248 L424.372,720.248 L424.372,724.952 L441.652,724.952 L441.652,737.576 L447.028,737.576 Z" id="" fill="#242424" fill-rule="nonzero"></path>
        <g id="Group" transform="translate(8.000000, 17.000000)">
            <polygon id="Fill-57" fill="#CCCCCC" points="10 21 596 21 596 19 10 19"></polygon>
            <path d="M150,19 C150,28.3888692 142.389094,36 133.000502,36 C123.61191,36 116,28.3888692 116,19 C116,9.6111308 123.61191,2 133.000502,2 C142.389094,2 150,9.6111308 150,19" id="Fill-62" fill="#CCCCCC"></path>
            <path d="M35,19 C35,28.3888692 27.389094,36 17.9994978,36 C8.61191032,36 1,28.3888692 1,19 C1,9.6111308 8.61191032,2 17.9994978,2 C27.389094,2 35,9.6111308 35,19" id="Fill-63" fill="#CCCCCC"></path>
            <path d="M17.4005542,26 C17.1181346,26 16.8406011,25.8989758 16.619747,25.7129313 L10.4475591,20.5126876 C9.92474082,20.0715821 9.84851684,19.2783923 10.2794755,18.7412639 C10.7114114,18.2051356 11.4844007,18.1281172 12.0101507,18.570223 L17.2295389,22.9682749 L24.818711,13.4620012 C25.2477152,12.925873 26.0216818,12.8428531 26.548409,13.2839586 C27.074159,13.7240639 27.1523375,14.5172536 26.722356,15.0553823 L18.353354,25.5378895 C18.1471583,25.7969514 17.8471486,25.9609907 17.522708,25.9939986 C17.4816643,25.9979995 17.4406207,26 17.4005542,26" id="Fill-76" fill="#FFFFFF"></path>
            <path d="M17.4005542,26 C17.1181346,26 16.8406011,25.8989758 16.619747,25.7129313 L10.4475591,20.5126876 C9.92474082,20.0715821 9.84851684,19.2783923 10.2794755,18.7412639 C10.7114114,18.2051356 11.4844007,18.1281172 12.0101507,18.570223 L17.2295389,22.9682749 L24.818711,13.4620012 C25.2477152,12.925873 26.0216818,12.8428531 26.548409,13.2839586 C27.074159,13.7240639 27.1523375,14.5172536 26.722356,15.0553823 L18.353354,25.5378895 C18.1471583,25.7969514 17.8471486,25.9609907 17.522708,25.9939986 C17.4816643,25.9979995 17.4406207,26 17.4005542,26 Z" id="Stroke-77" stroke="#FFFFFF"></path>
            <path d="M132.400554,26 C132.118135,26 131.840601,25.8989758 131.619747,25.7129313 L125.447559,20.5126876 C124.924741,20.0715821 124.848517,19.2783923 125.279475,18.7412639 C125.711411,18.2051356 126.484401,18.1281172 127.010151,18.570223 L132.229539,22.9682749 L139.818711,13.4620012 C140.247715,12.925873 141.021682,12.8428531 141.548409,13.2839586 C142.074159,13.7240639 142.152337,14.5172536 141.722356,15.0553823 L133.353354,25.5378895 C133.147158,25.7969514 132.847149,25.9609907 132.522708,25.9939986 C132.481664,25.9979995 132.440621,26 132.400554,26" id="Fill-78" fill="#FFFFFF"></path>
            <path d="M132.400554,26 C132.118135,26 131.840601,25.8989758 131.619747,25.7129313 L125.447559,20.5126876 C124.924741,20.0715821 124.848517,19.2783923 125.279475,18.7412639 C125.711411,18.2051356 126.484401,18.1281172 127.010151,18.570223 L132.229539,22.9682749 L139.818711,13.4620012 C140.247715,12.925873 141.021682,12.8428531 141.548409,13.2839586 C142.074159,13.7240639 142.152337,14.5172536 141.722356,15.0553823 L133.353354,25.5378895 C133.147158,25.7969514 132.847149,25.9609907 132.522708,25.9939986 C132.481664,25.9979995 132.440621,26 132.400554,26 Z" id="Stroke-79" stroke="#FFFFFF"></path>
            <circle id="Oval" fill="#D8D8D8" cx="18" cy="18" r="18"></circle>
            <polygon id="1" fill="#FFFFFF" fill-rule="nonzero" points="19.9 25.52 19.9 11.1 18.24 11.1 13.6 13.82 14.54 15.42 17.92 13.42 17.92 25.52"></polygon>
            <circle id="Oval-Copy" fill="#D8D8D8" cx="133" cy="18" r="18"></circle>
            <path d="M138.36,24.52 L138.36,22.8 L131.12,22.8 L135.62,18 C136.92,16.62 137.84,15.26 137.84,13.7 L137.84,13.5 C137.84,11.4 136.26,9.88 133.34,9.88 C130.68,9.88 129.4,11.54 128.72,12.78 L130.24,13.76 C131.18,12.08 132.32,11.66 133.38,11.66 C134.88,11.66 135.86,12.36 135.86,13.5 L135.86,13.66 C135.86,14.42 135.7,15.22 134.06,17.02 L128.68,22.86 L128.68,24.52 L138.36,24.52 Z" id="2" fill="#FFFFFF" fill-rule="nonzero"></path>
            <circle id="Oval-Copy-2" fill="#D8D8D8" cx="247" cy="18" r="18"></circle>
            <path d="M247.08,24.74 C250.62,24.74 252.12,22.68 252.12,20.56 L252.12,20.26 C252.12,18.6 251.14,17.28 249.2,16.94 C250.98,16.3 251.46,14.82 251.46,13.68 L251.46,13.48 C251.46,11.32 249.76,9.88 247.1,9.88 C244.94,9.88 243.74,10.84 242.9,12.04 L244.32,13.08 C245.1,12.06 245.94,11.64 247.12,11.64 C248.42,11.64 249.5,12.28 249.5,13.54 L249.5,13.7 C249.5,14.94 248.88,16.14 247.08,16.14 L245.38,16.14 L245.38,17.86 L247.16,17.86 C248.84,17.86 250.14,18.42 250.14,20.32 L250.14,20.58 C250.14,21.88 249.18,22.94 247.08,22.94 C245.84,22.94 244.84,22.58 243.44,21.56 L242.46,23.14 C243.82,24.22 245.4,24.74 247.08,24.74 Z" id="3" fill="#FFFFFF" fill-rule="nonzero"></path>
            <circle id="Oval-Copy-3" fill="#D8D8D8" cx="362" cy="18" r="18"></circle>
            <polygon id="4" fill="#FFFFFF" fill-rule="nonzero" points="365.1 24.52 365.1 21.42 367.14 21.42 367.14 19.74 365.1 19.74 365.1 15.32 363.14 15.32 363.14 19.74 358.26 19.74 364.9 10.1 362.72 10.1 355.94 19.94 355.94 21.42 363.14 21.42 363.14 24.52"></polygon>
            <circle id="Oval-Copy-4" fill="#FF0000" cx="478" cy="18" r="18"></circle>
            <path d="M478.56,24.74 C482.16,24.74 483.58,22.3 483.58,20.18 L483.58,19.88 C483.58,17.44 482.02,15.42 479.28,15.42 C478.08,15.42 477.04,15.82 476.4,16.3 L476.62,11.8 L482.64,11.8 L482.64,10.1 L474.82,10.1 L474.36,18.22 L475.88,18.22 C476.52,17.6 477.48,17.08 478.7,17.08 C480.54,17.08 481.6,18.02 481.6,19.94 L481.6,20.18 C481.6,21.52 480.7,22.94 478.6,22.94 C477.26,22.94 476.02,22.64 474.64,21.56 L473.66,23.14 C475.02,24.22 476.6,24.74 478.56,24.74 Z" id="5" fill="#FFFFFF" fill-rule="nonzero"></path>
            <circle id="Oval-Copy-5" fill="#D8D8D8" cx="592" cy="18" r="18"></circle>
            <path d="M591.66,24.74 C594.6,24.74 596.58,22.86 596.58,20.1 L596.58,19.66 C596.58,16.84 594.6,15.06 592.04,15.06 C590.44,15.06 589.08,15.86 588.6,16.7 C588.74,12.9 590.1,11.7 592.06,11.7 C593.2,11.7 594.26,12.02 595.16,12.54 L595.92,10.86 C594.84,10.2 593.48,9.88 592.18,9.88 C588.94,9.88 586.64,11.74 586.64,18.06 L586.64,18.8 C586.64,22.66 588.42,24.74 591.66,24.74 Z M591.58,22.94 C589.78,22.94 588.66,21.76 588.66,19.9 L588.66,19.62 C588.66,18.04 589.88,16.82 591.64,16.82 C593.4,16.82 594.6,17.82 594.6,19.74 L594.6,20 C594.6,21.88 593.44,22.94 591.58,22.94 Z" id="6" fill="#FFFFFF" fill-rule="nonzero"></path>
            <path d="M15.8,57.92 L15.8,50.96 L14.42,50.96 L14.42,53.24 L5.38,53.24 L5.38,50.96 L4,50.96 L4,57.92 L15.8,57.92 Z M14.42,56.7 L5.38,56.7 L5.38,54.42 L14.42,54.42 L14.42,56.7 Z M10.8,64.92 L10.8,61.24 L18.3,61.24 L18.3,60.04 L1.5,60.04 L1.5,61.24 L9.4,61.24 L9.4,64.92 L10.8,64.92 Z M16.2,68.5 L16.2,67.26 L5.4,67.26 L5.4,63.3 L3.98,63.3 L3.98,68.5 L16.2,68.5 Z M33.72,59.48 L33.72,50.44 L32.32,50.44 L32.32,59.48 L33.72,59.48 Z M19.74,59.82 C21.1,58.84 22.22,57.92 22.92,57.3 C23.8,56.54 24.3,55.98 24.4,55.66 L24.42,55.66 C24.54,56 25.28,56.64 26.22,57.38 C26.8,57.84 27.7,58.52 28.64,59.18 L29.44,58.16 C28.38,57.46 27.24,56.6 26.5,55.98 C25.24,54.92 25.06,54.46 25.06,53 L25.06,50.9 L23.62,50.9 L23.62,53.06 C23.62,54.52 23.3,55.2 22.14,56.26 C21.32,57 20.14,57.94 18.9,58.8 L19.74,59.82 Z M34.2,68.78 L34.2,67.58 L23.92,67.58 L23.92,65.26 L33.72,65.26 L33.72,60.56 L22.44,60.56 L22.44,61.78 L32.34,61.78 L32.34,64.08 L22.54,64.08 L22.54,68.78 L34.2,68.78 Z" id="" fill="#6E6E6E" fill-rule="nonzero"></path>
            <path d="M238.86,59.84 L238.86,50.44 L237.48,50.44 L237.48,54.44 L234.84,54.44 L234.84,50.68 L233.46,50.68 L233.46,59.8 L234.84,59.8 L234.84,55.7 L237.48,55.7 L237.48,59.84 L238.86,59.84 Z M227.6,59.36 C230.26,59.36 231.62,57.42 231.62,55.78 L231.62,54.78 C231.62,53.14 230.26,51.2 227.6,51.2 C224.94,51.2 223.58,53.14 223.58,54.78 L223.58,55.78 C223.58,57.42 224.94,59.36 227.6,59.36 Z M227.6,58.08 C225.9,58.08 224.96,56.86 224.96,55.64 L224.96,54.92 C224.96,53.7 225.9,52.48 227.6,52.48 C229.3,52.48 230.24,53.7 230.24,54.92 L230.24,55.64 C230.24,56.86 229.3,58.08 227.6,58.08 Z M238.86,68.7 L238.86,60.92 L237.48,60.92 L237.48,63.42 L228.88,63.42 L228.88,60.92 L227.5,60.92 L227.5,68.7 L238.86,68.7 Z M237.48,67.44 L228.88,67.44 L228.88,64.66 L237.48,64.66 L237.48,67.44 Z M254.78,68.72 L254.78,58.48 L257.82,58.48 L257.82,57.22 L254.78,57.22 L254.78,50.44 L253.36,50.44 L253.36,68.72 L254.78,68.72 Z M245.04,63.84 C247.28,63.84 249.68,63.7 251.8,63.32 L251.62,62.06 C249.38,62.44 247.44,62.56 245.4,62.56 L243.04,62.56 L243.04,53.38 L249.94,53.38 L249.94,52.1 L241.62,52.1 L241.62,63.84 L245.04,63.84 Z M266.2,58.18 C269.4,58.18 271.94,56.9 271.94,54.9 L271.94,54.14 C271.94,52.14 269.4,50.86 266.2,50.86 C263,50.86 260.46,52.14 260.46,54.14 L260.46,54.9 C260.46,56.9 263,58.18 266.2,58.18 Z M266.2,56.98 C263.9,56.98 261.82,56.08 261.82,54.8 L261.82,54.24 C261.82,52.96 263.9,52.06 266.2,52.06 C268.5,52.06 270.58,52.96 270.58,54.24 L270.58,54.8 C270.58,56.08 268.5,56.98 266.2,56.98 Z M267.12,64.84 L267.12,61.06 L274.6,61.06 L274.6,59.86 L257.8,59.86 L257.8,61.06 L265.72,61.06 L265.72,64.84 L267.12,64.84 Z M272.5,68.5 L272.5,67.26 L261.72,67.26 L261.72,63.1 L260.3,63.1 L260.3,68.5 L272.5,68.5 Z" id="" fill="#6E6E6E" fill-rule="nonzero"></path>
            <path d="M128.52,63.48 L128.52,50.44 L127.12,50.44 L127.12,63.48 L128.52,63.48 Z M114.64,61.28 C115.8,60.36 116.94,59.4 117.64,58.74 C118.52,57.9 119.14,57.28 119.2,56.94 L119.22,56.94 C119.32,57.26 119.86,57.8 120.78,58.58 C121.46,59.16 122.34,59.88 123.44,60.72 L124.28,59.74 C123.38,59.08 122.3,58.22 121.32,57.36 C120.040909,56.2145455 119.87343,55.725124 119.860847,54.3957814 L119.86,51.3 L118.42,51.3 L118.42,54.24 C118.42,55.76 118.28,56.26 117.02,57.52 C116.12,58.42 114.84,59.46 113.76,60.28 L114.64,61.28 Z M128.98,68.5 L128.98,67.26 L118.78,67.26 L118.78,62.4 L117.36,62.4 L117.36,68.5 L128.98,68.5 Z M144.28,62.58 C144.76,60 144.98,57.68 144.98,54.32 L144.98,52.16 L132.82,52.16 L132.82,53.4 L143.52,53.4 L143.52,55.06 C143.52,57.74 143.26,59.94 142.8,62.4 L144.28,62.58 Z M147.5,66.14 L147.5,64.92 L138.52,64.92 L138.52,57.9 L137.08,57.9 L137.08,64.92 L130.7,64.92 L130.7,66.14 L147.5,66.14 Z" id="" fill="#6E6E6E" fill-rule="nonzero"></path>
            <path d="M345.88,61.36 C346.8,60.7 348.16,59.62 348.86,59 C349.7,58.26 350.34,57.6 350.42,57.3 L350.44,57.3 C350.52,57.56 351.3,58.24 352.24,59 C352.84,59.48 353.8,60.2 354.6,60.76 L355.42,59.76 C354.28,59 353.16,58.16 352.52,57.62 C351.22,56.5 351.08,55.96 351.08,54.82 L351.08,53.78 L355.08,53.78 L355.08,52.56 L351.08,52.56 L351.08,50.28 L349.66,50.28 L349.66,52.56 L345.44,52.56 L345.44,53.78 L349.66,53.78 L349.66,54.88 C349.66,55.92 349.44,56.62 348.46,57.58 C347.48,58.54 346.2,59.52 345.02,60.36 L345.88,61.36 Z M359.7,61.38 L359.7,50.44 L358.3,50.44 L358.3,55.72 L354.56,55.72 L354.56,56.96 L358.3,56.96 L358.3,61.38 L359.7,61.38 Z M354.26,69.2 C357.36,69.2 359.8,67.92 359.8,65.88 L359.8,65.12 C359.8,63.08 357.36,61.8 354.26,61.8 C351.16,61.8 348.72,63.04 348.72,65.1 L348.72,65.88 C348.72,67.92 351.16,69.2 354.26,69.2 Z M354.26,68 C352.02,68 350.08,67.16 350.08,65.8 L350.08,65.2 C350.08,63.84 352.02,63 354.26,63 C356.5,63 358.44,63.84 358.44,65.2 L358.44,65.8 C358.44,67.16 356.5,68 354.26,68 Z M370.8,68.72 L370.8,61.24 L378.5,61.24 L378.5,60.02 L375.28,60.02 C375.66,58.2 375.88,55.94 375.88,53.82 L375.88,51.64 L363.9,51.64 L363.9,52.86 L374.44,52.86 L374.44,54.28 C374.44,56.02 374.22,58.22 373.82,60.02 L361.7,60.02 L361.7,61.24 L369.38,61.24 L369.38,68.72 L370.8,68.72 Z" id="" fill="#6E6E6E" fill-rule="nonzero"></path>
            <path d="M474.86,59.66 L474.86,55.64 L477.66,55.64 L477.66,54.4 L474.86,54.4 L474.86,50.44 L473.46,50.44 L473.46,59.66 L474.86,59.66 Z M471.8,58.22 L471.64,56.96 C468.6,57.36 466.9,57.44 463.02,57.44 L463.02,51.44 L461.6,51.44 L461.6,58.72 L462.524364,58.7191166 C467.251349,58.7094118 468.825882,58.6152941 471.8,58.22 Z M474.86,68.68 L474.86,60.74 L473.48,60.74 L473.48,63.32 L465.26,63.32 L465.26,60.74 L463.88,60.74 L463.88,68.68 L474.86,68.68 Z M473.48,67.42 L465.26,67.42 L465.26,64.56 L473.48,64.56 L473.48,67.42 Z M492.02,58.98 L492.02,51.14 L490.64,51.14 L490.64,53.88 L481.56,53.88 L481.56,51.14 L480.18,51.14 L480.18,58.98 L492.02,58.98 Z M490.64,57.8 L481.56,57.8 L481.56,55.1 L490.64,55.1 L490.64,57.8 Z M486.82,68.72 L486.82,62.64 L494.5,62.64 L494.5,61.42 L477.7,61.42 L477.7,62.64 L485.4,62.64 L485.4,68.72 L486.82,68.72 Z" id="" fill="#FF0000" fill-rule="nonzero"></path>
            <path d="M576.28,58.98 C577.9,58.34 579.46,57.62 580.54,57.08 C581.86,56.42 582.64,55.84 582.88,55.38 L582.9,55.38 C583.12,55.84 583.92,56.4 585.24,57.06 C586.32,57.6 587.84,58.3 589.46,58.94 L590.06,57.84 C588.58,57.28 586.96,56.56 585.68,55.9 C584.14,55.12 583.6,54.46 583.6,52.68 L583.6,51.08 L582.18,51.08 L582.18,52.68 C582.18,54.46 581.62,55.12 580.08,55.9 C578.8,56.56 577.14,57.3 575.66,57.86 L576.28,58.98 Z M583.62,68.72 L583.62,62.16 L591.3,62.16 L591.3,60.94 L574.5,60.94 L574.5,62.16 L582.2,62.16 L582.2,68.72 L583.62,68.72 Z M606.92,61.54 L606.92,50.44 L605.54,50.44 L605.54,53 L601.72,53 L601.72,54.22 L605.54,54.22 L605.54,56.26 L601.72,56.26 L601.72,57.48 L605.54,57.48 L605.54,61.54 L606.92,61.54 Z M602.8,60.24 L602.66,59.02 C600.22,59.3 597.7,59.34 594.26,59.34 L594.26,56.56 L600.32,56.56 L600.32,51.36 L592.88,51.36 L592.88,52.6 L598.94,52.6 L598.94,55.36 L592.88,55.36 L592.88,60.58 L593.82687,60.5792078 C598.249927,60.5713424 600.49871,60.5019355 602.8,60.24 Z M601.46,69.22 C604.7,69.22 607.02,67.98 607.02,65.98 L607.02,65.26 C607.02,63.28 604.7,62.02 601.46,62.02 C598.22,62.02 595.9,63.26 595.9,65.24 L595.9,65.98 C595.9,67.98 598.22,69.22 601.46,69.22 Z M601.46,68.02 C599.04,68.02 597.26,67.12 597.26,65.92 L597.26,65.32 C597.26,64.14 599.04,63.22 601.46,63.22 C603.88,63.22 605.66,64.12 605.66,65.32 L605.66,65.92 C605.66,67.12 603.88,68.02 601.46,68.02 Z" id="" fill="#6E6E6E" fill-rule="nonzero"></path>
        </g>
    </g>
</svg>