<?xml version="1.0" encoding="UTF-8"?>
<svg width="609px" height="517px" viewBox="0 0 609 517" version="1.1" xmlns="http://www.w3.org/2000/svg" xmlns:xlink="http://www.w3.org/1999/xlink">
    <title>img-03-4</title>
    <defs>
        <polygon id="path-1" points="0.325499005 0.671549994 151.200103 0.671549994 151.200103 25 0.325499005 25"></polygon>
        <polygon id="path-3" points="0.396496375 0.355 3.49750363 0.355 3.49750363 281.3244 0.396496375 281.3244"></polygon>
    </defs>
    <g id="img-03-4" stroke="none" stroke-width="1" fill="none" fill-rule="evenodd">
        <text id="파손폰-인계" font-family="TgothicMedium, Tgothic" font-size="27" font-weight="400" fill="#242424">
            <tspan x="239.255" y="501">파손폰 인계</tspan>
        </text>
        <g id="Group-191" transform="translate(139.000000, 108.000000)">
            <path d="M134.0403,100.779 C134.0403,100.779 135.2633,103.191 135.5183,103.749 C136.6703,106.263 138.0193,108.355 139.0253,110.94 C140.1653,113.871 141.8283,116.877 142.3503,120.01 C142.5823,121.409 142.4103,123.72 143.9163,124.474 C145.3433,125.186 145.6393,124.263 146.2183,123.315 C146.8413,122.293 147.7193,121.186 148.4953,120.475 C150.5123,118.626 151.7983,117.933 153.8883,116.211 C155.9493,114.514 157.8813,112.107 158.7793,109.563 C160.3473,105.124 155.2453,102.351 152.4643,100.066 C149.0983,97.301 147.6543,92.441 143.5363,90.57 C142.1583,89.944 140.7753,89.384 139.2633,89.763 C137.7133,90.151 137.1633,91.812 136.7943,93.181 C136.0743,95.851 134.0403,100.779 134.0403,100.779" id="Fill-1" fill="#FFEDDE"></path>
            <path d="M116.008,114.1842 C116.008,114.1842 116.495,125.1962 117.502,131.0812 C118.264,135.5372 120.922,146.6402 123.122,155.9012 C123.827,158.8742 124.91,165.3332 125.558,167.4382 C126.88,171.7312 128.051,173.6772 129.823,177.7942 C132.923,184.9972 137.67,193.1722 140.619,200.4412 C143.228,206.8692 145.74,212.6532 147.11,215.9202 C148.478,219.1872 149.417,222.4342 149.417,222.4342 C149.417,222.4342 151.909,221.8552 154.701,220.5442 C157.494,219.2332 159.312,216.6742 159.312,216.6742 C159.312,216.6742 157.444,211.7272 157.133,210.5912 C156.009,206.4812 154.59,202.4802 153.577,198.3312 C151.658,190.4702 149.354,179.6572 146.674,172.0102 C142.766,160.8592 138.983,156.3672 137.101,144.5872 C136.308,139.6252 135.463,128.4372 135.463,128.4372 C135.463,128.4372 130.315,122.6612 128.307,120.9952 C125.888,118.9862 122.157,115.9662 119.601,114.8452 C117.042,113.7242 116.008,114.1842 116.008,114.1842" id="Fill-3" fill="#FFEDDE"></path>
            <path d="M81.4807,161.7731 C81.1337,162.0251 84.1387,166.2621 84.7087,167.9421 C86.3807,172.8631 86.7527,177.5601 86.3987,182.7251 C86.1767,185.9461 85.6047,189.0911 85.2857,192.2851 C85.0337,194.7961 84.6007,196.1911 85.3857,198.6881 C86.9477,203.6491 89.1867,208.6711 91.4827,213.3201 C92.1997,214.7721 93.5137,218.1911 93.5137,218.1911 C93.5137,218.1911 97.8047,216.1751 98.0357,216.0291 C99.4477,215.1231 101.2637,213.1361 101.2637,213.1361 C101.2637,213.1361 99.3127,206.9801 98.7657,204.3571 C97.0307,196.0251 96.6597,190.8941 95.5487,185.1881 C94.6107,180.3571 93.6207,177.3331 92.6377,172.3011 C92.3697,170.9241 91.9717,167.9881 92.0747,165.1521 C92.1847,162.0431 93.0457,158.1181 93.0457,158.1181 C93.0457,158.1181 89.9857,158.2461 89.4747,158.2781 C87.8927,158.3781 86.2407,158.8051 84.8067,159.4811 C83.6387,160.0311 82.5747,160.9781 81.4807,161.7731" id="Fill-5" fill="#FFEDDE"></path>
            <path d="M11.3508,264.6227 L10.4548,269.0727 C10.4548,269.0727 13.1488,270.5217 13.7248,270.4727 C16.1458,270.2597 18.6228,269.6407 20.8778,268.8357 C22.1728,268.3747 24.1618,268.2557 24.9898,266.9067 C25.7148,265.7257 22.5838,265.2337 22.0838,265.1487 C19.5238,264.7087 17.0558,264.3597 14.4798,264.0727 C13.4038,263.9527 11.3508,264.6227 11.3508,264.6227" id="Fill-7" fill="#FFEDDE"></path>
            <path d="M65.9827,266.2448 C65.9827,266.2448 65.5967,266.3728 61.7137,267.8258 C60.3417,268.3398 59.0037,268.7698 57.5717,268.6558 C55.4067,268.4848 53.9577,268.0348 52.0307,267.0498 C51.5747,266.8148 48.2407,265.3268 48.2407,265.3268 L47.3217,269.5748 C47.3217,269.5748 50.2387,272.0958 53.6757,272.7118 C57.0287,273.3128 60.8787,272.0328 62.7797,270.2998 C63.9197,269.2578 65.9827,266.2448 65.9827,266.2448" id="Fill-9" fill="#FFEDDE"></path>
            <polygon id="Fill-11" fill="#EAC375" points="97.3567 227.4128 193.6117 227.3868 193.7067 279.4938 143.3037 287.6068 97.8597 277.7748"></polygon>
            <path d="M69.4739,264.2546 C68.9679,264.1086 65.5689,266.8536 64.2359,268.4876 C62.5589,270.5416 60.0359,271.5796 57.4659,272.0286 C54.5989,272.5296 51.6379,271.8516 49.5249,270.9126 C47.4099,269.9736 47.1209,268.6236 47.1209,268.6236 C47.1209,268.6236 44.9599,270.3816 44.4009,271.8356 C43.3259,274.6316 42.4939,277.4216 41.6789,280.3066 C41.3629,281.4336 40.1499,285.1656 41.9589,285.7486 C43.5609,286.2646 45.2909,286.4406 46.9249,286.5926 C51.0019,286.9736 55.7949,287.1996 58.6299,287.5586 C61.4649,287.9176 66.3489,288.6706 70.3849,288.9006 C76.7249,289.2646 83.9449,288.8576 90.3639,288.4346 C92.6469,288.2846 94.3629,288.4416 96.6429,288.2346 C98.1779,288.0956 100.2739,287.9606 101.6539,287.2546 C103.0019,286.5636 103.6019,286.1566 104.1909,284.8196 C104.2509,284.6816 104.4639,283.6956 104.3809,283.5096 C103.8619,282.3406 101.8929,281.7036 100.9119,281.1986 C97.7459,279.5676 93.1969,278.3776 89.9359,276.9066 C87.5779,275.8446 85.2059,274.5236 82.9569,273.3176 C79.9039,271.6826 77.2539,269.7386 74.2969,267.9246 C72.5199,266.8326 69.9799,264.3996 69.4739,264.2546" id="Fill-13" fill="#808080"></path>
            <path d="M28.8762,264.1227 C28.8762,264.1227 23.1352,267.0037 20.9442,268.0487 C18.7532,269.0947 16.6432,270.1807 15.1062,270.2557 C14.0722,270.3067 12.4282,270.2217 11.4652,269.5007 C10.5012,268.7777 10.3432,267.4857 10.3432,267.4857 C10.3432,267.4857 9.4952,268.1247 9.1972,269.1367 C8.8242,270.4017 7.6492,273.6567 7.4062,274.4307 C6.6762,276.7437 6.3422,278.8187 6.1262,279.2947 C5.8322,279.9477 5.9112,281.4607 6.1942,282.1907 C6.4572,282.8667 8.1552,283.0547 8.6852,283.0857 C10.0652,283.1677 11.0042,283.1797 12.3852,283.2667 C17.5802,283.5957 22.4002,283.2667 27.5622,283.9567 C30.8242,284.3937 34.0212,284.7017 37.2532,285.0037 C37.9272,285.0667 40.5002,285.4127 40.5002,285.4127 C40.5002,285.4127 41.1072,284.7327 41.1582,284.5337 C41.4792,283.2617 43.5922,275.1837 43.5922,275.1837 C43.5922,275.1837 42.2762,274.8657 41.9892,274.6347 C41.2432,274.0347 40.1722,273.5787 39.3972,273.0097 C37.0912,271.3157 35.6482,269.8767 33.6672,268.0967 C31.6882,266.3157 28.8762,264.1227 28.8762,264.1227" id="Fill-15" fill="#808080"></path>
            <path d="M40.7922,285.0622 C40.7922,285.0622 29.9912,284.3072 24.3472,283.6262 C20.4962,283.1632 15.5482,283.1182 11.6802,283.2632 C9.9032,283.3302 6.1442,282.1792 6.1442,282.1792 C6.1442,282.1792 3.7352,285.2032 3.9632,285.9782 C4.1132,286.4892 4.0982,287.1412 4.4072,287.5792 C5.2202,288.7282 7.9942,288.5572 9.2082,288.7652 C12.3312,289.3022 15.7012,289.1432 18.8772,289.0822 C21.4482,289.0322 23.7122,288.7572 26.2552,288.5122 C29.2922,288.2182 32.3852,288.4372 35.4342,288.9592 C35.9422,289.0472 38.5932,289.2522 38.5932,289.2522 C38.5932,289.2522 38.2242,290.9632 38.3772,291.6012 C38.5262,292.2282 40.0182,292.8452 43.4232,293.0892 C49.7912,293.5462 56.5132,292.8742 62.8572,292.5342 C66.4972,292.3392 70.1042,292.9522 73.7482,292.9452 C81.0682,292.9282 89.0232,293.3002 96.2192,291.3102 C99.0582,290.5252 101.6002,290.2332 103.8762,288.3842 C104.5212,287.8622 105.3012,287.0672 105.294247,286.2112 C105.2862,285.3552 104.6462,284.5452 104.4222,284.5072 C104.4222,284.5072 103.9832,285.6202 103.7572,285.8082 C103.1412,286.3202 102.2952,287.1522 101.5192,287.4422 C99.0572,288.3642 96.9052,288.0002 94.3042,288.3172 C91.5762,288.6502 88.5542,288.5592 85.8532,288.6922 C79.2572,289.0132 72.7892,288.7942 66.2192,288.3002 C62.6592,288.0332 59.6032,287.6622 56.0352,287.4102 C53.3882,287.2232 50.3252,286.5982 47.6792,286.3242 C46.7122,286.2232 44.5342,286.2612 43.3202,285.9972 C41.5442,285.6082 40.7922,285.0622 40.7922,285.0622" id="Fill-17" fill="#808080"></path>
            <path d="M92.3059,215.7477 C92.3059,215.7477 90.6979,217.2857 90.5949,218.1287 C90.3719,219.9567 92.2979,221.4517 92.8399,222.4587 C95.6209,227.6237 95.8729,229.4567 96.2599,230.3277 C96.2969,230.4097 97.2769,232.7917 97.2769,232.7917 L97.3619,227.4007 L114.4059,227.3447 C114.2829,227.0377 112.9919,225.5687 111.7069,224.3777 C109.9879,222.7817 106.0129,220.0427 105.0279,218.8927 C104.2979,218.0417 103.6289,215.7707 102.9939,214.4537 C102.2929,212.9967 101.6509,212.5307 101.4329,212.5747 C100.8219,212.6967 101.0389,214.0627 99.1579,215.4387 C97.2769,216.8147 93.4019,218.0507 93.4019,218.0507 L92.3059,215.7477 Z" id="Fill-19" fill="#FFFFFF"></path>
            <path d="M158.6565,214.3971 L159.3495,216.6981 C159.3495,216.6981 157.0505,218.9231 156.5835,219.2411 C154.8835,220.3961 149.5175,222.5731 149.5175,222.5731 L148.6335,220.2891 C148.6335,220.2891 147.3665,220.8831 147.3205,222.2201 C147.3005,222.8601 148.1715,224.1921 148.4435,224.7311 C149.1715,226.1681 150.8225,229.5651 151.0225,231.1551 C151.9105,238.1871 152.7065,241.6771 155.2925,248.2721 C156.1085,250.3531 156.6805,254.2931 158.3945,255.8471 C159.0585,256.4501 159.5195,256.4631 159.9055,255.7221 C160.0765,255.3971 160.2095,253.6071 160.2095,253.6071 C160.2095,253.6071 161.1825,256.4471 161.2385,256.5981 C161.6675,257.7951 161.9695,258.6331 162.7825,259.6261 C162.9685,259.8521 163.4705,259.9731 163.8645,259.9081 C164.7655,259.7581 164.7225,259.2031 164.8895,258.4381 C164.9445,258.1861 164.9045,256.8051 164.9045,256.8051 C164.9045,256.8051 166.1275,258.8271 166.8765,258.4301 C167.9095,257.8851 168.2425,255.5031 168.2425,255.5031 C168.2425,255.5031 169.0975,255.3641 169.7435,254.6081 C170.3875,253.8521 170.4945,252.9851 170.6945,251.9381 C171.0115,250.2821 170.8075,248.5991 170.6775,246.9301 C170.6555,246.6531 170.1985,244.3781 170.1985,244.3781 C170.1985,244.3781 172.4785,244.9281 172.486542,243.3281 C172.4935,241.5901 171.6255,239.9641 171.0525,238.3701 C170.2125,236.0251 170.2975,232.5681 169.0045,230.4181 C167.7875,228.3971 165.2235,226.5831 164.0515,224.5171 C163.2285,223.0671 161.7645,218.4241 160.7675,216.3461 C159.6765,214.0721 158.6565,214.3971 158.6565,214.3971" id="Fill-21" fill="#FFFFFF"></path>
            <path d="M114.1604,228.6569 C114.1604,228.6569 114.3404,238.8959 114.3404,244.0019 C114.3404,245.6939 114.5704,249.8579 114.7224,250.2669 C114.8774,250.6769 115.6534,248.2499 115.9584,248.5109 C116.6134,249.0729 116.4454,250.3129 116.6634,251.0619 C116.7364,251.3099 116.8864,251.9509 117.3144,251.7669 C117.9774,251.4829 118.3184,249.6899 118.8144,249.1929 C118.8484,249.1589 119.6674,251.5119 120.2224,251.4439 C120.5404,251.4039 120.9114,249.7779 121.3984,249.4999 C121.7074,249.3239 121.7184,251.1049 121.9814,251.8209 C121.9924,251.8509 122.1884,253.0669 122.5234,252.7999 C122.7684,252.6029 123.1694,252.2129 123.2144,252.0069 C123.4464,250.9459 123.5564,248.9439 123.6104,247.8599 C123.8264,243.4219 123.4954,229.1169 123.4954,229.1169 L142.9064,230.0899 L150.5024,229.6799 L149.5564,227.5569 C149.5564,227.5569 140.7294,227.1819 137.4484,227.3459 C131.2224,227.6579 114.1604,228.6569 114.1604,228.6569" id="Fill-23" fill="#F6E5D5"></path>
            <path d="M168.7502,230.0924 C169.0782,230.7534 169.6312,232.5854 170.1122,233.9974 C170.6702,235.6314 170.5872,236.9414 171.0092,238.5394 C171.4212,240.1064 172.3432,241.9694 172.3432,242.9214 C172.3432,243.8274 172.1182,244.3224 171.0942,244.3864 C170.8632,244.4014 170.1812,244.5594 170.1812,244.5594 C170.1812,244.5594 171.0172,250.7214 171.1502,250.7874 C171.1502,250.7874 172.4042,248.5464 172.5112,248.6894 C173.1372,249.5224 173.4242,251.1024 173.7112,252.1034 C173.8222,252.4934 174.3112,252.7954 174.3112,252.7954 C174.3112,252.7954 174.7832,252.4884 175.1222,251.7094 C175.3482,251.1864 175.3112,250.1334 175.7872,250.0034 C176.4372,249.8264 177.2112,251.9944 177.3552,251.8494 C177.5922,251.6134 177.7542,247.3734 177.8172,246.1044 C178.0412,241.6154 177.9332,227.3014 177.9332,227.3014 L166.5592,227.4174 C166.5592,227.4174 168.5592,229.7084 168.7502,230.0924" id="Fill-25" fill="#F6E5D5"></path>
            <path d="M15.7395,96.3708 C15.7395,96.3708 8.5625,101.3648 6.4475,104.4408 C4.4675,107.3218 2.4115,110.8678 1.6735,114.3738 C0.5415,119.7498 1.0365,128.3778 2.5445,133.5068 C5.1235,142.2738 6.7115,143.7848 10.8975,151.8378 C12.2615,154.4608 16.9995,161.4998 18.2845,164.1698 C20.4005,168.5638 23.2485,174.9408 23.7865,177.3288 C24.3235,179.7178 25.2495,182.5378 25.2295,184.2598 C25.1585,190.2088 25.9985,190.3248 24.0505,199.2328 C23.7025,200.8208 21.6555,206.2518 20.1185,211.0368 C18.4155,216.3418 17.2085,221.0368 16.8465,222.8048 C15.5535,229.1238 15.8525,236.2008 14.2905,242.4528 C13.0745,247.3188 11.4525,248.5918 10.4265,253.5138 C9.8915,256.0798 9.5555,258.6138 9.7465,261.0318 C9.9345,263.4488 10.7245,265.2098 10.7245,265.2098 C10.7245,265.2098 13.5785,264.5298 13.8005,264.5818 C16.2245,265.1518 19.6285,266.3558 22.1235,266.3558 C25.1545,266.3558 29.2825,264.1298 29.2825,264.1298 C29.2825,264.1298 30.3525,261.8338 31.1455,260.8348 C32.5745,259.0338 34.3265,256.9368 35.0825,255.0358 C36.1925,252.2418 36.0855,245.2828 37.0875,240.6038 C38.1795,235.5078 39.5575,230.6278 41.8495,225.9588 C43.9625,221.6548 46.9935,216.9848 49.0835,212.6728 C50.8955,208.9358 52.5215,205.2238 52.5215,205.5468 C52.5215,208.4608 51.3155,213.8828 51.0175,216.7908 C50.6205,220.6648 49.7605,223.7788 49.6375,227.6778 C49.4235,234.5578 51.1775,241.5058 50.2615,248.3658 C49.8105,251.7558 47.5215,258.4758 46.9955,261.8618 C46.5375,264.8038 47.9745,265.3918 47.9745,265.3918 C47.9745,265.3918 48.3345,265.1628 49.5435,265.8488 C50.7525,266.5348 52.9095,267.7768 55.8835,268.3648 C58.8565,268.9528 62.3315,268.1018 63.6925,267.4818 C65.0035,266.8878 67.0305,265.3038 68.5185,264.5418 C69.3655,264.1078 70.2155,264.2268 70.2155,264.2268 C70.2155,264.2268 70.8955,263.6598 71.4635,262.4498 C72.0305,261.2388 71.2515,260.1248 71.2515,259.0298 C71.2515,256.7068 70.8015,255.2428 71.1985,252.9548 C71.9655,248.5478 73.6595,245.9888 74.2745,243.0658 C75.2415,238.4808 75.9315,233.1968 77.0395,226.2808 C78.1125,219.5758 82.8005,207.1458 84.3605,200.5218 C85.6935,194.8638 88.0665,181.6838 87.0735,174.7288 C86.2395,168.8948 81.6085,161.8478 81.6085,161.8478 C81.6085,161.8478 72.8105,150.5138 68.4455,144.6928 C60.1425,133.6218 52.2225,118.5998 41.6045,109.5368 C37.4765,106.0128 35.9675,104.4518 31.2835,101.8168 C28.5535,100.2818 23.9705,98.4108 20.8945,97.6418 C19.1315,97.2008 15.7395,96.3708 15.7395,96.3708" id="Fill-27" fill="#E6E6E6"></path>
            <path d="M139.0315,92.2135 C139.0315,92.2135 137.4125,91.9285 136.9205,91.9455 C136.1995,91.9725 134.6955,91.7355 133.4695,92.1575 C132.0015,92.6635 130.8505,93.8385 130.8505,93.8385 C130.8505,93.8385 132.2455,96.3385 132.5035,96.9845 C133.1955,98.7155 134.4955,101.0225 134.4955,101.0225 C134.4955,101.0225 135.2345,100.7865 136.2255,100.2355 C136.8925,99.8645 137.6405,99.2385 137.6405,99.2385 C137.6405,99.2385 137.1355,96.8965 137.4075,95.7505 C137.7685,94.2285 139.0315,92.2135 139.0315,92.2135" id="Fill-29" fill="#808080"></path>
            <path d="M144.6936,94.2848 C144.6936,94.2848 145.1466,95.5798 145.0436,97.0938 C144.8786,99.5058 144.2686,102.6748 145.4796,103.5838 C145.8736,103.8778 147.0026,104.2738 147.4456,104.2988 C149.0926,104.3908 150.5356,103.8068 152.1936,103.8068 C153.1306,103.8068 154.1476,103.9428 155.0466,104.1418 C155.1956,104.1758 156.5696,104.4568 156.5696,104.4568 C156.5696,104.4568 154.0696,101.8538 153.2566,101.1218 C150.6146,98.7438 144.6936,94.2848 144.6936,94.2848" id="Fill-31" fill="#808080"></path>
            <path d="M160.091,107.9938 C160.091,107.9938 158.964,110.9698 157.318,112.8898 C155.315,115.2288 152.712,116.8168 151.111,118.1028 C150.507,118.5878 148.434,119.8618 148.434,119.8618 L147.147,121.9628 C147.147,121.9628 148.512,123.8518 150.691,124.6148 C152.871,125.3758 154.681,124.7918 156.277,124.8678 C158.99,124.9978 160.774,124.7198 163.53,125.5328 C164.88,125.9318 167.048,126.1758 168.44,126.268131 C168.721,126.2868 169.595,125.4808 169.595,125.4808 C169.595,125.4808 169.715,123.8688 169.411,122.9598 C168.508,120.2478 167.348,117.8478 165.526,115.6618 C164.743,114.7228 161.876,110.4098 161.876,110.4098 C161.876,110.4098 163.168,107.3698 163.451,105.9988 C163.85,104.0738 164.056,101.9178 164.056,99.9598 C164.056,97.2858 163.794,95.2498 162.612,92.8178 C161.153,89.8168 157.498,85.7448 153.497,83.5218 C151.924,82.6468 150.111,81.6928 148.337,81.3378 C142.695,80.2098 136.327,80.6868 132.923,86.0358 C131.885,87.6658 130.048,92.1918 130.048,92.1918 L130.991,93.7038 C130.991,93.7038 132.486,92.2208 135.021,91.9218 C137.555,91.6228 138.792,92.2748 138.792,92.2748 C138.792,92.2748 140.456,90.8408 142.397,91.1828 C143.872,91.4438 144.429,94.1408 144.429,94.1408 C144.429,94.1408 146.625,95.3238 147.284,95.9248 C149.072,97.5498 150.947,99.1928 152.77,100.7878 C155.927,103.5498 157.15,104.6588 158.148,105.7888 L160.091,107.9938 Z" id="Fill-33" fill="#FC3500"></path>
            <path d="M160.0832,108.0475 C160.0832,108.0475 158.8012,110.5985 158.5882,110.9325 C157.7712,112.2155 156.9332,112.6695 156.1442,113.9525 C155.7782,114.5455 155.1932,114.8455 156.0192,115.2575 C156.6722,115.5835 157.7942,115.9145 158.4402,115.7375 C159.9892,115.3145 161.0132,113.8695 161.2102,112.1905 C161.3522,110.9815 161.5242,109.6205 161.5242,109.6205 L160.0832,108.0475 Z" id="Fill-35" fill="#E2BB92"></path>
            <path d="M130.3235,92.9684 C129.5485,91.4684 129.2745,90.0584 128.3235,88.8944 C126.5785,86.7574 123.8995,85.1814 121.1765,83.4924 C117.9095,81.4694 115.3075,78.4924 111.5395,77.3214 C109.3345,76.6344 101.1495,78.0274 98.9485,78.4584 C96.7465,78.8914 86.2535,81.3904 77.3305,83.8334 C69.8565,85.8794 62.9665,86.8534 55.3955,88.4644 C51.8145,89.2264 45.8295,90.1364 42.2095,90.5104 C35.6745,91.1844 31.0125,92.0074 24.5585,93.0584 C22.0785,93.4614 19.0705,93.9294 16.6835,94.7464 C16.3295,94.8684 13.9425,96.3224 14.3535,97.1844 C14.5025,97.4954 15.3795,96.5994 15.3795,96.5994 C15.3795,96.5994 20.1895,97.2194 21.4905,97.6444 C25.5755,98.9774 28.5345,100.3194 32.2635,102.4334 C41.7195,107.7954 48.4275,117.1014 54.7635,125.8464 C57.8155,130.0574 59.9915,133.4244 64.0605,138.7164 C67.7185,143.4724 70.9625,148.3894 74.7975,152.9934 C76.6355,155.2004 78.0335,157.7574 79.9805,159.8574 C80.3875,160.2964 81.5915,162.0714 81.5915,162.0714 C81.5915,162.0714 84.6955,160.1104 86.1775,159.8024 C90.2485,158.9584 94.2705,158.0064 98.3445,157.1984 C102.8715,156.3004 105.4255,155.6574 108.8545,152.5214 C111.0495,150.5134 113.5565,147.0314 115.7185,144.9894 C116.7095,144.0514 119.7615,141.4194 119.7615,141.4194 C119.7615,141.4194 118.8955,136.2414 118.3185,134.0814 C117.8385,132.2824 117.8845,130.4974 117.5985,128.7064 C117.3785,127.3234 116.6825,122.3294 116.6825,122.3294 C116.6825,122.3294 115.5795,121.2384 115.0645,119.8984 C114.5545,118.5684 113.8385,116.8014 113.8385,116.8014 C113.8385,116.8014 111.8395,115.9434 111.1635,115.5804 C110.4215,115.1824 109.6865,114.4654 109.0925,113.8744 C105.6375,110.4434 103.6655,104.4934 105.3105,99.7804 C105.7635,98.4824 106.8135,96.9174 107.7005,95.8414 C108.9485,94.3244 110.6605,92.6374 112.9385,91.1814 C114.1965,90.3764 115.7235,89.8044 116.4915,89.0254 C117.5435,87.9584 117.5625,87.5114 119.0765,86.6894 C119.8855,86.2514 120.7525,85.7184 120.7525,85.7184 C120.7525,85.7184 122.8685,87.0584 123.2065,87.3004 C124.9625,88.5594 125.3965,89.8554 127.1435,91.1224 C127.8235,91.6144 128.5875,91.9434 129.3065,92.3674 C129.6455,92.5684 130.5055,93.3194 130.3235,92.9684" id="Fill-37" fill="#FC3500"></path>
            <path d="M135.677,106.0758 C135.677,106.0758 136.1,108.8618 136.223,109.9438 C136.686,114.0378 136.72,118.0998 136.551,122.2698 C136.458,124.5678 136.936,127.7668 136.59,130.0428 C136.445,131.0018 135.935,131.8158 135.935,131.8158 L136.223,135.4728 C136.223,135.4728 137.344,134.3558 138.172,133.4248 C139.297,132.1588 140.237,130.6418 140.998,129.3618 C141.759,128.0798 143.463,124.8918 143.658,122.7438 C143.825,120.9218 141.531,119.4388 140.877,117.7668 C140.054,115.6618 138.952,111.1378 137.804,108.3108 C136.337,104.7018 134.892,102.9698 134.892,102.9698 L135.677,106.0758 Z" id="Fill-39" fill="#FC3500"></path>
            <path d="M115.2893,120.4958 C114.5433,118.9888 113.8813,116.9848 113.8813,116.9848 C113.8813,116.9848 112.0443,116.4238 111.0733,115.5368 C108.4923,113.1768 106.0123,111.2938 105.1453,107.8038 C104.9073,106.8438 104.5633,105.3798 104.5953,104.3928 C104.7893,98.2828 107.8683,95.7298 111.6893,91.9608 C112.6513,91.0118 114.5323,90.1768 116.3073,88.9748 C117.0543,88.4668 118.0573,87.3368 118.5203,87.0058 C118.9573,86.6918 120.6643,85.6808 120.6643,85.6808 C120.6643,85.6808 128.4683,90.1268 130.7383,93.8008 C133.6863,98.5718 134.7883,102.0028 135.8103,107.4088 C136.3803,110.4358 136.3803,115.1768 136.6563,118.2478 C136.9213,121.1938 136.7783,124.1458 136.8983,127.0838 C136.9143,127.4668 136.9593,130.2748 136.5303,130.5568 C136.3933,130.6478 135.7713,128.6518 135.7493,128.6108 C134.9263,127.1568 133.0723,126.1088 132.0413,124.7888 C128.9153,120.7868 122.6763,116.7668 120.3723,115.2938 C118.0693,113.8208 116.1113,114.1838 116.1113,114.1838 C116.1113,114.1838 116.5193,120.2298 116.5973,122.0988 L115.2893,120.4958 Z" id="Fill-41" fill="#FFFFFF"></path>
            <path d="M159.1223,216.5983 C158.9303,216.5983 158.7483,216.4773 158.6823,216.2843 C158.6663,216.2373 157.0483,211.5383 156.2163,208.9583 C155.4063,206.4523 154.7453,203.8723 154.1053,201.3793 C153.7523,199.9963 153.3973,198.6173 153.0183,197.2423 C152.3423,194.7853 151.7043,192.1943 151.0303,189.4513 C149.5333,183.3593 147.8353,176.4543 145.2303,169.3583 C144.1973,166.5463 143.1403,164.0123 142.1163,161.5603 C139.6983,155.7643 137.4133,150.2883 136.3793,143.0443 C135.8583,139.4103 135.5123,135.3723 135.1783,129.1103 C135.1643,128.8533 135.3613,128.6333 135.6193,128.6193 C135.8613,128.5963 136.0953,128.8033 136.1083,129.0613 C136.4393,135.2933 136.7853,139.3073 137.3013,142.9123 C138.3183,150.0393 140.4773,155.2123 142.9763,161.2023 C144.0033,163.6613 145.0653,166.2063 146.1043,169.0363 C148.7273,176.1813 150.4323,183.1133 151.9353,189.2293 C152.6073,191.9653 153.2433,194.5503 153.9173,196.9943 C154.2983,198.3733 154.6533,199.7603 155.0083,201.1473 C155.6443,203.6283 156.3023,206.1943 157.1013,208.6733 C157.9323,211.2443 159.5463,215.9323 159.5623,215.9803 C159.6463,216.2243 159.5183,216.4893 159.2743,216.5723 C159.2253,216.5893 159.1723,216.5983 159.1223,216.5983" id="Fill-43" fill="#000000"></path>
            <path d="M136.0481,132.9606 C135.9251,132.9606 135.8011,132.9116 135.7101,132.8146 C135.5331,132.6286 135.5401,132.3336 135.7281,132.1566 C136.6181,131.3136 136.4031,125.7876 136.2461,121.7536 L136.2181,121.0176 C136.1891,120.2456 136.1641,119.4056 136.1401,118.5196 C136.0391,114.9756 135.9151,110.5656 135.2871,106.9436 C134.8811,104.6066 133.7631,99.9276 130.8291,94.8476 C129.0431,91.7556 123.5151,88.0256 120.5281,86.3116 C120.3061,86.1826 120.2291,85.8976 120.3571,85.6756 C120.4851,85.4516 120.7681,85.3746 120.9931,85.5026 C124.0591,87.2656 129.7511,91.1176 131.6371,94.3816 C134.6421,99.5866 135.7881,104.3866 136.2051,106.7846 C136.8451,110.4726 136.9701,114.9196 137.0711,118.4926 C137.0961,119.3756 137.1191,120.2126 137.1491,120.9816 L137.1781,121.7176 C137.4181,127.9276 137.4851,131.7746 136.3681,132.8326 C136.2781,132.9186 136.1631,132.9606 136.0481,132.9606" id="Fill-45" fill="#000000"></path>
            <path d="M124.216,160.9733 C124,160.9733 123.806,160.8223 123.761,160.6023 C123.151,157.6773 122.388,154.4463 121.581,151.0253 C118.872,139.5323 115.801,126.5053 115.801,114.7523 C115.801,114.4953 116.009,114.2873 116.267,114.2873 C116.525,114.2873 116.733,114.4953 116.733,114.7523 C116.733,126.3973 119.79,139.3683 122.488,150.8113 C123.296,154.2383 124.06,157.4753 124.672,160.4113 C124.725,160.6633 124.564,160.9113 124.312,160.9623 C124.279,160.9693 124.247,160.9733 124.216,160.9733" id="Fill-47" fill="#000000"></path>
            <path d="M149.4309,222.7653 C149.2369,222.7653 149.0539,222.6423 148.9889,222.4473 C146.8289,215.9673 143.6139,208.1223 139.1569,198.4663 C138.2159,196.4283 137.1019,194.1383 135.8109,191.4883 C134.4989,188.7933 133.0129,185.7403 131.3889,182.2903 L130.6059,180.6293 C127.7229,174.5323 125.2339,169.2653 124.8599,164.9933 C124.8369,164.7363 125.0269,164.5103 125.2829,164.4883 C125.5389,164.4683 125.7649,164.6553 125.7869,164.9113 C126.1479,169.0183 128.6039,174.2143 131.4479,180.2313 L132.2329,181.8943 C133.8529,185.3373 135.3379,188.3883 136.6489,191.0793 C137.9419,193.7363 139.0589,196.0293 140.0029,198.0763 C144.4739,207.7643 147.7019,215.6403 149.8729,222.1523 C149.9539,222.3963 149.8229,222.6603 149.5779,222.7423 C149.5299,222.7583 149.4799,222.7653 149.4309,222.7653" id="Fill-49" fill="#000000"></path>
            <path d="M101.1799,213.4333 C100.9809,213.4333 100.7959,213.3053 100.7349,213.1053 C99.6639,209.6263 98.8369,206.6143 97.5349,200.6683 C96.8459,197.5223 96.4019,194.3513 95.9719,191.2853 C95.6079,188.6793 95.2299,185.9853 94.7079,183.3733 C94.3259,181.4623 93.9009,179.6863 93.4909,177.9693 C92.0009,171.7383 90.7149,166.3573 92.2939,158.3283 C92.3429,158.0763 92.5859,157.9103 92.8419,157.9603 C93.0939,158.0103 93.2579,158.2553 93.2079,158.5083 C91.6679,166.3373 92.9329,171.6273 94.3969,177.7523 C94.8099,179.4783 95.2359,181.2623 95.6209,183.1923 C96.1489,185.8293 96.5289,188.5373 96.8949,191.1553 C97.3229,194.2043 97.7639,197.3593 98.4459,200.4693 C99.7399,206.3833 100.5619,209.3763 101.6249,212.8293 C101.7009,213.0773 101.5629,213.3363 101.3169,213.4123 C101.2709,213.4273 101.2249,213.4333 101.1799,213.4333" id="Fill-51" fill="#000000"></path>
            <path d="M93.3459,218.2633 C93.1649,218.2633 92.9929,218.1583 92.9179,217.9823 C92.3669,216.6963 91.7339,215.2723 91.0819,213.8083 C89.9109,211.1763 88.6999,208.4543 87.7789,206.1183 C87.6519,205.7993 87.4919,205.4033 87.3069,204.9483 C86.5949,203.1903 85.5189,200.5343 84.6289,197.8713 C84.5479,197.6273 84.6799,197.3643 84.9229,197.2823 C85.1689,197.2003 85.4319,197.3323 85.5129,197.5763 C86.3939,200.2113 87.4629,202.8513 88.1699,204.5973 C88.3559,205.0563 88.5179,205.4543 88.6449,205.7763 C89.5599,208.0933 90.7669,210.8073 91.9339,213.4293 C92.5859,214.8983 93.2219,216.3253 93.7749,217.6143 C93.8749,217.8503 93.7659,218.1243 93.5299,218.2263 C93.4699,218.2513 93.4079,218.2633 93.3459,218.2633" id="Fill-53" fill="#000000"></path>
            <path d="M168.3518,256.152 C168.1548,256.152 167.9708,256.025 167.9078,255.827 C167.8298,255.581 167.9658,255.319 168.2108,255.242 C171.2178,254.289 170.4388,247.428 169.6218,244.445 L169.3298,243.392 C168.8028,241.509 168.3058,239.73 167.9908,237.523 C167.9548,237.268 168.1318,237.032 168.3848,236.995 C168.6418,236.963 168.8758,237.136 168.9138,237.39 C169.2208,239.538 169.7088,241.289 170.2258,243.142 L170.5198,244.199 C171.2578,246.893 172.4708,254.869 168.4928,256.13 C168.4458,256.144 168.3988,256.152 168.3518,256.152" id="Fill-55" fill="#000000"></path>
            <path d="M166.718,258.9723 C166.642,258.9723 166.566,258.9663 166.488,258.9563 C164.691,258.7203 164.328,256.1583 163.945,253.4453 C163.857,252.8183 163.766,252.1833 163.658,251.5743 C163.18,248.8963 161.846,243.3933 160.297,240.0303 C160.19,239.7953 160.291,239.5193 160.526,239.4113 C160.756,239.3043 161.036,239.4053 161.143,239.6403 C162.728,243.0823 164.089,248.6863 164.575,251.4103 C164.685,252.0303 164.778,252.6763 164.867,253.3153 C165.186,255.5633 165.514,257.8883 166.61,258.0323 C166.808,258.0593 166.953,258.0203 167.079,257.9083 C167.767,257.2903 167.717,254.9783 167.683,253.4483 L167.676,253.0953 C167.636,250.9963 167.497,249.1523 166.951,246.9793 C166.68,245.8903 166.375,244.7983 166.08,243.7363 C165.44,241.4343 164.834,239.2603 164.658,237.5353 C164.632,237.2793 164.819,237.0493 165.074,237.0243 C165.323,236.9943 165.56,237.1823 165.585,237.4403 C165.753,239.0863 166.348,241.2243 166.977,243.4863 C167.276,244.5573 167.581,245.6573 167.856,246.7523 C168.422,249.0113 168.566,250.9143 168.608,253.0773 L168.614,253.4273 C168.655,255.3303 168.707,257.6993 167.701,258.6013 C167.428,258.8453 167.092,258.9723 166.718,258.9723" id="Fill-57" fill="#000000"></path>
            <path d="M163.636,260.445 C163.505,260.445 163.361,260.427 163.203,260.388 C161.83,260.047 160.984,257.3 159.935,253.461 C159.761,252.824 159.588,252.156 159.408,251.466 C158.679,248.658 157.852,245.476 156.519,242.412 C156.416,242.175 156.525,241.901 156.761,241.799 C156.994,241.699 157.271,241.804 157.374,242.041 C158.735,245.172 159.572,248.391 160.31,251.23 C160.49,251.919 160.661,252.582 160.834,253.215 C161.449,255.471 162.48,259.248 163.429,259.484 C163.735,259.561 163.847,259.464 163.89,259.426 C164.48,258.913 164.245,256.724 164.168,256.006 L164.148,255.802 C163.672,251.049 162.699,247.264 161.072,241.943 C160.996,241.696 161.135,241.436 161.381,241.361 C161.628,241.286 161.887,241.425 161.963,241.67 C163.608,247.049 164.591,250.88 165.073,255.71 L165.095,255.906 C165.283,257.667 165.342,259.397 164.501,260.13 C164.323,260.285 164.04,260.445 163.636,260.445" id="Fill-59" fill="#000000"></path>
            <path d="M159.2307,256.5241 C159.1737,256.5241 159.1177,256.5191 159.0597,256.5101 C157.7337,256.2961 157.4417,255.5401 156.9597,254.2851 L156.7227,253.6781 C156.3857,252.8341 156.0037,251.7121 155.6367,250.6281 C155.2657,249.5361 154.8827,248.4051 154.5437,247.5561 C153.2007,244.2021 152.2327,240.9931 151.5837,237.7461 C151.3347,236.5041 151.1817,235.3911 151.0327,234.3141 C150.8847,233.2491 150.7327,232.1481 150.4907,230.9331 C150.2517,229.7411 148.7267,226.5361 147.9087,224.8131 L147.7277,224.4341 C146.6517,222.1661 146.5737,221.5251 148.1877,219.8891 C148.3687,219.7071 148.6627,219.7051 148.8457,219.8861 C149.0287,220.0661 149.0307,220.3611 148.8497,220.5451 C147.6027,221.8071 147.5897,221.9711 148.5707,224.0361 L148.7497,224.4141 C149.6447,226.2951 151.1427,229.4461 151.4037,230.7511 C151.6517,231.9921 151.8057,233.1071 151.9557,234.1861 C152.1017,235.2511 152.2537,236.3501 152.4967,237.5641 C153.1347,240.7531 154.0857,243.9091 155.4077,247.2111 C155.7567,248.0831 156.1447,249.2241 156.5197,250.3291 C156.8827,251.4011 157.2597,252.5111 157.5867,253.3331 L157.8287,253.9511 C158.3087,255.1981 158.4377,255.4651 159.2077,255.5891 C159.5447,255.3031 159.6227,253.9591 159.4387,252.5781 C159.1677,250.5481 158.6017,248.7161 157.8877,246.3961 C157.6327,245.5711 157.3627,244.6941 157.0847,243.7401 C157.0137,243.4921 157.1567,243.2341 157.4027,243.1621 C157.6537,243.0881 157.9087,243.2331 157.9807,243.4791 C158.2557,244.4291 158.5247,245.3011 158.7777,246.1221 C159.4767,248.3901 160.0807,250.3481 160.3607,252.4541 C160.4807,253.3461 160.6757,255.5031 159.9157,256.2451 C159.7267,256.4271 159.4887,256.5241 159.2307,256.5241" id="Fill-61" fill="#000000"></path>
            <path d="M171.0657,244.8815 C170.6497,244.8815 170.2367,244.7635 169.9197,244.5295 C169.7127,244.3775 169.6687,244.0855 169.8217,243.8785 C169.9737,243.6715 170.2657,243.6265 170.4727,243.7795 C170.7717,243.9995 171.3137,244.0085 171.6507,243.7955 C171.9357,243.6155 172.0397,243.3155 171.9617,242.8995 C171.7747,241.9155 171.4617,241.1295 171.1297,240.2965 C170.7547,239.3545 170.3667,238.3795 170.1967,237.1305 C170.0747,236.2375 169.6237,233.1855 168.9227,231.3645 C168.3037,229.7545 167.4547,228.9895 166.4707,228.1035 C165.5157,227.2415 164.4317,226.2655 163.4507,224.3665 C162.7527,223.0155 162.1377,221.3645 161.5447,219.7695 C160.8167,217.8145 159.7247,214.8805 159.0427,214.8805 C159.0277,214.8805 159.0127,214.8815 158.9997,214.8855 C158.7517,214.9325 158.5027,214.7705 158.4527,214.5175 C158.4027,214.2655 158.5677,214.0205 158.8207,213.9705 C160.2807,213.7015 161.2207,216.2275 162.4177,219.4445 C163.0027,221.0145 163.6057,222.6375 164.2787,223.9395 C165.1817,225.6875 166.1547,226.5645 167.0947,227.4105 C168.1227,228.3375 169.0917,229.2115 169.7937,231.0295 C170.5297,232.9445 170.9947,236.0875 171.1187,237.0055 C171.2747,238.1405 171.6247,239.0205 171.9957,239.9515 C172.3287,240.7885 172.6727,241.6545 172.8767,242.7265 C173.0267,243.5205 172.7607,244.1965 172.1477,244.5825 C171.8317,244.7825 171.4477,244.8815 171.0657,244.8815" id="Fill-63" fill="#000000"></path>
            <path d="M148.0852,223.2721 C147.8622,223.2721 147.6652,223.1111 147.6272,222.8821 C147.5842,222.6291 147.7562,222.3891 148.0102,222.3471 C151.5832,221.7511 158.8142,218.6581 159.3202,215.1101 C159.3582,214.8541 159.5992,214.6811 159.8482,214.7141 C160.1032,214.7511 160.2792,214.9861 160.2432,215.2411 C159.6162,219.6271 151.4592,222.7161 148.1622,223.2661 C148.1372,223.2701 148.1102,223.2721 148.0852,223.2721" id="Fill-65" fill="#000000"></path>
            <path d="M114.5569,227.7214 C114.4149,227.7214 114.2759,227.6574 114.1839,227.5344 C113.1489,226.1574 110.3789,223.6304 107.7109,221.9564 C104.6609,220.0424 103.9279,218.4064 103.2279,216.3034 C102.9129,215.3614 102.1769,213.1564 101.0409,212.7774 C100.7969,212.6964 100.6649,212.4314 100.7469,212.1884 C100.8279,211.9434 101.0909,211.8124 101.3359,211.8934 C102.9129,212.4194 103.6929,214.7534 104.1109,216.0084 C104.7709,217.9864 105.4119,219.4134 108.2059,221.1664 C111.0019,222.9214 113.8199,225.4984 114.9289,226.9764 C115.0829,227.1824 115.0419,227.4744 114.8359,227.6274 C114.7519,227.6914 114.6549,227.7214 114.5569,227.7214" id="Fill-67" fill="#000000"></path>
            <path d="M91.2971,218.8112 C91.1001,218.8112 90.9141,218.8012 90.7411,218.7822 C90.4851,218.7532 90.3021,218.5222 90.3311,218.2662 C90.3601,218.0102 90.5951,217.8272 90.8471,217.8562 C92.8631,218.0972 97.0551,216.7032 99.4481,214.5742 C100.3591,213.7652 100.8661,213.0472 101.0001,212.3782 C101.0501,212.1252 101.2921,211.9582 101.5491,212.0132 C101.8011,212.0632 101.9641,212.3092 101.9141,212.5612 C101.6811,213.7272 100.7481,214.6662 100.0671,215.2712 C97.6571,217.4142 93.6651,218.8112 91.2971,218.8112" id="Fill-69" fill="#000000"></path>
            <path d="M97.2971,233.7262 C97.1021,233.7262 96.9201,233.6032 96.8561,233.4082 L96.3141,231.7712 C95.8541,230.3762 95.5511,229.4552 94.8631,227.6042 C94.1801,225.7682 93.5211,224.5992 92.7581,223.2452 C92.5151,222.8132 92.2641,222.3692 92.0051,221.8872 C91.8031,221.5122 91.5251,221.1112 91.2561,220.7222 C90.6101,219.7902 90.0001,218.9112 90.1641,218.0962 C90.3511,217.1712 91.0921,216.3552 91.6891,215.6982 L91.9181,215.4432 C92.0891,215.2492 92.3831,215.2332 92.5751,215.4022 C92.7691,215.5732 92.7861,215.8672 92.6161,216.0602 L92.3781,216.3242 C91.8871,216.8662 91.2131,217.6092 91.0771,218.2802 C90.9921,218.7052 91.5391,219.4952 92.0221,220.1922 C92.3051,220.6012 92.5991,221.0252 92.8251,221.4452 C93.0821,221.9212 93.3281,222.3602 93.5691,222.7882 C94.3191,224.1182 95.0271,225.3732 95.7361,227.2792 C96.4311,229.1462 96.7351,230.0742 97.1981,231.4802 L97.7381,233.1132 C97.8201,233.3572 97.6891,233.6212 97.4441,233.7032 C97.3961,233.7192 97.3461,233.7262 97.2971,233.7262" id="Fill-71" fill="#000000"></path>
            <path d="M143.2278,288.0221 C143.1948,288.0221 143.1628,288.0181 143.1288,288.0121 L97.6798,278.2341 C97.4668,278.1881 97.3138,278.0011 97.3118,277.7831 L96.8677847,227.3421 C96.8668,227.2171 96.9148,227.0981 97.0028,227.0091 C97.0898,226.9211 97.2088,226.8721 97.3328,226.8721 L149.5368,226.8721 C149.7938,226.8721 150.0018,227.0801 150.0018,227.3371 C150.0018,227.5951 149.7938,227.8031 149.5368,227.8031 L97.8028,227.8031 L98.2408,277.4021 L143.2408,287.0831 L193.2798,279.1921 L193.0988,227.8031 L166.6688,227.8031 C166.4128,227.8031 166.2038,227.5951 166.2038,227.3371 C166.2038,227.0801 166.4128,226.8721 166.6688,226.8721 L193.5628,226.8721 C193.8198,226.8721 194.0288,227.0791 194.0288,227.3351 L194.212804,279.5871 C194.2138,279.8181 194.0458,280.0131 193.8198,280.0501 L143.2998,288.0161 C143.2758,288.0201 143.2508,288.0221 143.2278,288.0221" id="Fill-73" fill="#000000"></path>
            <path d="M168.0832,229.2673 C167.8362,229.2673 167.6302,229.0733 167.6182,228.8243 C167.6052,228.5673 167.8032,228.3493 168.0612,228.3363 L193.2762,227.0913 C193.5272,227.0653 193.7522,227.2773 193.7642,227.5343 C193.7762,227.7903 193.5792,228.0083 193.3222,228.0213 L168.1052,229.2663 C168.0992,229.2673 168.0912,229.2673 168.0832,229.2673" id="Fill-75" fill="#000000"></path>
            <path d="M142.9739,230.5065 L97.5599,228.0215 C97.3029,228.0085 97.1059,227.7875 97.1199,227.5305 C97.1339,227.2745 97.3479,227.0595 97.6109,227.0915 L142.9759,229.5765 L150.3999,229.2085 C150.6499,229.1835 150.8759,229.3945 150.8879,229.6515 C150.9009,229.9075 150.7029,230.1255 150.4459,230.1385 L142.9739,230.5065 Z" id="Fill-77" fill="#000000"></path>
            <path d="M143.3176,287.3883 C143.0616,287.3883 142.8526,287.1813 142.8516,286.9243 L142.613596,230.4293 C142.6126,230.1713 142.8196,229.9623 143.0776,229.9613 L143.0796,229.9613 C143.3356,229.9613 143.5446,230.1683 143.5456,230.4253 L143.783604,286.9213 C143.7846,287.1783 143.5776,287.3883 143.3196,287.3883 L143.3176,287.3883 Z" id="Fill-79" fill="#000000"></path>
            <path d="M55.3957,272.651 C52.3877,272.651 49.3437,271.688 46.7867,269.77 C46.5807,269.615 46.5387,269.323 46.6937,269.118 C46.8477,268.911 47.1397,268.869 47.3447,269.024 C52.0217,272.531 58.4227,272.626 62.9167,269.256 C63.5407,268.79 64.1727,268.04 64.8437,267.244 C66.2267,265.606 67.7937,263.749 69.8927,263.749 C70.1497,263.749 70.3587,263.957 70.3587,264.214 C70.3587,264.472 70.1497,264.68 69.8927,264.68 C68.2267,264.68 66.8697,266.289 65.5557,267.845 C64.8497,268.682 64.1837,269.471 63.4747,270.003 C61.1187,271.771 58.2727,272.651 55.3957,272.651" id="Fill-81" fill="#000000"></path>
            <path d="M76.6096,289.3454 C69.6856,289.3454 65.0796,288.9204 61.4536,288.4924 C59.2546,288.2364 54.7236,287.6544 50.8326,287.1564 L48.8406,286.9014 C47.2176,286.6944 45.9486,286.6654 44.9266,286.6424 C43.2616,286.6054 42.1626,286.5804 41.1826,285.8194 C40.5006,285.2874 40.1106,283.7204 42.3856,276.1224 C43.2746,273.1524 45.3156,268.1244 47.3276,268.1244 C47.5856,268.1244 47.7936,268.3334 47.7936,268.5904 C47.7936,268.8484 47.5856,269.0564 47.3276,269.0564 C46.5496,269.0564 44.7106,271.6054 43.2786,276.3904 C40.9946,284.0154 41.6086,284.9704 41.7556,285.0844 C42.4906,285.6564 43.4156,285.6764 44.9486,285.7104 C45.9906,285.7354 47.2886,285.7634 48.9596,285.9764 L50.9506,286.2324 C54.8386,286.7304 59.3646,287.3104 61.5616,287.5684 C65.5046,288.0334 70.6226,288.4954 78.6456,288.4024 C86.4816,288.3114 94.0106,288.0044 98.7876,287.5824 C101.6866,287.3274 102.9456,286.0314 103.4366,285.2824 C103.8786,284.6094 103.9176,284.0784 103.8666,283.9264 C103.6716,283.3464 103.0436,282.7524 102.0466,282.2084 C100.3976,281.3094 98.5436,280.6814 96.7506,280.0744 C95.7846,279.7454 94.7866,279.4084 93.8306,279.0314 C85.1406,275.6074 75.5556,269.9914 69.4126,264.7254 C69.2166,264.5574 69.1936,264.2624 69.3616,264.0684 C69.5296,263.8734 69.8236,263.8514 70.0176,264.0174 C76.0896,269.2224 85.5716,274.7764 94.1716,278.1644 C95.1066,278.5334 96.0936,278.8664 97.0486,279.1914 C98.8806,279.8124 100.7736,280.4524 102.4926,281.3914 C103.7166,282.0584 104.4756,282.8124 104.7506,283.6324 C104.9306,284.1754 104.7206,285.0234 104.2156,285.7924 C103.6306,286.6834 102.1596,288.2214 98.8696,288.5104 C94.0716,288.9344 86.5146,289.2414 78.6566,289.3334 C77.9526,289.3424 77.2696,289.3454 76.6096,289.3454" id="Fill-83" fill="#000000"></path>
            <path d="M48.7219,293.7897 C44.4499,293.7897 39.6939,293.4957 38.5699,292.6777 C36.9809,291.5207 38.4379,288.6307 39.8459,285.8347 C40.1089,285.3137 40.3639,284.8097 40.5829,284.3397 C40.6919,284.1077 40.9719,284.0077 41.2029,284.1167 C41.4359,284.2267 41.5359,284.5037 41.4269,284.7367 C41.2029,285.2127 40.9449,285.7257 40.6779,286.2537 C39.6189,288.3547 38.1689,291.2337 39.1179,291.9247 C40.3979,292.8547 50.1169,293.0777 54.5269,292.6377 C57.3939,292.3507 65.0099,291.9587 67.8899,292.1837 C73.7469,292.6337 82.9759,292.7287 89.3969,291.8737 C98.5209,290.6567 101.9889,289.2917 103.2919,288.3607 C105.3529,286.8917 105.0069,286.2397 104.3189,284.9407 C104.1779,284.6767 104.0309,284.3967 103.8949,284.0977 C103.7879,283.8617 103.8929,283.5867 104.1269,283.4797 C104.3599,283.3767 104.6379,283.4787 104.7429,283.7137 C104.8709,283.9947 105.0099,284.2567 105.1419,284.5047 C105.8699,285.8777 106.5589,287.1757 103.8329,289.1197 C101.8129,290.5617 96.9969,291.7997 89.5199,292.7977 C82.9979,293.6657 73.9209,293.5817 67.8189,293.1117 C64.9869,292.8937 57.4579,293.2797 54.6189,293.5637 C53.2449,293.7007 51.0559,293.7897 48.7219,293.7897" id="Fill-85" fill="#000000"></path>
            <path d="M47.3332,269.6022 C47.2952,269.6022 47.2572,269.5982 47.2192,269.5872 C46.9692,269.5252 46.8182,269.2722 46.8812,269.0222 C46.8882,268.9962 47.5502,266.3712 47.7082,265.1732 C47.7412,264.9182 47.9722,264.7402 48.2312,264.7722 C48.4862,264.8062 48.6662,265.0402 48.6322,265.2952 C48.4672,266.5462 47.8122,269.1412 47.7842,269.2512 C47.7302,269.4622 47.5412,269.6022 47.3332,269.6022" id="Fill-87" fill="#000000"></path>
            <path d="M70.1223,264.5466 C69.9883,264.5466 69.8553,264.4886 69.7643,264.3786 C69.6003,264.1806 69.6273,263.8866 69.8243,263.7226 C71.4263,262.3956 71.1913,261.0116 70.8373,258.9176 C70.5453,257.1976 70.1833,255.0596 70.8973,252.4206 C71.5143,250.1426 72.0823,248.4726 72.5833,247.0006 C73.3393,244.7776 73.9363,243.0236 74.3743,240.2016 C74.5683,238.9516 74.7363,237.7556 74.9113,236.5116 C75.3393,233.4716 75.8233,230.0256 76.8413,224.7586 C77.5343,221.1646 78.6863,217.5066 80.0203,213.2696 C81.4293,208.7936 83.0263,203.7196 84.4393,197.5516 C86.8233,187.1476 87.4363,179.4596 86.3143,174.0506 C84.9193,167.3146 81.2133,162.1976 78.9993,159.1416 L78.4603,158.3946 C76.1393,155.1456 73.2093,151.3696 70.1073,147.3726 C66.1963,142.3336 61.7643,136.6236 57.5393,130.6636 C56.6883,129.4656 55.8053,128.1576 54.8713,126.7756 C47.3413,115.6306 37.0273,100.3666 14.7863,96.7146 C14.5323,96.6726 14.3603,96.4336 14.4023,96.1796 C14.4433,95.9256 14.6823,95.7496 14.9363,95.7956 C37.5753,99.5126 48.4483,115.6056 55.6433,126.2546 C56.5733,127.6306 57.4523,128.9316 58.2993,130.1256 C62.5133,136.0676 66.9383,141.7706 70.8433,146.8016 C73.9503,150.8066 76.8863,154.5886 79.2183,157.8536 L79.7533,158.5956 C82.0113,161.7116 85.7903,166.9296 87.2273,173.8606 C88.3763,179.4036 87.7623,187.2216 85.3483,197.7586 C83.9263,203.9626 82.3233,209.0566 80.9083,213.5496 C79.5833,217.7586 78.4393,221.3946 77.7553,224.9346 C76.7423,230.1796 76.2603,233.6126 75.8343,236.6416 C75.6583,237.8896 75.4893,239.0896 75.2953,240.3446 C74.8453,243.2466 74.2053,245.1256 73.4653,247.3006 C72.9683,248.7606 72.4053,250.4146 71.7963,252.6646 C71.1363,255.1056 71.4653,257.0476 71.7553,258.7616 C72.1193,260.9116 72.4353,262.7696 70.4203,264.4396 C70.3323,264.5116 70.2273,264.5466 70.1223,264.5466" id="Fill-89" fill="#000000"></path>
            <path d="M58.3254,269.153 C57.0934,269.153 55.7684,268.964 54.3204,268.527 C52.0804,267.851 50.7424,267.1 49.6664,266.498 C48.7994,266.009 48.1724,265.658 47.3964,265.521 C47.1424,265.476 46.9734,265.235 47.0184,264.981 C47.0624,264.728 47.3064,264.551 47.5584,264.604 C48.4894,264.767 49.2104,265.173 50.1234,265.685 C51.1584,266.265 52.4474,266.989 54.5904,267.635 C59.8294,269.217 63.4024,267.291 66.9014,265.002 C67.1174,264.86 67.4064,264.922 67.5474,265.136 C67.6874,265.351 67.6274,265.64 67.4124,265.78 C64.6714,267.574 61.8814,269.153 58.3254,269.153" id="Fill-91" fill="#000000"></path>
            <path d="M47.8078,266.1032 C47.6848,266.1032 47.5618,266.0542 47.4688,265.9572 C45.7058,264.0882 46.6758,260.7202 47.9028,256.4562 C48.6758,253.7702 49.5518,250.7262 49.8268,247.6532 C50.1948,243.5362 50.0028,241.4192 49.7618,238.7392 C49.5518,236.4062 49.2888,233.5002 49.3248,228.4092 C49.3528,224.1092 50.0368,219.7082 50.6408,215.8262 C50.9068,214.1162 51.1578,212.5012 51.3088,211.1382 C51.5988,208.5352 52.1888,205.9742 52.7608,203.4992 C53.7208,199.3332 54.6288,195.4002 54.2758,191.1652 C54.1418,189.5552 53.7358,184.6562 52.1208,182.2342 C51.9778,182.0202 52.0358,181.7302 52.2498,181.5872 C52.4638,181.4452 52.7528,181.5022 52.8958,181.7162 C54.4628,184.0672 54.9638,188.1902 55.2038,191.0882 C55.5698,195.4672 54.6028,199.6572 53.6678,203.7082 C53.1028,206.1592 52.5188,208.6922 52.2358,211.2412 C52.0808,212.6242 51.8288,214.2492 51.5618,215.9692 C50.9628,219.8202 50.2848,224.1842 50.2558,228.4152 C50.2218,233.4622 50.4818,236.3412 50.6898,238.6572 C50.9358,241.3822 51.1298,243.5352 50.7538,247.7372 C50.4718,250.8982 49.5818,253.9872 48.7978,256.7132 C47.6988,260.5352 46.7478,263.8352 48.1478,265.3182 C48.3238,265.5042 48.3148,265.7992 48.1278,265.9762 C48.0378,266.0612 47.9228,266.1032 47.8078,266.1032" id="Fill-93" fill="#000000"></path>
            <path d="M81.6907,162.3102 C81.5287,162.3102 81.3717,162.2252 81.2857,162.0752 C81.1577,161.8512 81.2357,161.5662 81.4597,161.4392 C85.5627,159.1012 90.0807,158.2572 94.4497,157.4412 C97.9967,156.7782 101.6647,156.0922 105.1007,154.6112 C107.3017,153.6622 109.5507,151.1272 112.1567,148.1932 C114.2127,145.8742 116.5447,143.2482 119.1887,141.0912 C119.3877,140.9272 119.6817,140.9582 119.8437,141.1582 C120.0067,141.3572 119.9767,141.6512 119.7777,141.8132 C117.1917,143.9232 114.8867,146.5202 112.8527,148.8112 C110.1747,151.8292 107.8617,154.4352 105.4697,155.4662 C101.9377,156.9902 98.2177,157.6842 94.6207,158.3572 C90.1297,159.1962 85.8877,159.9892 81.9197,162.2482 C81.8477,162.2902 81.7687,162.3102 81.6907,162.3102" id="Fill-95" fill="#000000"></path>
            <path d="M136.0481,132.4987 C136.0091,132.4987 135.9701,132.4937 135.9311,132.4827 C135.6821,132.4187 135.5321,132.1647 135.5971,131.9157 C136.2391,129.4417 134.4591,127.7327 133.2811,126.6027 C133.1481,126.4757 133.0231,126.3547 132.9111,126.2437 L131.7531,125.0787 C127.7521,121.0407 123.2171,116.4637 118.0491,114.7397 C116.7721,114.3137 115.7571,114.5337 115.1921,115.3577 C114.4281,116.4717 114.5321,118.7917 116.5661,121.2527 C116.7301,121.4507 116.7011,121.7447 116.5031,121.9087 C116.3051,122.0727 116.0111,122.0447 115.8471,121.8467 C113.4941,118.9977 113.4371,116.2697 114.4231,114.8317 C115.2221,113.6677 116.6871,113.3037 118.3441,113.8557 C123.7231,115.6497 128.3411,120.3107 132.4151,124.4227 L133.5691,125.5847 C133.6771,125.6917 133.7971,125.8077 133.9261,125.9307 C135.1801,127.1347 137.2781,129.1477 136.4991,132.1497 C136.4441,132.3597 136.2551,132.4987 136.0481,132.4987" id="Fill-97" fill="#000000"></path>
            <path d="M116.3821,122.3512 C116.2621,122.3512 116.1431,122.3062 116.0521,122.2152 C113.9891,120.1532 112.6661,114.2922 111.6021,109.5822 C111.1721,107.6782 110.8001,106.0342 110.4601,105.0132 C110.3791,104.7692 110.5111,104.5052 110.7551,104.4242 C111.0001,104.3422 111.2631,104.4742 111.3441,104.7182 C111.6991,105.7832 112.0751,107.4492 112.5111,109.3772 C113.4931,113.7272 114.8391,119.6842 116.7111,121.5562 C116.8931,121.7382 116.8931,122.0332 116.7111,122.2152 C116.6201,122.3062 116.5011,122.3512 116.3821,122.3512" id="Fill-99" fill="#000000"></path>
            <path d="M136.3791,135.8522 C136.2671,135.8522 136.1551,135.8122 136.0661,135.7322 C135.8751,135.5592 135.8601,135.2642 136.0331,135.0742 L136.2671,134.8172 C137.5291,133.4282 139.4361,131.3312 140.8231,128.6372 L141.2471,127.8172 C142.5051,125.3942 143.4991,123.4802 143.2031,122.2722 C143.0321,121.5702 142.3081,120.5822 141.6681,119.7112 C141.1691,119.0312 140.6961,118.3872 140.4401,117.8382 C139.3391,115.4852 138.8451,113.6522 138.3671,111.8802 C137.9491,110.3302 137.5541,108.8642 136.7761,107.1312 C135.1191,103.4362 134.0631,101.5952 134.0521,101.5782 C133.9241,101.3542 134.0001,101.0702 134.2231,100.9412 C134.4461,100.8122 134.7311,100.8892 134.8591,101.1122 C134.9021,101.1872 135.9461,103.0042 137.6261,106.7502 C138.4341,108.5502 138.8381,110.0502 139.2671,111.6382 C139.7331,113.3712 140.2171,115.1642 141.2841,117.4442 C141.5021,117.9102 141.9471,118.5172 142.4191,119.1612 C143.1441,120.1482 143.8941,121.1682 144.1081,122.0502 C144.4861,123.5992 143.4221,125.6502 142.0741,128.2472 L141.6511,129.0642 C140.2081,131.8672 138.2511,134.0192 136.9561,135.4432 L136.7241,135.6992 C136.6321,135.8012 136.5051,135.8522 136.3791,135.8522" id="Fill-101" fill="#000000"></path>
            <path d="M49.1155,178.7096 C49.0115,178.7096 48.9055,178.6746 48.8185,178.6026 C43.5295,174.2166 38.4835,168.4806 33.3935,161.0706 C32.3545,159.5586 31.1335,157.7426 29.8415,155.8236 C27.1755,151.8606 24.1515,147.3696 21.8915,144.2966 C20.3535,142.2056 18.8025,140.5266 17.3015,138.9026 C13.0305,134.2846 8.9975,129.9216 6.4095,117.2896 C6.3575,117.0376 6.5205,116.7916 6.7725,116.7406 C7.0245,116.6886 7.2705,116.8516 7.3225,117.1036 C9.8575,129.4796 13.8045,133.7496 17.9845,138.2716 C19.5035,139.9136 21.0735,141.6116 22.6415,143.7446 C24.9145,146.8336 27.9425,151.3326 30.6145,155.3036 C31.9045,157.2206 33.1245,159.0326 34.1615,160.5426 C39.2025,167.8826 44.1915,173.5546 49.4135,177.8856 C49.6115,178.0496 49.6385,178.3436 49.4745,178.5416 C49.3835,178.6526 49.2505,178.7096 49.1155,178.7096" id="Fill-103" fill="#000000"></path>
            <path d="M29.1897,264.8932 C29.1437,264.8932 29.0967,264.8872 29.0507,264.8722 C28.8047,264.7942 28.6687,264.5342 28.7457,264.2892 C29.3617,262.3232 30.5967,260.8362 31.7927,259.3982 C32.5887,258.4412 33.4117,257.4502 34.0167,256.3442 C35.2757,254.0452 35.4787,251.0262 35.6737,248.1042 C35.7547,246.8912 35.8327,245.7462 35.9827,244.6682 C36.5507,240.5872 37.4727,235.7742 40.3417,228.2582 C41.9027,224.1682 43.5987,221.2792 45.3937,218.2192 C46.9427,215.5812 48.5427,212.8542 50.1717,209.1482 C51.7317,205.6012 52.9967,202.1782 54.0987,196.9982 C54.1527,196.7472 54.3997,196.5892 54.6517,196.6402 C54.9037,196.6932 55.0637,196.9412 55.0107,197.1932 C53.8917,202.4502 52.6077,205.9232 51.0247,209.5232 C49.3737,213.2782 47.7587,216.0302 46.1977,218.6902 C44.4217,221.7152 42.7457,224.5732 41.2117,228.5912 C38.3777,236.0192 37.4657,240.7702 36.9047,244.7972 C36.7587,245.8412 36.6837,246.9712 36.6037,248.1662 C36.4007,251.1882 36.1917,254.3132 34.8347,256.7922 C34.1857,257.9772 33.3337,259.0022 32.5087,259.9942 C31.3187,261.4252 30.1957,262.7772 29.6347,264.5672 C29.5727,264.7662 29.3877,264.8932 29.1897,264.8932" id="Fill-105" fill="#000000"></path>
            <path d="M43.1692,275.4987 C43.1122,275.4987 43.0552,275.4887 42.9982,275.4667 C39.0112,273.8947 36.2482,271.2587 34.2312,269.3337 C33.6392,268.7677 33.1272,268.2787 32.6662,267.8947 C32.4282,267.6957 32.1152,267.3877 31.7612,267.0367 C30.9182,266.2017 29.5082,264.8047 28.7442,264.8047 C28.4872,264.8047 28.2782,264.5957 28.2782,264.3387 C28.2782,264.0807 28.4872,263.8727 28.7442,263.8727 C29.8912,263.8727 31.2922,265.2607 32.4172,266.3747 C32.7482,266.7027 33.0392,266.9927 33.2632,267.1797 C33.7472,267.5827 34.2702,268.0827 34.8752,268.6587 C36.8362,270.5317 39.5222,273.0947 43.3412,274.6007 C43.5802,274.6937 43.6972,274.9657 43.6032,275.2047 C43.5302,275.3877 43.3552,275.4987 43.1692,275.4987" id="Fill-107" fill="#000000"></path>
            <path d="M14.0764,270.7839 C12.2744,270.7839 10.6214,270.0629 9.5504,267.9199 C9.4344,267.6889 9.5284,267.4089 9.7584,267.2949 C9.9884,267.1789 10.2684,267.2729 10.3834,267.5029 C12.2924,271.3229 16.2794,269.8269 20.5474,267.8069 C20.9204,267.6309 21.2734,267.4639 21.6034,267.3139 C24.9154,265.8199 27.3504,264.5139 27.3754,264.5019 C27.6014,264.3819 27.8844,264.4659 28.0064,264.6919 C28.1284,264.9189 28.0434,265.2009 27.8164,265.3229 C27.7914,265.3369 25.3284,266.6559 21.9864,268.1639 C21.6624,268.3099 21.3134,268.4749 20.9454,268.6499 C19.0534,269.5459 16.4374,270.7839 14.0764,270.7839" id="Fill-109" fill="#000000"></path>
            <path d="M10.591,268.8356 C10.543,268.8356 10.495,268.8286 10.448,268.8136 C10.203,268.7346 10.069,268.4716 10.148,268.2276 C10.384,267.4906 11.01,265.4436 11.06,264.8226 C11.081,264.5676 11.301,264.3806 11.562,264.3966 C11.819,264.4166 12.009,264.6416 11.988,264.8976 C11.921,265.7386 11.125,268.2306 11.034,268.5126 C10.971,268.7096 10.788,268.8356 10.591,268.8356" id="Fill-111" fill="#000000"></path>
            <path d="M40.7522,285.7829 C40.7422,285.7829 40.7312,285.7829 40.7222,285.7819 C40.6602,285.7779 34.5652,285.3799 29.8762,284.8239 L28.6642,284.6789 C25.4302,284.2869 21.4052,283.7999 16.6992,283.6599 C15.2362,283.6159 13.8892,283.6339 12.7022,283.6469 C9.4832,283.6889 7.1562,283.7149 5.9202,282.4779 C4.8702,281.4289 6.3452,276.1309 6.7672,274.8749 C6.9202,274.4179 7.0912,273.8689 7.2752,273.2759 C8.5222,269.2829 9.4042,266.6719 10.6712,266.7819 C10.9272,266.8039 11.1162,267.0309 11.0942,267.2869 C11.0712,267.5379 10.8622,267.7399 10.6032,267.7109 C9.9232,267.9199 8.6912,271.8649 8.1652,273.5539 C7.9792,274.1529 7.8052,274.7089 7.6492,275.1719 C6.6862,278.0429 6.2322,281.3539 6.5842,281.8249 C7.5382,282.7789 9.7012,282.7529 12.6902,282.7159 C13.8882,282.6999 15.2422,282.6839 16.7272,282.7279 C21.4762,282.8699 25.5232,283.3599 28.7762,283.7539 L29.9862,283.8989 C34.6492,284.4519 40.7212,284.8479 40.7812,284.8519 C41.0382,284.8689 41.2322,285.0909 41.2172,285.3469 C41.2002,285.5939 40.9952,285.7829 40.7522,285.7829" id="Fill-113" fill="#000000"></path>
            <path d="M38.1233,289.6217 C37.4623,289.6217 36.4893,289.5287 35.2413,289.4097 C32.4173,289.1407 28.1503,288.7317 24.0653,289.1567 C15.9383,290.0017 6.4813,289.4257 4.7263,288.3797 C4.0273,287.9627 3.6033,287.4057 3.4663,286.7227 C3.1503,285.1487 4.4593,283.3777 5.3253,282.2057 L5.6073,281.8197 C5.7583,281.6097 6.0493,281.5627 6.2573,281.7117 C6.4673,281.8617 6.5153,282.1527 6.3653,282.3617 L6.0743,282.7597 C5.3523,283.7357 4.1443,285.3697 4.3803,286.5397 C4.4643,286.9597 4.7333,287.2997 5.2033,287.5787 C6.4763,288.3367 15.2743,289.1337 23.9693,288.2297 C28.1443,287.7957 32.4703,288.2097 35.3303,288.4817 C36.7903,288.6217 37.9413,288.7317 38.4753,288.6757 C38.7253,288.6447 38.9603,288.8337 38.9873,289.0897 C39.0143,289.3457 38.8283,289.5747 38.5723,289.6007 C38.4443,289.6147 38.2943,289.6217 38.1233,289.6217" id="Fill-115" fill="#000000"></path>
            <path d="M22.0266,266.7633 C20.3616,266.7633 18.9826,266.3763 17.7426,266.0293 C17.3616,265.9223 16.9896,265.8193 16.6206,265.7273 L15.8866,265.5453 C13.4376,264.9343 12.3186,264.6573 11.2406,265.5083 C11.0396,265.6683 10.7466,265.6333 10.5866,265.4313 C10.4266,265.2303 10.4616,264.9373 10.6626,264.7773 C12.0996,263.6403 13.5246,263.9953 16.1116,264.6423 L16.8426,264.8233 C17.2206,264.9153 17.6036,265.0223 17.9936,265.1313 C20.6606,265.8793 23.6806,266.7243 28.8866,263.6453 C29.1076,263.5163 29.3936,263.5883 29.5246,263.8083 C29.6556,264.0313 29.5826,264.3163 29.3606,264.4483 C26.3576,266.2243 23.9926,266.7633 22.0266,266.7633" id="Fill-117" fill="#000000"></path>
            <path d="M11.0852,266.2839 C10.9212,266.2839 10.7622,266.1959 10.6762,266.0419 C8.6512,262.3549 9.0702,258.3799 9.6222,254.9439 C9.8982,253.2309 10.6482,251.3629 11.4422,249.3859 C12.2882,247.2789 13.2482,244.8899 13.7592,242.3409 C14.1262,240.5109 14.3692,238.1389 14.6492,235.3929 C14.8232,233.6859 15.0172,231.8019 15.2692,229.7359 C15.9432,224.1959 16.5752,221.5649 18.0782,215.9869 C18.8322,213.1879 19.8242,210.3529 20.7832,207.6099 C22.5112,202.6719 24.2962,197.5659 24.8052,192.4059 C24.8302,192.1489 25.0572,191.9709 25.3142,191.9869 C25.5702,192.0129 25.7582,192.2409 25.7322,192.4969 C25.2132,197.7679 23.4082,202.9279 21.6632,207.9169 C20.7092,210.6439 19.7232,213.4639 18.9782,216.2289 C17.4872,221.7619 16.8612,224.3689 16.1932,229.8479 C15.9422,231.9079 15.7502,233.7859 15.5762,235.4879 C15.2932,238.2579 15.0492,240.6489 14.6732,242.5239 C14.1452,245.1579 13.1682,247.5889 12.3072,249.7329 C11.5322,251.6609 10.8012,253.4809 10.5422,255.0919 C10.0152,258.3759 9.6102,262.1649 11.4932,265.5939 C11.6172,265.8189 11.5342,266.1019 11.3092,266.2259 C11.2382,266.2649 11.1612,266.2839 11.0852,266.2839" id="Fill-119" fill="#000000"></path>
            <path d="M25.3264,188.7487 C25.3164,188.7487 25.3054,188.7487 25.2954,188.7477 C25.0394,188.7307 24.8444,188.5097 24.8604,188.2527 C25.5394,177.8827 17.9854,164.3717 10.8524,152.5207 C7.3804,146.7527 1.4274,135.6747 0.5744,126.2957 C0.1104,121.1837 -1.3006,105.6287 15.7264,96.2057 C15.9504,96.0807 16.2344,96.1627 16.3594,96.3877 C16.4844,96.6127 16.4024,96.8957 16.1784,97.0207 C-0.3186,106.1497 1.0524,121.2497 1.5024,126.2107 C2.3384,135.4047 8.2194,146.3407 11.6504,152.0407 C18.8564,164.0127 26.4864,177.6757 25.7914,188.3127 C25.7744,188.5597 25.5694,188.7487 25.3264,188.7487" id="Fill-121" fill="#000000"></path>
            <path d="M14.301,97.6813 C14.118,97.6813 13.946,97.5733 13.871,97.3943 C13.703,96.9923 13.74,96.5653 13.979,96.1603 C15.271,93.9583 22.698,92.3763 29.219,91.6293 L30.892,91.4403 C36.214,90.8383 46.121,89.7203 55.805,88.0323 C65.779,86.2923 76.034,83.5343 82.821,81.7093 C85.468,80.9973 87.559,80.4353 88.969,80.1103 C98.794,77.8433 109.293,75.7293 112.665,77.2053 C114.369,77.9533 116.104,79.2503 118.3,80.8913 C120.488,82.5263 122.966,84.3773 126.172,86.2603 C126.394,86.3903 126.468,86.6763 126.338,86.8983 C126.207,87.1193 125.921,87.1953 125.7,87.0643 C122.449,85.1553 119.949,83.2853 117.742,81.6373 C115.594,80.0323 113.898,78.7643 112.29,78.0593 C108.748,76.5033 95.033,79.6663 89.178,81.0173 C87.784,81.3393 85.7,81.9003 83.063,82.6093 C76.26,84.4383 65.981,87.2023 55.965,88.9503 C46.253,90.6423 36.328,91.7633 30.996,92.3663 L29.325,92.5543 C20.375,93.5803 15.513,95.3873 14.782,96.6313 C14.669,96.8253 14.693,96.9443 14.731,97.0353 C14.829,97.2733 14.717,97.5463 14.48,97.6453 C14.421,97.6693 14.361,97.6813 14.301,97.6813" id="Fill-123" fill="#000000"></path>
            <path d="M138.3645,100.9382 C138.2285,100.9382 138.0945,100.8792 138.0035,100.7672 C136.8505,99.3522 136.5235,97.3002 137.1045,95.1382 C137.6635,93.0632 138.9755,91.3612 140.4495,90.8022 C141.4585,90.4222 142.5005,90.5422 143.3105,91.1332 C144.3625,91.9002 144.8885,93.3782 144.7935,95.2962 C144.7795,95.5542 144.5525,95.7562 144.3045,95.7392 C144.0475,95.7262 143.8495,95.5072 143.8625,95.2512 C143.9425,93.6572 143.5515,92.4612 142.7615,91.8862 C142.2105,91.4842 141.4865,91.4062 140.7795,91.6742 C139.5765,92.1292 138.4875,93.5842 138.0045,95.3802 C137.5095,97.2222 137.7785,99.0162 138.7245,100.1782 C138.8875,100.3772 138.8575,100.6712 138.6585,100.8342 C138.5715,100.9042 138.4685,100.9382 138.3645,100.9382" id="Fill-125" fill="#000000"></path>
            <path d="M140.6262,97.6315 C140.5702,97.6315 140.5142,97.6205 140.4582,97.5995 C140.2192,97.5075 140.0992,97.2375 140.1912,96.9975 C140.3842,96.4995 140.4922,95.2425 140.5182,94.8005 C140.5322,94.5435 140.7502,94.3445 141.0102,94.3625 C141.2672,94.3765 141.4632,94.5975 141.4472,94.8545 C141.4382,95.0315 141.3392,96.6105 141.0612,97.3325 C140.9892,97.5185 140.8132,97.6315 140.6262,97.6315" id="Fill-127" fill="#000000"></path>
            <path d="M146.3118,121.7507 C146.1558,121.7507 146.0028,121.6727 145.9158,121.5287 C145.7808,121.3107 145.8488,121.0227 146.0668,120.8887 C149.1038,119.0167 158.2818,111.9327 159.4658,108.0367 C159.5408,107.7917 159.7978,107.6517 160.0478,107.7277 C160.2938,107.8027 160.4328,108.0627 160.3578,108.3087 C159.0968,112.4517 149.7308,119.7247 146.5558,121.6827 C146.4798,121.7287 146.3948,121.7507 146.3118,121.7507" id="Fill-129" fill="#000000"></path>
            <path d="M134.2092,101.529 C133.9802,101.529 133.7802,101.36 133.7482,101.127 C133.7132,100.873 133.8912,100.637 134.1462,100.601 C134.7452,100.518 136.5772,99.655 137.2022,98.892 C137.3652,98.693 137.6582,98.664 137.8572,98.826 C138.0572,98.989 138.0862,99.283 137.9242,99.482 C137.1552,100.421 135.1352,101.405 134.2732,101.524 C134.2522,101.527 134.2302,101.529 134.2092,101.529" id="Fill-131" fill="#000000"></path>
            <path d="M156.9768,105.2204 C156.9088,105.2204 156.8408,105.2054 156.7758,105.1734 C154.4868,104.0734 152.1968,104.3974 150.1788,104.6814 C148.3478,104.9404 146.7678,105.1634 145.5498,104.3064 C143.7348,103.0274 144.0638,101.0204 144.4448,98.6974 C144.6208,97.6254 144.8188,96.4124 144.8448,95.1114 C144.8498,94.8544 145.0308,94.6424 145.3198,94.6544 C145.5778,94.6584 145.7818,94.8714 145.7768,95.1284 C145.7488,96.4974 145.5438,97.7454 145.3638,98.8474 C144.9588,101.3144 144.8078,102.6434 146.0858,103.5444 C147.0028,104.1894 148.4148,103.9904 150.0488,103.7594 C152.0908,103.4714 154.6358,103.1114 157.1788,104.3344 C157.4118,104.4464 157.5078,104.7244 157.3968,104.9554 C157.3168,105.1224 157.1498,105.2204 156.9768,105.2204" id="Fill-133" fill="#000000"></path>
            <path d="M157.9612,116.234103 C157.2052,116.2351 156.3682,115.9951 155.4572,115.5141 C155.2312,115.3941 155.1432,115.1131 155.2632,114.8851 C155.3842,114.6571 155.6682,114.5721 155.8932,114.6901 C157.2532,115.4061 158.3632,115.4901 159.1962,114.9391 C160.6492,113.9781 160.9902,111.4091 160.8652,109.9171 C160.8442,109.6611 161.0352,109.4351 161.2902,109.4141 C161.5422,109.3841 161.7722,109.5821 161.7942,109.8391 C161.9662,111.8921 161.3862,114.6061 159.7102,115.7161 C159.1882,116.0621 158.6042,116.234103 157.9612,116.234103" id="Fill-135" fill="#000000"></path>
            <path d="M167.6985,126.7116 C166.8025,126.7116 165.8245,126.4906 165.0155,126.3096 C164.7235,126.2426 164.4585,126.1836 164.2315,126.1436 C163.8605,126.0756 163.4845,126.0046 163.1035,125.9336 C161.2955,125.5926 159.4415,125.2306 157.6645,125.2446 C156.9315,125.2476 156.1835,125.3256 155.4605,125.4016 C153.8705,125.5676 152.2235,125.7406 150.5495,125.1496 C149.7605,124.8716 147.9115,124.2196 146.7635,122.0186 C146.6455,121.7896 146.7335,121.5086 146.9625,121.3906 C147.1905,121.2716 147.4715,121.3586 147.5905,121.5876 C148.4525,123.2406 149.7265,123.8716 150.8595,124.2716 C152.3355,124.7926 153.8075,124.6386 155.3635,124.4756 C156.1095,124.3976 156.8815,124.3156 157.6605,124.3136 L157.7085,124.3136 C159.5435,124.3136 161.4405,124.6716 163.2765,125.0186 C163.6545,125.0886 164.0295,125.1586 164.3975,125.2256 C164.6355,125.2686 164.9145,125.3316 165.2195,125.3996 C166.4015,125.6656 168.1875,126.0686 168.9375,125.4666 C169.2105,125.2486 169.3415,124.8906 169.3395,124.3716 C169.3365,123.4856 167.1665,118.7886 162.8525,112.5816 C158.8745,106.8576 155.4225,103.2256 149.1725,98.1846 C148.7205,97.8206 148.2275,97.3976 147.7125,96.9556 C146.5485,95.9556 145.2275,94.8226 144.1145,94.1596 C143.8935,94.0286 143.8215,93.7426 143.9525,93.5216 C144.0845,93.3006 144.3685,93.2286 144.5915,93.3586 C145.7735,94.0636 147.1265,95.2246 148.3195,96.2486 C148.8265,96.6836 149.3115,97.1006 149.7565,97.4596 C156.0845,102.5636 159.5825,106.2446 163.6175,112.0506 C167.7205,117.9556 170.2655,123.0416 170.270526,124.3686 C170.2735,125.1776 170.0215,125.7916 169.5205,126.1926 C169.0395,126.5786 168.3935,126.7116 167.6985,126.7116" id="Fill-137" fill="#000000"></path>
            <path d="M162.7405,108.9196 C162.6835,108.9196 162.6265,108.9086 162.5695,108.8876 C162.3305,108.7926 162.2135,108.5226 162.3075,108.2826 C163.1665,106.1056 164.0975,100.7596 163.3725,96.2016 C162.6245,91.5036 155.2845,83.6786 148.5115,81.8066 C142.4895,80.1406 138.3455,82.1246 136.8445,83.0546 C133.8695,84.8966 131.7825,88.0966 130.6395,92.5666 C130.5765,92.8156 130.3245,92.9676 130.0735,92.9026 C129.8245,92.8396 129.6745,92.5856 129.7375,92.3366 C130.9415,87.6246 133.1675,84.2346 136.3535,82.2616 C137.9595,81.2686 142.3835,79.1466 148.7605,80.9086 C155.8305,82.8626 163.5035,91.0986 164.2935,96.0556 C165.0455,100.7846 164.0705,106.3516 163.1745,108.6246 C163.1015,108.8086 162.9275,108.9196 162.7405,108.9196" id="Fill-139" fill="#000000"></path>
            <path d="M131.0276,94.1403 C130.9086,94.1403 130.7896,94.0943 130.6986,94.0033 C130.5166,93.8223 130.5166,93.5273 130.6986,93.3443 C133.2636,90.7793 137.3196,91.3283 138.9466,91.6853 C139.1976,91.7403 139.3566,91.9883 139.3016,92.2393 C139.2476,92.4903 139.0026,92.6493 138.7476,92.5943 C137.2716,92.2723 133.5966,91.7643 131.3576,94.0033 C131.2666,94.0943 131.1466,94.1403 131.0276,94.1403" id="Fill-141" fill="#000000"></path>
            <path d="M152.8957,114.7331 C152.8487,114.7331 152.8017,114.7261 152.7537,114.7111 C152.5097,114.6331 152.3737,114.3711 152.4517,114.1261 C152.7417,113.2131 152.4307,111.5681 151.8487,110.9241 C151.6757,110.7331 151.6897,110.4391 151.8797,110.2661 C152.0707,110.0951 152.3657,110.1071 152.5387,110.2981 C153.3397,111.1831 153.7287,113.1801 153.3397,114.4081 C153.2767,114.6061 153.0927,114.7331 152.8957,114.7331" id="Fill-143" fill="#000000"></path>
            <path d="M149.8254,116.0934 C150.4144,115.7474 150.6794,115.1064 150.4174,114.6584 C150.1554,114.2124 149.4654,114.1304 148.8764,114.4764 C148.2874,114.8224 148.0214,115.4644 148.2844,115.9104 C148.5464,116.3584 149.2364,116.4404 149.8254,116.0934" id="Fill-145" fill="#000000"></path>
            <path d="M113.5754,117.2448 C113.5184,117.2448 113.4634,117.2348 113.4074,117.2138 C109.5244,115.7168 105.1104,111.3088 104.1894,105.7828 C102.9574,98.3908 110.3244,91.7248 115.2584,89.2588 C116.1994,88.7888 116.9444,88.0798 117.6664,87.3948 C119.0484,86.0808 120.4714,84.7218 123.1984,85.1088 C125.0944,85.3808 128.6684,86.8148 131.3134,93.3808 C131.4104,93.6198 131.2944,93.8908 131.0554,93.9868 C130.8174,94.0828 130.5464,93.9688 130.4494,93.7288 C127.9784,87.5968 124.7634,86.2738 123.0664,86.0318 C120.7974,85.7068 119.6414,86.8028 118.3064,88.0708 C117.5364,88.8028 116.7404,89.5598 115.6754,90.0928 C110.9794,92.4388 103.9584,98.7328 105.1084,105.6308 C105.9714,110.8118 110.1054,114.9418 113.7424,116.3448 C113.9824,116.4368 114.1024,116.7068 114.0104,116.9468 C113.9384,117.1318 113.7624,117.2448 113.5754,117.2448" id="Fill-147" fill="#000000"></path>
            <path d="M331.3801,288.9274 C331.3611,288.9274 331.3431,288.9264 331.3241,288.9234 L273.0251,282.0084 C272.7691,281.9784 272.5861,281.7454 272.6171,281.4904 C272.6471,281.2354 272.8821,281.0434 273.1341,281.0834 L331.4341,287.9994 C331.6901,288.0294 331.8721,288.2614 331.8411,288.5164 C331.8141,288.7534 331.6121,288.9274 331.3801,288.9274" id="Fill-149" fill="#C7CBD2"></path>
            <path d="M94.5022,260.8288 C94.4842,260.8288 94.4662,260.8278 94.4462,260.8258 L73.9912,258.3998 C73.7362,258.3698 73.5542,258.1388 73.5842,257.8838 C73.6142,257.6268 73.8422,257.4388 74.1022,257.4748 L94.5572,259.9008 C94.8132,259.9318 94.9942,260.1618 94.9652,260.4178 C94.9372,260.6548 94.7352,260.8288 94.5022,260.8288" id="Fill-151" fill="#000000"></path>
            <path d="M45.8303,255.0573 C45.8123,255.0573 45.7943,255.0563 45.7753,255.0533 L37.9003,254.1193 C37.6453,254.0893 37.4633,253.8573 37.4933,253.6023 C37.5233,253.3463 37.7503,253.1583 38.0113,253.1953 L45.8853,254.1293 C46.1413,254.1593 46.3233,254.3913 46.2933,254.6463 C46.2653,254.8833 46.0633,255.0573 45.8303,255.0573" id="Fill-153" fill="#000000"></path>
            <path d="M8.7366,250.6559 C8.7176,250.6559 8.6996,250.6549 8.6806,250.6529 L0.4106,249.6719 C0.1556,249.6419 -0.0274,249.4109 0.0036,249.1549 C0.0336,248.8989 0.2656,248.7069 0.5206,248.7479 L8.7916,249.7279 C9.0466,249.7589 9.2286,249.9899 9.1986,250.2449 C9.1716,250.4819 8.9696,250.6559 8.7366,250.6559" id="Fill-155" fill="#000000"></path>
            <g id="Group-159" transform="translate(101.000000, 275.645000)">
                <mask id="mask-2" fill="white">
                    <use xlink:href="#path-1"></use>
                </mask>
                <g id="Clip-158"></g>
                <path d="M57.6418,25.0002 C57.5048,25.0002 57.3688,24.9992 57.2308,24.9972 C53.2278,24.9392 49.3538,24.0322 49.1908,23.9932 L0.7038,14.6812 C0.4508,14.6322 0.2858,14.3882 0.3338,14.1352 C0.3828,13.8832 0.6268,13.7212 0.8788,13.7662 L49.3858,23.0832 C49.4448,23.0972 53.3458,24.0102 57.2438,24.0652 C61.1818,24.1252 65.1548,23.3192 65.1948,23.3122 L147.6118,10.1092 C148.8778,9.8762 150.1518,9.4012 150.2728,9.1182 C150.0118,8.8012 147.7058,8.2462 145.2388,7.9672 L92.8708,1.5992 C92.6148,1.5682 92.4338,1.3362 92.4648,1.0802 C92.4958,0.8252 92.7348,0.6432 92.9838,0.6752 L145.3478,7.0422 C146.9028,7.2172 150.5838,7.7372 151.1008,8.7452 C151.2298,8.9972 151.2338,9.2762 151.1088,9.5292 C150.6658,10.4302 148.4408,10.9042 147.7698,11.0272 L65.3618,24.2292 C65.2168,24.2582 61.4998,25.0002 57.6418,25.0002" id="Fill-157" fill="#000000" mask="url(#mask-2)"></path>
            </g>
            <path d="M77.3899,270.0602 C77.1579,270.0602 76.9559,269.8862 76.9279,269.6502 C76.8979,269.3942 77.0789,269.1622 77.3349,269.1322 L97.1849,266.7432 C97.4399,266.7112 97.6719,266.8942 97.7029,267.1502 C97.7339,267.4052 97.5519,267.6372 97.2959,267.6672 L77.4459,270.0562 C77.4269,270.0592 77.4089,270.0602 77.3899,270.0602" id="Fill-160" fill="#000000"></path>
            <path d="M131.1965,224.7321 C130.9415,224.7321 130.7335,224.5271 130.7305,224.2711 L130.2435,185.3451 C130.2405,185.0881 130.4465,184.8781 130.7035,184.8741 L130.7095,184.8741 C130.9645,184.8741 131.1725,185.0791 131.1755,185.3351 L131.6625,224.2601 C131.6665,224.5171 131.4595,224.7281 131.2025,224.7321 L131.1965,224.7321 Z" id="Fill-162" fill="#C7CBD2"></path>
            <g id="Group-166" transform="translate(270.000000, 0.645000)">
                <mask id="mask-4" fill="white">
                    <use xlink:href="#path-3"></use>
                </mask>
                <g id="Clip-165"></g>
                <path d="M3.0315,281.3244 C2.7755,281.3244 2.5665,281.1184 2.5655,280.8614 L0.396496375,0.8254 C0.3955,0.5674 0.6015,0.3574 0.8595,0.3544 L0.8625,0.3544 C1.1185,0.3544 1.3275,0.5604 1.3285,0.8164 L3.49750363,280.8544 C3.4985,281.1114 3.2925,281.3244 3.0345,281.3244 L3.0315,281.3244 Z" id="Fill-164" fill="#C7CBD2" mask="url(#mask-4)"></path>
            </g>
            <path d="M272.842,275.9118 C272.823,275.9118 272.806,275.9108 272.788,275.9088 L195.887,267.1598 C195.631,267.1308 195.447,266.8988 195.477,266.6438 C195.506,266.3888 195.744,266.2098 195.992,266.2328 L272.894,274.9818 C273.15,275.0118 273.333,275.2428 273.304,275.4988 C273.277,275.7358 273.074,275.9118 272.842,275.9118" id="Fill-167" fill="#C7CBD2"></path>
            <path d="M211.883,257.363 C211.869,257.363 211.856,257.363 211.841,257.363 L195.94,255.917 C195.683,255.893 195.494,255.667 195.518,255.411 C195.541,255.155 195.785,254.973 196.024,254.989 L211.415,256.386 L210.587,10.233 C210.586,9.976 210.793,9.765 211.051,9.765 L211.053,9.765 C211.31,9.765 211.518,9.973 211.519,10.23 L212.349013,256.895 C212.35,257.026 212.295,257.152 212.198,257.24 C212.112,257.319 212,257.363 211.883,257.363" id="Fill-169" fill="#C7CBD2"></path>
            <path d="M140.1975,225.2819 C139.9405,225.2819 139.7325,225.0749 139.7315,224.8169 L139.6855,205.0029 C139.6855,204.7459 139.8935,204.5369 140.1505,204.5359 L140.1515,204.5359 C140.4085,204.5359 140.6175,204.7439 140.6175,205.0019 L140.6635,224.8149 C140.6645,225.0729 140.4565,225.2809 140.1985,225.2819 L140.1975,225.2819 Z" id="Fill-171" fill="#C7CBD2"></path>
            <path d="M140.0188,148.5221 C139.7618,148.5221 139.5538,148.3141 139.5528,148.0571 L139.5218,134.9891 C139.5218,134.7311 139.7298,134.5221 139.9868,134.5221 L139.9878,134.5221 C140.2448,134.5221 140.4538,134.7301 140.4538,134.9871 L140.4848,148.0551 C140.4858,148.3121 140.2778,148.5221 140.0198,148.5221 L140.0188,148.5221 Z" id="Fill-173" fill="#000000"></path>
            <path d="M139.8557,78.3766 C139.5987,78.3766 139.3897,78.1686 139.3897,77.9116 L139.3287,19.3556 C139.3287,19.0996 139.5357,18.8906 139.7937,18.8896 L139.7937,18.8896 C140.0507,18.8896 140.2597,19.0976 140.2597,19.3546 L140.3217,77.9096 C140.3217,78.1666 140.1137,78.3756 139.8567,78.3766 L139.8557,78.3766 Z" id="Fill-175" fill="#C7CBD2"></path>
            <path d="M272.3567,262.861 C272.3397,262.861 272.3257,262.861 272.3087,262.858 L234.5897,259.04 C234.3527,259.015 234.1707,258.816 234.1707,258.577 L233.9737,5.981 C233.9737,5.724 234.1827,5.515 234.4397,5.515 C234.6977,5.515 234.9057,5.723 234.9057,5.98 L235.1027,258.155 L272.4037,261.932 C272.6597,261.958 272.8457,262.185 272.8197,262.442 C272.7947,262.681 272.5927,262.861 272.3567,262.861" id="Fill-177" fill="#C7CBD2"></path>
            <path d="M224.4065,269.4274 C224.1495,269.4274 223.9415,269.2194 223.9405,268.9624 L223.037496,7.7884 C223.0365,7.5314 223.2435,7.3224 223.5015,7.3224 L223.5035,7.3224 C223.7595,7.3224 223.9685,7.5294 223.9695,7.7854 L224.872504,268.9594 C224.8735,269.2164 224.6655,269.4274 224.4085,269.4274 L224.4065,269.4274 Z" id="Fill-179" fill="#C7CBD2"></path>
            <path d="M121.508,225.2321 C121.251,225.2321 121.043,225.0241 121.042,224.7671 L120.923,158.3191 C120.923,158.0611 121.154,157.8611 121.389,157.8521 C121.647,157.8521 121.855,158.0601 121.855,158.3171 L121.974004,224.7651 C121.975,225.0231 121.767,225.2311 121.509,225.2321 L121.508,225.2321 Z" id="Fill-181" fill="#C7CBD2"></path>
            <path d="M122.5354,253.4508 C122.3124,253.4508 121.8164,253.3448 121.6394,252.4548 C121.5434,251.9768 121.4734,251.4408 121.4134,250.9618 C121.3874,250.7598 121.3574,250.5218 121.3264,250.3128 C121.2884,250.4118 121.2514,250.5378 121.2084,250.6978 C121.0894,251.1478 120.9084,251.8288 120.1614,251.9058 C119.2754,252.0188 119.0264,251.0098 118.8444,250.2868 C118.8194,250.1908 118.7894,250.0708 118.7564,249.9528 C118.7274,250.0828 118.7024,250.2188 118.6804,250.3318 C118.5004,251.2558 118.2764,252.4048 117.3674,252.4388 C117.3534,252.4388 117.3404,252.4398 117.3274,252.4398 C116.4094,252.4398 116.3334,251.2198 116.2654,250.1398 C116.2404,249.7418 116.2014,249.1138 116.1074,248.8458 C115.9544,249.0458 115.6754,249.6628 115.5474,249.9448 C115.2504,250.6008 115.0614,251.0388 114.5844,250.9448 C114.0944,250.8488 114.0674,250.2338 114.0444,249.6908 C113.9414,247.2598 113.8144,229.4328 113.808385,228.6768 C113.8064,228.4238 114.0074,228.2168 114.2594,228.2078 L149.4534,227.012766 C149.6934,227.0098 149.9254,227.2058 149.933691,227.4628 C149.9424,227.7198 149.7414,227.9348 149.4834,227.9438 L114.7444,229.1238 C114.7644,231.7878 114.8664,245.3658 114.9554,249.0108 C115.2704,248.3788 115.6444,247.8398 116.2174,247.8598 C117.0584,247.9128 117.1284,249.0148 117.1954,250.0818 C117.2234,250.5158 117.2654,251.2138 117.3794,251.4698 C117.5484,251.2718 117.6984,250.4998 117.7654,250.1538 C117.9254,249.3368 118.0924,248.4848 118.8144,248.6178 C119.4094,248.7218 119.5814,249.4018 119.7474,250.0588 C119.8214,250.3528 119.9604,250.9018 120.0894,250.9878 C120.1504,250.9718 120.2004,250.8638 120.3084,250.4588 C120.4364,249.9758 120.6314,249.2448 121.4544,249.0748 C121.5824,249.0508 121.7574,249.0888 121.8624,249.1638 C122.1374,249.3598 122.1944,249.7228 122.3384,250.8438 C122.3954,251.3038 122.4604,251.8148 122.5524,252.2728 C122.5584,252.3048 122.5654,252.3338 122.5724,252.3598 C122.7204,252.0758 122.9254,251.4278 122.9404,250.1988 L122.9604,248.8018 C122.9834,247.1948 123.0144,245.1188 123.0174,243.2948 C123.0264,237.8218 123.0004,228.9048 123.0004,228.9048 L123.9314,228.9008 C123.9314,228.9008 123.9584,237.8218 123.9494,243.2968 C123.9454,245.1248 123.9154,247.2068 123.8914,248.8148 L123.8724,250.2098 C123.8474,252.1658 123.3714,253.3758 122.5974,253.4478 C122.5804,253.4488 122.5584,253.4508 122.5354,253.4508" id="Fill-183" fill="#000000"></path>
            <path d="M174.1477,253.2624 C173.3357,253.2624 173.1237,252.0794 172.8767,250.7154 C172.7937,250.2624 172.6797,249.6254 172.5627,249.2924 C172.3537,249.5594 172.1257,250.1074 171.9877,250.4334 C171.6747,251.1784 171.3777,251.8774 170.7577,251.7264 C170.5077,251.6634 170.3567,251.4104 170.4187,251.1604 C170.4637,250.9814 170.6097,250.8514 170.7807,250.8174 C170.8767,250.6714 171.0257,250.3184 171.1277,250.0734 C171.4497,249.3064 171.7827,248.5124 172.3917,248.2774 C172.5817,248.2024 172.7867,248.2164 172.9627,248.3154 C173.4167,248.5694 173.5657,249.2924 173.7937,250.5504 C173.8957,251.1184 174.0617,252.0404 174.2357,252.3164 C174.5297,252.2344 174.6527,251.8254 174.7957,251.0034 C174.9067,250.3764 175.0107,249.7844 175.4727,249.5424 C176.2377,249.1444 176.7067,250.0294 177.0497,250.6734 C177.0797,250.7274 177.1117,250.7884 177.1457,250.8544 C177.4377,247.6714 177.5497,235.9034 177.5517,228.3674 C177.5517,228.1114 177.7597,227.9024 178.0177,227.9024 C178.2757,227.9024 178.4837,228.1114 178.4837,228.3674 C178.4787,251.5344 177.9217,252.0294 177.7397,252.1914 C177.6387,252.2804 177.4797,252.3364 177.3517,252.3144 C176.8357,252.2524 176.5407,251.6994 176.2277,251.1124 C176.1267,250.9234 175.9747,250.6394 175.8557,250.4794 C175.8047,250.6454 175.7517,250.9484 175.7137,251.1644 C175.5727,251.9734 175.3577,253.1964 174.1977,253.2604 C174.1797,253.2614 174.1637,253.2624 174.1477,253.2624" id="Fill-185" fill="#000000"></path>
            <path d="M140.4231,107.3424 C140.3291,107.3424 140.2341,107.3144 140.1521,107.2544 C139.9431,107.1044 139.8961,106.8134 140.0461,106.6044 C141.6661,104.3564 145.4611,99.0924 144.4781,94.6904 C144.4211,94.4394 144.5801,94.1904 144.8311,94.1344 C145.0841,94.0784 145.3311,94.2364 145.3871,94.4884 C146.4621,99.2974 142.4951,104.7994 140.8021,107.1494 C140.7111,107.2754 140.5681,107.3424 140.4231,107.3424" id="Fill-187" fill="#000000"></path>
            <path d="M133.7444,99.7575 C133.6374,99.7575 133.5294,99.7215 133.4404,99.6455 C133.2464,99.4775 133.2234,99.1835 133.3914,98.9875 C133.8834,98.4165 136.3444,96.2735 136.9554,96.0505 C137.1964,95.9635 137.4644,96.0865 137.5524,96.3275 C137.6404,96.5695 137.5164,96.8355 137.2764,96.9255 C136.8904,97.0855 134.6054,99.0055 134.0984,99.5955 C134.0064,99.7025 133.8754,99.7575 133.7444,99.7575" id="Fill-189" fill="#000000"></path>
        </g>
        <g id="Group-Copy" transform="translate(8.000000, 12.000000)">
            <line x1="30.9535831" y1="15.5" x2="587.046417" y2="15.5" id="Line" stroke="#CCCCCC" stroke-linecap="square"></line>
            <g id="01" transform="translate(15.500000, 0.000000)">
                <circle id="Oval" fill="#CCCCCC" cx="15.5" cy="15.5" r="15.5"></circle>
                <polygon id="1" fill="#FFFFFF" fill-rule="nonzero" points="17.5258824 22.02 17.5258824 7.6 15.2658824 7.6 10.4458824 10.28 11.6858824 12.36 14.9658824 10.48 14.9658824 22.02"></polygon>
            </g>
            <g id="02" transform="translate(106.500000, 0.000000)">
                <circle id="Oval-Copy" fill="#CCCCCC" cx="15.5" cy="15.5" r="15.5"></circle>
                <path d="M21.2494118,22.02 L21.2494118,19.9 L14.3894118,19.9 L18.6294118,15.62 C19.9694118,14.28 20.7094118,12.84 20.7094118,11.28 L20.7094118,11.08 C20.7094118,9.1 19.3094118,7.38 16.0494118,7.38 C13.1294118,7.38 11.7894118,9.18 11.1094118,10.42 L13.0294118,11.68 C13.9694118,10 15.0294118,9.66 16.0694118,9.66 C17.5494118,9.66 18.1294118,10.4 18.1294118,11.18 L18.1294118,11.34 C18.1294118,12.16 18.0294118,12.92 16.3494118,14.64 L11.0494118,20.1 L11.0494118,22.02 L21.2494118,22.02 Z" id="2" fill="#FFFFFF" fill-rule="nonzero"></path>
            </g>
            <g id="03" transform="translate(197.500000, 0.000000)">
                <circle id="Oval-Copy-2" fill="#CCCCCC" cx="15.5" cy="15.5" r="15.5"></circle>
                <path d="M15.5694118,22.24 C19.1094118,22.24 20.8094118,20.22 20.8094118,18.04 L20.8094118,17.74 C20.8094118,16.1 19.9094118,14.82 18.0094118,14.48 C19.6494118,13.86 20.0894118,12.32 20.0894118,11.18 L20.0894118,10.98 C20.0894118,8.82 18.3294118,7.38 15.6294118,7.38 C13.5494118,7.38 12.3094118,8.22 11.3494118,9.46 L13.0894118,10.82 C13.7294118,10.12 14.4094118,9.62 15.6294118,9.62 C16.8294118,9.62 17.5894118,10.1 17.5894118,11.18 L17.5894118,11.34 C17.5894118,12.58 17.1894118,13.42 15.3894118,13.42 L13.6694118,13.42 L13.6694118,15.62 L15.6094118,15.62 C17.4494118,15.62 18.2294118,16.26 18.2294118,17.66 L18.2294118,17.92 C18.2294118,19.18 17.3894118,19.96 15.5894118,19.96 C14.4294118,19.96 13.6094118,19.66 12.2094118,18.64 L10.9494118,20.64 C12.3094118,21.72 13.8894118,22.24 15.5694118,22.24 Z" id="3" fill="#FFFFFF" fill-rule="nonzero"></path>
            </g>
            <g id="04" transform="translate(288.500000, 0.000000)">
                <circle id="Oval-Copy-2" fill="#FF0000" cx="15.5" cy="15.5" r="15.5"></circle>
                <polygon id="4" fill="#FFFFFF" fill-rule="nonzero" points="19.1176471 22.02 19.1176471 19.02 21.0776471 19.02 21.0776471 16.96 19.1176471 16.96 19.1176471 12.64 16.5976471 12.64 16.5976471 16.96 12.4376471 16.96 18.7376471 7.6 15.9776471 7.6 9.41764706 17.36 9.41764706 19.02 16.5976471 19.02 16.5976471 22.02"></polygon>
            </g>
            <g id="05" transform="translate(379.500000, 0.000000)">
                <circle id="Oval-Copy-2" fill="#CCCCCC" cx="15.5" cy="15.5" r="15.5"></circle>
                <path d="M15.4176471,22.24 C19.0376471,22.24 20.5576471,19.74 20.5576471,17.44 L20.5576471,17.14 C20.5576471,14.82 19.0376471,12.74 16.2576471,12.74 C15.0576471,12.74 14.2376471,13.08 13.5776471,13.48 L13.7376471,9.72 L19.6176471,9.72 L19.6176471,7.6 L11.4376471,7.6 L10.9776471,15.94 L12.6976471,15.94 C13.3376471,15.32 14.2176471,14.8 15.4376471,14.8 C17.0376471,14.8 17.9776471,15.66 17.9776471,17.2 L17.9776471,17.42 C17.9776471,18.86 17.1576471,19.92 15.3976471,19.92 C14.0576471,19.92 12.8976471,19.7 11.5376471,18.62 L10.2976471,20.64 C11.7376471,21.82 13.3376471,22.24 15.4176471,22.24 Z" id="5" fill="#FFFFFF" fill-rule="nonzero"></path>
            </g>
            <g id="06" transform="translate(470.500000, 0.000000)">
                <circle id="Oval-Copy-2" fill="#CCCCCC" cx="15.5" cy="15.5" r="15.5"></circle>
                <path d="M15.4376471,22.24 C18.6376471,22.24 20.5576471,20.2 20.5576471,17.52 L20.5576471,17.12 C20.5576471,14.32 18.8576471,12.48 16.0576471,12.48 C14.8176471,12.48 13.5176471,12.92 12.8176471,13.74 C12.9976471,10.66 14.3576471,9.7 15.8376471,9.7 C17.0176471,9.7 17.9976471,9.98 18.8976471,10.5 L19.8376471,8.38 C18.7576471,7.66 17.2976471,7.38 15.9976471,7.38 C12.8576471,7.38 10.2776471,8.86 10.2776471,15.22 L10.2776471,16.14 C10.2776471,19.84 11.7576471,22.24 15.4376471,22.24 Z M15.3776471,19.92 C13.7376471,19.92 12.8576471,19 12.8576471,17.44 L12.8576471,17.14 C12.8576471,15.82 13.6376471,14.72 15.4776471,14.72 C17.2376471,14.72 18.0376471,15.52 18.0376471,17.2 L18.0376471,17.42 C18.0376471,19.02 17.1376471,19.92 15.3776471,19.92 Z" id="6" fill="#FFFFFF" fill-rule="nonzero"></path>
            </g>
            <g id="06-copy" transform="translate(561.500000, 0.000000)">
                <circle id="Oval-Copy-2" fill="#CCCCCC" cx="15.5" cy="15.5" r="15.5"></circle>
                <polygon id="7" fill="#FFFFFF" fill-rule="nonzero" points="14.9376471 23.02 20.4576471 10.56 20.4576471 8.6 10.1576471 8.6 10.1576471 10.76 17.7776471 10.76 12.2376471 23.02"></polygon>
            </g>
            <path d="M13.446,54.818 L13.446,45.774 L12.273,45.774 L12.273,49.548 L10.029,49.548 L10.029,45.978 L8.856,45.978 L8.856,54.784 L10.029,54.784 L10.029,50.619 L12.273,50.619 L12.273,54.818 L13.446,54.818 Z M3.875,53.73 C6.017,53.73 7.292,52.149 7.292,50.517 L7.292,49.633 C7.292,48.001 6.017,46.42 3.875,46.42 C1.733,46.42 0.458,48.001 0.458,49.633 L0.458,50.517 C0.458,52.149 1.733,53.73 3.875,53.73 Z M3.875,52.642 C2.515,52.642 1.631,51.673 1.631,50.398 L1.631,49.752 C1.631,48.477 2.515,47.508 3.875,47.508 C5.235,47.508 6.119,48.477 6.119,49.752 L6.119,50.398 C6.119,51.673 5.235,52.642 3.875,52.642 Z M13.446,61.431 L13.446,55.736 L3.348,55.736 L3.348,56.79 L12.256,56.79 L12.256,61.431 L13.446,61.431 Z M27.845,54.937 L27.845,45.774 L26.655,45.774 L26.655,49.752 L23.408,49.752 L23.408,50.806 L26.655,50.806 L26.655,54.937 L27.845,54.937 Z M16.064,54.733 C16.846,54.172 18.002,53.254 18.597,52.727 C19.311,52.098 19.855,51.537 19.923,51.282 L19.94,51.282 C20.008,51.503 20.671,52.081 21.47,52.727 C21.98,53.135 22.796,53.747 23.476,54.223 L24.173,53.373 C23.204,52.727 22.252,52.013 21.708,51.554 C20.603,50.602 20.484,50.143 20.484,49.14 L20.484,47.797 L23.816,47.797 L23.816,46.76 L15.775,46.76 L15.775,47.797 L19.277,47.797 L19.277,49.191 C19.277,50.109 19.09,50.704 18.257,51.52 C17.424,52.336 16.336,53.169 15.333,53.883 L16.064,54.733 Z M23.221,61.72 C25.771,61.72 27.93,60.615 27.93,58.83 L27.93,58.167 C27.93,56.382 25.771,55.294 23.221,55.294 C20.671,55.294 18.512,56.331 18.512,58.167 L18.512,58.83 C18.512,60.615 20.671,61.72 23.221,61.72 Z M23.221,60.7 C21.402,60.7 19.668,60.003 19.668,58.796 L19.668,58.218 C19.668,57.011 21.402,56.314 23.221,56.314 C25.04,56.314 26.774,57.011 26.774,58.218 L26.774,58.796 C26.774,60.003 25.04,60.7 23.221,60.7 Z M45.899,61.312 L45.899,52.625 L48.466,52.625 L48.466,51.554 L45.899,51.554 L45.899,45.774 L44.692,45.774 L44.692,61.312 L45.899,61.312 Z M37.824,57.13 C39.745,57.13 41.836,57.062 43.604,56.858 L43.519,55.838 C42.788,55.923 42.023,55.974 41.207,56.025 L41.207,48.307 L42.924,48.307 L42.924,47.27 L34.016,47.27 L34.016,48.307 L35.665,48.307 L35.665,56.076 L33.846,56.076 L33.846,57.13 L37.824,57.13 Z M38.8427407,56.0753704 L36.838,56.076 L36.838,48.307 L40.034,48.307 L40.034,56.059 C39.6486667,56.0703333 39.2482222,56.0741111 38.8427407,56.0753704 L38.8427407,56.0753704 Z M50.03,52.489 C51.424,51.945 52.648,51.367 53.566,50.908 C54.688,50.347 55.368,49.854 55.555,49.446 L55.572,49.446 C55.759,49.837 56.439,50.33 57.561,50.891 C58.479,51.35 59.72,51.928 61.114,52.472 L61.59,51.52 C60.332,51.044 59.023,50.466 57.935,49.905 C56.626,49.242 56.167,48.749 56.167,47.508 L56.167,46.08 L54.96,46.08 L54.96,47.508 C54.96,48.749 54.484,49.242 53.175,49.905 C52.087,50.466 50.778,51.044 49.52,51.52 L50.03,52.489 Z M62.695,55.158 L62.695,54.138 L56.15,54.138 L56.15,51.741 L54.96,51.741 L54.96,54.138 L48.415,54.138 L48.415,55.158 L62.695,55.158 Z M60.893,61.125 L60.893,60.071 L51.73,60.071 L51.73,56.535 L50.523,56.535 L50.523,61.125 L60.893,61.125 Z" id="액정파손" fill="#6E6E6E" fill-rule="nonzero"></path>
            <path d="M111.256,53.764 L111.256,45.774 L110.083,45.774 L110.083,49.174 L107.839,49.174 L107.839,45.978 L106.666,45.978 L106.666,53.73 L107.839,53.73 L107.839,50.245 L110.083,50.245 L110.083,53.764 L111.256,53.764 Z M101.685,53.356 C103.946,53.356 105.102,51.707 105.102,50.313 L105.102,49.463 C105.102,48.069 103.946,46.42 101.685,46.42 C99.424,46.42 98.268,48.069 98.268,49.463 L98.268,50.313 C98.268,51.707 99.424,53.356 101.685,53.356 Z M101.685,52.268 C100.24,52.268 99.441,51.231 99.441,50.194 L99.441,49.582 C99.441,48.545 100.24,47.508 101.685,47.508 C103.13,47.508 103.929,48.545 103.929,49.582 L103.929,50.194 C103.929,51.231 103.13,52.268 101.685,52.268 Z M111.256,61.295 L111.256,54.682 L110.083,54.682 L110.083,56.807 L102.773,56.807 L102.773,54.682 L101.6,54.682 L101.6,61.295 L111.256,61.295 Z M110.083,60.224 L102.773,60.224 L102.773,57.861 L110.083,57.861 L110.083,60.224 Z M129.038,61.312 L129.038,52.608 L131.622,52.608 L131.622,51.537 L129.038,51.537 L129.038,45.774 L127.831,45.774 L127.831,61.312 L129.038,61.312 Z M120.759,57.164 C122.663,57.164 124.703,57.045 126.505,56.722 L126.352,55.651 C124.448,55.974 122.799,56.076 121.065,56.076 L119.059,56.076 L119.059,48.273 L124.924,48.273 L124.924,47.185 L117.852,47.185 L117.852,57.164 L120.759,57.164 Z M138.745,52.353 C141.465,52.353 143.624,51.265 143.624,49.565 L143.624,48.919 C143.624,47.219 141.465,46.131 138.745,46.131 C136.025,46.131 133.866,47.219 133.866,48.919 L133.866,49.565 C133.866,51.265 136.025,52.353 138.745,52.353 Z M138.745,51.333 C136.79,51.333 135.022,50.568 135.022,49.48 L135.022,49.004 C135.022,47.916 136.79,47.151 138.745,47.151 C140.7,47.151 142.468,47.916 142.468,49.004 L142.468,49.48 C142.468,50.568 140.7,51.333 138.745,51.333 Z M139.527,58.014 L139.527,54.801 L145.885,54.801 L145.885,53.781 L131.605,53.781 L131.605,54.801 L138.337,54.801 L138.337,58.014 L139.527,58.014 Z M144.1,61.125 L144.1,60.071 L134.937,60.071 L134.937,56.535 L133.73,56.535 L133.73,61.125 L144.1,61.125 Z" id="앱다운" fill="#6E6E6E" fill-rule="nonzero"></path>
            <path d="M210.817,56.858 L210.817,45.774 L209.627,45.774 L209.627,56.858 L210.817,56.858 Z M199.019,54.988 C200.005,54.206 200.974,53.39 201.569,52.829 C202.317,52.115 202.844,51.588 202.895,51.299 L202.912,51.299 C202.997,51.571 203.456,52.03 204.238,52.693 C204.816,53.186 205.564,53.798 206.499,54.512 L207.213,53.679 C206.448,53.118 205.53,52.387 204.697,51.656 C203.558,50.636 203.456,50.228 203.456,48.97 L203.456,46.505 L202.232,46.505 L202.232,49.004 C202.232,50.296 202.113,50.721 201.042,51.792 C200.277,52.557 199.189,53.441 198.271,54.138 L199.019,54.988 Z M211.208,61.125 L211.208,60.071 L202.538,60.071 L202.538,55.94 L201.331,55.94 L201.331,61.125 L211.208,61.125 Z M213.843,55.056 C214.625,54.495 215.781,53.577 216.376,53.05 C217.09,52.421 217.634,51.86 217.702,51.605 L217.719,51.605 C217.787,51.826 218.45,52.404 219.249,53.05 C219.759,53.458 220.575,54.07 221.255,54.546 L221.952,53.696 C220.983,53.05 220.031,52.336 219.487,51.877 C218.382,50.925 218.263,50.466 218.263,49.497 L218.263,48.613 L221.663,48.613 L221.663,47.576 L218.263,47.576 L218.263,45.638 L217.056,45.638 L217.056,47.576 L213.469,47.576 L213.469,48.613 L217.056,48.613 L217.056,49.548 C217.056,50.432 216.869,51.027 216.036,51.843 C215.203,52.659 214.115,53.492 213.112,54.206 L213.843,55.056 Z M225.59,55.073 L225.59,45.774 L224.4,45.774 L224.4,50.262 L221.221,50.262 L221.221,51.316 L224.4,51.316 L224.4,55.073 L225.59,55.073 Z M220.966,61.72 C223.601,61.72 225.675,60.632 225.675,58.898 L225.675,58.252 C225.675,56.518 223.601,55.43 220.966,55.43 C218.331,55.43 216.257,56.484 216.257,58.235 L216.257,58.898 C216.257,60.632 218.331,61.72 220.966,61.72 Z M220.966,60.7 C219.062,60.7 217.413,59.986 217.413,58.83 L217.413,58.32 C217.413,57.164 219.062,56.45 220.966,56.45 C222.87,56.45 224.519,57.164 224.519,58.32 L224.519,58.83 C224.519,59.986 222.87,60.7 220.966,60.7 Z" id="신청" fill="#6E6E6E" fill-rule="nonzero"></path>
            <path d="M301.885,56.892 L301.885,45.774 L300.695,45.774 L300.695,56.892 L301.885,56.892 Z M293.589,54.308 C295.918,54.308 297.414,52.574 297.414,50.891 L297.414,49.871 C297.414,48.188 295.918,46.454 293.589,46.454 C291.26,46.454 289.764,48.188 289.764,49.871 L289.764,50.891 C289.764,52.574 291.26,54.308 293.589,54.308 Z M293.589,53.237 C292.008,53.237 290.92,52.064 290.92,50.789 L290.92,49.973 C290.92,48.698 292.008,47.525 293.589,47.525 C295.17,47.525 296.258,48.698 296.258,49.973 L296.258,50.789 C296.258,52.064 295.17,53.237 293.589,53.237 Z M302.276,61.125 L302.276,60.071 L293.589,60.071 L293.589,56.042 L292.382,56.042 L292.382,61.125 L302.276,61.125 Z M316.998,61.312 L316.998,45.774 L315.808,45.774 L315.808,61.312 L316.998,61.312 Z M313.938,60.547 L313.938,46.097 L312.748,46.097 L312.748,49.735 L310.045,49.735 L310.045,47.321 L304.197,47.321 L304.197,48.392 L308.872,48.392 L308.872,50.092 C308.872,53.084 308.481,53.866 303.908,56.96 L304.571,57.895 C309.059,54.852 309.926,53.713 310.028,50.789 L312.748,50.789 L312.748,53.781 L310.045,53.781 L310.045,54.835 L312.748,54.835 L312.748,60.547 L313.938,60.547 Z" id="인계" fill="#FF0000" fill-rule="nonzero"></path>
            <path d="M393.256,53.611 L393.256,50.194 L395.636,50.194 L395.636,49.14 L393.256,49.14 L393.256,45.774 L392.066,45.774 L392.066,53.611 L393.256,53.611 Z M390.655,52.387 L390.519,51.316 C387.935,51.656 386.49,51.724 383.192,51.724 L383.192,46.624 L381.985,46.624 L381.985,52.812 L382.843322,52.8110915 C386.80488,52.8020229 388.14229,52.7209677 390.655,52.387 Z M393.256,61.278 L393.256,54.529 L392.083,54.529 L392.083,56.722 L385.096,56.722 L385.096,54.529 L383.923,54.529 L383.923,61.278 L393.256,61.278 Z M392.083,60.207 L385.096,60.207 L385.096,57.776 L392.083,57.776 L392.083,60.207 Z M407.842,53.033 L407.842,46.369 L406.669,46.369 L406.669,48.698 L398.951,48.698 L398.951,46.369 L397.778,46.369 L397.778,53.033 L407.842,53.033 Z M406.669,52.03 L398.951,52.03 L398.951,49.735 L406.669,49.735 L406.669,52.03 Z M403.422,61.312 L403.422,56.144 L409.95,56.144 L409.95,55.107 L395.67,55.107 L395.67,56.144 L402.215,56.144 L402.215,61.312 L403.422,61.312 Z" id="납부" fill="#6E6E6E" fill-rule="nonzero"></path>
            <path d="M472.563,53.033 C473.94,52.489 475.266,51.877 476.184,51.418 C477.306,50.857 477.969,50.364 478.173,49.973 L478.19,49.973 C478.377,50.364 479.057,50.84 480.179,51.401 C481.097,51.86 482.389,52.455 483.766,52.999 L484.276,52.064 C483.018,51.588 481.641,50.976 480.553,50.415 C479.244,49.752 478.785,49.191 478.785,47.678 L478.785,46.318 L477.578,46.318 L477.578,47.678 C477.578,49.191 477.102,49.752 475.793,50.415 C474.705,50.976 473.294,51.605 472.036,52.081 L472.563,53.033 Z M478.802,61.312 L478.802,55.736 L485.33,55.736 L485.33,54.699 L471.05,54.699 L471.05,55.736 L477.595,55.736 L477.595,61.312 L478.802,61.312 Z M498.607,55.209 L498.607,45.774 L497.434,45.774 L497.434,47.95 L494.187,47.95 L494.187,48.987 L497.434,48.987 L497.434,50.721 L494.187,50.721 L494.187,51.758 L497.434,51.758 L497.434,55.209 L498.607,55.209 Z M495.105,54.104 L494.986,53.067 C492.912,53.305 490.77,53.339 487.846,53.339 L487.846,50.976 L492.997,50.976 L492.997,46.556 L486.673,46.556 L486.673,47.61 L491.824,47.61 L491.824,49.956 L486.673,49.956 L486.673,54.393 L487.531359,54.3922277 C491.255622,54.3850761 493.158207,54.3255862 495.105,54.104 Z M493.966,61.737 C496.72,61.737 498.692,60.683 498.692,58.983 L498.692,58.371 C498.692,56.688 496.72,55.617 493.966,55.617 C491.212,55.617 489.24,56.671 489.24,58.354 L489.24,58.983 C489.24,60.683 491.212,61.737 493.966,61.737 Z M493.966,60.717 C491.909,60.717 490.396,59.952 490.396,58.932 L490.396,58.422 C490.396,57.419 491.909,56.637 493.966,56.637 C496.023,56.637 497.536,57.402 497.536,58.422 L497.536,58.932 C497.536,59.952 496.023,60.717 493.966,60.717 Z" id="수령" fill="#6E6E6E" fill-rule="nonzero"></path>
            <path d="M575.885,53.713 L575.885,45.774 L574.695,45.774 L574.695,53.713 L575.885,53.713 Z M567.572,53.356 C569.833,53.356 571.363,51.826 571.363,50.262 L571.363,49.446 C571.363,47.882 569.833,46.352 567.572,46.352 C565.311,46.352 563.781,47.882 563.781,49.446 L563.781,50.262 C563.781,51.826 565.311,53.356 567.572,53.356 Z M567.572,52.285 C566.059,52.285 564.937,51.265 564.937,50.143 L564.937,49.565 C564.937,48.443 566.059,47.423 567.572,47.423 C569.085,47.423 570.207,48.443 570.207,49.565 L570.207,50.143 C570.207,51.265 569.085,52.285 567.572,52.285 Z M575.885,61.295 L575.885,54.631 L574.712,54.631 L574.712,56.773 L567.572,56.773 L567.572,54.631 L566.399,54.631 L566.399,61.295 L575.885,61.295 Z M574.712,60.224 L567.572,60.224 L567.572,57.827 L574.712,57.827 L574.712,60.224 Z M591.95,53.322 L591.95,52.285 L589.366,52.285 C589.621,51.061 589.757,49.82 589.757,48.681 L589.757,46.488 L579.54,46.488 L579.54,47.542 L588.567,47.542 L588.567,48.613 C588.567,49.752 588.448,50.976 588.142,52.285 L577.67,52.285 L577.67,53.322 L591.95,53.322 Z M589.859,61.278 L589.859,55.498 L579.761,55.498 L579.761,61.278 L589.859,61.278 Z M588.703,60.207 L580.917,60.207 L580.917,56.569 L588.703,56.569 L588.703,60.207 Z" id="입금" fill="#6E6E6E" fill-rule="nonzero"></path>
        </g>
    </g>
</svg>