<?xml version="1.0" encoding="UTF-8"?>
<svg width="609px" height="517px" viewBox="0 0 609 517" version="1.1" xmlns="http://www.w3.org/2000/svg" xmlns:xlink="http://www.w3.org/1999/xlink">
    <title>img-03-3</title>
    <defs>
        <polygon id="path-1" points="0 315.667 347.906 315.667 347.906 -5.68434189e-14 0 -5.68434189e-14"></polygon>
    </defs>
    <g id="img-03-3" stroke="none" stroke-width="1" fill="none" fill-rule="evenodd">
        <text id="코디-방문-날짜/장소-지정" font-family="TgothicMedium, Tgothic" font-size="27" font-weight="400" fill="#242424">
            <tspan x="163.1285" y="501">코디 방문 날짜/장소 지정</tspan>
        </text>
        <g id="Group-130" transform="translate(131.000000, 101.000000)">
            <path d="M114.2827,0.5176 L337.3627,0.5176 C342.8997,0.5176 347.3887,4.8426 347.3887,10.1776 L347.3887,273.4426 C347.3887,278.7786 342.8997,283.1036 337.3627,283.1036 L114.2827,283.1036 C108.7447,283.1036 104.2567,278.7786 104.2567,273.4426 L104.2567,10.1776 C104.2567,4.8426 108.7447,0.5176 114.2827,0.5176 Z" id="Stroke-1" stroke="#C7CBD2" stroke-width="1.035"></path>
            <path d="M141.5219,51.7705 L142.1769,50.2885 C143.1559,51.0155 144.3409,51.4115 145.5609,51.4165 C147.1619,51.4165 147.8339,50.8425 147.8339,50.0795 C147.8339,47.8695 141.7409,49.3245 141.7409,45.5315 C141.7409,43.8755 143.0589,42.4655 145.8699,42.4655 C147.0729,42.4455 148.2559,42.7595 149.2899,43.3755 L148.6899,44.8585 C147.8339,44.3445 146.8589,44.0665 145.8609,44.0485 C144.2779,44.0485 143.6319,44.6665 143.6319,45.4405 C143.6319,47.6235 149.7089,46.2045 149.7089,49.9885 C149.7089,51.6245 148.3799,53.0355 145.5609,53.0355 C144.1129,53.0665 142.6939,52.6235 141.5219,51.7705" id="Fill-3" fill="#FE7200"></path>
            <path d="M150.7817,48.9424 C150.7507,46.7564 152.4977,44.9614 154.6817,44.9304 C154.7947,44.9284 154.9077,44.9314 155.0197,44.9404 C156.3927,44.8394 157.6987,45.5504 158.3577,46.7584 L156.9487,47.5784 C156.5437,46.8914 155.7997,46.4774 155.0017,46.4954 C153.6507,46.4954 152.5547,47.5904 152.5547,48.9424 C152.5547,50.2934 153.6507,51.3884 155.0017,51.3884 C155.7997,51.4074 156.5437,50.9934 156.9487,50.3064 L158.3577,51.1254 C157.6897,52.3254 156.3907,53.0334 155.0197,52.9444 C152.8357,53.0944 150.9417,51.4464 150.7907,49.2604 C150.7837,49.1554 150.7807,49.0484 150.7817,48.9424" id="Fill-5" fill="#FE7200"></path>
            <path d="M167.5805,48.3418 L167.5805,52.8898 L165.7625,52.8898 L165.7625,48.6418 C165.7625,47.2498 165.0795,46.5688 163.9425,46.5688 C162.7995,46.4958 161.8145,47.3638 161.7425,48.5078 C161.7335,48.6498 161.7395,48.7918 161.7605,48.9328 L161.7605,52.8898 L159.9405,52.8898 L159.9405,41.9748 L161.7605,41.9748 L161.7605,45.9318 C162.4505,45.2518 163.3935,44.8928 164.3605,44.9408 C166.1885,44.9408 167.5805,46.0038 167.5805,48.3418" id="Fill-7" fill="#FE7200"></path>
            <path d="M171.1557,48.3418 L175.5937,48.3418 C175.4747,47.2238 174.5077,46.3918 173.3847,46.4408 C172.2587,46.3948 171.2877,47.2238 171.1557,48.3418 M177.3127,49.5248 L171.1737,49.5248 C171.4187,50.6998 172.5067,51.5058 173.7027,51.3978 C174.5007,51.4338 175.2747,51.1248 175.8307,50.5518 L176.8127,51.6798 C176.0097,52.5568 174.8527,53.0248 173.6657,52.9528 C171.0377,52.9528 169.3367,51.2708 169.3367,48.9428 C169.2747,46.7928 170.9667,45.0008 173.1157,44.9388 C173.2047,44.9358 173.2947,44.9368 173.3847,44.9408 C175.4867,44.8558 177.2597,46.4918 177.3447,48.5948 C177.3497,48.7258 177.3487,48.8568 177.3407,48.9878 C177.3407,49.1328 177.3227,49.3518 177.3127,49.5248" id="Fill-9" fill="#FE7200"></path>
            <path d="M184.9448,48.9424 C184.8798,47.6584 183.7848,46.6704 182.5008,46.7354 C181.2158,46.7994 180.2278,47.8944 180.2938,49.1784 C180.3558,50.4164 181.3778,51.3874 182.6158,51.3884 C183.8768,51.4274 184.9288,50.4364 184.9668,49.1764 C184.9698,49.0984 184.9678,49.0204 184.9628,48.9424 L184.9448,48.9424 Z M186.7628,41.9744 L186.7628,52.8894 L185.0078,52.8894 L185.0078,51.8804 C184.3588,52.6264 183.4038,53.0354 182.4158,52.9894 C180.2028,52.8834 178.4948,51.0054 178.5998,48.7924 C178.6988,46.7264 180.3508,45.0754 182.4158,44.9764 C183.3708,44.9354 184.2948,45.3224 184.9348,46.0314 L184.9348,41.9744 L186.7628,41.9744 Z" id="Fill-11" fill="#FE7200"></path>
            <path d="M196.7504,45.0215 L196.7504,52.8895 L195.0044,52.8895 L195.0044,51.8885 C194.3724,52.6165 193.4464,53.0205 192.4844,52.9895 C190.4744,52.9895 189.1094,51.8885 189.1094,49.5335 L189.1094,45.0585 L190.9294,45.0585 L190.9294,49.2505 C190.9294,50.6695 191.6024,51.3435 192.7484,51.3435 C193.8944,51.3435 194.8864,50.5515 194.8864,48.9875 L194.8864,45.0215 L196.7504,45.0215 Z" id="Fill-13" fill="#FE7200"></path>
            <mask id="mask-2" fill="white">
                <use xlink:href="#path-1"></use>
            </mask>
            <g id="Clip-16"></g>
            <polygon id="Fill-15" fill="#FE7200" mask="url(#mask-2)" points="199.152 52.89 200.971 52.89 200.971 41.975 199.152 41.975"></polygon>
            <path d="M204.5629,48.3418 L209.0019,48.3418 C208.8829,47.2238 207.9159,46.3918 206.7919,46.4408 C205.6669,46.3948 204.6959,47.2238 204.5629,48.3418 M210.7119,49.5248 L204.5729,49.5248 C204.8179,50.7038 205.9109,51.5108 207.1099,51.3978 C207.9079,51.4308 208.6809,51.1228 209.2389,50.5518 L210.2209,51.6798 C209.4129,52.5548 208.2539,53.0228 207.0649,52.9528 C204.4449,52.9528 202.7449,51.2708 202.7449,48.9428 C202.6819,46.7928 204.3749,45.0008 206.5229,44.9388 C206.6129,44.9358 206.7029,44.9368 206.7919,44.9408 C208.8949,44.8558 210.6679,46.4918 210.7519,48.5948 C210.7579,48.7258 210.7559,48.8568 210.7489,48.9878 C210.7119,49.1328 210.7119,49.3518 210.7119,49.5248" id="Fill-17" fill="#FE7200" mask="url(#mask-2)"></path>
            <path d="M122.4311,41.9746 C121.9281,41.9746 121.5211,42.3816 121.5211,42.8846 L121.5211,51.9806 C121.5211,52.4826 121.9281,52.8896 122.4311,52.8896 L132.7181,52.8896 C133.2201,52.8896 133.6271,52.4826 133.6271,51.9806 L133.6271,42.8116 C133.6271,42.3096 133.2201,41.9026 132.7181,41.9026 L122.4311,41.9746 Z M132.7181,53.7986 L122.4311,53.7986 C121.4261,53.7986 120.6121,52.9846 120.6121,51.9806 L120.6121,42.8116 C120.6121,41.8066 121.4261,40.9926 122.4311,40.9926 L132.7181,40.9926 C133.7221,40.9926 134.5361,41.8066 134.5361,42.8116 L134.5361,51.9806 C134.5361,52.9846 133.7221,53.7986 132.7181,53.7986 L132.7181,53.7986 Z" id="Fill-18" fill="#FE7200" mask="url(#mask-2)"></path>
            <path d="M123.7221,38.6553 L123.9131,38.6553 C124.4311,38.6553 124.8501,39.0743 124.8501,39.5923 L124.8501,41.5753 C124.8501,42.0923 124.4311,42.5113 123.9131,42.5113 L123.7221,42.5113 C123.2041,42.5113 122.7851,42.0923 122.7851,41.5753 L122.7851,39.5923 C122.7851,39.0743 123.2041,38.6553 123.7221,38.6553" id="Fill-19" fill="#FE7200" mask="url(#mask-2)"></path>
            <path d="M130.8168,38.6553 L131.0078,38.6553 C131.5248,38.6553 131.9448,39.0743 131.9448,39.5923 L131.9448,41.5753 C131.9448,42.0923 131.5248,42.5113 131.0078,42.5113 L130.8168,42.5113 C130.2988,42.5113 129.8798,42.0923 129.8798,41.5753 L129.8798,39.5923 C129.8798,39.0743 130.2988,38.6553 130.8168,38.6553" id="Fill-20" fill="#FE7200" mask="url(#mask-2)"></path>
            <polygon id="Fill-21" fill="#FE7200" mask="url(#mask-2)" points="124.35 46.777 126.414 46.777 126.414 44.713 124.35 44.713"></polygon>
            <polygon id="Fill-22" fill="#FE7200" mask="url(#mask-2)" points="128.461 46.777 130.525 46.777 130.525 44.713 128.461 44.713"></polygon>
            <polygon id="Fill-23" fill="#FE7200" mask="url(#mask-2)" points="124.35 50.679 126.414 50.679 126.414 48.614 124.35 48.614"></polygon>
            <polygon id="Fill-24" fill="#FE7200" mask="url(#mask-2)" points="128.461 50.679 130.525 50.679 130.525 48.614 128.461 48.614"></polygon>
            <path d="M315.311,51.8438188 C315.201,51.8448 315.094,51.8058 315.01,51.7348 L312.41,49.4788 C311.932,49.0628 311.882,48.3388 312.298,47.8628 C312.332,47.8228 312.37,47.7848 312.41,47.7508 L315.01,45.4948 C315.179,45.3088 315.466,45.2938 315.653,45.4618 C315.839,45.6298 315.854,45.9178 315.686,46.1048 C315.661,46.1318 315.632,46.1568 315.602,46.1768 L313.009,48.4328 C312.909,48.5238 312.902,48.6798 312.993,48.7798 C312.998,48.7848 313.003,48.7908 313.009,48.7968 L315.602,51.0528 C315.788,51.2208 315.801,51.5088 315.633,51.6948 C315.55,51.7858 315.434,51.8398 315.311,51.8438188" id="Fill-25" fill="#E0E0E0" mask="url(#mask-2)"></path>
            <path d="M325.5248,51.8438 C325.3928,51.8428 325.2678,51.7858 325.1788,51.6898 C325.0038,51.5168 325.0008,51.2348 325.1728,51.0588 L325.1788,51.0528 L327.7808,48.7968 C327.8808,48.7048 327.8888,48.5498 327.7968,48.4498 C327.7928,48.4438 327.7868,48.4388 327.7808,48.4328 L325.1788,46.1768 C325.0038,46.0048 325.0008,45.7228 325.1728,45.5468 C325.1748,45.5448 325.1768,45.5428 325.1788,45.5398 C325.3588,45.3658 325.6448,45.3658 325.8248,45.5398 L328.4258,47.7958 C328.6868,48.0258 328.8308,48.3598 328.8178,48.7058 C328.8178,49.0388 328.6708,49.3548 328.4178,49.5698 L325.8248,51.8248 C325.7298,51.8648 325.6248,51.8698 325.5248,51.8438" id="Fill-26" fill="#E0E0E0" mask="url(#mask-2)"></path>
            <path d="M160.477,118.0684 C169.675,118.0684 177.131,125.5244 177.131,134.7214 C177.131,143.9204 169.675,151.3764 160.477,151.3764 C151.28,151.3764 143.824,143.9204 143.824,134.7214 C143.824,125.5244 151.28,118.0684 160.477,118.0684" id="Fill-27" fill="#FE7200" mask="url(#mask-2)"></path>
            <path d="M121.5122,78.002 L121.8302,77.302 C122.2962,77.648 122.8602,77.835 123.4402,77.839 C124.2042,77.839 124.5232,77.565 124.5232,77.202 C124.5232,76.147 121.6212,76.838 121.6212,75.02 C121.6212,74.228 122.2482,73.555 123.5852,73.555 C124.1612,73.545 124.7292,73.696 125.2232,73.991 L124.9322,74.7 C124.5272,74.452 124.0622,74.317 123.5852,74.31 C122.8302,74.31 122.5222,74.609 122.5222,74.974 C122.5222,76.02 125.4232,75.337 125.4232,77.139 C125.4232,77.921 124.7862,78.594 123.4402,78.594 C122.7492,78.615 122.0722,78.407 121.5122,78.002" id="Fill-28" fill="#E0E0E0" mask="url(#mask-2)"></path>
            <path d="M129.853,74.792 L129.853,78.521 L129.025,78.521 L129.025,78.048 C128.721,78.396 128.278,78.591 127.815,78.575 C127.005,78.652 126.286,78.058 126.209,77.248 C126.199,77.139 126.201,77.028 126.214,76.92 L126.214,74.792 L127.124,74.792 L127.124,76.802 C127.124,77.484 127.443,77.803 128.034,77.803 C128.624,77.803 129.052,77.43 129.052,76.675 L129.052,74.792 L129.853,74.792 Z" id="Fill-29" fill="#E0E0E0" mask="url(#mask-2)"></path>
            <path d="M134.6821,76.3838 L134.6821,78.5208 L133.7731,78.5208 L133.7731,76.5378 C133.7731,75.8738 133.4461,75.5558 132.8641,75.5558 C132.3171,75.5208 131.8451,75.9348 131.8101,76.4808 C131.8051,76.5488 131.8081,76.6158 131.8181,76.6838 L131.8181,78.5668 L130.9081,78.5668 L130.9081,74.8368 L131.7441,74.8368 L131.7441,75.3198 C132.0701,74.9578 132.5411,74.7638 133.0271,74.7918 C133.8281,74.6828 134.5671,75.2428 134.6761,76.0448 C134.6911,76.1568 134.6931,76.2708 134.6821,76.3838" id="Fill-30" fill="#E0E0E0" mask="url(#mask-2)"></path>
            <polygon id="Fill-31" fill="#E0E0E0" mask="url(#mask-2)" points="157.5307 78.5205 157.5307 75.2735 155.9207 78.0015 155.5197 78.0015 153.9107 75.3555 153.9107 78.5575 153.0007 78.5575 153.0007 73.6265 153.7557 73.6265 155.6927 76.8745 157.6027 73.6265 158.3577 73.6265 158.3577 78.5205"></polygon>
            <path d="M162.4145,76.6563 C162.3845,76.0443 161.8635,75.5723 161.2515,75.6023 C160.6405,75.6333 160.1685,76.1533 160.1975,76.7653 C160.2265,77.3553 160.7145,77.8193 161.3055,77.8203 C161.9025,77.8373 162.4005,77.3663 162.4175,76.7683 C162.4185,76.7313 162.4175,76.6933 162.4145,76.6563 M159.3125,76.6563 C159.2725,75.5563 160.1315,74.6333 161.2305,74.5933 C162.3305,74.5523 163.2545,75.4113 163.2945,76.5103 C163.3345,77.6103 162.4765,78.5343 161.3765,78.5743 C161.3525,78.5753 161.3285,78.5753 161.3055,78.5753 C160.2675,78.6353 159.3765,77.8433 159.3155,76.8053 C159.3125,76.7563 159.3115,76.7063 159.3125,76.6563" id="Fill-32" fill="#E0E0E0" mask="url(#mask-2)"></path>
            <path d="M167.808,76.3838 L167.808,78.5208 L166.899,78.5208 L166.899,76.5378 C166.899,75.8738 166.572,75.5558 165.99,75.5558 C165.443,75.5208 164.971,75.9348 164.936,76.4808 C164.931,76.5488 164.934,76.6158 164.944,76.6838 L164.944,78.5668 L164.034,78.5668 L164.034,74.8368 L164.862,74.8368 L164.862,75.3198 C165.191,74.9578 165.665,74.7648 166.153,74.7918 C166.949,74.6768 167.687,75.2288 167.801,76.0248 C167.819,76.1428 167.821,76.2638 167.808,76.3838" id="Fill-33" fill="#E0E0E0" mask="url(#mask-2)"></path>
            <polygon id="Fill-34" fill="#E0E0E0" mask="url(#mask-2)" points="187.518 74.4004 185.89 74.4004 185.89 73.6274 190.047 73.6274 190.047 74.4004 188.428 74.4004 188.428 78.5204 187.518 78.5204"></polygon>
            <path d="M194.1762,74.792 L194.1762,78.521 L193.3392,78.521 L193.3392,78.048 C193.0392,78.396 192.5982,78.59 192.1392,78.575 C191.3232,78.651 190.6012,78.053 190.5252,77.237 C190.5152,77.132 190.5162,77.025 190.5292,76.92 L190.5292,74.792 L191.4392,74.792 L191.4392,76.802 C191.4392,77.484 191.7662,77.803 192.3482,77.803 C192.8902,77.834 193.3542,77.42 193.3852,76.878 C193.3892,76.811 193.3862,76.742 193.3752,76.675 L193.3752,74.792 L194.1762,74.792 Z" id="Fill-35" fill="#E0E0E0" mask="url(#mask-2)"></path>
            <path d="M195.8774,76.3565 L197.9784,76.3565 C197.9214,75.8225 197.4594,75.4245 196.9234,75.4465 C196.3934,75.4375 195.9414,75.8305 195.8774,76.3565 M198.8154,76.9385 L195.8864,76.9385 C195.9914,77.5095 196.5184,77.9045 197.0964,77.8475 C197.4744,77.8655 197.8424,77.7195 198.1064,77.4475 L198.5784,77.9845 C197.7624,78.8015 196.4384,78.8025 195.6194,77.9865 C195.2684,77.6345 195.0534,77.1695 195.0134,76.6745 C194.9614,75.6705 195.7314,74.8155 196.7354,74.7635 C196.8044,74.7595 196.8724,74.7595 196.9414,74.7645 C197.9444,74.7225 198.7934,75.5025 198.8354,76.5055 C198.8374,76.5685 198.8374,76.6305 198.8334,76.6925 C198.8334,76.7475 198.8234,76.8565 198.8154,76.9385" id="Fill-36" fill="#E0E0E0" mask="url(#mask-2)"></path>
            <polygon id="Fill-37" fill="#263238" mask="url(#mask-2)" points="192.7758 96.4297 192.7758 102.4507 191.3748 102.4507 191.3748 97.5487 190.1738 97.5487 190.1738 96.4297"></polygon>
            <path d="M130.4799,136.3682 C130.4839,135.8662 130.0799,135.4562 129.5779,135.4522 C129.5389,135.4522 129.5009,135.4542 129.4609,135.4592 C128.9649,135.3842 128.5009,135.7242 128.4259,136.2222 C128.4179,136.2702 128.4159,136.3192 128.4159,136.3682 C128.4159,136.8782 128.8069,137.2782 129.4709,137.2782 C129.9699,137.3332 130.4189,136.9732 130.4749,136.4732 C130.4789,136.4382 130.4809,136.4032 130.4799,136.3682 M131.8349,136.2962 C131.8009,137.4402 130.8449,138.3412 129.7009,138.3062 C129.6509,138.3052 129.6019,138.3022 129.5519,138.2972 C127.8879,138.2972 126.8239,137.2602 126.8239,135.3132 C126.6509,133.7002 127.8189,132.2522 129.4319,132.0792 C129.5859,132.0622 129.7429,132.0572 129.8979,132.0662 C130.4839,132.0532 131.0619,132.1972 131.5719,132.4842 L131.0529,133.5032 C130.7149,133.2942 130.3229,133.1902 129.9249,133.2032 C129.0429,133.1492 128.2839,133.8202 128.2299,134.7032 C128.2249,134.7852 128.2259,134.8672 128.2339,134.9492 C128.6419,134.5832 129.1779,134.3932 129.7249,134.4222 C130.7749,134.3112 131.7139,135.0722 131.8259,136.1212 C131.8319,136.1792 131.8339,136.2372 131.8349,136.2962" id="Fill-38" fill="#263238" mask="url(#mask-2)"></path>
            <polygon id="Fill-39" fill="#263238" mask="url(#mask-2)" points="129.1791 168.9668 129.1791 174.9878 127.7881 174.9878 127.7881 170.0858 126.5871 170.0858 126.5871 168.9668"></polygon>
            <path d="M134.682137,173.1504 C134.682137,174.1604 133.9001,175.0874 132.1811,175.0874 C131.3711,175.1034 130.5751,174.8824 129.8891,174.4514 L130.4251,173.3784 C130.9261,173.7374 131.5291,173.9284 132.1451,173.9234 C132.8451,173.9234 133.2731,173.6414 133.2731,173.1504 C133.2731,172.6594 132.9451,172.4054 132.1451,172.4054 L131.5081,172.4054 L131.5081,171.4954 L132.7541,170.0944 L130.1891,170.0944 L130.1891,168.9754 L134.4011,168.9754 L134.4011,169.8854 L133.0451,171.4404 C133.9631,171.4754 134.6881,172.2324 134.682137,173.1504" id="Fill-40" fill="#263238" mask="url(#mask-2)"></path>
            <polygon id="Fill-41" fill="#FFFFFF" mask="url(#mask-2)" points="163.4155 132.1758 163.4155 133.0848 161.1785 138.2058 159.6675 138.2058 161.8235 133.3218 159.7765 133.3218 159.7765 134.3038 158.5305 134.3038 158.5305 132.1848"></polygon>
            <polygon id="Fill-42" fill="#263238" mask="url(#mask-2)" points="160.2866 168.9668 160.2866 174.9878 158.8676 174.9878 158.8676 170.0858 157.6846 170.0858 157.6846 168.9668"></polygon>
            <polygon id="Fill-43" fill="#263238" mask="url(#mask-2)" points="166.8442 173.7236 165.8622 173.7236 165.8622 174.9886 164.5062 174.9886 164.5062 173.7236 161.2592 173.7236 161.2592 172.8146 164.0972 168.9946 165.5622 168.9946 162.9332 172.6326 164.5522 172.6326 164.5522 171.5046 165.8622 171.5046 165.8622 172.6326 166.8442 172.6326"></polygon>
            <path d="M191.7934,133.8399 C191.7934,134.2949 192.1564,134.5859 192.7024,134.5859 C193.2484,134.5859 193.6124,134.2949 193.6124,133.8399 C193.6124,133.3849 193.2394,133.0849 192.7024,133.0849 C192.1664,133.0849 191.7934,133.3759 191.7934,133.8399 L191.7934,133.8399 Z M193.8394,136.4049 C193.8394,135.8769 193.4024,135.5499 192.7024,135.5499 C192.0024,135.5499 191.5844,135.8769 191.5844,136.4049 C191.5844,136.9329 192.0214,137.3149 192.7024,137.3149 C193.3854,137.3149 193.8574,136.9419 193.8574,136.4049 L193.8394,136.4049 Z M195.2494,136.4499 C195.2494,137.5869 194.2394,138.2699 192.7024,138.2699 C191.1654,138.2699 190.1744,137.5599 190.1744,136.4499 C190.1654,135.8379 190.5234,135.2789 191.0834,135.0309 C190.6454,134.7769 190.3804,134.3019 190.3934,133.7939 C190.3934,132.7309 191.3024,132.0669 192.7024,132.0669 C194.1044,132.0669 195.0404,132.7309 195.0404,133.7939 C195.0454,134.3049 194.7734,134.7779 194.3304,135.0309 C194.8954,135.2769 195.2564,135.8359 195.2494,136.4499 L195.2494,136.4499 Z" id="Fill-44" fill="#263238" mask="url(#mask-2)"></path>
            <polygon id="Fill-45" fill="#263238" mask="url(#mask-2)" points="192.2026 168.9668 192.2026 174.9878 190.8106 174.9878 190.8106 170.0858 189.6106 170.0858 189.6106 168.9668"></polygon>
            <path d="M197.8051,173.0957 C197.8051,174.1597 197.0231,175.0877 195.3041,175.0877 C194.4911,175.1037 193.6901,174.8787 193.0031,174.4427 L193.5581,173.3777 C194.0551,173.7377 194.6551,173.9287 195.2681,173.9237 C195.9681,173.9237 196.3961,173.6327 196.3961,173.1417 C196.3961,172.6507 196.0861,172.3597 194.9941,172.3597 L193.4301,172.3597 L193.7481,168.9667 L197.3871,168.9667 L197.3871,170.0857 L194.8761,170.0857 L194.7851,171.2317 L195.2771,171.2317 C197.0691,171.2317 197.8051,172.0407 197.8051,173.0957" id="Fill-46" fill="#263238" mask="url(#mask-2)"></path>
            <path d="M225.31,134.0039 C225.31,133.4939 224.928,133.0939 224.264,133.0939 C223.765,133.0389 223.316,133.3989 223.26,133.8989 C223.256,133.9329 223.254,133.9689 223.254,134.0039 C223.25,134.5059 223.655,134.9169 224.157,134.9209 C224.199,134.9209 224.241,134.9189 224.283,134.9129 C224.781,134.9789 225.238,134.6279 225.302,134.1299 C225.308,134.0879 225.311,134.0459 225.31,134.0039 M226.866,135.0589 C227.044,136.6609 225.889,138.1059 224.287,138.2829 C224.125,138.3019 223.962,138.3059 223.8,138.2969 C223.216,138.3119 222.638,138.1699 222.127,137.8879 L222.645,136.8589 C222.98,137.0769 223.374,137.1859 223.773,137.1689 C224.661,137.2189 225.42,136.5389 225.47,135.6509 C225.475,135.5679 225.473,135.4859 225.465,135.4039 C225.062,135.7789 224.524,135.9769 223.973,135.9499 C222.922,136.0409 221.997,135.2619 221.907,134.2109 C221.903,134.1659 221.9,134.1209 221.9,134.0759 C221.929,132.9319 222.881,132.0269 224.027,132.0579 C224.076,132.0589 224.124,132.0619 224.173,132.0669 C225.847,132.0669 226.866,133.1119 226.866,135.0589" id="Fill-47" fill="#263238" mask="url(#mask-2)"></path>
            <polygon id="Fill-48" fill="#263238" mask="url(#mask-2)" points="223.5453 168.9668 223.5453 174.9878 222.1453 174.9878 222.1453 170.0858 220.9443 170.0858 220.9443 168.9668"></polygon>
            <path d="M228.2114,173.1602 C228.2154,172.6572 227.8114,172.2472 227.3094,172.2442 C227.2704,172.2432 227.2324,172.2462 227.1924,172.2502 C226.6964,172.1752 226.2324,172.5162 226.1574,173.0132 C226.1494,173.0612 226.1474,173.1102 226.1474,173.1602 C226.1474,173.6692 226.5384,174.0692 227.2114,174.0692 C227.7114,174.1192 228.1564,173.7552 228.2074,173.2552 C228.2104,173.2232 228.2124,173.1912 228.2114,173.1602 M229.5664,173.0872 C229.5324,174.2312 228.5764,175.1322 227.4324,175.0972 C227.3824,175.0972 227.3334,175.0932 227.2834,175.0882 C225.6284,175.0882 224.5554,174.0512 224.5554,172.1042 C224.3824,170.4972 225.5454,169.0532 227.1534,168.8792 C227.3124,168.8622 227.4714,168.8582 227.6294,168.8672 C228.2144,168.8502 228.7924,168.9922 229.3034,169.2762 L228.7844,170.3042 C228.4524,170.0882 228.0624,169.9802 227.6664,169.9952 C226.7784,169.9402 226.0154,170.6162 225.9614,171.5042 C225.9564,171.5862 225.9574,171.6682 225.9654,171.7502 C226.3694,171.3772 226.9074,171.1832 227.4564,171.2142 C228.5064,171.1022 229.4454,171.8632 229.5574,172.9132 C229.5634,172.9712 229.5654,173.0292 229.5664,173.0872" id="Fill-49" fill="#263238" mask="url(#mask-2)"></path>
            <polygon id="Fill-50" fill="#263238" mask="url(#mask-2)" points="254.2524 132.1758 254.2524 138.1968 252.8524 138.1968 252.8524 133.2938 251.6424 133.2938 251.6424 132.1758"></polygon>
            <path d="M259.0366,135.1856 C259.0366,133.8126 258.5546,133.2486 257.8636,133.2486 C257.1726,133.2486 256.6896,133.8126 256.6896,135.1856 C256.6896,136.5596 257.1726,137.1226 257.8636,137.1226 C258.5546,137.1226 259.0556,136.5686 259.0556,135.1856 L259.0366,135.1856 Z M255.2796,135.1856 C255.2796,133.1946 256.3806,132.0666 257.8636,132.0666 C259.3466,132.0666 260.4466,133.1946 260.4466,135.1856 C260.4466,137.1776 259.3466,138.2966 257.8636,138.2966 C256.3806,138.2966 255.2796,137.1686 255.2796,135.1856 L255.2796,135.1856 Z" id="Fill-51" fill="#263238" mask="url(#mask-2)"></path>
            <polygon id="Fill-52" fill="#263238" mask="url(#mask-2)" points="255.1342 168.9668 255.1342 174.9878 253.7422 174.9878 253.7422 170.0858 252.5512 170.0858 252.5512 168.9668"></polygon>
            <polygon id="Fill-53" fill="#263238" mask="url(#mask-2)" points="260.9008 168.9668 260.9008 169.8758 258.6638 174.9968 257.1448 174.9968 259.3088 170.1128 257.3078 170.1128 257.3078 171.1318 256.0718 171.1318 256.0718 169.0128"></polygon>
            <polygon id="Fill-54" fill="#263238" mask="url(#mask-2)" points="287.2143 132.1758 287.2143 138.1968 285.8223 138.1968 285.8223 133.2938 284.6223 133.2938 284.6223 132.1758"></polygon>
            <polygon id="Fill-55" fill="#263238" mask="url(#mask-2)" points="290.5893 132.1758 290.5893 138.1968 289.1973 138.1968 289.1973 133.2938 288.0243 133.2938 288.0243 132.1758"></polygon>
            <polygon id="Fill-56" fill="#263238" mask="url(#mask-2)" points="286.478 168.9668 286.478 174.9878 285.086 174.9878 285.086 170.0858 283.885 170.0858 283.885 168.9668"></polygon>
            <path d="M289.0971,170.6406 C289.0971,171.0956 289.4611,171.3866 290.0071,171.3866 C290.5521,171.3866 290.9161,171.0956 290.9161,170.6406 C290.9161,170.1856 290.5431,169.8856 290.0071,169.8856 C289.4701,169.8856 289.0971,170.1666 289.0971,170.6406 M291.1611,173.1966 C291.1611,172.6686 290.7251,172.3406 290.0251,172.3406 C289.3251,172.3406 288.9071,172.6686 288.9071,173.1966 C288.9071,173.7236 289.3331,174.1056 290.0251,174.1056 C290.7161,174.1056 291.1611,173.7326 291.1611,173.1966 M292.5721,173.2426 C292.5721,174.3786 291.5531,175.0606 290.0251,175.0606 C288.4971,175.0606 287.4961,174.3516 287.4961,173.2426 C287.4881,172.6286 287.8461,172.0706 288.4061,171.8236 C287.9671,171.5676 287.7021,171.0936 287.7151,170.5856 C287.7151,169.5216 288.6241,168.8576 290.0251,168.8576 C291.4261,168.8576 292.3541,169.5216 292.3541,170.5856 C292.3621,171.0946 292.0941,171.5686 291.6531,171.8236 C292.2171,172.0686 292.5781,172.6266 292.5721,173.2426" id="Fill-57" fill="#263238" mask="url(#mask-2)"></path>
            <polygon id="Fill-58" fill="#263238" mask="url(#mask-2)" points="318.103 132.1758 318.103 138.1968 316.703 138.1968 316.703 133.2938 315.501 133.2938 315.501 132.1758"></polygon>
            <path d="M323.6508,137.0596 L323.6508,138.1966 L319.1038,138.1966 L319.1038,137.2876 L321.4318,135.0856 C321.9598,134.5856 322.0598,134.2766 322.0598,133.9766 C322.0598,133.5026 321.7318,133.2306 321.0948,133.2306 C320.6078,133.2156 320.1438,133.4446 319.8588,133.8396 L318.8388,133.1846 C319.4028,132.4386 320.2978,132.0196 321.2318,132.0666 C322.5688,132.0666 323.4688,132.7576 323.4688,133.8856 C323.4528,134.6436 323.0788,135.3486 322.4598,135.7866 L321.0778,137.0956 L323.6508,137.0596 Z" id="Fill-59" fill="#263238" mask="url(#mask-2)"></path>
            <polygon id="Fill-60" fill="#263238" mask="url(#mask-2)" points="318.103 168.9668 318.103 174.9878 316.703 174.9878 316.703 170.0858 315.501 170.0858 315.501 168.9668"></polygon>
            <path d="M322.3959,170.7949 C322.3959,170.2859 322.0139,169.8859 321.3499,169.8859 C320.8509,169.8299 320.4019,170.1909 320.3459,170.6899 C320.3419,170.7249 320.3399,170.7599 320.3399,170.7949 C320.3359,171.2969 320.7399,171.7079 321.2429,171.7119 C321.2849,171.7129 321.3269,171.7099 321.3689,171.7049 C321.8669,171.7699 322.3229,171.4189 322.3879,170.9209 C322.3939,170.8789 322.3969,170.8369 322.3959,170.7949 M323.9599,171.8509 C324.1339,173.4579 322.9699,174.9019 321.3629,175.0759 C321.2049,175.0929 321.0449,175.0969 320.8859,175.0879 C320.3019,175.1039 319.7239,174.9619 319.2119,174.6789 L319.7309,173.6509 C320.0659,173.8679 320.4599,173.9759 320.8589,173.9599 C321.7419,174.0149 322.4999,173.3439 322.5549,172.4609 C322.5609,172.3759 322.5589,172.2899 322.5509,172.2049 C322.1449,172.5749 321.6079,172.7689 321.0589,172.7409 C320.0079,172.8319 319.0829,172.0539 318.9919,171.0019 C318.9889,170.9579 318.9859,170.9129 318.9849,170.8679 C319.0199,169.7179 319.9799,168.8149 321.1299,168.8489 C321.1759,168.8509 321.2219,168.8539 321.2679,168.8579 C322.9329,168.8579 323.9599,169.9029 323.9599,171.8509" id="Fill-61" fill="#263238" mask="url(#mask-2)"></path>
            <path d="M131.3627,208.0596 L131.3627,209.1966 L126.8147,209.1966 L126.8147,208.2876 L129.1427,206.0946 C129.6707,205.5856 129.7707,205.2766 129.7707,204.9756 C129.7707,204.5026 129.4437,204.2306 128.8067,204.2306 C128.3177,204.2106 127.8497,204.4356 127.5607,204.8306 L126.5417,204.1846 C127.1007,203.4346 127.9997,203.0146 128.9337,203.0666 C130.2707,203.0666 131.1717,203.7476 131.1717,204.8396 C131.1557,205.5976 130.7807,206.3026 130.1617,206.7406 L128.7797,208.0506 L131.3627,208.0596 Z" id="Fill-62" fill="#263238" mask="url(#mask-2)"></path>
            <path d="M135.6743,206.1856 C135.6743,204.8216 135.1923,204.2486 134.5003,204.2486 C133.8093,204.2486 133.3273,204.8216 133.3273,206.1856 C133.3273,207.5496 133.8093,208.1226 134.5003,208.1226 C135.1923,208.1226 135.6743,207.5136 135.6743,206.1856 M131.9173,206.1856 C131.9173,204.1946 133.0183,203.0756 134.5003,203.0756 C135.9833,203.0756 137.0833,204.1946 137.0833,206.1856 C137.0833,208.1776 135.9833,209.2966 134.5003,209.2966 C133.0183,209.2966 131.9173,208.1686 131.9173,206.1856" id="Fill-63" fill="#263238" mask="url(#mask-2)"></path>
            <path d="M163.1606,208.0596 L163.1606,209.1966 L158.6126,209.1966 L158.6126,208.2876 L160.9316,206.0946 C161.4696,205.5856 161.5596,205.2766 161.5596,204.9756 C161.5596,204.5026 161.2416,204.2306 160.6046,204.2306 C160.1126,204.2126 159.6436,204.4366 159.3486,204.8306 L158.3406,204.1846 C158.8996,203.4346 159.7976,203.0146 160.7316,203.0666 C162.0686,203.0666 162.9696,203.7476 162.9696,204.8396 C162.9536,205.5976 162.5786,206.3026 161.9606,206.7406 L160.5776,208.0506 L163.1606,208.0596 Z" id="Fill-64" fill="#263238" mask="url(#mask-2)"></path>
            <polygon id="Fill-65" fill="#263238" mask="url(#mask-2)" points="166.062 203.1748 166.062 209.1958 164.67 209.1958 164.67 204.2938 163.46 204.2938 163.46 203.1748"></polygon>
            <path d="M194.7221,208.0596 L194.7221,209.1966 L190.1741,209.1966 L190.1741,208.2876 L192.4931,206.0856 C193.0311,205.5856 193.1301,205.2766 193.1301,204.9756 C193.1301,204.5026 192.8031,204.2306 192.1661,204.2306 C191.6741,204.2126 191.2051,204.4366 190.9101,204.8306 L189.9021,204.1756 C190.4641,203.4296 191.3601,203.0106 192.2931,203.0566 C193.6301,203.0566 194.5311,203.7476 194.5311,204.8756 C194.5151,205.6336 194.1401,206.3386 193.5221,206.7776 L192.1391,208.0866 L194.7221,208.0596 Z" id="Fill-66" fill="#263238" mask="url(#mask-2)"></path>
            <path d="M199.7973,208.0596 L199.7973,209.1966 L195.2493,209.1966 L195.2493,208.2876 L197.5683,206.0856 C198.1063,205.5856 198.1963,205.2766 198.1963,204.9756 C198.1963,204.5026 197.8783,204.2306 197.2413,204.2306 C196.7493,204.2106 196.2793,204.4356 195.9863,204.8306 L194.9773,204.1756 C195.5373,203.4266 196.4353,203.0066 197.3683,203.0566 C198.7053,203.0566 199.6063,203.7476 199.6063,204.8756 C199.5903,205.6336 199.2153,206.3386 198.5973,206.7776 L197.2143,208.0866 L199.7973,208.0596 Z" id="Fill-67" fill="#263238" mask="url(#mask-2)"></path>
            <path d="M226.5561,208.0596 L226.5561,209.1966 L222.0081,209.1966 L222.0081,208.2876 L224.3271,206.0856 C224.8651,205.5856 224.9641,205.2766 224.9641,204.9756 C224.9641,204.5026 224.6371,204.2306 224.0001,204.2306 C223.5091,204.2126 223.0401,204.4366 222.7451,204.8306 L221.7361,204.1756 C222.2981,203.4296 223.1951,203.0106 224.1281,203.0566 C225.4651,203.0566 226.3661,203.7476 226.3661,204.8756 C226.3491,205.6336 225.9751,206.3386 225.3561,206.7776 L223.9731,208.0866 L226.5561,208.0596 Z" id="Fill-68" fill="#263238" mask="url(#mask-2)"></path>
            <path d="M231.631301,207.3594 C231.631301,208.3694 230.8493,209.2964 229.1303,209.2964 C228.3193,209.3134 227.5213,209.0884 226.8383,208.6504 L227.3753,207.5874 C227.8793,207.9444 228.4843,208.1354 229.1033,208.1314 C229.7943,208.1314 230.2313,207.8404 230.2313,207.3594 C230.2313,206.8774 229.8943,206.6134 229.1033,206.6134 L228.4663,206.6134 L228.4663,205.7044 L229.7033,204.3024 L227.0843,204.3024 L227.0843,203.1844 L231.3043,203.1844 L231.3043,204.0934 L229.9403,205.6394 C230.8783,205.6554 231.6323,206.4204 231.631301,207.3594" id="Fill-69" fill="#263238" mask="url(#mask-2)"></path>
            <path d="M256.4262,208.0596 L256.4262,209.1966 L251.8782,209.1966 L251.8782,208.2876 L254.1972,206.0946 C254.7352,205.5856 254.8252,205.2766 254.8252,204.9756 C254.8252,204.5026 254.4972,204.2306 253.8612,204.2306 C253.3712,204.2106 252.9052,204.4356 252.6142,204.8306 L251.5962,204.1846 C252.1552,203.4346 253.0542,203.0146 253.9882,203.0666 C255.3342,203.0666 256.2262,203.7476 256.2262,204.8396 C256.2102,205.5956 255.8392,206.2996 255.2262,206.7406 L253.8342,208.0506 L256.4262,208.0596 Z" id="Fill-70" fill="#263238" mask="url(#mask-2)"></path>
            <polygon id="Fill-71" fill="#263238" mask="url(#mask-2)" points="262.4291 207.9316 261.4471 207.9316 261.4471 209.1966 260.0911 209.1966 260.0911 207.9316 256.8441 207.9316 256.8441 207.0226 259.6821 203.2026 261.1471 203.2026 258.5181 206.8406 260.1371 206.8406 260.1371 205.6946 261.4471 205.6946 261.4471 206.8226 262.4291 206.8226"></polygon>
            <path d="M289.3979,208.0596 L289.3979,209.1966 L284.8499,209.1966 L284.8499,208.2876 L287.1779,206.0946 C287.7059,205.5856 287.8059,205.2766 287.8059,204.9756 C287.8059,204.5026 287.4779,204.2306 286.8409,204.2306 C286.3519,204.2106 285.8849,204.4356 285.5949,204.8306 L284.5769,204.1846 C285.1359,203.4346 286.0349,203.0146 286.9689,203.0666 C288.3149,203.0666 289.2069,203.7476 289.2069,204.8396 C289.1899,205.5976 288.8159,206.3026 288.1969,206.7406 L286.8149,208.0506 L289.3979,208.0596 Z" id="Fill-72" fill="#263238" mask="url(#mask-2)"></path>
            <path d="M294.518,207.3047 C294.518,208.3687 293.736,209.2967 292.017,209.2967 C291.205,209.3107 290.406,209.0897 289.716,208.6597 L290.271,207.5867 C290.768,207.9457 291.367,208.1367 291.981,208.1317 C292.681,208.1317 293.109,207.8407 293.109,207.3497 C293.109,206.8587 292.799,206.5677 291.707,206.5677 L290.17,206.5677 L290.48,203.1747 L294.118,203.1747 L294.118,204.2937 L291.663,204.2937 L291.572,205.4407 L292.063,205.4407 C293.818,205.4407 294.518,206.2407 294.518,207.3047" id="Fill-73" fill="#263238" mask="url(#mask-2)"></path>
            <path d="M320.2768,208.0596 L320.2768,209.1966 L315.7288,209.1966 L315.7288,208.2876 L318.0578,206.0946 C318.5938,205.5856 318.6848,205.2766 318.6848,204.9756 C318.6848,204.5026 318.3578,204.2306 317.7208,204.2306 C317.2318,204.2106 316.7648,204.4356 316.4748,204.8306 L315.4568,204.1846 C316.0158,203.4346 316.9138,203.0146 317.8478,203.0666 C319.1948,203.0666 320.0858,203.7476 320.0858,204.8396 C320.0698,205.5976 319.6948,206.3026 319.0768,206.7406 L317.6938,208.0506 L320.2768,208.0596 Z" id="Fill-74" fill="#263238" mask="url(#mask-2)"></path>
            <path d="M324.4516,207.3682 C324.4556,206.8662 324.0516,206.4562 323.5486,206.4522 C323.5106,206.4522 323.4716,206.4542 323.4326,206.4592 C322.9356,206.3832 322.4726,206.7242 322.3966,207.2222 C322.3896,207.2692 322.3866,207.3192 322.3876,207.3682 C322.3876,207.8782 322.7776,208.2772 323.4516,208.2772 C323.9506,208.3282 324.3966,207.9642 324.4466,207.4642 C324.4506,207.4312 324.4516,207.4002 324.4516,207.3682 M325.8066,207.2962 C325.7946,208.4402 324.8556,209.3582 323.7106,209.3472 C323.6396,209.3462 323.5676,209.3412 323.4966,209.3332 C321.8416,209.3332 320.7676,208.2962 320.7676,206.3492 C320.5956,204.7412 321.7586,203.2972 323.3666,203.1242 C323.5236,203.1062 323.6826,203.1022 323.8426,203.1112 C324.4276,203.0962 325.0056,203.2362 325.5156,203.5202 L325.0066,204.5392 C324.6676,204.3322 324.2756,204.2272 323.8786,204.2392 C322.9916,204.1852 322.2276,204.8622 322.1746,205.7492 C322.1706,205.8282 322.1716,205.9072 322.1786,205.9852 C322.5856,205.6202 323.1226,205.4302 323.6696,205.4582 C324.7176,205.3322 325.6686,206.0792 325.7946,207.1262 C325.8016,207.1822 325.8056,207.2392 325.8066,207.2962" id="Fill-75" fill="#263238" mask="url(#mask-2)"></path>
            <path d="M131.3627,242.2676 L131.3627,243.4046 L126.8147,243.4046 L126.8147,242.4956 L129.1427,240.3026 C129.6707,239.7936 129.7707,239.4846 129.7707,239.1936 C129.7707,238.7106 129.4437,238.4386 128.8067,238.4386 C128.3177,238.4186 127.8497,238.6446 127.5607,239.0386 L126.5417,238.3936 C127.0997,237.6406 127.9987,237.2176 128.9337,237.2656 C130.2707,237.2656 131.1717,237.9556 131.1717,239.0836 C131.1557,239.8416 130.7807,240.5476 130.1617,240.9856 L128.7797,242.2946 L131.3627,242.2676 Z" id="Fill-76" fill="#263238" mask="url(#mask-2)"></path>
            <polygon id="Fill-77" fill="#263238" mask="url(#mask-2)" points="136.6284 237.3838 136.6284 238.2928 134.3914 243.4138 132.8814 243.4138 135.0374 238.5298 133.0454 238.5298 133.0454 239.5118 131.8084 239.5118 131.8084 237.3928"></polygon>
            <path d="M162.2055,242.2676 L162.2055,243.4046 L157.6575,243.4046 L157.6575,242.4956 L159.9855,240.3026 C160.5145,239.7936 160.6135,239.4846 160.6135,239.1846 C160.6135,238.7106 160.2865,238.4386 159.6495,238.4386 C159.1605,238.4186 158.6935,238.6446 158.4035,239.0386 L157.3855,238.3836 C157.9475,237.6376 158.8435,237.2186 159.7765,237.2656 C161.1235,237.2656 162.0145,237.9556 162.0145,239.0836 C161.9985,239.8416 161.6235,240.5466 161.0055,240.9856 L159.6225,242.2946 L162.2055,242.2676 Z" id="Fill-78" fill="#263238" mask="url(#mask-2)"></path>
            <path d="M164.3246,239.0566 C164.3246,239.5116 164.6886,239.8026 165.2336,239.8026 C165.7796,239.8026 166.1436,239.5116 166.1436,239.0566 C166.1436,238.6026 165.7706,238.3016 165.2336,238.3016 C164.6976,238.3016 164.3246,238.5836 164.3246,239.0566 M166.4076,241.6136 C166.4076,241.0846 165.9706,240.7576 165.2706,240.7576 C164.5706,240.7576 164.1516,241.0846 164.1516,241.6136 C164.1516,242.1406 164.5886,242.5226 165.2706,242.5226 C165.9526,242.5226 166.4076,242.1496 166.4076,241.6136 M167.8176,241.6586 C167.8176,242.7946 166.8076,243.4776 165.2706,243.4776 C163.7336,243.4776 162.7426,242.7676 162.7426,241.6586 C162.7336,241.0456 163.0916,240.4876 163.6516,240.2396 C163.2136,239.9846 162.9476,239.5096 162.9606,239.0026 C162.9606,237.9386 163.8696,237.2746 165.2706,237.2746 C166.6716,237.2746 167.6076,237.9386 167.6076,239.0026 C167.6126,239.5126 167.3416,239.9866 166.8986,240.2396 C167.4626,240.4846 167.8246,241.0436 167.8176,241.6586" id="Fill-79" fill="#263238" mask="url(#mask-2)"></path>
            <path d="M193.3305,242.2676 L193.3305,243.4046 L188.7825,243.4046 L188.7825,242.4956 L191.1105,240.3026 C191.6395,239.7936 191.7385,239.4846 191.7385,239.1936 C191.7385,238.7106 191.4115,238.4386 190.7745,238.4386 C190.2855,238.4186 189.8185,238.6446 189.5285,239.0386 L188.5105,238.3936 C189.0685,237.6406 189.9665,237.2176 190.9015,237.2656 C192.2485,237.2656 193.1395,237.9556 193.1395,239.0836 C193.1235,239.8416 192.7485,240.5476 192.1305,240.9856 L190.7015,242.2676 L193.3305,242.2676 Z" id="Fill-80" fill="#263238" mask="url(#mask-2)"></path>
            <path d="M197.1508,239.2022 C197.1508,238.6932 196.7688,238.2932 196.1048,238.2932 C195.6048,238.2372 195.1558,238.5982 195.0998,239.0972 C195.0958,239.1322 195.0948,239.1672 195.0948,239.2022 C195.0898,239.7052 195.4948,240.1152 195.9968,240.1202 C196.0388,240.1202 196.0818,240.1172 196.1228,240.1122 C196.6208,240.1782 197.0778,239.8262 197.1428,239.3282 C197.1478,239.2902 197.1508,239.2512 197.1508,239.2122 L197.1508,239.2022 Z M198.7148,240.2582 C198.8938,241.8602 197.7398,243.3042 196.1368,243.4822 C195.9718,243.501238 195.8058,243.5062 195.6408,243.4962 C195.0558,243.5112 194.4788,243.3692 193.9668,243.0862 L194.4858,242.0582 C194.8208,242.2752 195.2138,242.3842 195.6138,242.3682 C196.4958,242.4222 197.2548,241.7512 197.3098,240.8692 C197.3148,240.7832 197.3138,240.6972 197.3048,240.6122 C196.8988,240.9822 196.3628,241.1762 195.8138,241.1492 C194.7618,241.2392 193.8378,240.4612 193.7468,239.4102 C193.7428,239.3652 193.7408,239.3202 193.7398,239.2752 C193.7748,238.1262 194.7348,237.2222 195.8838,237.2572 C195.9308,237.2582 195.9768,237.2612 196.0228,237.2652 C197.6868,237.2742 198.7148,238.3202 198.7148,240.2582 L198.7148,240.2582 Z" id="Fill-81" fill="#263238" mask="url(#mask-2)"></path>
            <path d="M224.118637,241.5674 C224.118637,242.5774 223.3366,243.5044 221.6176,243.5044 C220.8076,243.5204 220.0116,243.2984 219.3256,242.8684 L219.8616,241.7954 C220.3626,242.1544 220.9656,242.3454 221.5816,242.3404 C222.2816,242.3404 222.7096,242.0584 222.7096,241.5674 C222.7096,241.0764 222.3816,240.8214 221.5816,240.8214 L220.9446,240.8214 L220.9446,239.9124 L222.1906,238.5114 L219.6256,238.5114 L219.6256,237.3924 L223.8376,237.3924 L223.8376,238.3014 L222.4816,239.8574 C223.3996,239.8914 224.1246,240.6484 224.118637,241.5674" id="Fill-82" fill="#263238" mask="url(#mask-2)"></path>
            <path d="M228.5209,240.3945 C228.5209,239.0295 228.0399,238.4575 227.3379,238.4575 C226.6379,238.4575 226.1739,239.0295 226.1739,240.3945 C226.1739,241.7585 226.6479,242.3315 227.3379,242.3315 C228.0299,242.3315 228.5209,241.7585 228.5209,240.3945 M224.7549,240.3945 C224.7549,238.4115 225.8559,237.2745 227.3379,237.2745 C228.8209,237.2745 229.9209,238.4115 229.9209,240.3945 C229.9209,242.3765 228.8309,243.5045 227.3379,243.5045 C225.8469,243.5045 224.7549,242.3855 224.7549,240.3945" id="Fill-83" fill="#263238" mask="url(#mask-2)"></path>
            <path d="M256.371537,241.5674 C256.371537,242.5774 255.5895,243.5044 253.8795,243.5044 C253.0665,243.5204 252.2675,243.2984 251.5785,242.8684 L252.1245,241.7954 C252.6245,242.1544 253.2265,242.3454 253.8435,242.3404 C254.5435,242.3404 254.9715,242.0584 254.9715,241.5674 C254.9715,241.0764 254.6345,240.8214 253.8435,240.8214 L253.2065,240.8214 L253.2065,239.9124 L254.4435,238.5114 L251.8875,238.5114 L251.8875,237.3924 L256.0995,237.3924 L256.0995,238.3014 L254.7435,239.8574 C255.6575,239.8964 256.3775,240.6524 256.371537,241.5674" id="Fill-84" fill="#263238" mask="url(#mask-2)"></path>
            <polygon id="Fill-85" fill="#263238" mask="url(#mask-2)" points="259.3461 237.3838 259.3461 243.4048 257.9451 243.4048 257.9451 238.5018 256.7441 238.5018 256.7441 237.3838"></polygon>
            <path d="M225.7377,101.3145 L225.7377,102.4515 L221.1897,102.4515 L221.1897,101.5425 L223.5087,99.3495 C224.0467,98.8395 224.1367,98.5315 224.1367,98.2405 C224.1367,97.7665 223.8097,97.4855 223.1737,97.4855 C222.6807,97.4645 222.2127,97.6935 221.9267,98.0945 L220.9077,97.4395 C221.4677,96.6905 222.3657,96.2705 223.2997,96.3205 C224.6457,96.3205 225.5377,97.0025 225.5377,98.1395 C225.5177,98.8945 225.1477,99.5965 224.5377,100.0415 L223.1457,101.3415 L225.7377,101.3145 Z" id="Fill-86" fill="#263238" mask="url(#mask-2)"></path>
            <path d="M257.326601,100.6143 C257.326601,101.6233 256.5446,102.5603 254.8256,102.5603 C254.0146,102.5723 253.2186,102.3483 252.5336,101.9143 L253.0696,100.8413 C253.5746,101.1993 254.1796,101.3903 254.7986,101.3863 C255.4896,101.3863 255.9266,101.1053 255.9266,100.6143 C255.9266,100.1233 255.5896,99.8683 254.7986,99.8683 L254.1616,99.8683 L254.1616,98.9583 L255.3976,97.5573 L252.8336,97.5573 L252.8336,96.4393 L257.0446,96.4393 L257.0446,97.3483 L255.6896,98.9043 C256.6046,98.9433 257.3276,99.6973 257.326601,100.6143" id="Fill-87" fill="#263238" mask="url(#mask-2)"></path>
            <polygon id="Fill-88" fill="#263238" mask="url(#mask-2)" points="289.6157 101.1865 288.6337 101.1865 288.6337 102.4515 287.2687 102.4515 287.2687 101.1865 284.0307 101.1865 284.0307 100.2775 286.8687 96.4575 288.3337 96.4575 285.6957 100.0955 287.3147 100.0955 287.3147 98.9675 288.6337 98.9675 288.6337 100.0955 289.6157 100.0955"></polygon>
            <path d="M320.6948,100.5596 C320.6948,101.6226 319.9138,102.5606 318.1848,102.5606 C317.3748,102.5716 316.5788,102.3476 315.8928,101.9136 L316.4388,100.8406 C316.9398,101.1996 317.5418,101.3906 318.1578,101.3866 C318.8488,101.3866 319.2858,101.0956 319.2858,100.6046 C319.2858,100.1136 318.9758,99.8226 317.8758,99.8226 L316.3388,99.8226 L316.6478,96.4296 L320.2858,96.4296 L320.2858,97.5486 L317.7758,97.5486 L317.6848,98.6946 L318.1668,98.6946 C319.9858,98.6946 320.6948,99.4956 320.6948,100.5596" id="Fill-89" fill="#263238" mask="url(#mask-2)"></path>
            <polygon id="Fill-90" fill="#E0E0E0" mask="url(#mask-2)" points="224.0278 73.627 222.4088 78.521 221.4448 78.521 220.2348 74.883 218.9988 78.521 218.0338 78.521 216.4058 73.627 217.3148 73.627 218.5348 77.348 219.8078 73.627 220.7168 73.627 221.9548 77.365 223.2098 73.627"></polygon>
            <path d="M224.9643,76.3565 L227.0843,76.3565 C227.0273,75.8225 226.5653,75.4245 226.0283,75.4465 C225.4913,75.4285 225.0303,75.8235 224.9643,76.3565 M227.9023,76.9385 L224.9743,76.9385 C225.0793,77.5095 225.6053,77.9045 226.1833,77.8475 C226.5623,77.8655 226.9303,77.7195 227.1933,77.4475 L227.6663,77.9845 C226.8503,78.8015 225.5253,78.8025 224.7073,77.9865 C224.3563,77.6345 224.1413,77.1695 224.1013,76.6745 C224.0483,75.6705 224.8193,74.8155 225.8223,74.7635 C225.8913,74.7595 225.9603,74.7595 226.0283,74.7645 C227.0323,74.7225 227.8803,75.5025 227.9223,76.5055 C227.9253,76.5685 227.9243,76.6305 227.9203,76.6925 C227.9203,76.7475 227.9113,76.8565 227.9023,76.9385" id="Fill-91" fill="#E0E0E0" mask="url(#mask-2)"></path>
            <path d="M231.5502,76.6563 C231.5202,76.0443 230.9992,75.5723 230.3872,75.6023 C229.7752,75.6333 229.3032,76.1533 229.3332,76.7653 C229.3622,77.3553 229.8492,77.8193 230.4402,77.8203 C231.0432,77.8323 231.5402,77.3523 231.5522,76.7503 C231.5532,76.7183 231.5522,76.6873 231.5502,76.6563 L231.5502,76.6563 Z M232.4132,73.3363 L232.4132,78.5203 L231.5682,78.5203 L231.5682,78.0393 C231.2592,78.3973 230.8042,78.5943 230.3312,78.5753 C229.2742,78.5033 228.4762,77.5863 228.5482,76.5283 C228.6142,75.5733 229.3752,74.8123 230.3312,74.7463 C230.7872,74.7293 231.2292,74.9123 231.5402,75.2463 L231.5402,73.3363 L232.4132,73.3363 Z" id="Fill-92" fill="#E0E0E0" mask="url(#mask-2)"></path>
            <polygon id="Fill-93" fill="#E0E0E0" mask="url(#mask-2)" points="251.4877 74.4004 249.8687 74.4004 249.8687 73.6274 254.0247 73.6274 254.0247 74.4004 252.3967 74.4004 252.3967 78.5204 251.4877 78.5204"></polygon>
            <path d="M258.3002,76.3838 L258.3002,78.5208 L257.3902,78.5208 L257.3902,76.5378 C257.3902,75.8738 257.0632,75.5558 256.4812,75.5558 C255.9342,75.5258 255.4662,75.9438 255.4362,76.4898 C255.4322,76.5548 255.4352,76.6188 255.4442,76.6838 L255.4442,78.5668 L254.5342,78.5668 L254.5342,73.3818 L255.4442,73.3818 L255.4442,75.2648 C255.7752,74.9398 256.2272,74.7678 256.6902,74.7918 C257.4882,74.7018 258.2082,75.2778 258.2982,76.0758 C258.3102,76.1778 258.3102,76.2808 258.3002,76.3838" id="Fill-94" fill="#E0E0E0" mask="url(#mask-2)"></path>
            <path d="M263.0297,74.792 L263.0297,78.521 L262.1927,78.521 L262.1927,78.048 C261.8927,78.396 261.4517,78.59 260.9917,78.575 C260.1767,78.651 259.4547,78.053 259.3777,77.237 C259.3677,77.132 259.3697,77.025 259.3827,76.92 L259.3827,74.792 L260.2917,74.792 L260.2917,76.802 C260.2917,77.484 260.6197,77.803 261.2017,77.803 C261.7427,77.834 262.2077,77.42 262.2387,76.878 C262.2427,76.811 262.2397,76.742 262.2287,76.675 L262.2287,74.792 L263.0297,74.792 Z" id="Fill-95" fill="#E0E0E0" mask="url(#mask-2)"></path>
            <polygon id="Fill-96" fill="#E0E0E0" mask="url(#mask-2)" points="285.7504 74.3916 285.7504 75.8826 288.1144 75.8826 288.1144 76.6476 285.7504 76.6476 285.7504 78.5206 284.8404 78.5206 284.8404 73.6266 288.4154 73.6266 288.4154 74.3916"></polygon>
            <path d="M291.2983,74.7188 L291.2983,75.6288 L291.0983,75.6288 C290.5373,75.5878 290.0493,76.0098 290.0093,76.5718 C290.0043,76.6418 290.0063,76.7128 290.0163,76.7828 L290.0163,78.6028 L289.1073,78.6028 L289.1073,74.8728 L289.9343,74.8728 L289.9343,75.4188 C290.2233,74.9498 290.7483,74.6808 291.2983,74.7188" id="Fill-97" fill="#E0E0E0" mask="url(#mask-2)"></path>
            <path d="M292.044,78.521 L292.953,78.521 L292.953,74.792 L292.044,74.792 L292.044,78.521 Z M291.926,73.646 C291.931,73.355 292.17,73.122 292.462,73.127 L292.481,73.127 C292.766,73.102 293.018,73.313 293.043,73.598 C293.044,73.607 293.044,73.617 293.044,73.627 C293.05,73.924 292.814,74.168 292.518,74.174 C292.505,74.174 292.494,74.174 292.481,74.173 C292.19,74.188 291.942,73.965 291.927,73.674 C291.926,73.664 291.926,73.655 291.926,73.646 L291.926,73.646 Z" id="Fill-98" fill="#E0E0E0" mask="url(#mask-2)"></path>
            <path d="M315.4018,78.002 L315.7118,77.302 C316.1788,77.649 316.7468,77.837 317.3298,77.839 C318.0938,77.839 318.4128,77.565 318.4128,77.202 C318.4128,76.147 315.5018,76.838 315.5018,75.02 C315.5018,74.228 316.1298,73.555 317.4748,73.555 C318.0478,73.545 318.6128,73.696 319.1038,73.991 L318.8218,74.7 C318.4118,74.454 317.9448,74.319 317.4658,74.31 C316.7118,74.31 316.4118,74.609 316.4118,74.974 C316.4118,76.02 319.3128,75.337 319.3128,77.139 C319.3128,77.921 318.6758,78.594 317.3298,78.594 C316.6388,78.617 315.9608,78.409 315.4018,78.002" id="Fill-99" fill="#E0E0E0" mask="url(#mask-2)"></path>
            <path d="M322.3412,77.3565 L322.3412,76.9195 L321.4322,76.9195 C320.8312,76.9195 320.6772,77.1475 320.6772,77.4195 C320.6772,77.6935 320.9412,77.9385 321.3862,77.9385 C321.8102,77.9875 322.2142,77.7505 322.3782,77.3565 L322.3412,77.3565 Z M323.2512,76.3375 L323.2512,78.5205 L322.4232,78.5205 L322.4232,78.0665 C322.1492,78.4295 321.7032,78.6235 321.2502,78.5755 C320.3952,78.5755 319.8592,78.1025 319.8592,77.4575 C319.8592,76.8105 320.2772,76.3375 321.4132,76.3375 L322.3782,76.3375 L322.3782,76.2835 C322.3782,75.7745 322.0692,75.4735 321.4682,75.4735 C321.0582,75.4665 320.6572,75.5975 320.3312,75.8465 L319.9942,75.2105 C320.4552,74.8885 321.0072,74.7255 321.5692,74.7465 C322.6322,74.7185 323.2512,75.2555 323.2512,76.3375 L323.2512,76.3375 Z" id="Fill-100" fill="#E0E0E0" mask="url(#mask-2)"></path>
            <path d="M326.6166,78.3574 C326.3716,78.5284 326.0786,78.6184 325.7796,78.6114 C325.1466,78.6904 324.5696,78.2414 324.4906,77.6084 C324.4796,77.5214 324.4786,77.4344 324.4876,77.3474 L324.4876,75.5284 L323.8696,75.5284 L323.8696,74.8284 L324.4876,74.8284 L324.4876,73.9724 L325.3976,73.9724 L325.3976,74.8284 L326.3976,74.8284 L326.3976,75.5284 L325.3976,75.5284 L325.3976,77.3474 C325.3976,77.7114 325.5796,77.9024 325.9166,77.9024 C326.0916,77.9074 326.2626,77.8564 326.4076,77.7564 L326.6166,78.3574 Z" id="Fill-101" fill="#E0E0E0" mask="url(#mask-2)"></path>
            <path d="M60.2934,125.9199 C60.2934,125.9199 58.7884,123.5059 56.7214,122.6089 C54.6544,121.7119 51.6154,122.4249 51.6154,122.4249 L5.2304,130.0429 C5.2304,130.0429 2.5784,130.9739 1.3404,132.6879 C0.1024,134.4009 0.2794,136.8979 0.2794,136.8979 L2.4354,142.5899 L54.0704,253.7269 C54.0704,253.7269 55.9284,257.7319 58.8244,259.2089 C61.7214,260.6859 66.0154,259.7429 66.0154,259.7429 L110.1744,245.4709 C110.1744,245.4709 113.7714,244.2569 114.6074,241.2389 C115.4444,238.2219 113.5214,233.3989 113.5214,233.3989 L60.2934,125.9199 Z" id="Fill-102" fill="#000000" mask="url(#mask-2)"></path>
            <path d="M59.5053,129.3965 C59.5053,129.3965 58.2353,126.5575 56.9673,125.2015 C55.6993,123.8445 53.6803,124.1005 53.6803,124.1005 L42.0383,126.2085 L40.4243,127.1185 C40.4243,127.1185 40.3083,129.1085 36.7223,129.8855 C32.8813,130.7175 30.3973,131.1585 26.5253,131.5925 C25.9243,131.6605 24.9933,131.5285 24.0373,131.0005 C23.2773,130.5805 22.7543,129.7355 20.5653,129.7885 C15.6183,129.9085 6.7403,132.0705 6.7403,132.0705 C6.7403,132.0705 5.1093,132.6595 4.7063,133.8095 C4.3043,134.9605 5.1293,136.6745 5.1293,136.6745 L57.2843,248.9205 C57.2843,248.9205 58.6583,252.0905 60.9933,253.2505 C63.3283,254.4115 66.6223,253.5605 66.6223,253.5605 L109.6183,240.2295 C109.6183,240.2295 111.2933,239.6905 111.7983,238.3515 C112.3043,237.0125 111.6403,234.8725 111.6403,234.8725 L59.5053,129.3965 Z" id="Fill-103" fill="#E6E6E6" mask="url(#mask-2)"></path>
            <path d="M89.6528,185.041 C90.5938,184.315 92.7988,182.316 92.7988,182.316 L98.8508,183.495 C98.8508,183.495 99.2158,184.642 99.1058,185.79 C98.9488,187.434 97.3968,191.037 97.1868,191.619 C96.9258,192.341 94.9838,195.668 94.9838,195.668 C94.9838,195.668 89.1708,185.412 89.6528,185.041" id="Fill-104" fill="#F5DBC5" mask="url(#mask-2)"></path>
            <path d="M81.3627,168.3877 C81.3627,168.3877 84.3127,165.2187 85.5407,164.0647 C86.9507,162.7407 88.2827,161.1647 89.8007,159.9657 C89.9637,159.8367 90.7027,159.8017 90.9847,159.9087 C92.6147,160.5197 93.3887,163.7457 93.4787,165.2287 C93.6417,167.9127 92.4607,172.3777 92.4607,172.3777 C92.4607,172.3777 89.2497,173.4757 88.2177,173.9127 C87.6407,174.1577 87.0067,174.6257 86.3387,174.5557 C85.8437,174.5037 83.3577,172.3157 83.3577,172.3157 L81.3627,168.3877 Z" id="Fill-105" fill="#F5DBC5" mask="url(#mask-2)"></path>
            <path d="M80.1362,165.9561 C80.1362,165.9561 81.8872,163.1621 82.5682,161.8001 C83.8532,159.2311 84.9902,156.5311 85.2282,153.6741 C85.3062,152.7391 84.8542,150.9341 84.7082,149.9951 C84.5592,149.0191 83.1132,146.9111 81.7162,147.0441 C80.2932,147.1801 79.5622,147.6061 78.7022,148.4991 C77.4882,149.7601 76.5232,151.3231 75.1692,152.4681 C74.8262,152.7591 74.1712,153.7571 74.1712,153.7571 L80.1362,165.9561 Z" id="Fill-106" fill="#F5DBC5" mask="url(#mask-2)"></path>
            <path d="M71.9917,288.0059 C73.8337,294.6039 75.7727,302.5869 78.2797,308.9569 C79.5697,312.2349 80.4047,314.3279 80.9447,315.6669 L35.0507,315.6669 C34.6367,313.9119 34.0777,311.4999 33.9057,310.5319 C33.1237,306.1529 32.3877,304.1829 31.3747,299.1669 C30.0627,292.6709 28.3697,287.0219 27.5287,280.4209 C26.8867,275.3789 26.8617,270.8559 26.5917,265.8369 C26.4617,263.4259 26.0317,260.1759 25.4957,258.1709 C24.2447,253.4969 23.1487,249.0669 21.5147,244.5359 C20.0697,240.5279 18.1527,237.1519 16.9247,232.9919 C16.1237,230.2769 15.4817,226.0969 15.3677,223.5279 C15.2547,220.9619 15.4007,214.0889 15.2247,210.8339 C14.8907,204.6569 14.2557,202.0349 13.3397,195.8799 C12.6907,191.5249 10.5027,187.4399 9.5167,183.1709 C9.2227,181.8959 9.3007,179.3979 11.0577,178.8569 C11.3697,178.7609 13.0887,178.5439 13.3567,178.5719 C17.6857,179.0279 20.5217,182.5929 22.5007,186.1549 C24.4177,189.6039 27.4887,196.3909 27.4887,196.3909 L53.4657,252.2689 C53.4657,252.2689 55.0867,255.6539 56.4907,257.2019 C57.8957,258.7519 57.9007,259.3369 60.9217,259.9399 C63.9407,260.5439 73.2657,257.5499 73.2657,257.5499 C73.2657,257.5499 72.6447,260.0979 71.7587,262.5309 C70.7777,265.2219 69.7837,267.1839 69.3407,268.7819 C68.6667,271.2069 69.0347,275.5709 69.6217,277.9169 C70.4917,281.3989 71.0267,284.5459 71.9917,288.0059" id="Fill-107" fill="#F5DBC5" mask="url(#mask-2)"></path>
            <path d="M80.3002,166.2051 C80.4202,166.2051 80.5382,166.1471 80.6102,166.0401 C80.7962,165.7631 85.1732,159.1901 85.5712,154.2621 C85.8362,150.9661 84.7302,147.9761 82.8802,146.9931 C82.0532,146.5531 80.7102,146.3101 79.0202,147.6581 C78.0482,148.4331 74.1522,153.1931 73.9872,153.3951 C73.8562,153.5561 73.8792,153.7911 74.0392,153.9211 C74.1972,154.0511 74.4332,154.0281 74.5642,153.8681 C75.9472,152.1761 78.7572,148.8221 79.4852,148.2411 C80.5722,147.3741 81.6262,147.1691 82.5292,147.6511 C84.0992,148.4861 85.0662,151.2421 84.8272,154.2021 C84.4452,158.9381 80.0352,165.5581 79.9902,165.6241 C79.8752,165.7961 79.9212,166.0271 80.0932,166.1431 C80.1552,166.1851 80.2282,166.2051 80.3002,166.2051" id="Fill-108" fill="#000000" mask="url(#mask-2)"></path>
            <path d="M92.5825,172.3828 C92.7345,172.3828 92.8785,172.2888 92.9335,172.1378 C94.0125,169.1908 94.2245,166.0738 93.5615,162.8748 C93.2875,161.5518 92.3755,159.9618 91.0215,159.5988 C90.3325,159.4138 89.2595,159.4838 88.0295,160.8588 C85.7705,163.3878 81.4235,167.9388 81.3795,167.9848 C81.2365,168.1328 81.2425,168.3688 81.3915,168.5118 C81.5405,168.6538 81.7775,168.6498 81.9195,168.4998 C81.9625,168.4538 86.3185,163.8938 88.5865,161.3558 C89.3695,160.4788 90.1245,160.1298 90.8275,160.3198 C91.8195,160.5848 92.6005,161.9128 92.8305,163.0268 C93.4645,166.0868 93.2635,169.0668 92.2315,171.8818 C92.1615,172.0748 92.2615,172.2888 92.4545,172.3608 C92.4965,172.3748 92.5405,172.3828 92.5825,172.3828" id="Fill-109" fill="#000000" mask="url(#mask-2)"></path>
            <path d="M89.8657,185.2568 C89.9497,185.2568 90.0347,185.2288 90.1037,185.1708 L93.0487,182.7178 C93.2077,182.5858 93.2287,182.3508 93.0957,182.1928 C92.9657,182.0328 92.7287,182.0128 92.5707,182.1448 L89.6267,184.5978 C89.4687,184.7298 89.4467,184.9648 89.5787,185.1228 C89.6527,185.2118 89.7587,185.2568 89.8657,185.2568" id="Fill-110" fill="#000000" mask="url(#mask-2)"></path>
            <path d="M95.1528,195.8047 C95.2738,195.8047 95.3928,195.7457 95.4648,195.6367 C96.9808,193.3337 99.7988,187.4647 99.4438,184.3317 C99.4208,184.1267 99.2388,183.9777 99.0308,184.0027 C98.8268,184.0267 98.6788,184.2107 98.7018,184.4147 C99.0198,187.2257 96.3988,192.8617 94.8408,195.2267 C94.7278,195.3987 94.7758,195.6297 94.9478,195.7427 C95.0108,195.7847 95.0828,195.8047 95.1528,195.8047" id="Fill-111" fill="#000000" mask="url(#mask-2)"></path>
            <path d="M48.4428,245.6416 C48.2458,245.7106 48.0358,245.6026 47.9698,245.4076 C42.3738,228.7196 37.4468,222.7726 34.1868,218.8376 C32.4388,216.7276 31.1748,215.2026 30.6898,212.9346 C30.3768,211.4616 30.0838,210.0336 29.7988,208.6466 C28.4528,202.0786 27.2898,196.4036 24.9288,191.3186 C23.4098,188.0436 19.9998,182.3696 18.1108,180.9286 C16.1128,179.4036 12.2618,177.9896 10.3498,179.7986 C8.9318,181.1406 10.1278,184.3446 11.2828,187.4426 C11.6748,188.4956 12.0818,189.5826 12.3688,190.5696 C13.6198,194.8726 14.4288,198.3586 15.1188,204.4466 C15.7938,210.4176 15.7818,216.9686 15.7138,220.3426 C15.6328,224.4236 15.9368,230.7556 19.4898,238.6056 C22.8708,246.0796 24.2128,251.7476 25.5098,257.2296 C25.6678,257.8956 25.8248,258.5586 25.9848,259.2216 C27.0228,263.5286 27.0968,266.6756 27.1748,270.0076 C27.2508,273.1616 27.3278,276.4226 28.1478,281.1736 C29.6448,289.8486 33.6188,308.5366 35.5278,315.6666 L34.7558,315.6666 C32.8178,308.3546 28.8968,289.9066 27.4118,281.3006 C26.5828,276.4956 26.5018,273.0576 26.4298,270.0256 C26.3478,266.5916 26.2788,263.6256 25.2588,259.3966 C25.0978,258.7326 24.9418,258.0686 24.7838,257.4016 C23.4948,251.9546 22.1618,246.3216 18.8098,238.9126 C15.1948,230.9256 14.8858,224.4816 14.9678,220.3286 C15.0358,216.9726 15.0468,210.4586 14.3768,204.5306 C13.6258,197.8916 12.6978,194.3746 11.6518,190.7776 C11.3738,189.8186 10.9898,188.7906 10.5848,187.7036 C9.3428,184.3776 8.0598,180.9386 9.8378,179.2566 C12.0888,177.1256 16.2968,178.6046 18.5648,180.3346 C20.7208,181.9806 24.2418,188.0626 25.6058,191.0036 C28.0028,196.1686 29.1728,201.8816 30.5298,208.4966 C30.8138,209.8816 31.1058,211.3086 31.4208,212.7786 C31.8668,214.8676 33.0178,216.2576 34.7618,218.3626 C38.0568,222.3396 43.0368,228.3506 48.6768,245.1686 C48.7428,245.3646 48.6378,245.5776 48.4428,245.6416" id="Fill-112" fill="#000000" mask="url(#mask-2)"></path>
            <path d="M69.4409,273.6514 C70.1689,281.0424 76.5919,304.9634 81.3299,315.6674 L80.5159,315.6674 C75.7639,304.7424 69.4229,281.0844 68.6979,273.7234 C68.2819,269.5024 69.4449,266.9174 70.6759,264.1784 C71.5319,262.2784 72.4159,260.3134 72.8739,257.6224 C72.9079,257.4184 73.1019,257.2824 73.3039,257.3174 C73.5069,257.3514 73.6429,257.5444 73.6089,257.7484 C73.1349,260.5324 72.2309,262.5424 71.3569,264.4854 C70.1169,267.2454 69.0449,269.6284 69.4409,273.6514" id="Fill-113" fill="#000000" mask="url(#mask-2)"></path>
            <path d="M64.101,258.4141 C66.82,258.4141 69.423,257.4561 69.571,257.4001 L111.114,243.7571 C111.253,243.7131 114.563,242.6131 115.135,239.7161 C115.689,236.9091 113.567,232.5631 113.476,232.3801 L86.944,178.8691 C86.853,178.6851 86.629,178.6091 86.444,178.7001 C86.26,178.7921 86.184,179.0161 86.276,179.2001 L112.808,232.7101 C112.829,232.7521 114.908,237.0141 114.403,239.5711 C113.915,242.0421 110.914,243.0381 110.883,243.0481 L69.324,256.6961 C69.263,256.7201 64.557,258.4471 61.422,257.2291 C58.3,256.0161 56.572,251.8081 56.555,251.7651 L4.581,140.4361 C4.499,140.1961 4.309,139.7781 4.067,139.2501 C3.275,137.5191 1.949,134.6221 2.327,133.0461 C2.848,130.8681 5.606,130.3951 6.931,130.1681 L52.219,122.6461 C52.249,122.6421 55.37,122.1531 57.503,123.4781 C59.654,124.8141 60.92,128.0521 60.932,128.0841 L82.87,172.3311 C82.962,172.5161 83.185,172.5911 83.371,172.4981 C83.555,172.4061 83.629,172.1821 83.538,171.9981 L82.973,170.8601 L61.616,127.7841 C61.574,127.6741 60.257,124.3111 57.897,122.8451 C55.525,121.3701 52.237,121.8871 52.097,121.9101 L6.807,129.4331 C5.438,129.6671 2.236,130.2161 1.601,132.8721 C1.163,134.6991 2.556,137.7421 3.388,139.5601 C3.613,140.0511 3.807,140.4751 3.89,140.7171 L55.871,252.0621 C55.938,252.2291 57.733,256.5961 61.151,257.9251 C62.071,258.2821 63.094,258.4141 64.101,258.4141" id="Fill-114" fill="#000000" mask="url(#mask-2)"></path>
            <path d="M52.9956,124.5244 L42.8056,126.4644 C42.4476,126.5324 41.4326,126.7894 41.0376,127.1554 C40.7976,127.3784 40.6696,127.6084 40.5226,127.8764 C40.3636,128.1644 40.1836,128.4904 39.8446,128.8444 C38.8296,129.9034 37.1596,130.1334 37.1096,130.1394 L28.5286,131.7364 C28.4476,131.7564 26.5296,132.2244 24.8696,131.7164 C24.0676,131.4704 23.6536,131.1904 23.2896,130.9434 C22.9136,130.6874 22.5886,130.4654 21.8376,130.3054 C20.3826,129.9934 18.8386,130.3774 18.7936,130.3874 L8.0616,132.2274 C7.3936,132.3304 5.5576,132.8174 5.0956,133.8264 C4.6286,134.8424 5.4046,136.7004 5.7526,137.3494 L57.8096,248.9874 C57.8226,249.0204 59.1666,252.2894 61.9086,253.1414 C64.7076,254.0144 69.1016,252.4624 69.1606,252.4424 L108.5296,240.2054 C108.5556,240.1984 111.0406,239.5454 111.5386,237.9384 C112.0506,236.2884 110.5696,233.4814 110.5496,233.4424 L58.0776,127.4984 C58.0706,127.4794 57.2936,125.6604 56.0416,124.9324 C55.3766,124.5464 54.5496,124.4574 53.9256,124.4574 C53.3886,124.4574 53.0016,124.5234 52.9956,124.5244 M61.6876,253.8544 C58.6006,252.8954 57.1766,249.4134 57.1256,249.2844 L5.0856,137.6844 C5.0286,137.5794 3.7006,135.0784 4.4176,133.5144 C5.1396,131.9384 7.8336,131.5064 7.9416,131.4914 L18.6386,129.6584 C18.7086,129.6404 20.3676,129.2254 21.9936,129.5764 C22.8876,129.7674 23.3056,130.0504 23.7096,130.3254 C24.0616,130.5644 24.3936,130.7914 25.0886,131.0034 C26.5446,131.4494 28.3306,131.0164 28.3696,131.0074 L36.9926,129.4034 C37.0076,129.4004 38.4706,129.2004 39.3056,128.3294 C39.5776,128.0444 39.7196,127.7884 39.8686,127.5164 C40.0326,127.2184 40.2016,126.9114 40.5306,126.6074 C41.1546,126.0304 42.5136,125.7604 42.6656,125.7314 L52.8596,123.7904 C52.9436,123.7744 54.9416,123.4294 56.4156,124.2884 C57.8816,125.1394 58.7296,127.1244 58.7566,127.1874 L111.2136,233.1014 C111.2806,233.2274 112.8556,236.2124 112.2516,238.1604 C111.6316,240.1594 108.8336,240.8974 108.7326,240.9224 L69.3966,253.1504 C69.2516,253.2024 66.5516,254.1554 63.9306,254.1554 C63.1526,254.1554 62.3826,254.0704 61.6876,253.8544" id="Fill-115" fill="#000000" mask="url(#mask-2)"></path>
            <path d="M62.5825,260.3584 C65.5135,260.3584 68.5195,259.3994 68.6895,259.3444 L109.4055,245.9884 C114.4195,244.4964 115.3625,241.8474 115.2325,238.3324 C115.2265,238.1264 115.0455,237.9764 114.8465,237.9724 C114.6405,237.9814 114.4795,238.1534 114.4875,238.3604 C114.6075,241.6194 113.7625,243.9134 109.1835,245.2754 L68.4585,258.6354 C68.4045,258.6524 62.9265,260.3964 59.7815,259.1754 C56.6535,257.9594 54.5395,253.5754 54.5195,253.5314 L27.2955,195.1204 C27.2095,194.9334 26.9855,194.8504 26.8005,194.9384 C26.6125,195.0254 26.5315,195.2474 26.6175,195.4334 L27.9285,198.2454 L53.8445,253.8484 C53.9365,254.0434 56.1035,258.5464 59.5115,259.8714 C60.4275,260.2274 61.4995,260.3584 62.5825,260.3584" id="Fill-116" fill="#000000" mask="url(#mask-2)"></path>
            <path d="M23.0883,187.3496 C23.1413,187.3496 23.1943,187.3376 23.2453,187.3146 C23.4333,187.2276 23.5133,187.0056 23.4263,186.8186 L2.9803,142.9496 C2.9083,142.7386 2.7473,142.3796 2.5433,141.9276 C1.7813,140.2396 0.3633,137.0966 0.8403,134.9316 C1.3283,132.7066 2.4313,131.5716 5.0523,130.5906 C5.2453,130.5186 5.3433,130.3036 5.2723,130.1106 C5.1993,129.9166 4.9843,129.8216 4.7913,129.8916 C1.9263,130.9626 0.6563,132.2866 0.1103,134.7716 C-0.4177,137.1776 1.0663,140.4666 1.8623,142.2346 C2.0563,142.6616 2.2123,143.0056 2.2893,143.2296 L22.7493,187.1336 C22.8133,187.2696 22.9473,187.3496 23.0883,187.3496" id="Fill-117" fill="#000000" mask="url(#mask-2)"></path>
            <path d="M28.2885,114.499 L25.1425,107.494 C15.3085,106.692 7.9855,98.07 8.7875,88.236 C9.5905,78.401 18.2125,71.08 28.0465,71.882 C37.8805,72.684 45.2025,81.306 44.4005,91.141 C43.7965,98.548 38.6695,104.809 31.5255,106.859 L28.2885,114.499 Z" id="Fill-118" fill="#FFFFFF" mask="url(#mask-2)"></path>
            <path d="M28.2885,114.499 C28.5235,113.919 29.4755,111.614 31.4495,106.825 L31.5325,106.949 L30.8425,106.949 L31.5325,106.756 C34.5325,105.885 37.2515,104.237 39.4125,101.98 C40.0595,101.307 40.6465,100.577 41.1655,99.801 C41.4285,99.4 41.7035,98.993 41.9665,98.572 L42.6555,97.233 C46.8195,88.414 43.0455,77.89 34.2265,73.727 C33.9125,73.578 33.5935,73.438 33.2705,73.31 C30.7065,72.272 27.9315,71.863 25.1775,72.115 C22.3725,72.34 19.6615,73.229 17.2685,74.71 C14.9915,76.146 13.0625,78.072 11.6245,80.348 C10.2575,82.495 9.3805,84.917 9.0575,87.441 C8.4775,91.989 9.6655,96.586 12.3765,100.283 C13.5455,101.83 14.9405,103.191 16.5175,104.32 C19.0675,106.095 22.0395,107.168 25.1355,107.433 L25.2185,107.433 L25.2185,107.48 C27.1295,111.884 28.0405,113.967 28.2815,114.52 C28.0265,113.975 27.0745,111.911 25.0595,107.55 L25.1285,107.598 C21.9925,107.363 18.9755,106.299 16.3855,104.514 C14.7695,103.383 13.3385,102.01 12.1425,100.442 C9.3675,96.693 8.1435,92.02 8.7265,87.394 C9.0515,84.818 9.9385,82.347 11.3275,80.154 C14.3345,75.322 19.4555,72.204 25.1285,71.75 C27.9295,71.512 30.7465,71.945 33.3475,73.013 C35.8405,74.026 38.0795,75.579 39.9025,77.56 C41.6195,79.445 42.9135,81.676 43.6975,84.102 C45.1205,88.478 44.8195,93.23 42.8555,97.392 C42.6215,97.848 42.3805,98.296 42.1665,98.772 C41.9525,99.248 41.6205,99.607 41.3515,100.015 C40.8225,100.802 40.2225,101.539 39.5585,102.216 C37.3575,104.49 34.5935,106.139 31.5465,106.991 L31.5465,106.818 L31.6975,106.818 L31.6425,106.949 C29.5375,111.635 28.5375,113.926 28.2885,114.499" id="Fill-119" fill="#263238" mask="url(#mask-2)"></path>
            <polygon id="Fill-120" fill="#FE7200" mask="url(#mask-2)" points="15.2026 92.415 18.1816 89.436 23.9326 94.545 35.2156 83.685 37.9856 86.668 23.5086 100.292"></polygon>
            <path d="M142.5239,315.667 C140.3329,311.309 138.1079,306.919 135.9669,302.543 C133.4269,297.353 131.5349,292.807 129.1569,287.534 C126.7439,282.186 123.4999,274.951 120.2039,269.02 C119.1759,267.17 117.9289,264.393 116.8789,262.578 C115.0709,259.453 113.2269,256.904 110.8879,254.099 C108.1739,250.841 103.5789,245.45 102.2049,241.329 C98.6099,230.546 99.2409,225.651 96.3439,214.644 C95.2999,210.674 90.3019,201.004 89.0059,197.115 C88.3799,195.239 87.5429,192.226 87.5429,192.226 C87.5429,192.226 85.5809,191.323 84.4619,190.344 C83.3449,189.363 80.7769,186.161 80.7769,186.161 C80.7769,186.161 78.6919,185.574 76.3569,185.126 C74.5809,184.784 72.6539,184.637 71.4219,184.217 C68.5739,183.244 65.4819,183.149 61.5989,180.966 C58.9439,179.473 55.3039,177.491 54.5979,173.96 C54.5039,173.486 55.3389,171.854 55.3389,171.854 C55.3389,171.854 56.4079,171.309 57.6609,171.303 C58.8439,171.297 60.1789,171.826 61.3469,171.982 C63.1309,172.221 65.9819,172.734 68.6079,173.002 C75.2619,173.679 82.7569,173.838 82.7569,173.838 C82.7569,173.838 86.9319,168.65 90.8239,165.277 C92.3229,163.979 99.0649,159.338 99.8529,158.746 C101.1789,157.751 102.9559,157.381 104.6199,157.196 C106.8829,156.944 108.4349,158.446 109.8029,159.929 C112.0759,162.39 114.0339,166.162 115.7979,168.96 C117.1319,171.075 118.3149,173.492 119.8759,175.762 C121.8929,178.696 124.1229,182.911 126.3349,185.727 C127.5909,187.327 129.9529,190.633 129.9529,190.633 C129.9529,190.633 132.0689,192.531 132.7389,193.87 C134.4499,197.292 133.5669,201.448 133.4319,203.975 C133.4319,203.975 132.9379,213.239 133.8059,220.563 C134.6749,227.888 137.1279,234.139 137.1279,234.139 L142.5239,244.474 L162.0669,271.402 L187.7579,304.84 L195.1139,315.667 L142.5239,315.667 Z" id="Fill-121" fill="#F5DBC5" mask="url(#mask-2)"></path>
            <path d="M92.2495,204.0205 C93.8675,207.1865 95.7005,210.7745 96.9815,215.5805 C97.9515,219.2135 98.5455,223.1085 99.1195,226.8755 C99.8105,231.4065 100.4625,235.6845 101.7035,239.4095 C103.8195,245.7565 105.6545,247.8145 110.0895,252.7855 L111.1945,254.0265 C115.2435,258.5875 118.7105,265.5135 121.7685,271.6245 C122.2835,272.6525 122.7895,273.6625 123.2855,274.6375 C124.2705,276.5715 126.0485,280.4285 128.2995,285.3115 C132.3685,294.1365 137.7975,305.9085 142.8215,315.6665 L141.9815,315.6665 C136.9995,305.9615 131.6455,294.3525 127.6215,285.6245 C125.3735,280.7485 123.5985,276.8975 122.6205,274.9755 C122.1235,273.9995 121.6175,272.9885 121.1015,271.9575 C118.0635,265.8885 114.6205,259.0085 110.6365,254.5225 L109.5315,253.2825 C105.1575,248.3765 103.1605,246.1385 100.9965,239.6455 C99.7335,235.8605 99.0775,231.5515 98.3825,226.9885 C97.8105,223.2415 97.2205,219.3665 96.2615,215.7725 C95.0005,211.0425 93.2645,207.6455 91.5855,204.3605 C90.5015,202.2395 89.4785,200.2375 88.6875,198.0505 C86.4115,191.7465 85.6845,186.1985 86.7425,183.2085 C87.7815,180.2775 89.4565,178.7845 92.0165,178.5085 C94.2425,178.2805 97.7235,182.1735 101.3255,188.9485 C102.8855,191.8805 104.0665,194.6845 105.2105,197.3975 C106.6375,200.7835 107.9855,203.9815 109.8205,206.7265 C111.5685,209.3415 114.3965,212.0965 117.1325,214.7605 C119.8045,217.3645 122.5685,220.0565 124.3525,222.6435 C124.4695,222.8135 124.4265,223.0455 124.2565,223.1635 C124.0875,223.2805 123.8545,223.2375 123.7375,223.0685 C121.9955,220.5415 119.2585,217.8745 116.6105,215.2955 C113.8495,212.6045 110.9925,209.8215 109.2005,207.1415 C107.3255,204.3365 105.9645,201.1075 104.5225,197.6865 C103.3865,194.9905 102.2105,192.2025 100.6665,189.2985 C96.5945,181.6405 93.4975,179.1025 92.0955,179.2505 C90.5665,179.4155 88.6565,180.0415 87.4455,183.4585 C86.4435,186.2895 87.1705,191.6495 89.3905,197.7965 C90.1645,199.9395 91.1775,201.9215 92.2495,204.0205" id="Fill-122" fill="#000000" mask="url(#mask-2)"></path>
            <path d="M114.6567,212.8272 L114.6617,212.8272 C114.8677,212.8242 115.0317,212.6552 115.029718,212.4482 C114.9897,209.4252 110.0897,199.3482 103.4907,193.5152 C103.3367,193.3792 103.0997,193.3932 102.9647,193.5472 C102.8277,193.7012 102.8427,193.9372 102.9967,194.0732 C109.3407,199.6812 114.2457,209.6222 114.2827,212.4592 C114.2857,212.6632 114.4527,212.8272 114.6567,212.8272" id="Fill-123" fill="#000000" mask="url(#mask-2)"></path>
            <path d="M194.7241,315.667 C186.4991,304.166 180.3101,296.173 174.3151,288.432 C170.4531,283.444 166.4581,278.287 161.9901,272.279 C160.3541,270.078 158.7391,267.928 157.1611,265.829 C147.6241,253.13 139.3881,242.163 136.1951,233.043 C132.7331,223.16 132.7061,216.702 132.6751,209.225 L132.6661,207.504 C132.6581,206.176 132.7861,204.792 132.9211,203.327 C133.3331,198.859 133.7591,194.241 130.1071,191.415 C127.1201,189.104 122.4161,187.373 118.2661,185.845 C116.8111,185.309 115.4371,184.803 114.2341,184.308 L112.9471,183.777 C109.1591,182.222 105.2421,180.612 101.5951,178.766 C98.8611,177.381 93.9591,175.647 91.0231,175.273 C85.2121,174.534 79.1201,174.026 72.9131,173.766 C70.2051,173.651 65.5561,173.144 61.7511,172.3 C57.9421,171.452 55.7251,171.302 54.9291,172.926 C54.4541,173.898 55.2721,176.062 58.1961,178.514 C62.4681,182.1 69.8971,183.548 75.8671,184.712 C77.1621,184.964 78.3851,185.203 79.4631,185.443 C82.4521,186.111 86.5421,187.714 86.5831,187.729 C86.7751,187.806 86.8701,188.021 86.7941,188.214 C86.7181,188.405 86.5001,188.499 86.3101,188.425 C86.2701,188.408 82.2321,186.826 79.3011,186.172 C78.2311,185.933 77.0201,185.697 75.7241,185.444 C69.6701,184.264 62.1361,182.795 57.7161,179.085 C54.2451,176.174 53.6841,173.771 54.2581,172.598 C55.3741,170.324 58.3841,170.788 61.9131,171.571 C65.6731,172.405 70.2681,172.907 72.9451,173.02 C79.1711,173.281 85.2851,173.791 91.1171,174.533 C94.1301,174.917 99.1421,176.688 101.9321,178.1 C105.5521,179.933 109.4551,181.536 113.2301,183.087 L114.5191,183.617 C115.7081,184.107 117.0761,184.611 118.5241,185.145 C122.7251,186.691 127.4861,188.444 130.5641,190.825 C134.5401,193.901 134.0751,198.945 133.6631,203.396 C133.5301,204.842 133.4041,206.208 133.4121,207.5 L133.4211,209.222 C133.4531,216.632 133.4791,223.031 136.8981,232.797 C140.0541,241.808 148.2591,252.731 157.7591,265.381 C159.3361,267.48 160.9521,269.632 162.5891,271.833 C167.0531,277.836 171.0441,282.99 174.9051,287.975 C180.9801,295.819 187.2531,303.921 195.6411,315.667 L194.7241,315.667 Z" id="Fill-124" fill="#000000" mask="url(#mask-2)"></path>
            <path d="M129.9946,191.2158 C130.0786,191.2158 130.1626,191.1878 130.2316,191.1308 C130.3906,190.9988 130.4136,190.7638 130.2826,190.6058 C126.3756,185.8718 122.7286,180.1728 119.9896,175.7358 C118.9256,174.0128 118.1816,172.6828 117.3926,171.2748 C116.1756,169.0988 114.9156,166.8488 112.3766,163.0018 C108.4326,157.0258 106.3936,156.9098 104.5956,156.8088 C104.4646,156.8018 104.3346,156.7938 104.2046,156.7838 C99.9816,156.4738 85.4126,168.1008 82.2066,173.5878 C82.1026,173.7658 82.1626,173.9938 82.3406,174.0988 C82.5176,174.2028 82.7476,174.1428 82.8506,173.9648 C85.8726,168.7938 100.2036,157.2258 104.1466,157.5278 C104.2816,157.5378 104.4166,157.5458 104.5536,157.5538 C106.1766,157.6458 108.0156,157.7498 111.7536,163.4128 C114.2776,167.2368 115.5306,169.4748 116.7416,171.6388 C117.5336,173.0538 118.2826,174.3908 119.3546,176.1278 C122.1066,180.5848 125.7706,186.3128 129.7066,191.0798 C129.7806,191.1698 129.8876,191.2158 129.9946,191.2158" id="Fill-125" fill="#000000" mask="url(#mask-2)"></path>
            <path d="M86.9897,192.4082 C87.1497,192.4082 87.2977,192.3042 87.3457,192.1432 C87.4057,191.9462 87.2947,191.7372 87.0967,191.6792 C85.1357,191.0862 83.0657,188.6612 81.4027,186.7122 C81.1827,186.4552 80.9687,186.2062 80.7637,185.9682 C80.6287,185.8122 80.3927,185.7952 80.2367,185.9302 C80.0817,186.0652 80.0647,186.3012 80.1997,186.4572 C80.4047,186.6932 80.6167,186.9412 80.8357,187.1962 C82.5617,189.2202 84.7117,191.7362 86.8817,192.3922 C86.9177,192.4032 86.9537,192.4082 86.9897,192.4082" id="Fill-126" fill="#000000" mask="url(#mask-2)"></path>
            <path d="M96.6713,176.7002 C96.7343,176.7002 96.7993,176.6832 96.8583,176.6492 C99.4333,175.1592 103.6643,171.8662 104.7713,168.8982 C104.8433,168.7052 104.7453,168.4902 104.5523,168.4192 C104.3593,168.3472 104.1443,168.4442 104.0723,168.6372 C103.0343,171.4212 98.9653,174.5672 96.4843,176.0042 C96.3063,176.1072 96.2443,176.3352 96.3483,176.5132 C96.4173,176.6332 96.5423,176.7002 96.6713,176.7002" id="Fill-127" fill="#000000" mask="url(#mask-2)"></path>
            <path d="M106.3081,180.8223 C106.3991,180.8223 106.4891,180.7903 106.5611,180.7243 C106.7121,180.5853 106.7221,180.3483 106.5821,180.1973 C106.0951,179.6673 105.0351,178.6573 103.9121,177.5883 C102.6221,176.3613 101.1621,174.9693 100.3551,174.1013 C100.2151,173.9503 99.9801,173.9403 99.8281,174.0813 C99.6771,174.2213 99.6681,174.4583 99.8081,174.6083 C100.6291,175.4943 102.1001,176.8943 103.3971,178.1293 C104.5101,179.1883 105.5621,180.1893 106.0341,180.7023 C106.1071,180.7823 106.2071,180.8223 106.3081,180.8223" id="Fill-128" fill="#000000" mask="url(#mask-2)"></path>
            <path d="M17.8998,130.541 L43.6678,126.301 C43.6678,126.301 43.3148,130.334 42.3748,130.541 C41.4348,130.748 17.8998,134.413 17.8998,134.413 L17.8998,130.541 Z" id="Fill-129" fill="#E6E6E6" mask="url(#mask-2)"></path>
        </g>
        <g id="Group-Copy" transform="translate(8.000000, 12.000000)">
            <line x1="30.9535831" y1="15.5" x2="587.046417" y2="15.5" id="Line" stroke="#CCCCCC" stroke-linecap="square"></line>
            <g id="01" transform="translate(15.500000, 0.000000)">
                <circle id="Oval" fill="#CCCCCC" cx="15.5" cy="15.5" r="15.5"></circle>
                <polygon id="1" fill="#FFFFFF" fill-rule="nonzero" points="17.5258824 22.02 17.5258824 7.6 15.2658824 7.6 10.4458824 10.28 11.6858824 12.36 14.9658824 10.48 14.9658824 22.02"></polygon>
            </g>
            <g id="02" transform="translate(106.500000, 0.000000)">
                <circle id="Oval-Copy" fill="#CCCCCC" cx="15.5" cy="15.5" r="15.5"></circle>
                <path d="M21.2494118,22.02 L21.2494118,19.9 L14.3894118,19.9 L18.6294118,15.62 C19.9694118,14.28 20.7094118,12.84 20.7094118,11.28 L20.7094118,11.08 C20.7094118,9.1 19.3094118,7.38 16.0494118,7.38 C13.1294118,7.38 11.7894118,9.18 11.1094118,10.42 L13.0294118,11.68 C13.9694118,10 15.0294118,9.66 16.0694118,9.66 C17.5494118,9.66 18.1294118,10.4 18.1294118,11.18 L18.1294118,11.34 C18.1294118,12.16 18.0294118,12.92 16.3494118,14.64 L11.0494118,20.1 L11.0494118,22.02 L21.2494118,22.02 Z" id="2" fill="#FFFFFF" fill-rule="nonzero"></path>
            </g>
            <g id="03" transform="translate(197.500000, 0.000000)">
                <circle id="Oval-Copy-2" fill="#FF0000" cx="15.5" cy="15.5" r="15.5"></circle>
                <path d="M15.5694118,22.24 C19.1094118,22.24 20.8094118,20.22 20.8094118,18.04 L20.8094118,17.74 C20.8094118,16.1 19.9094118,14.82 18.0094118,14.48 C19.6494118,13.86 20.0894118,12.32 20.0894118,11.18 L20.0894118,10.98 C20.0894118,8.82 18.3294118,7.38 15.6294118,7.38 C13.5494118,7.38 12.3094118,8.22 11.3494118,9.46 L13.0894118,10.82 C13.7294118,10.12 14.4094118,9.62 15.6294118,9.62 C16.8294118,9.62 17.5894118,10.1 17.5894118,11.18 L17.5894118,11.34 C17.5894118,12.58 17.1894118,13.42 15.3894118,13.42 L13.6694118,13.42 L13.6694118,15.62 L15.6094118,15.62 C17.4494118,15.62 18.2294118,16.26 18.2294118,17.66 L18.2294118,17.92 C18.2294118,19.18 17.3894118,19.96 15.5894118,19.96 C14.4294118,19.96 13.6094118,19.66 12.2094118,18.64 L10.9494118,20.64 C12.3094118,21.72 13.8894118,22.24 15.5694118,22.24 Z" id="3" fill="#FFFFFF" fill-rule="nonzero"></path>
            </g>
            <g id="04" transform="translate(288.500000, 0.000000)">
                <circle id="Oval-Copy-2" fill="#CCCCCC" cx="15.5" cy="15.5" r="15.5"></circle>
                <polygon id="4" fill="#FFFFFF" fill-rule="nonzero" points="19.1176471 22.02 19.1176471 19.02 21.0776471 19.02 21.0776471 16.96 19.1176471 16.96 19.1176471 12.64 16.5976471 12.64 16.5976471 16.96 12.4376471 16.96 18.7376471 7.6 15.9776471 7.6 9.41764706 17.36 9.41764706 19.02 16.5976471 19.02 16.5976471 22.02"></polygon>
            </g>
            <g id="05" transform="translate(379.500000, 0.000000)">
                <circle id="Oval-Copy-2" fill="#CCCCCC" cx="15.5" cy="15.5" r="15.5"></circle>
                <path d="M15.4176471,22.24 C19.0376471,22.24 20.5576471,19.74 20.5576471,17.44 L20.5576471,17.14 C20.5576471,14.82 19.0376471,12.74 16.2576471,12.74 C15.0576471,12.74 14.2376471,13.08 13.5776471,13.48 L13.7376471,9.72 L19.6176471,9.72 L19.6176471,7.6 L11.4376471,7.6 L10.9776471,15.94 L12.6976471,15.94 C13.3376471,15.32 14.2176471,14.8 15.4376471,14.8 C17.0376471,14.8 17.9776471,15.66 17.9776471,17.2 L17.9776471,17.42 C17.9776471,18.86 17.1576471,19.92 15.3976471,19.92 C14.0576471,19.92 12.8976471,19.7 11.5376471,18.62 L10.2976471,20.64 C11.7376471,21.82 13.3376471,22.24 15.4176471,22.24 Z" id="5" fill="#FFFFFF" fill-rule="nonzero"></path>
            </g>
            <g id="06" transform="translate(470.500000, 0.000000)">
                <circle id="Oval-Copy-2" fill="#CCCCCC" cx="15.5" cy="15.5" r="15.5"></circle>
                <path d="M15.4376471,22.24 C18.6376471,22.24 20.5576471,20.2 20.5576471,17.52 L20.5576471,17.12 C20.5576471,14.32 18.8576471,12.48 16.0576471,12.48 C14.8176471,12.48 13.5176471,12.92 12.8176471,13.74 C12.9976471,10.66 14.3576471,9.7 15.8376471,9.7 C17.0176471,9.7 17.9976471,9.98 18.8976471,10.5 L19.8376471,8.38 C18.7576471,7.66 17.2976471,7.38 15.9976471,7.38 C12.8576471,7.38 10.2776471,8.86 10.2776471,15.22 L10.2776471,16.14 C10.2776471,19.84 11.7576471,22.24 15.4376471,22.24 Z M15.3776471,19.92 C13.7376471,19.92 12.8576471,19 12.8576471,17.44 L12.8576471,17.14 C12.8576471,15.82 13.6376471,14.72 15.4776471,14.72 C17.2376471,14.72 18.0376471,15.52 18.0376471,17.2 L18.0376471,17.42 C18.0376471,19.02 17.1376471,19.92 15.3776471,19.92 Z" id="6" fill="#FFFFFF" fill-rule="nonzero"></path>
            </g>
            <g id="06-copy" transform="translate(561.500000, 0.000000)">
                <circle id="Oval-Copy-2" fill="#CCCCCC" cx="15.5" cy="15.5" r="15.5"></circle>
                <polygon id="7" fill="#FFFFFF" fill-rule="nonzero" points="14.9376471 23.02 20.4576471 10.56 20.4576471 8.6 10.1576471 8.6 10.1576471 10.76 17.7776471 10.76 12.2376471 23.02"></polygon>
            </g>
            <path d="M13.446,54.818 L13.446,45.774 L12.273,45.774 L12.273,49.548 L10.029,49.548 L10.029,45.978 L8.856,45.978 L8.856,54.784 L10.029,54.784 L10.029,50.619 L12.273,50.619 L12.273,54.818 L13.446,54.818 Z M3.875,53.73 C6.017,53.73 7.292,52.149 7.292,50.517 L7.292,49.633 C7.292,48.001 6.017,46.42 3.875,46.42 C1.733,46.42 0.458,48.001 0.458,49.633 L0.458,50.517 C0.458,52.149 1.733,53.73 3.875,53.73 Z M3.875,52.642 C2.515,52.642 1.631,51.673 1.631,50.398 L1.631,49.752 C1.631,48.477 2.515,47.508 3.875,47.508 C5.235,47.508 6.119,48.477 6.119,49.752 L6.119,50.398 C6.119,51.673 5.235,52.642 3.875,52.642 Z M13.446,61.431 L13.446,55.736 L3.348,55.736 L3.348,56.79 L12.256,56.79 L12.256,61.431 L13.446,61.431 Z M27.845,54.937 L27.845,45.774 L26.655,45.774 L26.655,49.752 L23.408,49.752 L23.408,50.806 L26.655,50.806 L26.655,54.937 L27.845,54.937 Z M16.064,54.733 C16.846,54.172 18.002,53.254 18.597,52.727 C19.311,52.098 19.855,51.537 19.923,51.282 L19.94,51.282 C20.008,51.503 20.671,52.081 21.47,52.727 C21.98,53.135 22.796,53.747 23.476,54.223 L24.173,53.373 C23.204,52.727 22.252,52.013 21.708,51.554 C20.603,50.602 20.484,50.143 20.484,49.14 L20.484,47.797 L23.816,47.797 L23.816,46.76 L15.775,46.76 L15.775,47.797 L19.277,47.797 L19.277,49.191 C19.277,50.109 19.09,50.704 18.257,51.52 C17.424,52.336 16.336,53.169 15.333,53.883 L16.064,54.733 Z M23.221,61.72 C25.771,61.72 27.93,60.615 27.93,58.83 L27.93,58.167 C27.93,56.382 25.771,55.294 23.221,55.294 C20.671,55.294 18.512,56.331 18.512,58.167 L18.512,58.83 C18.512,60.615 20.671,61.72 23.221,61.72 Z M23.221,60.7 C21.402,60.7 19.668,60.003 19.668,58.796 L19.668,58.218 C19.668,57.011 21.402,56.314 23.221,56.314 C25.04,56.314 26.774,57.011 26.774,58.218 L26.774,58.796 C26.774,60.003 25.04,60.7 23.221,60.7 Z M45.899,61.312 L45.899,52.625 L48.466,52.625 L48.466,51.554 L45.899,51.554 L45.899,45.774 L44.692,45.774 L44.692,61.312 L45.899,61.312 Z M37.824,57.13 C39.745,57.13 41.836,57.062 43.604,56.858 L43.519,55.838 C42.788,55.923 42.023,55.974 41.207,56.025 L41.207,48.307 L42.924,48.307 L42.924,47.27 L34.016,47.27 L34.016,48.307 L35.665,48.307 L35.665,56.076 L33.846,56.076 L33.846,57.13 L37.824,57.13 Z M38.8427407,56.0753704 L36.838,56.076 L36.838,48.307 L40.034,48.307 L40.034,56.059 C39.6486667,56.0703333 39.2482222,56.0741111 38.8427407,56.0753704 L38.8427407,56.0753704 Z M50.03,52.489 C51.424,51.945 52.648,51.367 53.566,50.908 C54.688,50.347 55.368,49.854 55.555,49.446 L55.572,49.446 C55.759,49.837 56.439,50.33 57.561,50.891 C58.479,51.35 59.72,51.928 61.114,52.472 L61.59,51.52 C60.332,51.044 59.023,50.466 57.935,49.905 C56.626,49.242 56.167,48.749 56.167,47.508 L56.167,46.08 L54.96,46.08 L54.96,47.508 C54.96,48.749 54.484,49.242 53.175,49.905 C52.087,50.466 50.778,51.044 49.52,51.52 L50.03,52.489 Z M62.695,55.158 L62.695,54.138 L56.15,54.138 L56.15,51.741 L54.96,51.741 L54.96,54.138 L48.415,54.138 L48.415,55.158 L62.695,55.158 Z M60.893,61.125 L60.893,60.071 L51.73,60.071 L51.73,56.535 L50.523,56.535 L50.523,61.125 L60.893,61.125 Z" id="액정파손" fill="#6E6E6E" fill-rule="nonzero"></path>
            <path d="M111.256,53.764 L111.256,45.774 L110.083,45.774 L110.083,49.174 L107.839,49.174 L107.839,45.978 L106.666,45.978 L106.666,53.73 L107.839,53.73 L107.839,50.245 L110.083,50.245 L110.083,53.764 L111.256,53.764 Z M101.685,53.356 C103.946,53.356 105.102,51.707 105.102,50.313 L105.102,49.463 C105.102,48.069 103.946,46.42 101.685,46.42 C99.424,46.42 98.268,48.069 98.268,49.463 L98.268,50.313 C98.268,51.707 99.424,53.356 101.685,53.356 Z M101.685,52.268 C100.24,52.268 99.441,51.231 99.441,50.194 L99.441,49.582 C99.441,48.545 100.24,47.508 101.685,47.508 C103.13,47.508 103.929,48.545 103.929,49.582 L103.929,50.194 C103.929,51.231 103.13,52.268 101.685,52.268 Z M111.256,61.295 L111.256,54.682 L110.083,54.682 L110.083,56.807 L102.773,56.807 L102.773,54.682 L101.6,54.682 L101.6,61.295 L111.256,61.295 Z M110.083,60.224 L102.773,60.224 L102.773,57.861 L110.083,57.861 L110.083,60.224 Z M129.038,61.312 L129.038,52.608 L131.622,52.608 L131.622,51.537 L129.038,51.537 L129.038,45.774 L127.831,45.774 L127.831,61.312 L129.038,61.312 Z M120.759,57.164 C122.663,57.164 124.703,57.045 126.505,56.722 L126.352,55.651 C124.448,55.974 122.799,56.076 121.065,56.076 L119.059,56.076 L119.059,48.273 L124.924,48.273 L124.924,47.185 L117.852,47.185 L117.852,57.164 L120.759,57.164 Z M138.745,52.353 C141.465,52.353 143.624,51.265 143.624,49.565 L143.624,48.919 C143.624,47.219 141.465,46.131 138.745,46.131 C136.025,46.131 133.866,47.219 133.866,48.919 L133.866,49.565 C133.866,51.265 136.025,52.353 138.745,52.353 Z M138.745,51.333 C136.79,51.333 135.022,50.568 135.022,49.48 L135.022,49.004 C135.022,47.916 136.79,47.151 138.745,47.151 C140.7,47.151 142.468,47.916 142.468,49.004 L142.468,49.48 C142.468,50.568 140.7,51.333 138.745,51.333 Z M139.527,58.014 L139.527,54.801 L145.885,54.801 L145.885,53.781 L131.605,53.781 L131.605,54.801 L138.337,54.801 L138.337,58.014 L139.527,58.014 Z M144.1,61.125 L144.1,60.071 L134.937,60.071 L134.937,56.535 L133.73,56.535 L133.73,61.125 L144.1,61.125 Z" id="앱다운" fill="#6E6E6E" fill-rule="nonzero"></path>
            <path d="M210.817,56.858 L210.817,45.774 L209.627,45.774 L209.627,56.858 L210.817,56.858 Z M199.019,54.988 C200.005,54.206 200.974,53.39 201.569,52.829 C202.317,52.115 202.844,51.588 202.895,51.299 L202.912,51.299 C202.997,51.571 203.456,52.03 204.238,52.693 C204.816,53.186 205.564,53.798 206.499,54.512 L207.213,53.679 C206.448,53.118 205.53,52.387 204.697,51.656 C203.558,50.636 203.456,50.228 203.456,48.97 L203.456,46.505 L202.232,46.505 L202.232,49.004 C202.232,50.296 202.113,50.721 201.042,51.792 C200.277,52.557 199.189,53.441 198.271,54.138 L199.019,54.988 Z M211.208,61.125 L211.208,60.071 L202.538,60.071 L202.538,55.94 L201.331,55.94 L201.331,61.125 L211.208,61.125 Z M213.843,55.056 C214.625,54.495 215.781,53.577 216.376,53.05 C217.09,52.421 217.634,51.86 217.702,51.605 L217.719,51.605 C217.787,51.826 218.45,52.404 219.249,53.05 C219.759,53.458 220.575,54.07 221.255,54.546 L221.952,53.696 C220.983,53.05 220.031,52.336 219.487,51.877 C218.382,50.925 218.263,50.466 218.263,49.497 L218.263,48.613 L221.663,48.613 L221.663,47.576 L218.263,47.576 L218.263,45.638 L217.056,45.638 L217.056,47.576 L213.469,47.576 L213.469,48.613 L217.056,48.613 L217.056,49.548 C217.056,50.432 216.869,51.027 216.036,51.843 C215.203,52.659 214.115,53.492 213.112,54.206 L213.843,55.056 Z M225.59,55.073 L225.59,45.774 L224.4,45.774 L224.4,50.262 L221.221,50.262 L221.221,51.316 L224.4,51.316 L224.4,55.073 L225.59,55.073 Z M220.966,61.72 C223.601,61.72 225.675,60.632 225.675,58.898 L225.675,58.252 C225.675,56.518 223.601,55.43 220.966,55.43 C218.331,55.43 216.257,56.484 216.257,58.235 L216.257,58.898 C216.257,60.632 218.331,61.72 220.966,61.72 Z M220.966,60.7 C219.062,60.7 217.413,59.986 217.413,58.83 L217.413,58.32 C217.413,57.164 219.062,56.45 220.966,56.45 C222.87,56.45 224.519,57.164 224.519,58.32 L224.519,58.83 C224.519,59.986 222.87,60.7 220.966,60.7 Z" id="신청" fill="#FF0000" fill-rule="nonzero"></path>
            <path d="M301.885,56.892 L301.885,45.774 L300.695,45.774 L300.695,56.892 L301.885,56.892 Z M293.589,54.308 C295.918,54.308 297.414,52.574 297.414,50.891 L297.414,49.871 C297.414,48.188 295.918,46.454 293.589,46.454 C291.26,46.454 289.764,48.188 289.764,49.871 L289.764,50.891 C289.764,52.574 291.26,54.308 293.589,54.308 Z M293.589,53.237 C292.008,53.237 290.92,52.064 290.92,50.789 L290.92,49.973 C290.92,48.698 292.008,47.525 293.589,47.525 C295.17,47.525 296.258,48.698 296.258,49.973 L296.258,50.789 C296.258,52.064 295.17,53.237 293.589,53.237 Z M302.276,61.125 L302.276,60.071 L293.589,60.071 L293.589,56.042 L292.382,56.042 L292.382,61.125 L302.276,61.125 Z M316.998,61.312 L316.998,45.774 L315.808,45.774 L315.808,61.312 L316.998,61.312 Z M313.938,60.547 L313.938,46.097 L312.748,46.097 L312.748,49.735 L310.045,49.735 L310.045,47.321 L304.197,47.321 L304.197,48.392 L308.872,48.392 L308.872,50.092 C308.872,53.084 308.481,53.866 303.908,56.96 L304.571,57.895 C309.059,54.852 309.926,53.713 310.028,50.789 L312.748,50.789 L312.748,53.781 L310.045,53.781 L310.045,54.835 L312.748,54.835 L312.748,60.547 L313.938,60.547 Z" id="인계" fill="#6E6E6E" fill-rule="nonzero"></path>
            <path d="M393.256,53.611 L393.256,50.194 L395.636,50.194 L395.636,49.14 L393.256,49.14 L393.256,45.774 L392.066,45.774 L392.066,53.611 L393.256,53.611 Z M390.655,52.387 L390.519,51.316 C387.935,51.656 386.49,51.724 383.192,51.724 L383.192,46.624 L381.985,46.624 L381.985,52.812 L382.843322,52.8110915 C386.80488,52.8020229 388.14229,52.7209677 390.655,52.387 Z M393.256,61.278 L393.256,54.529 L392.083,54.529 L392.083,56.722 L385.096,56.722 L385.096,54.529 L383.923,54.529 L383.923,61.278 L393.256,61.278 Z M392.083,60.207 L385.096,60.207 L385.096,57.776 L392.083,57.776 L392.083,60.207 Z M407.842,53.033 L407.842,46.369 L406.669,46.369 L406.669,48.698 L398.951,48.698 L398.951,46.369 L397.778,46.369 L397.778,53.033 L407.842,53.033 Z M406.669,52.03 L398.951,52.03 L398.951,49.735 L406.669,49.735 L406.669,52.03 Z M403.422,61.312 L403.422,56.144 L409.95,56.144 L409.95,55.107 L395.67,55.107 L395.67,56.144 L402.215,56.144 L402.215,61.312 L403.422,61.312 Z" id="납부" fill="#6E6E6E" fill-rule="nonzero"></path>
            <path d="M472.563,53.033 C473.94,52.489 475.266,51.877 476.184,51.418 C477.306,50.857 477.969,50.364 478.173,49.973 L478.19,49.973 C478.377,50.364 479.057,50.84 480.179,51.401 C481.097,51.86 482.389,52.455 483.766,52.999 L484.276,52.064 C483.018,51.588 481.641,50.976 480.553,50.415 C479.244,49.752 478.785,49.191 478.785,47.678 L478.785,46.318 L477.578,46.318 L477.578,47.678 C477.578,49.191 477.102,49.752 475.793,50.415 C474.705,50.976 473.294,51.605 472.036,52.081 L472.563,53.033 Z M478.802,61.312 L478.802,55.736 L485.33,55.736 L485.33,54.699 L471.05,54.699 L471.05,55.736 L477.595,55.736 L477.595,61.312 L478.802,61.312 Z M498.607,55.209 L498.607,45.774 L497.434,45.774 L497.434,47.95 L494.187,47.95 L494.187,48.987 L497.434,48.987 L497.434,50.721 L494.187,50.721 L494.187,51.758 L497.434,51.758 L497.434,55.209 L498.607,55.209 Z M495.105,54.104 L494.986,53.067 C492.912,53.305 490.77,53.339 487.846,53.339 L487.846,50.976 L492.997,50.976 L492.997,46.556 L486.673,46.556 L486.673,47.61 L491.824,47.61 L491.824,49.956 L486.673,49.956 L486.673,54.393 L487.531359,54.3922277 C491.255622,54.3850761 493.158207,54.3255862 495.105,54.104 Z M493.966,61.737 C496.72,61.737 498.692,60.683 498.692,58.983 L498.692,58.371 C498.692,56.688 496.72,55.617 493.966,55.617 C491.212,55.617 489.24,56.671 489.24,58.354 L489.24,58.983 C489.24,60.683 491.212,61.737 493.966,61.737 Z M493.966,60.717 C491.909,60.717 490.396,59.952 490.396,58.932 L490.396,58.422 C490.396,57.419 491.909,56.637 493.966,56.637 C496.023,56.637 497.536,57.402 497.536,58.422 L497.536,58.932 C497.536,59.952 496.023,60.717 493.966,60.717 Z" id="수령" fill="#6E6E6E" fill-rule="nonzero"></path>
            <path d="M575.885,53.713 L575.885,45.774 L574.695,45.774 L574.695,53.713 L575.885,53.713 Z M567.572,53.356 C569.833,53.356 571.363,51.826 571.363,50.262 L571.363,49.446 C571.363,47.882 569.833,46.352 567.572,46.352 C565.311,46.352 563.781,47.882 563.781,49.446 L563.781,50.262 C563.781,51.826 565.311,53.356 567.572,53.356 Z M567.572,52.285 C566.059,52.285 564.937,51.265 564.937,50.143 L564.937,49.565 C564.937,48.443 566.059,47.423 567.572,47.423 C569.085,47.423 570.207,48.443 570.207,49.565 L570.207,50.143 C570.207,51.265 569.085,52.285 567.572,52.285 Z M575.885,61.295 L575.885,54.631 L574.712,54.631 L574.712,56.773 L567.572,56.773 L567.572,54.631 L566.399,54.631 L566.399,61.295 L575.885,61.295 Z M574.712,60.224 L567.572,60.224 L567.572,57.827 L574.712,57.827 L574.712,60.224 Z M591.95,53.322 L591.95,52.285 L589.366,52.285 C589.621,51.061 589.757,49.82 589.757,48.681 L589.757,46.488 L579.54,46.488 L579.54,47.542 L588.567,47.542 L588.567,48.613 C588.567,49.752 588.448,50.976 588.142,52.285 L577.67,52.285 L577.67,53.322 L591.95,53.322 Z M589.859,61.278 L589.859,55.498 L579.761,55.498 L579.761,61.278 L589.859,61.278 Z M588.703,60.207 L580.917,60.207 L580.917,56.569 L588.703,56.569 L588.703,60.207 Z" id="입금" fill="#6E6E6E" fill-rule="nonzero"></path>
        </g>
    </g>
</svg>