<?xml version="1.0" encoding="UTF-8"?>
<svg width="609px" height="517px" viewBox="0 0 609 517" version="1.1" xmlns="http://www.w3.org/2000/svg" xmlns:xlink="http://www.w3.org/1999/xlink">
    <title>img-03-5</title>
    <defs>
        <polygon id="path-1" points="0.350109432 0.7992 77.033 0.7992 77.033 71.6832 0.350109432 71.6832"></polygon>
        <polygon id="path-3" points="0 305.963 358.033 305.963 358.033 0 0 0"></polygon>
    </defs>
    <g id="img-03-5" stroke="none" stroke-width="1" fill="none" fill-rule="evenodd">
        <text id="자기부담금-납부" font-family="TgothicMedium, Tgothic" font-size="27" font-weight="400" fill="#242424">
            <tspan x="214.415" y="501">자기부담금 납부</tspan>
        </text>
        <g id="Group-174" transform="translate(125.000000, 106.000000)">
            <path d="M166.3009,87.4509 C166.3009,87.4509 166.9179,102.4949 167.1629,107.8879 C167.5789,117.0449 167.4529,125.0439 168.0849,134.1999 C168.4419,139.3589 169.4229,225.2089 169.4229,225.2089 C169.4229,225.2089 176.0979,224.7279 177.4469,224.9219 C180.9159,225.4169 193.3469,225.3859 197.3699,224.7919 C202.6199,224.0139 207.8189,220.6329 212.4779,218.2109 C214.7079,217.0509 222.3019,209.3589 222.3019,209.3589 C222.3019,209.3589 219.1689,206.6269 218.6869,205.4509 C217.9869,203.7449 217.3199,202.0179 216.8249,200.2419 C214.4089,191.5389 213.9269,182.3739 211.4319,173.6389 C209.2749,166.0909 213.2229,160.8489 212.6149,153.1119 C211.8759,143.6889 213.2749,118.9299 212.9469,110.9039 C212.6259,102.9929 206.4369,85.1169 206.4369,85.1169 L203.4819,84.0409 C203.4819,84.0409 202.1469,87.9689 201.2519,88.9149 C198.8199,91.4919 195.9179,95.3839 192.4549,96.2499 C185.9589,97.8729 180.1949,96.2239 174.0379,93.8309 C171.8909,92.9959 166.3009,87.4509 166.3009,87.4509" id="Fill-1" fill="#FFFFFF"></path>
            <path d="M205.8136,84.0769 C205.8136,84.0769 207.1676,89.6389 208.0216,93.4289 C209.1166,98.2879 209.7266,106.1559 210.0246,110.3169 C210.7096,119.9179 210.6386,129.2459 210.8826,138.8749 C211.1536,149.5879 210.7806,160.7419 210.6426,171.4579 C210.5436,179.0829 210.3736,185.3269 211.6176,192.7889 C212.3006,196.8919 213.4576,200.8039 215.8866,204.3379 C217.3566,206.4749 221.8696,210.1739 221.8696,210.1739 C221.8696,210.1739 233.8096,202.5859 238.5546,200.2119 C240.4206,199.2789 249.2206,198.5469 249.2206,198.5469 C249.2206,198.5469 251.0236,193.7939 250.9536,190.6459 C250.8306,185.0809 247.5846,179.8699 247.5846,174.3039 C247.5846,169.2959 248.7056,156.5979 248.9646,149.9749 C249.1916,144.1889 248.0206,137.5059 248.0206,137.5059 C248.0206,137.5059 247.2516,127.5999 246.3136,121.4099 C245.3716,115.1869 244.6226,109.1999 241.2226,103.7099 C239.5666,101.0339 232.7326,96.3189 232.7326,96.3189 C232.7326,96.3189 229.9826,93.4709 227.7336,92.3529 C223.0076,90.0079 218.6256,89.0429 214.0126,87.4149 C212.7496,86.9689 211.0466,85.3249 208.9186,84.4729 C207.1436,83.7629 205.8136,84.0769 205.8136,84.0769" id="Fill-3" fill="#FE7200"></path>
            <path d="M165.8996,80.8376 C165.8996,80.8376 164.0476,80.8606 162.3306,81.6046 C158.2596,83.3676 153.6456,84.5336 149.7066,85.7346 C140.9596,88.4036 129.3646,88.4806 122.3066,94.5096 C115.3386,100.4616 113.4976,109.6036 112.0666,117.2426 C110.6196,124.9726 109.6836,134.3076 109.4346,142.6216 C109.2106,150.1886 106.1336,163.3076 105.0126,168.9146 C104.0596,173.6866 104.3526,177.5956 104.3986,179.2346 C104.4446,180.8746 105.1136,184.1166 105.1136,184.1166 C105.1136,184.1166 111.0856,186.6676 113.5486,187.8466 C115.9616,189.0006 120.4696,191.7356 122.3486,193.1816 C134.2986,202.3676 135.9086,214.8996 137.9616,227.6106 C138.7756,232.6506 141.7096,240.1626 141.7096,240.1626 C141.7096,240.1626 147.3146,237.8226 148.1266,237.6046 C150.3866,236.9936 159.6716,233.8216 161.7926,232.9156 C166.3676,230.9616 168.5966,228.3276 169.8096,224.3816 C171.0216,220.4346 171.7586,209.2826 169.8226,195.9896 C168.3116,185.6186 168.7576,175.1846 168.9006,165.2876 C168.9546,161.6156 169.4966,157.3956 169.4966,157.3956 C169.4966,157.3956 168.9106,145.1046 169.1846,140.0806 C169.5226,133.8696 167.4616,124.5776 167.4616,124.5776 C167.4616,124.5776 166.2426,112.7076 166.4666,103.9486 C166.5656,100.0536 166.4216,95.2646 166.1406,92.6126 C165.7726,89.1586 165.8996,80.8376 165.8996,80.8376" id="Fill-5" fill="#FE7200"></path>
            <path d="M155.4435,153.8806 C155.4435,153.8806 157.4085,153.0346 159.4445,150.1836 C160.9225,148.1126 162.5785,144.1916 162.8695,142.6136 C163.5935,138.6776 163.3825,133.3056 164.5805,129.4146 C165.5815,126.1606 166.9415,125.9086 168.9505,123.5716 C170.6735,121.5676 172.1365,118.8246 174.4565,117.1676 C176.5955,115.6396 181.8195,114.2596 184.1675,113.0856 C184.8995,112.7196 187.2565,112.1596 188.1505,112.4276 C189.0695,112.7026 187.1495,115.3366 186.4715,116.0166 C184.1675,118.3196 180.9255,117.9456 178.9005,120.2956 C178.6435,120.5936 175.5165,123.7456 175.6405,124.2446 C175.7525,124.6866 179.6575,123.3966 180.6785,123.4876 C182.0965,123.6176 186.2265,123.9706 186.8545,124.0936 C187.8275,124.2816 187.6055,125.8116 189.3765,126.2056 C191.7985,126.7476 195.1265,127.3506 196.8065,128.5996 C197.4725,129.0956 197.4165,129.6236 197.3025,130.5336 C197.2215,131.1806 195.5115,131.5026 195.2285,131.5216 C192.1255,131.7216 187.1305,130.3686 184.4305,129.9076 C181.7315,129.4466 179.5505,129.5056 179.5505,130.0886 C179.5505,131.0266 189.4035,133.5866 191.8075,135.2246 C192.1955,135.4896 195.0065,137.0276 194.2405,137.9296 C193.4735,138.8296 190.8605,139.1456 190.8605,139.1456 C190.8605,139.1456 190.0585,141.0206 189.5985,141.1736 C187.5705,141.8496 180.1365,141.0826 180.1365,141.0826 C180.1365,141.0826 178.6075,141.4996 177.3415,142.3896 C174.7825,144.1916 176.0555,148.0486 175.2055,150.7696 C173.3725,156.6376 167.6545,160.9086 165.3115,163.3876 C162.9675,165.8646 162.5985,168.4776 160.8045,167.3076 C157.9115,165.4206 155.5975,159.8796 155.2185,156.7196 C155.0815,155.5736 155.4435,153.8806 155.4435,153.8806" id="Fill-7" fill="#FFE5CE"></path>
            <path d="M165.6945,82.654 C165.6945,82.654 167.6975,81.461 168.8005,77.551 C169.9735,73.4 170.2435,66.424 169.9635,62.936 C169.8455,61.467 166.4955,59.655 165.5865,58.745 C163.8935,57.054 155.5275,46.147 156.6305,43.646 C158.1835,40.127 161.6325,34.492 165.5075,33.137 C171.7555,26.093 184.6185,28.592 194.0765,26.125 C197.5965,25.207 201.9525,18.745 204.9205,21.493 C207.0575,23.473 210.2305,26.882 211.1225,29.561 C212.4045,33.406 210.9565,43.794 211.0855,47.792 C211.2725,53.616 209.5405,63.284 206.7055,68.549 C204.6565,72.352 204.7235,72.347 201.9125,75.629 C201.6395,75.946 197.5005,78.951 197.5005,78.951 C197.5005,78.951 198.4935,80.914 200.1105,82.033 C202.7055,83.831 204.5805,84.451 204.5805,84.451 C204.5805,84.451 203.5465,89.026 200.3335,92.784 C196.1365,97.691 189.4175,98.402 183.2865,97.577 C179.5505,97.074 176.0785,96.033 172.7745,94.146 C169.2085,92.107 166.7285,88.7 166.7285,88.7 L165.6945,82.654 Z" id="Fill-9" fill="#FFE5CE"></path>
            <path d="M237.8449,131.8494 C235.3179,132.7134 232.1409,131.2904 229.5509,130.8334 C226.9489,130.3744 223.3099,130.3024 223.3099,130.3024 C223.3099,130.3024 219.7469,129.6704 219.9199,128.6284 C220.2219,126.8274 222.1949,122.1934 222.1949,122.1934 L235.1979,87.0924 C235.1979,87.0924 235.9269,85.3124 236.9989,84.6044 C238.0719,83.8964 239.4879,84.2604 239.4879,84.2604 L255.7509,86.1494 C255.7509,86.1494 258.3239,86.5454 258.7969,87.1354 C259.7399,88.3124 258.4109,90.0964 258.4109,90.0964 L251.6309,108.5904 L245.2809,125.9264 C245.2809,125.9264 241.5739,130.5734 237.8449,131.8494" id="Fill-11" fill="#666666"></path>
            <path d="M236.7863,156.7947 C239.8243,155.7807 242.3263,152.6907 242.3263,152.6907 C242.3263,152.6907 242.7783,144.1997 246.0353,139.9447 C246.5563,139.2677 250.2703,135.3517 250.7243,134.7237 C251.9853,132.9747 252.6523,129.0437 252.9183,128.8447 C253.8763,128.1197 255.6783,126.1337 255.7373,125.3597 C255.8473,123.9487 254.2493,122.8367 254.2493,122.8367 C254.2493,122.8367 254.2763,114.0367 253.9533,112.6767 C253.6683,111.4797 253.3043,110.0207 252.4503,109.4197 C250.6103,108.1227 247.5873,108.6207 245.8813,108.8907 C243.3833,109.2867 240.5303,108.9937 239.8303,110.3927 C239.4653,111.1257 240.1743,112.4947 241.9333,113.2677 C243.6923,114.0397 249.4433,114.4687 249.4433,114.4687 L248.1553,117.6017 C248.1553,117.6017 245.8403,116.2397 245.5813,116.1437 C242.1343,114.8507 237.3993,113.8187 233.7803,113.0967 C233.3063,113.0007 228.5043,112.0357 228.8473,113.9117 C229.0253,114.8987 231.5523,117.0567 232.2783,117.4297 C235.9083,119.2937 240.4223,120.5617 242.0613,121.4627 C243.7023,122.3657 245.8823,123.1947 246.3533,124.3387 C246.5753,124.8777 246.7863,125.8517 246.2243,126.0117 C245.2003,126.3047 240.5853,125.0637 239.6163,124.8957 C235.6693,124.2157 233.0793,124.1617 229.3173,122.7507 C228.0723,122.2837 225.4973,120.6497 224.1693,121.9787 C222.3113,123.8347 226.0223,126.3677 227.4733,126.9557 C228.6253,127.4227 232.9663,128.5007 234.3823,129.1017 C235.7973,129.7017 237.7503,130.7537 237.9853,131.4617 C238.1223,131.8677 233.4983,130.9937 232.7943,130.8167 C230.2083,130.1717 228.5063,129.6827 225.8863,129.4437 C225.3483,129.3957 224.1113,129.3307 223.8253,130.0457 C223.4233,131.0517 225.4993,132.5337 227.0013,133.3067 C228.5033,134.0787 231.9173,133.5707 233.1803,135.6237 C234.2433,137.3497 231.2833,142.1877 230.9373,143.9187 C230.0323,148.4417 230.2193,157.1027 230.2193,157.1027 C230.2193,157.1027 233.7463,157.8077 236.7863,156.7947" id="Fill-13" fill="#FFE5CE"></path>
            <path d="M170.0421,224.9011 C170.0421,224.9011 168.5081,229.4031 165.3871,231.5521 C163.5121,232.8421 158.8921,235.0401 154.8961,236.2561 C152.2421,237.0641 146.2571,240.1451 146.2571,240.1451 L148.9161,267.4611 C148.9161,267.4611 152.7861,269.0991 156.0181,269.9641 C160.0201,271.0371 163.8241,271.4431 167.3381,272.2541 C172.9921,273.5581 182.5151,272.8801 188.2261,272.8801 C197.5731,272.8801 205.9001,273.5071 215.2411,273.5071 C221.3101,273.5071 236.5571,275.2881 236.5571,275.2881 C236.5571,275.2881 240.3771,283.5031 243.4461,290.7801 C245.7101,296.1491 246.5891,296.9781 248.8311,301.6021 C250.0731,304.1641 263.1491,305.4961 273.1421,305.468532 C281.4611,305.4441 290.9421,304.0421 290.9421,302.7211 C290.9421,301.5011 290.8511,299.3201 290.3721,291.3931 C289.9831,284.9541 288.7041,276.1271 288.0651,267.4951 C287.4731,259.4741 284.9171,249.5201 282.2121,242.4871 C279.7431,236.0671 268.1261,235.1491 268.1261,235.1491 C268.1261,235.1491 266.4521,224.7661 265.8121,221.9621 C265.1741,219.1561 264.3991,216.8471 263.2551,212.3161 C262.1231,207.8391 258.6881,204.0791 256.8571,202.6231 C254.4461,200.7041 251.7841,199.0911 249.2781,198.3531 C241.6851,196.1201 233.3681,200.5751 227.1391,205.5521 C221.7241,209.8791 218.2591,214.4191 213.5361,217.5671 C209.2871,220.3991 203.8721,222.8971 198.8931,224.0841 C191.7201,225.7911 190.5871,225.2091 183.2391,225.2091 C182.7431,225.2091 175.8261,224.7781 174.2361,224.6971 C172.2051,224.5931 170.0421,224.9011 170.0421,224.9011" id="Fill-15" fill="#FFFFFF"></path>
            <path d="M192.548,80.0798 C185.707,80.0798 179.158,75.6888 174.478,67.9198 C174.307,67.6368 174.398,67.2688 174.681,67.0998 C174.964,66.9268 175.33,67.0188 175.501,67.3028 C180.126,74.9778 186.579,79.2088 193.276,78.8658 C198.995,78.5858 204.203,73.6238 207.206,65.5938 C208.241,62.8318 208.978,59.9818 209.398,57.1248 C209.446,56.7978 209.754,56.5678 210.075,56.6208 C210.402,56.6688 210.629,56.9728 210.581,57.2988 C210.15,60.2388 209.392,63.1718 208.327,66.0138 C205.151,74.5038 199.545,79.7558 193.334,80.0598 C193.072,80.0738 192.81,80.0798 192.548,80.0798" id="Fill-17" fill="#000000"></path>
            <path d="M206.2726,85.5935 C206.2036,85.5935 206.1326,85.5815 206.0646,85.5565 C201.8696,84.0035 198.5176,82.5565 196.7416,79.2905 C196.5846,79.0005 196.6916,78.6385 196.9806,78.4805 C197.2716,78.3245 197.6346,78.4285 197.7926,78.7205 C199.2396,81.3815 201.7476,82.6845 206.4806,84.4355 C206.7896,84.5495 206.9476,84.8945 206.8336,85.2025 C206.7446,85.4455 206.5146,85.5935 206.2726,85.5935" id="Fill-19" fill="#000000"></path>
            <path d="M165.3771,83.3913 C165.1981,83.3913 165.0231,83.3123 164.9041,83.1603 C164.7011,82.8993 164.7491,82.5233 165.0111,82.3213 C170.3061,78.2153 169.3821,68.3843 168.8851,63.1033 L168.8451,62.6823 C168.8151,62.3543 169.0571,62.0623 169.3851,62.0323 C169.7101,61.9983 170.0051,62.2433 170.0361,62.5723 L170.0751,62.9923 C170.5941,68.5013 171.5591,78.7573 165.7421,83.2663 C165.6341,83.3503 165.5051,83.3913 165.3771,83.3913" id="Fill-21" fill="#000000"></path>
            <path d="M145.7706,151.1218 C145.4586,151.1218 145.1966,150.8808 145.1746,150.5658 C144.9706,147.6428 144.9516,144.0108 144.9306,140.1648 C144.8716,128.9838 144.7966,115.0688 140.3666,105.7798 C140.2236,105.4808 140.3506,105.1248 140.6486,104.9818 C140.9476,104.8398 141.3036,104.9678 141.4456,105.2648 C145.9926,114.7968 146.0666,128.8588 146.1266,140.1578 C146.1476,143.9838 146.1666,147.5978 146.3686,150.4808 C146.3906,150.8108 146.1416,151.0978 145.8126,151.1198 C145.7986,151.1218 145.7846,151.1218 145.7706,151.1218" id="Fill-23" fill="#000000"></path>
            <path d="M232.4132,158.1335 C230.7672,158.1335 229.2232,157.7765 228.1932,156.9255 C227.4752,156.3295 226.6862,155.2165 227.0162,153.2945 C227.0712,152.9675 227.3872,152.7495 227.7062,152.8055 C228.0312,152.8615 228.2502,153.1705 228.1952,153.4955 C228.0052,154.6025 228.2552,155.4235 228.9562,156.0035 C230.5332,157.3075 234.0782,157.1145 236.5962,156.1725 C237.7052,155.7585 243.1822,153.5155 242.0312,150.1195 C241.9252,149.8065 242.0932,149.4685 242.4062,149.3625 C242.7202,149.2585 243.0592,149.4235 243.1642,149.7365 C244.3282,153.1765 240.7502,155.8955 237.0142,157.2935 C235.6202,157.8135 233.9712,158.1335 232.4132,158.1335" id="Fill-25" fill="#000000"></path>
            <path d="M163.214,168.7898 C162.393,168.7898 161.563,168.5138 160.736,167.9628 C157.495,165.8008 155.014,159.7958 154.468,156.2908 C154.464,156.2658 154.094,153.7768 155.259,152.2578 C155.748,151.6188 156.421,151.2498 157.259,151.1588 C157.577,151.1188 157.882,151.3598 157.918,151.6888 C157.953,152.0178 157.716,152.3118 157.388,152.3478 C156.881,152.4018 156.494,152.6108 156.208,152.9848 C155.377,154.0678 155.647,156.0868 155.65,156.1058 C156.149,159.3108 158.484,165.0228 161.4,166.9678 C162.233,167.5228 163.043,167.7078 163.81,167.5218 C164.125,167.4418 164.453,167.6388 164.532,167.9598 C164.61,168.2808 164.414,168.6038 164.093,168.6828 C163.802,168.7538 163.508,168.7898 163.214,168.7898" id="Fill-27" fill="#000000"></path>
            <path d="M234.7902,169.2527 C234.6352,169.2527 234.4862,169.2447 234.3482,169.2277 C234.0202,169.1867 233.7882,168.8877 233.8292,168.5597 C233.8712,168.2297 234.1702,167.9947 234.4972,168.0407 C235.8332,168.2187 238.7042,167.1907 240.0272,166.4477 C241.9922,165.3447 245.2282,162.5827 244.8952,159.2247 C244.8442,158.7097 244.6642,158.1967 244.4762,157.6537 C244.1822,156.8147 243.8802,155.9477 243.9982,154.9487 C244.0822,154.2257 244.2302,153.5567 244.3742,152.9087 C244.8552,150.7287 245.1752,149.2857 242.8452,147.7697 C242.5682,147.5897 242.4902,147.2197 242.6702,146.9417 C242.8512,146.6657 243.2232,146.5887 243.4972,146.7677 C246.5212,148.7357 246.0222,150.9877 245.5402,153.1677 C245.4032,153.7847 245.2632,154.4247 245.1862,155.0897 C245.0992,155.8137 245.3442,156.5167 245.6042,157.2607 C245.8092,157.8457 246.0192,158.4487 246.0842,159.1057 C246.4302,162.5827 243.5852,165.8217 240.6132,167.4887 C239.4022,168.1717 236.5802,169.2527 234.7902,169.2527" id="Fill-29" fill="#000000"></path>
            <path d="M249.1349,198.8708 C249.0549,198.8708 248.9739,198.8538 248.8969,198.8208 C248.5939,198.6888 248.4549,198.3368 248.5859,198.0348 C251.2169,191.9768 250.4709,189.3378 249.1169,184.5448 C248.5269,182.4538 247.7919,179.8498 247.2019,176.4188 C246.7319,173.6738 246.8319,171.2408 246.9189,169.0968 C247.0559,165.7588 247.1559,163.3468 245.1259,161.5978 C244.8759,161.3808 244.8479,161.0038 245.0629,160.7538 C245.2789,160.5028 245.6589,160.4768 245.9059,160.6908 C248.3739,162.8178 248.2539,165.7508 248.1139,169.1448 C248.0289,171.2318 247.9319,173.5968 248.3809,176.2158 C248.9589,179.5868 249.6549,182.0488 250.2679,184.2208 C251.6489,189.1108 252.4829,192.0628 249.6839,198.5108 C249.5849,198.7358 249.3639,198.8708 249.1349,198.8708" id="Fill-31" fill="#000000"></path>
            <path d="M225.9533,206.6687 C225.8263,206.6687 225.6973,206.6287 225.5903,206.5447 C216.9103,199.8937 218.4933,192.6547 220.1683,184.9917 C220.4603,183.6597 220.7623,182.2817 221.0043,180.9097 C221.6513,177.2547 221.1473,174.8917 220.7033,172.8067 C220.0793,169.8807 219.5873,167.5697 223.1403,163.8757 C223.3693,163.6387 223.7493,163.6297 223.9853,163.8587 C224.2243,164.0877 224.2303,164.4667 224.0023,164.7037 C220.8893,167.9407 221.2593,169.6787 221.8733,172.5577 C222.3163,174.6407 222.8703,177.2337 222.1813,181.1177 C221.9333,182.5137 221.6303,183.9027 221.3373,185.2467 C219.6763,192.8457 218.2413,199.4067 226.3163,205.5967 C226.5793,205.7977 226.6283,206.1727 226.4273,206.4347 C226.3103,206.5877 226.1323,206.6687 225.9533,206.6687" id="Fill-33" fill="#000000"></path>
            <path d="M229.38,169.2732 C229.313,169.2732 229.243,169.2622 229.177,169.2372 C226.897,168.4132 225.502,167.5752 224.366,166.3432 C221.711,163.4702 222.679,159.7092 223.978,156.4092 C224.234,155.7542 224.356,155.0382 224.474,154.3442 C224.841,152.1722 225.26,149.7112 229.986,149.0242 C230.303,148.9842 230.617,149.2022 230.665,149.5302 C230.711,149.8572 230.486,150.1612 230.159,150.2092 C226.293,150.7702 226.01,152.4352 225.651,154.5442 C225.525,155.2982 225.392,156.0772 225.089,156.8452 C223.868,159.9492 223.043,163.1502 225.244,165.5342 C226.254,166.6272 227.47,167.3492 229.583,168.1142 C229.894,168.2262 230.055,168.5682 229.942,168.8782 C229.855,169.1232 229.624,169.2732 229.38,169.2732" id="Fill-35" fill="#000000"></path>
            <path d="M146.2521,167.3044 C146.0521,167.3044 145.8551,167.2024 145.7421,167.0204 C143.8241,163.8944 143.2471,160.5824 144.1161,157.6944 C144.7131,155.7124 146.7321,154.8864 148.5141,154.1584 C149.3531,153.8134 150.1471,153.4884 150.7191,153.0804 C151.0951,152.8134 151.6331,152.1844 152.2031,151.5184 C153.2901,150.2464 154.5231,148.8074 155.7311,148.5364 C156.0551,148.4694 156.3741,148.6674 156.4451,148.9924 C156.5171,149.3144 156.3151,149.6324 155.9921,149.7044 C155.1721,149.8874 154.0291,151.2234 153.1111,152.2964 C152.4661,153.0504 151.9081,153.7014 151.4121,154.0544 C150.7281,154.5424 149.8721,154.8934 148.9671,155.2634 C147.3571,155.9234 145.6931,156.6044 145.2611,158.0394 C144.4921,160.5964 145.0241,163.5634 146.7621,166.3944 C146.9351,166.6754 146.8461,167.0444 146.5641,167.2164 C146.4671,167.2774 146.3591,167.3044 146.2521,167.3044" id="Fill-37" fill="#000000"></path>
            <path d="M118.0236,171.4763 C117.9186,171.4763 117.8106,171.4483 117.7136,171.3893 C117.4316,171.2173 117.3406,170.8503 117.5126,170.5673 C120.5156,165.6223 125.0296,164.8803 129.0126,164.2253 C130.8256,163.9273 132.5376,163.6463 133.9436,162.9943 C135.7086,162.1723 136.9576,161.0463 138.0586,160.0543 C139.7806,158.5023 141.4026,157.0313 144.3146,157.4343 C144.6416,157.4783 144.8706,157.7803 144.8266,158.1073 C144.7806,158.4333 144.4766,158.6583 144.1526,158.6183 C141.7986,158.3023 140.5646,159.4063 138.8596,160.9423 C137.6956,161.9923 136.3766,163.1813 134.4466,164.0773 C132.8926,164.7983 131.1026,165.0933 129.2066,165.4053 C125.2956,166.0483 121.2526,166.7123 118.5356,171.1883 C118.4226,171.3723 118.2256,171.4763 118.0236,171.4763" id="Fill-39" fill="#000000"></path>
            <path d="M104.296,184.8279 C103.967,184.8279 103.67,184.6369 103.598,184.3559 C103.484,183.9149 103.377,183.4679 103.278,183.0109 C101.88,176.5559 103.357,169.8009 104.918,162.6489 C105.622,159.4269 106.351,156.0939 106.883,152.5619 C107.786,146.5799 108.136,141.5969 108.474,136.7749 C108.903,130.6299 109.311,124.8249 110.785,117.3889 C113.301,104.6979 115.556,96.6229 125.632,91.4899 C131.064,88.7239 139.394,87.1379 146.087,85.8619 C149.028,85.3029 151.568,84.8179 153.459,84.3189 C156.26,83.5779 158.552,82.6759 160.394,81.9509 C163.2,80.8479 165.227,80.0479 167.039,80.5849 C167.412,80.6949 167.607,81.0369 167.475,81.3489 C167.342,81.6589 166.93,81.8199 166.562,81.7119 C165.305,81.3399 163.501,82.0499 161.003,83.0329 C159.122,83.7729 156.782,84.6939 153.891,85.4589 C151.943,85.9739 149.377,86.4619 146.404,87.0279 C139.813,88.2839 131.608,89.8469 126.376,92.5129 C116.821,97.3789 114.645,105.2299 112.196,117.5839 C110.733,124.9579 110.33,130.7319 109.9,136.8459 C109.563,141.6849 109.211,146.6899 108.302,152.7119 C107.764,156.2759 107.032,159.6249 106.324,162.8639 C104.72,170.2119 103.334,176.5559 104.686,182.7989 C104.781,183.2409 104.886,183.6769 104.996,184.1029 C105.079,184.4279 104.833,184.7449 104.447,184.8149 C104.397,184.8229 104.346,184.8279 104.296,184.8279" id="Fill-41" fill="#000000"></path>
            <path d="M141.5246,194.8279 C141.3516,194.8279 141.1806,194.7539 141.0626,194.6109 C140.8526,194.3549 140.8886,193.9789 141.1436,193.7679 C142.2246,192.8779 143.3336,191.8129 144.4356,190.6019 C146.8396,187.9669 149.3556,186.9689 151.5776,186.0869 C155.1106,184.6819 157.4446,183.7559 157.3146,177.0249 C157.3086,176.6939 157.5716,176.4229 157.9006,176.4159 C158.2736,176.3919 158.5036,176.6729 158.5106,177.0019 C158.6556,184.5609 155.5806,185.7829 152.0186,187.1969 C149.9186,188.0319 147.5376,188.9759 145.3196,191.4079 C144.1786,192.6599 143.0286,193.7659 141.9036,194.6909 C141.7926,194.7839 141.6586,194.8279 141.5246,194.8279" id="Fill-43" fill="#000000"></path>
            <path d="M167.8029,125.3142 C167.4849,125.3142 167.2199,125.0622 167.2059,124.7422 C167.1159,122.5702 167.0259,120.5952 166.9379,118.6852 C166.6779,112.9902 166.4519,108.0712 166.3209,100.3272 C166.1439,89.9812 165.6949,85.7942 164.3189,81.6632 C164.2149,81.3492 164.3839,81.0102 164.6979,80.9062 C165.0139,80.8022 165.3489,80.9712 165.4529,81.2852 C166.8749,85.5512 167.3369,89.8192 167.5159,100.3072 C167.6479,108.0332 167.8719,112.9442 168.1319,118.6302 C168.2199,120.5422 168.3109,122.5182 168.4009,124.6912 C168.4149,125.0212 168.1579,125.3002 167.8289,125.3142 L167.8029,125.3142 Z" id="Fill-45" fill="#000000"></path>
            <path d="M146.1964,240.4939 C145.9814,240.4939 145.7744,240.3789 145.6674,240.1769 C145.5124,239.8849 145.6244,239.5219 145.9164,239.3679 C149.4554,237.4939 152.9644,236.2209 156.0594,235.0969 C161.2284,233.2219 165.3114,231.7409 167.5244,228.4579 C171.5184,222.5359 170.6904,211.7529 169.6434,198.1019 C168.7554,186.5189 167.7474,173.3919 169.1424,158.8749 C169.1744,158.5459 169.4654,158.3129 169.7954,158.3369 C170.1234,158.3679 170.3634,158.6599 170.3324,158.9899 C168.9484,173.4039 169.9504,186.4759 170.8364,198.0099 C171.9004,211.8939 172.7424,222.8589 168.5154,229.1259 C166.0864,232.7309 161.6294,234.3479 156.4674,236.2219 C153.4084,237.3319 149.9414,238.5899 146.4754,240.4239 C146.3854,240.4719 146.2904,240.4939 146.1964,240.4939" id="Fill-47" fill="#000000"></path>
            <path d="M157.9904,177.032901 C155.3544,177.0339 152.3584,175.5609 150.2324,173.0299 C150.0194,172.7779 150.0534,172.4009 150.3054,172.1879 C150.5594,171.9739 150.9354,172.0099 151.1474,172.2619 C153.6674,175.2599 157.4824,176.6139 160.0204,175.4139 C161.6084,174.6629 163.5914,171.1099 164.5444,169.4029 C164.7824,168.9759 164.9704,168.6389 165.0934,168.4489 C166.2714,166.5979 166.0904,165.9599 164.8004,164.0259 C164.6174,163.7519 164.6914,163.3809 164.9664,163.1969 C165.2384,163.0119 165.6104,163.0889 165.7954,163.3629 C167.3134,165.6379 167.5704,166.7849 166.1004,169.0919 C165.9864,169.2709 165.8114,169.5859 165.5894,169.9859 C164.4974,171.9409 162.4664,175.5789 160.5324,176.4949 C159.7614,176.8589 158.8964,177.032901 157.9904,177.032901" id="Fill-49" fill="#000000"></path>
            <path d="M161.7423,168.1111 C161.6103,168.1111 161.4763,168.0671 161.3663,167.9761 C161.1093,167.7681 161.0703,167.3921 161.2783,167.1351 C164.3103,163.4011 167.0603,160.6081 169.2703,158.3651 C171.3813,156.2221 172.9063,154.6731 173.3933,153.5741 C174.7583,150.5071 175.0193,147.5941 175.1923,145.6701 C175.2923,144.5591 175.3643,143.7571 175.6033,143.2511 C176.3103,141.7511 179.0653,140.5701 180.0873,140.4511 C181.0143,140.3441 182.5033,140.4561 184.0813,140.5711 C185.1693,140.6501 186.3043,140.7211 187.1133,140.7271 C189.5633,140.7081 189.9283,140.2311 189.9613,139.7671 C190.0013,139.2211 187.1793,138.4061 185.4933,137.9181 C184.9873,137.7711 184.4643,137.6201 183.9323,137.4601 C180.5653,136.4461 180.1583,136.4071 177.7063,136.8611 C177.4043,136.9181 177.0383,136.9951 176.6333,137.0821 C174.9163,137.4471 172.5653,137.9471 171.2043,137.6461 C170.8823,137.5751 170.6793,137.2561 170.7503,136.9331 C170.8213,136.6101 171.1373,136.4061 171.4633,136.4781 C172.5713,136.7211 174.8653,136.2351 176.3843,135.9121 C176.8013,135.8231 177.1783,135.7431 177.4873,135.6851 C180.2363,135.1761 180.8353,135.2781 184.2773,136.3151 C184.8043,136.4731 185.3233,136.6251 185.8253,136.7691 C188.9823,137.6821 191.2633,138.3411 191.1543,139.8531 C191.0093,141.8901 188.3843,141.9131 187.1223,141.9241 C186.2553,141.9261 185.1053,141.8431 183.9933,141.7631 C182.5393,141.6551 181.0373,141.5421 180.2233,141.6391 C179.3863,141.7361 177.1263,142.8261 176.6843,143.7611 C176.5363,144.0771 176.4653,144.8641 176.3843,145.7771 C176.2033,147.7811 175.9303,150.8091 174.4873,154.0591 C173.9103,155.3581 172.3213,156.9701 170.1233,159.2031 C167.9303,161.4281 165.2033,164.1991 162.2073,167.8891 C162.0893,168.0351 161.9163,168.1111 161.7423,168.1111" id="Fill-51" fill="#000000"></path>
            <path d="M191.0421,139.487 C190.5191,139.487 190.0461,139.431 189.7051,139.325 C189.3901,139.226 189.2141,138.89 189.3131,138.576 C189.4111,138.26 189.7421,138.082 190.0621,138.183 C191.1401,138.52 193.5091,138.087 193.8421,137.486 C193.9251,137.337 193.5771,137.027 193.5071,136.966 C192.2771,135.908 190.5251,135.228 188.8321,134.572 C188.0361,134.263 187.2841,133.971 186.5771,133.641 L186.2891,133.507 C184.0291,132.447 181.6921,131.351 179.3181,130.95 C177.7481,130.683 175.8531,131.009 174.0201,131.325 C172.5731,131.574 171.0771,131.832 169.7471,131.792 C169.4171,131.782 169.1571,131.507 169.1671,131.176 C169.1781,130.845 169.4941,130.592 169.7821,130.596 C170.9891,130.642 172.3651,130.396 173.8161,130.146 C175.7471,129.814 177.7451,129.472 179.5191,129.77 C182.0531,130.2 184.4651,131.331 186.7971,132.424 L187.0841,132.558 C187.7541,132.871 188.4871,133.156 189.2641,133.457 C191.0521,134.15 192.9001,134.868 194.2871,136.06 C195.2971,136.929 195.0961,137.69 194.8871,138.067 C194.3391,139.054 192.4931,139.487 191.0421,139.487" id="Fill-53" fill="#000000"></path>
            <path d="M194.3605,131.9382 C193.0735,131.9382 191.6215,131.7182 190.3045,131.5202 L189.6145,131.4172 C188.2375,131.2172 187.1085,131.0052 185.9815,130.7932 C184.7825,130.5692 183.5425,130.3352 182.0065,130.1242 C180.7135,129.9452 177.8305,130.5262 176.8285,130.7642 C176.5105,130.8432 176.1845,130.6442 176.1075,130.3222 C176.0315,130.0012 176.2295,129.6782 176.5505,129.6012 C176.7065,129.5642 180.3845,128.6922 182.1705,128.9392 C183.7345,129.1562 184.9895,129.3902 186.2015,129.6192 C187.3145,129.8282 188.4275,130.0372 189.7875,130.2342 L190.4835,130.3372 C192.8325,130.6912 196.3795,131.2282 196.7625,129.8262 C196.7765,129.7762 196.7865,129.7142 196.7215,129.6062 C196.1145,128.5812 192.3755,127.6902 190.3675,127.2112 C189.5365,127.0132 188.8815,126.8572 188.4715,126.7172 C187.4865,126.3812 186.7315,126.0892 186.0515,125.8262 C184.5985,125.2622 183.5485,124.8562 181.3095,124.4252 C179.7635,124.1222 177.7445,124.6572 175.7915,125.1692 C174.1445,125.6032 172.4475,126.0522 170.9785,126.0062 C170.6485,125.9972 170.3885,125.7212 170.3985,125.3912 C170.4095,125.0612 170.7165,124.8052 171.0135,124.8112 C172.3035,124.8502 173.8515,124.4432 175.4875,124.0132 C177.5705,123.4662 179.7215,122.8992 181.5365,123.2502 C183.8805,123.7022 185.0295,124.1472 186.4835,124.7102 C187.1505,124.9692 187.8915,125.2562 188.8585,125.5862 C189.2135,125.7082 189.8765,125.8652 190.6435,126.0482 C194.0575,126.8622 196.9495,127.6452 197.7505,128.9972 C197.9645,129.3592 198.0225,129.7542 197.9165,130.1412 C197.5345,131.5372 196.0985,131.9382 194.3605,131.9382" id="Fill-55" fill="#000000"></path>
            <path d="M155.297,154.8054 C155.114,154.8054 154.936,154.7334 154.824,154.5844 C154.626,154.3214 154.639,153.9764 154.903,153.7784 C156.454,152.6164 158.675,150.9514 160.54,147.0754 C162.586,142.8254 162.923,138.2724 163.193,134.6134 C163.364,132.2924 163.513,130.2874 164.068,128.9144 C164.916,126.8174 166.446,125.3344 167.928,123.9014 C168.896,122.9634 169.811,122.0784 170.42,121.1084 C172.194,118.2814 173.773,116.5834 175.244,115.9204 C176.317,115.4384 177.446,115.0754 178.539,114.7244 C179.967,114.2664 181.317,113.8324 182.568,113.1514 C182.93,112.9534 186.156,111.2394 187.872,111.8734 C188.326,112.0414 188.653,112.3634 188.818,112.8004 C189.383,114.2964 187.805,115.5264 186.761,116.3394 C186.534,116.5164 186.329,116.6754 186.177,116.8164 C184.906,117.9794 183.507,118.5824 182.152,119.1664 C180.54,119.8614 179.018,120.5174 177.876,122.0804 C177.558,122.5184 175.9,124.7194 175.9,124.7194 L174.944,123.9994 C174.944,123.9994 176.593,121.8104 176.91,121.3754 C178.244,119.5484 179.99,118.7964 181.679,118.0684 C183,117.4984 184.248,116.9604 185.368,115.9344 C185.54,115.7774 185.771,115.5964 186.026,115.3974 C186.794,114.7994 187.953,113.8954 187.699,113.2224 C187.668,113.1394 187.617,113.0544 187.456,112.9944 C186.605,112.6774 184.375,113.5274 183.139,114.2014 C181.789,114.9374 180.322,115.4084 178.904,115.8634 C177.844,116.2034 176.746,116.5564 175.735,117.0114 C174.503,117.5664 173.055,119.1594 171.433,121.7434 C170.745,122.8364 169.78,123.7714 168.759,124.7604 C167.368,126.1074 165.93,127.4994 165.176,129.3634 C164.692,130.5634 164.55,132.4814 164.385,134.7014 C164.108,138.4604 163.762,143.1394 161.617,147.5934 C159.625,151.7344 157.169,153.5754 155.702,154.6734 C155.586,154.7614 155.442,154.8054 155.297,154.8054" id="Fill-57" fill="#000000"></path>
            <path d="M254.465,123.24 C254.149,123.24 253.884,122.992 253.868,122.672 C253.831,121.928 253.801,121.094 253.769,120.219 C253.663,117.275 253.529,113.611 253.032,111.908 L252.923,111.512 C252.762,110.901 252.608,110.324 252.162,110.041 C250.957,109.276 249.189,109.398 247.625,109.504 C247.223,109.532 246.832,109.557 246.464,109.569 L245.545,109.593 C244.187,109.622 242.782,109.652 241.49,109.948 C240.463,110.184 240.302,110.464 240.277,110.543 C239.931,111.671 241.24,112.402 241.821,112.664 C244.103,113.696 247.459,113.767 250.155,113.825 L250.646,113.835 C250.975,113.843 251.236,114.117 251.23,114.446 C251.223,114.777 250.94,115.057 250.617,115.031 L250.129,115.02 C247.324,114.961 243.833,114.886 241.328,113.754 C239.52,112.936 238.7,111.604 239.135,110.19 C239.412,109.295 240.46,108.958 241.223,108.783 C242.634,108.459 244.101,108.427 245.52,108.397 L246.427,108.375 C246.78,108.363 247.156,108.338 247.544,108.311 C249.291,108.191 251.268,108.056 252.802,109.032 C253.643,109.565 253.885,110.474 254.078,111.206 L254.179,111.572 C254.72,113.419 254.85,117.009 254.964,120.176 C254.995,121.045 255.026,121.874 255.062,122.612 C255.078,122.942 254.824,123.223 254.495,123.239 C254.486,123.24 254.475,123.24 254.465,123.24" id="Fill-59" fill="#000000"></path>
            <path d="M242.1408,153.3376 C242.1228,153.3376 242.1058,153.3366 242.0888,153.3356 C241.7588,153.3076 241.5148,153.0166 241.5438,152.6886 L241.5948,152.0566 C241.7638,149.8726 242.1148,145.3316 243.5708,142.3966 C244.9118,139.6926 246.1858,138.4726 247.5338,137.1806 C248.4288,136.3216 249.3538,135.4356 250.3888,134.0256 C250.7588,133.5236 251.0738,132.3446 251.3498,131.3046 C251.5968,130.3776 251.8308,129.5026 252.1258,128.9746 C252.4178,128.4546 252.9128,127.9816 253.4388,127.4796 C254.2158,126.7366 255.0198,125.9686 255.0468,125.1506 C255.0848,123.9876 253.4858,122.6956 252.3178,121.7526 C252.1178,121.5896 251.9268,121.4366 251.7558,121.2926 C251.3698,120.9666 250.9768,120.6196 250.5768,120.2666 C248.9558,118.8326 247.2808,117.3506 245.4108,116.7546 C242.9248,115.9606 240.5868,115.3686 237.8398,114.7256 C237.1738,114.5696 236.5058,114.3886 235.8378,114.2066 C234.7848,113.9206 233.6938,113.6246 232.6238,113.4426 L232.3828,113.4006 C231.7278,113.2846 230.3648,113.0406 229.8958,113.4016 C229.4638,113.7326 229.4398,113.9946 229.4598,114.1626 C229.5518,114.9556 230.9758,116.1166 232.9208,116.9856 C233.8398,117.3976 235.0298,117.8756 236.2788,118.3796 C238.6868,119.3496 241.1788,120.3536 242.6008,121.1926 C242.9728,121.4116 243.3748,121.6336 243.7818,121.8566 C245.4928,122.7966 247.1078,123.6836 247.3838,124.8156 C247.4828,125.2146 247.4078,125.6156 247.1678,125.9746 C246.2698,127.3226 243.2178,126.6086 239.9038,125.6886 C239.4438,125.5606 239.0718,125.4566 238.8398,125.4076 C237.6398,125.1516 236.4788,124.9516 235.3308,124.7536 C233.1808,124.3826 231.1508,124.0316 228.9648,123.3586 L228.3278,123.1546 C227.0028,122.7206 224.7818,121.9976 224.2448,122.8066 C224.2238,122.8386 224.1658,122.9236 224.2318,123.1456 C224.5508,124.2236 226.8928,125.9986 228.2518,126.5866 C229.0338,126.9236 230.0808,127.2226 231.0928,127.5116 C232.0388,127.7806 233.0178,128.0616 233.7988,128.3776 C236.4708,129.4606 238.6558,130.4576 241.2928,132.0816 C241.5748,132.2536 241.6618,132.6226 241.4898,132.9036 C241.3158,133.1856 240.9448,133.2726 240.6668,133.0996 C238.0998,131.5196 235.9638,130.5446 233.3508,129.4846 C232.6288,129.1926 231.6808,128.9226 230.7648,128.6606 C229.7148,128.3606 228.6308,128.0526 227.7788,127.6846 C226.3568,127.0696 223.5748,125.1416 223.0848,123.4836 C222.8998,122.8576 223.0728,122.4086 223.2498,122.1436 C224.2938,120.5766 226.8408,121.4096 228.6998,122.0186 L229.3168,122.2156 C231.4298,122.8656 233.4228,123.2106 235.5358,123.5746 C236.6978,123.7756 237.8728,123.9796 239.0888,124.2376 C239.3348,124.2906 239.7338,124.4006 240.2228,124.5356 C244.7388,125.7856 245.9498,125.6466 246.1728,125.3116 C246.2428,125.2076 246.2358,125.1506 246.2238,125.0996 C246.0718,124.4786 244.4138,123.5686 243.2058,122.9036 C242.7888,122.6756 242.3758,122.4476 241.9948,122.2226 C240.6488,121.4286 238.0888,120.3976 235.8308,119.4876 C234.5678,118.9796 233.3638,118.4936 232.4328,118.0776 C231.2518,117.5506 228.4848,116.1256 228.2728,114.3006 C228.2158,113.8136 228.3248,113.0966 229.1688,112.4526 C230.0578,111.7736 231.5838,112.0436 232.5918,112.2236 L232.8248,112.2646 C233.9508,112.4546 235.0698,112.7596 236.1518,113.0536 C236.8058,113.2316 237.4578,113.4076 238.1128,113.5616 C240.8868,114.2106 243.2518,114.8096 245.7748,115.6146 C247.8838,116.2866 249.7358,117.9256 251.3698,119.3706 C251.7618,119.7186 252.1478,120.0586 252.5258,120.3776 C252.6908,120.5166 252.8748,120.6646 253.0688,120.8216 C254.4328,121.9236 256.3008,123.4326 256.2428,125.1896 C256.1988,126.4966 255.1718,127.4786 254.2658,128.3446 C253.8068,128.7816 253.3728,129.1946 253.1698,129.5596 C252.9478,129.9556 252.7228,130.7986 252.5058,131.6126 C252.1858,132.8106 251.8558,134.0496 251.3518,134.7336 C250.2568,136.2266 249.2928,137.1506 248.3618,138.0436 C247.0358,139.3156 245.8908,140.4126 244.6428,142.9286 C243.2888,145.6546 242.9508,150.0416 242.7868,152.1496 L242.7358,152.7916 C242.7088,153.1036 242.4478,153.3376 242.1408,153.3376" id="Fill-61" fill="#000000"></path>
            <path d="M247.7921,176.6687 C247.4611,176.6687 247.1931,176.4007 247.1931,176.0707 C247.1931,170.9297 247.5121,166.1127 247.8191,161.4547 C248.3541,153.3537 248.8581,145.6997 247.5921,137.6437 C247.5401,137.3167 247.7641,137.0107 248.0891,136.9597 C248.4041,136.9117 248.7231,137.1307 248.7731,137.4577 C250.0621,145.6457 249.5511,153.3627 249.0121,161.5337 C248.7061,166.1727 248.3901,170.9677 248.3901,176.0707 C248.3901,176.4007 248.1221,176.6687 247.7921,176.6687" id="Fill-63" fill="#000000"></path>
            <path d="M230.0372,157.7204 C230.0182,157.7204 230.0002,157.7194 229.9812,157.7174 C229.6522,157.6874 229.4102,157.3974 229.4402,157.0674 C229.7212,154.0284 229.7072,151.9264 229.6952,150.2364 C229.6812,147.8654 229.6692,146.1524 230.4802,143.6834 C230.7572,142.8414 231.0392,142.0314 231.3072,141.2674 C232.1502,138.8514 233.0222,136.3544 232.5272,135.7664 C232.3492,135.5924 231.3722,135.3394 230.5882,135.1344 C229.0182,134.7264 227.0642,134.2194 225.5122,133.1994 C224.2702,132.3854 222.9672,131.3954 223.2142,129.9534 C223.2682,129.6364 223.4432,129.3694 223.7212,129.1844 C224.7092,128.5244 226.9852,128.9914 230.6192,129.8084 L231.2452,129.9494 C235.5992,130.9224 238.2562,131.3304 239.1312,131.1544 C239.4492,131.0864 239.7692,131.2984 239.8332,131.6234 C239.8972,131.9484 239.6872,132.2624 239.3642,132.3264 C238.2782,132.5434 235.6922,132.1694 230.9832,131.1164 L230.3572,130.9744 C228.1632,130.4814 224.8502,129.7334 224.3762,130.1854 C224.2802,130.8124 225.0212,131.4484 226.1682,132.1994 C227.5572,133.1114 229.4032,133.5914 230.8892,133.9774 C232.3152,134.3484 233.0772,134.5624 233.4422,134.9954 C234.3762,136.1054 233.6032,138.3164 232.4342,141.6604 C232.1712,142.4184 231.8902,143.2214 231.6152,144.0564 C230.8652,146.3394 230.8762,147.8864 230.8912,150.2284 C230.9032,151.9434 230.9182,154.0784 230.6322,157.1774 C230.6022,157.4884 230.3432,157.7204 230.0372,157.7204" id="Fill-65" fill="#000000"></path>
            <path d="M248.7296,302.5056 C248.4876,302.5056 248.2596,302.3586 248.1696,302.1186 C245.6706,295.4856 243.0056,289.8976 240.4286,284.4916 C236.7296,276.7336 233.2346,269.4036 230.5956,259.8456 C229.2486,254.9626 228.4476,250.1546 227.6716,245.5046 C226.3846,237.7896 225.2746,231.1266 222.0786,227.5596 C221.8576,227.3126 221.8786,226.9346 222.1246,226.7146 C222.3696,226.4926 222.7476,226.5126 222.9676,226.7606 C226.3966,230.5866 227.5346,237.4086 228.8516,245.3086 C229.6226,249.9276 230.4176,254.7046 231.7496,259.5266 C234.3596,268.9846 237.8326,276.2686 241.5076,283.9776 C244.0966,289.4056 246.7726,295.0186 249.2886,301.6966 C249.4056,302.0056 249.2496,302.3506 248.9406,302.4666 C248.8706,302.4936 248.7986,302.5056 248.7296,302.5056" id="Fill-67" fill="#000000"></path>
            <path d="M278.4298,305.9626 C278.1488,305.9626 277.8968,305.7626 277.8438,305.4756 C276.6508,299.0646 275.5628,291.3316 274.2998,282.3776 C273.1498,274.2116 271.8458,264.9556 270.1308,254.2516 C269.4858,250.2136 268.8928,245.9546 268.3208,241.8376 C266.5968,229.4566 264.8148,216.6536 261.4448,209.3656 C259.7928,205.7936 255.6898,201.3176 250.2448,199.3666 C245.7188,197.7466 241.0838,198.0566 236.4648,200.2866 C224.6128,206.0136 213.3308,219.0296 205.9548,228.9416 C205.7558,229.2076 205.3808,229.2606 205.1178,229.0646 C204.8528,228.8666 204.7978,228.4916 204.9948,228.2276 C212.4518,218.2086 223.8728,205.0416 235.9448,199.2106 C240.7918,196.8676 245.8778,196.5326 250.6478,198.2406 C256.8148,200.4506 260.9028,205.3446 262.5308,208.8636 C265.9738,216.3126 267.6898,228.6306 269.5038,241.6736 C270.0758,245.7846 270.6678,250.0366 271.3128,254.0626 C273.0288,264.7786 274.3328,274.0396 275.4848,282.2106 C276.7438,291.1496 277.8308,298.8716 279.0188,305.2556 C279.0788,305.5796 278.8658,305.8936 278.5408,305.9526 C278.5038,305.9596 278.4658,305.9626 278.4298,305.9626" id="Fill-69" fill="#000000"></path>
            <path d="M290.8409,304.1335 C290.5209,304.1335 290.2559,303.8795 290.2429,303.5585 C289.2639,278.0305 286.4159,254.4715 283.3179,246.2655 C280.3089,238.2985 275.9199,237.3185 271.2729,236.2785 C270.1019,236.0185 268.8929,235.7465 267.6969,235.3625 C267.3839,235.2625 267.2109,234.9265 267.3129,234.6115 C267.4129,234.2965 267.7509,234.1235 268.0649,234.2255 C269.2059,234.5925 270.3889,234.8565 271.5319,235.1125 C276.2849,236.1745 281.1999,237.2725 284.4359,245.8435 C287.5749,254.1555 290.4549,277.8705 291.4389,303.5115 C291.4499,303.8425 291.1939,304.1195 290.8639,304.1335 L290.8409,304.1335 Z" id="Fill-71" fill="#000000"></path>
            <path d="M227.3673,242.0788 C227.2723,242.0788 227.1783,242.0568 227.0893,242.0108 L226.4693,241.6848 C217.1123,236.7788 202.9713,229.3638 185.4083,228.6158 C185.0783,228.5998 184.8223,228.3228 184.8373,227.9918 C184.8503,227.6618 185.1453,227.4358 185.4593,227.4198 C203.2893,228.1818 217.5723,235.6698 227.0243,240.6258 L227.6443,240.9498 C227.9363,241.1038 228.0503,241.4658 227.8973,241.7588 C227.7903,241.9618 227.5823,242.0788 227.3673,242.0788" id="Fill-73" fill="#000000"></path>
            <path d="M236.5333,275.7576 C236.5013,275.7576 236.4703,275.7556 236.4363,275.7496 C225.3053,273.9496 193.7113,273.4586 176.8133,273.4946 L176.8033,273.4946 C169.9423,273.4946 153.7453,271.1796 148.6923,267.8756 C148.4163,267.6946 148.3383,267.3226 148.5193,267.0476 C148.7003,266.7726 149.0723,266.6946 149.3463,266.8736 C153.8483,269.8196 169.4053,272.2986 176.8023,272.2986 C176.9473,272.2846 177.1333,272.2986 177.3013,272.2986 C194.3583,272.2986 225.5293,272.7756 236.6283,274.5706 C236.9543,274.6226 237.1763,274.9296 237.1223,275.2556 C237.0753,275.5486 236.8213,275.7576 236.5333,275.7576" id="Fill-75" fill="#000000"></path>
            <path d="M231.506,95.8747 C231.363,95.8747 231.221,95.8247 231.107,95.7227 C227.012,92.0567 222.402,90.7277 218.334,89.5547 C217.066,89.1887 215.868,88.8447 214.729,88.4437 C212.928,87.8127 211.357,86.7307 210.21,85.9397 L209.645,85.5547 C208.797,84.9897 206.076,84.1017 204.944,84.8117 C204.668,84.9867 204.297,84.9017 204.12,84.6207 C203.945,84.3407 204.03,83.9727 204.311,83.7977 C206.048,82.7117 209.346,83.9187 210.308,84.5607 L210.887,84.9547 C211.979,85.7077 213.475,86.7377 215.123,87.3157 C216.232,87.7047 217.413,88.0447 218.664,88.4057 C222.857,89.6137 227.607,90.9827 231.904,94.8317 C232.151,95.0517 232.171,95.4307 231.95,95.6757 C231.832,95.8087 231.669,95.8747 231.506,95.8747" id="Fill-77" fill="#000000"></path>
            <path d="M223.4669,130.8679 C223.4389,130.8679 223.4109,130.8659 223.3829,130.8619 L222.2799,130.7079 C222.0809,130.6789 220.3369,130.3989 219.7299,129.3149 C219.1209,128.2229 219.8159,126.6149 219.8959,126.4349 L234.5949,86.8139 C234.6139,86.7559 235.2229,84.9849 236.4709,84.2019 C237.7309,83.4079 239.5079,83.6989 239.5839,83.7139 L256.7149,85.6239 C256.8869,85.6309 258.7519,85.7529 259.3419,86.9979 C259.8929,88.1649 259.1009,90.0679 259.0089,90.2819 L252.1029,109.2639 C251.9879,109.5749 251.6489,109.7319 251.3339,109.6189 C251.0259,109.5059 250.8659,109.1619 250.9799,108.8519 L251.4949,107.4359 L257.8989,89.8409 C258.1949,89.1469 258.4909,87.9969 258.2599,87.5089 C258.0369,87.0369 257.0589,86.8379 256.6189,86.8149 L239.4169,84.8969 C239.3699,84.8889 237.9759,84.6659 237.1069,85.2149 C236.3659,85.6789 235.8569,86.8149 235.7219,87.2129 L221.0019,126.8889 C220.8099,127.3219 220.5249,128.2849 220.7739,128.7309 C221.0259,129.1809 222.0109,129.4589 222.4499,129.5239 L223.5489,129.6779 C223.8759,129.7229 224.1039,130.0249 224.0579,130.3519 C224.0159,130.6509 223.7599,130.8679 223.4669,130.8679" id="Fill-79" fill="#000000"></path>
            <path d="M248.4044,118.2771 C248.3374,118.2771 248.2674,118.2651 248.2004,118.2411 C247.8894,118.1291 247.7294,117.7851 247.8424,117.4751 L248.9774,114.3521 C249.0904,114.0421 249.4304,113.8811 249.7414,113.9911 C250.0534,114.1021 250.2154,114.4441 250.1034,114.7561 L248.9664,117.8831 C248.8784,118.1271 248.6484,118.2771 248.4044,118.2771" id="Fill-81" fill="#000000"></path>
            <path d="M181.7033,124.196 C181.6763,124.196 181.6483,124.194 181.6203,124.19 C181.2933,124.145 181.0643,123.842 181.1103,123.515 L181.7773,118.706 C181.8223,118.38 182.1253,118.134 182.4523,118.176 C182.7793,118.221 183.0123,118.504 182.9683,118.831 L182.2953,123.681 C182.2533,123.98 181.9973,124.196 181.7033,124.196" id="Fill-83" fill="#000000"></path>
            <path d="M180.799,130.7195 C180.772,130.7195 180.743,130.7175 180.715,130.7135 C180.388,130.6675 180.16,130.3655 180.206,130.0385 L180.259,129.6615 L181.45,129.7735 L181.39,130.2035 C181.349,130.5025 181.092,130.7195 180.799,130.7195" id="Fill-85" fill="#000000"></path>
            <path d="M245.424,126.4968 C245.355,126.4968 245.284,126.4848 245.217,126.4598 C244.907,126.3458 244.748,126.0018 244.863,125.6918 L245.517,123.9178 C245.631,123.6078 245.979,123.4508 246.284,123.5628 C246.594,123.6778 246.752,124.0208 246.638,124.3308 L245.984,126.1048 C245.896,126.3478 245.666,126.4968 245.424,126.4968" id="Fill-87" fill="#000000"></path>
            <path d="M221.6281,130.4597 C221.4351,130.4597 221.2451,130.3657 221.1301,130.1917 C220.7381,129.6037 220.8051,128.7207 221.3621,127.1467 L236.0461,87.6227 C236.0921,87.4857 236.5721,86.1357 237.4271,85.6057 C238.1841,85.1367 239.4311,85.2777 239.6741,85.3107 L258.6701,87.5887 C258.9981,87.6287 259.2321,87.9257 259.1921,88.2537 C259.1531,88.5827 258.8531,88.8207 258.5271,88.7757 L239.5221,86.4967 C239.0991,86.4387 238.3491,86.4407 238.0581,86.6207 C237.6671,86.8627 237.2931,87.6707 237.1721,88.0237 L222.4871,127.5557 C221.9461,129.0787 222.0731,129.4517 222.1251,129.5297 C222.3091,129.8047 222.2331,130.1767 221.9591,130.3587 C221.8571,130.4277 221.7421,130.4597 221.6281,130.4597" id="Fill-89" fill="#000000"></path>
            <path d="M210.6115,118.4656 C210.2945,118.4656 210.0305,118.2166 210.0145,117.8976 C209.1565,100.5896 206.6475,88.8746 205.6095,84.6426 C205.5295,84.3216 205.7255,83.9976 206.0475,83.9196 C206.3715,83.8376 206.6925,84.0376 206.7695,84.3576 C207.8175,88.6236 210.3445,100.4276 211.2085,117.8376 C211.2245,118.1676 210.9705,118.4476 210.6405,118.4646 C210.6315,118.4656 210.6215,118.4656 210.6115,118.4656" id="Fill-91" fill="#000000"></path>
            <path d="M221.6808,210.3015 C221.5798,210.3015 221.4788,210.2775 221.3848,210.2235 C212.7528,205.3255 210.7978,193.4275 210.4018,186.7705 C210.0778,181.3665 210.0778,175.7145 210.078698,164.4545 L210.078698,162.4845 C210.078698,158.4545 210.1528,154.3145 210.2298,149.9305 C210.3108,145.3675 210.3938,140.6505 210.4008,135.6715 C210.4008,135.3415 210.6688,135.0735 210.9978,135.0735 L210.9988,135.0735 C211.3298,135.0745 211.5958,135.3425 211.5958,135.6725 C211.5888,140.6615 211.5058,145.3845 211.4258,149.9515 C211.3468,154.3305 211.2748,158.4655 211.2748,162.4845 L211.2748,164.4545 C211.2738,175.6915 211.2738,181.3315 211.5948,186.6995 C211.9778,193.1145 213.8358,204.5645 221.9758,209.1845 C222.2628,209.3465 222.3638,209.7115 222.2008,209.9985 C222.0898,210.1935 221.8878,210.3015 221.6808,210.3015" id="Fill-93" fill="#000000"></path>
            <path d="M187.8917,226.007603 C184.6077,226.0086 181.4857,225.7736 178.6147,225.5586 C175.2867,225.3096 172.4117,225.0966 169.9907,225.2866 C169.6577,225.3126 169.3727,225.0686 169.3467,224.7386 C169.3207,224.4096 169.5667,224.1206 169.8947,224.0956 C172.4097,223.8946 175.3257,224.1126 178.7037,224.3666 C190.5327,225.2506 206.7337,226.4676 220.5377,209.6326 C220.7457,209.3776 221.1217,209.3416 221.3787,209.5496 C221.6337,209.7586 221.6707,210.1356 221.4617,210.3916 C210.6347,223.5936 198.4347,226.007603 187.8917,226.007603" id="Fill-95" fill="#000000"></path>
            <path d="M187.3107,98.2859 C186.8497,98.2859 186.3827,98.2739 185.9077,98.2499 C176.4207,97.7719 167.0877,92.6149 165.5287,86.9889 C165.4407,86.6709 165.6257,86.3419 165.9447,86.2529 C166.2647,86.1679 166.5917,86.3509 166.6807,86.6699 C168.0907,91.7559 177.1037,96.6089 185.9677,97.0559 C194.1557,97.4669 200.2467,94.1119 202.6837,87.8479 C202.8037,87.5399 203.1527,87.3859 203.4577,87.5079 C203.7647,87.6269 203.9177,87.9729 203.7977,88.2809 C201.3047,94.6879 195.3367,98.2859 187.3107,98.2859" id="Fill-97" fill="#000000"></path>
            <path d="M295.046,231.5935 L295.041,231.5935 C294.712,231.5915 294.445,231.3215 294.447,230.9905 C294.674,198.8045 287.219,147.2055 280.926,137.4155 C275.189,128.4915 264.004,127.4425 258.629,126.9385 C258.301,126.9065 258.06,126.6145 258.09,126.2865 C258.12,125.9585 258.417,125.7185 258.741,125.7465 C264.305,126.2695 275.88,127.3565 281.932,136.7695 C288.444,146.9005 295.877,197.9785 295.644,231.0005 C295.641,231.3285 295.374,231.5935 295.046,231.5935" id="Fill-99" fill="#C7CBD2"></path>
            <path d="M0.5968,134.2478 C0.2998,134.2478 0.0418,134.0258 0.0048,133.7238 C-0.0362,133.3958 0.1968,133.0978 0.5238,133.0568 C27.7238,129.6558 92.6218,127.4958 109.2758,128.9638 C109.6048,128.9928 109.8478,129.2828 109.8188,129.6108 C109.7888,129.9408 109.5098,130.1938 109.1708,130.1538 C92.5608,128.6888 27.8198,130.8488 0.6718,134.2428 C0.6468,134.2458 0.6218,134.2478 0.5968,134.2478" id="Fill-101" fill="#C7CBD2"></path>
            <path d="M292.2169,280.2849 C291.9339,280.2849 291.6819,280.0819 291.6299,279.7919 C291.5709,279.4669 291.7889,279.1559 292.1129,279.0979 C318.2539,274.4469 345.4929,272.1129 353.3989,272.1129 C353.7299,272.1129 353.9959,272.3809 353.9959,272.7109 C353.9959,273.0419 353.7299,273.3089 353.3989,273.3089 C345.7489,273.3089 318.0309,275.7019 292.3229,280.2749 C292.2869,280.2809 292.2519,280.2849 292.2169,280.2849" id="Fill-103" fill="#C7CBD2"></path>
            <path d="M93.9162,299.1179 C93.6162,299.1179 93.3582,298.8929 93.3222,298.5889 C93.2842,298.2619 93.5192,297.9649 93.8472,297.9259 C123.9072,294.4119 197.8382,286.1989 235.0122,285.8399 L235.0182,285.8399 C235.3462,285.8399 235.6122,286.1029 235.616225,286.4309 C235.6192,286.7629 235.3542,287.0319 235.0232,287.0359 C197.9062,287.3939 124.0272,295.6019 93.9862,299.1139 C93.9632,299.1169 93.9382,299.1179 93.9162,299.1179" id="Fill-105" fill="#C7CBD2"></path>
            <g id="Group-109" transform="translate(281.000000, 229.963000)">
                <mask id="mask-2" fill="white">
                    <use xlink:href="#path-1"></use>
                </mask>
                <g id="Clip-108"></g>
                <path d="M76.2794,71.6832 L76.2634,71.6832 C75.9334,71.6732 75.6734,71.3992 75.6804,71.0702 C76.1674,52.4372 75.4944,40.9972 73.6814,37.0712 C70.7954,30.8142 57.5294,22.7172 45.8244,15.5732 C33.5604,8.0862 17.9614,1.9002 14.6004,1.9952 C11.3034,2.0822 6.8694,2.5772 1.0434,3.5072 C0.7104,3.5512 0.4104,3.3362 0.3574,3.0102 C0.3064,2.6852 0.5284,2.3772 0.8534,2.3252 C6.7334,1.3862 11.2184,0.8882 14.5694,0.8002 C14.5954,0.8002 14.6224,0.7992 14.6504,0.7992 C18.3424,0.7992 33.8934,6.8902 46.4474,14.5522 C58.8774,22.1392 71.7284,29.9832 74.7674,36.5692 C76.6844,40.7222 77.3744,52.0172 76.8774,71.1002 C76.8684,71.4242 76.6024,71.6832 76.2794,71.6832" id="Fill-107" fill="#C7CBD2" mask="url(#mask-2)"></path>
            </g>
            <path d="M282.6027,239.0017 C282.3937,239.0017 282.1897,238.8907 282.0797,238.6937 C281.9187,238.4047 282.0237,238.0417 282.3117,237.8807 C282.7417,237.6427 282.8447,237.4087 282.8857,237.2537 C283.0977,236.4557 282.2167,235.0037 281.1967,233.3217 C279.9607,231.2847 278.4237,228.7497 277.7517,225.7417 C277.1637,223.1047 276.6507,220.1037 276.1077,216.9257 C275.0057,210.4797 273.7567,203.1697 271.5157,197.1797 C268.7527,189.7967 266.5367,185.9467 264.3907,182.2267 C262.7067,179.3037 261.1167,176.5427 259.4297,172.3257 C259.1497,171.6267 258.8837,170.9957 258.6377,170.4127 C257.2997,167.2437 256.4927,165.3317 257.2537,161.2747 C257.3817,160.5897 257.5727,159.8567 257.7647,159.1207 C258.2997,157.0747 258.8537,154.9597 257.9447,154.1017 C257.5007,153.6817 255.7017,153.5227 252.1007,154.4647 C251.7797,154.5547 251.4557,154.3567 251.3727,154.0367 C251.2887,153.7187 251.4797,153.3917 251.7987,153.3087 C255.4617,152.3517 257.8087,152.3257 258.7657,153.2327 C260.1897,154.5767 259.5447,157.0407 258.9217,159.4227 C258.7367,160.1317 258.5517,160.8357 258.4287,161.4937 C257.7347,165.1977 258.4477,166.8857 259.7397,169.9487 C259.9887,170.5377 260.2567,171.1747 260.5397,171.8827 C262.1957,176.0197 263.7647,178.7447 265.4277,181.6297 C267.5957,185.3927 269.8377,189.2847 272.6367,196.7617 C274.9177,202.8567 276.1747,210.2247 277.2867,216.7257 C277.8267,219.8857 278.3367,222.8727 278.9187,225.4807 C279.5487,228.2987 281.0297,230.7397 282.2197,232.7017 C283.4287,234.6957 284.3837,236.2707 284.0417,237.5607 C283.8917,238.1267 283.5047,238.5857 282.8937,238.9267 C282.8007,238.9777 282.7017,239.0017 282.6027,239.0017" id="Fill-110" fill="#C7CBD2"></path>
            <path d="M212.2697,35.3503 C212.4497,36.5363 215.3147,34.9083 216.0657,33.9783 C217.5707,32.1123 217.6387,29.4413 217.0867,27.2483 C215.2407,19.9163 208.9357,14.4993 203.2647,9.7223 C199.3397,6.4153 194.3457,1.6503 189.1997,0.5923 C184.1497,-0.4467 177.7637,0.7513 172.3757,2.7483 C167.0537,4.7213 161.2207,6.4153 159.0527,11.6843 C156.6047,17.6343 157.4187,23.2203 157.4967,29.4533 C157.5147,31.0063 158.8377,37.0223 158.8377,37.0223 C158.8377,37.0223 160.9257,36.4573 161.6827,36.7003 C163.3577,37.2353 164.0587,37.5803 165.4357,38.6333 C167.7907,40.4323 169.7327,42.9513 173.3317,41.9603 C175.3687,41.4013 177.5177,39.2293 179.0217,37.8283 C182.0217,35.0343 184.7927,31.9893 188.2907,29.0313 C190.1937,27.4213 192.2347,26.1053 194.4827,25.4273 C196.8907,24.7013 201.2137,24.2763 204.8337,25.0793 C207.7467,25.7243 209.8847,27.6833 211.1227,29.5613 C212.2557,31.2813 211.9757,33.4113 212.2697,35.3503" id="Fill-112" fill="#4D4D4D"></path>
            <path d="M211.3078,41.737 C211.6628,41.737 211.9728,41.476 212.0248,41.115 C212.6668,36.629 212.6068,30.376 210.3228,27.517 C210.0708,27.206 209.6148,27.156 209.3028,27.404 C208.9908,27.654 208.9398,28.11 209.1898,28.424 C211.0578,30.759 211.2398,36.378 210.5898,40.909 C210.5338,41.305 210.8078,41.673 211.2038,41.729 C211.2398,41.735 211.2748,41.737 211.3078,41.737" id="Fill-114" fill="#000000"></path>
            <path d="M202.1691,60.7126 C202.2231,60.7126 202.2771,60.7066 202.3321,60.6926 C204.0121,60.3066 204.9051,59.0716 204.9191,58.0506 C204.9311,57.2266 204.5511,56.6016 204.1841,55.9966 C203.8841,55.5036 203.5751,54.9956 203.4491,54.3296 C203.2861,53.4636 203.4441,52.5076 203.5501,51.8736 L203.5971,51.5816 C203.6571,51.1856 203.3841,50.8166 202.9891,50.7566 C202.5951,50.6976 202.2241,50.9696 202.1641,51.3646 L202.1201,51.6366 C201.9981,52.3706 201.8151,53.4806 202.0241,54.5996 C202.1991,55.5236 202.6121,56.2026 202.9441,56.7496 C203.2421,57.2366 203.4761,57.6226 203.4701,58.0306 C203.4651,58.4106 203.0081,59.0506 202.0081,59.2816 C201.6171,59.3716 201.3731,59.7606 201.4641,60.1506 C201.5411,60.4856 201.8401,60.7126 202.1691,60.7126" id="Fill-116" fill="#000000"></path>
            <path d="M210.5138,45.2019 C210.8178,45.2019 211.0998,45.0099 211.2008,44.7059 C211.3278,44.3269 211.1218,43.9169 210.7428,43.7899 C209.1268,43.2499 208.2148,43.3999 207.2718,43.6369 C206.8838,43.7329 206.6468,44.1259 206.7438,44.5149 C206.8418,44.9029 207.2348,45.1409 207.6228,45.0419 C208.4128,44.8449 209.0278,44.7449 210.2848,45.1639 C210.3608,45.1889 210.4378,45.2019 210.5138,45.2019" id="Fill-118" fill="#000000"></path>
            <path d="M194.4044,44.24 C194.6684,44.24 194.9224,44.096 195.0504,43.846 C195.2334,43.491 195.0934,43.054 194.7364,42.871 C192.9704,41.962 189.8614,41.66 187.7204,42.73 C187.3624,42.91 187.2174,43.344 187.3954,43.702 C187.5754,44.06 188.0084,44.207 188.3684,44.027 C190.0764,43.174 192.6594,43.432 194.0744,44.16 C194.1794,44.215 194.2934,44.24 194.4044,44.24" id="Fill-120" fill="#000000"></path>
            <path d="M208.1066,51.0027 C208.1066,50.3407 207.5976,49.8047 206.9686,49.8047 C206.3396,49.8047 205.8316,50.3407 205.8316,51.0027 C205.8316,51.6647 206.3396,52.2007 206.9686,52.2007 C207.5976,52.2007 208.1066,51.6647 208.1066,51.0027" id="Fill-122" fill="#000000"></path>
            <path d="M191.1447,50.8796 C191.1447,50.1406 190.5747,49.5416 189.8727,49.5416 C189.1687,49.5416 188.5997,50.1406 188.5997,50.8796 C188.5997,51.6166 189.1687,52.2156 189.8727,52.2156 C190.5747,52.2156 191.1447,51.6166 191.1447,50.8796" id="Fill-124" fill="#000000"></path>
            <path d="M196.7208,69.5105 C198.0618,69.5105 199.2568,69.2675 200.0068,68.7375 C200.3338,68.5065 200.4118,68.0545 200.1808,67.7275 C199.9508,67.4015 199.5008,67.3225 199.1708,67.5535 C197.6708,68.6135 192.6498,68.0115 190.6148,66.1715 C190.3208,65.9055 189.8598,65.9255 189.5918,66.2225 C189.3228,66.5195 189.3458,66.9775 189.6428,67.2455 C191.2058,68.6615 194.2168,69.5105 196.7208,69.5105" id="Fill-126" fill="#000000"></path>
            <path d="M212.089,36.9919 C212.142,36.9919 212.195,36.9859 212.248,36.9739 C214.623,36.4459 216.305,34.8689 216.985,32.5309 C217.895,29.4069 216.857,25.0869 214.669,22.8989 C214.386,22.6159 213.928,22.6159 213.645,22.8989 C213.361,23.1819 213.361,23.6399 213.645,23.9239 C215.267,25.5469 216.438,29.2289 215.594,32.1259 C215.053,33.9849 213.82,35.1389 211.933,35.5589 C211.542,35.6459 211.296,36.0339 211.383,36.4249 C211.458,36.7629 211.757,36.9919 212.089,36.9919" id="Fill-128" fill="#000000"></path>
            <path d="M216.0812,21.7058 C216.7822,21.7058 217.4892,21.5068 218.1882,21.0408 C218.5212,20.8178 218.6112,20.3688 218.3902,20.0358 C218.1682,19.7028 217.7202,19.6128 217.3852,19.8348 C215.1732,21.3058 212.5312,18.5718 210.0112,15.6468 C209.6442,15.2218 209.3162,14.8418 209.0372,14.5458 C199.7942,4.7588 191.2442,0.0008 182.9012,0.0008 C182.2012,0.0008 176.0062,0.0858 174.2152,3.0188 C174.0062,3.3608 174.1142,3.8078 174.4562,4.0168 C174.7992,4.2248 175.2442,4.1148 175.4522,3.7738 C176.4282,2.1778 179.9972,1.4498 182.9012,1.4498 C190.8242,1.4498 199.0282,6.0588 207.9842,15.5408 C208.2502,15.8238 208.5632,16.1868 208.9122,16.5928 C210.6482,18.6078 213.3162,21.7058 216.0812,21.7058" id="Fill-130" fill="#000000"></path>
            <path d="M181.591,15.1619 C181.699,15.1619 181.81,15.1379 181.914,15.0859 C182.272,14.9059 182.417,14.4719 182.237,14.1129 C180.405,10.4489 177.794,7.5219 175.072,6.0839 C174.72,5.8969 174.28,6.0309 174.093,6.3859 C173.906,6.7389 174.041,7.1779 174.395,7.3649 C176.855,8.6649 179.241,11.3609 180.942,14.7629 C181.069,15.0159 181.324,15.1619 181.591,15.1619" id="Fill-132" fill="#000000"></path>
            <path d="M205.6886,26.8318 C205.7246,26.8318 205.7606,26.8288 205.7976,26.8228 C207.1276,26.6218 208.2846,25.4928 208.8136,23.8808 C209.4046,22.0798 209.0506,20.2428 207.8936,19.0858 C207.6096,18.8018 207.1506,18.8038 206.8696,19.0858 C206.5856,19.3688 206.5856,19.8268 206.8696,20.1098 C207.7896,21.0288 207.7646,22.4268 207.4356,23.4288 C207.0846,24.5018 206.3556,25.2728 205.5816,25.3918 C205.1846,25.4508 204.9136,25.8198 204.9726,26.2158 C205.0286,26.5748 205.3356,26.8318 205.6886,26.8318" id="Fill-134" fill="#000000"></path>
            <path d="M200.1027,26.3708 C200.2107,26.3708 200.3217,26.3468 200.4247,26.2948 C200.7847,26.1158 200.9287,25.6808 200.7497,25.3228 C199.2197,22.2608 194.0567,20.1978 189.9377,22.2278 C189.5797,22.4058 189.4317,22.8398 189.6087,23.1988 C189.7867,23.5578 190.2167,23.7058 190.5797,23.5278 C193.8827,21.8948 198.2227,23.5088 199.4537,25.9708 C199.5817,26.2248 199.8367,26.3708 200.1027,26.3708" id="Fill-136" fill="#000000"></path>
            <path d="M176.7091,37.3386 C178.0501,37.3386 179.4431,36.9516 180.8671,36.1756 C182.7161,35.1666 184.4911,33.5596 186.2071,32.0056 C189.3751,29.1346 192.6571,26.1706 196.4641,26.8446 C196.8561,26.9146 197.2351,26.6526 197.3051,26.2596 C197.3751,25.8646 197.1121,25.4876 196.7191,25.4186 C192.2031,24.6176 188.6601,27.8246 185.2331,30.9306 C183.5051,32.4976 181.8711,33.9776 180.1731,34.9036 C177.0941,36.5816 174.4121,36.1436 171.9741,33.5566 C171.6991,33.2656 171.2401,33.2516 170.9491,33.5256 C170.6581,33.8006 170.6451,34.2596 170.9191,34.5506 C172.6661,36.4046 174.6241,37.3386 176.7091,37.3386" id="Fill-138" fill="#000000"></path>
            <path d="M175.379,40.5456 C176.011,40.5456 176.695,40.4506 177.441,40.2346 C177.824,40.1226 178.047,39.7206 177.936,39.3366 C177.823,38.9516 177.417,38.7346 177.037,38.8416 C174.228,39.6596 172.6,38.3336 171.293,37.0266 C171.01,36.7436 170.551,36.7436 170.268,37.0266 C169.984,37.3096 169.984,37.7686 170.268,38.0516 C171.545,39.3276 173.125,40.5456 175.379,40.5456" id="Fill-140" fill="#000000"></path>
            <path d="M172.6769,43.6462 C173.0769,43.6462 173.4019,43.3222 173.4019,42.9212 C173.4019,42.5222 173.0769,42.1972 172.6769,42.1972 C171.8729,42.1972 171.1259,41.7692 170.6769,41.0502 C170.4659,40.7112 170.0189,40.6092 169.6779,40.8212 C169.3389,41.0332 169.2359,41.4792 169.4479,41.8192 C170.1629,42.9632 171.3699,43.6462 172.6769,43.6462" id="Fill-142" fill="#000000"></path>
            <path d="M165.5011,54.5642 C165.9011,54.5642 166.2261,54.2402 166.2261,53.8392 C166.2261,53.4392 165.9011,53.1152 165.5011,53.1152 C164.0871,53.1152 162.5111,52.2862 161.0641,50.7792 C158.9971,48.6282 157.5631,45.4662 157.6501,43.2612 C157.7341,41.1412 158.3571,39.6572 159.4491,38.9702 C160.3491,38.4062 161.6011,38.3772 162.7941,38.8952 C164.6481,39.6962 166.5941,42.0032 166.9231,42.5222 C167.1391,42.8592 167.5851,42.9592 167.9241,42.7442 C168.2611,42.5282 168.3611,42.0802 168.1461,41.7432 C167.7351,41.0992 165.5871,38.5232 163.3701,37.5642 C161.7331,36.8582 159.9811,36.9242 158.6791,37.7442 C157.6221,38.4082 156.3351,39.8952 156.2021,43.2032 C156.0981,45.8072 157.6671,49.3352 160.0201,51.7842 C161.7421,53.5762 163.6891,54.5642 165.5011,54.5642" id="Fill-144" fill="#000000"></path>
            <path d="M164.7326,46.5398 C164.8656,46.5398 165.0016,46.5028 165.1226,46.4258 C165.4596,46.2088 165.5576,45.7618 165.3416,45.4248 C164.3526,43.8798 163.5456,43.4218 162.3086,42.8038 C161.9476,42.6238 161.5146,42.7688 161.3356,43.1268 C161.1566,43.4848 161.3016,43.9208 161.6596,44.0998 C162.7656,44.6528 163.3326,44.9738 164.1216,46.2058 C164.2596,46.4218 164.4936,46.5398 164.7326,46.5398" id="Fill-146" fill="#000000"></path>
            <path d="M157.3859,25.5583 C157.4089,25.5583 157.4319,25.5573 157.4559,25.5543 C157.8549,25.5163 158.1469,25.1623 158.1079,24.7643 C157.4229,17.6213 159.1859,11.8133 163.0729,8.4123 C164.2619,7.3713 167.4619,5.5493 169.8159,5.8623 C170.2249,5.9073 170.5749,5.6333 170.6269,5.2363 C170.6789,4.8383 170.3989,4.4753 170.0019,4.4233 C167.2639,4.0743 163.6899,5.9463 162.1179,7.3213 C157.8709,11.0383 155.9339,17.2823 156.6659,24.9023 C156.7019,25.2783 157.0169,25.5583 157.3859,25.5583" id="Fill-148" fill="#000000"></path>
            <path d="M159.2033,38.7488 C159.3893,38.7488 159.5743,38.6778 159.7163,38.5358 C159.9983,38.2538 159.9983,37.7948 159.7163,37.5118 C158.3383,36.1348 157.8713,31.1358 158.1553,28.2978 C158.1943,27.8998 157.9033,27.5448 157.5063,27.5058 C157.1083,27.4568 156.7523,27.7558 156.7133,28.1548 C156.4463,30.8178 156.7533,36.5988 158.6903,38.5358 C158.8323,38.6778 159.0173,38.7488 159.2033,38.7488" id="Fill-150" fill="#000000"></path>
            <path d="M76.4757,181.8874 C76.4757,181.8874 98.4987,179.6694 110.4237,186.4254 C122.3487,193.1814 133.0307,197.8594 137.0357,221.9604 C141.0407,246.0624 148.4217,257.7304 148.4217,257.7304" id="Stroke-152" stroke="#C7CBD2" stroke-width="1.26"></path>
            <mask id="mask-4" fill="white">
                <use xlink:href="#path-3"></use>
            </mask>
            <g id="Clip-155"></g>
            <polygon id="Stroke-154" stroke="#C7CBD2" stroke-width="0.662" mask="url(#mask-4)" points="58.765 60.206 81.382 60.206 81.382 37.589 58.765 37.589"></polygon>
            <polygon id="Stroke-156" stroke="#C7CBD2" stroke-width="0.662" mask="url(#mask-4)" points="77.0578 47.157 71.2948 47.157 71.2948 41.394 68.8508 41.394 68.8508 47.157 63.0888 47.157 63.0888 49.601 68.8508 49.601 68.8508 55.363 71.2948 55.363 71.2948 49.601 77.0578 49.601"></polygon>
            <polygon id="Stroke-157" stroke="#C7CBD2" stroke-width="0.662" mask="url(#mask-4)" points="81.329 60.206 103.945 60.206 103.945 37.589 81.329 37.589"></polygon>
            <polygon id="Stroke-158" stroke="#C7CBD2" stroke-width="0.662" mask="url(#mask-4)" points="86.613 49.252 98.661 49.252 98.661 47.157 86.613 47.157"></polygon>
            <polygon id="Stroke-159" stroke="#C7CBD2" stroke-width="0.662" mask="url(#mask-4)" points="58.765 82.776 81.382 82.776 81.382 60.159 58.765 60.159"></polygon>
            <polygon id="Stroke-160" stroke="#C7CBD2" stroke-width="0.662" mask="url(#mask-4)" points="74.1476 65.1462 70.0736 69.2202 65.9996 65.1462 64.2706 66.8752 68.3446 70.9492 64.2706 75.0232 65.9996 76.7512 70.0736 72.6772 74.1476 76.7512 75.8766 75.0232 71.8016 70.9492 75.8766 66.8752"></polygon>
            <polygon id="Stroke-161" stroke="#C7CBD2" stroke-width="0.662" mask="url(#mask-4)" points="81.329 82.776 103.945 82.776 103.945 60.159 81.329 60.159"></polygon>
            <polygon id="Stroke-162" stroke="#C7CBD2" stroke-width="0.662" mask="url(#mask-4)" points="86.613 71.822 98.661 71.822 98.661 69.727 86.613 69.727"></polygon>
            <path d="M92.6378,67.8093 C93.4738,67.8093 94.1518,67.1313 94.1518,66.2943 C94.1518,65.4583 93.4738,64.7813 92.6378,64.7813 C91.8008,64.7813 91.1228,65.4583 91.1228,66.2943 C91.1228,67.1313 91.8008,67.8093 92.6378,67.8093 Z" id="Stroke-163" stroke="#C7CBD2" stroke-width="0.662" mask="url(#mask-4)"></path>
            <path d="M92.6378,73.9753 C91.8008,73.9753 91.1228,74.6533 91.1228,75.4893 C91.1228,76.3263 91.8008,77.0033 92.6378,77.0033 C93.4738,77.0033 94.1518,76.3263 94.1518,75.4893 C94.1518,74.6533 93.4738,73.9753 92.6378,73.9753 Z" id="Stroke-164" stroke="#C7CBD2" stroke-width="0.662" mask="url(#mask-4)"></path>
            <path d="M298.3595,14.9099 L257.6115,14.9099 C251.0705,14.9099 245.7675,19.9729 245.7675,26.2199 L245.7675,48.5389 C245.7675,53.9699 249.7775,58.5039 255.1225,59.5959 L252.6245,66.9899 L264.2065,59.8479 L298.3595,59.8479 C304.9005,59.8479 310.2035,54.7849 310.2035,48.5389 L310.2035,26.2199 C310.2035,19.9729 304.9005,14.9099 298.3595,14.9099 Z" id="Stroke-165" stroke="#C7CBD2" stroke-width="0.993" mask="url(#mask-4)"></path>
            <path d="M291.0988,28.9958 L262.2888,28.9958 C261.3938,28.9958 260.6668,29.7218 260.6668,30.6168 L260.6668,48.6318 C260.6668,49.5268 261.3938,50.2538 262.2888,50.2538 L291.0988,50.2538 C291.9948,50.2538 292.7208,49.5268 292.7208,48.6318 L292.7208,30.6168 C292.7208,29.7218 291.9948,28.9958 291.0988,28.9958" id="Fill-166" fill="#FFFFFF" mask="url(#mask-4)"></path>
            <path d="M291.0988,28.9958 L262.2888,28.9958 C261.3938,28.9958 260.6668,29.7218 260.6668,30.6168 L260.6668,48.6318 C260.6668,49.5268 261.3938,50.2538 262.2888,50.2538 L291.0988,50.2538 C291.9948,50.2538 292.7208,49.5268 292.7208,48.6318 L292.7208,30.6168 C292.7208,29.7218 291.9948,28.9958 291.0988,28.9958 Z" id="Stroke-167" stroke="#000000" stroke-width="0.956" mask="url(#mask-4)"></path>
            <path d="M292.1378,49.8669 L278.6548,37.7389 C277.5398,36.7359 275.8478,36.7359 274.7338,37.7389 L261.2498,49.8669 C261.5318,50.1049 261.8908,50.2539 262.2888,50.2539 L291.0988,50.2539 C291.4958,50.2539 291.8568,50.1049 292.1378,49.8669" id="Fill-168" fill="#FFFFFF" mask="url(#mask-4)"></path>
            <path d="M292.1378,49.8669 L278.6548,37.7389 C277.5398,36.7359 275.8478,36.7359 274.7338,37.7389 L261.2498,49.8669 C261.5318,50.1049 261.8908,50.2539 262.2888,50.2539 L291.0988,50.2539 C291.4958,50.2539 291.8568,50.1049 292.1378,49.8669 Z" id="Stroke-169" stroke="#000000" stroke-width="0.956" mask="url(#mask-4)"></path>
            <path d="M261.2501,29.3816 L274.7331,41.5096 C275.8481,42.5126 277.5401,42.5126 278.6541,41.5096 L292.1381,29.3816 C291.8561,29.1446 291.4961,28.9956 291.0991,28.9956 L262.2891,28.9956 C261.8911,28.9956 261.5311,29.1446 261.2501,29.3816" id="Fill-170" fill="#FFFFFF" mask="url(#mask-4)"></path>
            <path d="M261.2501,29.3816 L274.7331,41.5096 C275.8481,42.5126 277.5401,42.5126 278.6541,41.5096 L292.1381,29.3816 C291.8561,29.1446 291.4961,28.9956 291.0991,28.9956 L262.2891,28.9956 C261.8911,28.9956 261.5311,29.1446 261.2501,29.3816 Z" id="Stroke-171" stroke="#000000" stroke-width="0.956" mask="url(#mask-4)"></path>
            <path d="M301.632,28.9411 C301.632,33.3451 298.062,36.9161 293.658,36.9161 C289.254,36.9161 285.684,33.3451 285.684,28.9411 C285.684,24.5381 289.254,20.9671 293.658,20.9671 C298.062,20.9671 301.632,24.5381 301.632,28.9411" id="Fill-172" fill="#FE7200" mask="url(#mask-4)"></path>
            <path d="M293.5802,26.8025 L292.9772,26.9585 C292.8892,26.9815 292.7672,27.0035 292.6772,27.0035 C292.2752,27.0035 291.9302,26.6695 291.9302,26.2685 C291.9302,25.9225 292.1532,25.6325 292.4982,25.5315 L293.6012,25.2085 C293.9252,25.1195 294.1702,25.0645 294.4042,25.0645 L294.4272,25.0645 C294.8942,25.0645 295.2732,25.4435 295.2732,25.9105 L295.2732,32.1975 C295.2732,32.6655 294.8942,33.0445 294.4272,33.0445 C293.9592,33.0445 293.5802,32.6655 293.5802,32.1975 L293.5802,26.8025 Z" id="Fill-173" fill="#FFFFFF" mask="url(#mask-4)"></path>
        </g>
        <g id="Group-Copy" transform="translate(8.000000, 12.000000)">
            <line x1="30.9535831" y1="15.5" x2="587.046417" y2="15.5" id="Line" stroke="#CCCCCC" stroke-linecap="square"></line>
            <g id="01" transform="translate(15.500000, 0.000000)">
                <circle id="Oval" fill="#CCCCCC" cx="15.5" cy="15.5" r="15.5"></circle>
                <polygon id="1" fill="#FFFFFF" fill-rule="nonzero" points="17.5258824 22.02 17.5258824 7.6 15.2658824 7.6 10.4458824 10.28 11.6858824 12.36 14.9658824 10.48 14.9658824 22.02"></polygon>
            </g>
            <g id="02" transform="translate(106.500000, 0.000000)">
                <circle id="Oval-Copy" fill="#CCCCCC" cx="15.5" cy="15.5" r="15.5"></circle>
                <path d="M21.2494118,22.02 L21.2494118,19.9 L14.3894118,19.9 L18.6294118,15.62 C19.9694118,14.28 20.7094118,12.84 20.7094118,11.28 L20.7094118,11.08 C20.7094118,9.1 19.3094118,7.38 16.0494118,7.38 C13.1294118,7.38 11.7894118,9.18 11.1094118,10.42 L13.0294118,11.68 C13.9694118,10 15.0294118,9.66 16.0694118,9.66 C17.5494118,9.66 18.1294118,10.4 18.1294118,11.18 L18.1294118,11.34 C18.1294118,12.16 18.0294118,12.92 16.3494118,14.64 L11.0494118,20.1 L11.0494118,22.02 L21.2494118,22.02 Z" id="2" fill="#FFFFFF" fill-rule="nonzero"></path>
            </g>
            <g id="03" transform="translate(197.500000, 0.000000)">
                <circle id="Oval-Copy-2" fill="#CCCCCC" cx="15.5" cy="15.5" r="15.5"></circle>
                <path d="M15.5694118,22.24 C19.1094118,22.24 20.8094118,20.22 20.8094118,18.04 L20.8094118,17.74 C20.8094118,16.1 19.9094118,14.82 18.0094118,14.48 C19.6494118,13.86 20.0894118,12.32 20.0894118,11.18 L20.0894118,10.98 C20.0894118,8.82 18.3294118,7.38 15.6294118,7.38 C13.5494118,7.38 12.3094118,8.22 11.3494118,9.46 L13.0894118,10.82 C13.7294118,10.12 14.4094118,9.62 15.6294118,9.62 C16.8294118,9.62 17.5894118,10.1 17.5894118,11.18 L17.5894118,11.34 C17.5894118,12.58 17.1894118,13.42 15.3894118,13.42 L13.6694118,13.42 L13.6694118,15.62 L15.6094118,15.62 C17.4494118,15.62 18.2294118,16.26 18.2294118,17.66 L18.2294118,17.92 C18.2294118,19.18 17.3894118,19.96 15.5894118,19.96 C14.4294118,19.96 13.6094118,19.66 12.2094118,18.64 L10.9494118,20.64 C12.3094118,21.72 13.8894118,22.24 15.5694118,22.24 Z" id="3" fill="#FFFFFF" fill-rule="nonzero"></path>
            </g>
            <g id="04" transform="translate(288.500000, 0.000000)">
                <circle id="Oval-Copy-2" fill="#CCCCCC" cx="15.5" cy="15.5" r="15.5"></circle>
                <polygon id="4" fill="#FFFFFF" fill-rule="nonzero" points="19.1176471 22.02 19.1176471 19.02 21.0776471 19.02 21.0776471 16.96 19.1176471 16.96 19.1176471 12.64 16.5976471 12.64 16.5976471 16.96 12.4376471 16.96 18.7376471 7.6 15.9776471 7.6 9.41764706 17.36 9.41764706 19.02 16.5976471 19.02 16.5976471 22.02"></polygon>
            </g>
            <g id="05" transform="translate(379.500000, 0.000000)">
                <circle id="Oval-Copy-2" fill="#FF0000" cx="15.5" cy="15.5" r="15.5"></circle>
                <path d="M15.4176471,22.24 C19.0376471,22.24 20.5576471,19.74 20.5576471,17.44 L20.5576471,17.14 C20.5576471,14.82 19.0376471,12.74 16.2576471,12.74 C15.0576471,12.74 14.2376471,13.08 13.5776471,13.48 L13.7376471,9.72 L19.6176471,9.72 L19.6176471,7.6 L11.4376471,7.6 L10.9776471,15.94 L12.6976471,15.94 C13.3376471,15.32 14.2176471,14.8 15.4376471,14.8 C17.0376471,14.8 17.9776471,15.66 17.9776471,17.2 L17.9776471,17.42 C17.9776471,18.86 17.1576471,19.92 15.3976471,19.92 C14.0576471,19.92 12.8976471,19.7 11.5376471,18.62 L10.2976471,20.64 C11.7376471,21.82 13.3376471,22.24 15.4176471,22.24 Z" id="5" fill="#FFFFFF" fill-rule="nonzero"></path>
            </g>
            <g id="06" transform="translate(470.500000, 0.000000)">
                <circle id="Oval-Copy-2" fill="#CCCCCC" cx="15.5" cy="15.5" r="15.5"></circle>
                <path d="M15.4376471,22.24 C18.6376471,22.24 20.5576471,20.2 20.5576471,17.52 L20.5576471,17.12 C20.5576471,14.32 18.8576471,12.48 16.0576471,12.48 C14.8176471,12.48 13.5176471,12.92 12.8176471,13.74 C12.9976471,10.66 14.3576471,9.7 15.8376471,9.7 C17.0176471,9.7 17.9976471,9.98 18.8976471,10.5 L19.8376471,8.38 C18.7576471,7.66 17.2976471,7.38 15.9976471,7.38 C12.8576471,7.38 10.2776471,8.86 10.2776471,15.22 L10.2776471,16.14 C10.2776471,19.84 11.7576471,22.24 15.4376471,22.24 Z M15.3776471,19.92 C13.7376471,19.92 12.8576471,19 12.8576471,17.44 L12.8576471,17.14 C12.8576471,15.82 13.6376471,14.72 15.4776471,14.72 C17.2376471,14.72 18.0376471,15.52 18.0376471,17.2 L18.0376471,17.42 C18.0376471,19.02 17.1376471,19.92 15.3776471,19.92 Z" id="6" fill="#FFFFFF" fill-rule="nonzero"></path>
            </g>
            <g id="06-copy" transform="translate(561.500000, 0.000000)">
                <circle id="Oval-Copy-2" fill="#CCCCCC" cx="15.5" cy="15.5" r="15.5"></circle>
                <polygon id="7" fill="#FFFFFF" fill-rule="nonzero" points="14.9376471 23.02 20.4576471 10.56 20.4576471 8.6 10.1576471 8.6 10.1576471 10.76 17.7776471 10.76 12.2376471 23.02"></polygon>
            </g>
            <path d="M13.446,54.818 L13.446,45.774 L12.273,45.774 L12.273,49.548 L10.029,49.548 L10.029,45.978 L8.856,45.978 L8.856,54.784 L10.029,54.784 L10.029,50.619 L12.273,50.619 L12.273,54.818 L13.446,54.818 Z M3.875,53.73 C6.017,53.73 7.292,52.149 7.292,50.517 L7.292,49.633 C7.292,48.001 6.017,46.42 3.875,46.42 C1.733,46.42 0.458,48.001 0.458,49.633 L0.458,50.517 C0.458,52.149 1.733,53.73 3.875,53.73 Z M3.875,52.642 C2.515,52.642 1.631,51.673 1.631,50.398 L1.631,49.752 C1.631,48.477 2.515,47.508 3.875,47.508 C5.235,47.508 6.119,48.477 6.119,49.752 L6.119,50.398 C6.119,51.673 5.235,52.642 3.875,52.642 Z M13.446,61.431 L13.446,55.736 L3.348,55.736 L3.348,56.79 L12.256,56.79 L12.256,61.431 L13.446,61.431 Z M27.845,54.937 L27.845,45.774 L26.655,45.774 L26.655,49.752 L23.408,49.752 L23.408,50.806 L26.655,50.806 L26.655,54.937 L27.845,54.937 Z M16.064,54.733 C16.846,54.172 18.002,53.254 18.597,52.727 C19.311,52.098 19.855,51.537 19.923,51.282 L19.94,51.282 C20.008,51.503 20.671,52.081 21.47,52.727 C21.98,53.135 22.796,53.747 23.476,54.223 L24.173,53.373 C23.204,52.727 22.252,52.013 21.708,51.554 C20.603,50.602 20.484,50.143 20.484,49.14 L20.484,47.797 L23.816,47.797 L23.816,46.76 L15.775,46.76 L15.775,47.797 L19.277,47.797 L19.277,49.191 C19.277,50.109 19.09,50.704 18.257,51.52 C17.424,52.336 16.336,53.169 15.333,53.883 L16.064,54.733 Z M23.221,61.72 C25.771,61.72 27.93,60.615 27.93,58.83 L27.93,58.167 C27.93,56.382 25.771,55.294 23.221,55.294 C20.671,55.294 18.512,56.331 18.512,58.167 L18.512,58.83 C18.512,60.615 20.671,61.72 23.221,61.72 Z M23.221,60.7 C21.402,60.7 19.668,60.003 19.668,58.796 L19.668,58.218 C19.668,57.011 21.402,56.314 23.221,56.314 C25.04,56.314 26.774,57.011 26.774,58.218 L26.774,58.796 C26.774,60.003 25.04,60.7 23.221,60.7 Z M45.899,61.312 L45.899,52.625 L48.466,52.625 L48.466,51.554 L45.899,51.554 L45.899,45.774 L44.692,45.774 L44.692,61.312 L45.899,61.312 Z M37.824,57.13 C39.745,57.13 41.836,57.062 43.604,56.858 L43.519,55.838 C42.788,55.923 42.023,55.974 41.207,56.025 L41.207,48.307 L42.924,48.307 L42.924,47.27 L34.016,47.27 L34.016,48.307 L35.665,48.307 L35.665,56.076 L33.846,56.076 L33.846,57.13 L37.824,57.13 Z M38.8427407,56.0753704 L36.838,56.076 L36.838,48.307 L40.034,48.307 L40.034,56.059 C39.6486667,56.0703333 39.2482222,56.0741111 38.8427407,56.0753704 L38.8427407,56.0753704 Z M50.03,52.489 C51.424,51.945 52.648,51.367 53.566,50.908 C54.688,50.347 55.368,49.854 55.555,49.446 L55.572,49.446 C55.759,49.837 56.439,50.33 57.561,50.891 C58.479,51.35 59.72,51.928 61.114,52.472 L61.59,51.52 C60.332,51.044 59.023,50.466 57.935,49.905 C56.626,49.242 56.167,48.749 56.167,47.508 L56.167,46.08 L54.96,46.08 L54.96,47.508 C54.96,48.749 54.484,49.242 53.175,49.905 C52.087,50.466 50.778,51.044 49.52,51.52 L50.03,52.489 Z M62.695,55.158 L62.695,54.138 L56.15,54.138 L56.15,51.741 L54.96,51.741 L54.96,54.138 L48.415,54.138 L48.415,55.158 L62.695,55.158 Z M60.893,61.125 L60.893,60.071 L51.73,60.071 L51.73,56.535 L50.523,56.535 L50.523,61.125 L60.893,61.125 Z" id="액정파손" fill="#6E6E6E" fill-rule="nonzero"></path>
            <path d="M111.256,53.764 L111.256,45.774 L110.083,45.774 L110.083,49.174 L107.839,49.174 L107.839,45.978 L106.666,45.978 L106.666,53.73 L107.839,53.73 L107.839,50.245 L110.083,50.245 L110.083,53.764 L111.256,53.764 Z M101.685,53.356 C103.946,53.356 105.102,51.707 105.102,50.313 L105.102,49.463 C105.102,48.069 103.946,46.42 101.685,46.42 C99.424,46.42 98.268,48.069 98.268,49.463 L98.268,50.313 C98.268,51.707 99.424,53.356 101.685,53.356 Z M101.685,52.268 C100.24,52.268 99.441,51.231 99.441,50.194 L99.441,49.582 C99.441,48.545 100.24,47.508 101.685,47.508 C103.13,47.508 103.929,48.545 103.929,49.582 L103.929,50.194 C103.929,51.231 103.13,52.268 101.685,52.268 Z M111.256,61.295 L111.256,54.682 L110.083,54.682 L110.083,56.807 L102.773,56.807 L102.773,54.682 L101.6,54.682 L101.6,61.295 L111.256,61.295 Z M110.083,60.224 L102.773,60.224 L102.773,57.861 L110.083,57.861 L110.083,60.224 Z M129.038,61.312 L129.038,52.608 L131.622,52.608 L131.622,51.537 L129.038,51.537 L129.038,45.774 L127.831,45.774 L127.831,61.312 L129.038,61.312 Z M120.759,57.164 C122.663,57.164 124.703,57.045 126.505,56.722 L126.352,55.651 C124.448,55.974 122.799,56.076 121.065,56.076 L119.059,56.076 L119.059,48.273 L124.924,48.273 L124.924,47.185 L117.852,47.185 L117.852,57.164 L120.759,57.164 Z M138.745,52.353 C141.465,52.353 143.624,51.265 143.624,49.565 L143.624,48.919 C143.624,47.219 141.465,46.131 138.745,46.131 C136.025,46.131 133.866,47.219 133.866,48.919 L133.866,49.565 C133.866,51.265 136.025,52.353 138.745,52.353 Z M138.745,51.333 C136.79,51.333 135.022,50.568 135.022,49.48 L135.022,49.004 C135.022,47.916 136.79,47.151 138.745,47.151 C140.7,47.151 142.468,47.916 142.468,49.004 L142.468,49.48 C142.468,50.568 140.7,51.333 138.745,51.333 Z M139.527,58.014 L139.527,54.801 L145.885,54.801 L145.885,53.781 L131.605,53.781 L131.605,54.801 L138.337,54.801 L138.337,58.014 L139.527,58.014 Z M144.1,61.125 L144.1,60.071 L134.937,60.071 L134.937,56.535 L133.73,56.535 L133.73,61.125 L144.1,61.125 Z" id="앱다운" fill="#6E6E6E" fill-rule="nonzero"></path>
            <path d="M210.817,56.858 L210.817,45.774 L209.627,45.774 L209.627,56.858 L210.817,56.858 Z M199.019,54.988 C200.005,54.206 200.974,53.39 201.569,52.829 C202.317,52.115 202.844,51.588 202.895,51.299 L202.912,51.299 C202.997,51.571 203.456,52.03 204.238,52.693 C204.816,53.186 205.564,53.798 206.499,54.512 L207.213,53.679 C206.448,53.118 205.53,52.387 204.697,51.656 C203.558,50.636 203.456,50.228 203.456,48.97 L203.456,46.505 L202.232,46.505 L202.232,49.004 C202.232,50.296 202.113,50.721 201.042,51.792 C200.277,52.557 199.189,53.441 198.271,54.138 L199.019,54.988 Z M211.208,61.125 L211.208,60.071 L202.538,60.071 L202.538,55.94 L201.331,55.94 L201.331,61.125 L211.208,61.125 Z M213.843,55.056 C214.625,54.495 215.781,53.577 216.376,53.05 C217.09,52.421 217.634,51.86 217.702,51.605 L217.719,51.605 C217.787,51.826 218.45,52.404 219.249,53.05 C219.759,53.458 220.575,54.07 221.255,54.546 L221.952,53.696 C220.983,53.05 220.031,52.336 219.487,51.877 C218.382,50.925 218.263,50.466 218.263,49.497 L218.263,48.613 L221.663,48.613 L221.663,47.576 L218.263,47.576 L218.263,45.638 L217.056,45.638 L217.056,47.576 L213.469,47.576 L213.469,48.613 L217.056,48.613 L217.056,49.548 C217.056,50.432 216.869,51.027 216.036,51.843 C215.203,52.659 214.115,53.492 213.112,54.206 L213.843,55.056 Z M225.59,55.073 L225.59,45.774 L224.4,45.774 L224.4,50.262 L221.221,50.262 L221.221,51.316 L224.4,51.316 L224.4,55.073 L225.59,55.073 Z M220.966,61.72 C223.601,61.72 225.675,60.632 225.675,58.898 L225.675,58.252 C225.675,56.518 223.601,55.43 220.966,55.43 C218.331,55.43 216.257,56.484 216.257,58.235 L216.257,58.898 C216.257,60.632 218.331,61.72 220.966,61.72 Z M220.966,60.7 C219.062,60.7 217.413,59.986 217.413,58.83 L217.413,58.32 C217.413,57.164 219.062,56.45 220.966,56.45 C222.87,56.45 224.519,57.164 224.519,58.32 L224.519,58.83 C224.519,59.986 222.87,60.7 220.966,60.7 Z" id="신청" fill="#6E6E6E" fill-rule="nonzero"></path>
            <path d="M301.885,56.892 L301.885,45.774 L300.695,45.774 L300.695,56.892 L301.885,56.892 Z M293.589,54.308 C295.918,54.308 297.414,52.574 297.414,50.891 L297.414,49.871 C297.414,48.188 295.918,46.454 293.589,46.454 C291.26,46.454 289.764,48.188 289.764,49.871 L289.764,50.891 C289.764,52.574 291.26,54.308 293.589,54.308 Z M293.589,53.237 C292.008,53.237 290.92,52.064 290.92,50.789 L290.92,49.973 C290.92,48.698 292.008,47.525 293.589,47.525 C295.17,47.525 296.258,48.698 296.258,49.973 L296.258,50.789 C296.258,52.064 295.17,53.237 293.589,53.237 Z M302.276,61.125 L302.276,60.071 L293.589,60.071 L293.589,56.042 L292.382,56.042 L292.382,61.125 L302.276,61.125 Z M316.998,61.312 L316.998,45.774 L315.808,45.774 L315.808,61.312 L316.998,61.312 Z M313.938,60.547 L313.938,46.097 L312.748,46.097 L312.748,49.735 L310.045,49.735 L310.045,47.321 L304.197,47.321 L304.197,48.392 L308.872,48.392 L308.872,50.092 C308.872,53.084 308.481,53.866 303.908,56.96 L304.571,57.895 C309.059,54.852 309.926,53.713 310.028,50.789 L312.748,50.789 L312.748,53.781 L310.045,53.781 L310.045,54.835 L312.748,54.835 L312.748,60.547 L313.938,60.547 Z" id="인계" fill="#6E6E6E" fill-rule="nonzero"></path>
            <path d="M393.256,53.611 L393.256,50.194 L395.636,50.194 L395.636,49.14 L393.256,49.14 L393.256,45.774 L392.066,45.774 L392.066,53.611 L393.256,53.611 Z M390.655,52.387 L390.519,51.316 C387.935,51.656 386.49,51.724 383.192,51.724 L383.192,46.624 L381.985,46.624 L381.985,52.812 L382.843322,52.8110915 C386.80488,52.8020229 388.14229,52.7209677 390.655,52.387 Z M393.256,61.278 L393.256,54.529 L392.083,54.529 L392.083,56.722 L385.096,56.722 L385.096,54.529 L383.923,54.529 L383.923,61.278 L393.256,61.278 Z M392.083,60.207 L385.096,60.207 L385.096,57.776 L392.083,57.776 L392.083,60.207 Z M407.842,53.033 L407.842,46.369 L406.669,46.369 L406.669,48.698 L398.951,48.698 L398.951,46.369 L397.778,46.369 L397.778,53.033 L407.842,53.033 Z M406.669,52.03 L398.951,52.03 L398.951,49.735 L406.669,49.735 L406.669,52.03 Z M403.422,61.312 L403.422,56.144 L409.95,56.144 L409.95,55.107 L395.67,55.107 L395.67,56.144 L402.215,56.144 L402.215,61.312 L403.422,61.312 Z" id="납부" fill="#FF0000" fill-rule="nonzero"></path>
            <path d="M472.563,53.033 C473.94,52.489 475.266,51.877 476.184,51.418 C477.306,50.857 477.969,50.364 478.173,49.973 L478.19,49.973 C478.377,50.364 479.057,50.84 480.179,51.401 C481.097,51.86 482.389,52.455 483.766,52.999 L484.276,52.064 C483.018,51.588 481.641,50.976 480.553,50.415 C479.244,49.752 478.785,49.191 478.785,47.678 L478.785,46.318 L477.578,46.318 L477.578,47.678 C477.578,49.191 477.102,49.752 475.793,50.415 C474.705,50.976 473.294,51.605 472.036,52.081 L472.563,53.033 Z M478.802,61.312 L478.802,55.736 L485.33,55.736 L485.33,54.699 L471.05,54.699 L471.05,55.736 L477.595,55.736 L477.595,61.312 L478.802,61.312 Z M498.607,55.209 L498.607,45.774 L497.434,45.774 L497.434,47.95 L494.187,47.95 L494.187,48.987 L497.434,48.987 L497.434,50.721 L494.187,50.721 L494.187,51.758 L497.434,51.758 L497.434,55.209 L498.607,55.209 Z M495.105,54.104 L494.986,53.067 C492.912,53.305 490.77,53.339 487.846,53.339 L487.846,50.976 L492.997,50.976 L492.997,46.556 L486.673,46.556 L486.673,47.61 L491.824,47.61 L491.824,49.956 L486.673,49.956 L486.673,54.393 L487.531359,54.3922277 C491.255622,54.3850761 493.158207,54.3255862 495.105,54.104 Z M493.966,61.737 C496.72,61.737 498.692,60.683 498.692,58.983 L498.692,58.371 C498.692,56.688 496.72,55.617 493.966,55.617 C491.212,55.617 489.24,56.671 489.24,58.354 L489.24,58.983 C489.24,60.683 491.212,61.737 493.966,61.737 Z M493.966,60.717 C491.909,60.717 490.396,59.952 490.396,58.932 L490.396,58.422 C490.396,57.419 491.909,56.637 493.966,56.637 C496.023,56.637 497.536,57.402 497.536,58.422 L497.536,58.932 C497.536,59.952 496.023,60.717 493.966,60.717 Z" id="수령" fill="#6E6E6E" fill-rule="nonzero"></path>
            <path d="M575.885,53.713 L575.885,45.774 L574.695,45.774 L574.695,53.713 L575.885,53.713 Z M567.572,53.356 C569.833,53.356 571.363,51.826 571.363,50.262 L571.363,49.446 C571.363,47.882 569.833,46.352 567.572,46.352 C565.311,46.352 563.781,47.882 563.781,49.446 L563.781,50.262 C563.781,51.826 565.311,53.356 567.572,53.356 Z M567.572,52.285 C566.059,52.285 564.937,51.265 564.937,50.143 L564.937,49.565 C564.937,48.443 566.059,47.423 567.572,47.423 C569.085,47.423 570.207,48.443 570.207,49.565 L570.207,50.143 C570.207,51.265 569.085,52.285 567.572,52.285 Z M575.885,61.295 L575.885,54.631 L574.712,54.631 L574.712,56.773 L567.572,56.773 L567.572,54.631 L566.399,54.631 L566.399,61.295 L575.885,61.295 Z M574.712,60.224 L567.572,60.224 L567.572,57.827 L574.712,57.827 L574.712,60.224 Z M591.95,53.322 L591.95,52.285 L589.366,52.285 C589.621,51.061 589.757,49.82 589.757,48.681 L589.757,46.488 L579.54,46.488 L579.54,47.542 L588.567,47.542 L588.567,48.613 C588.567,49.752 588.448,50.976 588.142,52.285 L577.67,52.285 L577.67,53.322 L591.95,53.322 Z M589.859,61.278 L589.859,55.498 L579.761,55.498 L579.761,61.278 L589.859,61.278 Z M588.703,60.207 L580.917,60.207 L580.917,56.569 L588.703,56.569 L588.703,60.207 Z" id="입금" fill="#6E6E6E" fill-rule="nonzero"></path>
        </g>
    </g>
</svg>