<?xml version="1.0" encoding="UTF-8"?>
<svg width="590px" height="517px" viewBox="0 0 590 517" version="1.1" xmlns="http://www.w3.org/2000/svg" xmlns:xlink="http://www.w3.org/1999/xlink">
    <title>img-01-6</title>
    <g id="img-01-6" stroke="none" stroke-width="1" fill="none" fill-rule="evenodd">
        <rect id="Rectangle-Copy" fill="#FFFFFF" x="0" y="0" width="590" height="517"></rect>
        <g id="Group-186" transform="translate(85.000000, 123.000000)">
            <polygon id="Fill-1" fill="#EAC375" points="124.081062 285 124 205.882595 129.200723 195.243947 231.519246 195 242.632944 205.461398 243 284.893102"></polygon>
            <g id="Group-60" transform="translate(16.000000, 0.000000)">
                <path d="M233.645448,51.9919282 C233.645448,80.3401329 210.653095,103.321263 182.289005,103.321263 C153.925828,103.321263 130.933475,80.3401329 130.933475,51.9919282 C130.933475,23.6437236 153.925828,0.662593948 182.289005,0.662593948 C210.653095,0.662593948 233.645448,23.6437236 233.645448,51.9919282" id="Fill-2" fill="#F2F2F2"></path>
                <path d="M233.645448,51.9919282 C233.645448,80.3401329 210.653095,103.321263 182.289005,103.321263 C153.925828,103.321263 130.933475,80.3401329 130.933475,51.9919282 C130.933475,23.6437236 153.925828,0.662593948 182.289005,0.662593948 C210.653095,0.662593948 233.645448,23.6437236 233.645448,51.9919282 Z" id="Stroke-4" stroke="#B3B3B3" stroke-width="1.586"></path>
                <path d="M181.978875,53.7221818 L181.650739,53.7221818 L181.649825,53.3933058 C181.649825,52.3317669 181.648911,51.2108476 181.647997,50.074398 C181.647997,42.6591559 181.684558,35.9464297 181.74397,31.0881991 C181.786929,28.7458706 181.822576,26.8073288 181.849083,25.3346948 C181.8893,23.9762539 181.93226,23.2253202 181.978875,23.2253202 C182.024576,23.2253202 182.06845,23.9762539 182.107753,25.3346948 C182.135174,26.8073288 182.169907,28.7458706 182.212866,31.0881991 C182.272278,35.9464297 182.309753,42.6591559 182.309753,50.074398 C182.308839,51.2108476 182.307925,52.3317669 182.307011,53.3933058 L181.978875,53.0644297" id="Fill-6" fill="#B3B3B3"></path>
                <path d="M182.135905,9.03833689 C182.31871,9.03833689 182.466783,10.9631755 182.466783,13.3383916 C182.466783,15.7136078 182.31871,17.6384464 182.135905,17.6384464 C181.9531,17.6384464 181.805027,15.7136078 181.805027,13.3383916 C181.805027,10.9631755 181.9531,9.03833689 182.135905,9.03833689" id="Fill-8" fill="#B3B3B3"></path>
                <path d="M145.7632,52.1676942 C145.7632,52.3504032 143.28253,52.4983974 140.222367,52.4983974 C137.162205,52.4983974 134.682449,52.3504032 134.682449,52.1676942 C134.682449,51.9840718 137.162205,51.8360775 140.222367,51.8360775 C143.28253,51.8360775 145.7632,51.9840718 145.7632,52.1676942" id="Fill-10" fill="#E0E0E0"></path>
                <path d="M145.7632,52.1676942 C145.7632,52.3504032 143.28253,52.4983974 140.222367,52.4983974 C137.162205,52.4983974 134.682449,52.3504032 134.682449,52.1676942 C134.682449,51.9840718 137.162205,51.8360775 140.222367,51.8360775 C143.28253,51.8360775 145.7632,51.9840718 145.7632,52.1676942 Z" id="Stroke-12" stroke="#CCCCCC" stroke-width="0.311"></path>
                <path d="M229.141396,52.1676942 C229.141396,52.3504032 226.660727,52.4983974 223.600564,52.4983974 C220.540401,52.4983974 218.059731,52.3504032 218.059731,52.1676942 C218.059731,51.9840718 220.540401,51.8360775 223.600564,51.8360775 C226.660727,51.8360775 229.141396,51.9840718 229.141396,52.1676942" id="Fill-14" fill="#E0E0E0"></path>
                <path d="M229.141396,52.1676942 C229.141396,52.3504032 226.660727,52.4983974 223.600564,52.4983974 C220.540401,52.4983974 218.059731,52.3504032 218.059731,52.1676942 C218.059731,51.9840718 220.540401,51.8360775 223.600564,51.8360775 C226.660727,51.8360775 229.141396,51.9840718 229.141396,52.1676942 Z" id="Stroke-16" stroke="#CCCCCC" stroke-width="0.311"></path>
                <path d="M182.135905,97.7722095 C181.9531,97.7722095 181.805027,95.1466821 181.805027,91.9090798 C181.805027,88.6696504 181.9531,86.0450366 182.135905,86.0450366 C182.31871,86.0450366 182.466783,88.6696504 182.466783,91.9090798 C182.466783,95.1466821 182.31871,97.7722095 182.135905,97.7722095" id="Fill-18" fill="#E0E0E0"></path>
                <path d="M182.135905,97.7722095 C181.9531,97.7722095 181.805027,95.1466821 181.805027,91.9090798 C181.805027,88.6696504 181.9531,86.0450366 182.135905,86.0450366 C182.31871,86.0450366 182.466783,88.6696504 182.466783,91.9090798 C182.466783,95.1466821 182.31871,97.7722095 182.135905,97.7722095 Z" id="Stroke-20" stroke="#CCCCCC" stroke-width="0.311"></path>
                <path d="M182.268896,53.606253 L181.979149,53.4527775 L182.095231,53.2335268 C182.470896,52.5255297 182.865756,51.7791637 183.267928,51.0209216 C185.8921,46.0822991 188.300561,41.6296824 190.07286,38.4213135 C190.939357,36.8810772 191.656869,35.6066824 192.201629,34.6392386 C192.718054,33.7531003 193.022425,33.2734893 193.062643,33.2945009 C193.103774,33.3164259 192.875267,33.8362329 192.430136,34.7598265 C191.932905,35.7537631 191.277548,37.0610455 190.486,38.6414778 C188.819729,41.9046594 186.477077,46.3929043 183.852905,51.3324403 C183.449819,52.0888553 183.052217,52.8343078 182.675638,53.5413914 L182.501973,53.1686651" id="Fill-22" fill="#B3B3B3"></path>
                <path d="M11.7127095,123.036561 C13.2181122,120.529795 12.2419312,119.406135 12.6843204,117.182567 C15.9839584,100.625484 30.2510081,74.3300138 40.6316145,74.3300138 C49.2737412,74.3300138 58.794248,76.3809216 60.4641756,84.1460513 C61.4650353,88.7895988 61.2676054,93.3226075 61.6990262,98.1305931 C61.95861,100.989074 66.3633068,103.258319 66.8660217,104.751051 C67.718809,107.290705 65.7600489,107.917397 64.8332253,109.595579 C62.8251077,113.230573 61.4275602,121.996948 62.0317321,125.483948 C62.7071982,129.391178 61.6862299,133.553288 57.4862751,134.02285 C49.4492344,134.922691 50.9985104,134.214694 49.1832525,135.807916 C47.6833339,137.125247 45.0619041,141.652775 44.9302842,144.663818 L11.7127095,123.036561 Z" id="Fill-24" fill="#FEEDE5"></path>
                <path d="M373.978961,122.187239 C372.464418,117.681637 371.426083,114.897152 371.158273,112.646178 C369.172092,95.8808066 357.022843,68.5448095 346.673314,67.7281006 C338.05678,67.0484233 328.405567,68.3438297 326.128726,75.9536568 C324.765911,80.5040228 324.605957,85.037945 323.7943,89.7965991 C323.313522,92.6267605 318.741558,94.5424637 318.123676,95.9913455 C317.071631,98.4551755 318.977377,99.2344291 319.768925,100.980213 C321.482726,104.761374 322.188355,113.610882 321.311803,117.039415 C320.331966,120.88087 320.75516,124.59991 324.904843,125.399262 C332.846825,126.927622 336.457233,126.566772 338.434273,128.543683 C339.847359,129.955109 343.335287,136.900789 343.380988,141.438366 C343.385558,141.877781 338.58783,151.650882 336.684825,155.796547 C335.82564,157.667487 340.227595,156.984155 344.547287,154.097354 C348.863323,151.21238 356.496364,145.382138 361.923857,140.813501 C365.579966,137.735769 371.531196,134.296273 375.36554,132.174109 C377.979658,130.726141 379.854328,130.304997 378.380916,129.403328 C376.521785,128.265052 374.533776,123.840755 373.978961,122.187239" id="Fill-26" fill="#FEEDE5"></path>
                <path d="M321.342971,112.163644 C321.342971,112.163644 321.564166,108.554229 321.279903,107.920229 C320.993813,107.287143 322.337433,107.783197 323.415071,107.688189 C324.491795,107.594094 326.930419,106.653143 327.303342,107.698238 C327.679007,108.741506 326.322591,109.970223 324.637125,111.496756 C322.951659,113.02329 321.342971,112.163644 321.342971,112.163644" id="Fill-28" fill="#FCD5CB"></path>
                <path d="M341.941578,79.029379 C341.806302,77.4078372 341.219497,75.5167997 342.39128,75.3368314 C343.563062,75.1568631 345.411225,74.9759813 346.536393,75.2463905 C347.663388,75.5167997 350.456655,77.7230101 352.080881,78.5790014 C353.702366,79.4349928 365.867153,85.2899006 368.526972,86.5058285 C371.184963,87.7217565 380.287759,91.1438948 381.730094,91.5942723 C383.171515,92.0455634 383.215388,91.9551225 382.270284,93.621428 C381.324266,95.2877334 379.475189,99.0707219 378.033768,101.457814 C376.592348,103.844906 375.286203,106.141558 374.564121,108.347768 C373.844782,110.554892 374.204909,112.986748 373.033126,113.392362 C371.860429,113.797976 372.536809,114.247439 370.735262,113.977944 C368.9328,113.707535 365.68709,112.53637 363.839841,111.77082 C361.993506,111.005269 358.478157,108.753382 357.532139,107.582218 C356.586121,106.411967 356.586121,105.69118 357.215886,104.790425 C357.847479,103.88967 359.200239,101.682546 359.244112,100.331414 C359.289814,98.980281 359.696556,97.4939438 359.020176,96.1428112 C358.343795,94.7916787 357.712203,94.1165692 356.449931,93.7109553 C355.18766,93.3053415 354.648384,93.3510187 353.882429,93.8918372 C353.116474,94.4317421 352.034266,96.3236931 351.22261,97.3139755 C350.412782,98.3051715 349.196212,98.6203444 348.205406,98.5755807 C347.213687,98.5299035 347.798664,98.3946988 348.475044,97.1340072 C349.151424,95.8733156 349.2867,94.1165692 349.01432,92.6759092 C348.744682,91.2343357 347.720058,89.3040159 346.820655,87.6377104 C345.919424,85.9723184 344.560266,84.7865375 343.435099,83.6153732 C342.306275,82.4442089 342.075026,80.6509207 341.941578,79.029379" id="Fill-30" fill="#4D4D4D"></path>
                <path d="M12.4937457,118.793512 C12.4937457,118.793512 10.1419538,118.919581 10.2863701,115.813529 C10.4335285,112.707477 10.1894833,111.202869 9.26814389,109.163837 C8.34406244,107.125719 6.88710317,103.679829 5.77199005,101.786964 C4.65504887,99.8940997 2.85715747,97.6613965 2.37272308,95.768532 C1.88554661,93.8756674 1.2557819,91.0117049 0.623275113,89.653264 C-0.00923167421,88.2939095 0.0903972851,85.9643706 0.477944796,84.5565983 C0.866406335,83.1488259 1.98426154,77.956238 3.10120271,76.1117914 C4.21540181,74.2673447 6.35331131,71.646385 7.81118462,70.9182899 C9.26814389,70.1901948 12.1802344,69.365264 13.346533,68.8317539 C14.5110036,68.2973303 15.3601348,67.0951055 16.8920443,65.4342813 C18.4212118,63.7734571 20.211791,62.0870536 22.3241077,61.4877683 C24.4345964,60.888483 30.3163611,60.3449239 32.5155104,60.611679 C34.7146597,60.8793476 38.6870217,62.0523389 40.8313294,62.3072179 C42.9756371,62.5630104 44.4124878,63.0819037 46.3593656,62.5876761 C48.3062434,62.0925349 50.6452389,60.8903101 52.3590398,61.5453216 C54.0755828,62.2012467 56.033429,62.9393908 57.449257,64.2000824 C58.864171,65.4616876 59.8449222,67.0814023 60.7333566,67.2494945 C61.6199629,67.4175867 62.1473566,66.7817597 62.9919176,68.3384398 C63.8373928,69.8960334 64.9808407,72.208215 64.3775828,74.8145579 C63.7715828,77.4209009 63.4882344,80.2720738 62.2542977,81.5464686 C61.0194471,82.8199499 60.3284425,83.7554196 59.8275557,82.7048432 C59.3266688,81.6542669 58.3623701,80.1478317 57.8413747,79.7915493 C57.3194652,79.4352669 54.8762706,80.2958259 53.6076009,80.3871804 C52.3398452,80.4776213 49.9185873,80.8284225 49.0237548,81.2833677 C48.1280081,81.7392265 45.9526235,83.313264 45.5257729,84.408604 C45.0970941,85.5039441 44.3887231,87.6864023 43.9326235,88.7397193 C43.4737819,89.7930363 42.3934018,91.3460622 40.7189041,93.4417337 C39.0444063,95.5364916 37.6505149,96.4098403 37.416524,98.5676329 C37.1834471,100.727252 37.0280624,101.848172 37.2711937,102.79369 C37.5152389,103.739209 37.5591122,107.901319 35.497981,105.365319 C33.4350217,102.830232 33.2293656,101.881973 32.164524,100.884382 C31.0996824,99.8849643 29.0476914,98.4945493 27.5943882,99.8630392 C26.1429131,101.230616 25.3833566,102.094829 25.3742163,103.91735 C25.3568498,106.791362 26.0990398,109.223218 27.1099538,110.487564 C28.1226959,111.75191 28.0477457,112.131031 26.8211213,113.149633 C25.5935828,114.169149 23.1321077,116.047397 21.3881439,116.687791 C19.6441801,117.328186 17.2869041,118.281927 15.8546235,118.550509 C14.4205149,118.819091 12.4937457,118.793512 12.4937457,118.793512" id="Fill-32" fill="#4D4D4D"></path>
                <path d="M336.933167,156.388981 C338.072044,156.476681 340.7017,156.345131 343.111076,154.680652 C345.521366,153.018001 351.128008,149.470707 353.669918,147.280941 C356.209085,145.092088 362.869601,140.36358 364.445384,139.006053 C366.022995,137.648526 370.228433,134.977321 373.252035,133.226056 C376.273809,131.474791 377.149447,130.686402 378.420859,130.423301 C379.690443,130.161114 379.769963,130.939454 381.677538,132.890785 C383.58237,134.84303 386.185519,136.607998 387.719257,138.420471 C389.252995,140.23203 392.044433,143.020168 392.927384,144.460828 C393.811248,145.901488 395.623764,149.014848 396.879637,152.267067 C398.134596,155.519286 399.622633,158.679237 400.505583,161.885779 C401.389447,165.091407 402.920443,172.239895 403.329927,176.703474 C403.740325,181.167053 403.807963,192.771811 403.349121,196.587687 C402.888452,200.40539 398.406062,212.829598 397.795492,217.037384 C397.187664,221.245171 395.897058,226.680762 394.83313,231.446724 C393.766461,236.211773 394.096424,241.35503 393.891682,243.99152 C393.690596,246.62801 393.302135,249.32388 393.635755,250.551684 C393.971203,251.782229 393.460262,251.119909 391.783936,252.218903 C390.106696,253.317897 384.816307,256.91909 382.456289,258.600013 C380.095357,260.280021 375.984976,262.841601 373.35075,263.901312 C370.719266,264.962851 366.749646,265.750327 364.559637,265.105364 C362.371456,264.458575 361.697818,264.824906 360.41818,262.423197 C359.136714,260.018748 357.78304,258.178869 357.385438,256.941016 C356.986922,255.702249 357.847936,253.892517 358.624859,252.614468 C359.401782,251.335505 362.694108,245.796684 364.135529,242.969263 C365.577863,240.141843 367.736795,236.526946 369.008207,234.155384 C370.277791,231.784736 371.336234,230.18786 371.651574,229.416828 C371.967827,228.64671 372.005302,228.219171 369.672705,226.8452 C367.34285,225.472142 362.808361,223.434024 360.244515,222.198912 C357.678841,220.963799 352.392108,218.679024 349.695728,216.960647 C346.998433,215.241356 343.123872,212.905422 342.310388,212.533609 C341.49599,212.16271 341.57094,212.377393 341.311357,213.511102 C341.052687,214.645724 339.953112,219.68575 339.401954,221.19858 C338.85171,222.713237 338.348995,223.654188 337.78961,221.661748 C337.229311,219.668393 336.381094,215.055906 335.809827,212.441341 C335.237646,209.828603 334.763266,205.551387 334.332759,203.347918 C333.901338,201.144448 334.288886,200.343269 332.193022,198.222018 C330.095329,196.099854 321.292334,192.808353 319.942316,191.973373 C318.593212,191.138393 317.313574,191.173108 317.864732,189.935255 C318.414976,188.697402 322.486053,181.311393 324.304053,177.91392 C326.118397,174.515534 330.949031,166.596016 332.711275,163.34471 C334.473519,160.092491 335.794289,156.301281 336.933167,156.388981" id="Fill-34" fill="#FC3500"></path>
                <path d="M317.877894,190.235628 C318.472012,190.425646 322.141831,190.804767 323.713043,189.745968 C325.28517,188.68717 328.734709,185.062225 330.075586,183.128251 C331.418292,181.19519 335.182256,175.089058 336.661152,172.820726 C338.140962,170.552395 342.404899,165.272107 344.381939,162.631963 C346.357152,159.991818 349.372528,156.303839 352.243487,153.305585 C355.113532,150.306418 360.617804,145.648254 363.102129,144.100709 C365.585541,142.552251 371.070618,139.575009 373.678338,138.709882 C376.286971,137.843841 381.333315,136.975974 383.641233,137.263741 C385.95098,137.551507 386.483858,137.229939 388.158356,138.845086 C389.832853,140.45932 392.595043,143.738032 393.407614,145.184173 C394.21927,146.630314 394.254917,147.299942 391.463478,146.056608 C388.671125,144.81236 391.715749,143.079366 383.850546,144.118066 C375.986256,145.15768 376.31622,143.78645 371.39327,145.958859 C366.468491,148.129441 364.395478,149.29421 362.362681,151.083844 C360.329885,152.874392 352.190473,161.363049 350.320374,163.574741 C348.448446,165.787346 341.393071,174.647816 339.593351,178.506628 C337.793632,182.366354 333.887994,190.348908 333.75546,193.02468 C333.624754,195.699539 333.974826,201.182634 334.3706,202.848939 C334.76546,204.515245 335.36689,208.520225 335.807451,211.490159 C336.248926,214.461006 337.07612,219.755911 337.642817,221.376539 C338.210428,222.997167 338.66927,223.328784 337.984663,225.472873 C337.301885,227.616049 335.362319,232.104294 333.832238,234.093994 C332.303071,236.085522 331.429261,237.930882 329.875414,238.690037 C328.322482,239.449193 327.826166,240.477844 325.628844,240.196473 C323.432437,239.917841 317.412654,240.76287 314.545351,240.997651 C311.678048,241.231519 306.277062,242.190741 304.248835,242.738867 C302.221523,243.286994 301.949143,241.767769 301.938919,240.595692 C301.929948,239.427268 302.290989,231.016262 302.969197,226.634902 C303.648319,222.252628 305.758808,214.485671 307.472609,210.741052 C309.18641,206.996432 311.976021,200.304718 313.451261,197.436187 C314.9265,194.568571 317.285605,190.045611 317.877894,190.235628" id="Fill-36" fill="#FC3500"></path>
                <path d="M303.136556,271.90369 C303.136556,271.90369 301.515071,269.016888 302.579913,269.118292 C303.643841,269.218782 306.634538,269.675554 308.562221,269.523906 C310.487162,269.37043 320.474737,269.675554 323.110791,269.423416 C325.747759,269.168537 337.558818,269.423416 339.587044,269.218782 C341.615271,269.016888 343.390311,269.168537 344.657153,268.863413 C345.924909,268.56103 347.293207,268.054926 348.358963,266.889243 C349.423805,265.722646 352.058945,263.289877 353.224329,261.111986 C354.391542,258.934096 355.912483,256.80371 356.571497,255.740344 C357.229596,254.676978 357.635424,254.830453 357.991895,255.740344 C358.343795,256.652975 359.499126,259.306822 360.504556,260.370188 C361.509071,261.434468 363.462348,263.34743 365.194429,263.452488 C366.927424,263.555718 372.083452,263.49177 374.044954,262.253004 C376.00737,261.013324 380.180818,258.892073 382.5189,257.235816 C384.857895,255.580473 388.716004,252.928453 390.719551,251.693341 C392.721271,250.456401 392.829126,248.910684 393.779714,249.720084 C394.729388,250.529485 394.576746,251.692427 394.223017,253.997301 C393.867461,256.300347 393.037524,260.010252 392.594221,261.959756 C392.150918,263.908347 391.292646,267.180664 390.948058,270.975528 C390.600728,274.770393 389.038655,288.546646 389.038655,288.546646 C389.038655,288.546646 389.356737,294.816303 360.203841,304.825099 C338.96185,312.118839 308.188384,316.275468 308.188384,316.275468 C308.188384,316.275468 305.426194,303.724278 305.042302,300.789059 C304.660239,297.85658 304.245271,291.160298 304.212366,288.672716 C304.182203,286.183306 304.084402,281.495909 303.988429,278.784508 C303.89337,276.075848 303.136556,271.90369 303.136556,271.90369" id="Fill-38" fill="#FC3500"></path>
                <path d="M346.318032,75.3399375 C346.318032,75.3399375 342.330131,75.4239836 340.379597,75.2842112 C338.428149,75.1453524 330.705534,74.6154965 328.390303,74.3094591 C326.075986,74.0025081 322.536873,73.8070095 320.611932,73.2780671 C318.687905,72.7482112 315.093036,70.9932919 313.725652,70.3245772 C312.361009,69.6558625 309.013842,67.9000297 307.648285,66.8969576 C306.2809,65.8938856 304.302032,64.1663726 304.135679,63.1907069 C303.968412,62.2150412 303.855986,60.9899778 305.528656,61.2128827 C307.203154,61.4348741 310.213959,61.4631939 311.634357,61.8258712 C313.05567,62.1876349 318.661398,62.5777184 320.611932,62.1045023 C322.56338,61.6303726 326.243253,61.3517415 328.027434,60.3212631 C329.811615,59.2898712 333.027163,57.3001709 335.717145,55.5836205 C338.410783,53.8652429 342.560466,51.6106147 345.51186,50.7016378 C348.464167,49.7917473 353.866982,48.8590182 357.283615,49.0764418 C360.702991,49.2938654 367.008864,50.6386032 369.35243,51.8125081 C371.69691,52.986413 377.694756,56.6479 380.508131,59.9741161 C383.324249,63.2994187 385.779326,67.6844331 387.218919,70.8809259 C388.657597,74.0774187 387.94557,77.9161334 387.761851,80.5370931 C387.577217,83.1589663 388.665824,82.6245427 387.271018,84.8133957 C385.876213,87.0022487 385.19252,88.5845081 384.498774,89.9648741 C383.804113,91.3452401 383.41291,91.9965974 382.631416,91.917119 C381.850837,91.8385542 378.019235,90.3376003 374.582493,89.0047386 C371.144837,87.6727905 364.37281,85.0271651 362.248611,83.9939461 C360.123498,82.9616406 353.667724,79.4810354 351.775688,78.3336233 C349.883652,77.1871248 346.318032,75.3399375 346.318032,75.3399375" id="Fill-40" fill="#FC3500"></path>
                <path d="M55.9296869,102.533056 C55.5183747,102.533056 55.126257,102.374099 54.821886,102.080852 C54.4937502,101.765679 54.2990624,101.318042 54.2899222,100.85122 C54.2734697,99.9084424 54.990981,99.1255346 55.8912977,99.1054366 C56.8921575,99.0497104 57.5411167,99.8444942 57.5648814,100.780878 L57.5648814,100.787272 C57.582248,101.73005 56.8638226,102.513872 55.9635059,102.533056 L55.9296869,102.533056 Z" id="Fill-42" fill="#000000"></path>
                <path d="M52.47439,93.8704602 C52.2093222,93.8704602 51.9451683,93.7763651 51.733114,93.5836072 C51.2870688,93.1743392 51.2550778,92.4800452 51.664562,92.0324084 C53.2723357,90.2802297 57.0207611,89.9696245 59.0517294,90.8776879 C59.6056299,91.124345 59.8533312,91.7738752 59.6056299,92.3265697 C59.3561005,92.8783507 58.7071412,93.1314026 58.1568968,92.8783507 C56.9010235,92.3146937 54.1680824,92.5485611 53.2851321,93.5150914 C53.0675937,93.7507859 52.7705348,93.8704602 52.47439,93.8704602" id="Fill-44" fill="#000000"></path>
                <path d="M329.251408,94.669355 C329.200223,94.669355 329.150865,94.667528 329.101508,94.6629602 C328.647236,94.6200236 328.226784,94.3779343 327.952576,93.9988133 C327.706702,93.6580611 327.590621,93.2341764 327.631752,92.8038968 C327.721327,91.8611187 328.5211,91.1713925 329.421417,91.2508709 C329.842784,91.2910669 330.226675,91.4947873 330.502711,91.8291447 C330.793372,92.1781187 330.934132,92.6476807 330.891173,93.1099343 C330.850042,93.5685337 330.625191,94.003381 330.276033,94.2948017 C329.980802,94.5387182 329.622503,94.669355 329.251408,94.669355" id="Fill-46" fill="#000000"></path>
                <path d="M332.841524,85.9897671 C332.51613,85.9897671 332.194393,85.8463406 331.977768,85.5704501 C331.14966,84.5116519 328.484357,84.095989 327.166329,84.5628104 C326.595976,84.7729256 325.969868,84.4705424 325.765126,83.8986634 C325.561298,83.3295251 325.858357,82.7019199 326.42871,82.4981994 C328.527316,81.752747 332.241922,82.3483781 333.70528,84.2165769 C334.079117,84.6943608 333.995026,85.3831735 333.518818,85.7568133 C333.317732,85.9130294 333.080085,85.9897671 332.841524,85.9897671" id="Fill-48" fill="#000000"></path>
                <path d="M62.7688036,120.076403 C62.7688036,120.076403 62.546695,116.466988 62.8318715,115.832988 C63.1152199,115.199901 61.8794552,115.357944 60.8045593,115.263849 C59.7269213,115.168841 57.5588489,114.656342 57.1831837,115.701437 C56.8093466,116.745619 56.6457357,117.676521 58.3312018,119.203054 C60.0184959,120.729587 62.7688036,120.076403 62.7688036,120.076403" id="Fill-50" fill="#FCD5CB"></path>
                <path d="M331.556128,204.090447 L331.556128,200.922274 C331.556128,200.077245 331.792861,199.346409 332.411657,199.121677 L335.052281,198.180726 C335.119005,198.015375 335.242399,197.685585 335.232345,197.220591 C335.198526,195.616406 334.319232,194.45255 333.105404,194.055159 L325.870879,191.795049 L327.758345,191.119939 C327.859802,191.083398 327.985938,191.0633 328.097449,191.0633 C328.216272,191.0633 328.356119,191.087965 328.450263,191.118112 L335.831033,193.422986 C337.115241,193.851438 337.593277,195.38528 337.593277,196.215692 C337.593277,196.888974 337.36477,197.666401 336.648173,197.927674 C336.011096,198.158801 334.099865,198.843046 334.099865,198.843046 C334.030399,199.007484 333.913404,199.319003 333.913404,199.999594 L333.913404,202.854421 C333.913404,203.753349 333.480155,204.568231 332.649304,204.568231 C332.289177,204.568231 331.879693,204.400138 331.556128,204.090447" id="Fill-52" fill="#FFFFFF"></path>
                <path d="M329.663817,196.889157 C330.044052,197.465603 330.236912,198.191871 330.236912,198.806687 L330.236912,201.465102 C330.236912,203.110396 330.997383,204.45148 332.251428,204.833341 L330.316433,205.502056 C329.927971,205.636347 329.54865,205.496575 329.319229,205.349494 C328.377781,204.746554 327.879636,203.811998 327.879636,202.374079 C327.879636,201.698969 327.87598,200.775376 327.87598,199.584114 C327.87598,198.90535 327.587148,198.113307 327.140188,197.527724 C326.80474,197.086482 326.417193,196.810592 325.924532,196.634278 C324.972116,196.294439 324.203419,195.059327 324.203419,193.845226 C324.203419,192.801958 324.733555,192.145119 325.440098,192.094874 C325.59274,192.083912 325.721618,192.111318 325.843184,192.148773 C326.262722,192.27667 326.600912,192.39269 326.600912,192.39269 C326.367835,193.599482 327.071636,195.451237 328.492034,195.952773 C329.049591,196.149186 329.378641,196.456137 329.663817,196.889157" id="Fill-54" fill="#FFFFFF"></path>
                <path d="M176.335763,196.240997 C176.335763,196.240997 176.717826,212.513054 176.467383,218.489464 C176.205971,224.716184 176.42351,240.96449 175.545129,241.837838 C174.859609,242.518429 173.281998,236.910178 172.818586,235.954611 C172.097419,234.46736 171.333292,238.930939 170.004297,238.225683 C169.523519,237.971717 168.16436,233.283406 166.733908,232.385392 C165.839989,231.823562 164.334586,236.072458 163.542125,236.945807 C163.262433,237.254585 162.728641,237.096541 162.332867,236.012164 C161.609871,234.027945 160.932577,230.306164 160.20227,230.306164 C158.903437,230.306164 158.456478,233.925628 157.79655,234.636366 C156.948333,235.548083 156.591862,233.541026 156.420939,230.364631 C156.104686,224.509723 156.595519,208.879887 156.595519,208.879887 L156.77284,195.367648 L176.335763,196.240997 Z" id="Fill-56" fill="#FFEDDA"></path>
                <path d="M303.136556,271.90369 C303.136556,271.90369 303.326673,306.737148 308.188384,316.275468" id="Stroke-58" stroke="#000000" stroke-width="1.586" stroke-linecap="round" stroke-linejoin="round"></path>
            </g>
            <polygon id="Stroke-61" stroke="#000000" stroke-width="1.586" stroke-linecap="round" stroke-linejoin="round" points="123 205 123.056482 286 242 285.891576 241.632868 206.008894"></polygon>
            <polyline id="Stroke-62" stroke="#000000" stroke-width="1.586" stroke-linecap="round" stroke-linejoin="round" points="123 205.031435 128.924276 195 230.923623 195.504571 242 206"></polyline>
            <g id="Group-185" transform="translate(0.000000, 49.000000)">
                <path d="M357.8925,163.514813 C357.8925,163.514813 363.914935,167.090608 365.383109,168.069727 C366.852196,169.049759 373.364935,172.282131 375.716022,173.01647 C378.065283,173.751723 382.373022,175.906333 384.136109,177.032503 C385.898283,178.159586 389.228152,179.040976 388.053065,180.755348 C386.877978,182.468806 381.003457,193.440969 379.97537,195.154427 C378.947283,196.868799 374.478848,204.796741 373.136674,206.985145 C371.797239,209.17629 369.390457,214.121207 367.862935,216.178088 C366.3345,218.233142 362.612022,221.924019 360.502891,222.060109 C358.391935,222.19346 352.425196,222.388918 348.586761,222.395312 C344.745587,222.402618 329.484978,222.764308 326.389761,222.584377 C323.29363,222.404445 311.91437,221.379658 309.030978,221.116611 C306.1485,220.856304 298.564761,219.206781 294.060717,218.15916 C289.557587,217.112452 276.669065,214.871073 274.2075,214.669221 C271.746848,214.470109 269.195804,213.61064 266.937848,214.584279 C264.679891,215.559745 264.296413,216.046564 262.125196,217.02477 C259.95763,218.002976 252.475239,220.075384 249.947935,221.222561 C247.42063,222.369738 244.195761,223.702326 241.891239,225.508947 C239.585804,227.316481 236.599239,229.687557 234.702848,230.759839 C232.809196,231.833947 228.542543,233.393048 226.858891,233.913662 C225.177978,234.432449 221.987804,235.009691 222.638804,233.09712 C223.287978,231.18455 226.030761,229.397109 227.24237,228.889283 C228.454891,228.380543 230.313848,228.119322 231.394891,227.070788 C232.475935,226.024994 232.973543,225.389297 233.712196,224.294182 C234.449022,223.200893 234.302022,222.719553 232.848457,223.147918 C231.394891,223.572629 229.262022,224.321582 227.2935,224.447626 C225.324978,224.575496 221.2665,224.404698 219.078848,224.211066 C216.888457,224.021088 212.74963,223.577196 211.212978,223.294969 C209.676326,223.010001 208.665587,222.472034 207.96163,221.59521 C207.258587,220.717474 207.001109,219.316384 206.256065,218.754669 C205.512848,218.193868 204.899283,217.064044 205.204239,216.287691 C205.506457,215.51225 206.561022,215.005337 207.778109,214.6062 C208.994283,214.208889 214.359326,213.028831 216.489457,212.544752 C218.6205,212.059759 223.390239,211.445983 224.798152,210.69155 C226.204239,209.938943 229.019152,208.899543 229.680196,208.05286 C230.343065,207.204351 230.656239,206.285514 228.663065,206.2709 C226.67263,206.25446 223.301674,206.164951 221.439978,206.191438 C219.576457,206.219752 216.809022,205.790474 214.905326,206.164951 C213.002543,206.542167 208.593457,207.631803 206.640457,208.077521 C204.684717,208.522326 202.890587,209.223784 202.045109,208.53968 C201.196891,207.858315 201.027978,206.513853 201.646109,205.64525 C202.262413,204.776647 205.322022,202.548969 206.766457,202.024701 C208.21363,201.498608 214.60037,200.114871 217.1715,199.640839 C219.74263,199.164979 225.204457,198.6672 227.277978,198.388626 C229.3515,198.111878 231.806674,197.687167 233.319587,196.995756 C234.834326,196.303431 237.8775,195.178174 238.9695,194.176221 C240.060587,193.174268 241.565283,191.875474 241.770717,190.252438 C241.977065,188.630315 241.886674,187.568081 241.209196,186.41725 C240.53263,185.267333 239.14663,184.028821 237.465717,183.409564 C235.783891,182.790308 233.306804,182.258734 232.127152,181.61025 C230.9475,180.961766 229.914848,179.633745 229.325022,178.099304 C228.736109,176.565777 228.411978,174.353626 229.325022,174.235803 C230.238978,174.117066 231.331891,174.737236 232.1865,175.238669 C233.041109,175.740102 237.434674,176.949387 238.791457,177.215174 C240.148239,177.480961 242.154196,178.660106 242.154196,177.805203 C242.154196,176.949387 242.419891,169.95855 242.419891,169.95855 C242.419891,169.95855 243.510065,169.663535 244.305326,170.548579 C245.103326,171.432709 248.316326,174.795691 249.053152,175.622279 C249.790891,176.447954 251.146761,178.482914 251.708283,179.869391 C252.267065,181.255868 252.321848,182.765647 253.451283,184.136597 C254.580717,185.506633 256.283543,187.04016 257.717022,187.530633 C259.1505,188.020192 262.736935,188.770059 264.110152,188.748138 C265.482457,188.724391 275.601717,188.201951 279.116022,188.040286 C282.629413,187.877709 289.454413,187.517846 292.400804,186.875756 C295.344457,186.230925 300.733239,185.232626 303.1455,184.667257 C305.558674,184.100062 310.260848,182.702626 312.304239,182.277001 C314.345804,181.850463 316.7745,181.390131 317.733196,180.664925 C318.690065,179.939719 318.830674,180.896918 318.644413,182.312622 C318.458152,183.728326 318.40063,189.618568 318.25637,191.767698 C318.112109,193.915001 318.771326,194.274864 320.019457,194.051091 C321.266674,193.827319 327.599543,192.756864 330.467413,192.3422 C333.336196,191.925709 337.956196,191.756738 339.882717,191.58594 C341.811978,191.415142 344.841457,191.119214 346.715935,189.118961 C348.588587,187.118709 350.694978,185.16321 351.671022,183.018647 C352.646152,180.874084 354.426587,177.361312 355.116848,174.258636 C355.808022,171.156875 357.8925,163.514813 357.8925,163.514813" id="Fill-63" fill="#FEEDE5"></path>
                <path d="M28.4799261,73.9558274 C28.4799261,73.9558274 29.6860565,70.9755422 29.5317522,70.3562859" id="Stroke-65" stroke="#000000" stroke-width="1.586" stroke-linecap="round" stroke-linejoin="round"></path>
                <path d="M26.6762087,66.8612325 C26.6762087,66.8612325 24.2237739,56.2598931 20.8592087,51.2674816 C17.4946435,46.2741567 18.3903391,41.554839 17.2517739,40.1802361" id="Stroke-67" stroke="#000000" stroke-width="1.586" stroke-linecap="round" stroke-linejoin="round"></path>
                <path d="M15.3237913,40.5821134 C15.3237913,40.5821134 18.3039652,31.5654491 19.1722696,28.3951856 C20.0396609,25.2240087 24.8194435,20.3622072 30.2830957,20.2580845" id="Stroke-69" stroke="#000000" stroke-width="1.586" stroke-linecap="round" stroke-linejoin="round"></path>
                <path d="M31.2574043,19.2774126 C31.2574043,19.2774126 35.9933609,11.9860805 42.4549696,12.0892899 C48.9156652,12.1915859 58.7792739,16.0185534 63.8366217,13.8420227" id="Stroke-71" stroke="#000000" stroke-width="1.586" stroke-linecap="round" stroke-linejoin="round"></path>
                <path d="M68.4096,13.0235632 C68.4096,13.0235632 74.7890348,15.3964657 76.6260783,18.6133105" id="Stroke-73" stroke="#000000" stroke-width="1.586" stroke-linecap="round" stroke-linejoin="round"></path>
                <path d="M78.5707696,18.1825711 C78.5707696,18.1825711 81.0478565,19.1096289 80.7429,26.3918274 C80.4370304,33.674026 76.625987,34.9189321 76.625987,34.9189321" id="Stroke-75" stroke="#000000" stroke-width="1.586" stroke-linecap="round" stroke-linejoin="round"></path>
                <path d="M62.1145304,35.6045895 C62.505313,35.104983 64.6044,32.3840913 69.6836609,31.4040588 C74.7629217,30.423113 77.8426174,29.0338964 77.6554435,23.5089975" id="Stroke-77" stroke="#000000" stroke-width="1.586" stroke-linecap="round" stroke-linejoin="round"></path>
                <path d="M53.5708174,53.7866126 C53.5708174,53.7866126 51.2480348,50.7433058 54.9732522,47.4881 C58.6993826,44.2338076 60.9829043,42.0417498 59.7429913,38.5645982" id="Stroke-79" stroke="#000000" stroke-width="1.586" stroke-linecap="round" stroke-linejoin="round"></path>
                <path d="M50.6756478,66.8964881 C50.4784304,67.0636325 42.0592565,65.8150729 41.7963,58.9064375 C41.5333435,51.9978022 45.2631261,50.8688924 45.2631261,50.8688924 C45.2631261,50.8688924 47.759387,49.6230729 48.7564304,52.3896325" id="Stroke-81" stroke="#000000" stroke-width="1.586" stroke-linecap="round" stroke-linejoin="round"></path>
                <path d="M44.9539696,57.720991 C44.9539696,57.720991 48.1687957,58.1813231 49.4881435,59.8920415" id="Stroke-83" stroke="#000000" stroke-width="1.586" stroke-linecap="round" stroke-linejoin="round"></path>
                <path d="M27.1469739,69.4326989 C27.1469739,69.4326989 37.5209739,71.3397892 43.6383652,63.971735" id="Stroke-85" stroke="#000000" stroke-width="1.586" stroke-linecap="round" stroke-linejoin="round"></path>
                <path d="M78.1677522,51.2405375 C78.1677522,51.2405375 79.698013,53.6426675 82.1394913,54.9579022 C84.5800565,56.2740502 83.0863174,58.7501621 83.0863174,58.7501621 L80.853013,61.8537505" id="Stroke-87" stroke="#000000" stroke-width="1.586" stroke-linecap="round" stroke-linejoin="round"></path>
                <path d="M79.2403957,66.8130986 L73.8233087,66.9108278 C73.8233087,66.9108278 72.3752217,68.7576365 74.2853087,70.3614921 C76.1944826,71.9653477 79.2403957,72.2612755 79.2403957,72.2612755" id="Stroke-89" stroke="#000000" stroke-width="1.586" stroke-linecap="round" stroke-linejoin="round"></path>
                <path d="M78.2613391,75.3232148 C78.4567304,75.7433592 79.916687,79.0140921 78.2668174,82.1797888 C76.7164696,85.1555072 73.0652087,86.7958971 69.334513,86.0305036 C69.334513,86.0305036 66.1963826,85.6669874 64.4734696,88.0024422 C62.7505565,90.3378971 60.9235565,95.4828394 60.9235565,95.4828394" id="Stroke-91" stroke="#000000" stroke-width="1.586" stroke-linecap="round" stroke-linejoin="round"></path>
                <path d="M73.5829043,30.348309 C73.5829043,30.348309 77.8431652,35.0858939 77.8714696,41.2419227" id="Stroke-93" stroke="#000000" stroke-width="1.586" stroke-linecap="round" stroke-linejoin="round"></path>
                <path d="M318.177695,194.308475 C318.177695,194.308475 318.063626,170.777649 327.685278,152.97266 C337.306017,135.166757 356.183191,100.119407 356.183191,100.119407" id="Stroke-95" stroke="#000000" stroke-width="1.586" stroke-linecap="round" stroke-linejoin="round"></path>
                <path d="M352.957226,107.32945 C352.957226,107.32945 355.099226,109.759894 360.61127,105.657093 C366.1224,101.555205 386.479617,84.5448365 394.447748,81.9883491 C394.447748,81.9883491 387.939574,71.5532408 388.07927,67.9582661" id="Stroke-97" stroke="#000000" stroke-width="1.586" stroke-linecap="round" stroke-linejoin="round"></path>
                <path d="M359.336935,95.3746978 C359.402674,95.3555173 360.915587,89.4123007 355.785196,80.6723838" id="Stroke-99" stroke="#000000" stroke-width="1.586" stroke-linecap="round" stroke-linejoin="round"></path>
                <path d="M353.509161,79.3757816 C353.509161,79.3757816 348.442683,78.3701751 340.406987,76.8247744 C334.475857,75.6830776 338.010248,68.2127274 337.657813,67.0792509" id="Stroke-101" stroke="#000000" stroke-width="1.586" stroke-linecap="round" stroke-linejoin="round"></path>
                <path d="M335.594243,52.837543 C335.594243,52.837543 333.288809,49.1649329 333.906939,48.132839 C334.525983,47.0998318 338.05307,44.8237451 338.927765,43.2655574" id="Stroke-103" stroke="#000000" stroke-width="1.586" stroke-linecap="round" stroke-linejoin="round"></path>
                <path d="M341.071591,32.7780224 C341.071591,32.7780224 340.978461,27.6732679 342.594548,26.4795097" id="Stroke-105" stroke="#000000" stroke-width="1.586" stroke-linecap="round" stroke-linejoin="round"></path>
                <path d="M336.365491,25.237435 C336.365491,25.237435 321.135926,18.5973267 320.24297,14.7703592 C319.348187,10.9424783 327.113622,13.2806733 327.113622,13.2806733 C327.113622,13.2806733 336.794622,16.280139 346.734926,10.3268755 C356.677057,4.37452527 364.947404,-1.10927256 376.581404,1.40246029 C388.215404,3.91419314 397.878143,9.38977076 402.482622,20.9894097 C407.086187,32.5881354 399.588274,44.0471173 399.588274,44.0471173 C399.588274,44.0471173 390.052448,58.8754747 390.118187,62.2786444" id="Stroke-107" stroke="#000000" stroke-width="1.586" stroke-linecap="round" stroke-linejoin="round"></path>
                <path d="M357.766774,28.5983162 C357.766774,28.5983162 356.608122,32.385096 359.944383,35.6622224 C363.27973,38.9393487 367.01773,44.628652 364.1316,49.8256556" id="Stroke-109" stroke="#000000" stroke-width="1.586" stroke-linecap="round" stroke-linejoin="round"></path>
                <path d="M118.083091,192.123177 C118.083091,192.123177 123.517526,190.237094 125.236787,189.120971 C126.955135,188.004848 130.526048,185.404519 132.72557,184.346852 C134.926004,183.289184 141.20957,180.383794 143.145222,179.506057 C145.080874,178.627408 147.357091,177.682996 148.844439,176.392422 C150.335439,175.101848 152.687439,172.892436 154.636787,172.279574 C156.587961,171.666711 158.609439,171.722426 159.177352,172.878736 C159.744352,174.034133 159.911439,175.57314 158.852309,177.011678 C157.793178,178.449303 156.943135,179.304205 155.112483,180.661455 C153.28457,182.018704 151.657526,182.300018 150.423091,183.803404 C149.18683,185.304964 148.132265,185.860285 148.260091,187.096971 C148.385178,188.333657 149.280874,189.484487 151.14257,190.035242 C153.003352,190.585996 155.311526,191.711252 158.065265,191.708512 C160.817178,191.706686 166.19683,191.678371 168.65657,191.489306 C171.116309,191.301155 177.745917,191.246353 179.477048,191.608043 C181.21183,191.969732 183.153874,192.960725 183.831352,193.874996 C184.510657,194.789267 184.920613,195.392996 183.094526,195.864288 C181.268439,196.338321 177.519483,196.576707 175.06157,196.930177 C172.602743,197.282732 168.158961,197.227931 166.470743,197.662689 C164.782526,198.094707 160.67383,198.855534 159.506048,199.323173 C158.335526,199.789899 157.597787,200.568992 158.777439,201.085953 C159.957091,201.605653 169.548613,204.667227 172.032091,205.590631 C174.516483,206.511296 181.608091,209.316216 182.848917,210.318169 C184.092483,211.321036 185.935004,213.165104 185.253874,214.125956 C184.57183,215.088635 182.731135,215.287747 181.007309,214.726945 C179.283483,214.165231 176.480439,212.322989 174.437961,211.800548 C172.393657,211.281761 168.106004,209.838657 166.023352,209.518068 C163.9407,209.195653 161.375961,208.636678 159.933352,208.516115 C158.490743,208.395552 159.85483,209.677906 161.215265,210.399458 C162.576613,211.12101 168.426483,213.524967 170.069961,214.566195 C171.711613,215.608335 176.438439,218.735671 177.280265,219.535772 C178.123004,220.338613 179.705309,222.948075 177.054743,223.24857 C174.406917,223.549065 173.188004,223.096953 171.581048,222.123314 C169.974091,221.149675 166.76383,219.097361 164.749657,218.173956 C162.737309,217.250552 160.734091,215.699671 158.199483,215.059408 C155.664874,214.420057 153.796787,213.849209 152.512135,213.643704 C151.230222,213.436371 150.090743,213.581595 150.046917,214.147877 C150.002178,214.713245 151.056743,216.110682 152.849961,217.621375 C154.641352,219.134808 157.438917,221.634668 158.894309,222.985523 C160.347874,224.336379 162.231483,225.970375 163.108004,227.301137 C163.986352,228.634639 163.565439,230.693346 161.169613,229.716054 C158.772874,228.736935 154.624004,225.867166 152.463743,224.314458 C150.304396,222.761751 144.636222,218.879982 142.677743,217.901776 C140.722917,216.921743 134.916874,214.628303 132.994917,214.25748 C131.072961,213.88483 127.192526,213.312155 125.403874,213.445505 C123.614309,213.581595 121.523439,214.66027 121.556309,213.783447 C121.591004,212.905711 121.527091,204.377693 121.145439,201.902494 C120.7647,199.423642 119.876309,196.311834 119.197004,195.118989 C118.5177,193.927971 118.083091,192.123177 118.083091,192.123177" id="Fill-111" fill="#FEEDE5"></path>
                <path d="M371.96533,57.9399227 C371.96533,57.9399227 378.476243,65.6824534 387.684287,65.2221213" id="Stroke-113" stroke="#000000" stroke-width="1.586" stroke-linecap="round" stroke-linejoin="round"></path>
                <path d="M368.413865,46.2420065 C368.413865,46.2420065 372.433996,44.1111437 374.498387,46.7388729 C376.563691,49.3656888 375.586735,55.3673603 370.722039,58.4015336 C365.85643,61.4366202 364.867604,60.2419487 364.867604,60.2419487" id="Stroke-115" stroke="#000000" stroke-width="1.586" stroke-linecap="round" stroke-linejoin="round"></path>
                <path d="M367.097804,54.2343404 C367.097804,54.2343404 369.203283,51.0101888 371.965239,51.7993296" id="Stroke-117" stroke="#000000" stroke-width="1.586" stroke-linecap="round" stroke-linejoin="round"></path>
                <path d="M343.0056,12.1761502 C343.176339,12.106735 356.705817,23.2168144 364.41647,27.7699011 C372.128035,32.3229877 381.173557,38.4662296 399.58873,44.0477567" id="Stroke-119" stroke="#000000" stroke-width="1.586" stroke-linecap="round" stroke-linejoin="round"></path>
                <path d="M321.750587,12.6587682 C321.750587,12.6587682 325.328804,14.8663531 331.713717,20.1199848 C334.167065,22.1385047 341.283326,27.2587863 362.592848,26.9628585" id="Stroke-121" stroke="#000000" stroke-width="1.586" stroke-linecap="round" stroke-linejoin="round"></path>
                <path d="M374.002696,111.728179 C374.002696,111.728179 366.057391,128.206974 363.972913,137.199891 C361.888435,146.192808 355.456957,152.404551 355.193087,156.118262 C354.93013,159.831974 354.676304,163.897327 365.383565,168.069544 C376.090826,172.241761 389.935304,178.122869 390.257609,182.991064" id="Stroke-123" stroke="#000000" stroke-width="1.586" stroke-linecap="round" stroke-linejoin="round"></path>
                <path d="M412.019726,124.304197 L394.925726,175.359049 C394.925726,175.359049 389.973378,187.441855 384.619291,187.979822" id="Stroke-125" stroke="#000000" stroke-width="1.586" stroke-linecap="round" stroke-linejoin="round"></path>
                <path d="M357.040996,164.301945 C357.040996,164.301945 356.747909,182.013771 345.185126,188.949808" id="Stroke-127" stroke="#000000" stroke-width="1.586" stroke-linecap="round" stroke-linejoin="round"></path>
                <path d="M388.2984,178.84159 L370.549748,211.670395 C370.549748,211.670395 366.581661,219.179106 363.972183,220.515348" id="Stroke-129" stroke="#000000" stroke-width="1.586" stroke-linecap="round" stroke-linejoin="round"></path>
                <path d="M361.441226,222.472673 L316.993357,222.472673 C316.993357,222.472673 298.118009,220.824976 288.048052,216.448168 C277.979009,212.072272 265.652009,215.183168 265.652009,215.183168" id="Stroke-131" stroke="#000000" stroke-width="1.586" stroke-linecap="round" stroke-linejoin="round"></path>
                <path d="M263.443265,215.904811 C263.443265,215.904811 249.795091,219.897096 244.137874,224.026385 C238.480657,228.155674 227.695787,236.102797 223.914874,234.417652 C220.133048,232.731595 224.869004,229.970515 224.869004,229.970515 C224.869004,229.970515 231.247526,227.337306 232.056483,226.403855 C232.864526,225.471317 235.253048,221.762172 235.253048,221.762172" id="Stroke-133" stroke="#000000" stroke-width="1.586" stroke-linecap="round" stroke-linejoin="round"></path>
                <path d="M207.761035,221.31006 C207.761035,221.31006 207.796643,223.765165 217.370817,224.629201 C226.945904,225.494151 240.2106,220.098948 240.2106,220.098948" id="Stroke-135" stroke="#000000" stroke-width="1.586" stroke-linecap="round" stroke-linejoin="round"></path>
                <path d="M234.784109,214.572223 C234.488283,214.670865 224.672152,218.421111 224.672152,218.421111 C224.672152,218.421111 211.094283,221.076241 205.206065,217.25658 C205.206065,217.25658 202.50163,215.784248 208.858239,214.308262 C215.213935,212.832277 225.254674,210.460288 225.254674,210.460288 C225.254674,210.460288 229.706674,208.955075 230.1495,206.804118 C230.591413,204.654075 225.904761,205.739143 225.904761,205.739143 C225.904761,205.739143 218.004196,204.830353 212.409978,206.715522 C206.814848,208.601605 202.314457,208.700248 202.314457,208.700248 C202.314457,208.700248 199.436543,207.969562 201.646109,205.645068 C203.855674,203.321486 209.55763,201.272826 209.55763,201.272826 L222.176804,198.967512 L232.066891,197.454078 C232.066891,197.454078 233.988848,196.577255 234.34037,196.018281" id="Stroke-137" stroke="#000000" stroke-width="1.586" stroke-linecap="round" stroke-linejoin="round"></path>
                <path d="M237.121043,195.315909 C237.121043,195.315909 242.153739,192.785909 241.773913,187.8894 C241.394087,182.991064 231.715826,180.918656 231.715826,180.918656 C231.715826,180.918656 228.420652,179.243558 228.420652,176.775667 C228.420652,174.306862 230.647565,174.454826 230.647565,174.454826 C230.647565,174.454826 234.247696,176.872483 237.10187,177.218645 C239.956957,177.562981 247.489565,178.923883 251.643913,182.487804 C255.797348,186.050811 259.660435,192.155692 263.789217,193.10741" id="Stroke-139" stroke="#000000" stroke-width="1.586" stroke-linecap="round" stroke-linejoin="round"></path>
                <path d="M265.651917,194.259885 C265.651917,194.259885 278.032787,199.834105 298.105135,197.071199 C318.177483,194.308293 336.251178,190.254813 340.987135,191.689697" id="Stroke-141" stroke="#000000" stroke-width="1.586" stroke-linecap="round" stroke-linejoin="round"></path>
                <path d="M257.217861,186.543202 C257.217861,186.543202 271.564513,190.226773 283.162904,187.827383 C294.761296,185.427079 316.590339,184.081704 319.417122,179.687542" id="Stroke-143" stroke="#000000" stroke-width="1.586" stroke-linecap="round" stroke-linejoin="round"></path>
                <path d="M242.947083,168.878961 C242.947083,168.878961 248.926604,174.447701 250.446822,177.535763 C251.966126,180.622911 253.042604,183.561182 253.042604,183.561182" id="Stroke-145" stroke="#000000" stroke-width="1.586" stroke-linecap="round" stroke-linejoin="round"></path>
                <path d="M117.455374,191.746325 C118.342852,192.032206 129.794243,185.720906 133.029157,184.201993 C136.26407,182.682166 146.013548,178.599459 147.833243,177.14174 C149.653852,175.684935 155.019809,170.830441 157.24033,171.395809 C159.461765,171.960264 160.68433,172.890975 159.513809,175.633787 C157.985374,179.223282 155.170461,180.824397 153.081417,182.020896 C150.990548,183.216481 147.2982,186.2196 147.722765,187.86273" id="Stroke-147" stroke="#000000" stroke-width="1.586" stroke-linecap="round" stroke-linejoin="round"></path>
                <path d="M149.34853,188.750696 C149.34853,188.750696 153.096574,192.515555 159.707009,192.218714 C166.31653,191.922786 174.201574,191.025869 176.474139,191.375685 C178.747617,191.725501 184.666878,192.991414 184.272443,194.529508 C183.877096,196.067602 176.801922,196.714259 176.801922,196.714259 L166.470835,197.662324 L156.675704,199.805974" id="Stroke-149" stroke="#000000" stroke-width="1.586" stroke-linecap="round" stroke-linejoin="round"></path>
                <path d="M158.128539,200.931687 C158.128539,200.931687 178.493974,208.00838 180.576626,209.095275 C182.659278,210.18217 185.970887,212.526759 185.39293,213.747004 C184.814974,214.96725 182.151626,215.499737 182.151626,215.499737" id="Stroke-151" stroke="#000000" stroke-width="1.586" stroke-linecap="round" stroke-linejoin="round"></path>
                <path d="M180.342978,214.473671 C180.342978,214.473671 170.682978,209.871264 165.307891,209.193552 C159.932804,208.515841 158.12863,208.215347 158.12863,208.215347 C158.12863,208.215347 157.662978,208.601697 158.610717,209.341516 C159.558457,210.081336 169.178283,214.670957 169.178283,214.670957 L178.394543,221.282751 C178.394543,221.282751 178.952413,224.275823 174.998022,223.655653 C171.044543,223.035484 162.094891,216.746105 162.094891,216.746105 L151.741891,213.563054" id="Stroke-153" stroke="#000000" stroke-width="1.586" stroke-linecap="round" stroke-linejoin="round"></path>
                <path d="M150.679748,213.240091 C150.679748,213.240091 149.461748,212.824513 150.292617,214.857647 C151.123487,216.891694 163.087096,227.270174 163.087096,227.270174 C163.087096,227.270174 164.737878,230.118022 162.173139,229.944484 C159.6084,229.770033 150.570183,222.982874 150.570183,222.982874 C150.570183,222.982874 137.412313,213.428243 128.877183,213.630095 C120.342965,213.831947 121.615748,213.990871 121.615748,213.990871" id="Stroke-155" stroke="#000000" stroke-width="1.586" stroke-linecap="round" stroke-linejoin="round"></path>
                <path d="M394.448113,81.9887144 C394.448113,81.9887144 410.075765,95.0944798 414.569765,110.553054 C419.063765,126.011628 421.146417,145.224101 418.852852,152.16653 C416.557461,159.10896 411.364983,174.272519 410.506722,186.347104 C409.647548,198.421689 410.25107,204.484556 408.606678,213.49848 C406.962287,222.512404 404.163809,241.936776 404.163809,241.936776" id="Stroke-157" stroke="#000000" stroke-width="1.586" stroke-linecap="round" stroke-linejoin="round"></path>
                <path d="M337.417683,58.8667065 L342.83477,58.9635224 C342.83477,58.9635224 344.282857,60.8112444 342.37277,62.4151 C340.463596,64.0189556 337.417683,64.3148834 337.417683,64.3148834" id="Stroke-159" stroke="#000000" stroke-width="1.586" stroke-linecap="round" stroke-linejoin="round"></path>
                <path d="M21.7801043,87.7632339 C21.7801043,87.7632339 1.29414783,112.838548 0.739930435,133.89509 C0.1848,154.951631 14.885713,252.131032 14.885713,252.131032" id="Stroke-161" stroke="#000000" stroke-width="1.586"></path>
                <path d="M25.8326478,85.5146394 C25.8326478,85.5146394 54.4848652,102.883957 55.4088652,111.028365" id="Stroke-163" stroke="#000000" stroke-width="1.586"></path>
                <path d="M24.2027739,85.0267238 L25.0582957,77.1316625 C25.0582957,77.1316625 25.0829478,73.4654458 29.5924696,75.4227708 C34.1038174,77.3800957 62.3570348,92.5692292 64.6277739,100.664316 C64.6277739,100.664316 64.2826435,104.927868 63.2545565,107.690774 C62.2255565,110.454594 63.3522522,116.474532 64.3566,119.238352" id="Stroke-165" stroke="#000000" stroke-width="1.586" stroke-linecap="round" stroke-linejoin="round"></path>
                <path d="M56.0139391,112.033606 C56.0139391,112.033606 57.5487652,110.948538 58.1906348,108.677931 C58.8315913,106.408238 59.5419391,101.918173 64.6285043,100.664133" id="Stroke-167" stroke="#000000" stroke-width="1.586" stroke-linecap="round" stroke-linejoin="round"></path>
                <path d="M62.7502826,90.3378058 C62.7502826,90.3378058 70.6545,97.9497264 71.1630652,101.943838 C71.6716304,105.93795 70.7193261,115.289817 70.7193261,115.289817 C70.7193261,115.289817 71.1959348,103.02982 68.2924565,103.204271 C65.3898913,103.378723 65.9970652,119.731474 65.9970652,119.731474" id="Stroke-169" stroke="#000000" stroke-width="1.586" stroke-linecap="round" stroke-linejoin="round"></path>
                <path d="M3.57365217,144.391849 L16.9369565,195.53347 C16.9369565,195.53347 24.2084348,215.11768 30.9412174,219.03781" id="Stroke-171" stroke="#000000" stroke-width="1.586" stroke-linecap="round" stroke-linejoin="round"></path>
                <path d="M34.4450217,222.515509 C34.4450217,222.515509 55.2386739,232.766119 85.6658478,227.599257 C116.093022,222.432394 121.295543,220.348112 122.025978,218.256524" id="Stroke-173" stroke="#000000" stroke-width="1.586" stroke-linecap="round" stroke-linejoin="round"></path>
                <path d="M49.7225217,128.149889 C49.7225217,128.149889 53.8905652,142.314235 53.0067391,145.743892 C52.122913,149.173549 51.7385217,163.806448 53.5755652,170.767145 C55.4107826,177.727842 60.2928261,183.457333 59.7513913,186.544481 C59.2117826,189.630716 51.597,196.150261 51.597,196.150261 C51.597,196.150261 47.375087,203.013228 47.7101739,204.385091" id="Stroke-175" stroke="#000000" stroke-width="1.586" stroke-linecap="round" stroke-linejoin="round"></path>
                <path d="M58.6790217,188.750696 C58.6790217,188.750696 75.2671957,192.255248 78.6217174,193.781468 C81.9762391,195.307688 106.882239,195.48488 115.000109,190.750948" id="Stroke-177" stroke="#000000" stroke-width="1.586" stroke-linecap="round" stroke-linejoin="round"></path>
                <path d="M116.787483,190.851692 C116.787483,190.851692 118.504917,192.881172 119.405178,195.533562 C120.306352,198.185952 123.383309,214.07837 121.098874,218.61867" id="Stroke-179" stroke="#000000" stroke-width="1.586" stroke-linecap="round" stroke-linejoin="round"></path>
                <polyline id="Stroke-181" stroke="#000000" stroke-width="1.586" stroke-linecap="round" stroke-linejoin="round" points="66.7332522 112.033606 74.5087304 136.884234 82.1372087 163.580758 87.5844261 194.722592"></polyline>
                <path d="M84.6597652,178.001849 C84.6597652,178.001849 104.586026,181.194947 122.02607,174.98777" id="Stroke-183" stroke="#000000" stroke-width="1.586" stroke-linecap="round" stroke-linejoin="round"></path>
            </g>
        </g>
        <g id="Group-5-Copy-2" transform="translate(5.000000, 12.000000)">
            <line x1="15.4535831" y1="15.5" x2="571.546417" y2="15.5" id="Line" stroke="#CCCCCC" stroke-linecap="square"></line>
            <g id="01">
                <circle id="Oval" fill="#CCCCCC" cx="15.5" cy="15.5" r="15.5"></circle>
                <polygon id="1" fill="#FFFFFF" fill-rule="nonzero" points="17.5258824 22.02 17.5258824 7.6 15.2658824 7.6 10.4458824 10.28 11.6858824 12.36 14.9658824 10.48 14.9658824 22.02"></polygon>
            </g>
            <g id="02" transform="translate(109.000000, 0.000000)">
                <circle id="Oval-Copy" fill="#CCCCCC" cx="15.5" cy="15.5" r="15.5"></circle>
                <path d="M21.2494118,22.02 L21.2494118,19.9 L14.3894118,19.9 L18.6294118,15.62 C19.9694118,14.28 20.7094118,12.84 20.7094118,11.28 L20.7094118,11.08 C20.7094118,9.1 19.3094118,7.38 16.0494118,7.38 C13.1294118,7.38 11.7894118,9.18 11.1094118,10.42 L13.0294118,11.68 C13.9694118,10 15.0294118,9.66 16.0694118,9.66 C17.5494118,9.66 18.1294118,10.4 18.1294118,11.18 L18.1294118,11.34 C18.1294118,12.16 18.0294118,12.92 16.3494118,14.64 L11.0494118,20.1 L11.0494118,22.02 L21.2494118,22.02 Z" id="2" fill="#FFFFFF" fill-rule="nonzero"></path>
            </g>
            <g id="03" transform="translate(220.000000, 0.000000)">
                <circle id="Oval-Copy-2" fill="#CCCCCC" cx="15.5" cy="15.5" r="15.5"></circle>
                <path d="M15.5694118,22.24 C19.1094118,22.24 20.8094118,20.22 20.8094118,18.04 L20.8094118,17.74 C20.8094118,16.1 19.9094118,14.82 18.0094118,14.48 C19.6494118,13.86 20.0894118,12.32 20.0894118,11.18 L20.0894118,10.98 C20.0894118,8.82 18.3294118,7.38 15.6294118,7.38 C13.5494118,7.38 12.3094118,8.22 11.3494118,9.46 L13.0894118,10.82 C13.7294118,10.12 14.4094118,9.62 15.6294118,9.62 C16.8294118,9.62 17.5894118,10.1 17.5894118,11.18 L17.5894118,11.34 C17.5894118,12.58 17.1894118,13.42 15.3894118,13.42 L13.6694118,13.42 L13.6694118,15.62 L15.6094118,15.62 C17.4494118,15.62 18.2294118,16.26 18.2294118,17.66 L18.2294118,17.92 C18.2294118,19.18 17.3894118,19.96 15.5894118,19.96 C14.4294118,19.96 13.6094118,19.66 12.2094118,18.64 L10.9494118,20.64 C12.3094118,21.72 13.8894118,22.24 15.5694118,22.24 Z" id="3" fill="#FFFFFF" fill-rule="nonzero"></path>
            </g>
            <g id="04" transform="translate(331.000000, 0.000000)">
                <circle id="Oval-Copy-2" fill="#CCCCCC" cx="15.5" cy="15.5" r="15.5"></circle>
                <polygon id="4" fill="#FFFFFF" fill-rule="nonzero" points="19.1176471 22.02 19.1176471 19.02 21.0776471 19.02 21.0776471 16.96 19.1176471 16.96 19.1176471 12.64 16.5976471 12.64 16.5976471 16.96 12.4376471 16.96 18.7376471 7.6 15.9776471 7.6 9.41764706 17.36 9.41764706 19.02 16.5976471 19.02 16.5976471 22.02"></polygon>
            </g>
            <g id="05" transform="translate(441.000000, 0.000000)">
                <circle id="Oval-Copy-2" fill="#CCCCCC" cx="15.5" cy="15.5" r="15.5"></circle>
                <path d="M15.4176471,22.24 C19.0376471,22.24 20.5576471,19.74 20.5576471,17.44 L20.5576471,17.14 C20.5576471,14.82 19.0376471,12.74 16.2576471,12.74 C15.0576471,12.74 14.2376471,13.08 13.5776471,13.48 L13.7376471,9.72 L19.6176471,9.72 L19.6176471,7.6 L11.4376471,7.6 L10.9776471,15.94 L12.6976471,15.94 C13.3376471,15.32 14.2176471,14.8 15.4376471,14.8 C17.0376471,14.8 17.9776471,15.66 17.9776471,17.2 L17.9776471,17.42 C17.9776471,18.86 17.1576471,19.92 15.3976471,19.92 C14.0576471,19.92 12.8976471,19.7 11.5376471,18.62 L10.2976471,20.64 C11.7376471,21.82 13.3376471,22.24 15.4176471,22.24 Z" id="5" fill="#FFFFFF" fill-rule="nonzero"></path>
            </g>
            <g id="06" transform="translate(551.000000, 0.000000)">
                <circle id="Oval-Copy-2" fill="#FF0000" cx="15.5" cy="15.5" r="15.5"></circle>
                <path d="M15.4376471,22.24 C18.6376471,22.24 20.5576471,20.2 20.5576471,17.52 L20.5576471,17.12 C20.5576471,14.32 18.8576471,12.48 16.0576471,12.48 C14.8176471,12.48 13.5176471,12.92 12.8176471,13.74 C12.9976471,10.66 14.3576471,9.7 15.8376471,9.7 C17.0176471,9.7 17.9976471,9.98 18.8976471,10.5 L19.8376471,8.38 C18.7576471,7.66 17.2976471,7.38 15.9976471,7.38 C12.8576471,7.38 10.2776471,8.86 10.2776471,15.22 L10.2776471,16.14 C10.2776471,19.84 11.7576471,22.24 15.4376471,22.24 Z M15.3776471,19.92 C13.7376471,19.92 12.8576471,19 12.8576471,17.44 L12.8576471,17.14 C12.8576471,15.82 13.6376471,14.72 15.4776471,14.72 C17.2376471,14.72 18.0376471,15.52 18.0376471,17.2 L18.0376471,17.42 C18.0376471,19.02 17.1376471,19.92 15.3776471,19.92 Z" id="6" fill="#FFFFFF" fill-rule="nonzero"></path>
            </g>
            <path d="M13.705,52.132 L13.705,46.216 L12.532,46.216 L12.532,48.154 L4.848,48.154 L4.848,46.216 L3.675,46.216 L3.675,52.132 L13.705,52.132 Z M12.532,51.095 L4.848,51.095 L4.848,49.157 L12.532,49.157 L12.532,51.095 Z M9.455,58.082 L9.455,54.954 L15.83,54.954 L15.83,53.934 L1.55,53.934 L1.55,54.954 L8.265,54.954 L8.265,58.082 L9.455,58.082 Z M14.045,61.125 L14.045,60.071 L4.865,60.071 L4.865,56.705 L3.658,56.705 L3.658,61.125 L14.045,61.125 Z M28.937,53.458 L28.937,45.774 L27.747,45.774 L27.747,53.458 L28.937,53.458 Z M17.054,53.747 C18.21,52.914 19.162,52.132 19.757,51.605 C20.505,50.959 20.93,50.483 21.015,50.211 L21.032,50.211 C21.134,50.5 21.763,51.044 22.562,51.673 C23.055,52.064 23.82,52.642 24.619,53.203 L25.299,52.336 C24.398,51.741 23.429,51.01 22.8,50.483 C21.729,49.582 21.576,49.191 21.576,47.95 L21.576,46.165 L20.352,46.165 L20.352,48.001 C20.352,49.242 20.08,49.82 19.094,50.721 C18.397,51.35 17.394,52.149 16.34,52.88 L17.054,53.747 Z M29.345,61.363 L29.345,60.343 L20.607,60.343 L20.607,58.371 L28.937,58.371 L28.937,54.376 L19.349,54.376 L19.349,55.413 L27.764,55.413 L27.764,57.368 L19.434,57.368 L19.434,61.363 L29.345,61.363 Z" id="" fill="#6E6E6E" fill-rule="nonzero"></path>
            <path d="M122.317,56.858 L122.317,45.774 L121.127,45.774 L121.127,56.858 L122.317,56.858 Z M110.519,54.988 C111.505,54.206 112.474,53.39 113.069,52.829 C113.817,52.115 114.344,51.588 114.395,51.299 L114.412,51.299 C114.497,51.571 114.956,52.03 115.738,52.693 C116.316,53.186 117.064,53.798 117.999,54.512 L118.713,53.679 C117.948,53.118 117.03,52.387 116.197,51.656 C115.058,50.636 114.956,50.228 114.956,48.97 L114.956,46.505 L113.732,46.505 L113.732,49.004 C113.732,50.296 113.613,50.721 112.542,51.792 C111.777,52.557 110.689,53.441 109.771,54.138 L110.519,54.988 Z M122.708,61.125 L122.708,60.071 L114.038,60.071 L114.038,55.94 L112.831,55.94 L112.831,61.125 L122.708,61.125 Z M135.713,56.093 C136.121,53.9 136.308,51.928 136.308,49.072 L136.308,47.236 L125.972,47.236 L125.972,48.29 L135.067,48.29 L135.067,49.701 C135.067,51.979 134.846,53.849 134.455,55.94 L135.713,56.093 Z M138.45,59.119 L138.45,58.082 L130.817,58.082 L130.817,52.115 L129.593,52.115 L129.593,58.082 L124.17,58.082 L124.17,59.119 L138.45,59.119 Z" id="" fill="#6E6E6E" fill-rule="nonzero"></path>
            <path d="M224.256,53.764 L224.256,45.774 L223.083,45.774 L223.083,49.174 L220.839,49.174 L220.839,45.978 L219.666,45.978 L219.666,53.73 L220.839,53.73 L220.839,50.245 L223.083,50.245 L223.083,53.764 L224.256,53.764 Z M214.685,53.356 C216.946,53.356 218.102,51.707 218.102,50.313 L218.102,49.463 C218.102,48.069 216.946,46.42 214.685,46.42 C212.424,46.42 211.268,48.069 211.268,49.463 L211.268,50.313 C211.268,51.707 212.424,53.356 214.685,53.356 Z M214.685,52.268 C213.24,52.268 212.441,51.231 212.441,50.194 L212.441,49.582 C212.441,48.545 213.24,47.508 214.685,47.508 C216.13,47.508 216.929,48.545 216.929,49.582 L216.929,50.194 C216.929,51.231 216.13,52.268 214.685,52.268 Z M224.256,61.295 L224.256,54.682 L223.083,54.682 L223.083,56.807 L215.773,56.807 L215.773,54.682 L214.6,54.682 L214.6,61.295 L224.256,61.295 Z M223.083,60.224 L215.773,60.224 L215.773,57.861 L223.083,57.861 L223.083,60.224 Z M242.038,61.312 L242.038,52.608 L244.622,52.608 L244.622,51.537 L242.038,51.537 L242.038,45.774 L240.831,45.774 L240.831,61.312 L242.038,61.312 Z M233.759,57.164 C235.663,57.164 237.703,57.045 239.505,56.722 L239.352,55.651 C237.448,55.974 235.799,56.076 234.065,56.076 L232.059,56.076 L232.059,48.273 L237.924,48.273 L237.924,47.185 L230.852,47.185 L230.852,57.164 L233.759,57.164 Z M251.745,52.353 C254.465,52.353 256.624,51.265 256.624,49.565 L256.624,48.919 C256.624,47.219 254.465,46.131 251.745,46.131 C249.025,46.131 246.866,47.219 246.866,48.919 L246.866,49.565 C246.866,51.265 249.025,52.353 251.745,52.353 Z M251.745,51.333 C249.79,51.333 248.022,50.568 248.022,49.48 L248.022,49.004 C248.022,47.916 249.79,47.151 251.745,47.151 C253.7,47.151 255.468,47.916 255.468,49.004 L255.468,49.48 C255.468,50.568 253.7,51.333 251.745,51.333 Z M252.527,58.014 L252.527,54.801 L258.885,54.801 L258.885,53.781 L244.605,53.781 L244.605,54.801 L251.337,54.801 L251.337,58.014 L252.527,58.014 Z M257.1,61.125 L257.1,60.071 L247.937,60.071 L247.937,56.535 L246.73,56.535 L246.73,61.125 L257.1,61.125 Z" id="" fill="#6E6E6E" fill-rule="nonzero"></path>
            <path d="M333.723,55.056 C334.505,54.495 335.661,53.577 336.256,53.05 C336.97,52.421 337.514,51.86 337.582,51.605 L337.599,51.605 C337.667,51.826 338.33,52.404 339.129,53.05 C339.639,53.458 340.455,54.07 341.135,54.546 L341.832,53.696 C340.863,53.05 339.911,52.336 339.367,51.877 C338.262,50.925 338.143,50.466 338.143,49.497 L338.143,48.613 L341.543,48.613 L341.543,47.576 L338.143,47.576 L338.143,45.638 L336.936,45.638 L336.936,47.576 L333.349,47.576 L333.349,48.613 L336.936,48.613 L336.936,49.548 C336.936,50.432 336.749,51.027 335.916,51.843 C335.083,52.659 333.995,53.492 332.992,54.206 L333.723,55.056 Z M345.47,55.073 L345.47,45.774 L344.28,45.774 L344.28,50.262 L341.101,50.262 L341.101,51.316 L344.28,51.316 L344.28,55.073 L345.47,55.073 Z M340.846,61.72 C343.481,61.72 345.555,60.632 345.555,58.898 L345.555,58.252 C345.555,56.518 343.481,55.43 340.846,55.43 C338.211,55.43 336.137,56.484 336.137,58.235 L336.137,58.898 C336.137,60.632 338.211,61.72 340.846,61.72 Z M340.846,60.7 C338.942,60.7 337.293,59.986 337.293,58.83 L337.293,58.32 C337.293,57.164 338.942,56.45 340.846,56.45 C342.75,56.45 344.399,57.164 344.399,58.32 L344.399,58.83 C344.399,59.986 342.75,60.7 340.846,60.7 Z M354.905,61.312 L354.905,54.954 L361.45,54.954 L361.45,53.917 L358.713,53.917 C359.036,52.37 359.223,50.449 359.223,48.647 L359.223,46.794 L349.04,46.794 L349.04,47.831 L357.999,47.831 L357.999,49.038 C357.999,50.517 357.812,52.387 357.472,53.917 L347.17,53.917 L347.17,54.954 L353.698,54.954 L353.698,61.312 L354.905,61.312 Z" id="" fill="#6E6E6E" fill-rule="nonzero"></path>
            <path d="M454.756,53.611 L454.756,50.194 L457.136,50.194 L457.136,49.14 L454.756,49.14 L454.756,45.774 L453.566,45.774 L453.566,53.611 L454.756,53.611 Z M452.155,52.387 L452.019,51.316 C449.435,51.656 447.99,51.724 444.692,51.724 L444.692,46.624 L443.485,46.624 L443.485,52.812 L444.343322,52.8110915 C448.30488,52.8020229 449.64229,52.7209677 452.155,52.387 Z M454.756,61.278 L454.756,54.529 L453.583,54.529 L453.583,56.722 L446.596,56.722 L446.596,54.529 L445.423,54.529 L445.423,61.278 L454.756,61.278 Z M453.583,60.207 L446.596,60.207 L446.596,57.776 L453.583,57.776 L453.583,60.207 Z M469.342,53.033 L469.342,46.369 L468.169,46.369 L468.169,48.698 L460.451,48.698 L460.451,46.369 L459.278,46.369 L459.278,53.033 L469.342,53.033 Z M468.169,52.03 L460.451,52.03 L460.451,49.735 L468.169,49.735 L468.169,52.03 Z M464.922,61.312 L464.922,56.144 L471.45,56.144 L471.45,55.107 L457.17,55.107 L457.17,56.144 L463.715,56.144 L463.715,61.312 L464.922,61.312 Z" id="" fill="#6E6E6E" fill-rule="nonzero"></path>
            <path d="M553.063,53.033 C554.44,52.489 555.766,51.877 556.684,51.418 C557.806,50.857 558.469,50.364 558.673,49.973 L558.69,49.973 C558.877,50.364 559.557,50.84 560.679,51.401 C561.597,51.86 562.889,52.455 564.266,52.999 L564.776,52.064 C563.518,51.588 562.141,50.976 561.053,50.415 C559.744,49.752 559.285,49.191 559.285,47.678 L559.285,46.318 L558.078,46.318 L558.078,47.678 C558.078,49.191 557.602,49.752 556.293,50.415 C555.205,50.976 553.794,51.605 552.536,52.081 L553.063,53.033 Z M559.302,61.312 L559.302,55.736 L565.83,55.736 L565.83,54.699 L551.55,54.699 L551.55,55.736 L558.095,55.736 L558.095,61.312 L559.302,61.312 Z M579.107,55.209 L579.107,45.774 L577.934,45.774 L577.934,47.95 L574.687,47.95 L574.687,48.987 L577.934,48.987 L577.934,50.721 L574.687,50.721 L574.687,51.758 L577.934,51.758 L577.934,55.209 L579.107,55.209 Z M575.605,54.104 L575.486,53.067 C573.412,53.305 571.27,53.339 568.346,53.339 L568.346,50.976 L573.497,50.976 L573.497,46.556 L567.173,46.556 L567.173,47.61 L572.324,47.61 L572.324,49.956 L567.173,49.956 L567.173,54.393 L568.031359,54.3922277 C571.755622,54.3850761 573.658207,54.3255862 575.605,54.104 Z M574.466,61.737 C577.22,61.737 579.192,60.683 579.192,58.983 L579.192,58.371 C579.192,56.688 577.22,55.617 574.466,55.617 C571.712,55.617 569.74,56.671 569.74,58.354 L569.74,58.983 C569.74,60.683 571.712,61.737 574.466,61.737 Z M574.466,60.717 C572.409,60.717 570.896,59.952 570.896,58.932 L570.896,58.422 C570.896,57.419 572.409,56.637 574.466,56.637 C576.523,56.637 578.036,57.402 578.036,58.422 L578.036,58.932 C578.036,59.952 576.523,60.717 574.466,60.717 Z" id="" fill="#FF0000" fill-rule="nonzero"></path>
        </g>
        <path d="M253.907,499.73 L253.907,497.084 L244.187,497.084 L244.187,493.169 L250.964,493.169 L250.964,480.047 L247.94,480.047 L247.94,484.151 L237.41,484.151 L237.41,480.047 L234.386,480.047 L234.386,493.169 L241.163,493.169 L241.163,497.084 L231.443,497.084 L231.443,499.73 L253.907,499.73 Z M247.94,490.523 L237.41,490.523 L237.41,486.797 L247.94,486.797 L247.94,490.523 Z M276.371,492.521 L276.371,487.715 L279.935,487.715 L279.935,485.069 L276.371,485.069 L276.371,479.372 L273.347,479.372 L273.347,492.521 L276.371,492.521 Z M256.175,492.359 C256.805,492.323 257.39,492.2735 257.93,492.2105 C258.47,492.1475 259.082,491.981 259.766,491.711 C260.666,491.351 261.503,490.838 262.277,490.172 C263.051,489.506 263.636,488.696 264.032,487.742 C264.536,488.732 265.3055,489.5465 266.3405,490.1855 C267.3755,490.8245 268.559,491.351 269.891,491.765 L269.891,491.765 L271.106,489.497 C270.314,489.281 269.5625,488.984 268.8515,488.606 C268.1405,488.228 267.515,487.7915 266.975,487.2965 C266.435,486.8015 266.003,486.2615 265.679,485.6765 C265.355,485.0915 265.193,484.475 265.193,483.827 L265.193,483.827 L265.193,479.561 L260.414,479.561 L260.414,482.207 L262.115,482.207 L262.115,483.827 C262.115,484.565 262.0295,485.2175 261.8585,485.7845 C261.6875,486.3515 261.4535,486.851 261.1565,487.283 C260.8595,487.715 260.5175,488.0795 260.1305,488.3765 C259.7435,488.6735 259.334,488.912 258.902,489.092 C258.254,489.38 257.714,489.5465 257.282,489.5915 C256.85,489.6365 256.481,489.659 256.175,489.659 L256.175,489.659 L256.175,492.359 Z M269.351,505.103 C270.269,505.103 271.1555,504.9635 272.0105,504.6845 C272.8655,504.4055 273.617,504.0005 274.265,503.4695 C274.913,502.9385 275.4305,502.2995 275.8175,501.5525 C276.2045,500.8055 276.398,499.955 276.398,499.001 C276.398,498.065 276.2045,497.219 275.8175,496.463 C275.4305,495.707 274.913,495.068 274.265,494.546 C273.617,494.024 272.8655,493.619 272.0105,493.331 C271.1555,493.043 270.269,492.899 269.351,492.899 C268.433,492.899 267.5465,493.0385 266.6915,493.3175 C265.8365,493.5965 265.085,494.0015 264.437,494.5325 C263.789,495.0635 263.2715,495.707 262.8845,496.463 C262.4975,497.219 262.304,498.065 262.304,499.001 C262.304,499.955 262.4975,500.8055 262.8845,501.5525 C263.2715,502.2995 263.789,502.9385 264.437,503.4695 C265.085,504.0005 265.8365,504.4055 266.6915,504.6845 C267.5465,504.9635 268.433,505.103 269.351,505.103 Z M269.351,502.538 C268.775,502.538 268.2395,502.457 267.7445,502.295 C267.2495,502.133 266.822,501.9035 266.462,501.6065 C266.102,501.3095 265.8185,500.9405 265.6115,500.4995 C265.4045,500.0585 265.301,499.559 265.301,499.001 C265.301,498.443 265.4045,497.9435 265.6115,497.5025 C265.8185,497.0615 266.102,496.6925 266.462,496.3955 C266.822,496.0985 267.2495,495.869 267.7445,495.707 C268.2395,495.545 268.775,495.464 269.351,495.464 C269.927,495.464 270.4625,495.545 270.9575,495.707 C271.4525,495.869 271.88,496.0985 272.24,496.3955 C272.6,496.6925 272.8835,497.0615 273.0905,497.5025 C273.2975,497.9435 273.401,498.443 273.401,499.001 C273.401,499.559 273.2975,500.0585 273.0905,500.4995 C272.8835,500.9405 272.6,501.3095 272.24,501.6065 C271.88,501.9035 271.4525,502.133 270.9575,502.295 C270.4625,502.457 269.927,502.538 269.351,502.538 Z M303.587,495.14 L303.587,492.494 L293.867,492.494 L293.867,489.956 L301.265,489.956 L301.265,487.337 L298.241,487.337 L298.241,482.261 L300.752,482.261 L300.752,479.642 L284.012,479.642 L284.012,482.261 L286.55,482.261 L286.55,487.337 L283.526,487.337 L283.526,489.956 L290.843,489.956 L290.843,492.494 L281.123,492.494 L281.123,495.14 L303.587,495.14 Z M295.271,487.337 L289.52,487.337 L289.52,482.261 L295.271,482.261 L295.271,487.337 Z M300.887,504.32 L300.887,501.674 L287.198,501.674 L287.198,496.922 L284.174,496.922 L284.174,504.32 L300.887,504.32 Z M332.828,491.333 L333.854,488.903 C332.828,488.705 331.8425,488.3945 330.8975,487.9715 C329.9525,487.5485 329.12,487.0445 328.4,486.4595 C327.68,485.8745 327.104,485.2265 326.672,484.5155 C326.24,483.8045 326.024,483.071 326.024,482.315 L326.024,482.315 L326.024,479.345 L321.11,479.345 L321.11,481.991 L322.946,481.991 L322.946,482.315 C322.946,483.035 322.82,483.6965 322.568,484.2995 C322.316,484.9025 321.9875,485.438 321.5825,485.906 C321.1775,486.374 320.714,486.7745 320.192,487.1075 C319.67,487.4405 319.13,487.706 318.572,487.904 C317.87,488.156 317.1905,488.327 316.5335,488.417 C315.8765,488.507 315.395,488.552 315.089,488.552 L315.089,488.552 L315.089,491.279 C315.881,491.243 316.5965,491.1755 317.2355,491.0765 C317.8745,490.9775 318.536,490.802 319.22,490.55 C319.814,490.334 320.3585,490.0955 320.8535,489.8345 C321.3485,489.5735 321.8165,489.272 322.2575,488.93 C322.6985,488.588 323.117,488.201 323.513,487.769 C323.909,487.337 324.287,486.842 324.647,486.284 C324.935,486.878 325.3625,487.4495 325.9295,487.9985 C326.4965,488.5475 327.149,489.0515 327.887,489.5105 C328.625,489.9695 329.417,490.3565 330.263,490.6715 C331.109,490.9865 331.964,491.207 332.828,491.333 L332.828,491.333 Z M325.997,503.699 L325.997,496.247 L335.717,496.247 L335.717,493.601 L313.253,493.601 L313.253,496.247 L322.973,496.247 L322.973,503.699 L325.997,503.699 Z M359.126,493.169 L359.126,479.372 L356.102,479.372 L356.102,481.154 L351.674,481.154 L351.674,483.8 L356.102,483.8 L356.102,485.906 L351.674,485.906 L351.674,488.552 L356.102,488.552 L356.102,493.169 L359.126,493.169 Z M344.168,492.548 C344.96,492.548 345.752,492.5345 346.544,492.5075 C347.336,492.4805 348.101,492.44 348.839,492.386 C349.577,492.332 350.2745,492.2555 350.9315,492.1565 C351.5885,492.0575 352.169,491.927 352.673,491.765 L352.673,491.765 L352.214,489.335 C351.134,489.587 349.9595,489.7445 348.6905,489.8075 C347.4215,489.8705 345.887,489.902 344.087,489.902 L342.467,489.902 L342.467,487.391 L350.216,487.391 L350.216,479.831 L339.497,479.831 L339.497,482.477 L347.273,482.477 L347.273,484.907 L339.497,484.907 L339.497,492.548 L344.168,492.548 Z M351.593,505.13 C352.511,505.13 353.3975,505.004 354.2525,504.752 C355.1075,504.5 355.859,504.1265 356.507,503.6315 C357.155,503.1365 357.6725,502.529 358.0595,501.809 C358.4465,501.089 358.64,500.252 358.64,499.298 C358.64,498.362 358.4465,497.5295 358.0595,496.8005 C357.6725,496.0715 357.155,495.4595 356.507,494.9645 C355.859,494.4695 355.1075,494.096 354.2525,493.844 C353.3975,493.592 352.511,493.466 351.593,493.466 C350.675,493.466 349.7885,493.592 348.9335,493.844 C348.0785,494.096 347.327,494.4695 346.679,494.9645 C346.031,495.4595 345.5135,496.0715 345.1265,496.8005 C344.7395,497.5295 344.546,498.362 344.546,499.298 C344.546,500.252 344.7395,501.089 345.1265,501.809 C345.5135,502.529 346.031,503.1365 346.679,503.6315 C347.327,504.1265 348.0785,504.5 348.9335,504.752 C349.7885,505.004 350.675,505.13 351.593,505.13 Z M351.593,502.565 C351.017,502.565 350.4815,502.493 349.9865,502.349 C349.4915,502.205 349.064,501.998 348.704,501.728 C348.344,501.458 348.0605,501.1205 347.8535,500.7155 C347.6465,500.3105 347.543,499.838 347.543,499.298 C347.543,498.758 347.6465,498.2855 347.8535,497.8805 C348.0605,497.4755 348.344,497.138 348.704,496.868 C349.064,496.598 349.4915,496.391 349.9865,496.247 C350.4815,496.103 351.017,496.031 351.593,496.031 C352.169,496.031 352.7045,496.103 353.1995,496.247 C353.6945,496.391 354.122,496.598 354.482,496.868 C354.842,497.138 355.1255,497.4755 355.3325,497.8805 C355.5395,498.2855 355.643,498.758 355.643,499.298 C355.643,499.838 355.5395,500.3105 355.3325,500.7155 C355.1255,501.1205 354.842,501.458 354.482,501.728 C354.122,501.998 353.6945,502.205 353.1995,502.349 C352.7045,502.493 352.169,502.565 351.593,502.565 Z" id="" fill="#242424" fill-rule="nonzero"></path>
    </g>
</svg>