<?xml version="1.0" encoding="UTF-8"?>
<svg width="625px" height="761px" viewBox="0 0 625 761" version="1.1" xmlns="http://www.w3.org/2000/svg" xmlns:xlink="http://www.w3.org/1999/xlink">
    <title>img-m-01-2</title>
    <defs>
        <polygon id="path-1" points="0.8759 0.2963 115.423402 0.2963 115.423402 203 0.8759 203"></polygon>
        <polygon id="path-3" points="0.6814 0.171614805 119.2734 0.171614805 119.2734 228 0.6814 228"></polygon>
        <polygon id="path-5" points="0.3212 0.9932 143.9742 0.9932 143.9742 214 0.3212 214"></polygon>
        <polygon id="path-7" points="0.929239129 0.6522 3.7263 0.6522 3.7263 61 0.929239129 61"></polygon>
        <polygon id="path-9" points="0.8188 0.0955326773 112.049012 0.0955326773 112.049012 214 0.8188 214"></polygon>
        <polygon id="path-11" points="0.4497 0.39742019 17.9145891 0.39742019 17.9145891 96 0.4497 96"></polygon>
        <polygon id="path-13" points="0.375434138 0.314850116 6.3093 0.314850116 6.3093 54 0.375434138 54"></polygon>
    </defs>
    <g id="img-m-01-2" stroke="none" stroke-width="1" fill="none" fill-rule="evenodd">
        <g id="Group-190" transform="translate(61.000000, 153.000000)">
            <g id="Group-73" transform="translate(284.000000, 0.258000)">
                <path d="M190.7175,439.7902 L27.8795,439.7902 C12.7875,439.7902 0.5525,427.5552 0.5525,412.4622 L0.5525,27.9472 C0.5525,12.8542 12.7875,0.6202 27.8795,0.6202 L190.7175,0.6202 C205.8105,0.6202 218.0455,12.8542 218.0455,27.9472 L218.0455,412.4622 C218.0455,427.5552 205.8105,439.7902 190.7175,439.7902" id="Fill-1" fill="#FFFFFF"></path>
                <path d="M190.7175,439.7902 L27.8795,439.7902 C12.7875,439.7902 0.5525,427.5552 0.5525,412.4622 L0.5525,27.9472 C0.5525,12.8542 12.7875,0.6202 27.8795,0.6202 L190.7175,0.6202 C205.8105,0.6202 218.0455,12.8542 218.0455,27.9472 L218.0455,412.4622 C218.0455,427.5552 205.8105,439.7902 190.7175,439.7902 Z" id="Stroke-3" stroke="#C7CBD2" stroke-width="1.757"></path>
                <path d="M97.9372,130.487 C97.9372,128.196 96.9082,126.934 95.4132,126.934 C93.9172,126.934 92.8892,128.196 92.8892,130.487 C92.8892,132.779 93.9172,134.04 95.4132,134.04 C96.9082,134.04 97.9372,132.779 97.9372,130.487 M91.9942,130.487 C91.9942,127.755 93.4282,126.126 95.4132,126.126 C97.3982,126.126 98.8432,127.755 98.8432,130.487 C98.8432,133.219 97.3982,134.849 95.4132,134.849 C93.4282,134.849 91.9942,133.219 91.9942,130.487" id="Fill-5" fill="#263238"></path>
                <polygon id="Fill-7" fill="#263238" points="107.3923 132.5211 105.6763 132.5211 105.6763 134.7751 104.7943 134.7751 104.7943 132.5211 99.9553 132.5211 99.9553 131.8841 104.4993 126.1991 105.4803 126.1991 101.0943 131.7371 104.8193 131.7371 104.8193 129.7521 105.6763 129.7521 105.6763 131.7371 107.3923 131.7371"></polygon>
                <path d="M108.2829,134.1632 C108.2829,133.7832 108.5769,133.5012 108.9309,133.5012 C109.2869,133.5012 109.5939,133.7832 109.5939,134.1632 C109.5939,134.5432 109.2869,134.8372 108.9309,134.8372 C108.5769,134.8372 108.2829,134.5432 108.2829,134.1632 M108.2829,128.9432 C108.2829,128.5642 108.5769,128.2822 108.9309,128.2822 C109.2869,128.2822 109.5939,128.5642 109.5939,128.9432 C109.5939,129.3232 109.2869,129.6172 108.9309,129.6172 C108.5769,129.6172 108.2829,129.3232 108.2829,128.9432" id="Fill-9" fill="#263238"></path>
                <path d="M116.6862,132.2516 C116.6862,133.7096 115.6702,134.8496 113.5742,134.8496 C112.3372,134.8496 111.1612,134.4196 110.4992,133.7466 L110.9272,133.0476 C111.4792,133.6236 112.4592,134.0406 113.5622,134.0406 C115.0202,134.0406 115.7912,133.3296 115.7912,132.2886 C115.7912,131.1856 115.1062,130.4996 112.9252,130.4996 L111.0992,130.4996 L111.5402,126.1986 L116.2332,126.1986 L116.2332,126.9826 L112.3122,126.9826 L112.0182,129.7156 L113.1222,129.7156 C115.7062,129.7156 116.6862,130.7326 116.6862,132.2516" id="Fill-11" fill="#263238"></path>
                <path d="M123.3727,132.2394 C123.3727,131.1124 122.5407,130.3894 121.2167,130.3894 C119.9057,130.3894 119.0117,131.1984 119.0117,132.2634 C119.0117,133.2074 119.7957,134.1014 121.2777,134.1014 C122.5167,134.1014 123.3727,133.3794 123.3727,132.2394 M124.2427,132.2154 C124.2427,133.8204 122.9807,134.8494 121.3137,134.8494 C119.0357,134.8494 117.7987,133.2684 117.7987,130.5604 C117.7987,127.6444 119.3917,126.1254 121.7197,126.1254 C122.4897,126.1254 123.2147,126.2604 123.7527,126.5914 L123.3967,127.3024 C122.9567,127.0084 122.3687,126.8974 121.7317,126.8974 C119.8817,126.8974 118.6927,128.0864 118.6927,130.4144 C118.6927,130.6104 118.7057,130.8554 118.7297,131.1124 C119.1577,130.1694 120.1637,129.6424 121.3517,129.6424 C123.0547,129.6424 124.2427,130.6464 124.2427,132.2154" id="Fill-13" fill="#263238"></path>
                <path d="M87.4743,380.2502 C76.1443,368.9202 76.1443,350.5512 87.4743,339.2212 C98.8043,327.8912 117.1733,327.8912 128.5033,339.2212 C139.8323,350.5512 139.8323,368.9202 128.5033,380.2502 C117.1733,391.5802 98.8043,391.5802 87.4743,380.2502" id="Fill-15" fill="#FF0000"></path>
                <path d="M95.2819,364.5036 L100.4559,363.2866 C101.0939,363.1356 101.5459,362.5666 101.5459,361.9106 L101.5459,360.8436 C101.5459,360.8436 101.3229,359.0326 103.0319,358.9196 C104.2579,358.8386 112.0399,358.9196 112.0399,358.9196 C112.0399,358.9196 114.0879,358.8806 114.0519,360.4936 L114.0519,362.0436 C114.0519,362.5776 114.4009,363.0476 114.9119,363.2026 L120.5229,364.8996 C121.1189,365.0796 121.7539,364.7786 121.9919,364.2036 L122.7089,362.4736 C122.8399,362.1556 122.9039,361.8166 122.8859,361.4736 C122.8519,360.7956 122.5909,359.7366 121.9229,358.8806 C120.8089,357.4546 115.5649,354.0826 105.5629,354.5676 C96.0379,355.0296 93.9619,359.0456 93.4149,360.0046 C93.0759,360.6016 92.9729,362.0616 93.2369,362.6806 C93.3349,362.9086 93.4959,363.2926 93.6529,363.6706 C93.9189,364.3096 94.6079,364.6626 95.2819,364.5036" id="Fill-17" fill="#FFFFFF"></path>
                <path d="M76.2995,205.2243 C76.2995,217.0803 66.6885,226.6913 54.8315,226.6913 C42.9755,226.6913 33.3635,217.0803 33.3635,205.2243 C33.3635,193.3683 42.9755,183.7573 54.8315,183.7573 C66.6885,183.7573 76.2995,193.3683 76.2995,205.2243" id="Fill-19" fill="#000000"></path>
                <path d="M54.8327,194.6837 C53.1447,194.6837 51.7717,196.0567 51.7717,197.7447 L51.7717,206.1787 C51.7717,207.8647 53.1447,209.2367 54.8327,209.2367 C56.5187,209.2367 57.8917,207.8647 57.8917,206.1787 L57.8917,197.7447 C57.8917,196.0567 56.5187,194.6837 54.8327,194.6837 M54.8327,210.0477 C52.6977,210.0477 50.9617,208.3117 50.9617,206.1787 L50.9617,197.7447 C50.9617,195.6097 52.6977,193.8727 54.8327,193.8727 C56.9667,193.8727 58.7017,195.6097 58.7017,197.7447 L58.7017,206.1787 C58.7017,208.3117 56.9667,210.0477 54.8327,210.0477" id="Fill-21" fill="#FFFFFF"></path>
                <path d="M54.8327,212.7609 C52.5177,212.7609 50.6887,212.0379 49.3987,210.6129 C46.9337,207.8879 47.3307,203.6089 47.3487,203.4279 C47.3707,203.2059 47.5747,203.0349 47.7917,203.0639 C48.0157,203.0859 48.1787,203.2849 48.1557,203.5069 C48.1507,203.5489 47.7787,207.6169 50.0037,210.0719 C51.1327,211.3189 52.7587,211.9499 54.8327,211.9499 C56.8847,211.9499 58.5307,211.3189 59.7277,210.0729 C62.0977,207.6049 61.9597,203.5249 61.9587,203.4839 C61.9487,203.2609 62.1227,203.0719 62.3487,203.0619 C62.5857,203.0899 62.7597,203.2289 62.7697,203.4519 C62.7747,203.6329 62.9197,207.9199 60.3117,210.6349 C58.9567,212.0459 57.1137,212.7609 54.8327,212.7609" id="Fill-23" fill="#FFFFFF"></path>
                <path d="M54.8327,218.695 C54.6087,218.695 54.4277,218.513 54.4277,218.29 L54.4277,212.356 C54.4277,212.133 54.6087,211.95 54.8327,211.95 C55.0557,211.95 55.2377,212.133 55.2377,212.356 L55.2377,218.29 C55.2377,218.513 55.0557,218.695 54.8327,218.695" id="Fill-25" fill="#FFFFFF"></path>
                <path d="M132.6628,205.2243 C132.6628,217.0803 123.0518,226.6913 111.1948,226.6913 C99.3388,226.6913 89.7278,217.0803 89.7278,205.2243 C89.7278,193.3683 99.3388,183.7573 111.1948,183.7573 C123.0518,183.7573 132.6628,193.3683 132.6628,205.2243" id="Fill-27" fill="#000000"></path>
                <path d="M107.8249,205.2536 C107.8249,206.6326 106.7069,207.7516 105.3279,207.7516 C103.9479,207.7516 102.8299,206.6326 102.8299,205.2536 C102.8299,203.8746 103.9479,202.7556 105.3279,202.7556 C106.7069,202.7556 107.8249,203.8746 107.8249,205.2536" id="Fill-29" fill="#FFFFFF"></path>
                <path d="M113.6931,205.2536 C113.6931,206.6326 112.5751,207.7516 111.1951,207.7516 C109.8161,207.7516 108.6971,206.6326 108.6971,205.2536 C108.6971,203.8746 109.8161,202.7556 111.1951,202.7556 C112.5751,202.7556 113.6931,203.8746 113.6931,205.2536" id="Fill-31" fill="#FFFFFF"></path>
                <path d="M119.5602,205.2536 C119.5602,206.6326 118.4422,207.7516 117.0622,207.7516 C115.6832,207.7516 114.5652,206.6326 114.5652,205.2536 C114.5652,203.8746 115.6832,202.7556 117.0622,202.7556 C118.4422,202.7556 119.5602,203.8746 119.5602,205.2536" id="Fill-33" fill="#FFFFFF"></path>
                <path d="M107.8249,199.2946 C107.8249,200.6736 106.7069,201.7926 105.3279,201.7926 C103.9479,201.7926 102.8299,200.6736 102.8299,199.2946 C102.8299,197.9146 103.9479,196.7966 105.3279,196.7966 C106.7069,196.7966 107.8249,197.9146 107.8249,199.2946" id="Fill-35" fill="#FFFFFF"></path>
                <path d="M113.6931,199.2946 C113.6931,200.6736 112.5751,201.7926 111.1951,201.7926 C109.8161,201.7926 108.6971,200.6736 108.6971,199.2946 C108.6971,197.9146 109.8161,196.7966 111.1951,196.7966 C112.5751,196.7966 113.6931,197.9146 113.6931,199.2946" id="Fill-37" fill="#FFFFFF"></path>
                <path d="M119.5602,199.2946 C119.5602,200.6736 118.4422,201.7926 117.0622,201.7926 C115.6832,201.7926 114.5652,200.6736 114.5652,199.2946 C114.5652,197.9146 115.6832,196.7966 117.0622,196.7966 C118.4422,196.7966 119.5602,197.9146 119.5602,199.2946" id="Fill-39" fill="#FFFFFF"></path>
                <path d="M107.8249,211.1544 C107.8249,212.5334 106.7069,213.6524 105.3279,213.6524 C103.9479,213.6524 102.8299,212.5334 102.8299,211.1544 C102.8299,209.7744 103.9479,208.6564 105.3279,208.6564 C106.7069,208.6564 107.8249,209.7744 107.8249,211.1544" id="Fill-41" fill="#FFFFFF"></path>
                <path d="M113.6931,211.1544 C113.6931,212.5334 112.5751,213.6524 111.1951,213.6524 C109.8161,213.6524 108.6971,212.5334 108.6971,211.1544 C108.6971,209.7744 109.8161,208.6564 111.1951,208.6564 C112.5751,208.6564 113.6931,209.7744 113.6931,211.1544" id="Fill-43" fill="#FFFFFF"></path>
                <path d="M119.5602,211.1544 C119.5602,212.5334 118.4422,213.6524 117.0622,213.6524 C115.6832,213.6524 114.5652,212.5334 114.5652,211.1544 C114.5652,209.7744 115.6832,208.6564 117.0622,208.6564 C118.4422,208.6564 119.5602,209.7744 119.5602,211.1544" id="Fill-45" fill="#FFFFFF"></path>
                <path d="M189.0261,205.2243 C189.0261,217.0803 179.4151,226.6913 167.5581,226.6913 C155.7031,226.6913 146.0911,217.0803 146.0911,205.2243 C146.0911,193.3683 155.7031,183.7573 167.5581,183.7573 C179.4151,183.7573 189.0261,193.3683 189.0261,205.2243" id="Fill-47" fill="#000000"></path>
                <path d="M157.4802,202.4186 L157.4802,207.5036 C157.4802,207.7196 157.6552,207.8956 157.8712,207.8956 L160.6752,207.8956 C160.7622,207.8956 160.8472,207.9236 160.9162,207.9786 L165.2902,211.3966 C165.5452,211.5966 165.9202,211.4146 165.9202,211.0886 L165.9202,199.2106 C165.9202,198.8926 165.5602,198.7076 165.3022,198.8936 L161.0662,201.9376 C161.0002,201.9846 160.9212,202.0106 160.8402,202.0116 L157.8692,202.0276 C157.6542,202.0296 157.4802,202.2036 157.4802,202.4186" id="Fill-49" fill="#FFFFFF"></path>
                <path d="M174.0515,213.8087 C173.9345,213.8087 173.8175,213.7667 173.7235,213.6837 C173.5205,213.5017 173.5035,213.1907 173.6845,212.9877 C176.1295,210.2607 177.2885,207.4417 177.1295,204.6087 C176.8915,200.3687 173.7545,197.5277 173.7245,197.4987 C173.5205,197.3187 173.5025,197.0077 173.6835,196.8047 C173.8645,196.6027 174.1745,196.5827 174.3775,196.7657 C174.5205,196.8917 177.8515,199.9097 178.1135,204.5537 C178.2865,207.6567 177.0445,210.7157 174.4175,213.6447 C174.3205,213.7537 174.1855,213.8087 174.0515,213.8087" id="Fill-51" fill="#FFFFFF"></path>
                <path d="M171.3415,211.4084 C171.2105,211.4084 171.0785,211.3554 170.9825,211.2524 C170.7965,211.0544 170.8075,210.7434 171.0045,210.5574 C172.7385,208.9314 173.6205,207.1604 173.6215,205.2924 C173.6255,202.0874 171.0305,199.6064 171.0045,199.5814 C170.8075,199.3954 170.7965,199.0834 170.9825,198.8864 C171.1705,198.6884 171.4825,198.6794 171.6785,198.8644 C171.7975,198.9754 174.6065,201.6494 174.6065,205.2854 C174.6065,207.4394 173.6205,209.4544 171.6785,211.2754 C171.5815,211.3644 171.4615,211.4084 171.3415,211.4084" id="Fill-53" fill="#FFFFFF"></path>
                <path d="M168.9411,208.9303 C168.8141,208.9303 168.6871,208.8813 168.5911,208.7843 C168.4011,208.5913 168.4021,208.2803 168.5951,208.0883 C171.6181,205.0933 168.6981,201.7053 168.5721,201.5623 C168.3931,201.3583 168.4121,201.0483 168.6161,200.8673 C168.8201,200.6873 169.1291,200.7073 169.3091,200.9093 C169.3461,200.9513 172.9761,205.1333 169.2881,208.7873 C169.1911,208.8833 169.0671,208.9303 168.9411,208.9303" id="Fill-55" fill="#FFFFFF"></path>
                <path d="M75.8942,273.8268 C75.8942,285.6828 66.2832,295.2938 54.4272,295.2938 C42.5712,295.2938 32.9592,285.6828 32.9592,273.8268 C32.9592,261.9708 42.5712,252.3598 54.4272,252.3598 C66.2832,252.3598 75.8942,261.9708 75.8942,273.8268" id="Fill-57" fill="#000000"></path>
                <path d="M54.5583,281.2526 C54.1963,281.2526 53.9023,280.9596 53.9023,280.5966 L53.9023,267.0576 C53.9023,266.6946 54.1963,266.4016 54.5583,266.4016 C54.9203,266.4016 55.2143,266.6946 55.2143,267.0576 L55.2143,280.5966 C55.2143,280.9596 54.9203,281.2526 54.5583,281.2526" id="Fill-59" fill="#FFFFFF"></path>
                <path d="M60.9938,274.4826 L47.8608,274.4826 C47.4988,274.4826 47.2048,274.1896 47.2048,273.8266 C47.2048,273.4636 47.4988,273.1706 47.8608,273.1706 L60.9938,273.1706 C61.3558,273.1706 61.6488,273.4636 61.6488,273.8266 C61.6488,274.1896 61.3558,274.4826 60.9938,274.4826" id="Fill-61" fill="#FFFFFF"></path>
                <path d="M187.3483,273.8268 C187.3483,285.6828 177.7373,295.2938 165.8813,295.2938 C154.0253,295.2938 144.4133,285.6828 144.4133,273.8268 C144.4133,261.9708 154.0253,252.3598 165.8813,252.3598 C177.7373,252.3598 187.3483,261.9708 187.3483,273.8268" id="Fill-63" fill="#000000"></path>
                <path d="M167.3542,274.0934 C168.8012,273.4864 169.8302,271.9944 169.8382,270.2364 C169.8482,267.9334 168.1052,266.0584 165.9462,266.04836 C163.7872,266.0384 162.0292,267.8974 162.0192,270.2004 C162.0112,271.9744 163.0472,273.4844 164.5102,274.0934 C158.4942,275.0004 158.7662,281.5394 158.7662,281.5394 L172.9952,281.6054 C172.9952,281.6054 173.3192,274.9944 167.3542,274.0934" id="Fill-65" fill="#ECECEC"></path>
                <path d="M131.6218,273.8268 C131.6218,285.6828 122.0108,295.2938 110.1538,295.2938 C98.2988,295.2938 88.6858,285.6828 88.6858,273.8268 C88.6858,261.9708 98.2988,252.3598 110.1538,252.3598 C122.0108,252.3598 131.6218,261.9708 131.6218,273.8268" id="Fill-67" fill="#000000"></path>
                <path d="M110.1891,278.7013 L105.8491,278.7013 C104.3551,278.7013 103.1441,277.4903 103.1441,275.9963 L103.1441,271.6573 C103.1441,270.1633 104.3551,268.9523 105.8491,268.9523 L110.1891,268.9523 C111.6821,268.9523 112.8931,270.1633 112.8931,271.6573 L112.8931,275.9963 C112.8931,277.4903 111.6821,278.7013 110.1891,278.7013" id="Fill-69" fill="#ECECEC"></path>
                <path d="M113.78,275.5592 L113.78,272.2552 L116.245,269.6152 C116.573,269.2622 117.164,269.4952 117.164,269.9772 L117.164,277.4832 C117.164,277.9472 116.611,278.1882 116.271,277.8722 L113.78,275.5592 Z" id="Fill-71" fill="#ECECEC"></path>
            </g>
            <path d="M378.106774,96.7476322 L378.106774,93.0054427 L373.152828,93.0054427 L373.152828,70.8730648 L364.706171,70.8730648 L364.706171,74.6152543 L368.947319,74.6152543 L368.947319,93.0054427 L363.993373,93.0054427 L363.993373,96.7476322 L378.106774,96.7476322 Z M395.534685,96.7476322 L395.534685,93.0054427 L390.580739,93.0054427 L390.580739,70.8730648 L382.134082,70.8730648 L382.134082,74.6152543 L386.37523,74.6152543 L386.37523,93.0054427 L381.421284,93.0054427 L381.421284,96.7476322 L395.534685,96.7476322 Z M414.103073,96.7476322 L414.103073,91.1521679 L417.667063,91.1521679 L417.667063,87.5168981 L414.103073,87.5168981 L414.103073,70.8730648 L410.360883,70.8730648 L396.995921,88.0158567 L397.673079,91.1521679 L409.933204,91.1521679 L409.933204,96.7476322 L414.103073,96.7476322 Z M409.933204,87.5168981 L402.056786,87.5168981 L409.933204,77.0387675 L409.933204,87.5168981 Z" id="114" fill="#000000" fill-rule="nonzero"></path>
            <g id="Group-189" transform="translate(0.000000, 104.258000)">
                <path d="M198.6315,220.2409 C195.9025,218.3769 194.5975,212.9619 193.7595,210.1709 C190.9625,200.8439 189.1595,189.5799 183.3565,181.4909 C177.4765,173.2949 169.2345,167.6139 162.7135,160.0609 C160.3225,157.2899 157.1385,154.4859 155.7785,151.0369 C154.0995,146.7809 154.5385,142.5069 154.5385,142.5069 C154.5385,142.5069 156.0615,139.7849 157.0945,135.2259 C157.9455,131.4689 158.3235,126.0519 158.4815,123.4629 C158.7585,118.8889 158.8545,113.6199 158.0875,109.8799 C157.6655,107.8159 153.6275,107.0979 152.3095,105.5999 C147.1815,99.7619 144.3795,89.6579 146.8605,82.3979 C150.1195,72.8579 157.8415,65.2169 164.6955,58.0669 C174.3925,47.9529 186.0775,33.6119 201.6865,34.0589 C207.5775,34.2279 213.3555,36.8679 218.3655,39.6989 C221.8355,41.6589 226.3425,42.4869 229.2655,45.3379 C238.2245,54.0789 239.5025,65.3419 239.5025,76.9189 C239.5025,90.9119 237.5655,103.4869 233.7915,116.9899 C232.6415,121.1059 229.9195,126.5539 227.1205,129.8299 C226.0575,131.0759 221.3845,136.1279 221.3845,136.1279 C221.3845,136.1279 220.1495,150.4159 219.3565,157.6429 C218.5755,164.7469 221.7105,170.1349 222.1625,176.9779 C222.8055,186.6879 217.0095,199.8909 211.9255,208.0759 C209.6555,211.7269 206.7815,216.1889 203.5025,219.0329 C202.2025,220.1589 200.4605,221.4909 198.6315,220.2409" id="Fill-74" fill="#FFEDDE"></path>
                <g id="Group-78" transform="translate(235.000000, 161.000000)">
                    <mask id="mask-2" fill="white">
                        <use xlink:href="#path-1"></use>
                    </mask>
                    <g id="Clip-77"></g>
                    <path d="M113.6159,109.5363 C109.4009,94.1173 103.2729,85.8693 96.2759,74.4833 C92.7599,68.7613 87.7829,61.8213 84.8789,55.7483 C81.9209,49.5643 80.2089,42.2203 76.8159,34.3643 C74.3759,28.7083 70.3189,22.3283 66.0989,19.3343 C63.6959,17.6273 57.8989,15.9703 57.8989,15.9703 C57.8989,15.9703 32.6879,7.7443 20.7429,5.6243 C14.2929,4.4803 0.8759,0.2963 0.8759,0.2963 C0.8759,0.2963 3.5959,16.9473 4.4339,24.2983 C4.7479,27.0643 3.6369,28.4273 3.6369,28.4273 C3.6369,28.4273 13.8479,70.2063 16.2939,91.0873 C18.7739,112.2653 18.3479,133.5843 19.6299,154.8453 C20.4269,168.0523 21.5769,181.2253 21.5769,194.4553 C21.5769,195.1563 21.8989,199.8693 22.1189,203.0003 L64.0919,203.0003 C63.6189,198.4793 62.7579,190.0193 62.7579,188.3953 C62.7579,175.4233 64.1199,166.4073 64.1199,153.4873 C64.1199,151.3873 63.9629,136.5883 63.9629,136.5883 C63.9629,136.5883 73.2709,144.5123 76.2969,147.1693 C79.0599,149.5943 84.1279,153.3393 87.9179,154.7163 C94.5839,157.1393 101.3759,158.0923 106.6319,152.9643 C110.0529,149.6283 113.1839,144.9503 114.3809,138.7513 C116.2389,129.1233 115.3829,116.0023 113.6159,109.5363" id="Fill-76" fill="#FFFFFF" mask="url(#mask-2)"></path>
                </g>
                <path d="M262.988,192.2985 C262.988,192.2985 262.421,191.0725 259.141,183.4935 C258.308,181.5645 256,178.5095 254.613,177.1255 C250.797,173.3135 246.595,172.4295 243.025,168.1855 C236.603,160.5475 235.551,156.4095 232.861,147.0935 C232.315,145.2045 231.528,140.2115 230.502,137.5275 C229.323,134.4415 226.801,129.7395 226.801,129.7395 L230.028,124.1915 C230.028,124.1915 233.872,125.6485 235.371,127.1785 C236.759,128.5985 238.626,131.1315 239.492,133.0195 C240.769,135.8075 241.592,139.1535 243.668,141.2025 C244.432,141.9575 246.28,142.7955 248.034,142.3055 C249.79,141.8155 251.053,140.4275 251.642,139.2955 C252.291,138.0465 254.286,131.7215 254.676,129.6575 C255.066,127.5925 255.989,122.3965 255.989,122.3965 C255.989,122.3965 251.355,116.9025 249.863,112.9925 C248.654,109.8225 246.02,103.4125 246.02,103.4125 C246.02,103.4125 236.996,99.2435 235.678,93.8285 C234.903,90.6415 239.426,92.5385 239.857,91.0325 C240.058,90.3225 237.76,88.8125 237.398,88.1655 C236.553,86.6655 236.527,83.9445 237.973,82.6705 C239.035,81.7335 240.472,81.7615 241.557,81.9675 C242.164,82.0815 243.888,82.7865 243.888,82.7865 C243.888,82.7865 243.152,81.1135 243.208,79.3185 C243.25,77.9535 243.838,76.3445 245.039,76.3494884 C248.835,76.3705 254.279,83.2085 257.069,85.1895 C260.504,87.6275 263.904,90.4805 266.462,93.3605 C268.055,95.1545 267.759,96.5275 267.759,96.5275 C267.759,96.5275 270.728,99.7945 271.39,102.7765 C272.265,106.7255 273.562,115.9705 273.768,119.9825 C274.299,130.3165 274.251,141.1615 277.034,151.2205 C278.722,157.3205 281.668,161.6915 284.949,167.0915 C286.064,168.9305 289.12,174.4255 289.12,174.4255 C289.12,174.4255 290.518,175.6845 290.567,177.1105 C290.916,187.1915 282.769,191.6525 274.157,194.4035 C271.425,195.2765 267.48,195.8815 264.703,194.8655 C263.382,194.3825 262.988,192.2985 262.988,192.2985" id="Fill-79" fill="#FFEDDE"></path>
                <g id="Group-83" transform="translate(138.000000, 136.000000)">
                    <mask id="mask-4" fill="white">
                        <use xlink:href="#path-3"></use>
                    </mask>
                    <g id="Clip-82"></g>
                    <path d="M10.1804,66.6491 C12.8114,81.1941 13.3334,99.6301 14.8054,113.9981 C16.8884,134.3261 18.8154,152.2911 19.4084,173.1601 C19.8404,188.3001 21.0824,201.7041 21.0824,216.8571 C21.0824,218.5371 21.5094,224.3551 21.7894,228.0001 L119.2734,228.0001 C119.1974,224.4621 119.0824,218.7891 119.0824,216.8101 C119.0824,203.9951 118.7894,190.9361 118.0194,178.1481 C116.1714,147.4821 114.6234,120.1231 109.9564,89.7701 C108.2164,78.4451 100.9524,53.6011 100.9524,53.6011 C100.9524,53.6011 103.2014,52.1341 102.9944,50.6331 C102.4604,46.7431 101.0174,41.4971 100.4614,37.4551 C100.1224,34.9911 100.6064,31.6701 99.6784,29.2541 C97.9074,24.6471 94.2664,18.5661 91.5394,14.5741 C89.7384,11.9381 82.9494,5.1491 82.9494,5.1491 C82.9494,5.1491 82.0454,11.7111 81.9204,12.4101 C81.2614,16.0481 79.6594,30.3781 79.6594,30.3781 C79.6594,30.3781 81.5884,35.7901 80.6404,42.2631 C79.3514,51.0721 73.6504,57.5991 69.7384,65.4991 C66.6284,71.7751 65.2624,79.4571 65.2624,79.4571 C65.2624,79.4571 59.7494,70.0671 59.3294,69.3711 C53.4524,59.5931 53.2984,48.1481 49.9334,37.1991 C48.3124,31.9261 44.1554,30.3071 39.6154,27.7741 C33.5744,24.4071 27.1724,20.0161 22.6664,15.2201 C20.5754,12.9941 16.6624,6.1611 16.6624,6.1611 L18.7884,0.4271 C18.7884,0.4271 16.2544,-0.3899 14.7484,0.8981 C14.2134,1.3561 11.6384,5.4151 11.0664,6.0431 C8.0924,9.3131 7.6564,8.4861 5.4624,11.2361 C5.0764,11.7221 5.0104,13.3491 5.0104,13.3491 L0.6814,16.1981 C0.6814,16.1981 3.9824,28.1671 4.5984,31.3681 C6.8374,43.0241 8.0634,54.9431 10.1804,66.6491" id="Fill-81" fill="#FFFFFF" mask="url(#mask-4)"></path>
                </g>
                <path d="M146.2897,90.0968 C146.2897,90.0968 143.9757,85.8268 142.5147,81.1788 C139.8157,72.5958 137.3177,60.2418 138.5577,53.5958 C140.5327,42.9908 142.2557,33.6538 150.3687,25.7388 C157.0827,19.1868 168.0927,18.7038 175.0797,15.9218 C178.7277,14.4698 188.8617,10.0278 199.4607,9.8508 C209.1557,9.6888 219.1367,13.4418 227.0287,19.2168 C230.2717,21.5908 231.2487,25.5768 233.9217,28.1848 C238.7867,32.9318 247.3397,36.4248 250.8807,43.3558 C252.4847,46.4948 252.9897,50.9848 251.3407,55.0088 C250.3507,57.4228 248.2157,60.9098 245.7267,63.9908 C243.2367,67.0708 239.6697,68.4128 239.6697,68.4128 C239.6697,68.4128 238.8537,65.2518 238.5187,64.4328 C236.8077,60.2598 235.5147,54.2148 232.1987,50.9798 C228.1607,47.0398 222.2047,48.5258 217.2257,47.6528 C208.3907,46.1018 203.8717,40.0878 197.3287,46.4708 C191.8057,51.8608 185.4517,60.5918 180.7687,66.7848 C176.3047,72.6868 172.6207,77.4288 165.5577,80.8748 C161.2697,82.9678 154.6657,81.0568 150.6007,83.2588 C148.0957,84.6148 146.2897,90.0968 146.2897,90.0968" id="Fill-84" fill="#4D4D4D"></path>
                <path d="M240.28,100.1486 C239.787,99.6076 239.761,102.8206 239.619,103.7186 C239.134,106.8026 238.808,109.8696 238.301,112.9636 C237.119,120.1746 236.832,127.5606 235.781,134.7316 C235.559,136.2546 235.593,140.8886 237.1,141.8696 C237.326,142.0166 237.538,140.1626 237.58,139.9986 C237.884,138.8106 238.203,137.7136 238.42,136.4866 C239.047,132.9416 239.322,129.4086 239.74,125.8376 C240.393,120.2566 241.384,114.7826 242.018,109.2196 C242.26,107.0896 243.457,104.7666 243.457,102.6646 C243.457,101.4576 240.983,100.9206 240.28,100.1486" id="Fill-86" fill="#818C92"></path>
                <path d="M268.9577,219.6945 C268.9577,219.6945 267.5567,213.8755 266.9887,212.2775 C264.9347,206.4855 263.0487,200.4965 260.5967,194.9125 C260.0707,193.7165 259.7077,190.1825 260.7257,188.9415 C261.2707,188.2755 262.8967,192.3965 262.8967,192.3965 C262.8967,192.3965 266.6287,192.6415 270.5957,191.4605 C273.4917,190.5975 276.6287,188.5035 277.9607,187.3415 C281.0827,184.6155 284.5797,181.3335 287.3887,177.3445 C289.0477,174.9895 288.8447,172.8645 290.0457,173.3325 C291.7237,173.9885 297.1907,184.6655 297.1907,184.6655 L300.3377,188.6575 C300.3377,188.6575 299.1967,193.9255 296.3767,199.0165 C293.3777,204.4305 288.4757,209.8195 285.6567,212.0755 C278.6047,217.7195 268.9577,219.6945 268.9577,219.6945" id="Fill-88" fill="#FFFFFF"></path>
                <g id="Group-92" transform="translate(16.000000, 150.000000)">
                    <mask id="mask-6" fill="white">
                        <use xlink:href="#path-5"></use>
                    </mask>
                    <g id="Clip-91"></g>
                    <path d="M57.8562,214.0002 C58.3792,208.5732 59.4332,197.9212 59.9352,194.5932 C61.1832,186.3112 67.5372,162.6082 67.5372,162.6082 C67.5372,162.6082 69.8282,172.3322 70.6282,177.6772 C71.4292,183.0232 72.5992,195.0362 72.4332,200.1122 C72.3692,202.0972 72.6442,209.5202 72.8232,214.0002 L143.9742,214.0002 C143.9312,210.8002 143.8352,205.8462 143.6372,203.1452 C143.3302,198.9392 141.2372,150.1922 140.1922,137.8002 C138.1872,114.0032 137.2612,91.5322 133.8012,67.9012 C132.5782,59.5462 132.1092,50.0952 130.7582,41.7702 C129.5352,34.2252 128.2722,22.1762 125.7372,12.2832 C125.0402,9.5592 122.3922,0.9932 122.3922,0.9932 C122.3922,0.9932 119.1712,1.6722 117.4652,2.2522 C113.3592,3.6512 108.6452,5.9002 105.9002,7.3622 C99.3122,10.8682 89.2592,15.0622 82.1172,17.3852 C64.7342,23.0392 50.9672,25.5742 36.5822,37.6052 C27.8072,44.9432 25.4832,52.3572 22.2832,62.5352 C14.4452,87.4702 12.3162,120.0712 8.7652,147.7902 C6.5942,164.7332 3.3422,179.3812 1.6822,197.1852 C1.3552,200.6952 0.6892,209.2202 0.3212,214.0002 L57.8562,214.0002 Z" id="Fill-90" fill="#FFFFFF" mask="url(#mask-6)"></path>
                </g>
                <path d="M253.3708,152.9796 C253.0668,152.9796 252.7808,152.7976 252.6708,152.5026 C250.1378,145.7966 251.9328,138.1106 253.5168,131.3286 C254.6208,126.5976 255.6638,122.1286 255.1438,118.5866 C254.4348,113.7456 252.4788,108.5536 250.9578,107.4786 C248.6918,105.8736 246.4098,104.4376 244.5758,103.2836 C242.9948,102.2876 241.7458,101.5016 240.9468,100.8946 C237.3918,98.1876 234.0718,94.9766 236.4258,91.6776 C238.3848,88.9236 244.0278,91.6136 247.7598,93.3946 C248.6328,93.8096 249.3848,94.1686 249.7618,94.2876 L251.2218,94.7446 C255.8118,96.1716 259.4388,97.2996 261.6748,100.8346 C262.8558,102.7066 263.8048,105.1576 264.9028,107.9956 C265.9608,110.7296 267.1588,113.8296 268.7548,116.7726 C268.9468,117.1286 268.8078,117.5696 268.4418,117.7576 C268.0808,117.9466 267.6268,117.8116 267.4328,117.4546 C265.7948,114.4296 264.5778,111.2846 263.5058,108.5106 C262.4338,105.7426 261.5098,103.3516 260.4018,101.5986 C258.4588,98.5236 255.2328,97.5216 250.7678,96.1336 L249.3008,95.6746 C248.8228,95.5226 248.0638,95.1616 247.1038,94.7036 C244.4348,93.4316 238.8828,90.7846 237.6508,92.5096 C236.3288,94.3646 237.5508,96.4596 241.8658,99.7446 C242.6108,100.3116 243.8978,101.1216 245.3878,102.0586 C247.2358,103.2226 249.5348,104.6706 251.8348,106.2986 C253.9148,107.7686 255.9398,113.7156 256.6238,118.3806 C257.1818,122.1886 256.1088,126.7866 254.9728,131.6526 C253.3598,138.5586 251.6928,145.6986 254.0708,151.9986 C254.2138,152.3766 254.0158,152.7946 253.6288,152.9346 C253.5448,152.9656 253.4568,152.9796 253.3708,152.9796" id="Fill-93" fill="#000000"></path>
                <path d="M262.8679,193.0275 C262.5569,193.0275 262.2679,192.8385 262.1619,192.5355 C257.0969,178.1485 252.5859,175.5745 248.9609,173.5065 C248.1539,173.0455 247.3899,172.6105 246.6729,172.0725 C242.5159,168.9715 238.8919,164.6825 236.4649,159.9975 C233.8969,155.0395 232.2909,147.5005 230.5919,139.5185 C230.3279,138.2805 229.5069,136.6185 228.6369,134.8575 C227.8889,133.3455 227.1159,131.7805 226.6059,130.3035 C226.4729,129.9225 226.6829,129.5085 227.0739,129.3805 C227.4749,129.2485 227.8889,129.4565 228.0209,129.8385 C228.5029,131.2295 229.2559,132.7525 229.9819,134.2245 C230.8919,136.0685 231.7519,137.8095 232.0539,139.2215 C233.7339,147.1065 235.3199,154.5535 237.7989,159.3395 C240.1259,163.8325 243.5999,167.9445 247.5799,170.9155 C248.2249,171.3975 248.9489,171.8115 249.7149,172.2485 C253.3499,174.3215 258.3289,177.1635 263.5739,192.0625 C263.7089,192.4425 263.5009,192.8575 263.1099,192.9875 C263.0299,193.0145 262.9479,193.0275 262.8679,193.0275" id="Fill-95" fill="#000000"></path>
                <path d="M269.1013,220.1999 C268.7673,220.1999 268.4643,219.9809 268.3783,219.6519 C267.1033,214.7869 265.1193,208.3529 263.7653,204.6829 C262.9593,202.4989 262.2093,200.6189 261.5613,198.9919 C259.1743,193.0069 257.9763,190.0029 260.8113,187.9969 C261.1433,187.7619 261.6123,187.8309 261.8543,188.1579 C262.0963,188.4839 262.0223,188.9399 261.6893,189.1759 C259.8723,190.4609 260.5463,192.4309 262.9533,198.4639 C263.6063,200.1009 264.3603,201.9929 265.1713,204.1909 C266.5383,207.8959 268.5393,214.3879 269.8253,219.2899 C269.9273,219.6799 269.6873,220.0769 269.2873,220.1769 C269.2243,220.1929 269.1633,220.1999 269.1013,220.1999" id="Fill-97" fill="#000000"></path>
                <path d="M331.654,318.4582 C323.626,318.4582 313.561,312.3192 299.92,299.2692 C286.35,286.2892 281.184,268.6782 277.034,254.5262 C275.787,250.2712 274.607,246.2532 273.357,243.0282 C270.848,236.5492 268.835,232.4092 267.061,228.7552 C265.152,224.8312 263.647,221.7302 262.313,217.3062 C262.197,216.9202 262.423,216.5162 262.82,216.4022 C263.211,216.2882 263.631,216.5072 263.746,216.8962 C265.048,221.2092 266.531,224.2642 268.41,228.1312 C270.197,231.8102 272.223,235.9792 274.755,242.5122 C276.027,245.7932 277.214,249.8422 278.47,254.1262 C282.573,268.1122 287.677,285.5182 300.964,298.2272 C316.796,313.3722 327.916,319.1142 335.955,316.2802 C348.307,311.9342 355.571,290.9962 344.703,260.7572 C342.496,254.6142 337.328,246.4852 331.346,237.0732 C327.864,231.5932 323.918,225.3842 320.175,218.9372 C317.852,214.9362 315.592,210.7682 313.407,206.7372 C306.974,194.8702 300.896,183.6612 296.676,183.4422 C296.263,183.4212 295.948,183.0782 295.97,182.6762 C295.992,182.2752 296.348,181.9422 296.755,181.9872 C301.822,182.2492 307.517,192.7562 314.727,206.0572 C316.908,210.0782 319.162,214.2352 321.474,218.2202 C325.203,224.6412 329.14,230.8372 332.616,236.3052 C338.644,245.7912 343.85,253.9822 346.112,260.2752 C357.42,291.7332 349.817,312.9522 336.463,317.6522 C334.94,318.1872 333.342,318.4582 331.654,318.4582" id="Fill-99" fill="#000000"></path>
                <path d="M299.9714,189.4933 C299.7384,189.4933 299.5074,189.3863 299.3634,189.1853 C296.0984,184.7013 294.2234,181.2073 292.8554,178.6563 C291.1234,175.4293 290.1694,173.6533 288.1284,172.9383 C287.7414,172.8023 287.5384,172.3853 287.6774,172.0063 C287.8184,171.6273 288.2434,171.4323 288.6334,171.5663 C291.2234,172.4733 292.3354,174.5453 294.1784,177.9803 C295.5284,180.4943 297.3744,183.9373 300.5794,188.3433 C300.8194,188.6703 300.7414,189.1263 300.4044,189.3583 C300.2724,189.4493 300.1214,189.4933 299.9714,189.4933" id="Fill-101" fill="#000000"></path>
                <path d="M288.8737,174.5885 C288.6227,174.5885 288.3777,174.4645 288.2377,174.2405 C282.9987,165.9185 278.9287,158.8155 276.0947,151.2025 C274.8067,147.7425 274.2167,138.8405 273.6957,130.9865 C273.4777,127.7095 273.2737,124.6135 273.0397,122.2905 C272.9327,121.2235 272.8277,120.0535 272.7187,118.8205 C272.0477,111.2985 271.1297,100.9955 267.9757,97.8225 C264.6827,94.5055 260.0237,92.3955 255.0927,90.1625 L252.9967,89.2075 C250.3097,87.9705 247.9807,86.5225 245.9257,85.2445 C243.7747,83.9075 241.9187,82.7535 240.7427,82.5865 C239.0137,82.3425 238.6767,83.1905 238.5627,83.4665 C237.8287,85.2695 239.4337,89.0475 242.6017,91.2185 C242.9387,91.4505 243.0197,91.9045 242.7837,92.2345 C242.5457,92.5645 242.0787,92.6435 241.7427,92.4115 C238.2327,90.0055 236.0977,85.5745 237.1737,82.9285 C237.7417,81.5355 239.1287,80.8835 240.9557,81.1445 C242.4507,81.3555 244.3387,82.5285 246.7287,84.0145 C248.7457,85.2695 251.0327,86.6915 253.6347,87.8895 L255.7207,88.8395 C260.7817,91.1315 265.5637,93.2965 269.0497,96.8085 C272.5707,100.3545 273.4777,110.5235 274.2067,118.6945 C274.3157,119.9215 274.4197,121.0865 274.5267,122.1485 C274.7627,124.4955 274.9697,127.6035 275.1867,130.8925 C275.6757,138.2655 276.2837,147.4415 277.4977,150.7055 C280.2897,158.2025 284.3187,165.2305 289.5107,173.4785 C289.7267,173.8205 289.6167,174.2695 289.2657,174.4805 C289.1427,174.5545 289.0087,174.5885 288.8737,174.5885" id="Fill-103" fill="#000000"></path>
                <path d="M235.8347,128.5749 C235.6517,128.5749 235.4717,128.5109 235.3267,128.3809 C233.5777,126.8019 231.8497,125.7279 230.4587,125.3579 C230.0607,125.2519 229.8267,124.8519 229.9357,124.4639 C230.0427,124.0759 230.4527,123.8469 230.8527,123.9519 C232.4707,124.3829 234.4197,125.5749 236.3427,127.3109 C236.6447,127.5849 236.6637,128.0449 236.3837,128.3409 C236.2357,128.4959 236.0357,128.5749 235.8347,128.5749" id="Fill-105" fill="#000000"></path>
                <path d="M247.1003,143.2682 C246.9093,143.2682 246.7153,143.2572 246.5163,143.2352 C242.7783,142.8232 241.4793,139.4002 240.2233,136.0902 C239.7253,134.7792 239.2103,133.4222 238.5463,132.2162 C238.3513,131.8612 238.4883,131.4192 238.8513,131.2282 C239.2143,131.0392 239.6683,131.1702 239.8633,131.5252 C240.5763,132.8212 241.1083,134.2262 241.6243,135.5842 C242.8233,138.7462 243.8583,141.4762 246.6833,141.7862 C251.1593,142.2652 252.8743,134.2052 254.5903,126.4052 L254.8743,125.1162 C254.9593,124.7242 255.3513,124.4692 255.7613,124.5582 C256.1653,124.6432 256.4203,125.0312 256.3333,125.4242 L256.0503,126.7102 C254.2603,134.8552 252.4113,143.2682 247.1003,143.2682" id="Fill-107" fill="#000000"></path>
                <path d="M255.6599,122.715 C255.4349,122.715 255.2119,122.615 255.0639,122.426 C250.7689,116.895 246.8369,107.962 245.3659,103.631 C245.2359,103.249 245.4489,102.837 245.8399,102.71 C246.2309,102.583 246.6539,102.791 246.7839,103.173 C248.2229,107.415 252.0689,116.154 256.2549,121.547 C256.5049,121.866 256.4399,122.324 256.1099,122.567 C255.9759,122.667 255.8169,122.715 255.6599,122.715" id="Fill-109" fill="#000000"></path>
                <path d="M268.2653,97.4665 C267.9573,97.4665 267.6703,97.2795 267.5623,96.9825 C266.4613,93.9575 263.1403,91.2935 259.9283,88.7165 C258.3573,87.4565 256.7333,86.1535 255.3803,84.8155 C254.3703,83.8135 253.5093,82.9255 252.7433,82.1355 C250.4293,79.7465 249.0323,78.3055 246.8903,77.2565 C245.8963,76.7695 245.1233,76.7975 244.5903,77.3435 C243.7013,78.2565 243.5303,80.6055 244.8083,82.8085 C245.0113,83.1585 244.8843,83.6035 244.5253,83.8015 C244.1703,83.9975 243.7113,83.8775 243.5063,83.5265 C242.0173,80.9565 242.0173,77.8665 243.5093,76.3385 C244.5013,75.3175 245.9803,75.1785 247.5613,75.9535 C249.9383,77.1175 251.4863,78.7155 253.8283,81.1335 C254.5883,81.9185 255.4423,82.7985 256.4463,83.7925 C257.7413,85.0755 259.3353,86.3545 260.8773,87.5905 C264.2463,90.2935 267.7303,93.0895 268.9693,96.4935 C269.1073,96.8735 268.9053,97.2905 268.5153,97.4245 C268.4333,97.4535 268.3493,97.4665 268.2653,97.4665" id="Fill-111" fill="#000000"></path>
                <path d="M320.3688,218.3366 C320.0648,218.3366 319.7808,218.1556 319.6678,217.8626 C318.3968,214.5416 317.2758,211.5186 316.2488,208.7556 C312.9888,199.9856 310.6348,193.6486 307.6338,188.8796 C302.0948,180.0756 296.1088,178.4866 293.5528,177.8096 C293.1648,177.7076 292.8538,177.6216 292.6308,177.5406 C292.2458,177.3996 292.0488,176.9796 292.1938,176.6026 C292.3388,176.2266 292.7658,176.0316 293.1558,176.1766 C293.3458,176.2456 293.6118,176.3156 293.9448,176.4026 C296.6718,177.1266 303.0568,178.8196 308.9058,188.1166 C311.9888,193.0116 314.3638,199.4076 317.6528,208.2586 C318.6778,211.0176 319.7998,214.0366 321.0688,217.3536 C321.2138,217.7306 321.0158,218.1496 320.6298,218.2916 C320.5438,218.3226 320.4558,218.3366 320.3688,218.3366" id="Fill-113" fill="#000000"></path>
                <g id="Group-117" transform="translate(296.000000, 303.000000)">
                    <mask id="mask-8" fill="white">
                        <use xlink:href="#path-7"></use>
                    </mask>
                    <g id="Clip-116"></g>
                    <path d="M3.7263,61.0002 C2.1573,51.4002 2.2773,42.9302 2.6653,30.6802 C2.8893,23.6442 3.0963,19.7702 3.2623,16.6562 C3.4963,12.2862 3.6513,9.3992 3.6513,1.3812 C3.6513,0.9792 3.3173,0.6522 2.9043,0.6522 C2.4913,0.6522 2.1573,0.9792 2.1573,1.3812 C2.1573,9.3612 2.0033,12.2332 1.7703,16.5792 C1.6043,19.6992 1.3973,23.5832 1.1723,30.6352 C0.7953,42.5212 0.6703,51.3372 2.2173,61.0002 L3.7263,61.0002 Z" id="Fill-115" fill="#000000" mask="url(#mask-8)"></path>
                </g>
                <g id="Group-120" transform="translate(29.000000, 150.000000)">
                    <mask id="mask-10" fill="white">
                        <use xlink:href="#path-9"></use>
                    </mask>
                    <g id="Clip-119"></g>
                    <path d="M2.1628,214.0002 C3.3168,196.9902 5.0358,184.1312 7.0058,169.3872 C8.4708,158.4312 10.1288,146.0132 11.7408,130.2412 C11.9768,127.9282 12.2128,125.5512 12.4528,123.1212 C14.8198,99.1912 17.7658,69.4082 27.3758,48.2712 C34.9868,31.5272 59.0958,23.4712 70.6818,19.6012 C71.6618,19.2732 72.5578,18.9732 73.3508,18.6992 C82.2118,15.6472 88.4998,11.4752 94.7508,8.1222 C101.8508,4.3132 107.4538,1.3012 111.3368,1.5672 C111.7168,1.5712 112.0238,1.2852 112.0478,0.8852 C112.0698,0.4832 111.7898,0.1372 111.4208,0.1122 C107.1878,-0.1588 101.4358,2.9092 94.1578,6.8142 C87.9478,10.1462 81.7098,14.2912 72.9458,17.3102 C72.1548,17.5822 71.2638,17.8812 70.2878,18.2072 C58.5218,22.1392 34.0408,30.3192 26.1738,47.6252 C16.4578,68.9942 13.4988,98.9212 11.1198,122.9662 C10.8798,125.3932 10.6448,127.7692 10.4088,130.0792 C8.7998,145.8282 7.1418,158.2332 5.6798,169.1782 C3.7008,183.9802 1.9758,196.8892 0.8188,214.0002 L2.1628,214.0002 Z" id="Fill-118" fill="#000000" mask="url(#mask-10)"></path>
                </g>
                <path d="M154.6022,143.0602 C154.4922,143.0602 154.3802,143.0372 154.2752,142.9862 C153.9042,142.8092 153.7502,142.3732 153.9322,142.0112 C157.8412,134.2162 158.1432,124.2392 157.8862,114.6182 C157.8752,114.2152 158.2022,113.8812 158.6142,113.8702 C159.0152,113.8362 159.3692,114.1772 159.3802,114.5802 C159.6412,124.3872 159.3252,134.5742 155.2742,142.6522 C155.1442,142.9102 154.8782,143.0602 154.6022,143.0602" id="Fill-121" fill="#000000"></path>
                <path d="M138.9978,152.7169 C138.7488,152.7169 138.5048,152.5949 138.3638,152.3729 C138.1448,152.0319 138.2528,151.5829 138.6028,151.3699 C139.9698,150.5399 141.1748,149.7409 142.2878,148.9279 C142.6188,148.6869 143.0858,148.7539 143.3338,149.0759 C143.5808,149.3979 143.5128,149.8549 143.1828,150.0959 C142.0348,150.9329 140.7948,151.7549 139.3928,152.6069 C139.2688,152.6809 139.1338,152.7169 138.9978,152.7169" id="Fill-123" fill="#000000"></path>
                <g id="Group-127" transform="translate(81.000000, 268.000000)">
                    <mask id="mask-12" fill="white">
                        <use xlink:href="#path-11"></use>
                    </mask>
                    <g id="Clip-126"></g>
                    <path d="M1.7927,96.0002 C2.4637,80.3632 6.0567,64.0942 9.8487,46.9352 C13.1697,31.9032 16.6047,16.3602 17.9117,1.1932 C17.9457,0.7922 17.6757,0.4372 17.3077,0.3992 C16.9287,0.3722 16.6107,0.6552 16.5767,1.0572 C15.2777,16.1212 11.8557,31.6122 8.5447,46.5932 C4.7317,63.8482 1.1187,80.2092 0.4497,96.0002 L1.7927,96.0002 Z" id="Fill-125" fill="#000000" mask="url(#mask-12)"></path>
                </g>
                <g id="Group-130" transform="translate(90.000000, 310.000000)">
                    <mask id="mask-14" fill="white">
                        <use xlink:href="#path-13"></use>
                    </mask>
                    <g id="Clip-129"></g>
                    <path d="M6.3093,54.0002 C6.2363,32.4642 5.2083,20.9792 1.7053,0.9062 C1.6363,0.5122 1.2843,0.2542 0.9203,0.3272 C0.5573,0.4022 0.3183,0.7842 0.3873,1.1802 C3.8733,21.1442 4.8953,32.5722 4.9683,54.0002 L6.3093,54.0002 Z" id="Fill-128" fill="#000000" mask="url(#mask-14)"></path>
                </g>
                <path d="M236.8269,144.1925 C236.5559,144.1925 236.2929,144.0635 236.1129,143.8315 C235.6019,143.1685 234.7919,139.2635 234.5819,136.9385 C234.4929,135.9465 234.8829,133.4695 234.9279,133.1915 L239.6249,100.0155 C239.6809,99.6175 240.0699,99.3375 240.4669,99.3945 C240.8749,99.4495 241.1609,99.8175 241.1039,100.2165 L236.4049,133.4025 C236.2899,134.1265 236.0089,136.1205 236.0699,136.8115 C236.1939,138.1805 236.4909,139.8085 236.7739,141.0555 L242.5759,101.7295 C242.6369,101.3285 243.0149,101.0565 243.4229,101.1105 C243.8299,101.1675 244.1139,101.5365 244.0559,101.9355 L238.1019,142.2835 C237.7719,143.9975 237.2639,144.1155 237.0189,144.1715 C236.9549,144.1855 236.8909,144.1925 236.8269,144.1925" id="Fill-131" fill="#000000"></path>
                <path d="M217.6042,167.8556 C217.5722,167.8556 217.5412,167.8546 217.5082,167.8496 C217.0992,167.7986 216.8092,167.4346 216.8622,167.0346 L216.9592,166.2826 C218.2632,156.3056 219.4942,146.8816 220.7992,135.7916 C220.8462,135.3906 221.2402,135.1046 221.6262,135.1506 C222.0372,135.1966 222.3322,135.5586 222.2852,135.9586 C220.9772,147.0576 219.7462,156.4846 218.4422,166.4656 L218.3442,167.2196 C218.2952,167.5866 217.9752,167.8556 217.6042,167.8556" id="Fill-133" fill="#000000"></path>
                <path d="M202.8405,144.4333 C202.7525,144.4333 202.6655,144.4333 202.5775,144.4323 C192.5335,144.3133 176.9895,137.2203 166.7105,123.8943 C166.4625,123.5723 166.5275,123.1163 166.8585,122.8733 C167.1905,122.6313 167.6565,122.6973 167.9035,123.0173 C177.8935,135.9683 192.9165,142.8593 202.5955,142.9743 C213.4245,143.1033 223.4645,134.5693 228.6475,126.0523 C233.0285,118.8503 234.1895,112.7953 235.5325,105.7853 C235.7785,104.5063 236.0275,103.1993 236.3045,101.8493 C236.3865,101.4543 236.7975,101.1993 237.1825,101.2783 C237.5885,101.3563 237.8515,101.7403 237.7695,102.1353 C237.4935,103.4783 237.2435,104.7803 237.0005,106.0533 C235.6315,113.2003 234.4495,119.3723 229.9305,126.7973 C224.5705,135.6053 214.1395,144.4333 202.8405,144.4333" id="Fill-135" fill="#000000"></path>
                <path d="M213.3034,103.7663 C213.0904,103.7663 212.8794,103.6773 212.7324,103.5053 C212.4664,103.1973 212.5074,102.7373 212.8244,102.4783 C216.4774,99.4933 215.1844,97.9063 213.5474,95.8983 C213.3384,95.6413 213.1314,95.3863 212.9374,95.1313 C210.5744,92.0203 210.0714,89.0583 211.4444,86.3263 C211.6254,85.9643 212.0774,85.8143 212.4434,85.9933 C212.8134,86.1703 212.9664,86.6063 212.7854,86.9683 C211.6784,89.1703 212.1334,91.6253 214.1364,94.2633 C214.3204,94.5053 214.5194,94.7473 214.7174,94.9913 C216.3354,96.9773 218.5524,99.6983 213.7834,103.5963 C213.6434,103.7103 213.4734,103.7663 213.3034,103.7663" id="Fill-137" fill="#000000"></path>
                <path d="M235.7243,77.2829 C235.5863,77.2829 235.4483,77.2459 235.3243,77.1699 C232.1043,75.1829 228.9073,74.9479 225.5503,76.4529 C225.1733,76.6159 224.7323,76.4599 224.5603,76.0949 C224.3883,75.7279 224.5513,75.2959 224.9263,75.1279 C228.7783,73.4029 232.4403,73.6649 236.1233,75.9379 C236.4723,76.1539 236.5763,76.6029 236.3553,76.9439 C236.2123,77.1619 235.9703,77.2829 235.7243,77.2829" id="Fill-139" fill="#000000"></path>
                <path d="M201.1901,75.5876 C201.0701,75.5876 200.9481,75.5596 200.8361,75.4996 C197.0191,73.4816 191.7111,73.3586 187.9301,75.2016 C187.5621,75.3796 187.1111,75.2356 186.9271,74.8756 C186.7431,74.5156 186.8931,74.0776 187.2611,73.8976 C190.8051,72.1706 196.5971,71.6006 201.5471,74.2176 C201.9101,74.4096 202.0441,74.8526 201.8471,75.2066 C201.7121,75.4496 201.4561,75.5876 201.1901,75.5876" id="Fill-141" fill="#000000"></path>
                <path d="M230.4372,88.9118 C230.6532,87.1828 229.6322,85.6568 228.1582,85.5028 C226.6832,85.3468 225.3132,86.6228 225.0982,88.3518 C224.8812,90.0808 225.9022,91.6078 227.3762,91.7628 C228.8512,91.9178 230.2212,90.6408 230.4372,88.9118" id="Fill-143" fill="#000000"></path>
                <path d="M195.903,87.3229 C196.049,85.5869 194.91,84.1049 193.359,84.0129 C191.808,83.9199 190.432,85.2519 190.288,86.9889 C190.141,88.7249 191.281,90.2079 192.832,90.2999 C194.382,90.3929 195.757,89.0589 195.903,87.3229" id="Fill-145" fill="#000000"></path>
                <path d="M158.8337,109.2336 C158.7807,109.2336 158.7277,109.2276 158.6727,109.2166 C152.3587,107.8636 148.1877,103.2286 146.2747,95.4406 C145.0657,90.5166 146.1457,85.9046 149.0927,83.4036 C151.5017,81.3616 154.8457,81.0096 158.5107,82.4126 C158.8947,82.5606 159.0837,82.9836 158.9327,83.3576 C158.7817,83.7326 158.3487,83.9146 157.9647,83.7696 C154.7977,82.5556 152.0677,82.8106 150.0727,84.5046 C147.5867,86.6146 146.6657,90.7746 147.7287,95.1006 C149.5207,102.4006 153.2067,106.5526 158.9937,107.7936 C159.3957,107.8796 159.6507,108.2676 159.5627,108.6616 C159.4857,109.0016 159.1767,109.2336 158.8337,109.2336" id="Fill-147" fill="#000000"></path>
                <path d="M158.6579,97.4489 C158.3789,97.4489 158.1109,97.2959 157.9829,97.0339 C157.3569,95.7539 155.5889,93.5059 153.6159,92.5159 C153.2499,92.3319 153.1049,91.8919 153.2929,91.5339 C153.4819,91.1769 153.9319,91.0349 154.2989,91.2189 C156.7099,92.4289 158.6659,95.0429 159.3319,96.4059 C159.5099,96.7699 159.3509,97.2049 158.9789,97.3779 C158.8759,97.4259 158.7649,97.4489 158.6579,97.4489" id="Fill-149" fill="#000000"></path>
                <path d="M239.3913,69.612 C239.3723,69.612 239.3533,69.611 239.3343,69.61 C238.9233,69.58 238.6143,69.231 238.6443,68.829 C238.9103,65.362 234.8633,54.344 231.6843,51.072 C231.4013,50.78 231.4143,50.319 231.7133,50.042 C232.0143,49.764 232.4853,49.778 232.7693,50.07 C236.0503,53.448 240.4563,64.734 240.1353,68.937 C240.1063,69.32 239.7783,69.612 239.3913,69.612" id="Fill-151" fill="#000000"></path>
                <path d="M166.2077,74.1149 C164.8787,74.1149 163.4737,73.9859 161.9807,73.7089 C161.5757,73.6349 161.3097,73.2529 161.3867,72.8569 C161.4627,72.4619 161.8447,72.2019 162.2597,72.2769 C174.4527,74.5319 180.3507,66.3619 186.5867,57.7079 C187.0907,57.0109 187.5927,56.3129 188.0977,55.6239 L188.7877,54.6749 C192.9057,49.0029 198.5517,41.2399 206.5087,43.3529 C206.9057,43.4599 207.1407,43.8599 207.0317,44.2479 C206.9237,44.6369 206.5187,44.8719 206.1137,44.7599 C199.1707,42.9109 193.8717,50.1969 190.0077,55.5179 L189.3127,56.4699 C188.8107,57.1579 188.3107,57.8519 187.8097,58.5469 C182.2827,66.2149 176.5877,74.1149 166.2077,74.1149" id="Fill-153" fill="#000000"></path>
                <path d="M216.8737,48.1833 C216.4607,48.1833 216.1267,47.8573 216.1267,47.4543 C216.1267,44.5113 214.8457,40.4913 212.3977,38.5053 C211.0437,37.4043 209.4567,37.0093 207.6767,37.3303 C207.2777,37.4023 206.8807,37.1433 206.8077,36.7463 C206.7307,36.3503 206.9997,35.9713 207.4047,35.8973 C209.5987,35.4983 211.6637,36.0123 213.3527,37.3843 C216.2857,39.7633 217.6207,44.2723 217.6207,47.4543 C217.6207,47.8573 217.2867,48.1833 216.8737,48.1833" id="Fill-155" fill="#000000"></path>
                <path d="M231.1618,37.1173 C231.0588,37.1173 230.9578,37.0973 230.8598,37.0543 C230.4818,36.8913 230.3108,36.4613 230.4788,36.0933 C232.9638,30.6203 231.2648,24.6063 225.8148,19.5913 C216.4698,10.9893 197.0598,6.6013 179.4988,15.4223 C179.1318,15.6083 178.6828,15.4663 178.4918,15.1073 C178.3038,14.7493 178.4478,14.3093 178.8138,14.1253 C196.9878,5.0023 217.1228,9.5853 226.8408,18.5313 C232.7768,23.9953 234.6018,30.6123 231.8448,36.6833 C231.7208,36.9553 231.4478,37.1173 231.1618,37.1173" id="Fill-157" fill="#000000"></path>
                <path d="M244.655,67.3029 C244.56,67.3029 244.466,67.2859 244.374,67.2489 C243.991,67.0969 243.807,66.6719 243.964,66.2999 C245.006,63.8049 246.333,61.8539 247.618,59.9679 C249.805,56.7559 251.694,53.9819 251.582,49.3639 C251.458,44.2719 247.475,37.1089 239.025,33.4109 C238.649,33.2459 238.481,32.8149 238.65,32.4479 C238.818,32.0799 239.256,31.9149 239.638,32.0809 C248.677,36.0379 252.94,43.7959 253.076,49.3289 C253.198,54.4069 251.093,57.4999 248.863,60.7739 C247.618,62.6009 246.332,64.4899 245.346,66.8489 C245.228,67.1319 244.95,67.3029 244.655,67.3029" id="Fill-159" fill="#000000"></path>
                <path d="M146.2839,90.7702 C146.0119,90.7702 145.7479,90.6242 145.6159,90.3702 C140.0659,79.6592 138.7719,71.9672 138.5359,63.7142 C138.5249,63.3122 138.8489,62.9762 139.2619,62.9652 C139.6669,62.9852 140.0179,63.2712 140.0299,63.6732 C140.2599,71.7312 141.5239,79.2442 146.9499,89.7122 C147.1359,90.0722 146.9879,90.5102 146.6199,90.6912 C146.5129,90.7452 146.3969,90.7702 146.2839,90.7702" id="Fill-161" fill="#000000"></path>
                <path d="M134.6853,58.6183 C134.4163,58.6183 134.1583,58.4763 134.0233,58.2283 C133.8313,57.8713 133.9723,57.4313 134.3373,57.2443 C138.1253,55.3033 139.0183,50.3323 139.9613,45.0693 C140.2583,43.4143 140.5653,41.7033 140.9703,40.1053 C143.5443,29.9403 152.6383,19.0573 167.1523,17.6623 C167.5703,17.6263 167.9273,17.9153 167.9673,18.3163 C168.0083,18.7163 167.7083,19.0733 167.2973,19.1133 C152.5663,20.5303 144.6893,31.4953 142.4203,40.4553 C142.0283,42.0043 141.7253,43.6903 141.4333,45.3203 C140.4673,50.6993 139.4703,56.2603 135.0323,58.5353 C134.9213,58.5913 134.8023,58.6183 134.6853,58.6183" id="Fill-163" fill="#000000"></path>
                <path d="M238.153,162.7311 C238.018,162.7311 237.882,162.6961 237.761,162.6231 C236.909,162.1101 236.001,161.4941 234.907,160.6841 C234.577,160.4401 234.513,159.9831 234.762,159.6631 C235.013,159.3421 235.483,159.2811 235.808,159.5231 C236.865,160.3041 237.734,160.8951 238.544,161.3811 C238.895,161.5921 239.005,162.0411 238.789,162.3841 C238.647,162.6081 238.402,162.7311 238.153,162.7311" id="Fill-165" fill="#000000"></path>
                <path d="M169.2282,159.714 C171.8662,161.589 174.4472,162.99 176.7242,164.227 C181.2222,166.67 184.7762,168.6 186.8402,172.823 C188.2292,175.666 188.7202,178.988 189.2902,182.836 C190.0372,187.885 190.8832,193.609 193.9812,200.203 C196.3952,205.342 198.1562,208.393 199.5712,210.843 C202.5752,216.046 203.5872,217.8 204.9642,229.906 C206.7912,245.936 206.4832,264.569 206.0562,290.358 L205.9602,296.155 C205.6972,312.559 207.0022,325.614 208.2662,338.241 C209.0822,346.403 209.9152,354.81 210.3012,364 L211.7962,364 C211.4102,354.748 210.5732,346.302 209.7522,338.099 C208.4942,325.514 207.1922,312.501 207.4552,296.178 L207.5492,290.38 C207.9772,264.537 208.2872,245.866 206.4502,229.744 C205.0382,217.343 203.9042,215.379 200.8732,210.128 C199.4712,207.701 197.7272,204.68 195.3392,199.597 C192.3322,193.193 191.5002,187.579 190.7682,182.627 C190.1812,178.662 189.6752,175.239 188.1892,172.197 C185.9192,167.552 181.9952,165.421 177.4512,162.953 C175.1012,161.677 172.6722,160.358 170.1072,158.535 C164.0632,154.241 156.7862,147.095 154.4882,139.92 C154.3662,139.534 153.9442,139.319 153.5522,139.441 C153.1592,139.561 152.9392,139.97 153.0622,140.354 C155.4682,147.869 162.9912,155.282 169.2282,159.714" id="Fill-167" fill="#000000"></path>
                <path d="M203.4411,217.8141 C203.0291,217.8141 202.6951,217.4881 202.6951,217.0851 C202.6951,208.4251 207.0791,200.9431 211.3201,193.7081 C213.3001,190.3271 215.3491,186.8311 216.8661,183.3221 C218.4241,179.7181 218.8361,175.0651 218.0531,169.8681 C217.9941,169.4711 218.2771,169.0991 218.6851,169.0411 C219.0811,168.9881 219.4711,169.2591 219.5331,169.6571 C220.3531,175.1181 219.9081,180.0391 218.2441,183.8891 C216.6901,187.4791 214.6201,191.0141 212.6171,194.4311 C208.4731,201.5021 204.1881,208.8121 204.1881,217.0851 C204.1881,217.4881 203.8541,217.8141 203.4411,217.8141" id="Fill-169" fill="#000000"></path>
                <path d="M238.6237,189.6129 C234.0177,189.6129 228.7747,183.6119 225.9357,179.8399 C225.6917,179.5149 225.7647,179.0589 226.0967,178.8199 C226.4267,178.5829 226.8947,178.6509 227.1417,178.9769 C231.9147,185.3189 236.4957,188.7199 239.3727,188.0739 C239.6657,188.0089 239.8537,187.8859 239.9847,187.6769 C240.6407,186.6309 239.8947,183.7539 239.1037,180.7079 C238.3357,177.7439 237.4647,174.3849 237.3237,171.0539 C237.2967,170.3719 237.2787,169.7729 237.2637,169.2359 C237.1457,165.3189 237.1317,164.8169 233.5957,158.6069 C229.4967,151.4069 226.0277,146.8309 220.7947,141.7239 C220.5037,141.4399 220.5037,140.9789 220.7947,140.6939 C221.0867,140.4089 221.5597,140.4089 221.8517,140.6939 C227.1917,145.9059 230.7277,150.5689 234.9027,157.8999 C238.6137,164.4179 238.6327,165.0539 238.7557,169.1939 C238.7707,169.7259 238.7887,170.3199 238.8177,170.9939 C238.9497,174.1739 239.8017,177.4549 240.5527,180.3499 C241.4967,183.9909 242.2437,186.8669 241.2607,188.4369 C240.9177,188.9849 240.3947,189.3409 239.7077,189.4949 C239.3507,189.5739 238.9887,189.6129 238.6237,189.6129" id="Fill-171" fill="#000000"></path>
                <path d="M215.238,189.5514 C215.022,189.5514 214.807,189.4604 214.661,189.2854 C214.399,188.9734 214.446,188.5134 214.764,188.2594 C218.135,185.5614 220.216,181.5294 222.229,177.6294 C223.65,174.8734 224.994,172.2714 226.746,170.1594 C229.537,166.7934 231.802,165.2294 237.11,165.4684 C237.523,165.4854 237.841,165.8264 237.822,166.2284 C237.804,166.6194 237.473,166.9244 237.076,166.9244 C237.066,166.9244 237.054,166.9244 237.043,166.9234 C232.313,166.7254 230.478,167.9774 227.907,171.0764 C226.256,173.0664 224.949,175.6004 223.564,178.2834 C221.481,182.3204 219.328,186.4944 215.713,189.3864 C215.572,189.4974 215.406,189.5514 215.238,189.5514" id="Fill-173" fill="#000000"></path>
                <path d="M162.6521,192.4342 C161.9861,192.4342 161.3381,192.2602 160.7151,191.9142 C158.9231,190.9132 158.3741,188.6582 157.5441,185.2412 C156.8201,182.2642 155.9191,178.5572 153.8501,174.1422 C152.3681,170.9782 150.8601,168.2572 149.4021,165.6232 C146.6181,160.5962 143.9881,155.8472 142.4281,149.4012 C141.9181,147.2942 143.7281,145.8222 145.6441,144.2622 C146.7131,143.3932 147.8181,142.4942 148.6721,141.4102 C149.1941,140.7472 149.6161,139.9992 150.0241,139.2752 C151.2561,137.0952 152.6531,134.6242 156.8911,135.4502 C157.2961,135.5292 157.5581,135.9122 157.4771,136.3072 C157.3971,136.7032 157.0001,136.9602 156.5981,136.8792 C153.4271,136.2602 152.5511,137.8202 151.3331,139.9792 C150.8971,140.7502 150.4471,141.5472 149.8561,142.2982 C148.9021,143.5102 147.6791,144.5042 146.6011,145.3822 C144.7311,146.9032 143.5981,147.8952 143.8821,149.0662 C145.3961,155.3242 147.8621,159.7762 150.7161,164.9302 C152.1861,167.5852 153.7061,170.3282 155.2091,173.5362 C157.3391,178.0812 158.2971,182.0262 158.9981,184.9052 C159.7111,187.8402 160.2261,189.9612 161.4571,190.6472 C162.1011,191.0092 162.7621,191.0672 163.4751,190.8402 C165.5191,190.1822 167.7941,187.2692 169.8811,182.6392 C170.2311,181.8622 170.5591,181.0792 170.8821,180.3052 C173.3121,174.4982 175.8251,168.4922 186.5891,170.4942 C186.9941,170.5702 187.2591,170.9512 187.1821,171.3472 C187.1051,171.7412 186.7141,172.0002 186.3081,171.9262 C176.7351,170.1502 174.7671,174.8742 172.2661,180.8552 C171.9371,181.6412 171.6041,182.4372 171.2491,183.2262 C169.6501,186.7732 167.0851,191.2122 163.9441,192.2232 C163.5061,192.3642 163.0761,192.4342 162.6521,192.4342" id="Fill-175" fill="#000000"></path>
                <path d="M98.4782,251.1071 C98.1082,251.1071 97.8082,250.7811 97.8082,250.3781 C97.8082,237.0871 90.4152,217.4411 83.5112,207.4291 C83.2892,207.1071 83.3492,206.6501 83.6452,206.4081 C83.9412,206.1661 84.3622,206.2331 84.5832,206.5551 C91.6172,216.7531 99.1482,236.7971 99.1482,250.3781 C99.1482,250.7811 98.8492,251.1071 98.4782,251.1071" id="Fill-177" fill="#000000"></path>
                <path d="M264.0934,193.1188 C262.7734,193.1188 261.4444,192.9818 260.1144,192.6948 C259.7124,192.6068 259.4584,192.2178 259.5474,191.8248 C259.6364,191.4318 260.0314,191.1888 260.4394,191.2708 C272.0424,193.7878 283.7314,183.8198 288.8614,173.1708 C289.0354,172.8078 289.4784,172.6508 289.8544,172.8218 C290.2284,172.9928 290.3884,173.4268 290.2114,173.7908 C285.4144,183.7508 275.0434,193.1188 264.0934,193.1188" id="Fill-179" fill="#000000"></path>
                <path d="M267.5817,220.466 C266.1067,220.466 264.8037,220.14 263.8107,219.35 C261.1757,217.254 261.2727,212.612 264.1107,205.158 C264.2557,204.779 264.6847,204.588 265.0707,204.729 C265.4577,204.868 265.6537,205.288 265.5117,205.665 C262.9957,212.273 262.7347,216.613 264.7547,218.22 C267.8237,220.658 276.1147,217.139 282.8537,213.029 C290.2787,208.501 300.3047,194.068 299.4687,187.103 C299.2737,185.482 298.4867,184.467 297.0607,183.997 C296.6707,183.869 296.4607,183.455 296.5927,183.073 C296.7257,182.694 297.1437,182.491 297.5397,182.616 C299.5107,183.266 300.6907,184.758 300.9517,186.934 C301.8577,194.481 291.5697,209.433 283.6447,214.264 C280.1677,216.386 272.7967,220.466 267.5817,220.466" id="Fill-181" fill="#000000"></path>
                <path d="M209.2829,121.7121 C209.4959,121.7121 209.7149,121.7191 209.9409,121.7361 C211.5589,121.8561 212.7739,122.4091 213.8459,122.8971 C215.4279,123.6161 216.2369,123.9251 217.3919,123.0781 C218.2609,122.4401 218.2909,121.2111 217.4689,119.9491 C216.2189,118.0311 213.6169,116.8111 210.5089,116.6831 C206.3629,116.5261 203.3279,118.2441 202.4749,120.0431 C202.2369,120.5471 202.0779,121.2821 202.6789,121.9171 C202.6799,121.9171 202.6799,121.9181 202.6799,121.9181 C203.6659,122.9571 204.4459,122.7281 205.8669,122.3091 C206.7819,122.0391 207.8909,121.7121 209.2829,121.7121 M216.0259,124.7891 C215.0999,124.7891 214.2279,124.3921 213.3279,123.9821 C212.3499,123.5361 211.2439,123.0321 209.8489,122.9291 C208.3629,122.8241 207.2279,123.1571 206.2209,123.4551 C204.7139,123.8991 203.2889,124.3191 201.7799,122.7301 C200.9639,121.8681 200.8099,120.7061 201.3629,119.5411 C202.3869,117.3821 205.8919,115.3101 210.5589,115.4881 C214.0689,115.6321 217.0389,117.0601 218.5029,119.3071 C219.6759,121.1081 219.5259,123.0071 218.1299,124.0331 C217.3809,124.5841 216.6889,124.7881 216.0259,124.7891" id="Fill-183" fill="#000000"></path>
                <path d="M113.4089,36.4259 C113.7489,17.4749 88.8149,1.5579 57.7159,0.8749 C26.6159,0.1919 1.1279,15.0009 0.7869,33.9519 C0.4449,52.9029 25.3799,68.8199 56.4799,69.5029 C68.5729,69.7689 79.8179,67.6929 89.0659,63.9389 C89.0659,63.9389 120.7389,77.9409 116.8879,73.0369 C107.6589,61.2809 108.1129,50.5239 108.1129,50.5239 C111.4289,46.2649 113.3169,41.4939 113.4089,36.4259" id="Fill-185" fill="#FFFFFF"></path>
                <path d="M112.6257,36.4118 C112.9577,17.9198 88.3167,2.3298 57.6977,1.6588 C38.0497,1.2308 20.1997,6.9128 9.8397,16.8668 C4.5387,21.9598 1.6797,27.8718 1.5687,33.9658 C1.2357,52.4578 25.8777,68.0478 56.4957,68.7198 C68.1287,68.9778 79.2687,67.0708 88.7717,63.2128 C88.9697,63.1338 89.1897,63.1368 89.3827,63.2228 C100.5667,68.1678 112.9467,72.9968 116.0997,73.2988 C106.9757,61.5398 107.3127,50.9388 107.3307,50.4908 C107.3387,50.3288 107.3967,50.1718 107.4957,50.0428 C110.8137,45.7808 112.5387,41.1948 112.6257,36.4118 Z M89.0527,64.7878 C79.4197,68.6418 68.1477,70.5438 56.4627,70.2858 C24.9827,69.5948 -0.3453,53.2888 0.0037,33.9388 C0.1217,27.4188 3.1467,21.1248 8.7537,15.7378 C19.4067,5.5018 37.7177,-0.3502 57.7317,0.0928 C89.2117,0.7838 114.5387,17.0888 114.1917,36.4398 L114.1917,36.4398 C114.1007,41.4908 112.3167,46.3188 108.8937,50.7948 C108.8987,52.4208 109.3047,62.1088 117.5047,72.5538 C118.1997,73.4398 118.0327,74.0268 117.7707,74.3638 C117.5787,74.6118 117.1667,74.7358 116.5327,74.734806 C113.2457,74.734806 104.0317,71.4008 89.0527,64.7878 L89.0527,64.7878 Z" id="Fill-187" fill="#C7CBD2"></path>
            </g>
        </g>
        <path d="M214.272,730.52 L214.272,725.816 L196.992,725.816 L196.992,717.896 C199.84,717.864 202.248,717.744 204.216,717.536 C206.184,717.328 207.84,717 209.184,716.552 L209.184,716.552 L208.416,712.04 C205.44,712.808 201.328,713.192 196.08,713.192 L196.08,713.192 L185.568,713.192 L185.568,700.424 L208.08,700.424 L208.08,695.72 L176.208,695.72 L176.208,700.424 L180.192,700.424 L180.192,717.896 L191.616,717.896 L191.616,725.816 L174.336,725.816 L174.336,730.52 L214.272,730.52 Z M250.948,725.576 L250.948,711.32 L257.764,711.32 L257.764,706.616 L250.948,706.616 L250.948,694.328 L245.572,694.328 L245.572,725.576 L250.948,725.576 Z M226.948,717.992 C228.228,717.992 229.564,717.96 230.956,717.896 C232.348,717.832 233.708,717.72 235.036,717.56 C236.364,717.4 237.628,717.2 238.828,716.96 C240.028,716.72 241.076,716.424 241.972,716.072 L241.972,716.072 L241.06,711.8 C239.364,712.408 237.372,712.808 235.084,713 C232.796,713.192 230.548,713.288 228.34,713.288 L228.34,713.288 L223.252,713.288 L223.252,695.192 L217.876,695.192 L217.876,717.992 L226.948,717.992 Z M252.292,738.68 L252.292,733.976 L228.436,733.976 L228.436,723.08 L223.06,723.08 L223.06,738.68 L252.292,738.68 Z M261.944,739.688 L278.312,693.416 L272.936,693.416 L256.568,739.688 L261.944,739.688 Z M313.5,713.624 L313.5,694.808 L308.124,694.808 L308.124,699.8 L289.788,699.8 L289.788,694.808 L284.412,694.808 L284.412,713.624 L313.5,713.624 Z M308.124,708.968 L289.788,708.968 L289.788,704.456 L308.124,704.456 L308.124,708.968 Z M302.652,729.896 L302.652,721.832 L318.924,721.832 L318.924,717.128 L278.988,717.128 L278.988,721.832 L297.276,721.832 L297.276,729.896 L302.652,729.896 Z M314.46,738.68 L314.46,733.976 L289.788,733.976 L289.788,725.432 L284.412,725.432 L284.412,738.68 L314.46,738.68 Z M358.72,717.608 L358.72,694.328 L353.344,694.328 L353.344,717.608 L358.72,717.608 Z M321.232,716.648 C321.776,716.616 322.28,716.576 322.744,716.528 C323.208,716.48 323.664,716.424 324.112,716.36 C324.56,716.296 325.024,716.2 325.504,716.072 C325.984,715.944 326.512,715.768 327.088,715.544 C327.76,715.288 328.48,714.96 329.248,714.56 C330.016,714.16 330.768,713.664 331.504,713.072 C332.24,712.48 332.92,711.776 333.544,710.96 C334.168,710.144 334.688,709.192 335.104,708.104 C335.968,710.056 337.344,711.704 339.232,713.048 C341.12,714.392 343.36,715.528 345.952,716.456 L345.952,716.456 L348.496,712.232 C347.024,711.784 345.624,711.176 344.296,710.408 C342.968,709.64 341.8,708.768 340.792,707.792 C339.784,706.816 338.984,705.76 338.392,704.624 C337.8,703.488 337.504,702.328 337.504,701.144 L337.504,701.144 L337.504,694.424 L329.008,694.424 L329.008,699.128 L332.032,699.128 L332.032,701.144 C332.032,702.424 331.856,703.584 331.504,704.624 C331.152,705.664 330.688,706.584 330.112,707.384 C329.536,708.184 328.888,708.856 328.168,709.4 C327.448,709.944 326.704,710.376 325.936,710.696 C324.944,711.112 324.048,711.384 323.248,711.512 C322.448,711.64 321.776,711.704 321.232,711.704 L321.232,711.704 L321.232,716.648 Z M359.248,739.64 L359.248,734.984 L336.064,734.984 L336.064,731.768 L358.48,731.768 L358.48,719.384 L330.688,719.384 L330.688,724.04 L353.104,724.04 L353.104,727.304 L330.688,727.304 L330.688,739.64 L359.248,739.64 Z M410.76,725.624 L410.76,694.328 L405.384,694.328 L405.384,725.624 L410.76,725.624 Z M397.992,720.44 L400.488,716.312 C399.016,715.864 397.624,715.168 396.312,714.224 C395,713.28 393.84,712.216 392.832,711.032 C391.824,709.848 391.024,708.6 390.432,707.288 C389.84,705.976 389.544,704.728 389.544,703.544 L389.544,703.544 L389.544,695.144 L381.048,695.144 L381.048,699.848 L384.072,699.848 L384.072,703.544 C384.072,706.008 383.576,708.144 382.584,709.952 C381.592,711.76 380.2,713.128 378.408,714.056 C376.904,714.824 375.192,715.208 373.272,715.208 L373.272,715.208 L373.272,720.008 C374.488,719.976 375.648,719.864 376.752,719.672 C377.856,719.48 378.904,719.192 379.896,718.808 C381.56,718.168 383.032,717.256 384.312,716.072 C385.592,714.888 386.552,713.336 387.192,711.416 C387.896,713.304 389.224,715.016 391.176,716.552 C393.128,718.088 395.4,719.384 397.992,720.44 L397.992,720.44 Z M411.864,738.68 L411.864,733.976 L388.008,733.976 L388.008,722.696 L382.632,722.696 L382.632,738.68 L411.864,738.68 Z M446.716,719.912 C447.036,718.856 447.356,717.6 447.676,716.144 C447.996,714.688 448.284,713.104 448.54,711.392 C448.796,709.68 448.996,707.88 449.14,705.992 C449.284,704.104 449.356,702.216 449.356,700.328 L449.356,700.328 L449.356,695.72 L419.26,695.72 L419.26,700.424 L443.836,700.424 C443.836,704.264 443.62,707.712 443.188,710.768 C442.756,713.824 442.188,716.552 441.484,718.952 L441.484,718.952 L446.716,719.912 Z M454.204,730.04 L454.204,725.336 L433.9,725.336 L433.9,710.936 L428.524,710.936 L428.524,725.336 L414.268,725.336 L414.268,730.04 L454.204,730.04 Z" id="/" fill="#242424" fill-rule="nonzero"></path>
        <g id="Group" transform="translate(8.000000, 17.000000)">
            <polygon id="Fill-57" fill="#CCCCCC" points="10 21 596 21 596 19 10 19"></polygon>
            <path d="M150,19 C150,28.3888692 142.389094,36 133.000502,36 C123.61191,36 116,28.3888692 116,19 C116,9.6111308 123.61191,2 133.000502,2 C142.389094,2 150,9.6111308 150,19" id="Fill-62" fill="#CCCCCC"></path>
            <path d="M35,19 C35,28.3888692 27.389094,36 17.9994978,36 C8.61191032,36 1,28.3888692 1,19 C1,9.6111308 8.61191032,2 17.9994978,2 C27.389094,2 35,9.6111308 35,19" id="Fill-63" fill="#CCCCCC"></path>
            <path d="M17.4005542,26 C17.1181346,26 16.8406011,25.8989758 16.619747,25.7129313 L10.4475591,20.5126876 C9.92474082,20.0715821 9.84851684,19.2783923 10.2794755,18.7412639 C10.7114114,18.2051356 11.4844007,18.1281172 12.0101507,18.570223 L17.2295389,22.9682749 L24.818711,13.4620012 C25.2477152,12.925873 26.0216818,12.8428531 26.548409,13.2839586 C27.074159,13.7240639 27.1523375,14.5172536 26.722356,15.0553823 L18.353354,25.5378895 C18.1471583,25.7969514 17.8471486,25.9609907 17.522708,25.9939986 C17.4816643,25.9979995 17.4406207,26 17.4005542,26" id="Fill-76" fill="#FFFFFF"></path>
            <path d="M17.4005542,26 C17.1181346,26 16.8406011,25.8989758 16.619747,25.7129313 L10.4475591,20.5126876 C9.92474082,20.0715821 9.84851684,19.2783923 10.2794755,18.7412639 C10.7114114,18.2051356 11.4844007,18.1281172 12.0101507,18.570223 L17.2295389,22.9682749 L24.818711,13.4620012 C25.2477152,12.925873 26.0216818,12.8428531 26.548409,13.2839586 C27.074159,13.7240639 27.1523375,14.5172536 26.722356,15.0553823 L18.353354,25.5378895 C18.1471583,25.7969514 17.8471486,25.9609907 17.522708,25.9939986 C17.4816643,25.9979995 17.4406207,26 17.4005542,26 Z" id="Stroke-77" stroke="#FFFFFF"></path>
            <path d="M132.400554,26 C132.118135,26 131.840601,25.8989758 131.619747,25.7129313 L125.447559,20.5126876 C124.924741,20.0715821 124.848517,19.2783923 125.279475,18.7412639 C125.711411,18.2051356 126.484401,18.1281172 127.010151,18.570223 L132.229539,22.9682749 L139.818711,13.4620012 C140.247715,12.925873 141.021682,12.8428531 141.548409,13.2839586 C142.074159,13.7240639 142.152337,14.5172536 141.722356,15.0553823 L133.353354,25.5378895 C133.147158,25.7969514 132.847149,25.9609907 132.522708,25.9939986 C132.481664,25.9979995 132.440621,26 132.400554,26" id="Fill-78" fill="#FFFFFF"></path>
            <path d="M132.400554,26 C132.118135,26 131.840601,25.8989758 131.619747,25.7129313 L125.447559,20.5126876 C124.924741,20.0715821 124.848517,19.2783923 125.279475,18.7412639 C125.711411,18.2051356 126.484401,18.1281172 127.010151,18.570223 L132.229539,22.9682749 L139.818711,13.4620012 C140.247715,12.925873 141.021682,12.8428531 141.548409,13.2839586 C142.074159,13.7240639 142.152337,14.5172536 141.722356,15.0553823 L133.353354,25.5378895 C133.147158,25.7969514 132.847149,25.9609907 132.522708,25.9939986 C132.481664,25.9979995 132.440621,26 132.400554,26 Z" id="Stroke-79" stroke="#FFFFFF"></path>
            <circle id="Oval" fill="#D8D8D8" cx="18" cy="18" r="18"></circle>
            <polygon id="1" fill="#FFFFFF" fill-rule="nonzero" points="19.9 25.52 19.9 11.1 18.24 11.1 13.6 13.82 14.54 15.42 17.92 13.42 17.92 25.52"></polygon>
            <circle id="Oval-Copy" fill="#FF0000" cx="133" cy="18" r="18"></circle>
            <path d="M138.36,24.52 L138.36,22.8 L131.12,22.8 L135.62,18 C136.92,16.62 137.84,15.26 137.84,13.7 L137.84,13.5 C137.84,11.4 136.26,9.88 133.34,9.88 C130.68,9.88 129.4,11.54 128.72,12.78 L130.24,13.76 C131.18,12.08 132.32,11.66 133.38,11.66 C134.88,11.66 135.86,12.36 135.86,13.5 L135.86,13.66 C135.86,14.42 135.7,15.22 134.06,17.02 L128.68,22.86 L128.68,24.52 L138.36,24.52 Z" id="2" fill="#FFFFFF" fill-rule="nonzero"></path>
            <circle id="Oval-Copy-2" fill="#D8D8D8" cx="247" cy="18" r="18"></circle>
            <path d="M247.08,24.74 C250.62,24.74 252.12,22.68 252.12,20.56 L252.12,20.26 C252.12,18.6 251.14,17.28 249.2,16.94 C250.98,16.3 251.46,14.82 251.46,13.68 L251.46,13.48 C251.46,11.32 249.76,9.88 247.1,9.88 C244.94,9.88 243.74,10.84 242.9,12.04 L244.32,13.08 C245.1,12.06 245.94,11.64 247.12,11.64 C248.42,11.64 249.5,12.28 249.5,13.54 L249.5,13.7 C249.5,14.94 248.88,16.14 247.08,16.14 L245.38,16.14 L245.38,17.86 L247.16,17.86 C248.84,17.86 250.14,18.42 250.14,20.32 L250.14,20.58 C250.14,21.88 249.18,22.94 247.08,22.94 C245.84,22.94 244.84,22.58 243.44,21.56 L242.46,23.14 C243.82,24.22 245.4,24.74 247.08,24.74 Z" id="3" fill="#FFFFFF" fill-rule="nonzero"></path>
            <circle id="Oval-Copy-3" fill="#D8D8D8" cx="362" cy="18" r="18"></circle>
            <polygon id="4" fill="#FFFFFF" fill-rule="nonzero" points="365.1 24.52 365.1 21.42 367.14 21.42 367.14 19.74 365.1 19.74 365.1 15.32 363.14 15.32 363.14 19.74 358.26 19.74 364.9 10.1 362.72 10.1 355.94 19.94 355.94 21.42 363.14 21.42 363.14 24.52"></polygon>
            <circle id="Oval-Copy-4" fill="#D8D8D8" cx="478" cy="18" r="18"></circle>
            <path d="M478.56,24.74 C482.16,24.74 483.58,22.3 483.58,20.18 L483.58,19.88 C483.58,17.44 482.02,15.42 479.28,15.42 C478.08,15.42 477.04,15.82 476.4,16.3 L476.62,11.8 L482.64,11.8 L482.64,10.1 L474.82,10.1 L474.36,18.22 L475.88,18.22 C476.52,17.6 477.48,17.08 478.7,17.08 C480.54,17.08 481.6,18.02 481.6,19.94 L481.6,20.18 C481.6,21.52 480.7,22.94 478.6,22.94 C477.26,22.94 476.02,22.64 474.64,21.56 L473.66,23.14 C475.02,24.22 476.6,24.74 478.56,24.74 Z" id="5" fill="#FFFFFF" fill-rule="nonzero"></path>
            <circle id="Oval-Copy-5" fill="#D8D8D8" cx="592" cy="18" r="18"></circle>
            <path d="M591.66,24.74 C594.6,24.74 596.58,22.86 596.58,20.1 L596.58,19.66 C596.58,16.84 594.6,15.06 592.04,15.06 C590.44,15.06 589.08,15.86 588.6,16.7 C588.74,12.9 590.1,11.7 592.06,11.7 C593.2,11.7 594.26,12.02 595.16,12.54 L595.92,10.86 C594.84,10.2 593.48,9.88 592.18,9.88 C588.94,9.88 586.64,11.74 586.64,18.06 L586.64,18.8 C586.64,22.66 588.42,24.74 591.66,24.74 Z M591.58,22.94 C589.78,22.94 588.66,21.76 588.66,19.9 L588.66,19.62 C588.66,18.04 589.88,16.82 591.64,16.82 C593.4,16.82 594.6,17.82 594.6,19.74 L594.6,20 C594.6,21.88 593.44,22.94 591.58,22.94 Z" id="6" fill="#FFFFFF" fill-rule="nonzero"></path>
            <path d="M15.8,57.92 L15.8,50.96 L14.42,50.96 L14.42,53.24 L5.38,53.24 L5.38,50.96 L4,50.96 L4,57.92 L15.8,57.92 Z M14.42,56.7 L5.38,56.7 L5.38,54.42 L14.42,54.42 L14.42,56.7 Z M10.8,64.92 L10.8,61.24 L18.3,61.24 L18.3,60.04 L1.5,60.04 L1.5,61.24 L9.4,61.24 L9.4,64.92 L10.8,64.92 Z M16.2,68.5 L16.2,67.26 L5.4,67.26 L5.4,63.3 L3.98,63.3 L3.98,68.5 L16.2,68.5 Z M33.72,59.48 L33.72,50.44 L32.32,50.44 L32.32,59.48 L33.72,59.48 Z M19.74,59.82 C21.1,58.84 22.22,57.92 22.92,57.3 C23.8,56.54 24.3,55.98 24.4,55.66 L24.42,55.66 C24.54,56 25.28,56.64 26.22,57.38 C26.8,57.84 27.7,58.52 28.64,59.18 L29.44,58.16 C28.38,57.46 27.24,56.6 26.5,55.98 C25.24,54.92 25.06,54.46 25.06,53 L25.06,50.9 L23.62,50.9 L23.62,53.06 C23.62,54.52 23.3,55.2 22.14,56.26 C21.32,57 20.14,57.94 18.9,58.8 L19.74,59.82 Z M34.2,68.78 L34.2,67.58 L23.92,67.58 L23.92,65.26 L33.72,65.26 L33.72,60.56 L22.44,60.56 L22.44,61.78 L32.34,61.78 L32.34,64.08 L22.54,64.08 L22.54,68.78 L34.2,68.78 Z" id="" fill="#6E6E6E" fill-rule="nonzero"></path>
            <path d="M238.86,59.84 L238.86,50.44 L237.48,50.44 L237.48,54.44 L234.84,54.44 L234.84,50.68 L233.46,50.68 L233.46,59.8 L234.84,59.8 L234.84,55.7 L237.48,55.7 L237.48,59.84 L238.86,59.84 Z M227.6,59.36 C230.26,59.36 231.62,57.42 231.62,55.78 L231.62,54.78 C231.62,53.14 230.26,51.2 227.6,51.2 C224.94,51.2 223.58,53.14 223.58,54.78 L223.58,55.78 C223.58,57.42 224.94,59.36 227.6,59.36 Z M227.6,58.08 C225.9,58.08 224.96,56.86 224.96,55.64 L224.96,54.92 C224.96,53.7 225.9,52.48 227.6,52.48 C229.3,52.48 230.24,53.7 230.24,54.92 L230.24,55.64 C230.24,56.86 229.3,58.08 227.6,58.08 Z M238.86,68.7 L238.86,60.92 L237.48,60.92 L237.48,63.42 L228.88,63.42 L228.88,60.92 L227.5,60.92 L227.5,68.7 L238.86,68.7 Z M237.48,67.44 L228.88,67.44 L228.88,64.66 L237.48,64.66 L237.48,67.44 Z M254.78,68.72 L254.78,58.48 L257.82,58.48 L257.82,57.22 L254.78,57.22 L254.78,50.44 L253.36,50.44 L253.36,68.72 L254.78,68.72 Z M245.04,63.84 C247.28,63.84 249.68,63.7 251.8,63.32 L251.62,62.06 C249.38,62.44 247.44,62.56 245.4,62.56 L243.04,62.56 L243.04,53.38 L249.94,53.38 L249.94,52.1 L241.62,52.1 L241.62,63.84 L245.04,63.84 Z M266.2,58.18 C269.4,58.18 271.94,56.9 271.94,54.9 L271.94,54.14 C271.94,52.14 269.4,50.86 266.2,50.86 C263,50.86 260.46,52.14 260.46,54.14 L260.46,54.9 C260.46,56.9 263,58.18 266.2,58.18 Z M266.2,56.98 C263.9,56.98 261.82,56.08 261.82,54.8 L261.82,54.24 C261.82,52.96 263.9,52.06 266.2,52.06 C268.5,52.06 270.58,52.96 270.58,54.24 L270.58,54.8 C270.58,56.08 268.5,56.98 266.2,56.98 Z M267.12,64.84 L267.12,61.06 L274.6,61.06 L274.6,59.86 L257.8,59.86 L257.8,61.06 L265.72,61.06 L265.72,64.84 L267.12,64.84 Z M272.5,68.5 L272.5,67.26 L261.72,67.26 L261.72,63.1 L260.3,63.1 L260.3,68.5 L272.5,68.5 Z" id="" fill="#6E6E6E" fill-rule="nonzero"></path>
            <path d="M128.52,63.48 L128.52,50.44 L127.12,50.44 L127.12,63.48 L128.52,63.48 Z M114.64,61.28 C115.8,60.36 116.94,59.4 117.64,58.74 C118.52,57.9 119.14,57.28 119.2,56.94 L119.22,56.94 C119.32,57.26 119.86,57.8 120.78,58.58 C121.46,59.16 122.34,59.88 123.44,60.72 L124.28,59.74 C123.38,59.08 122.3,58.22 121.32,57.36 C120.040909,56.2145455 119.87343,55.725124 119.860847,54.3957814 L119.86,51.3 L118.42,51.3 L118.42,54.24 C118.42,55.76 118.28,56.26 117.02,57.52 C116.12,58.42 114.84,59.46 113.76,60.28 L114.64,61.28 Z M128.98,68.5 L128.98,67.26 L118.78,67.26 L118.78,62.4 L117.36,62.4 L117.36,68.5 L128.98,68.5 Z M144.28,62.58 C144.76,60 144.98,57.68 144.98,54.32 L144.98,52.16 L132.82,52.16 L132.82,53.4 L143.52,53.4 L143.52,55.06 C143.52,57.74 143.26,59.94 142.8,62.4 L144.28,62.58 Z M147.5,66.14 L147.5,64.92 L138.52,64.92 L138.52,57.9 L137.08,57.9 L137.08,64.92 L130.7,64.92 L130.7,66.14 L147.5,66.14 Z" id="" fill="#FF0000" fill-rule="nonzero"></path>
            <path d="M345.88,61.36 C346.8,60.7 348.16,59.62 348.86,59 C349.7,58.26 350.34,57.6 350.42,57.3 L350.44,57.3 C350.52,57.56 351.3,58.24 352.24,59 C352.84,59.48 353.8,60.2 354.6,60.76 L355.42,59.76 C354.28,59 353.16,58.16 352.52,57.62 C351.22,56.5 351.08,55.96 351.08,54.82 L351.08,53.78 L355.08,53.78 L355.08,52.56 L351.08,52.56 L351.08,50.28 L349.66,50.28 L349.66,52.56 L345.44,52.56 L345.44,53.78 L349.66,53.78 L349.66,54.88 C349.66,55.92 349.44,56.62 348.46,57.58 C347.48,58.54 346.2,59.52 345.02,60.36 L345.88,61.36 Z M359.7,61.38 L359.7,50.44 L358.3,50.44 L358.3,55.72 L354.56,55.72 L354.56,56.96 L358.3,56.96 L358.3,61.38 L359.7,61.38 Z M354.26,69.2 C357.36,69.2 359.8,67.92 359.8,65.88 L359.8,65.12 C359.8,63.08 357.36,61.8 354.26,61.8 C351.16,61.8 348.72,63.04 348.72,65.1 L348.72,65.88 C348.72,67.92 351.16,69.2 354.26,69.2 Z M354.26,68 C352.02,68 350.08,67.16 350.08,65.8 L350.08,65.2 C350.08,63.84 352.02,63 354.26,63 C356.5,63 358.44,63.84 358.44,65.2 L358.44,65.8 C358.44,67.16 356.5,68 354.26,68 Z M370.8,68.72 L370.8,61.24 L378.5,61.24 L378.5,60.02 L375.28,60.02 C375.66,58.2 375.88,55.94 375.88,53.82 L375.88,51.64 L363.9,51.64 L363.9,52.86 L374.44,52.86 L374.44,54.28 C374.44,56.02 374.22,58.22 373.82,60.02 L361.7,60.02 L361.7,61.24 L369.38,61.24 L369.38,68.72 L370.8,68.72 Z" id="" fill="#6E6E6E" fill-rule="nonzero"></path>
            <path d="M474.86,59.66 L474.86,55.64 L477.66,55.64 L477.66,54.4 L474.86,54.4 L474.86,50.44 L473.46,50.44 L473.46,59.66 L474.86,59.66 Z M471.8,58.22 L471.64,56.96 C468.6,57.36 466.9,57.44 463.02,57.44 L463.02,51.44 L461.6,51.44 L461.6,58.72 L462.524364,58.7191166 C467.251349,58.7094118 468.825882,58.6152941 471.8,58.22 Z M474.86,68.68 L474.86,60.74 L473.48,60.74 L473.48,63.32 L465.26,63.32 L465.26,60.74 L463.88,60.74 L463.88,68.68 L474.86,68.68 Z M473.48,67.42 L465.26,67.42 L465.26,64.56 L473.48,64.56 L473.48,67.42 Z M492.02,58.98 L492.02,51.14 L490.64,51.14 L490.64,53.88 L481.56,53.88 L481.56,51.14 L480.18,51.14 L480.18,58.98 L492.02,58.98 Z M490.64,57.8 L481.56,57.8 L481.56,55.1 L490.64,55.1 L490.64,57.8 Z M486.82,68.72 L486.82,62.64 L494.5,62.64 L494.5,61.42 L477.7,61.42 L477.7,62.64 L485.4,62.64 L485.4,68.72 L486.82,68.72 Z" id="" fill="#6E6E6E" fill-rule="nonzero"></path>
            <path d="M576.28,58.98 C577.9,58.34 579.46,57.62 580.54,57.08 C581.86,56.42 582.64,55.84 582.88,55.38 L582.9,55.38 C583.12,55.84 583.92,56.4 585.24,57.06 C586.32,57.6 587.84,58.3 589.46,58.94 L590.06,57.84 C588.58,57.28 586.96,56.56 585.68,55.9 C584.14,55.12 583.6,54.46 583.6,52.68 L583.6,51.08 L582.18,51.08 L582.18,52.68 C582.18,54.46 581.62,55.12 580.08,55.9 C578.8,56.56 577.14,57.3 575.66,57.86 L576.28,58.98 Z M583.62,68.72 L583.62,62.16 L591.3,62.16 L591.3,60.94 L574.5,60.94 L574.5,62.16 L582.2,62.16 L582.2,68.72 L583.62,68.72 Z M606.92,61.54 L606.92,50.44 L605.54,50.44 L605.54,53 L601.72,53 L601.72,54.22 L605.54,54.22 L605.54,56.26 L601.72,56.26 L601.72,57.48 L605.54,57.48 L605.54,61.54 L606.92,61.54 Z M602.8,60.24 L602.66,59.02 C600.22,59.3 597.7,59.34 594.26,59.34 L594.26,56.56 L600.32,56.56 L600.32,51.36 L592.88,51.36 L592.88,52.6 L598.94,52.6 L598.94,55.36 L592.88,55.36 L592.88,60.58 L593.82687,60.5792078 C598.249927,60.5713424 600.49871,60.5019355 602.8,60.24 Z M601.46,69.22 C604.7,69.22 607.02,67.98 607.02,65.98 L607.02,65.26 C607.02,63.28 604.7,62.02 601.46,62.02 C598.22,62.02 595.9,63.26 595.9,65.24 L595.9,65.98 C595.9,67.98 598.22,69.22 601.46,69.22 Z M601.46,68.02 C599.04,68.02 597.26,67.12 597.26,65.92 L597.26,65.32 C597.26,64.14 599.04,63.22 601.46,63.22 C603.88,63.22 605.66,64.12 605.66,65.32 L605.66,65.92 C605.66,67.12 603.88,68.02 601.46,68.02 Z" id="" fill="#6E6E6E" fill-rule="nonzero"></path>
        </g>
    </g>
</svg>