<?xml version="1.0" encoding="UTF-8"?>
<svg width="609px" height="517px" viewBox="0 0 609 517" version="1.1" xmlns="http://www.w3.org/2000/svg" xmlns:xlink="http://www.w3.org/1999/xlink">
    <title>img-03-6</title>
    <defs>
        <polygon id="path-1" points="0 0.3657 1.3689 0.3657 1.3689 175.2457 0 175.2457"></polygon>
        <polygon id="path-3" points="0.237 0.5372 57.403 0.5372 57.403 53.3512 0.237 53.3512"></polygon>
    </defs>
    <g id="img-03-6" stroke="none" stroke-width="1" fill="none" fill-rule="evenodd">
        <text id="휴대폰-수령" font-family="TgothicMedium, Tgothic" font-size="27" font-weight="400" fill="#242424">
            <tspan x="239.255" y="501">휴대폰 수령 </tspan>
        </text>
        <g id="Group-267" transform="translate(107.000000, 120.000000)">
            <path d="M208.0326,163.1593 C207.9336,163.1593 207.8326,163.1383 207.7356,163.0923 L198.8166,158.7903 C198.4766,158.6253 198.3346,158.2163 198.4986,157.8763 C198.6636,157.5363 199.0686,157.3893 199.4126,157.5563 L208.3316,161.8583 C208.6716,162.0233 208.8136,162.4323 208.6496,162.7723 C208.5316,163.0163 208.2876,163.1593 208.0326,163.1593" id="Fill-1" fill="#C7CBD2"></path>
            <path d="M208.0228,163.004 C207.6468,163.004 207.3408,162.7 207.33779,162.324 C207.3358,161.946 207.6398,161.639 208.0178,161.636 L292.4548,161.09 L292.4588,161.09 C292.8358,161.09 293.1408,161.394 293.142822,161.771 C293.1458,162.149 292.8408,162.456 292.4628,162.459 L208.0278,163.004 L208.0228,163.004 Z" id="Fill-3" fill="#C7CBD2"></path>
            <path d="M323.889,162.256 C323.513,162.256 323.207,161.952 323.20399,161.576 C323.202,161.198 323.506,160.89 323.884,160.887 L336.5,160.805 C336.902,160.819 337.187,161.108 337.19001,161.485 C337.192,161.862 336.887,162.171 336.509,162.174 L323.894,162.256 L323.889,162.256 Z" id="Fill-5" fill="#C7CBD2"></path>
            <path d="M207.8831,166.3224 C207.7731,166.3224 207.6621,166.2964 207.5591,166.2404 L198.4061,161.3094 C198.0721,161.1304 197.9491,160.7154 198.1281,160.3834 C198.3081,160.0494 198.7221,159.9244 199.0551,160.1044 L208.2081,165.0354 C208.5411,165.2154 208.6651,165.6304 208.4861,165.9624 C208.3621,166.1924 208.1271,166.3224 207.8831,166.3224" id="Fill-7" fill="#C7CBD2"></path>
            <path d="M208.0228,166.5988 C207.6458,166.5988 207.3398,166.2938 207.33779,165.9168 C207.3358,165.5388 207.6418,165.2318 208.0198,165.2298 L291.8008,164.8708 L291.8708,165.5558 L291.8708,166.2408 L286.9238,166.2608 L208.0258,166.5988 L208.0228,166.5988 Z" id="Fill-9" fill="#C7CBD2"></path>
            <path d="M321.8558,166.1115 C321.4798,166.1115 321.1728,165.8075 321.17179,165.4305 C321.1698,165.0525 321.4738,164.7455 321.8528,164.7435 L337.2538,164.6765 L337.2568,164.6765 C337.6338,164.6765 337.9398,164.9815 337.94181,165.3585 C337.9438,165.7365 337.6378,166.0445 337.2598,166.0465 L321.8598,166.1115 L321.8558,166.1115 Z" id="Fill-11" fill="#C7CBD2"></path>
            <path d="M292.2962,158.8263 L292.2952,158.8263 L283.3922,158.8153 L198.8972,158.7183 C198.5192,158.7183 198.2132,158.4103 198.2132,158.0323 C198.2132,157.6543 198.5202,157.3483 198.8972,157.3483 L198.8982,157.3483 L292.2982,157.4573 C292.6762,157.4583 292.9822,157.7643 292.981202,158.1433 C292.9802,158.5203 292.6732,158.8263 292.2962,158.8263" id="Fill-13" fill="#C7CBD2"></path>
            <path d="M338.3119,158.8566 L338.3109,158.8566 L321.5809,158.8386 C321.2029,158.8386 320.8969,158.5316 320.8969,158.1536 C320.8969,157.7766 321.2039,157.4706 321.5809,157.4706 L321.5819,157.4706 L338.3119,157.4876 C338.6899,157.4876 338.9959,157.7946 338.9959,158.1726 C338.9959,158.5506 338.6889,158.8566 338.3119,158.8566" id="Fill-15" fill="#C7CBD2"></path>
            <path d="M219.221,219.5509 C218.845,219.5509 218.538,219.2469 218.536,218.8699 L218.25999,166.6099 C218.258,166.2319 218.564,165.9229 218.941,165.9209 L218.945,165.9209 C219.321,165.9209 219.627,166.2249 219.629,166.6019 L219.90601,218.8639 C219.908,219.2399 219.603,219.5489 219.225,219.5509 L219.221,219.5509 Z" id="Fill-17" fill="#C7CBD2"></path>
            <path d="M244.3831,179.9552 C244.0081,179.9552 243.7021,179.6532 243.6981,179.2772 L243.5611,166.0112 C243.5581,165.6332 243.8611,165.3232 244.2381,165.3192 L244.2451,165.3192 C244.6201,165.3192 244.9261,165.6222 244.9301,165.9972 L245.0671,179.2642 C245.0711,179.6422 244.7681,179.9502 244.3901,179.9552 L244.3831,179.9552 Z" id="Fill-19" fill="#C7CBD2"></path>
            <path d="M236.6751,220.1056 L219.3601,220.1056 C218.9821,220.1056 218.6761,219.7986 218.6761,219.4206 C218.6761,219.0436 218.9821,218.7366 219.3601,218.7366 L236.6751,218.7366 C237.0531,218.7366 237.3601,219.0436 237.3601,219.4206 C237.3601,219.7986 237.0531,220.1056 236.6751,220.1056" id="Fill-21" fill="#C7CBD2"></path>
            <path d="M219.0824,219.6896 C218.9124,219.6896 218.7424,219.6276 218.6094,219.5006 L206.0284,207.4716 C205.7554,207.2096 205.7454,206.7776 206.0074,206.5026 C206.2684,206.2286 206.7014,206.2216 206.9754,206.4826 L219.5564,218.5106 C219.8284,218.7716 219.8384,219.2056 219.5774,219.4786 C219.4424,219.6196 219.2634,219.6896 219.0824,219.6896" id="Fill-23" fill="#C7CBD2"></path>
            <path d="M206.3636,207.9386 C205.9886,207.9386 205.6826,207.6356 205.6786,207.2606 L205.2636,165.3686 C205.2596,164.9906 205.5626,164.6806 205.9406,164.6766 L205.9486,164.6766 C206.3236,164.6766 206.6296,164.9796 206.6326,165.3546 L207.04861,207.2476 C207.0506,207.6256 206.7486,207.9346 206.3706,207.9386 L206.3636,207.9386 Z" id="Fill-25" fill="#C7CBD2"></path>
            <path d="M198.7738,161.3048 C198.4118,161.3048 198.1088,161.0208 198.0908,160.6548 L197.9608,158.0148 C197.9418,157.6368 198.2338,157.3168 198.6108,157.2978 C198.9838,157.2718 199.3088,157.5698 199.3278,157.9478 L199.4588,160.5868 C199.4768,160.9648 199.1848,161.2848 198.8078,161.3038 C198.7958,161.3048 198.7858,161.3048 198.7738,161.3048" id="Fill-27" fill="#C7CBD2"></path>
            <path d="M276.9251,155.6955 C275.9121,155.6955 275.1191,154.9015 275.1191,153.9245 L279.6101,120.1505 C279.6031,119.2645 280.3981,118.4695 281.3741,118.4695 L318.1081,118.9945 C319.0741,118.9945 319.8681,119.7885 319.8681,120.7645 C319.8681,120.7995 319.8661,120.8335 319.8611,120.8675 L315.1281,152.0155 C315.0981,152.9665 314.3151,153.7285 313.3591,153.7285 L311.1811,153.8465 C310.8031,153.8725 310.4821,153.5785 310.4611,153.2005 C310.4411,152.8235 310.7301,152.5005 311.1081,152.4795 L313.3221,152.3605 C313.5801,152.3595 313.7601,152.1795 313.7601,151.9585 C313.7601,151.9235 313.7631,151.8885 313.7681,151.8555 L318.4981,120.7255 C318.4791,120.5225 318.3071,120.3635 318.0981,120.3635 L281.3641,119.8395 C281.1531,119.8395 280.9721,120.0195 280.9721,120.2405 L276.4821,154.0155 C276.4881,154.1475 276.6681,154.3275 276.8901,154.3275 L298.0321,153.1855 C298.4011,153.1515 298.7331,153.4555 298.7531,153.8335 C298.7741,154.2105 298.4841,154.5325 298.1061,154.5525 L276.9271,155.6955 L276.9251,155.6955 Z" id="Fill-29" fill="#C7CBD2"></path>
            <path d="M299.6341,156.1837 C299.2911,156.1837 298.9941,155.9257 298.9551,155.5767 L296.954085,137.9337 C296.9501,136.8797 297.7441,136.0857 298.7211,136.0857 L304.3801,136.5217 L304.3841,136.5217 C305.2731,136.5217 306.0401,137.2567 306.0951,138.1817 L310.5641,153.7547 C310.6671,154.1187 310.4581,154.4967 310.0951,154.6017 C309.7291,154.7077 309.3521,154.4967 309.2481,154.1327 L304.7571,138.4787 C304.7381,138.4167 304.7301,138.3547 304.7301,138.2897 C304.7301,138.0687 304.5501,137.8877 304.3281,137.8877 L298.6681,137.4537 C298.4991,137.4547 298.3191,137.6347 298.3191,137.8567 L300.3151,155.4217 C300.3581,155.7977 300.0881,156.1367 299.7131,156.1787 C299.6861,156.1817 299.6601,156.1837 299.6341,156.1837" id="Fill-31" fill="#C7CBD2"></path>
            <path d="M265.6556,158.3234 C265.3236,158.3234 265.0316,158.0814 264.9796,157.7424 L264.6076,155.2954 C263.9956,151.2714 263.4666,147.7974 263.2516,146.7524 C263.0446,145.7484 262.9826,145.0204 262.9376,144.4904 C262.8436,143.3844 262.8216,143.1214 261.6456,142.1044 C260.0056,140.6854 250.0086,141.9544 247.6796,142.6964 C245.9016,143.2614 245.6286,143.3484 245.2206,145.5504 C245.1416,145.9804 245.1206,148.0464 245.8706,157.0394 C245.9016,157.4164 245.6216,157.7464 245.2456,157.7774 C244.8786,157.8084 244.5376,157.5314 244.5066,157.1534 C243.6306,146.6344 243.8136,145.6314 243.8756,145.3014 C244.3776,142.5884 245.0056,142.1104 247.2646,141.3914 C248.9926,140.8424 260.1316,138.9874 262.5416,141.0694 C264.0736,142.3934 264.1886,143.0404 264.3016,144.3754 C264.3456,144.8984 264.4016,145.5514 264.5916,146.4754 C264.8136,147.5554 265.3196,150.8804 265.9606,155.0894 L266.3326,157.5354 C266.3896,157.9094 266.1336,158.2584 265.7596,158.3154 C265.7246,158.3204 265.6896,158.3234 265.6556,158.3234" id="Fill-33" fill="#C7CBD2"></path>
            <path d="M290.4203,180.0568 C290.2103,180.0568 290.0033,179.9598 289.8693,179.7798 C289.7523,179.6198 289.5983,179.4538 289.4123,179.2858 C287.7723,177.7928 278.5573,177.4008 274.6223,177.2328 L273.3933,177.1778 C272.7753,177.1488 272.2593,177.1338 271.8223,177.1208 C269.4013,177.0498 268.9743,176.9838 268.0553,175.0518 C267.8303,174.5808 267.4243,173.1278 266.2733,166.0138 C266.2123,165.6408 266.4663,165.2888 266.8393,165.2288 C267.2183,165.1678 267.5643,165.4218 267.6243,165.7948 C268.6723,172.2688 269.1083,174.0818 269.2903,174.4628 C269.8773,175.6948 269.8773,175.6948 271.8623,175.7518 C272.3063,175.7658 272.8313,175.7818 273.4573,175.8118 L274.6803,175.8648 C281.2813,176.1468 288.4813,176.5878 290.3333,178.2728 C290.5843,178.5018 290.7993,178.7348 290.9703,178.9648 C291.1943,179.2688 291.1313,179.6978 290.8273,179.9218 C290.7043,180.0128 290.5623,180.0568 290.4203,180.0568" id="Fill-35" fill="#C7CBD2"></path>
            <path d="M248.3197,179.9005 C248.1387,179.9005 247.9587,179.8295 247.8227,179.6865 C247.0647,178.8865 246.5507,178.0845 246.5287,178.0505 C246.4717,177.9615 246.4357,177.8585 246.4247,177.7515 C246.4247,177.7515 245.9387,172.9295 245.3827,167.0055 C245.3487,166.6295 245.6257,166.2955 246.0017,166.2595 C246.3867,166.2235 246.7107,166.5005 246.7477,166.8775 C247.2397,172.1465 247.6787,176.5425 247.7697,177.4445 C247.9347,177.6845 248.3197,178.2205 248.8167,178.7465 C249.0767,179.0205 249.0647,179.4535 248.7907,179.7135 C248.6587,179.8385 248.4897,179.9005 248.3197,179.9005" id="Fill-37" fill="#C7CBD2"></path>
            <path d="M287.9349,118.7922 L287.9339,118.7922 C287.5559,118.7912 287.2499,118.4832 287.250898,118.1052 L287.3469,49.6532 C287.3469,49.4332 287.4549,49.2262 287.6339,49.0982 L327.4049,20.7302 C327.7119,20.5122 328.1419,20.5832 328.3589,20.8912 C328.5799,21.1982 328.5069,21.6262 328.1999,21.8462 L288.7149,50.0072 L288.6199,118.1082 C288.6189,118.4862 288.3119,118.7922 287.9349,118.7922" id="Fill-39" fill="#C7CBD2"></path>
            <path d="M250.8246,138.7785 L250.8236,138.7785 C250.4456,138.7775 250.1396,138.4695 250.140598,138.0915 L250.2266,77.1205 C250.2266,76.8995 250.3346,76.6925 250.5136,76.5645 L273.0786,60.4695 C273.3866,60.2515 273.8146,60.3225 274.0336,60.6295 C274.2536,60.9375 274.1806,61.3645 273.8736,61.5845 L251.5956,77.4735 L251.5096,138.0955 C251.5086,138.4725 251.2016,138.7785 250.8246,138.7785" id="Fill-41" fill="#C7CBD2"></path>
            <path d="M226.7894,158.1515 C226.4124,158.1515 226.1064,157.8465 226.1044,157.4695 L225.78239,84.9415 C225.7804,84.5635 226.0854,84.2555 226.4644,84.2535 L226.4674,84.2535 C226.8444,84.2535 227.1494,84.5575 227.1514,84.9345 L227.47441,157.4645 C227.4764,157.8415 227.1714,158.1495 226.7924,158.1515 L226.7894,158.1515 Z" id="Fill-43" fill="#C7CBD2"></path>
            <path d="M37.1859,240.4543 C36.8079,240.4543 36.5009,240.1473 36.5009,239.7693 L36.5009,45.8623 C36.5009,45.4843 36.8079,45.1783 37.1859,45.1783 C37.5639,45.1783 37.8709,45.4843 37.8709,45.8623 L37.8709,239.7693 C37.8709,240.1473 37.5639,240.4543 37.1859,240.4543" id="Fill-45" fill="#C7CBD2"></path>
            <g id="Group-49" transform="translate(0.000000, 59.732000)">
                <mask id="mask-2" fill="white">
                    <use xlink:href="#path-1"></use>
                </mask>
                <g id="Clip-48"></g>
                <path d="M0.6849,175.2457 C0.3069,175.2457 -0.0001,174.9387 -0.0001,174.5607 L-0.0001,1.0507 C-0.0001,0.6727 0.3069,0.3657 0.6849,0.3657 C1.0619,0.3657 1.3689,0.6727 1.3689,1.0507 L1.3689,174.5607 C1.3689,174.9387 1.0619,175.2457 0.6849,175.2457" id="Fill-47" fill="#C7CBD2" mask="url(#mask-2)"></path>
            </g>
            <path d="M37.5814,227.1076 C37.3794,227.1076 37.1794,227.0166 37.0434,226.8456 C36.8104,226.5476 36.8614,226.1186 37.1584,225.8836 L80.8294,186.7226 C81.1264,186.4916 81.5574,186.5416 81.7904,186.8376 C82.0234,187.1346 81.9724,187.5656 81.6754,187.7986 L38.0044,226.9616 C37.8794,227.0586 37.7294,227.1076 37.5814,227.1076" id="Fill-50" fill="#C7CBD2"></path>
            <path d="M33.3402,250.5861 C33.1532,250.5861 32.9692,250.5111 32.8332,250.3621 C32.5792,250.0831 32.6002,249.6491 32.8792,249.3961 L89.9172,195.8801 C90.1962,195.6261 90.6302,195.6481 90.8842,195.9261 C91.1382,196.2051 91.1172,196.6391 90.8382,196.8931 L33.8002,250.4081 C33.6692,250.5271 33.5042,250.5861 33.3402,250.5861" id="Fill-52" fill="#C7CBD2"></path>
            <path d="M91.9388,153.629 C91.5608,153.629 91.2548,153.323 91.2538,152.946 L91.1528,44.952 C91.1528,44.575 91.4598,44.268 91.8368,44.268 C92.2148,44.268 92.5218,44.574 92.5218,44.952 L92.6238,152.944 C92.6238,153.322 92.3178,153.629 91.9388,153.629" id="Fill-54" fill="#C7CBD2"></path>
            <path d="M101.0638,138.9347 C100.6858,138.9347 100.3788,138.6277 100.3788,138.2497 L100.3788,50.0777 C100.3788,49.6997 100.6858,49.3927 101.0638,49.3927 C101.4418,49.3927 101.7488,49.6997 101.7488,50.0777 L101.7488,138.2497 C101.7488,138.6277 101.4418,138.9347 101.0638,138.9347" id="Fill-56" fill="#C7CBD2"></path>
            <path d="M192.721,84.9035 C192.58,84.9035 192.439,84.8605 192.317,84.7705 C192.012,84.5485 191.947,84.1195 192.169,83.8145 L251.009,3.5025 C251.231,3.1975 251.659,3.1305 251.965,3.3545 C252.271,3.5785 252.336,4.0065 252.113,4.3105 L193.274,84.6235 C193.14,84.8055 192.932,84.9035 192.721,84.9035" id="Fill-58" fill="#C7CBD2"></path>
            <path d="M183.4847,85.1242 C183.3477,85.1242 183.2107,85.0842 183.0897,84.9992 C182.7817,84.7812 182.7077,84.3542 182.9247,84.0452 L233.9207,11.7012 C234.1377,11.3932 234.5637,11.3172 234.8757,11.5362 C235.1827,11.7542 235.2567,12.1812 235.0407,12.4892 L184.0447,84.8342 C183.9107,85.0222 183.6997,85.1242 183.4847,85.1242" id="Fill-60" fill="#C7CBD2"></path>
            <path d="M201.7757,84.9533 C201.6157,84.9533 201.4557,84.8973 201.3247,84.7843 C201.0407,84.5353 201.0117,84.1023 201.2607,83.8183 L274.3917,0.2343 C274.6407,-0.0517 275.0747,-0.0787 275.3577,0.1703 C275.6417,0.4193 275.6707,0.8513 275.4217,1.1363 L269.9307,7.4103 L202.2907,84.7203 C202.1557,84.8743 201.9647,84.9533 201.7757,84.9533" id="Fill-62" fill="#C7CBD2"></path>
            <path d="M226.2367,85.2033 C226.0457,85.2033 225.8557,85.1243 225.7197,84.9673 C225.4717,84.6823 225.5027,84.2493 225.7887,84.0023 L315.8737,5.8853 C316.1567,5.6383 316.5897,5.6663 316.8387,5.9543 C317.0867,6.2393 317.0557,6.6723 316.7697,6.9203 L226.6847,85.0363 C226.5557,85.1483 226.3967,85.2033 226.2367,85.2033" id="Fill-64" fill="#C7CBD2"></path>
            <path d="M164.9417,85.3214 C164.5647,85.3214 164.2577,85.0164 164.2567,84.6384 C164.2567,84.2604 164.5617,83.9534 164.9407,83.9534 L226.1787,83.7784 L226.1807,83.7784 C226.5577,83.7784 226.8647,84.0834 226.865702,84.4614 C226.8667,84.8394 226.5607,85.1454 226.1827,85.1464 L164.9437,85.3214 L164.9417,85.3214 Z" id="Fill-66" fill="#C7CBD2"></path>
            <path d="M347.4515,121.8234 L347.4505,121.8234 C347.0725,121.8234 346.7655,121.5154 346.766498,121.1374 L346.9065,20.9754 C346.9065,20.5974 347.2135,20.2914 347.5915,20.2914 C347.9695,20.2914 348.2755,20.5974 348.2755,20.9754 L348.2755,21.3854 L348.1355,121.1394 C348.1345,121.5174 347.8285,121.8234 347.4515,121.8234" id="Fill-68" fill="#C7CBD2"></path>
            <path d="M329.2005,155.7082 C328.8225,155.7082 328.5155,155.4012 328.5155,155.0232 L328.5155,11.6332 C328.5155,11.2552 328.8225,10.9492 329.2005,10.9492 C329.5785,10.9492 329.8855,11.2552 329.8855,11.6332 L329.8855,155.0232 C329.8855,155.4012 329.5785,155.7082 329.2005,155.7082" id="Fill-70" fill="#C7CBD2"></path>
            <path d="M356.5765,121.8234 C356.1985,121.8234 355.8915,121.5164 355.8915,121.1384 L355.8915,29.2724 C355.8915,28.8944 356.1985,28.5444 356.5765,28.5444 C356.9545,28.5444 357.2615,28.8064 357.2615,29.1844 L357.2615,121.1384 C357.2615,121.5164 356.9545,121.8234 356.5765,121.8234" id="Fill-72" fill="#C7CBD2"></path>
            <path d="M283.5726,48.8195 C283.3726,48.8195 283.1746,48.7315 283.0386,48.5625 C282.8016,48.2675 282.8496,47.8375 283.1446,47.6005 L328.7726,11.0985 C329.0686,10.8635 329.4986,10.9095 329.7346,11.2055 C329.9706,11.5015 329.9236,11.9315 329.6286,12.1685 L284.0006,48.6695 C283.8746,48.7705 283.7236,48.8195 283.5726,48.8195" id="Fill-74" fill="#C7CBD2"></path>
            <path d="M283.5726,118.7638 C283.1956,118.7638 282.8886,118.4698 282.8886,118.0918 L282.8886,48.1348 C282.8886,47.7568 283.1956,47.4508 283.5726,47.4508 C283.9506,47.4508 284.2576,47.7568 284.2576,48.1348 L284.2576,118.0678 C284.2576,118.4448 283.9506,118.7638 283.5726,118.7638" id="Fill-76" fill="#C7CBD2"></path>
            <path d="M274.4476,154.0402 C274.0696,154.0402 273.7626,153.7332 273.7626,153.3552 L273.7606,55.0142 C273.7606,54.6362 274.0656,54.3292 274.4436,54.3292 C274.8216,54.3292 275.1286,54.6362 275.1286,55.0142 L275.1326,153.3552 C275.1326,153.7332 274.8256,154.0402 274.4476,154.0402" id="Fill-78" fill="#C7CBD2"></path>
            <path d="M247.0716,140.1447 C246.6936,140.1447 246.3866,139.8377 246.3866,139.4597 L246.3866,75.5117 C246.3866,75.1337 246.6936,74.8277 247.0716,74.8277 C247.4496,74.8277 247.7566,75.1337 247.7566,75.5117 L247.7566,139.4597 C247.7566,139.8377 247.4496,140.1447 247.0716,140.1447" id="Fill-80" fill="#C7CBD2"></path>
            <path d="M247.0726,76.1964 C246.8656,76.1964 246.6616,76.1034 246.5266,75.9264 C246.2986,75.6264 246.3556,75.1964 246.6566,74.9674 L273.6836,54.3544 C273.9846,54.1254 274.4156,54.1844 274.6436,54.4844 C274.8726,54.7844 274.8146,55.2144 274.5146,55.4424 L247.4866,76.0554 C247.3626,76.1504 247.2166,76.1964 247.0726,76.1964" id="Fill-82" fill="#C7CBD2"></path>
            <path d="M240.6839,186.7931 C240.5839,186.7931 240.4829,186.7721 240.3869,186.7261 L227.5909,180.5531 C227.2499,180.3881 227.1079,179.9801 227.2719,179.6391 C227.4359,179.2991 227.8409,179.1541 228.1859,179.3191 L240.9819,185.4921 C241.3229,185.6561 241.4649,186.0651 241.3009,186.4061 C241.1829,186.6501 240.9389,186.7931 240.6839,186.7931" id="Fill-84" fill="#C7CBD2"></path>
            <path d="M240.6683,186.5695 C240.2923,186.5695 239.9863,186.2665 239.98329,185.8895 C239.9813,185.5115 240.2853,185.2035 240.6643,185.2005 L383.5523,184.1955 C383.9433,184.1505 384.2373,184.4965 384.240322,184.8755 C384.2433,185.2535 383.9393,185.5615 383.5613,185.5635 L240.6733,186.5695 L240.6683,186.5695 Z" id="Fill-86" fill="#C7CBD2"></path>
            <path d="M240.4691,191.3312 C240.3591,191.3312 240.2481,191.3052 240.1451,191.2492 L227.0131,184.1742 C226.6801,183.9942 226.5561,183.5792 226.7361,183.2472 C226.9141,182.9142 227.3281,182.7882 227.6621,182.9692 L240.7941,190.0442 C241.1271,190.2232 241.2511,190.6382 241.0731,190.9712 C240.9481,191.2002 240.7131,191.3312 240.4691,191.3312" id="Fill-88" fill="#C7CBD2"></path>
            <path d="M240.6683,191.7267 C240.2913,191.7267 239.9853,191.4217 239.98329,191.0457 C239.9813,190.6667 240.2873,190.3597 240.6643,190.3577 L378.4893,189.7147 L378.4933,189.7147 C378.8703,189.7147 379.1763,190.0187 379.17831,190.3957 C379.1803,190.7747 378.8753,191.0817 378.4973,191.0837 L240.6723,191.7267 L240.6683,191.7267 Z" id="Fill-90" fill="#C7CBD2"></path>
            <path d="M371.2435,180.5744 L371.2425,180.5744 L227.5745,180.4204 C227.1965,180.4204 226.8905,180.1124 226.8905,179.7354 C226.8905,179.3574 227.1975,179.0524 227.5755,179.0524 L227.5765,179.0524 L371.2445,179.2064 C371.6215,179.2064 371.927502,179.5124 371.927502,179.8904 C371.927502,180.2684 371.6215,180.5744 371.2435,180.5744" id="Fill-92" fill="#C7CBD2"></path>
            <path d="M256.7367,256.839 C256.3607,256.839 256.0547,256.534 256.0517,256.158 L255.65469,191.915 C255.6527,191.537 255.9577,191.229 256.3357,191.227 L256.3397,191.227 C256.7157,191.227 257.0207,191.53 257.0237,191.906 L257.42171,256.15 C257.4237,256.527 257.1197,256.836 256.7417,256.839 L256.7367,256.839 Z" id="Fill-94" fill="#C7CBD2"></path>
            <path d="M293.4886,257.3449 C293.1146,257.3449 292.8096,257.0439 292.8046,256.6689 L291.9576,191.1799 C291.9526,190.8019 292.2556,190.4919 292.6326,190.4869 C293.0326,190.5059 293.3206,190.7839 293.3256,191.1619 L294.1736,256.6519 C294.1776,257.0299 293.8756,257.3389 293.4976,257.3449 L293.4886,257.3449 Z" id="Fill-96" fill="#C7CBD2"></path>
            <path d="M245.1634,257.5216 C244.9944,257.5216 244.8264,257.4596 244.6944,257.3346 L237.9484,250.9886 C237.6734,250.7296 237.6594,250.2966 237.9194,250.0216 C238.1794,249.7446 238.6124,249.7326 238.8864,249.9926 L245.6324,256.3386 C245.9074,256.5966 245.9214,257.0306 245.6614,257.3056 C245.5264,257.4496 245.3454,257.5216 245.1634,257.5216" id="Fill-98" fill="#C7CBD2"></path>
            <path d="M238.2884,251.0402 C237.9134,251.0402 237.6074,250.7372 237.6034,250.3622 L237.0084,190.2562 C237.0054,189.8772 237.3084,189.5682 237.6854,189.5642 L237.6924,189.5642 C238.0674,189.5642 238.3734,189.8662 238.3774,190.2412 L238.97341,250.3492 C238.9754,250.7272 238.6734,251.0362 238.2954,251.0402 L238.2884,251.0402 Z" id="Fill-100" fill="#C7CBD2"></path>
            <path d="M227.3978,184.131 C227.0368,184.131 226.7338,183.847 226.7148,183.481 L226.5298,179.694 C226.5108,179.316 226.8018,178.994 227.1788,178.976 C227.5488,178.943 227.8768,179.247 227.8968,179.625 L228.0828,183.413 C228.1008,183.791 227.8098,184.111 227.4328,184.13 C227.4208,184.131 227.4098,184.131 227.3978,184.131" id="Fill-102" fill="#C7CBD2"></path>
            <g id="Group-106" transform="translate(337.000000, 122.732000)">
                <mask id="mask-4" fill="white">
                    <use xlink:href="#path-3"></use>
                </mask>
                <g id="Clip-105"></g>
                <path d="M2.514,53.3512 C1.242,53.3512 0.237,52.3452 0.237,51.1092 L6.676,2.6902 C6.67,1.5422 7.676,0.5372 8.912,0.5372 L56.728,1.2172 C57.106,1.2222 57.408,1.5332 57.4030612,1.9122 C57.397,2.2862 57.091,2.5852 56.718,2.5852 L56.708,2.5852 L8.903,1.9062 C8.431,1.9062 8.038,2.2972 8.038,2.7802 L1.599,51.1992 C1.606,51.5912 1.997,51.9832 2.48,51.9832 L32.83,50.3442 C33.2,50.3172 33.531,50.6132 33.551,50.9912 C33.572,51.3692 33.282,51.6912 32.904,51.7112 L2.516,53.3512 L2.514,53.3512 Z" id="Fill-104" fill="#C7CBD2" mask="url(#mask-4)"></path>
            </g>
            <path d="M374.4007,184.5509 C373.1377,184.5509 372.1317,183.5459 372.1317,182.3089 L368.564681,150.8619 C368.5597,149.5489 369.5657,148.5429 370.8017,148.5429 L378.8987,149.1659 L378.9027,149.1659 C380.0517,149.1659 381.0327,150.1149 381.0877,151.3039 L386.8707,171.4579 C386.9747,171.8219 386.7647,172.1999 386.4017,172.3049 C386.0367,172.4099 385.6587,172.1979 385.5547,171.8359 L379.7477,151.5969 C379.7297,151.5349 379.7207,151.4719 379.7207,151.4079 C379.7207,150.9259 379.3287,150.5329 378.8457,150.5329 L370.7497,149.9099 C370.3207,149.9109 369.9287,150.3039 369.9287,150.7849 L373.4967,182.2319 C373.5017,182.7909 373.8937,183.1829 374.3757,183.1829 L381.5967,182.9109 C381.9647,182.8759 382.2927,183.1909 382.3057,183.5689 C382.3207,183.9469 382.0257,184.2649 381.6487,184.2789 L374.4017,184.5509 L374.4007,184.5509 Z" id="Fill-107" fill="#C7CBD2"></path>
            <path d="M323.3607,179.8527 C323.0277,179.8527 322.7367,179.6107 322.6847,179.2717 L322.1347,175.6677 C321.2627,169.9377 320.5097,164.9897 320.2007,163.4877 C319.9077,162.0657 319.8237,161.0747 319.7567,160.2787 C319.6167,158.6337 319.5797,158.1927 317.7997,156.6567 C315.3837,154.5677 300.8537,156.3727 297.4787,157.4457 C294.8087,158.2957 294.3487,158.5297 293.7487,161.7697 C293.6317,162.4017 293.5967,165.3937 294.6757,178.3337 C294.7087,178.7107 294.4277,179.0417 294.0507,179.0727 C293.6767,179.1097 293.3437,178.8257 293.3127,178.4487 C292.0557,163.3927 292.3167,161.9837 292.4027,161.5197 C293.0987,157.7627 293.9067,157.1457 297.0637,156.1407 C299.8607,155.2507 315.4777,152.8387 318.6957,155.6207 C320.8117,157.4487 320.9607,158.2847 321.1207,160.1637 C321.1837,160.9227 321.2647,161.8687 321.5407,163.2107 C321.8567,164.7477 322.5777,169.4757 323.4887,175.4617 L324.0377,179.0647 C324.0947,179.4387 323.8387,179.7877 323.4647,179.8447 C323.4297,179.8497 323.3947,179.8527 323.3607,179.8527" id="Fill-109" fill="#C7CBD2"></path>
            <path d="M325.0599,218.7609 C323.3059,218.7609 321.4809,218.0919 319.5639,217.3899 C318.5259,217.0089 317.4529,216.6159 316.3669,216.3239 C315.1429,215.9939 312.9589,215.5329 310.6469,215.0459 C306.2909,214.1279 301.7869,213.1779 300.3739,212.4729 C298.1319,211.3519 296.2479,208.4189 296.1679,208.2939 C296.1119,208.2039 296.0759,208.1019 296.0659,207.9949 C296.0659,207.9949 295.3669,201.0799 294.5709,192.5809 C294.5369,192.2039 294.8129,191.8709 295.1889,191.8349 C295.5689,191.8029 295.8989,192.0759 295.9339,192.4519 C296.6569,200.1729 297.2979,206.5849 297.4109,207.6899 C297.7869,208.2459 299.3269,210.4179 300.9859,211.2479 C302.2409,211.8749 307.0589,212.8919 310.9289,213.7069 C313.2599,214.1989 315.4619,214.6629 316.7229,215.0009 C317.8669,215.3099 318.9689,215.7149 320.0359,216.1049 C322.1129,216.8649 324.0759,217.5849 325.7579,217.3459 C326.7789,217.1989 330.5639,216.8199 335.3559,216.3389 C343.1639,215.5559 353.8589,214.4839 355.7329,214.0759 C357.3819,213.7179 358.5409,212.9909 358.7579,212.1819 C358.9659,211.4079 358.2679,210.5729 357.6459,210.0069 C355.2159,207.7979 341.9339,207.2279 336.2629,206.9849 L334.4729,206.9059 C333.5869,206.8639 332.8449,206.8419 332.2169,206.8229 C328.7329,206.7229 328.3079,206.6249 327.0719,204.0269 C326.7569,203.3679 326.1869,201.3089 324.5389,191.1389 C324.4789,190.7659 324.7319,190.4139 325.1059,190.3539 C325.4809,190.2919 325.8299,190.5469 325.8909,190.9199 C327.4009,200.2439 328.0389,202.8739 328.3059,203.4379 C329.2259,205.3669 329.2259,205.3669 332.2569,205.4549 C332.8919,205.4739 333.6429,205.4949 334.5389,205.5379 L336.3219,205.6169 C345.7299,206.0209 355.9859,206.6479 358.5679,208.9939 C360.2039,210.4829 360.2929,211.7409 360.0809,212.5359 C359.7189,213.8819 358.2419,214.9309 356.0229,215.4129 C354.0739,215.8369 343.7709,216.8709 335.4929,217.7009 C330.9059,218.1599 326.9449,218.5579 325.9519,218.6999 C325.6559,218.7409 325.3589,218.7609 325.0599,218.7609" id="Fill-111" fill="#C7CBD2"></path>
            <path d="M301.4945,236.8566 C301.4235,236.8566 301.3495,236.8446 301.2775,236.8216 C300.9195,236.7026 300.7245,236.3146 300.8455,235.9556 C302.0205,232.4256 305.5865,232.4646 308.4525,232.4996 C309.9105,232.5116 311.2845,232.5626 312.6225,232.6516 C315.0695,232.8136 317.3825,232.9676 319.7765,232.2836 L320.0075,232.2176 C321.1205,231.9056 322.3805,231.5496 322.8315,230.6476 C323.4755,229.3586 323.4515,227.6046 323.4315,226.0566 C323.4265,225.7766 323.4235,225.5026 323.4235,225.2386 L323.4245,224.5706 C323.4275,222.5026 323.4315,220.5486 323.0985,218.5576 C323.0375,218.1856 323.2895,217.8336 323.6625,217.7706 C324.0275,217.7106 324.3885,217.9606 324.4505,218.3336 C324.8005,220.4366 324.7965,222.5406 324.7925,224.5736 L324.7915,225.2386 C324.7915,225.4976 324.7955,225.7636 324.7995,226.0376 C324.8225,227.7416 324.8495,229.6726 324.0565,231.2596 C323.3345,232.7036 321.6265,233.1846 320.3785,233.5366 L320.1535,233.5996 C317.5285,234.3486 314.9895,234.1796 312.5315,234.0166 C311.2065,233.9296 309.8535,233.8806 308.4355,233.8686 C305.1735,233.8336 302.9435,233.9856 302.1435,236.3886 C302.0475,236.6746 301.7815,236.8566 301.4945,236.8566" id="Fill-113" fill="#C7CBD2"></path>
            <path d="M353.1273,239.4464 C353.0713,239.4464 353.0153,239.4394 352.9593,239.4254 C352.3923,239.2824 351.8233,239.1434 351.2533,239.0064 C349.7883,238.6514 348.2733,238.2844 346.7673,237.8194 C345.1583,237.3254 343.1333,237.0324 340.9883,236.7234 C334.6393,235.8084 326.7373,234.6704 326.4043,227.0074 C326.3243,225.1694 326.351174,223.3044 326.3783,221.5024 C326.3903,220.5924 326.4033,219.6844 326.4033,218.7774 C326.4033,218.3994 326.7103,218.0924 327.0883,218.0924 C327.4663,218.0924 327.7733,218.3994 327.7733,218.7774 C327.7733,219.6914 327.7593,220.6054 327.7453,221.5214 C327.7203,223.3044 327.6933,225.1494 327.7723,226.9484 C328.0563,233.4764 334.7303,234.4384 341.1843,235.3694 C343.3833,235.6864 345.4593,235.9854 347.1693,236.5114 C348.6363,236.9634 350.1313,237.3254 351.5753,237.6754 C352.1493,237.8154 352.7233,237.9534 353.2943,238.0974 C353.6603,238.1904 353.8823,238.5624 353.7903,238.9284 C353.7123,239.2394 353.4333,239.4464 353.1273,239.4464" id="Fill-115" fill="#C7CBD2"></path>
            <path d="M332.6078,250.1554 C332.2478,250.1554 331.9438,249.8714 331.9248,249.5064 C331.7828,246.7724 331.0978,244.3134 329.7068,241.5314 C329.5458,241.2104 329.3158,240.8534 329.0728,240.4754 C328.2478,239.1984 327.2208,237.6064 328.0498,235.9494 C328.7288,234.5934 330.1258,234.8814 330.9618,235.0544 L331.1158,235.0864 C332.0418,235.2714 332.9418,235.5904 333.8138,235.8984 C334.6808,236.2054 335.4998,236.4934 336.3348,236.6614 C338.8388,237.1624 341.4048,237.8064 343.8858,238.4314 C345.9748,238.9574 348.1338,239.5004 350.2478,239.9554 C350.6168,240.0344 350.8518,240.3984 350.7728,240.7684 C350.6928,241.1374 350.3298,241.3734 349.9588,241.2934 C347.8228,240.8334 345.6518,240.2874 343.5518,239.7594 C341.0868,239.1384 338.5378,238.4984 336.0658,238.0034 C335.1338,237.8164 334.2318,237.4984 333.3588,237.1884 C332.4938,236.8834 331.6768,236.5944 330.8458,236.4284 L330.6848,236.3954 C329.7168,236.1954 329.4408,236.2274 329.2738,236.5614 C328.7948,237.5194 329.5208,238.6454 330.2228,239.7344 C330.4868,240.1434 330.7378,240.5314 330.9308,240.9194 C332.4118,243.8784 333.1388,246.5054 333.2928,249.4344 C333.3118,249.8124 333.0228,250.1344 332.6448,250.1544 C332.6318,250.1554 332.6208,250.1554 332.6078,250.1554" id="Fill-117" fill="#C7CBD2"></path>
            <path d="M330.4007,248.9494 C330.0937,248.9494 329.8147,248.7414 329.7377,248.4304 L329.7077,248.3084 C329.4077,247.1134 329.4077,247.1134 328.9237,245.8904 C328.7087,245.3484 328.4017,244.5754 327.9397,243.3754 C327.2727,241.6394 325.1117,237.1924 324.5837,236.6994 C323.3157,235.6864 320.3437,235.8794 318.5717,235.9924 L318.0157,236.0264 C316.0017,236.1424 314.1787,236.1484 312.5717,236.1554 C308.4887,236.1704 305.5397,236.1814 303.3307,237.9484 C303.0357,238.1834 302.6057,238.1374 302.3677,237.8424 C302.1307,237.5474 302.1787,237.1154 302.4747,236.8794 C305.0557,234.8144 308.2067,234.8034 312.5657,234.7864 C314.1567,234.7804 315.9597,234.7734 317.9377,234.6594 L318.4827,234.6264 C320.5857,234.4934 323.7597,234.2884 325.4457,235.6364 C326.3177,236.3354 328.7477,241.6614 329.2177,242.8834 C329.6767,244.0784 329.9827,244.8464 330.1957,245.3864 C330.7097,246.6804 330.7167,246.7054 331.0357,247.9764 L331.0657,248.0984 C331.1577,248.4654 330.9347,248.8374 330.5677,248.9284 C330.5117,248.9424 330.4557,248.9494 330.4007,248.9494" id="Fill-119" fill="#C7CBD2"></path>
            <path d="M302.8197,238.9269 C301.5977,238.9269 300.6037,239.9069 300.6037,241.1139 C300.6037,242.3199 301.5977,243.2989 302.8197,243.2989 C304.0407,243.2989 305.0337,242.3199 305.0337,241.1139 C305.0337,239.9069 304.0407,238.9269 302.8197,238.9269 M302.8197,244.6679 C300.8427,244.6679 299.2347,243.0739 299.2347,241.1139 C299.2347,239.1529 300.8427,237.5589 302.8197,237.5589 C304.7957,237.5589 306.4027,239.1529 306.4027,241.1139 C306.4027,243.0739 304.7957,244.6679 302.8197,244.6679" id="Fill-121" fill="#C7CBD2"></path>
            <polygon id="Fill-123" fill="#FF0000" points="113.2914 239.3283 109.5694 277.7313 225.5514 277.7313 222.6964 252.7753 219.2644 233.5293"></polygon>
            <path d="M195.6117,39.9504 L195.6117,37.3974 C195.6117,36.7164 195.8027,36.1284 196.3007,35.9454 L198.4277,35.1884 C198.4817,35.0544 198.5817,34.7894 198.5727,34.4144 C198.5467,33.1214 197.8387,32.1834 196.8597,31.8634 L191.0327,30.0424 L192.5527,29.4974 C192.6347,29.4684 192.7367,29.4524 192.8257,29.4524 C192.9217,29.4524 193.0347,29.4714 193.1107,29.4964 L199.0547,31.3544 C200.0897,31.6994 200.4747,32.9344 200.4747,33.6044 C200.4747,34.1474 200.2907,34.7734 199.7137,34.9834 C199.2007,35.1704 197.6617,35.7214 197.6617,35.7214 C197.6047,35.8544 197.5107,36.1054 197.5107,36.6534 L197.5107,38.9544 C197.5107,39.6794 197.1627,40.3364 196.4927,40.3364 C196.2027,40.3364 195.8727,40.2004 195.6127,39.9504" id="Fill-125" fill="#FFFFFF"></path>
            <path d="M194.0882,34.1466 C194.3942,34.6116 194.5492,35.1976 194.5492,35.6926 L194.5492,37.8346 C194.5492,39.1606 195.1622,40.2416 196.1722,40.5496 L194.6132,41.0876 C194.3012,41.1966 193.9952,41.0836 193.8102,40.9656 C193.0512,40.4796 192.6512,39.7256 192.6512,38.5676 C192.6512,38.0236 192.6482,37.2786 192.6482,36.3196 C192.6482,35.7716 192.4142,35.1336 192.0552,34.6626 C191.7852,34.3056 191.4732,34.0846 191.0752,33.9416 C190.3092,33.6676 189.6902,32.6716 189.6902,31.6946 C189.6902,30.8536 190.1162,30.3246 190.6862,30.2836 C190.8092,30.2746 190.9122,30.2966 191.0112,30.3276 C191.3492,30.4296 191.6212,30.5236 191.6212,30.5236 C191.4332,31.4966 191.9992,32.9886 193.1442,33.3916 C193.5932,33.5506 193.8592,33.7976 194.0882,34.1466" id="Fill-127" fill="#FFFFFF"></path>
            <path d="M194.8031,39.5529 L194.8031,36.9989 C194.8031,36.3189 194.9941,35.7299 195.4921,35.5479 L197.6191,34.7899 C197.6731,34.6569 197.7731,34.3909 197.7651,34.0159 C197.7381,32.7239 197.0301,31.7849 196.0521,31.4649 L190.2241,29.6439 L191.7441,29.0999 C191.8261,29.0709 191.9281,29.0539 192.0171,29.0539 C192.1131,29.0539 192.2261,29.0739 192.3021,29.0979 L198.2461,30.9559 C199.2821,31.3009 199.6661,32.5369 199.6661,33.2059 C199.6661,33.7489 199.4821,34.3749 198.9051,34.5859 C198.3921,34.7729 196.8531,35.3239 196.8531,35.3239 C196.7961,35.4559 196.7021,35.7069 196.7021,36.2559 L196.7021,38.5569 C196.7021,39.2819 196.3541,39.9379 195.6841,39.9379 C195.3941,39.9379 195.0641,39.8029 194.8041,39.5529" id="Fill-129" fill="#FFFFFF"></path>
            <path d="M193.2796,33.7492 C193.5856,34.2142 193.7406,34.7992 193.7406,35.2942 L193.7406,37.4372 C193.7406,38.7622 194.3536,39.8432 195.3636,40.1512 L193.8046,40.6892 C193.4926,40.7982 193.1866,40.6862 193.0016,40.5672 C192.2436,40.0812 191.8426,39.3272 191.8426,38.1692 C191.8426,37.6252 191.8396,36.8812 191.8396,35.9212 C191.8396,35.3742 191.6066,34.7362 191.2466,34.2642 C190.9766,33.9082 190.6646,33.6862 190.2666,33.5442 C189.5006,33.2702 188.8816,32.2742 188.8816,31.2962 C188.8816,30.4552 189.3076,29.9262 189.8776,29.8852 C190.0006,29.8772 190.1036,29.8982 190.2026,29.9292 C190.5406,30.0322 190.8126,30.1252 190.8126,30.1252 C190.6246,31.0982 191.1916,32.5902 192.3356,32.9942 C192.7846,33.1532 193.0506,33.3992 193.2796,33.7492" id="Fill-131" fill="#FFFFFF"></path>
            <path d="M97.2611,147.7716 C97.2611,147.7716 97.7071,144.8746 97.8891,144.1246 C98.8231,140.2656 100.9021,132.5296 101.8991,128.6726 C104.0631,120.3036 108.5851,113.9596 116.1021,109.8276 C123.7761,105.6076 132.5621,102.6646 140.8621,101.1046 C144.8271,99.9016 155.4861,95.5836 155.4861,95.5836 L164.1231,103.9246 C164.1231,103.9246 170.0161,105.7586 174.4511,106.0446 C180.0311,106.4056 183.7551,104.0646 188.9691,102.4526 C191.8461,101.5626 193.0871,98.2126 193.0871,98.2126 C193.0871,98.2126 205.6651,104.9686 211.9031,106.1516 C216.6761,108.0436 226.8631,111.9246 233.0331,115.4546 C236.3051,117.3256 240.2291,124.1896 241.8911,126.9566 C244.4261,131.1686 249.0231,148.3046 252.7591,163.7166 C254.8281,172.2516 258.5681,181.5706 259.6091,186.3076 C260.6511,191.0436 264.8881,204.8166 265.5621,209.4916 C266.2361,214.1646 268.1661,220.8086 266.1131,226.1006 C264.5631,230.0976 262.6451,231.7376 258.4451,233.0386 C253.6911,234.5116 246.5121,235.3226 242.8391,234.3756 C240.3841,233.7426 235.0551,233.3336 233.8351,230.3956 C231.8761,225.6816 237.4631,220.7336 236.4901,215.7136 C236.0901,213.6576 233.8501,211.5516 234.2741,209.3676 C234.3981,208.7296 234.3331,206.8806 235.4961,206.7996 C236.7751,206.7116 238.9731,206.7686 238.9731,206.7686 C238.9731,206.7686 238.7611,202.3826 238.4901,201.6596 C236.6171,196.6366 235.2941,194.0766 232.9281,189.1966 C231.3781,186.0006 229.6231,182.4236 228.5331,179.0526 C228.3561,178.5026 226.0161,171.1306 226.0161,171.1306 C226.0161,171.1306 224.9401,173.4296 224.6871,174.2616 C223.4141,178.4606 220.9191,188.7396 220.9191,188.7396 C220.9191,188.7396 221.1711,196.1906 219.5651,200.3336 C219.1271,201.4596 220.6041,205.3856 219.5031,206.0676 C218.6421,206.6006 217.2401,206.3216 216.3031,206.3216 C213.8621,206.3216 211.3461,206.5006 208.9171,206.3216 C186.1411,204.6426 163.9781,202.9416 142.2011,195.1516 C130.9271,191.1176 119.7911,186.2896 111.6751,176.8736 C109.5711,174.4306 108.2431,177.3886 106.3941,174.7786 C102.7401,169.6246 97.6341,178.0596 96.1091,171.7696 C95.7291,170.2016 97.2611,147.7716 97.2611,147.7716" id="Fill-133" fill="#FF0000"></path>
            <path d="M231.8831,206.2326 C235.2191,207.0616 237.0351,209.1226 238.3341,212.1266 C239.9391,215.8366 240.5381,220.8226 239.6601,224.7676 C239.2751,226.5036 238.2061,228.4916 236.6951,229.6256 C235.6201,230.4316 232.7081,230.6986 232.7081,230.6986 L225.5511,224.4116 C225.5511,224.4116 228.0491,218.9376 228.7751,215.4586 C229.2281,213.2816 229.3291,205.5986 231.8831,206.2326" id="Fill-135" fill="#FFEDDE"></path>
            <path d="M152.8734,96.7384 C152.8734,96.7384 154.0404,99.7254 155.7924,101.6534 C157.4174,103.4424 160.4134,104.7344 161.6164,105.3354 C163.4484,106.2524 165.6224,107.0104 168.8284,107.3014 C172.0334,107.5924 179.2624,106.8324 185.9084,103.9424 C189.8964,102.2094 192.1994,97.8774 192.1994,97.8774 C192.1994,97.8774 191.1214,96.4474 190.8294,93.8964 C190.3974,90.1184 191.3394,83.9894 191.3394,83.9894 C191.3394,83.9894 192.2504,79.0364 193.1604,76.4134 C194.0714,73.7904 194.9814,73.4994 194.9814,73.4994 C194.9814,73.4994 199.6024,71.5024 200.6644,67.9624 C200.9504,67.0084 201.1604,64.2544 200.7374,63.2994 C200.1964,62.0854 196.7314,60.0804 195.6844,59.0324 C193.1254,56.4724 193.5154,51.6154 190.4704,49.0054 C187.0394,46.0644 182.1864,44.4974 177.8364,43.5904 C172.7484,42.5304 169.0924,43.2584 164.5994,45.7964 C159.3314,48.7734 151.1984,60.1674 151.1984,60.1674 C151.1984,60.1674 147.9194,61.3514 148.3544,64.8484 C148.5174,66.1354 149.6964,68.8354 150.7384,69.8794 C152.4394,71.5884 154.2584,71.3134 154.2584,71.3134 L158.2654,85.8844 C158.2654,85.8844 158.4444,89.7134 157.6164,92.0464 C156.5894,94.9414 152.8734,96.7384 152.8734,96.7384" id="Fill-137" fill="#FFEDDE"></path>
            <polygon id="Fill-139" fill="#EAC375" points="92.2542 171.4601 93.3032 169.8131 95.5522 169.2881 174.4932 168.4751 183.2442 168.6921 216.3992 170.9121 219.0922 171.4251 219.9692 173.0791 219.5262 235.4531 218.2552 237.0821 175.1622 242.0381 91.8882 239.1151"></polygon>
            <path d="M231.3792,207.4386 C230.7652,204.7046 229.5382,203.3486 229.5382,203.3486 C229.5382,203.3486 230.1592,200.3556 229.2822,197.7256 C228.8052,196.2926 226.9842,193.9746 226.0822,192.6236 C224.9332,190.9006 223.7902,188.8786 221.9262,187.4946 C220.6202,186.5246 218.3582,185.2326 217.0832,184.7426 C216.6452,184.5746 211.6632,183.2116 211.3392,183.6166 C210.1912,185.0516 210.9632,186.5906 211.6972,187.3986 C212.8612,188.6786 215.2482,189.7496 217.1382,191.0696 C218.5132,192.0296 219.6722,193.4826 219.6722,193.4826 L219.6722,196.6516 C219.6722,196.6516 218.0102,196.3266 217.0652,196.2936 C214.0492,196.1926 211.3572,195.2766 208.6812,195.4246 C207.3762,195.4976 205.2702,195.6756 205.8692,197.7776 C206.2882,199.2436 206.7372,199.5836 208.2212,200.2816 C210.9182,201.5506 219.6722,203.6556 219.6722,203.6556 L219.5192,208.8706 C219.5192,208.8706 214.1372,209.3156 212.1582,209.8926 C211.3872,210.1176 208.0202,210.6576 207.3012,211.0166 C206.6502,211.3426 205.7012,212.4276 205.5122,212.8056 C203.7332,216.3626 212.5662,215.4246 213.9462,215.3626 C214.7922,215.3246 219.5192,215.1066 219.5192,215.1066 L219.5192,219.3496 C219.5192,219.3496 216.6392,220.7936 216.3502,220.8826 C214.3562,221.4976 206.2332,222.5766 208.9882,225.3316 C210.2862,226.6286 216.0342,225.6746 217.5762,225.5356 C219.7012,225.3416 223.8132,223.7466 223.8132,223.7466 C223.8132,223.7466 227.4852,224.2036 228.1582,223.2856 C229.2822,221.7516 231.6062,218.1646 231.9922,214.2896 C232.0652,213.5646 231.9922,210.1736 231.3792,207.4386" id="Fill-141" fill="#FFEDDE"></path>
            <path d="M201.8304,45.3048 C201.8304,45.3048 202.7774,47.2418 202.9954,48.2188 C203.3334,49.7378 203.5594,50.1808 203.6284,51.7178 C203.7974,55.5048 198.0014,52.5068 194.4714,51.2058 C191.8824,50.2518 189.0084,48.9478 187.0414,48.3658 C185.0744,47.7828 182.8344,46.3788 178.4444,45.9608 C171.1194,45.2638 162.3664,47.7178 155.3514,49.3118 C152.1444,50.0398 146.2644,51.6158 145.9524,51.3518 C144.5684,50.1868 148.5024,45.3778 148.5024,45.3778 C148.5024,45.3778 148.3844,36.9578 149.0484,34.9628 C152.7024,23.9988 165.3534,16.7498 176.9874,17.9128 C188.1164,19.0258 198.0084,26.3368 201.6114,37.1458 C202.9224,41.0768 201.8304,45.3048 201.8304,45.3048" id="Fill-143" fill="#FF0000"></path>
            <path d="M149.521724,51.133 L150.6878,60.385 C150.6878,60.385 150.4028,60.131 151.3768,60.326 C152.1258,60.476 153.7478,60.24 154.6228,58.564 C155.4968,56.889 156.9538,52.955 156.9538,52.955 C156.9538,52.955 160.8768,52.275 162.4898,50.26 C162.7278,49.961 165.3608,47.584 164.9278,47.151 C164.2638,46.487 158.9508,48.621 156.9538,49.021 C155.8658,49.238 152.9438,50.019 151.9388,50.421 C151.4298,50.625 149.5078,50.392 149.521724,51.133" id="Fill-145" fill="#4D4D4D"></path>
            <path d="M189.8822,49.5314 C189.8822,49.5314 190.7362,53.0374 191.6862,55.3754 C192.7252,57.9354 193.9382,59.4004 195.6702,60.6994 C196.5452,61.3564 198.9152,60.9694 198.9152,60.9694 L200.2272,53.5374 C200.2272,53.5374 196.1652,51.9764 194.5492,51.1684 C193.8832,50.8364 189.8822,49.5314 189.8822,49.5314" id="Fill-147" fill="#4D4D4D"></path>
            <path d="M195.0941,74.0363 C194.8861,74.0363 194.6911,73.9063 194.6161,73.6983 C194.5231,73.4343 194.6601,73.1443 194.9241,73.0513 C197.2231,72.2333 199.8741,70.0663 200.4241,66.4343 C200.6561,64.9013 200.3411,63.5473 199.5371,62.6223 C198.8651,61.8473 197.8811,61.4243 196.7731,61.4353 L196.7681,61.4353 C196.4901,61.4353 196.2641,61.2113 196.2611,60.9323 C196.2581,60.6523 196.4841,60.4233 196.7641,60.4213 C198.1701,60.4093 199.4331,60.9533 200.3041,61.9573 C201.3051,63.1103 201.7031,64.7543 201.4271,66.5863 C200.8111,70.6613 197.8401,73.0913 195.2641,74.0073 C195.2081,74.0263 195.1511,74.0363 195.0941,74.0363" id="Fill-149" fill="#000000"></path>
            <path d="M153.641,71.7941 C153.62,71.7941 153.598,71.7921 153.576,71.7891 C151.114,71.4741 149.246,69.7071 148.452,66.9411 C147.714,64.3781 148.162,61.6211 149.494,60.5291 C150.281,59.8841 151.307,59.8351 152.384,60.3911 C152.633,60.5201 152.731,60.8251 152.603,61.0741 C152.474,61.3231 152.169,61.4221 151.919,61.2921 C151.204,60.9231 150.605,60.9311 150.137,61.3141 C149.118,62.1501 148.805,64.4991 149.426,66.6611 C149.747,67.7771 150.806,70.4121 153.704,70.7831 C153.983,70.8181 154.179,71.0721 154.144,71.3511 C154.111,71.6071 153.893,71.7941 153.641,71.7941" id="Fill-151" fill="#000000"></path>
            <path d="M195.3021,68.9621 C195.2001,68.9621 195.0981,68.9321 195.0091,68.8681 C194.7811,68.7061 194.7271,68.3901 194.8881,68.1611 C195.0231,67.9721 196.2311,66.2981 197.2461,65.8821 C197.5061,65.7741 197.8021,65.8991 197.9081,66.1591 C198.0151,66.4181 197.8911,66.7151 197.6311,66.8201 C197.0701,67.0511 196.1581,68.1251 195.7161,68.7481 C195.6171,68.8881 195.4601,68.9621 195.3021,68.9621" id="Fill-153" fill="#000000"></path>
            <path d="M192.7074,78.463 C192.6514,78.463 192.5954,78.453 192.5394,78.434 C192.2744,78.342 192.1364,78.052 192.2284,77.787 C192.2314,77.776 192.6234,76.651 192.9744,75.125 C193.0354,74.852 193.3084,74.682 193.5814,74.743 C193.8544,74.806 194.0244,75.078 193.9624,75.352 C193.5994,76.937 193.2024,78.075 193.1864,78.123 C193.1124,78.332 192.9164,78.463 192.7074,78.463" id="Fill-155" fill="#000000"></path>
            <path d="M154.1234,71.1779 C153.8814,71.1779 153.6674,71.0029 153.6244,70.7559 C153.3844,69.3589 153.1894,68.1009 152.9764,66.5529 C152.9374,66.2749 153.1324,66.0189 153.4094,65.9809 C153.6874,65.9429 153.9424,66.1359 153.9814,66.4129 C154.1934,67.9499 154.3864,69.1989 154.6244,70.5839 C154.6714,70.8609 154.4864,71.1229 154.2104,71.1699 C154.1814,71.1749 154.1524,71.1779 154.1234,71.1779" id="Fill-157" fill="#000000"></path>
            <path d="M173.4691,67.2863 C173.4461,67.2863 173.4221,67.2843 173.4001,67.2813 C173.1211,67.2433 172.9271,66.9873 172.9651,66.7103 L172.9741,66.6503 C173.0991,65.7293 173.2181,64.8593 172.9261,64.1473 C172.8201,63.8893 172.9451,63.5923 173.2031,63.4863 C173.4621,63.3793 173.7591,63.5043 173.8651,63.7633 C174.2601,64.7263 174.1161,65.7743 173.9791,66.7873 L173.9711,66.8473 C173.9361,67.1013 173.7181,67.2863 173.4691,67.2863" id="Fill-159" fill="#000000"></path>
            <path d="M185.1751,64.4933 C185.1541,63.4033 184.4571,62.5343 183.6221,62.5523 C182.7871,62.5683 182.1281,63.4663 182.1511,64.5563 C182.1731,65.6453 182.8681,66.5153 183.7031,66.4983 C184.5381,66.4803 185.1971,65.5843 185.1751,64.4933" id="Fill-161" fill="#000000"></path>
            <path d="M188.2621,58.3771 C188.1721,58.3771 188.0811,58.3541 187.9981,58.3031 C185.9831,57.0691 182.8401,57.2201 180.9071,57.9881 C180.6461,58.0921 180.3521,57.9651 180.2471,57.7041 C180.1451,57.4431 180.2721,57.1481 180.5331,57.0451 C182.6951,56.1871 186.2321,56.0321 188.5281,57.4381 C188.7671,57.5831 188.8421,57.8961 188.6961,58.1351 C188.6001,58.2911 188.4331,58.3771 188.2621,58.3771" id="Fill-163" fill="#000000"></path>
            <path d="M167.0189,58.4523 C166.9339,58.4523 166.8479,58.4313 166.7689,58.3873 C165.0189,57.3933 161.7199,57.3113 160.5769,58.2313 C160.3589,58.4073 160.0399,58.3733 159.8639,58.1543 C159.6879,57.9363 159.7219,57.6173 159.9409,57.4413 C161.5469,56.1473 165.3139,56.3943 167.2689,57.5043 C167.5129,57.6413 167.5989,57.9523 167.4599,58.1953 C167.3669,58.3603 167.1959,58.4523 167.0189,58.4523" id="Fill-165" fill="#000000"></path>
            <path d="M156.096,53.4181 C155.476,53.4181 154.83,53.3531 154.158,53.2111 C153.883,53.1541 153.707,52.8851 153.765,52.6111 C153.822,52.3371 154.092,52.1611 154.365,52.2181 C159.14,53.2161 162.323,49.9611 164.932,46.8321 C165.112,46.6171 165.431,46.5881 165.647,46.7671 C165.862,46.9461 165.891,47.2671 165.711,47.4811 C163.107,50.6051 160.144,53.4181 156.096,53.4181" id="Fill-167" fill="#000000"></path>
            <path d="M198.6615,61.3937 C198.6345,61.3937 198.6065,61.3917 198.5785,61.3867 C198.3025,61.3417 198.1145,61.0817 198.1605,60.8037 C198.3195,59.8367 198.5405,58.9147 198.7545,58.0247 C199.1175,56.5077 199.4615,55.0767 199.4615,53.5987 C199.4615,53.3187 199.6885,53.0907 199.9695,53.0907 C200.2495,53.0907 200.4755,53.3187 200.4755,53.5987 C200.4755,55.1967 200.1185,56.6847 199.7405,58.2607 C199.5315,59.1347 199.3145,60.0387 199.1615,60.9687 C199.1205,61.2167 198.9055,61.3937 198.6615,61.3937" id="Fill-169" fill="#000000"></path>
            <path d="M150.3558,59.4787 C150.1048,59.4787 149.8868,59.2927 149.8528,59.0387 C149.3038,54.9407 149.1888,52.3447 149.1888,50.8887 C149.1888,50.6087 149.4168,50.3807 149.6968,50.3807 C149.9768,50.3807 150.2038,50.6087 150.2038,50.8887 C150.2038,52.3137 150.3178,54.8617 150.8588,58.9037 C150.8958,59.1807 150.7008,59.4367 150.4228,59.4737 C150.4008,59.4767 150.3768,59.4787 150.3558,59.4787" id="Fill-171" fill="#000000"></path>
            <path d="M165.763,64.4494 C165.741,63.3604 165.045,62.4904 164.21,62.5084 C163.375,62.5254 162.717,63.4224 162.74,64.5114 C162.762,65.6024 163.456,66.4714 164.291,66.4544 C165.126,66.4374 165.786,65.5394 165.763,64.4494" id="Fill-173" fill="#000000"></path>
            <path d="M196.0081,59.6379 C195.9981,59.6379 195.9871,59.6369 195.9781,59.6369 C192.2841,59.4189 191.0031,55.2829 189.7631,51.2819 C189.6121,50.7959 189.4621,50.3099 189.3071,49.8309 C189.2211,49.5649 189.3671,49.2789 189.6341,49.1929 C189.9011,49.1059 190.1871,49.2519 190.2731,49.5189 C190.4291,50.0019 190.5801,50.4919 190.7331,50.9819 C191.9221,54.8219 193.0461,58.4479 196.0371,58.6229 C196.3171,58.6399 196.5301,58.8799 196.5141,59.1599 C196.4981,59.4299 196.2751,59.6379 196.0081,59.6379" id="Fill-175" fill="#000000"></path>
            <path d="M152.6751,59.0285 C152.4091,59.0285 152.1871,58.8235 152.1691,58.5545 C152.1511,58.2755 152.3631,58.0345 152.6421,58.0155 C154.2811,57.9065 155.3421,55.8415 155.5451,54.7605 C155.5971,54.4855 155.8641,54.3045 156.1381,54.3555 C156.4121,54.4075 156.5941,54.6735 156.5421,54.9485 C156.3151,56.1625 155.0321,58.8735 152.7091,59.0275 C152.6971,59.0285 152.6861,59.0285 152.6751,59.0285" id="Fill-177" fill="#000000"></path>
            <path d="M229.3871,204.0246 C229.3541,204.0246 229.3201,204.0206 229.2851,204.0136 C229.0111,203.9586 228.8331,203.6906 228.8891,203.4166 C229.8781,198.5336 227.9931,196.0356 225.9971,193.3896 C225.8421,193.1846 225.6871,192.9796 225.5331,192.7716 C225.0351,192.1036 224.6441,191.4806 224.2651,190.8776 C223.2871,189.3186 222.5151,188.0876 220.5301,187.1006 C219.1581,186.4206 217.9121,185.8616 216.7221,185.3946 L216.3261,185.2376 C215.2761,184.8206 214.0831,184.3476 213.0061,184.1666 C211.7961,183.9616 211.3761,184.1846 211.2331,184.3356 C211.0171,184.5606 211.0591,185.0116 211.1321,185.3496 C211.5301,187.1876 213.7921,188.4546 215.7881,189.5726 C216.5431,189.9956 217.2551,190.3936 217.8211,190.7996 C219.6741,192.1326 220.8641,194.3176 221.7311,195.9126 C221.9231,196.2656 222.0991,196.5886 222.2611,196.8626 C222.4041,197.1026 222.3251,197.4146 222.0831,197.5566 C221.8431,197.7006 221.5321,197.6206 221.3881,197.3786 C221.2211,197.0966 221.0391,196.7626 220.8391,196.3966 C220.0191,194.8876 218.8941,192.8216 217.2281,191.6236 C216.7101,191.2516 216.0221,190.8656 215.2931,190.4576 C213.1101,189.2346 210.6351,187.8496 210.1411,185.5646 C209.9581,184.7236 210.0781,184.0746 210.4981,183.6336 C211.0071,183.1006 211.8821,182.9476 213.1751,183.1666 C214.3581,183.3656 215.6031,183.8596 216.7001,184.2946 L217.0931,184.4506 C218.3121,184.9276 219.5831,185.4986 220.9811,186.1926 C223.2221,187.3066 224.1041,188.7116 225.1241,190.3376 C225.4921,190.9236 225.8731,191.5306 226.3461,192.1656 C226.4991,192.3716 226.6541,192.5756 226.8071,192.7786 C228.8511,195.4866 230.9631,198.2866 229.8841,203.6176 C229.8341,203.8586 229.6231,204.0246 229.3871,204.0246" id="Fill-179" fill="#000000"></path>
            <path d="M222.9994,208.3634 C222.9374,208.3634 222.8754,208.3524 222.8144,208.3294 C222.5544,208.2264 222.4254,207.9324 222.5264,207.6724 C222.7174,207.1834 222.7154,206.7344 222.5204,206.2994 C222.1204,205.4054 220.9444,204.5884 219.0244,203.8694 C217.2794,203.2164 215.4434,202.7694 213.6694,202.3384 C211.9804,201.9264 210.2344,201.5024 208.5574,200.8984 C206.9674,200.3274 205.1384,199.0414 205.2154,197.2974 C205.2484,196.5264 205.5084,195.9354 205.9844,195.5434 C207.0614,194.6564 208.9634,194.9414 211.3714,195.3004 C211.7574,195.3584 212.1544,195.4184 212.5614,195.4734 C213.2894,195.5744 214.0674,195.6294 214.8934,195.6874 C218.1644,195.9184 222.2354,196.2044 227.2584,199.6384 C227.4894,199.7974 227.5484,200.1124 227.3904,200.3424 C227.2324,200.5754 226.9164,200.6344 226.6864,200.4754 C221.8904,197.1974 217.9714,196.9214 214.8204,196.6994 C213.9794,196.6394 213.1854,196.5844 212.4214,196.4784 C212.0124,196.4224 211.6104,196.3624 211.2214,196.3034 C209.2344,196.0074 207.3584,195.7264 206.6304,196.3264 C206.3814,196.5314 206.2494,196.8634 206.2284,197.3424 C206.1804,198.4524 207.5794,199.4684 208.8994,199.9434 C210.5274,200.5284 212.2464,200.9474 213.9084,201.3514 C215.7134,201.7914 217.5784,202.2444 219.3804,202.9194 C220.1944,203.2234 222.6714,204.1504 223.4464,205.8844 C223.7534,206.5714 223.7624,207.2974 223.4724,208.0414 C223.3944,208.2414 223.2014,208.3634 222.9994,208.3634" id="Fill-181" fill="#000000"></path>
            <path d="M211.1449,226.3068 C209.6919,226.3068 208.4209,226.0238 208.0279,224.5558 C207.8989,224.0768 207.9599,223.6248 208.2079,223.2138 C208.9899,221.9198 211.4919,221.3538 214.1419,220.7528 L214.7929,220.6048 C217.8199,219.9088 218.4239,219.5338 219.5219,218.8538 L219.6469,218.7758 C220.7689,218.0818 221.8279,217.4268 222.0039,216.3778 C222.0159,216.3058 222.0089,216.2478 221.9379,216.1698 C221.4589,215.6438 219.4559,215.4808 218.5579,215.5448 C218.0579,215.5798 217.5689,215.6188 217.0849,215.6578 C214.2489,215.8788 211.5689,216.0888 207.9939,215.7018 C206.3749,215.5268 204.6649,214.7888 204.7129,213.2468 C204.7609,211.7338 206.3149,210.6348 209.3319,209.9828 C211.3609,209.5418 213.4389,209.2248 215.4489,208.9178 C216.9789,208.6848 218.5609,208.4438 220.1029,208.1508 C221.4189,207.8998 225.1839,207.3378 226.7639,207.7428 C227.0359,207.8118 227.1999,208.0878 227.1299,208.3598 C227.0619,208.6308 226.7849,208.7948 226.5129,208.7258 C225.2199,208.3948 221.7639,208.8678 220.2929,209.1468 C218.7329,209.4448 217.1409,209.6868 215.6019,209.9208 C213.6069,210.2258 211.5439,210.5398 209.5449,210.9738 C207.1139,211.4998 205.7569,212.3198 205.7269,213.2798 C205.6989,214.1888 207.2069,214.5958 208.1029,214.6928 C211.5829,215.0708 214.2169,214.8638 217.0059,214.6458 C217.4919,214.6078 217.9829,214.5688 218.4859,214.5328 C218.5169,214.5318 221.6639,214.3598 222.6889,215.4878 C222.9609,215.7868 223.0709,216.1538 223.0039,216.5468 C222.7509,218.0478 221.4449,218.8568 220.1819,219.6378 L220.0559,219.7158 C218.9059,220.4288 218.2109,220.8598 215.0209,221.5938 L214.3659,221.7428 C212.1479,222.2448 209.6349,222.8148 209.0769,223.7388 C208.9729,223.9108 208.9519,224.0818 209.0079,224.2928 C209.2979,225.3738 210.4629,225.3588 212.4989,225.2378 C212.9639,225.2098 213.4459,225.1808 213.9359,225.1728 C216.7679,225.1248 218.7719,224.8788 219.8909,224.4418 C220.1339,224.3468 220.3739,224.2538 220.6129,224.1618 C223.0499,223.2268 225.1559,222.4178 226.7539,220.2278 C227.3179,219.4558 227.1969,218.5838 227.0569,217.5748 C226.9529,216.8238 226.8449,216.0468 227.0289,215.2598 C227.2369,214.3658 227.7699,213.6918 228.2859,213.0398 C228.7379,212.4708 229.1639,211.9328 229.3419,211.2838 C229.5519,210.5258 229.2739,209.6248 228.9799,208.6718 C228.7549,207.9428 228.5229,207.1888 228.5109,206.4568 C228.5059,206.1768 228.7299,205.9468 229.0099,205.9418 L229.0179,205.9418 C229.2939,205.9418 229.5209,206.1628 229.5249,206.4408 C229.5349,207.0278 229.7369,207.6808 229.9499,208.3718 C230.2739,209.4228 230.6089,210.5088 230.3209,211.5538 C230.0869,212.4008 229.5759,213.0458 229.0819,213.6708 C228.6149,214.2598 228.1729,214.8168 228.0169,215.4898 C227.8749,216.0938 227.9659,216.7448 228.0619,217.4348 C228.2099,218.5078 228.3789,219.7228 227.5739,220.8268 C225.7979,223.2578 223.4569,224.1578 220.9759,225.1098 C220.7399,225.2018 220.4999,225.2918 220.2599,225.3868 C219.0109,225.8738 216.9479,226.1368 213.9529,226.1878 C213.4839,226.1948 213.0139,226.2228 212.5599,226.2498 C212.0839,226.2788 211.6059,226.3068 211.1449,226.3068" id="Fill-183" fill="#000000"></path>
            <path d="M92.3177,221.7502 L92.3047,221.7502 C92.0677,221.7442 91.8807,221.5782 91.8875097,221.3792 L91.9117,217.9442 L92.2157,171.8302 C92.2207,171.7552 92.3297,170.5042 93.2357,169.8612 C94.1297,169.2282 95.7027,169.2672 95.7677,169.2692 L170.6837,168.4472 C170.7747,168.4472 179.2017,168.4712 183.4667,168.6022 C187.8857,168.7372 196.4557,169.3062 196.5417,169.3122 L217.8847,170.8962 C217.9407,170.9002 219.2477,171.0052 219.9207,171.6912 C220.5707,172.3542 220.5467,173.4532 220.544536,173.5772 L220.1047,196.0792 C220.1007,196.2752 219.9097,196.4332 219.6757,196.4332 L219.6697,196.4332 C219.4317,196.4302 219.2427,196.2662 219.2467,196.0672 L219.6837,173.5602 C219.6937,173.2942 219.6337,172.5332 219.2567,172.1482 C218.8897,171.7742 218.0867,171.6362 217.8077,171.6142 L196.4687,170.0292 C196.3867,170.0232 187.8367,169.4572 183.4357,169.3212 C179.1837,169.1902 170.7727,169.1682 170.6877,169.1672 L95.7587,169.9882 C95.3787,169.9812 94.3207,170.0352 93.7907,170.4112 C93.2707,170.7792 93.0967,171.5792 93.0747,171.8562 L92.7477,221.3692 C92.7477,221.3722 92.7477,221.3982 92.7467,221.4012 C92.7397,221.5962 92.5487,221.7502 92.3177,221.7502" id="Fill-185" fill="#000000"></path>
            <path d="M173.4974,242.0607 C172.1854,242.0607 171.1414,242.0087 171.0824,242.0057 L101.0394,240.5297 C100.7474,240.5227 100.5174,240.2897 100.523285,240.0097 C100.5304,239.7297 100.7664,239.5167 101.0644,239.5147 L171.1224,240.9937 C171.1554,240.9947 173.0294,241.0857 174.8804,241.0247 C176.7284,240.9627 178.6114,240.7457 178.6304,240.7437 L216.0404,237.8907 C216.0604,237.8887 216.0804,237.8887 216.1014,237.8887 C216.4214,237.8987 217.3804,237.8257 217.8124,237.3717 C218.2654,236.8977 218.3484,235.8457 218.3424,235.4807 L218.4314,225.1937 C218.4344,224.9147 218.6704,224.6897 218.9594,224.6897 L218.9644,224.6897 C219.2564,224.6927 219.4904,224.9207 219.488413,225.2017 L219.3984,235.4767 C219.4014,235.6377 219.4074,237.2017 218.5924,238.0557 C217.7944,238.8937 216.3704,238.9097 216.0964,238.9047 L178.7354,241.7527 C178.6794,241.7597 176.8124,241.9757 174.9164,242.0387 C174.4314,242.0547 173.9484,242.0607 173.4974,242.0607" id="Fill-187" fill="#000000"></path>
            <path d="M219.4701,219.5324 L219.4651,219.5324 C219.1851,219.5304 218.9601,219.3014 218.9621,219.0204 L218.9941,215.1564 C218.9971,214.8784 219.2241,214.6534 219.5021,214.6534 L219.5061,214.6534 C219.7861,214.6554 220.0121,214.8854 220.0091,215.1654 L219.9771,219.0294 C219.9751,219.3074 219.7481,219.5324 219.4701,219.5324" id="Fill-189" fill="#000000"></path>
            <path d="M219.557,209.1115 L219.541,209.1115 C219.261,209.1025 219.04,208.8685 219.049,208.5895 L219.052,208.2875 L219.092,203.6025 C219.094,203.3245 219.321,203.0995 219.599,203.0995 L219.604,203.0995 C219.884,203.1025 220.109,203.3315 220.107,203.6115 L220.065,208.5775 C220.065,208.5815 220.064,208.6165 220.064,208.6205 C220.055,208.8945 219.829,209.1115 219.557,209.1115" id="Fill-191" fill="#000000"></path>
            <path d="M219.6605,196.8683 L219.6555,196.8683 C219.3765,196.8653 219.1505,196.6373 219.1525,196.3563 L219.1745,193.7863 C219.1765,193.5083 219.4025,193.2833 219.6815,193.2833 L219.6855,193.2833 C219.9665,193.2863 220.1905,193.5143 220.1885,193.7953 L220.1675,196.3653 C220.1655,196.6433 219.9385,196.8683 219.6605,196.8683" id="Fill-193" fill="#000000"></path>
            <path d="M176.8919,241.5861 L176.8859,241.5861 C176.6059,241.5841 176.3809,241.4101 176.3849,241.1981 L177.4799,173.0931 C177.4829,172.8811 177.7179,172.7001 177.9939,172.7141 C178.2739,172.7171 178.4969,172.8911 178.494913,173.1021 L177.3999,241.2081 C177.3959,241.4181 177.1689,241.5861 176.8919,241.5861" id="Fill-195" fill="#000000"></path>
            <path d="M221.4271,186.9943 C221.3781,186.9943 221.3281,186.9863 221.2791,186.9723 C221.0111,186.8903 220.8601,186.6063 220.9411,186.3393 C222.3411,181.7383 224.0591,174.2583 225.5731,167.6583 C226.3661,164.2053 227.1141,160.9433 227.7291,158.4853 C228.2791,156.2903 231.1681,145.1883 234.1351,142.2223 C234.3331,142.0233 234.6551,142.0233 234.8531,142.2223 C235.0511,142.4203 235.0511,142.7403 234.8531,142.9383 C232.6981,145.0933 230.1991,152.7933 228.7131,158.7323 C228.1021,161.1803 227.3541,164.4363 226.5631,167.8863 C225.0431,174.5013 223.3231,182.0003 221.9111,186.6343 C221.8451,186.8523 221.6441,186.9943 221.4271,186.9943" id="Fill-197" fill="#000000"></path>
            <path d="M238.9359,204.7658 C238.6999,204.7658 238.4879,204.5998 238.4399,204.3578 C237.9269,201.7948 236.8539,199.7368 235.7179,197.5558 C235.1569,196.4798 234.5779,195.3678 234.0479,194.1598 C233.4199,192.7238 232.7329,191.2148 232.0049,189.6178 C229.3329,183.7548 226.3059,177.1108 225.0259,171.3508 C224.9639,171.0778 225.1369,170.8068 225.4109,170.7458 C225.6839,170.6828 225.9559,170.8578 226.0159,171.1308 C227.2729,176.7868 230.2779,183.3798 232.9279,189.1968 C233.6579,190.7978 234.3469,192.3108 234.9779,193.7528 C235.4929,194.9288 236.0649,196.0258 236.6179,197.0868 C237.7889,199.3328 238.8939,201.4538 239.4339,204.1598 C239.4889,204.4338 239.3109,204.7018 239.0369,204.7558 C239.0019,204.7628 238.9689,204.7658 238.9359,204.7658" id="Fill-199" fill="#000000"></path>
            <path d="M233.2728,230.966 C233.1908,230.966 233.1078,230.946 233.0298,230.904 C230.6028,229.578 228.7538,227.864 227.1238,226.354 C226.4868,225.764 225.8848,225.206 225.2728,224.688 C225.0578,224.507 225.0318,224.187 225.2118,223.973 C225.3928,223.759 225.7128,223.733 225.9268,223.913 C226.5578,224.446 227.1678,225.011 227.8128,225.61 C229.4778,227.153 231.2008,228.748 233.5168,230.014 C233.7628,230.148 233.8528,230.456 233.7178,230.702 C233.6268,230.87 233.4528,230.966 233.2728,230.966" id="Fill-201" fill="#000000"></path>
            <path d="M216.8783,108.9767 C216.8233,108.9767 216.7693,108.9677 216.7143,108.9497 C213.8413,107.9637 200.9373,103.4557 196.7233,101.2137 C189.8943,97.5807 189.5023,94.4837 190.8923,83.8377 C190.9283,83.5607 191.1853,83.3657 191.4603,83.4007 C191.7383,83.4377 191.9343,83.6917 191.8983,83.9697 C190.4633,94.9637 191.1563,97.1027 197.1993,100.3187 C201.3503,102.5267 214.2053,107.0167 217.0433,107.9897 C217.3083,108.0807 217.4493,108.3697 217.3583,108.6337 C217.2863,108.8447 217.0893,108.9767 216.8783,108.9767" id="Fill-203" fill="#000000"></path>
            <path d="M245.7318,235.0548 C242.7238,235.0548 239.3598,234.7168 236.3488,233.6218 C234.9828,233.1248 230.5698,231.3598 231.1428,229.5288 C231.2258,229.2608 231.5118,229.1108 231.7778,229.1958 C232.0448,229.2798 232.1948,229.5638 232.1108,229.8308 C231.9458,230.3608 234.2158,231.7658 236.6958,232.6688 C242.0188,234.6038 248.5548,234.0738 251.9768,233.5848 C256.5898,232.9258 259.8918,231.7898 261.7918,230.2068 C265.1738,227.3868 266.1928,223.4358 265.3048,216.5668 C262.9998,198.7378 258.1758,182.2408 253.0688,164.7748 C251.6038,159.7648 250.0888,154.5848 248.6508,149.4088 C248.2748,148.0528 247.9148,146.6978 247.5328,145.2608 C245.5148,137.6728 243.4288,129.8258 239.3568,123.4938 C234.2468,115.5428 226.8878,112.8068 218.3668,109.6378 C217.7748,109.4178 217.1798,109.1968 216.5818,108.9718 C216.3188,108.8728 216.1858,108.5808 216.2848,108.3188 C216.3828,108.0568 216.6758,107.9238 216.9378,108.0228 C217.5358,108.2458 218.1288,108.4678 218.7198,108.6868 C227.0498,111.7838 234.9178,114.7088 240.2108,122.9458 C244.3688,129.4108 246.4748,137.3358 248.5128,144.9998 C248.8938,146.4338 249.2538,147.7868 249.6278,149.1368 C251.0648,154.3068 252.5788,159.4838 254.0428,164.4908 C259.1608,181.9938 263.9958,198.5288 266.3108,216.4368 C267.2378,223.6028 266.0798,227.9528 262.4408,230.9868 C260.3668,232.7148 256.9908,233.8938 252.1208,234.5888 C250.5188,234.8188 248.2508,235.0548 245.7318,235.0548" id="Fill-205" fill="#000000"></path>
            <path d="M237.9466,207.5275 C236.6646,207.5275 235.6086,207.3535 234.7786,207.2165 C234.0746,207.1005 233.4666,207.0015 233.1956,207.1035 C232.9336,207.2045 232.6406,207.0745 232.5406,206.8125 C232.4396,206.5515 232.5696,206.2575 232.8316,206.1575 C233.3576,205.9545 234.0236,206.0645 234.9436,206.2155 C236.4096,206.4575 238.6256,206.8225 241.5426,206.0115 C242.5456,205.7335 243.6766,205.3115 244.8756,204.8645 C249.2296,203.2415 254.6476,201.2195 258.8086,204.3415 C259.0336,204.5095 259.0786,204.8275 258.9106,205.0515 C258.7426,205.2765 258.4256,205.3215 258.2006,205.1535 C254.4826,202.3645 249.5666,204.1975 245.2296,205.8155 C244.0106,206.2695 242.8586,206.6995 241.8136,206.9895 C240.3536,207.3945 239.0646,207.5275 237.9466,207.5275" id="Fill-207" fill="#000000"></path>
            <path d="M234.7025,208.048 C234.6255,208.048 234.5485,208.03 234.4735,207.994 C234.4755,207.995 234.4155,207.982 234.3425,207.962 C233.7975,207.818 232.5205,207.478 230.9315,206.418 C230.6995,206.263 230.6365,205.948 230.7915,205.715 C230.9475,205.482 231.2625,205.419 231.4955,205.574 C232.9435,206.54 234.1065,206.85 234.6025,206.982 C234.7635,207.025 234.8505,207.047 234.9315,207.088 C235.1815,207.214 235.2815,207.519 235.1555,207.77 C235.0665,207.946 234.8885,208.048 234.7025,208.048" id="Fill-209" fill="#000000"></path>
            <path d="M114.8968,147.9943 C114.7018,147.9943 114.5158,147.8813 114.4318,147.6913 C113.5208,145.6263 112.9598,143.5113 112.3648,141.2713 C111.7078,138.8003 110.9628,135.9983 109.6088,132.7713 C109.5008,132.5133 109.6228,132.2163 109.8798,132.1073 C110.1388,131.9993 110.4358,132.1203 110.5438,132.3793 C111.9258,135.6703 112.6798,138.5073 113.3448,141.0113 C113.9288,143.2113 114.4808,145.2893 115.3608,147.2813 C115.4738,147.5383 115.3578,147.8373 115.1008,147.9513 C115.0348,147.9803 114.9648,147.9943 114.8968,147.9943" id="Fill-211" fill="#000000"></path>
            <path d="M234.0296,231.1291 C233.3156,231.1291 232.5556,231.0021 231.7586,230.7431 C231.4916,230.6571 231.3446,230.3721 231.4306,230.1051 C231.5166,229.8391 231.8006,229.6911 232.0696,229.7781 C235.7076,230.9521 237.5286,228.7871 238.4166,226.7641 C240.8836,221.1351 238.9096,210.2501 233.5876,207.2461 C233.3426,207.1081 233.2576,206.7991 233.3946,206.5551 C233.5326,206.3111 233.8416,206.2251 234.0866,206.3621 C239.9146,209.6521 242.0236,221.0591 239.3446,227.1711 C238.2046,229.7751 236.3586,231.1291 234.0296,231.1291" id="Fill-213" fill="#000000"></path>
            <path d="M172.1126,107.9894 C171.0696,107.9894 170.0246,107.9414 168.9866,107.8434 C164.1236,107.3804 155.5086,105.3644 152.4706,97.0684 C152.3776,96.8114 152.4966,96.5214 152.7386,96.4224 C152.9806,96.3224 153.2536,96.4494 153.3476,96.7064 C156.2026,104.4994 164.4246,106.4054 169.0716,106.8474 C178.3006,107.7264 188.4936,104.3214 191.3286,99.4104 C191.4636,99.1754 191.7536,99.1014 191.9746,99.2454 C192.1966,99.3894 192.2656,99.6974 192.1306,99.9324 C189.4046,104.6544 180.8316,107.9894 172.1126,107.9894" id="Fill-215" fill="#000000"></path>
            <path d="M226.2425,276.9455 C225.9625,276.9455 225.7345,276.7175 225.7345,276.4375 C225.7345,268.1925 223.7675,259.0945 221.8655,250.2965 C220.7425,245.1015 219.6815,240.1945 219.0105,235.4915 C218.9705,235.2145 219.1635,234.9575 219.4405,234.9175 C219.7165,234.8765 219.9745,235.0695 220.0135,235.3475 C220.6805,240.0155 221.7385,244.9055 222.8575,250.0825 C224.7705,258.9325 226.7495,268.0845 226.7495,276.4375 C226.7495,276.7175 226.5215,276.9455 226.2425,276.9455" id="Fill-217" fill="#000000"></path>
            <path d="M109.6156,277.7316 C109.3356,277.7316 109.1076,277.5046 109.1076,277.2246 C109.1076,270.6876 109.9296,265.3306 110.7256,260.1496 C111.5126,255.0226 112.3276,249.7216 112.3276,243.3026 C112.3276,243.0226 112.5536,242.7946 112.8346,242.7946 C113.1146,242.7946 113.3426,243.0226 113.3426,243.3026 C113.3426,249.7986 112.5216,255.1396 111.7286,260.3036 C110.9386,265.4476 110.1226,270.7646 110.1226,277.2246 C110.1226,277.5046 109.8956,277.7316 109.6156,277.7316" id="Fill-219" fill="#000000"></path>
            <path d="M202.1449,46.4572 C202.1229,46.4572 202.1009,46.4552 202.0789,46.4522 C201.8009,46.4162 201.6049,46.1622 201.6409,45.8842 C202.4979,39.2792 200.0239,32.1192 195.0249,26.7312 C188.0169,19.1792 175.9159,16.3612 165.5999,19.8792 C160.2949,21.6862 155.5269,25.1612 152.5169,29.4112 C149.6829,33.4122 148.4299,38.9772 148.9909,45.0792 C149.0159,45.3572 148.8109,45.6042 148.5319,45.6302 C148.2519,45.6582 148.0049,45.4512 147.9799,45.1722 C147.3979,38.8282 148.7149,33.0232 151.6889,28.8242 C154.8199,24.4042 159.7699,20.7942 165.2729,18.9192 C175.9579,15.2762 188.4969,18.2052 195.7689,26.0412 C200.9699,31.6472 203.5409,39.1142 202.6469,46.0152 C202.6139,46.2702 202.3959,46.4572 202.1449,46.4572" id="Fill-221" fill="#000000"></path>
            <path d="M201.596,45.5705 C201.512,45.5705 201.427,45.5495 201.349,45.5065 C198.947,44.1645 190.975,40.8955 181.662,39.3615 C173.261,37.9765 161.183,37.5975 151.354,43.6565 C151.115,43.8025 150.802,43.7285 150.656,43.4905 C150.509,43.2525 150.583,42.9395 150.822,42.7925 C160.918,36.5695 173.256,36.9475 181.827,38.3605 C192.031,40.0425 199.894,43.5315 201.844,44.6205 C202.088,44.7575 202.176,45.0665 202.038,45.3105 C201.946,45.4775 201.774,45.5705 201.596,45.5705" id="Fill-223" fill="#000000"></path>
            <path d="M201.6527,54.1027 C199.6117,54.1027 196.8127,52.9817 194.6227,51.9207 C191.5757,50.4487 183.4987,47.2327 179.9727,46.6077 C173.7317,45.5007 169.3527,46.5357 163.8097,47.8437 C162.3317,48.1927 160.8017,48.5537 159.1347,48.8977 C157.8597,49.1617 155.8637,49.6877 153.7507,50.2457 C150.7897,51.0267 147.7287,51.8337 146.4797,51.9507 C145.7147,52.0217 145.3597,51.6977 145.1957,51.4127 C144.9927,51.0577 144.3737,49.9787 148.1037,44.7907 C148.2667,44.5637 148.5847,44.5107 148.8117,44.6747 C149.0397,44.8377 149.0907,45.1557 148.9267,45.3827 C146.2787,49.0677 145.9037,50.6077 146.0757,50.9077 C146.0867,50.9257 146.1787,50.9597 146.3847,50.9407 C147.5507,50.8317 150.5707,50.0347 153.4917,49.2637 C155.6187,48.7037 157.6287,48.1727 158.9297,47.9037 C160.5827,47.5627 162.1047,47.2037 163.5767,46.8557 C169.0097,45.5737 173.7027,44.4647 180.1507,45.6087 C183.8177,46.2577 191.8907,49.4737 195.0647,51.0077 C198.5487,52.6937 201.3697,53.4167 202.6137,52.9427 C202.7617,52.8857 202.8607,52.7867 202.9337,52.6177 C203.4997,51.3187 202.0027,47.6197 201.3627,46.0397 C201.1887,45.6097 201.0507,45.2697 200.9707,45.0377 C200.8807,44.7727 201.0207,44.4837 201.2857,44.3917 C201.5507,44.3007 201.8397,44.4417 201.9307,44.7067 C202.0027,44.9137 202.1417,45.2587 202.3027,45.6587 C203.4147,48.4037 204.5437,51.4627 203.8647,53.0227 C203.6837,53.4377 203.3767,53.7377 202.9747,53.8907 C202.5907,54.0377 202.1437,54.1027 201.6527,54.1027" id="Fill-225" fill="#000000"></path>
            <path d="M225.2171,224.7531 C224.5051,224.7531 223.8271,224.5381 223.2161,224.1131 C222.9871,223.9531 222.9291,223.6371 223.0891,223.4071 C223.2481,223.1761 223.5661,223.1201 223.7951,223.2801 C224.4561,223.7391 225.1971,223.8561 226.0011,223.6221 C227.5931,223.1611 229.2041,221.4001 230.2071,219.0271 C232.1501,214.4311 231.5701,208.3301 230.0381,204.9231 C229.9241,204.6671 230.0371,204.3671 230.2931,204.2521 C230.5491,204.1371 230.8491,204.2511 230.9641,204.5071 C232.5831,208.1091 233.1961,214.5621 231.1421,219.4231 C230.0061,222.1101 228.1901,224.0451 226.2831,224.5971 C225.9231,224.7011 225.5661,224.7531 225.2171,224.7531" id="Fill-227" fill="#000000"></path>
            <path d="M191.9496,71.4347 C191.8736,71.4347 191.7966,71.4167 191.7226,71.3807 C191.4726,71.2547 191.3716,70.9507 191.4966,70.7007 C191.9176,69.8587 192.2276,68.7777 192.5566,67.6327 C193.1296,65.6407 193.7216,63.5807 195.0196,62.2817 C195.2186,62.0827 195.5396,62.0827 195.7376,62.2817 C195.9346,62.4787 195.9346,62.7997 195.7376,62.9977 C194.6246,64.1117 194.0686,66.0437 193.5316,67.9137 C193.1896,69.1037 192.8666,70.2287 192.4036,71.1537 C192.3146,71.3307 192.1366,71.4347 191.9496,71.4347" id="Fill-229" fill="#000000"></path>
            <path d="M155.5853,70.3312 C155.3443,70.3312 155.1303,70.1582 155.0873,69.9122 C155.0763,69.8562 154.0803,64.2762 152.9713,62.4272 C152.8263,62.1862 152.9043,61.8752 153.1453,61.7302 C153.3853,61.5862 153.6963,61.6642 153.8413,61.9052 C155.0463,63.9142 156.0443,69.4992 156.0853,69.7352 C156.1353,70.0122 155.9503,70.2742 155.6753,70.3232 C155.6453,70.3292 155.6143,70.3312 155.5853,70.3312" id="Fill-231" fill="#000000"></path>
            <path d="M219.0892,174.7785 C219.0862,174.7785 219.0822,174.7775 219.0792,174.7775 L184.6572,173.8435 L93.3372,172.2715 C93.1002,172.2675 92.9092,172.0375 92.9121651,171.7575 C92.9162,171.4795 93.1092,171.2575 93.3432,171.2575 C93.3462,171.2575 93.3482,171.2575 93.3502,171.2575 L184.6742,172.8295 L219.0992,173.7635 C219.3372,173.7695 219.5262,174.0025 219.520339,174.2825 C219.5152,174.5585 219.3222,174.7785 219.0892,174.7785" id="Fill-233" fill="#000000"></path>
            <path d="M92.2191,199.1789 C91.0251,198.4309 89.9521,201.9359 89.3121,203.0889 C88.9231,203.7889 86.2441,210.7019 86.2441,210.7019 L91.8921,208.5249 C91.8921,208.5249 94.7911,200.7889 92.2191,199.1789" id="Fill-235" fill="#FFEDDE"></path>
            <path d="M91.8021,208.4347 C91.8021,208.4347 87.8121,209.3357 86.2441,211.1927 C84.6771,213.0487 85.5311,215.8617 85.5311,215.8617 C85.5311,215.8617 83.4301,217.5257 83.2861,219.3497 C83.1331,221.3117 85.0871,224.3987 85.0871,224.3987 C85.0871,224.3987 84.5651,228.6567 84.4981,229.7287 C84.1731,234.9287 83.3591,239.9917 86.8221,244.3207 C88.3801,246.2677 92.1671,246.7857 94.5141,247.2547 C99.7011,248.2917 107.3591,247.0217 112.2121,245.1207 C116.5261,243.4307 117.3701,240.8077 117.3701,240.8077 L111.5461,240.4067 C111.5461,240.4067 109.5891,239.1757 108.5661,238.9397 C104.6841,238.0427 99.3391,240.3217 95.3691,239.6477 C92.8481,239.2197 91.8921,237.0717 91.8921,237.0717 L91.8471,231.3807 C91.8471,231.3807 94.3481,231.1587 94.3371,228.7567 C94.3251,226.3557 91.8021,221.7757 91.8021,221.7757 L91.8021,208.4347 Z" id="Fill-237" fill="#FFEDDE"></path>
            <path d="M92.3148,231.6466 C91.7558,231.6466 91.1538,231.4476 90.5468,231.0486 C87.6988,229.1776 85.9508,226.4646 83.9258,223.3236 L83.7878,223.1086 C82.7508,221.4996 82.4618,220.0046 82.9328,218.6676 C83.5578,216.8896 85.5388,215.4336 88.8208,214.3406 C89.0858,214.2516 89.3738,214.3956 89.4618,214.6616 C89.5498,214.9276 89.4068,215.2146 89.1408,215.3036 C86.1718,216.2926 84.4058,217.5386 83.8898,219.0046 C83.5288,220.0316 83.7818,221.2266 84.6408,222.5586 L84.7798,222.7746 C86.7418,225.8186 88.4358,228.4476 91.1038,230.2016 C91.6608,230.5656 92.4568,230.8876 93.0878,230.3386 C93.8838,229.6496 94.1708,227.7896 93.2718,225.8706 C92.7498,224.7526 92.1988,223.9116 91.6668,223.0966 C90.6378,221.5206 89.7488,220.1596 89.6038,217.5986 C89.5868,217.3186 89.8008,217.0796 90.0818,217.0636 C90.3558,217.0426 90.6008,217.2616 90.6168,217.5416 C90.7468,219.8316 91.5278,221.0276 92.5158,222.5416 C93.0428,223.3466 93.6378,224.2586 94.1908,225.4396 C95.1948,227.5846 95.0058,230.0196 93.7518,231.1066 C93.3358,231.4666 92.8448,231.6466 92.3148,231.6466" id="Fill-239" fill="#000000"></path>
            <path d="M86.4535,211.5421 C86.4215,211.5421 86.3885,211.5391 86.3555,211.5321 C86.0805,211.4791 85.9015,211.2121 85.9555,210.9371 C86.7305,207.0001 88.5505,202.7361 91.3645,198.2641 C91.5145,198.0271 91.8275,197.9561 92.0645,198.1041 C92.3015,198.2541 92.3725,198.5671 92.2245,198.8051 C89.5145,203.1091 87.6905,207.3721 86.9505,211.1331 C86.9035,211.3741 86.6905,211.5421 86.4535,211.5421" id="Fill-241" fill="#000000"></path>
            <path d="M95.7669,245.6632 C95.1109,245.6632 94.4309,245.6012 93.7059,245.4402 C92.6619,245.2082 91.1199,244.8022 89.7099,244.1862 C87.9789,243.4292 85.6079,242.3922 84.5309,240.6682 C83.1019,238.3832 83.5739,234.2182 84.0299,230.1892 C84.2869,227.9282 84.5279,225.7922 84.4229,224.1282 C84.4059,223.8492 84.6179,223.6072 84.8979,223.5912 C85.1779,223.5682 85.4179,223.7852 85.4359,224.0642 C85.5459,225.8172 85.2989,227.9962 85.0379,230.3042 C84.6009,234.1582 84.1499,238.1452 85.3909,240.1312 C86.3009,241.5882 88.5969,242.5922 90.1169,243.2562 C91.4509,243.8392 92.9249,244.2262 93.9259,244.4502 C95.6399,244.8302 97.0729,244.5972 98.7299,244.3272 C99.1079,244.2662 99.4939,244.2022 99.8919,244.1452 C102.3509,243.7942 104.9309,243.4022 107.0849,242.8232 L107.2379,242.7832 C110.8349,241.8262 111.0709,241.1292 111.0809,240.9992 C111.1029,240.7472 110.8879,240.3372 109.7449,239.8122 C108.1209,239.0672 105.9779,239.2352 104.0859,239.3822 C103.7729,239.4062 103.4669,239.4312 103.1709,239.4492 C102.3159,239.5052 101.4469,239.6482 100.5269,239.8012 C98.7109,240.1012 96.8329,240.4102 95.0109,240.0062 C93.5739,239.6862 89.2509,236.7072 88.2009,233.8302 C88.1049,233.5672 88.2399,233.2752 88.5029,233.1802 C88.7659,233.0852 89.0579,233.2192 89.1539,233.4822 C90.0679,235.9852 94.1499,238.7742 95.2309,239.0162 C96.8629,239.3782 98.6409,239.0832 100.3619,238.8002 C101.2649,238.6502 102.1999,238.4962 103.1059,238.4372 C103.3979,238.4182 103.6989,238.3942 104.0079,238.3712 C106.0219,238.2142 108.3049,238.0362 110.1669,238.8912 C110.6689,239.1202 112.1989,239.8212 112.0929,241.0832 C111.9839,242.3972 109.7079,243.1762 107.4979,243.7642 L107.3499,243.8042 C105.1399,244.3972 102.5249,244.7942 100.0359,245.1502 C99.6439,245.2062 99.2639,245.2672 98.8929,245.3282 C97.8469,245.4992 96.8369,245.6632 95.7669,245.6632" id="Fill-243" fill="#000000"></path>
            <path d="M92.2845,237.7384 C92.0045,237.7384 91.7775,237.5104 91.7775,237.2304 L91.7795,236.8764 L91.8105,231.2204 C91.8115,230.9414 92.0395,230.7044 92.3185,230.7044 L92.3195,230.7044 C92.5985,230.7044 92.8255,230.9194 92.8255,231.1994 L92.8245,231.4244 L92.7925,237.2304 C92.7925,237.5104 92.5645,237.7384 92.2845,237.7384" id="Fill-245" fill="#000000"></path>
            <path d="M85.7044,216.2394 C85.4764,216.2394 85.2694,216.0864 85.2124,215.8554 C84.7254,213.9114 85.0244,212.2264 86.1004,210.8484 C87.6364,208.8834 90.3044,208.1504 91.6244,208.1504 C91.9044,208.1504 92.1324,208.3774 92.1324,208.6574 C92.1324,208.9374 91.9044,209.1654 91.6244,209.1654 C90.4464,209.1654 88.1304,209.8984 86.9004,211.4724 C86.0264,212.5924 85.7904,213.9834 86.1964,215.6094 C86.2654,215.8814 86.0994,216.1564 85.8274,216.2244 C85.7864,216.2344 85.7444,216.2394 85.7044,216.2394" id="Fill-247" fill="#000000"></path>
            <path d="M154.2103,71.1701 C154.2103,71.1701 153.9203,79.1121 159.8763,84.7821 C165.8333,90.4511 169.9953,92.3161 174.1573,91.8151 C178.3193,91.3131 188.3663,86.5761 190.4473,80.9791 C192.5283,75.3811 192.456602,73.1561 192.456602,73.1561" id="Stroke-249" stroke="#000000" stroke-width="1.054" stroke-linecap="round" stroke-linejoin="round"></path>
            <path d="M168.058,77.6906 C168.058,77.6906 172.507,82.0326 177.674,78.3466" id="Stroke-251" stroke="#000000" stroke-width="1.054" stroke-linecap="round" stroke-linejoin="round"></path>
            <path d="M96.1468,247.6779 C93.0098,247.6779 88.8238,246.4819 86.6978,244.3549 C85.5278,243.1859 85.1518,240.9659 85.1358,240.8719 C85.0898,240.5959 85.2778,240.3349 85.5538,240.2889 C85.8278,240.2449 86.0908,240.4309 86.1368,240.7069 C86.1398,240.7269 86.4778,242.6999 87.4148,243.6369 C89.6048,245.8269 94.4998,246.9989 97.4138,246.5809 C99.7458,246.2479 101.6128,245.8619 103.7758,245.4139 C104.4748,245.2699 105.1958,245.1199 105.9618,244.9669 C108.6708,244.4239 112.7658,243.6059 114.4778,240.9369 C114.6288,240.7009 114.9438,240.6319 115.1788,240.7839 C115.4158,240.9359 115.4838,241.2489 115.3328,241.4849 C113.3868,244.5159 109.0388,245.3859 106.1618,245.9619 C105.3978,246.1149 104.6778,246.2639 103.9818,246.4069 C101.8928,246.8399 99.9198,247.2479 97.5568,247.5859 C97.1228,247.6479 96.6478,247.6779 96.1468,247.6779" id="Fill-253" fill="#000000"></path>
            <path d="M99.3988,248.3947 C97.7938,248.3947 96.4178,248.1987 95.5088,247.7257 C95.2598,247.5957 95.1638,247.2907 95.2938,247.0407 C95.4218,246.7927 95.7278,246.6957 95.9768,246.8257 C98.7978,248.2927 108.3198,246.5487 112.4628,244.6657 C113.9558,243.9877 116.7318,242.7257 117.1038,240.9787 C117.1628,240.7057 117.4308,240.5277 117.7058,240.5877 C117.9798,240.6467 118.1548,240.9157 118.0958,241.1897 C117.6178,243.4377 114.5378,244.8367 112.8828,245.5887 C110.0028,246.8987 103.8298,248.3947 99.3988,248.3947" id="Fill-255" fill="#000000"></path>
            <line x1="95.7679" y1="169.2687" x2="97.2989" y2="147.6107" id="Stroke-257" stroke="#000000" stroke-width="1.168" stroke-linecap="round" stroke-linejoin="round"></line>
            <path d="M97.2591,147.8439 C97.2591,147.8439 100.6001,129.9839 102.6101,124.9599 C104.6191,119.9379 110.6841,110.8299 121.3781,107.4999 C132.0731,104.1699 153.0891,96.5619 153.0891,96.5619 C153.0891,96.5619 158.0201,94.1829 158.000161,88.9479" id="Stroke-259" stroke="#000000" stroke-width="1.168" stroke-linecap="round" stroke-linejoin="round"></path>
            <path d="M207.1068,150.7394 L207.1068,147.7454 C207.1068,146.9474 207.3128,146.2574 207.8498,146.0434 L210.1458,145.1544 C210.2048,144.9984 210.3108,144.6864 210.3018,144.2474 C210.2738,142.7314 209.5088,141.6324 208.4538,141.2564 L202.1648,139.1204 L203.8048,138.4814 C203.8938,138.4474 204.0028,138.4284 204.0998,138.4284 C204.2028,138.4284 204.3248,138.4514 204.4068,138.4804 L210.8228,140.6594 C211.9388,141.0634 212.3558,142.5124 212.3558,143.2984 C212.3558,143.9344 212.1568,144.6694 211.5338,144.9154 C210.9798,145.1344 209.3188,145.7804 209.3188,145.7804 C209.2578,145.9364 209.1568,146.2304 209.1568,146.8734 L209.1568,149.5714 C209.1568,150.4214 208.7798,151.1904 208.0578,151.1904 C207.7438,151.1904 207.3868,151.0324 207.1068,150.7394" id="Fill-261" fill="#FFFFFF"></path>
            <path d="M205.4622,143.9338 C205.7922,144.4788 205.9592,145.1648 205.9592,145.7458 L205.9592,148.2588 C205.9592,149.8128 206.6212,151.0798 207.7112,151.4418 L206.0282,152.0738 C205.6912,152.2008 205.3612,152.0688 205.1622,151.9298 C204.3432,151.3598 203.9102,150.4758 203.9102,149.1178 C203.9102,148.4798 203.9072,147.6068 203.9072,146.4808 C203.9072,145.8388 203.6562,145.0908 203.2682,144.5378 C202.9772,144.1208 202.6392,143.8598 202.2112,143.6938 C201.3832,143.3718 200.7152,142.2048 200.7152,141.0578 C200.7152,140.0718 201.1762,139.4518 201.7902,139.4038 C201.9222,139.3938 202.0342,139.4188 202.1412,139.4548 C202.5052,139.5758 202.7992,139.6848 202.7992,139.6848 C202.5962,140.8258 203.2082,142.5758 204.4422,143.0488 C204.9282,143.2358 205.2142,143.5248 205.4622,143.9338" id="Fill-263" fill="#FFFFFF"></path>
            <path d="M145.9945,173.4044 C145.9945,173.4044 146.3035,183.2984 146.1005,186.9314 C145.8905,190.7174 146.0645,199.7154 145.3575,200.2464 C144.8065,200.6594 143.5345,197.2504 143.1615,196.6694 C142.5815,195.7644 141.9655,198.4784 140.8955,198.0504 C140.5075,197.8954 139.4125,195.0454 138.2615,194.4994 C137.5405,194.1574 136.3285,196.7404 135.6905,197.2714 C135.4655,197.4594 135.0345,197.3634 134.7155,196.7044 C134.1335,195.4974 133.5885,193.2344 132.9995,193.2344 C131.9535,193.2344 131.5945,195.4354 131.0615,195.8674 C130.3795,196.4224 130.0925,195.2014 129.9535,193.2694 C129.6995,189.7114 130.0955,181.0894 130.0955,181.0894 L130.2375,172.8734 L145.9945,173.4044 Z" id="Fill-265" fill="#FFEDDA"></path>
        </g>
        <g id="Group-Copy" transform="translate(8.000000, 12.000000)">
            <line x1="30.9535831" y1="15.5" x2="587.046417" y2="15.5" id="Line" stroke="#CCCCCC" stroke-linecap="square"></line>
            <g id="01" transform="translate(15.500000, 0.000000)">
                <circle id="Oval" fill="#CCCCCC" cx="15.5" cy="15.5" r="15.5"></circle>
                <polygon id="1" fill="#FFFFFF" fill-rule="nonzero" points="17.5258824 22.02 17.5258824 7.6 15.2658824 7.6 10.4458824 10.28 11.6858824 12.36 14.9658824 10.48 14.9658824 22.02"></polygon>
            </g>
            <g id="02" transform="translate(106.500000, 0.000000)">
                <circle id="Oval-Copy" fill="#CCCCCC" cx="15.5" cy="15.5" r="15.5"></circle>
                <path d="M21.2494118,22.02 L21.2494118,19.9 L14.3894118,19.9 L18.6294118,15.62 C19.9694118,14.28 20.7094118,12.84 20.7094118,11.28 L20.7094118,11.08 C20.7094118,9.1 19.3094118,7.38 16.0494118,7.38 C13.1294118,7.38 11.7894118,9.18 11.1094118,10.42 L13.0294118,11.68 C13.9694118,10 15.0294118,9.66 16.0694118,9.66 C17.5494118,9.66 18.1294118,10.4 18.1294118,11.18 L18.1294118,11.34 C18.1294118,12.16 18.0294118,12.92 16.3494118,14.64 L11.0494118,20.1 L11.0494118,22.02 L21.2494118,22.02 Z" id="2" fill="#FFFFFF" fill-rule="nonzero"></path>
            </g>
            <g id="03" transform="translate(197.500000, 0.000000)">
                <circle id="Oval-Copy-2" fill="#CCCCCC" cx="15.5" cy="15.5" r="15.5"></circle>
                <path d="M15.5694118,22.24 C19.1094118,22.24 20.8094118,20.22 20.8094118,18.04 L20.8094118,17.74 C20.8094118,16.1 19.9094118,14.82 18.0094118,14.48 C19.6494118,13.86 20.0894118,12.32 20.0894118,11.18 L20.0894118,10.98 C20.0894118,8.82 18.3294118,7.38 15.6294118,7.38 C13.5494118,7.38 12.3094118,8.22 11.3494118,9.46 L13.0894118,10.82 C13.7294118,10.12 14.4094118,9.62 15.6294118,9.62 C16.8294118,9.62 17.5894118,10.1 17.5894118,11.18 L17.5894118,11.34 C17.5894118,12.58 17.1894118,13.42 15.3894118,13.42 L13.6694118,13.42 L13.6694118,15.62 L15.6094118,15.62 C17.4494118,15.62 18.2294118,16.26 18.2294118,17.66 L18.2294118,17.92 C18.2294118,19.18 17.3894118,19.96 15.5894118,19.96 C14.4294118,19.96 13.6094118,19.66 12.2094118,18.64 L10.9494118,20.64 C12.3094118,21.72 13.8894118,22.24 15.5694118,22.24 Z" id="3" fill="#FFFFFF" fill-rule="nonzero"></path>
            </g>
            <g id="04" transform="translate(288.500000, 0.000000)">
                <circle id="Oval-Copy-2" fill="#CCCCCC" cx="15.5" cy="15.5" r="15.5"></circle>
                <polygon id="4" fill="#FFFFFF" fill-rule="nonzero" points="19.1176471 22.02 19.1176471 19.02 21.0776471 19.02 21.0776471 16.96 19.1176471 16.96 19.1176471 12.64 16.5976471 12.64 16.5976471 16.96 12.4376471 16.96 18.7376471 7.6 15.9776471 7.6 9.41764706 17.36 9.41764706 19.02 16.5976471 19.02 16.5976471 22.02"></polygon>
            </g>
            <g id="05" transform="translate(379.500000, 0.000000)">
                <circle id="Oval-Copy-2" fill="#CCCCCC" cx="15.5" cy="15.5" r="15.5"></circle>
                <path d="M15.4176471,22.24 C19.0376471,22.24 20.5576471,19.74 20.5576471,17.44 L20.5576471,17.14 C20.5576471,14.82 19.0376471,12.74 16.2576471,12.74 C15.0576471,12.74 14.2376471,13.08 13.5776471,13.48 L13.7376471,9.72 L19.6176471,9.72 L19.6176471,7.6 L11.4376471,7.6 L10.9776471,15.94 L12.6976471,15.94 C13.3376471,15.32 14.2176471,14.8 15.4376471,14.8 C17.0376471,14.8 17.9776471,15.66 17.9776471,17.2 L17.9776471,17.42 C17.9776471,18.86 17.1576471,19.92 15.3976471,19.92 C14.0576471,19.92 12.8976471,19.7 11.5376471,18.62 L10.2976471,20.64 C11.7376471,21.82 13.3376471,22.24 15.4176471,22.24 Z" id="5" fill="#FFFFFF" fill-rule="nonzero"></path>
            </g>
            <g id="06" transform="translate(470.500000, 0.000000)">
                <circle id="Oval-Copy-2" fill="#FF0000" cx="15.5" cy="15.5" r="15.5"></circle>
                <path d="M15.4376471,22.24 C18.6376471,22.24 20.5576471,20.2 20.5576471,17.52 L20.5576471,17.12 C20.5576471,14.32 18.8576471,12.48 16.0576471,12.48 C14.8176471,12.48 13.5176471,12.92 12.8176471,13.74 C12.9976471,10.66 14.3576471,9.7 15.8376471,9.7 C17.0176471,9.7 17.9976471,9.98 18.8976471,10.5 L19.8376471,8.38 C18.7576471,7.66 17.2976471,7.38 15.9976471,7.38 C12.8576471,7.38 10.2776471,8.86 10.2776471,15.22 L10.2776471,16.14 C10.2776471,19.84 11.7576471,22.24 15.4376471,22.24 Z M15.3776471,19.92 C13.7376471,19.92 12.8576471,19 12.8576471,17.44 L12.8576471,17.14 C12.8576471,15.82 13.6376471,14.72 15.4776471,14.72 C17.2376471,14.72 18.0376471,15.52 18.0376471,17.2 L18.0376471,17.42 C18.0376471,19.02 17.1376471,19.92 15.3776471,19.92 Z" id="6" fill="#FFFFFF" fill-rule="nonzero"></path>
            </g>
            <g id="06-copy" transform="translate(561.500000, 0.000000)">
                <circle id="Oval-Copy-2" fill="#CCCCCC" cx="15.5" cy="15.5" r="15.5"></circle>
                <polygon id="7" fill="#FFFFFF" fill-rule="nonzero" points="14.9376471 23.02 20.4576471 10.56 20.4576471 8.6 10.1576471 8.6 10.1576471 10.76 17.7776471 10.76 12.2376471 23.02"></polygon>
            </g>
            <path d="M13.446,54.818 L13.446,45.774 L12.273,45.774 L12.273,49.548 L10.029,49.548 L10.029,45.978 L8.856,45.978 L8.856,54.784 L10.029,54.784 L10.029,50.619 L12.273,50.619 L12.273,54.818 L13.446,54.818 Z M3.875,53.73 C6.017,53.73 7.292,52.149 7.292,50.517 L7.292,49.633 C7.292,48.001 6.017,46.42 3.875,46.42 C1.733,46.42 0.458,48.001 0.458,49.633 L0.458,50.517 C0.458,52.149 1.733,53.73 3.875,53.73 Z M3.875,52.642 C2.515,52.642 1.631,51.673 1.631,50.398 L1.631,49.752 C1.631,48.477 2.515,47.508 3.875,47.508 C5.235,47.508 6.119,48.477 6.119,49.752 L6.119,50.398 C6.119,51.673 5.235,52.642 3.875,52.642 Z M13.446,61.431 L13.446,55.736 L3.348,55.736 L3.348,56.79 L12.256,56.79 L12.256,61.431 L13.446,61.431 Z M27.845,54.937 L27.845,45.774 L26.655,45.774 L26.655,49.752 L23.408,49.752 L23.408,50.806 L26.655,50.806 L26.655,54.937 L27.845,54.937 Z M16.064,54.733 C16.846,54.172 18.002,53.254 18.597,52.727 C19.311,52.098 19.855,51.537 19.923,51.282 L19.94,51.282 C20.008,51.503 20.671,52.081 21.47,52.727 C21.98,53.135 22.796,53.747 23.476,54.223 L24.173,53.373 C23.204,52.727 22.252,52.013 21.708,51.554 C20.603,50.602 20.484,50.143 20.484,49.14 L20.484,47.797 L23.816,47.797 L23.816,46.76 L15.775,46.76 L15.775,47.797 L19.277,47.797 L19.277,49.191 C19.277,50.109 19.09,50.704 18.257,51.52 C17.424,52.336 16.336,53.169 15.333,53.883 L16.064,54.733 Z M23.221,61.72 C25.771,61.72 27.93,60.615 27.93,58.83 L27.93,58.167 C27.93,56.382 25.771,55.294 23.221,55.294 C20.671,55.294 18.512,56.331 18.512,58.167 L18.512,58.83 C18.512,60.615 20.671,61.72 23.221,61.72 Z M23.221,60.7 C21.402,60.7 19.668,60.003 19.668,58.796 L19.668,58.218 C19.668,57.011 21.402,56.314 23.221,56.314 C25.04,56.314 26.774,57.011 26.774,58.218 L26.774,58.796 C26.774,60.003 25.04,60.7 23.221,60.7 Z M45.899,61.312 L45.899,52.625 L48.466,52.625 L48.466,51.554 L45.899,51.554 L45.899,45.774 L44.692,45.774 L44.692,61.312 L45.899,61.312 Z M37.824,57.13 C39.745,57.13 41.836,57.062 43.604,56.858 L43.519,55.838 C42.788,55.923 42.023,55.974 41.207,56.025 L41.207,48.307 L42.924,48.307 L42.924,47.27 L34.016,47.27 L34.016,48.307 L35.665,48.307 L35.665,56.076 L33.846,56.076 L33.846,57.13 L37.824,57.13 Z M38.8427407,56.0753704 L36.838,56.076 L36.838,48.307 L40.034,48.307 L40.034,56.059 C39.6486667,56.0703333 39.2482222,56.0741111 38.8427407,56.0753704 L38.8427407,56.0753704 Z M50.03,52.489 C51.424,51.945 52.648,51.367 53.566,50.908 C54.688,50.347 55.368,49.854 55.555,49.446 L55.572,49.446 C55.759,49.837 56.439,50.33 57.561,50.891 C58.479,51.35 59.72,51.928 61.114,52.472 L61.59,51.52 C60.332,51.044 59.023,50.466 57.935,49.905 C56.626,49.242 56.167,48.749 56.167,47.508 L56.167,46.08 L54.96,46.08 L54.96,47.508 C54.96,48.749 54.484,49.242 53.175,49.905 C52.087,50.466 50.778,51.044 49.52,51.52 L50.03,52.489 Z M62.695,55.158 L62.695,54.138 L56.15,54.138 L56.15,51.741 L54.96,51.741 L54.96,54.138 L48.415,54.138 L48.415,55.158 L62.695,55.158 Z M60.893,61.125 L60.893,60.071 L51.73,60.071 L51.73,56.535 L50.523,56.535 L50.523,61.125 L60.893,61.125 Z" id="액정파손" fill="#6E6E6E" fill-rule="nonzero"></path>
            <path d="M111.256,53.764 L111.256,45.774 L110.083,45.774 L110.083,49.174 L107.839,49.174 L107.839,45.978 L106.666,45.978 L106.666,53.73 L107.839,53.73 L107.839,50.245 L110.083,50.245 L110.083,53.764 L111.256,53.764 Z M101.685,53.356 C103.946,53.356 105.102,51.707 105.102,50.313 L105.102,49.463 C105.102,48.069 103.946,46.42 101.685,46.42 C99.424,46.42 98.268,48.069 98.268,49.463 L98.268,50.313 C98.268,51.707 99.424,53.356 101.685,53.356 Z M101.685,52.268 C100.24,52.268 99.441,51.231 99.441,50.194 L99.441,49.582 C99.441,48.545 100.24,47.508 101.685,47.508 C103.13,47.508 103.929,48.545 103.929,49.582 L103.929,50.194 C103.929,51.231 103.13,52.268 101.685,52.268 Z M111.256,61.295 L111.256,54.682 L110.083,54.682 L110.083,56.807 L102.773,56.807 L102.773,54.682 L101.6,54.682 L101.6,61.295 L111.256,61.295 Z M110.083,60.224 L102.773,60.224 L102.773,57.861 L110.083,57.861 L110.083,60.224 Z M129.038,61.312 L129.038,52.608 L131.622,52.608 L131.622,51.537 L129.038,51.537 L129.038,45.774 L127.831,45.774 L127.831,61.312 L129.038,61.312 Z M120.759,57.164 C122.663,57.164 124.703,57.045 126.505,56.722 L126.352,55.651 C124.448,55.974 122.799,56.076 121.065,56.076 L119.059,56.076 L119.059,48.273 L124.924,48.273 L124.924,47.185 L117.852,47.185 L117.852,57.164 L120.759,57.164 Z M138.745,52.353 C141.465,52.353 143.624,51.265 143.624,49.565 L143.624,48.919 C143.624,47.219 141.465,46.131 138.745,46.131 C136.025,46.131 133.866,47.219 133.866,48.919 L133.866,49.565 C133.866,51.265 136.025,52.353 138.745,52.353 Z M138.745,51.333 C136.79,51.333 135.022,50.568 135.022,49.48 L135.022,49.004 C135.022,47.916 136.79,47.151 138.745,47.151 C140.7,47.151 142.468,47.916 142.468,49.004 L142.468,49.48 C142.468,50.568 140.7,51.333 138.745,51.333 Z M139.527,58.014 L139.527,54.801 L145.885,54.801 L145.885,53.781 L131.605,53.781 L131.605,54.801 L138.337,54.801 L138.337,58.014 L139.527,58.014 Z M144.1,61.125 L144.1,60.071 L134.937,60.071 L134.937,56.535 L133.73,56.535 L133.73,61.125 L144.1,61.125 Z" id="앱다운" fill="#6E6E6E" fill-rule="nonzero"></path>
            <path d="M210.817,56.858 L210.817,45.774 L209.627,45.774 L209.627,56.858 L210.817,56.858 Z M199.019,54.988 C200.005,54.206 200.974,53.39 201.569,52.829 C202.317,52.115 202.844,51.588 202.895,51.299 L202.912,51.299 C202.997,51.571 203.456,52.03 204.238,52.693 C204.816,53.186 205.564,53.798 206.499,54.512 L207.213,53.679 C206.448,53.118 205.53,52.387 204.697,51.656 C203.558,50.636 203.456,50.228 203.456,48.97 L203.456,46.505 L202.232,46.505 L202.232,49.004 C202.232,50.296 202.113,50.721 201.042,51.792 C200.277,52.557 199.189,53.441 198.271,54.138 L199.019,54.988 Z M211.208,61.125 L211.208,60.071 L202.538,60.071 L202.538,55.94 L201.331,55.94 L201.331,61.125 L211.208,61.125 Z M213.843,55.056 C214.625,54.495 215.781,53.577 216.376,53.05 C217.09,52.421 217.634,51.86 217.702,51.605 L217.719,51.605 C217.787,51.826 218.45,52.404 219.249,53.05 C219.759,53.458 220.575,54.07 221.255,54.546 L221.952,53.696 C220.983,53.05 220.031,52.336 219.487,51.877 C218.382,50.925 218.263,50.466 218.263,49.497 L218.263,48.613 L221.663,48.613 L221.663,47.576 L218.263,47.576 L218.263,45.638 L217.056,45.638 L217.056,47.576 L213.469,47.576 L213.469,48.613 L217.056,48.613 L217.056,49.548 C217.056,50.432 216.869,51.027 216.036,51.843 C215.203,52.659 214.115,53.492 213.112,54.206 L213.843,55.056 Z M225.59,55.073 L225.59,45.774 L224.4,45.774 L224.4,50.262 L221.221,50.262 L221.221,51.316 L224.4,51.316 L224.4,55.073 L225.59,55.073 Z M220.966,61.72 C223.601,61.72 225.675,60.632 225.675,58.898 L225.675,58.252 C225.675,56.518 223.601,55.43 220.966,55.43 C218.331,55.43 216.257,56.484 216.257,58.235 L216.257,58.898 C216.257,60.632 218.331,61.72 220.966,61.72 Z M220.966,60.7 C219.062,60.7 217.413,59.986 217.413,58.83 L217.413,58.32 C217.413,57.164 219.062,56.45 220.966,56.45 C222.87,56.45 224.519,57.164 224.519,58.32 L224.519,58.83 C224.519,59.986 222.87,60.7 220.966,60.7 Z" id="신청" fill="#6E6E6E" fill-rule="nonzero"></path>
            <path d="M301.885,56.892 L301.885,45.774 L300.695,45.774 L300.695,56.892 L301.885,56.892 Z M293.589,54.308 C295.918,54.308 297.414,52.574 297.414,50.891 L297.414,49.871 C297.414,48.188 295.918,46.454 293.589,46.454 C291.26,46.454 289.764,48.188 289.764,49.871 L289.764,50.891 C289.764,52.574 291.26,54.308 293.589,54.308 Z M293.589,53.237 C292.008,53.237 290.92,52.064 290.92,50.789 L290.92,49.973 C290.92,48.698 292.008,47.525 293.589,47.525 C295.17,47.525 296.258,48.698 296.258,49.973 L296.258,50.789 C296.258,52.064 295.17,53.237 293.589,53.237 Z M302.276,61.125 L302.276,60.071 L293.589,60.071 L293.589,56.042 L292.382,56.042 L292.382,61.125 L302.276,61.125 Z M316.998,61.312 L316.998,45.774 L315.808,45.774 L315.808,61.312 L316.998,61.312 Z M313.938,60.547 L313.938,46.097 L312.748,46.097 L312.748,49.735 L310.045,49.735 L310.045,47.321 L304.197,47.321 L304.197,48.392 L308.872,48.392 L308.872,50.092 C308.872,53.084 308.481,53.866 303.908,56.96 L304.571,57.895 C309.059,54.852 309.926,53.713 310.028,50.789 L312.748,50.789 L312.748,53.781 L310.045,53.781 L310.045,54.835 L312.748,54.835 L312.748,60.547 L313.938,60.547 Z" id="인계" fill="#6E6E6E" fill-rule="nonzero"></path>
            <path d="M393.256,53.611 L393.256,50.194 L395.636,50.194 L395.636,49.14 L393.256,49.14 L393.256,45.774 L392.066,45.774 L392.066,53.611 L393.256,53.611 Z M390.655,52.387 L390.519,51.316 C387.935,51.656 386.49,51.724 383.192,51.724 L383.192,46.624 L381.985,46.624 L381.985,52.812 L382.843322,52.8110915 C386.80488,52.8020229 388.14229,52.7209677 390.655,52.387 Z M393.256,61.278 L393.256,54.529 L392.083,54.529 L392.083,56.722 L385.096,56.722 L385.096,54.529 L383.923,54.529 L383.923,61.278 L393.256,61.278 Z M392.083,60.207 L385.096,60.207 L385.096,57.776 L392.083,57.776 L392.083,60.207 Z M407.842,53.033 L407.842,46.369 L406.669,46.369 L406.669,48.698 L398.951,48.698 L398.951,46.369 L397.778,46.369 L397.778,53.033 L407.842,53.033 Z M406.669,52.03 L398.951,52.03 L398.951,49.735 L406.669,49.735 L406.669,52.03 Z M403.422,61.312 L403.422,56.144 L409.95,56.144 L409.95,55.107 L395.67,55.107 L395.67,56.144 L402.215,56.144 L402.215,61.312 L403.422,61.312 Z" id="납부" fill="#6E6E6E" fill-rule="nonzero"></path>
            <path d="M472.563,53.033 C473.94,52.489 475.266,51.877 476.184,51.418 C477.306,50.857 477.969,50.364 478.173,49.973 L478.19,49.973 C478.377,50.364 479.057,50.84 480.179,51.401 C481.097,51.86 482.389,52.455 483.766,52.999 L484.276,52.064 C483.018,51.588 481.641,50.976 480.553,50.415 C479.244,49.752 478.785,49.191 478.785,47.678 L478.785,46.318 L477.578,46.318 L477.578,47.678 C477.578,49.191 477.102,49.752 475.793,50.415 C474.705,50.976 473.294,51.605 472.036,52.081 L472.563,53.033 Z M478.802,61.312 L478.802,55.736 L485.33,55.736 L485.33,54.699 L471.05,54.699 L471.05,55.736 L477.595,55.736 L477.595,61.312 L478.802,61.312 Z M498.607,55.209 L498.607,45.774 L497.434,45.774 L497.434,47.95 L494.187,47.95 L494.187,48.987 L497.434,48.987 L497.434,50.721 L494.187,50.721 L494.187,51.758 L497.434,51.758 L497.434,55.209 L498.607,55.209 Z M495.105,54.104 L494.986,53.067 C492.912,53.305 490.77,53.339 487.846,53.339 L487.846,50.976 L492.997,50.976 L492.997,46.556 L486.673,46.556 L486.673,47.61 L491.824,47.61 L491.824,49.956 L486.673,49.956 L486.673,54.393 L487.531359,54.3922277 C491.255622,54.3850761 493.158207,54.3255862 495.105,54.104 Z M493.966,61.737 C496.72,61.737 498.692,60.683 498.692,58.983 L498.692,58.371 C498.692,56.688 496.72,55.617 493.966,55.617 C491.212,55.617 489.24,56.671 489.24,58.354 L489.24,58.983 C489.24,60.683 491.212,61.737 493.966,61.737 Z M493.966,60.717 C491.909,60.717 490.396,59.952 490.396,58.932 L490.396,58.422 C490.396,57.419 491.909,56.637 493.966,56.637 C496.023,56.637 497.536,57.402 497.536,58.422 L497.536,58.932 C497.536,59.952 496.023,60.717 493.966,60.717 Z" id="수령" fill="#E51937" fill-rule="nonzero"></path>
            <path d="M575.885,53.713 L575.885,45.774 L574.695,45.774 L574.695,53.713 L575.885,53.713 Z M567.572,53.356 C569.833,53.356 571.363,51.826 571.363,50.262 L571.363,49.446 C571.363,47.882 569.833,46.352 567.572,46.352 C565.311,46.352 563.781,47.882 563.781,49.446 L563.781,50.262 C563.781,51.826 565.311,53.356 567.572,53.356 Z M567.572,52.285 C566.059,52.285 564.937,51.265 564.937,50.143 L564.937,49.565 C564.937,48.443 566.059,47.423 567.572,47.423 C569.085,47.423 570.207,48.443 570.207,49.565 L570.207,50.143 C570.207,51.265 569.085,52.285 567.572,52.285 Z M575.885,61.295 L575.885,54.631 L574.712,54.631 L574.712,56.773 L567.572,56.773 L567.572,54.631 L566.399,54.631 L566.399,61.295 L575.885,61.295 Z M574.712,60.224 L567.572,60.224 L567.572,57.827 L574.712,57.827 L574.712,60.224 Z M591.95,53.322 L591.95,52.285 L589.366,52.285 C589.621,51.061 589.757,49.82 589.757,48.681 L589.757,46.488 L579.54,46.488 L579.54,47.542 L588.567,47.542 L588.567,48.613 C588.567,49.752 588.448,50.976 588.142,52.285 L577.67,52.285 L577.67,53.322 L591.95,53.322 Z M589.859,61.278 L589.859,55.498 L579.761,55.498 L579.761,61.278 L589.859,61.278 Z M588.703,60.207 L580.917,60.207 L580.917,56.569 L588.703,56.569 L588.703,60.207 Z" id="입금" fill="#6E6E6E" fill-rule="nonzero"></path>
        </g>
    </g>
</svg>