<?xml version="1.0" encoding="UTF-8"?>
<svg width="590px" height="517px" viewBox="0 0 590 517" version="1.1" xmlns="http://www.w3.org/2000/svg" xmlns:xlink="http://www.w3.org/1999/xlink">
    <title>img-01-2</title>
    <defs>
        <polygon id="path-1" points="0 0.0687380789 80.4163672 0.0687380789 80.4163672 50.9354332 0 50.9354332"></polygon>
    </defs>
    <g id="img-01-2" stroke="none" stroke-width="1" fill="none" fill-rule="evenodd">
        <rect id="Rectangle-Copy" fill="#FFFFFF" x="0" y="0" width="590" height="517"></rect>
        <g id="Group-184" transform="translate(124.000000, 117.000000)">
            <g id="Group-73" transform="translate(194.000000, 0.000000)">
                <path d="M130.077808,299.651587 L19.2613018,299.651587 C8.99107289,299.651587 0.664127108,291.31985 0.664127108,281.041707 L0.664127108,19.1884132 C0.664127108,8.91116766 8.99107289,0.578532934 19.2613018,0.578532934 L130.077808,0.578532934 C140.348037,0.578532934 148.674983,8.91116766 148.674983,19.1884132 L148.674983,281.041707 C148.674983,291.31985 140.348037,299.651587 130.077808,299.651587" id="Fill-1" fill="#FFFFFF"></path>
                <path d="M130.077808,299.651587 L19.2613018,299.651587 C8.99107289,299.651587 0.664127108,291.31985 0.664127108,281.041707 L0.664127108,19.1884132 C0.664127108,8.91116766 8.99107289,0.578532934 19.2613018,0.578532934 L130.077808,0.578532934 C140.348037,0.578532934 148.674983,8.91116766 148.674983,19.1884132 L148.674983,281.041707 C148.674983,291.31985 140.348037,299.651587 130.077808,299.651587 Z" id="Stroke-3" stroke="#C7CBD2" stroke-width="1.332"></path>
                <path d="M66.9370831,89.0180838 C66.9370831,87.4579042 66.2378602,86.5983234 65.2199928,86.5983234 C64.2021253,86.5983234 63.5029024,87.4579042 63.5029024,89.0180838 C63.5029024,90.5782635 64.2021253,91.4378443 65.2199928,91.4378443 C66.2378602,91.4378443 66.9370831,90.5782635 66.9370831,89.0180838 M62.8934386,89.0180838 C62.8934386,87.157006 63.8691193,86.0477246 65.2199928,86.0477246 C66.5708663,86.0477246 67.5537277,87.157006 67.5537277,89.0180838 C67.5537277,90.8782635 66.5708663,91.9884431 65.2199928,91.9884431 C63.8691193,91.9884431 62.8934386,90.8782635 62.8934386,89.0180838" id="Fill-5" fill="#263238"></path>
                <polygon id="Fill-7" fill="#263238" points="73.3718187 90.4031138 72.2040536 90.4031138 72.2040536 91.9381437 71.6035657 91.9381437 71.6035657 90.4031138 68.3103066 90.4031138 68.3103066 89.9692814 71.4043006 86.098024 72.0712102 86.098024 69.0867223 89.8686826 71.6215175 89.8686826 71.6215175 88.5177844 72.2040536 88.5177844 72.2040536 89.8686826 73.3718187 89.8686826"></polygon>
                <path d="M73.9775127,91.5214671 C73.9775127,91.2627844 74.2015127,91.0705689 74.4695127,91.0705689 C74.7395127,91.0705689 74.9715127,91.2627844 74.9715127,91.5214671 C74.9715127,91.7801497 74.7395127,91.9804491 74.4695127,91.9804491 C74.2015127,91.9804491 73.9775127,91.7801497 73.9775127,91.5214671 M73.9775127,87.9663772 C73.9775127,87.7076946 74.2015127,87.5163772 74.4695127,87.5163772 C74.7395127,87.5163772 74.9715127,87.7076946 74.9715127,87.9663772 C74.9715127,88.2250599 74.7395127,88.4253593 74.4695127,88.4253593 C74.2015127,88.4253593 73.9775127,88.2250599 73.9775127,87.9663772" id="Fill-9" fill="#263238"></path>
                <path d="M79.6970482,90.2193413 C79.6970482,91.2118563 79.005006,91.9888024 77.5796325,91.9888024 C76.7376928,91.9888024 75.9370422,91.695988 75.4864518,91.2379042 L75.7781687,90.7618563 C76.1533614,91.1543713 76.8202711,91.4373054 77.5715542,91.4373054 C78.5633916,91.4373054 79.0884819,90.9531737 79.0884819,90.244491 C79.0884819,89.4935928 78.6217349,89.0265269 77.1371205,89.0265269 L75.8948554,89.0265269 L76.1955482,86.097485 L79.3882771,86.097485 L79.3882771,86.6319162 L76.7206386,86.6319162 L76.5204759,88.4920958 L77.271759,88.4920958 C79.0301386,88.4920958 79.6970482,89.185509 79.6970482,90.2193413" id="Fill-11" fill="#263238"></path>
                <path d="M84.247203,90.210988 C84.247203,89.4439222 83.6808235,88.9517066 82.7796428,88.9517066 C81.8883355,88.9517066 81.2788717,89.5023054 81.2788717,90.2280539 C81.2788717,90.8702695 81.812938,91.4792515 82.8218295,91.4792515 C83.6646669,91.4792515 84.247203,90.9870359 84.247203,90.210988 M84.8396127,90.1939222 C84.8396127,91.2870359 83.9806187,91.9885329 82.8460645,91.9885329 C81.2959259,91.9885329 80.4530886,90.912485 80.4530886,89.0684731 C80.4530886,87.0825449 81.5373777,86.0478144 83.1216247,86.0478144 C83.6467151,86.0478144 84.1394922,86.1394311 84.505709,86.3648802 L84.2642572,86.849012 C83.964462,86.6487126 83.5641367,86.5732635 83.1306006,86.5732635 C81.8721789,86.5732635 81.0625524,87.3825449 81.0625524,88.9678743 C81.0625524,89.1017066 81.0715283,89.2687725 81.0867873,89.4439222 C81.3794018,88.8008084 82.0633657,88.4424251 82.8720946,88.4424251 C84.0308837,88.4424251 84.8396127,89.1259581 84.8396127,90.1939222" id="Fill-13" fill="#263238"></path>
                <path d="M59.8176657,259.10524 C52.1064669,251.389671 52.1064669,238.880389 59.8176657,231.16482 C67.5279669,223.449251 80.0287078,223.449251 87.7381114,231.16482 C95.4484127,238.880389 95.4484127,251.389671 87.7381114,259.10524 C80.0287078,266.820808 67.5279669,266.820808 59.8176657,259.10524" id="Fill-15" fill="#FF0000"></path>
                <path d="M65.130503,248.381677 L68.65175,247.552635 C69.0861837,247.45024 69.3931596,247.062216 69.3931596,246.615808 L69.3931596,245.889162 C69.3931596,245.889162 69.2414669,244.655928 70.404744,244.579581 C71.2386054,244.523892 76.5352861,244.579581 76.5352861,244.579581 C76.5352861,244.579581 77.9283464,244.552635 77.9032139,245.651138 L77.9032139,246.706527 C77.9032139,247.070299 78.1419729,247.39006 78.4893404,247.496048 L82.3085873,248.651138 C82.7134006,248.774192 83.1451416,248.568503 83.3076054,248.176886 L83.794997,246.999341 C83.884756,246.782874 83.928738,246.552036 83.9170693,246.318503 C83.8928343,245.856826 83.7151114,245.135569 83.2600331,244.552635 C82.5024669,243.581677 78.9345452,241.285868 72.1272199,241.615509 C65.6448223,241.92988 64.2320151,244.66491 63.8604127,245.317904 C63.6288343,245.72479 63.5597199,246.718204 63.739238,247.140359 C63.8056596,247.295749 63.9151657,247.557126 64.0219789,247.814012 C64.2032922,248.249641 64.6718343,248.490359 65.130503,248.381677" id="Fill-17" fill="#FFFFFF"></path>
                <path d="M52.2127416,139.913443 C52.2127416,147.987395 45.6720006,154.532605 37.6035608,154.532605 C29.5342235,154.532605 22.9934825,147.987395 22.9934825,139.913443 C22.9934825,131.839491 29.5342235,125.294281 37.6035608,125.294281 C45.6720006,125.294281 52.2127416,131.839491 52.2127416,139.913443" id="Fill-19" fill="#000000"></path>
                <path d="M37.6032018,132.735269 C36.4551837,132.735269 35.5207922,133.670299 35.5207922,134.819102 L35.5207922,140.563114 C35.5207922,141.711018 36.4551837,142.646048 37.6032018,142.646048 C38.7503223,142.646048 39.6847139,141.711018 39.6847139,140.563114 L39.6847139,134.819102 C39.6847139,133.670299 38.7503223,132.735269 37.6032018,132.735269 M37.6032018,143.197545 C36.1509006,143.197545 34.9687741,142.016407 34.9687741,140.563114 L34.9687741,134.819102 C34.9687741,133.366707 36.1509006,132.183772 37.6032018,132.183772 C39.055503,132.183772 40.2367319,133.366707 40.2367319,134.819102 L40.2367319,140.563114 C40.2367319,142.016407 39.055503,143.197545 37.6032018,143.197545" id="Fill-21" fill="#FFFFFF"></path>
                <path d="M37.6032018,145.046138 C36.0279307,145.046138 34.7838705,144.553024 33.9060271,143.582964 C32.2284307,141.727275 32.4986054,138.813503 32.5102741,138.690449 C32.5255331,138.539551 32.6646596,138.422784 32.8118645,138.441647 C32.9644548,138.457814 33.0748584,138.593443 33.0595994,138.744341 C33.0569066,138.772186 32.8028886,141.543144 34.3171235,143.213802 C35.0854608,144.063503 36.1921898,144.493743 37.6032018,144.493743 C38.9998524,144.493743 40.1209428,144.063503 40.9350572,143.214701 C42.5480271,141.534162 42.4537801,138.756018 42.4528825,138.728174 C42.4465994,138.575479 42.5650813,138.447934 42.7176717,138.440749 C42.8801355,138.459611 42.9986175,138.553922 43.0049006,138.706617 C43.008491,138.829671 43.1072259,141.748832 41.3317922,143.598234 C40.4099669,144.559311 39.1560331,145.046138 37.6032018,145.046138" id="Fill-23" fill="#FFFFFF"></path>
                <path d="M37.6032018,149.086707 C37.451509,149.086707 37.3276416,148.962754 37.3276416,148.810958 L37.3276416,144.76994 C37.3276416,144.618144 37.451509,144.494192 37.6032018,144.494192 C37.7557922,144.494192 37.8796596,144.618144 37.8796596,144.76994 L37.8796596,148.810958 C37.8796596,148.962754 37.7557922,149.086707 37.6032018,149.086707" id="Fill-25" fill="#FFFFFF"></path>
                <path d="M90.5689319,139.913443 C90.5689319,147.987395 84.028191,154.532605 75.9606488,154.532605 C67.8913114,154.532605 61.3505705,147.987395 61.3505705,139.913443 C61.3505705,131.839491 67.8913114,125.294281 75.9606488,125.294281 C84.028191,125.294281 90.5689319,131.839491 90.5689319,139.913443" id="Fill-27" fill="#000000"></path>
                <path d="M73.6672157,139.933653 C73.6672157,140.872275 72.9051614,141.63485 71.9662819,141.63485 C71.0283,141.63485 70.2671434,140.872275 70.2671434,139.933653 C70.2671434,138.994132 71.0283,138.232455 71.9662819,138.232455 C72.9051614,138.232455 73.6672157,138.994132 73.6672157,139.933653" id="Fill-29" fill="#FFFFFF"></path>
                <path d="M77.6598771,139.933653 C77.6598771,140.872275 76.8987205,141.63485 75.959841,141.63485 C75.021859,141.63485 74.2598048,140.872275 74.2598048,139.933653 C74.2598048,138.994132 75.021859,138.232455 75.959841,138.232455 C76.8987205,138.232455 77.6598771,138.994132 77.6598771,139.933653" id="Fill-31" fill="#FFFFFF"></path>
                <path d="M81.6526283,139.933653 C81.6526283,140.872275 80.8914717,141.63485 79.9525922,141.63485 C79.0146102,141.63485 78.2534536,140.872275 78.2534536,139.933653 C78.2534536,138.994132 79.0146102,138.232455 79.9525922,138.232455 C80.8914717,138.232455 81.6526283,138.994132 81.6526283,139.933653" id="Fill-33" fill="#FFFFFF"></path>
                <path d="M73.6672157,135.87503 C73.6672157,136.814551 72.9051614,137.576228 71.9662819,137.576228 C71.0283,137.576228 70.2671434,136.814551 70.2671434,135.87503 C70.2671434,134.935509 71.0283,134.173832 71.9662819,134.173832 C72.9051614,134.173832 73.6672157,134.935509 73.6672157,135.87503" id="Fill-35" fill="#FFFFFF"></path>
                <path d="M77.6598771,135.87503 C77.6598771,136.814551 76.8987205,137.576228 75.959841,137.576228 C75.021859,137.576228 74.2598048,136.814551 74.2598048,135.87503 C74.2598048,134.935509 75.021859,134.173832 75.959841,134.173832 C76.8987205,134.173832 77.6598771,134.935509 77.6598771,135.87503" id="Fill-37" fill="#FFFFFF"></path>
                <path d="M81.6526283,135.87503 C81.6526283,136.814551 80.8914717,137.576228 79.9525922,137.576228 C79.0146102,137.576228 78.2534536,136.814551 78.2534536,135.87503 C78.2534536,134.935509 79.0146102,134.173832 79.9525922,134.173832 C80.8914717,134.173832 81.6526283,134.935509 81.6526283,135.87503" id="Fill-39" fill="#FFFFFF"></path>
                <path d="M73.6672157,143.951856 C73.6672157,144.891377 72.9051614,145.653054 71.9662819,145.653054 C71.0283,145.653054 70.2671434,144.891377 70.2671434,143.951856 C70.2671434,143.012335 71.0283,142.250659 71.9662819,142.250659 C72.9051614,142.250659 73.6672157,143.012335 73.6672157,143.951856" id="Fill-41" fill="#FFFFFF"></path>
                <path d="M77.6598771,143.951856 C77.6598771,144.891377 76.8987205,145.653054 75.959841,145.653054 C75.021859,145.653054 74.2598048,144.891377 74.2598048,143.951856 C74.2598048,143.012335 75.021859,142.250659 75.959841,142.250659 C76.8987205,142.250659 77.6598771,143.012335 77.6598771,143.951856" id="Fill-43" fill="#FFFFFF"></path>
                <path d="M81.6526283,143.951856 C81.6526283,144.891377 80.8914717,145.653054 79.9525922,145.653054 C79.0146102,145.653054 78.2534536,144.891377 78.2534536,143.951856 C78.2534536,143.012335 79.0146102,142.250659 79.9525922,142.250659 C80.8914717,142.250659 81.6526283,143.012335 81.6526283,143.951856" id="Fill-45" fill="#FFFFFF"></path>
                <path d="M128.92602,139.913443 C128.92602,147.987395 122.385279,154.532605 114.317737,154.532605 C106.248399,154.532605 99.7076584,147.987395 99.7076584,139.913443 C99.7076584,131.839491 106.248399,125.294281 114.317737,125.294281 C122.385279,125.294281 128.92602,131.839491 128.92602,139.913443" id="Fill-47" fill="#000000"></path>
                <path d="M107.458351,138.003054 L107.458351,141.465629 C107.458351,141.612934 107.577731,141.732395 107.724038,141.732395 L109.633213,141.732395 C109.691556,141.732395 109.749899,141.752156 109.796574,141.788982 L112.772984,144.116228 C112.947116,144.252754 113.202032,144.128802 113.202032,143.906946 L113.202032,135.817725 C113.202032,135.601257 112.95699,135.475509 112.78196,135.602156 L109.898899,137.67521 C109.85402,137.707545 109.800164,137.724611 109.745411,137.725509 L107.72314,137.737186 C107.576833,137.738084 107.458351,137.856647 107.458351,138.003054" id="Fill-49" fill="#FFFFFF"></path>
                <path d="M118.735228,145.759222 C118.65624,145.759222 118.575457,145.731377 118.512625,145.673892 C118.374396,145.550838 118.362728,145.337964 118.486595,145.200539 C120.14983,143.343054 120.938812,141.423593 120.831101,139.494251 C120.668637,136.606527 118.53327,134.671796 118.513523,134.652934 C118.374396,134.52988 118.36183,134.317904 118.485698,134.179581 C118.60777,134.042156 118.819601,134.028683 118.95783,134.152635 C119.053872,134.238862 121.322083,136.293952 121.499806,139.456527 C121.618288,141.57 120.772758,143.652934 118.984758,145.647844 C118.918336,145.721497 118.82768,145.759222 118.735228,145.759222" id="Fill-51" fill="#FFFFFF"></path>
                <path d="M116.890949,144.124671 C116.802087,144.124671 116.712328,144.088743 116.647702,144.018683 C116.521142,143.883952 116.528322,143.671976 116.662063,143.545329 C117.843292,142.437844 118.442883,141.232455 118.442883,139.959701 C118.445575,137.777066 116.680913,136.087545 116.662063,136.070479 C116.528322,135.943832 116.521142,135.731856 116.647702,135.597126 C116.77516,135.462395 116.986991,135.456108 117.120732,135.581856 C117.202413,135.658204 119.113383,137.478862 119.113383,139.95521 C119.113383,141.421976 118.442883,142.794431 117.120732,144.033952 C117.055208,144.094132 116.973527,144.124671 116.890949,144.124671" id="Fill-53" fill="#FFFFFF"></path>
                <path d="M115.257873,142.437036 C115.171704,142.437036 115.085536,142.403802 115.020011,142.338234 C114.889861,142.206198 114.890758,141.994222 115.022704,141.863982 C117.079084,139.824162 115.091819,137.516677 115.007445,137.419671 C114.885373,137.281347 114.897939,137.069371 115.037066,136.947216 C115.175295,136.824162 115.386228,136.837635 115.508301,136.97506 C115.534331,137.003802 118.004499,139.852006 115.493939,142.34003 C115.427517,142.404701 115.344042,142.437036 115.257873,142.437036" id="Fill-55" fill="#FFFFFF"></path>
                <path d="M51.936553,186.631437 C51.936553,194.705389 45.395812,201.250599 37.3282699,201.250599 C29.2589325,201.250599 22.7181916,194.705389 22.7181916,186.631437 C22.7181916,178.557485 29.2589325,172.012275 37.3282699,172.012275 C45.395812,172.012275 51.936553,178.557485 51.936553,186.631437" id="Fill-57" fill="#000000"></path>
                <path d="M37.416503,191.688234 C37.1705633,191.688234 36.9704006,191.488832 36.9704006,191.241826 L36.9704006,182.021766 C36.9704006,181.77476 37.1705633,181.574461 37.416503,181.574461 C37.6633404,181.574461 37.863503,181.77476 37.863503,182.021766 L37.863503,191.241826 C37.863503,191.488832 37.6633404,191.688234 37.416503,191.688234" id="Fill-59" fill="#FFFFFF"></path>
                <path d="M41.7966542,187.077934 L32.859347,187.077934 C32.6134072,187.077934 32.4132446,186.877635 32.4132446,186.630629 C32.4132446,186.384521 32.6134072,186.184222 32.859347,186.184222 L41.7966542,186.184222 C42.042594,186.184222 42.2427566,186.384521 42.2427566,186.630629 C42.2427566,186.877635 42.042594,187.077934 41.7966542,187.077934" id="Fill-61" fill="#FFFFFF"></path>
                <path d="M127.784734,186.631437 C127.784734,194.705389 121.243993,201.250599 113.175553,201.250599 C105.107113,201.250599 98.5663723,194.705389 98.5663723,186.631437 C98.5663723,178.557485 105.107113,172.012275 113.175553,172.012275 C121.243993,172.012275 127.784734,178.557485 127.784734,186.631437" id="Fill-63" fill="#000000"></path>
                <path d="M114.177982,186.813054 C115.162639,186.39988 115.862759,185.384012 115.869042,184.186707 C115.875325,182.618443 114.688711,181.341198 113.219355,181.333989 C111.75,181.327725 110.553512,182.593293 110.547229,184.161557 C110.541843,185.370539 111.247349,186.398084 112.242777,186.813054 C108.14797,187.43012 108.333771,191.883413 108.333771,191.883413 L118.016078,191.928323 C118.016078,191.928323 118.236886,187.426527 114.177982,186.813054" id="Fill-65" fill="#ECECEC"></path>
                <path d="M89.8606434,186.631437 C89.8606434,194.705389 83.3199024,201.250599 75.2514627,201.250599 C67.1830229,201.250599 60.6422819,194.705389 60.6422819,186.631437 C60.6422819,178.557485 67.1830229,172.012275 75.2514627,172.012275 C83.3199024,172.012275 89.8606434,178.557485 89.8606434,186.631437" id="Fill-67" fill="#000000"></path>
                <path d="M75.2756976,189.950569 L72.3217277,189.950569 C71.3056554,189.950569 70.4816675,189.126018 70.4816675,188.109251 L70.4816675,185.153263 C70.4816675,184.136497 71.3056554,183.311946 72.3217277,183.311946 L75.2756976,183.311946 C76.2917699,183.311946 77.1157578,184.136497 77.1157578,185.153263 L77.1157578,188.109251 C77.1157578,189.126018 76.2917699,189.950569 75.2756976,189.950569" id="Fill-69" fill="#ECECEC"></path>
                <path d="M77.7186693,187.811228 L77.7186693,185.561228 L79.3962657,183.763024 C79.6197657,183.523204 80.0209886,183.681287 80.0209886,184.01003 L80.0209886,189.121707 C80.0209886,189.437874 79.6457958,189.601347 79.4151151,189.386677 L77.7186693,187.811228 Z" id="Fill-71" fill="#ECECEC"></path>
            </g>
            <path d="M260.510816,67 L260.510816,64.162774 L256.754869,64.162774 L256.754869,47.3826088 L250.350844,47.3826088 L250.350844,50.2198348 L253.566367,50.2198348 L253.566367,64.162774 L249.81042,64.162774 L249.81042,67 L260.510816,67 Z M273.724182,67 L273.724182,64.162774 L269.968236,64.162774 L269.968236,47.3826088 L263.564211,47.3826088 L263.564211,50.2198348 L266.779734,50.2198348 L266.779734,64.162774 L263.023787,64.162774 L263.023787,67 L273.724182,67 Z M287.802228,67 L287.802228,62.7576716 L290.504348,62.7576716 L290.504348,60.0015092 L287.802228,60.0015092 L287.802228,47.3826088 L284.965002,47.3826088 L274.832052,60.379806 L275.345454,62.7576716 L284.640747,62.7576716 L284.640747,67 L287.802228,67 Z M284.640747,60.0015092 L278.669062,60.0015092 L284.640747,52.0572764 L284.640747,60.0015092 Z" id="114" fill="#000000" fill-rule="nonzero"></path>
            <g id="Group-183" transform="translate(0.000000, 71.000000)">
                <path d="M135.36773,150.063093 C133.508854,148.793441 132.618966,145.103991 132.04818,143.202658 C130.142562,136.848107 128.912899,129.175383 124.957843,123.664571 C120.950652,118.080078 115.333573,114.210919 110.890427,109.064919 C109.260764,107.177064 107.089978,105.266745 106.164135,102.917035 C105.018966,100.017412 105.318292,97.1061072 105.318292,97.1061072 C105.318292,97.1061072 106.356494,95.2523971 107.061213,92.1461072 C107.640989,89.5861362 107.898067,85.8957884 108.005933,84.1328319 C108.195596,81.016658 108.260315,77.4269478 107.738067,74.878658 C107.449528,73.4724261 104.698067,72.9836145 103.80009,71.9628609 C100.30436,67.9858754 98.3951461,61.1029768 100.086831,56.1564551 C102.307056,49.6572377 107.569978,44.4519333 112.240539,39.5808899 C118.849079,32.6908029 126.812225,22.9199623 137.449528,23.2254696 C141.464809,23.3404841 145.401888,25.1384841 148.816719,27.0667739 C151.182562,28.4029188 154.254022,28.9663101 156.245933,30.9089768 C162.351101,36.864571 163.222112,44.5372957 163.222112,52.4229768 C163.222112,61.9566 161.902562,70.5233826 159.329978,79.7227449 C158.546157,82.5262232 156.691775,86.2381362 154.78436,88.4701362 C154.058966,89.3183681 150.874247,92.7607159 150.874247,92.7607159 C150.874247,92.7607159 150.032,102.493817 149.491775,107.417875 C148.960539,112.25747 151.09627,115.927151 151.405483,120.58973 C151.842337,127.204861 147.892674,136.199354 144.427506,141.775759 C142.881438,144.262948 140.922787,147.302745 138.687281,149.24002 C137.801888,150.007383 136.615371,150.91402 135.36773,150.063093" id="Fill-74" fill="#FFEDDE"></path>
                <path d="M237.583371,184.326899 C234.711461,173.822841 230.534382,168.203304 225.766742,160.447014 C223.369438,156.548203 219.977978,151.820928 217.999551,147.684 C215.983371,143.470696 214.816629,138.467565 212.504719,133.115797 C210.840899,129.262812 208.076854,124.915623 205.200449,122.876812 C203.561798,121.713188 199.612135,120.584609 199.612135,120.584609 C199.612135,120.584609 182.431011,114.980348 174.289888,113.536377 C169.893483,112.757333 160.750112,109.90713 160.750112,109.90713 C160.750112,109.90713 162.604494,121.249536 163.175281,126.258058 C163.389213,128.142319 162.631461,129.070522 162.631461,129.070522 C162.631461,129.070522 169.591461,157.533913 171.257978,171.75887 C172.948764,186.186899 172.658427,200.709275 173.531236,215.193913 C174.074157,224.192 174.857978,233.165826 174.857978,242.17829 C174.857978,242.657217 175.078202,245.867739 175.228315,248 L203.831461,248 C203.510562,244.920667 202.922697,239.157362 202.922697,238.051246 C202.922697,229.213101 203.852135,223.071507 203.852135,214.269304 C203.852135,212.837913 203.74427,202.756174 203.74427,202.756174 C203.74427,202.756174 210.088539,208.154667 212.149663,209.964348 C214.033708,211.616783 217.487191,214.167768 220.070562,215.105855 C224.612584,216.756493 229.241798,217.406145 232.82382,213.91258 C235.155506,211.639246 237.289438,208.452986 238.104719,204.229797 C239.370337,197.671275 238.787865,188.731594 237.583371,184.326899" id="Fill-76" fill="#FFFFFF"></path>
                <path d="M179.227506,131.027206 C179.227506,131.027206 178.840989,130.191554 176.606382,125.028481 C176.038292,123.7148 174.465258,121.632858 173.51964,120.690278 C170.919191,118.092568 168.05627,117.491438 165.623011,114.599901 C161.246382,109.396394 160.529079,106.577641 158.695371,100.231177 C158.324135,98.9435536 157.787506,95.5416406 157.08818,93.7139884 C156.285483,91.6113797 154.565034,88.4080464 154.565034,88.4080464 L156.765483,84.628742 C156.765483,84.628742 159.384809,85.620742 160.406831,86.6630609 C161.352449,87.6308 162.62436,89.3569159 163.21582,90.642742 C164.085034,92.5422783 164.645034,94.8219014 166.060764,96.2173507 C166.582112,96.7313217 167.841438,97.3028 169.036944,96.9685391 C170.232449,96.6351768 171.093573,95.6899014 171.494472,94.9180464 C171.937618,94.0671188 173.296719,89.7585681 173.562787,88.3523362 C173.828854,86.9452058 174.458067,83.4049159 174.458067,83.4049159 C174.458067,83.4049159 171.300315,79.6624522 170.282787,77.0000464 C169.459416,74.8399304 167.66436,70.4720754 167.66436,70.4720754 C167.66436,70.4720754 161.514247,67.6326551 160.61627,63.9432058 C160.08773,61.7723072 163.170876,63.0644232 163.46391,62.0391768 C163.600539,61.5557565 162.034697,60.5269159 161.788404,60.0857275 C161.212225,59.0640754 161.194247,57.2094667 162.179416,56.3414667 C162.90391,55.7034957 163.882787,55.7232638 164.622562,55.8634377 C165.035146,55.940713 166.211775,56.4214377 166.211775,56.4214377 C166.211775,56.4214377 165.709303,55.2811768 165.747056,54.0582493 C165.77582,53.1282493 166.176719,52.0320174 166.995596,52.0364964 C169.582562,52.0499884 173.292225,56.7080754 175.194247,58.0576986 C177.534022,59.7191188 179.851326,61.6626841 181.595146,63.6242203 C182.680989,64.8471478 182.47964,65.7825391 182.47964,65.7825391 C182.47964,65.7825391 184.502112,68.0082493 184.953348,70.0389739 C185.550202,72.7292348 186.433798,79.0280754 186.574921,81.7605681 C186.935371,88.8016116 186.903011,96.1894957 188.79964,103.041843 C189.951101,107.197641 191.958292,110.175438 194.193798,113.855003 C194.954247,115.107583 197.036045,118.850945 197.036045,118.850945 C197.036045,118.850945 197.988854,119.709061 198.023011,120.679496 C198.260315,127.547119 192.708854,130.586916 186.839191,132.461293 C184.976719,133.056133 182.289079,133.46767 180.396944,132.775786 C179.495371,132.446916 179.227506,131.027206 179.227506,131.027206" id="Fill-78" fill="#FFEDDE"></path>
                <path d="M100.985708,138.078313 C102.778067,147.98753 103.134921,160.547472 104.138067,170.335386 C105.557393,184.183849 106.870652,196.423009 107.274247,210.639878 C107.56818,220.953443 108.41582,230.086313 108.41582,240.409762 C108.41582,241.552719 108.706157,245.516226 108.897618,247.99982 L175.332674,247.99982 C175.280539,245.589009 175.203236,241.725241 175.203236,240.376516 C175.203236,231.647096 175.003685,222.748748 174.478742,214.037299 C173.218517,193.146893 172.165034,174.508255 168.983011,153.829907 C167.797393,146.114951 162.847281,129.188951 162.847281,129.188951 C162.847281,129.188951 164.379865,128.190661 164.238742,127.167212 C163.874697,124.517386 162.891326,120.942951 162.512,118.189791 C162.280989,116.511299 162.611775,114.248748 161.978966,112.602603 C160.771775,109.463965 158.290876,105.320748 156.432899,102.602632 C155.204135,100.806429 150.577618,96.1815884 150.577618,96.1815884 C150.577618,96.1815884 149.961888,100.651878 149.877393,101.127212 C149.427955,103.606313 148.33582,113.369067 148.33582,113.369067 C148.33582,113.369067 149.650876,117.05582 149.004584,121.465907 C148.125483,127.466429 144.240539,131.913357 141.574472,137.294777 C139.45582,141.57098 138.524584,146.804139 138.524584,146.804139 C138.524584,146.804139 134.767281,140.407357 134.481438,139.932023 C130.476045,133.271067 130.370876,125.474342 128.077843,118.015472 C126.972225,114.423067 124.139865,113.319646 121.045034,111.594429 C116.92818,109.301328 112.565933,106.309154 109.495371,103.042023 C108.069753,101.526168 105.402787,96.8707768 105.402787,96.8707768 L106.851775,92.9638783 C106.851775,92.9638783 105.125034,92.4076754 104.099416,93.2846609 C103.735371,93.596458 101.978966,96.3621971 101.589753,96.7899072 C99.5627865,99.0174145 99.2652584,98.4540232 97.770427,100.3284 C97.5070562,100.659067 97.4621124,101.76698 97.4621124,101.76698 L94.512,103.708748 C94.512,103.708748 96.7618876,111.862197 97.1816629,114.04298 C98.7070562,121.983472 99.5439101,130.103675 100.985708,138.078313" id="Fill-80" fill="#FFFFFF"></path>
                <path d="M99.6970787,61.4013855 C99.6970787,61.4013855 98.1195506,58.4927768 97.1244944,55.3262841 C95.2853933,49.4776174 93.5829213,41.0626899 94.4269663,36.5339942 C95.774382,29.3105449 96.9474157,22.9488058 102.477303,17.5566029 C107.052584,13.0935014 114.555506,12.7646319 119.317753,10.8695884 C121.804045,9.87938551 128.710112,6.85306667 135.933483,6.73355942 C142.540225,6.62303768 149.342022,9.17941449 154.720899,13.1132696 C156.931236,14.7306609 157.597303,17.4469797 159.418427,19.2234145 C162.734382,22.4572986 168.562697,24.8366609 170.97618,29.5585449 C172.070112,31.6970957 172.413483,34.7557623 171.288989,37.4972406 C170.614831,39.142487 169.159551,41.5173565 167.46427,43.616371 C165.767191,45.714487 163.336629,46.6292116 163.336629,46.6292116 C163.336629,46.6292116 162.780225,44.4753855 162.551011,43.9173855 C161.386067,41.074371 160.503371,36.956313 158.244494,34.7530667 C155.492135,32.0681971 151.433708,33.0808638 148.040449,32.4860232 C142.018876,31.4293275 138.939326,27.3319362 134.48,31.6800232 C130.716404,35.3524 126.385618,41.3008058 123.194607,45.5204 C120.152809,49.5405159 117.642247,52.7717043 112.827865,55.1187188 C109.905618,56.5447188 105.405843,55.2427188 102.635506,56.7432986 C100.92764,57.6670087 99.6970787,61.4013855 99.6970787,61.4013855" id="Fill-82" fill="#4D4D4D"></path>
                <path d="M163.75173,68.2493304 C163.415551,67.8809246 163.397573,70.0688957 163.301393,70.6808087 C162.970607,72.7816203 162.748584,74.8716493 162.402517,76.9796493 C161.598022,81.8920261 161.402067,86.9239101 160.686562,91.8093304 C160.534652,92.8471565 160.558022,96.0037652 161.585438,96.672287 C161.739146,96.7720261 161.883865,95.5086638 161.91173,95.3972435 C162.12027,94.5876493 162.336899,93.8409536 162.484315,93.0044029 C162.911281,90.5899971 163.098247,88.1827797 163.38409,85.7504029 C163.829034,81.9477362 164.504989,78.2187507 164.936449,74.4286638 C165.101843,72.9775043 165.917124,71.3951565 165.917124,69.9628667 C165.917124,69.1406928 164.230831,68.7749826 163.75173,68.2493304" id="Fill-84" fill="#818C92"></path>
                <path d="M183.29609,149.690554 C183.29609,149.690554 182.341483,145.726148 181.954067,144.637104 C180.553618,140.692467 179.269124,136.612148 177.597213,132.807684 C177.239461,131.993597 176.991371,129.585481 177.685303,128.739945 C178.057438,128.286177 179.165753,131.094148 179.165753,131.094148 C179.165753,131.094148 181.708674,131.26038 184.411596,130.456177 C186.386427,129.868525 188.523955,128.441626 189.430921,127.650003 C191.558562,125.792699 193.942382,123.557104 195.856989,120.839887 C196.986876,119.235075 196.848449,117.78751 197.667326,118.106496 C198.810697,118.553075 202.536539,125.826843 202.536539,125.826843 L204.681258,128.546757 C204.681258,128.546757 203.904629,132.135568 201.981933,135.603974 C199.937888,139.291626 196.597663,142.963104 194.675865,144.500525 C189.870472,148.345423 183.29609,149.690554 183.29609,149.690554" id="Fill-86" fill="#FFFFFF"></path>
                <path d="M50.3334831,247.99982 C50.6903371,244.303183 51.4076404,237.046487 51.7501124,234.778545 C52.6004494,229.136545 56.9303371,212.989588 56.9303371,212.989588 C56.9303371,212.989588 58.4916854,219.613704 59.0382022,223.254632 C59.5838202,226.897357 60.3811236,235.080458 60.2678652,238.539878 C60.2238202,239.891299 60.4107865,244.948342 60.5339326,247.99982 L109.022921,247.99982 C108.994157,245.819936 108.928539,242.444081 108.793708,240.604748 C108.58427,237.740168 107.157753,204.530632 106.445843,196.088748 C105.079551,179.876197 104.448539,164.567588 102.089888,148.469154 C101.256629,142.776835 100.936629,136.338719 100.01618,130.666168 C99.1829213,125.526458 98.3226966,117.318197 96.5950562,110.579067 C96.1195506,108.723559 94.3155056,102.887472 94.3155056,102.887472 C94.3155056,102.887472 92.1195506,103.350226 90.9573034,103.74469 C88.1582022,104.698951 84.9465169,106.23098 83.0750562,107.226574 C78.5860674,109.614922 71.7348315,112.471414 66.8674157,114.054661 C55.0202247,117.906748 45.6386517,119.633762 35.8346067,127.829443 C29.8552809,132.828081 28.2705618,137.879733 26.0898876,144.812951 C20.7478652,161.800052 19.2979775,184.010429 16.8773034,202.894371 C15.3986517,214.436255 13.1820225,224.415559 12.0503371,236.544197 C11.8274157,238.936139 11.3734831,244.743472 11.1226966,247.99982 L50.3334831,247.99982 Z" id="Fill-88" fill="#FFFFFF"></path>
                <path d="M172.672899,104.240959 C172.467056,104.240959 172.272,104.116959 172.196494,103.915684 C170.469753,99.3474522 171.693124,94.1106986 172.772674,89.4912493 C173.525034,86.2681478 174.236045,83.2229594 173.882787,80.8103507 C173.399191,77.511771 172.065258,73.9750754 171.028854,73.2427565 C169.484584,72.1492203 167.930427,71.1715971 166.68009,70.3844667 C165.602337,69.7060609 164.751101,69.1705246 164.206382,68.7571913 C161.78391,66.9133652 159.521438,64.7253942 161.125034,62.4781188 C162.460764,60.6019449 166.306157,62.4349884 168.849079,63.6480319 C169.444135,63.9310754 169.957393,64.1754812 170.213573,64.2563507 L171.208629,64.5681478 C174.337618,65.5403797 176.809528,66.307742 178.332225,68.7167565 C179.137618,69.9918 179.78391,71.6613072 180.532674,73.5949884 C181.253573,75.4576841 182.069753,77.5692783 183.157393,79.5748435 C183.289528,79.8165536 183.193348,80.1175681 182.945258,80.2451623 C182.698067,80.3736551 182.388854,80.2820029 182.256719,80.0393942 C181.140315,77.9781188 180.310652,75.8359739 179.580764,73.9454232 C178.849978,72.0602638 178.219865,70.4311913 177.465708,69.2370174 C176.140764,67.1424957 173.943011,66.4595971 170.899416,65.5134232 L169.898966,65.2007275 C169.574472,65.0973942 169.057618,64.8520899 168.403236,64.5393942 C166.58391,63.6731913 162.79964,61.8698 161.96009,63.0451043 C161.059416,64.3084667 161.891775,65.7362638 164.832,67.9745536 C165.340764,68.3600319 166.217169,68.911742 167.232899,69.5506116 C168.493124,70.3431333 170.059865,71.329742 171.626607,72.4385536 C173.044135,73.4404377 174.42391,77.4911043 174.890427,80.6701768 C175.270652,83.2642928 174.538966,86.3966406 173.765034,89.7122928 C172.665708,94.4162058 171.530427,99.2800609 173.150202,103.572438 C173.24818,103.830322 173.112449,104.115162 172.849079,104.210409 C172.791551,104.231075 172.731326,104.240959 172.672899,104.240959" id="Fill-90" fill="#000000"></path>
                <path d="M179.145798,131.523925 C178.934562,131.523925 178.736809,131.394533 178.664899,131.187867 C175.212315,121.387374 172.138157,119.634301 169.667146,118.224475 C169.117933,117.910881 168.598382,117.614359 168.108494,117.248649 C165.276135,115.135258 162.806022,112.213171 161.151191,109.021519 C159.401978,105.643867 158.307146,100.507751 157.148494,95.0697217 C156.968719,94.2277797 156.409618,93.0947072 155.817258,91.895142 C155.307596,90.8645043 154.780854,89.7988232 154.432989,88.7924464 C154.342202,88.5327652 154.485124,88.2515188 154.75209,88.1634609 C155.025348,88.0736058 155.307596,88.2155768 155.397483,88.475258 C155.724674,89.423229 156.238831,90.4610551 156.733213,91.4638377 C157.354337,92.7200116 157.939506,93.9060986 158.145348,94.8675478 C159.290517,100.239983 160.370966,105.3132 162.060854,108.573142 C163.646472,111.634504 166.015011,114.436186 168.726921,116.459722 C169.166472,116.787693 169.659056,117.069838 170.181303,117.368157 C172.659506,118.780678 176.052764,120.716157 179.626697,130.866186 C179.718382,131.124968 179.57636,131.408012 179.311191,131.496968 C179.25636,131.514939 179.200629,131.523925 179.145798,131.523925" id="Fill-92" fill="#000000"></path>
                <path d="M183.394427,150.034968 C183.166112,150.034968 182.96027,149.885809 182.900944,149.661171 C182.03173,146.347316 180.678921,141.964186 179.756674,139.463519 C179.20836,137.976417 178.696899,136.695084 178.254652,135.587171 C176.628584,131.509548 175.811506,129.462649 177.74409,128.096852 C177.970607,127.93691 178.289708,127.983635 178.455101,128.206475 C178.619596,128.428417 178.569258,128.738417 178.342742,128.900157 C177.10409,129.775345 177.564315,131.11778 179.203865,135.227751 C179.648809,136.341954 180.162966,137.631374 180.715775,139.128359 C181.647011,141.652388 183.011506,146.075954 183.887011,149.415867 C183.957124,149.680939 183.792629,149.951403 183.52027,150.019693 C183.478022,150.030475 183.435775,150.034968 183.394427,150.034968" id="Fill-94" fill="#000000"></path>
                <path d="M226.02436,216.974391 C220.552899,216.974391 213.693573,212.792536 204.395596,203.901377 C195.148854,195.058739 191.627955,183.06129 188.80009,173.419841 C187.949753,170.522014 187.146157,167.78413 186.294022,165.587174 C184.583461,161.173493 183.211775,158.352942 182.002787,155.863058 C180.703011,153.18987 179.676494,151.077377 178.76773,148.063638 C178.688629,147.801261 178.842337,147.525406 179.112899,147.44813 C179.378966,147.369957 179.665708,147.520014 179.744809,147.784188 C180.631101,150.722449 181.642337,152.803493 182.923236,155.438942 C184.140315,157.944101 185.520989,160.78442 187.246831,165.235841 C188.113348,167.471435 188.922337,170.229087 189.778966,173.14758 C192.574472,182.675812 196.053124,194.533087 205.107506,203.191522 C215.897618,213.50958 223.476045,217.420971 228.955596,215.490884 C237.373573,212.530159 242.323685,198.265667 234.916944,177.664594 C233.412225,173.480043 229.890427,167.942275 225.814921,161.530217 C223.440989,157.796739 220.751551,153.567261 218.201438,149.175145 C216.617618,146.448942 215.076944,143.609522 213.588404,140.863551 C209.204584,132.778391 205.062562,125.142507 202.186157,124.993348 C201.904809,124.978971 201.689978,124.745348 201.70436,124.472188 C201.71964,124.19813 201.962337,123.971696 202.24009,124.002246 C205.692674,124.181058 209.574022,131.338913 214.48818,140.399899 C215.974022,143.13958 217.510202,145.971812 219.085933,148.686333 C221.627056,153.060478 224.311101,157.28187 226.67964,161.006362 C230.787506,167.468739 234.33627,173.049638 235.876944,177.336623 C243.583011,198.767957 238.402787,213.222942 229.301663,216.425377 C228.262562,216.790188 227.174022,216.974391 226.02436,216.974391" id="Fill-96" fill="#000000"></path>
                <path d="M204.432,129.116078 C204.272899,129.116078 204.115596,129.043296 204.017618,128.906716 C201.792,125.851643 200.515596,123.471383 199.581663,121.733586 C198.402337,119.534832 197.751551,118.324484 196.360989,117.83747 C196.096719,117.744919 195.959191,117.460977 196.053573,117.203093 C196.148854,116.945209 196.439191,116.812223 196.70436,116.902977 C198.469753,117.52118 199.228404,118.932803 200.483236,121.272629 C201.403685,122.985267 202.662112,125.331383 204.846382,128.332542 C205.009978,128.555383 204.956045,128.866281 204.725933,129.023528 C204.636944,129.085528 204.534472,129.116078 204.432,129.116078" id="Fill-98" fill="#000000"></path>
                <path d="M196.868764,118.961736 C196.697978,118.961736 196.530787,118.877272 196.435506,118.725417 C192.865169,113.055562 190.091236,108.216867 188.159551,103.030432 C187.281348,100.672635 186.880449,94.6083159 186.524494,89.2574464 C186.37618,87.0254464 186.237753,84.9165478 186.077753,83.3342 C186.004944,82.6063739 185.933034,81.8093594 185.858427,80.970113 C185.400899,75.8456783 184.77618,68.8262 182.626067,66.664287 C180.382472,64.4044319 177.20764,62.9676493 173.846742,61.4455043 L172.418427,60.7958522 C170.587416,59.9530116 169,58.9664029 167.599551,58.0957072 C166.134382,57.1845768 164.867865,56.3983449 164.066966,56.2851275 C162.888539,56.1188957 162.658427,56.6966638 162.581124,56.8844609 C162.081348,58.1127797 163.175281,60.6871275 165.333483,62.166142 C165.564494,62.3233884 165.618427,62.6333884 165.458427,62.8580261 C165.29573,63.0826638 164.977528,63.1365768 164.749213,62.9784319 C162.356404,61.3394754 160.901124,58.3203449 161.635506,56.5178522 C162.021124,55.5689826 162.96764,55.1250986 164.212584,55.302113 C165.23191,55.4458812 166.517303,56.2455913 168.146966,57.258258 C169.521348,58.1127797 171.080899,59.0814174 172.852584,59.8982 L174.274607,60.5451565 C177.723596,62.1059391 180.982921,63.5813594 183.358652,65.9733014 C185.758652,68.3895043 186.37618,75.3173304 186.873258,80.8847507 C186.947865,81.7204029 187.017978,82.5129246 187.091685,83.2371565 C187.251685,84.8356783 187.392809,86.9526638 187.541124,89.1936493 C187.873708,94.2165478 188.288989,100.466867 189.115955,102.691678 C191.018876,107.799041 193.764944,112.586519 197.302022,118.205157 C197.449438,118.43878 197.374831,118.744287 197.13573,118.888055 C197.052135,118.938374 196.960449,118.961736 196.868764,118.961736" id="Fill-100" fill="#000000"></path>
                <path d="M160.722337,87.6147159 C160.598292,87.6147159 160.475146,87.5715855 160.37627,87.482629 C159.18436,86.4070638 158.006831,85.6756435 157.058517,85.4240493 C156.787056,85.3512667 156.627955,85.0781072 156.701663,84.8139333 C156.775371,84.5497594 157.054921,84.3943101 157.327281,84.4652957 C158.429303,84.7591217 159.757843,85.5714116 161.068404,86.7539043 C161.274247,86.9408029 161.286831,87.2543971 161.09627,87.4547739 C160.996494,87.5608029 160.858966,87.6147159 160.722337,87.6147159" id="Fill-102" fill="#000000"></path>
                <path d="M168.39973,97.6246609 C168.269393,97.6246609 168.137258,97.6174725 168.002427,97.6021971 C165.454112,97.3218493 164.568719,94.9901101 163.712989,92.7347478 C163.374112,91.8406899 163.023551,90.9169797 162.571416,90.0957043 C162.437483,89.8539942 162.530966,89.5529797 162.778157,89.4226899 C163.025348,89.2941971 163.335461,89.3831536 163.467596,89.6248638 C163.953888,90.5072406 164.317034,91.4650957 164.669393,92.3897043 C165.484674,94.5435304 166.191191,96.404429 168.115685,96.6146899 C171.165573,96.9408638 172.335011,91.4507188 173.504449,86.1366899 L173.698607,85.2588058 C173.756135,84.9910377 174.023101,84.8176174 174.302652,84.8778203 C174.577708,84.9362261 174.75209,85.2004 174.692764,85.4681681 L174.499506,86.3451536 C173.27973,91.8937043 172.018607,97.6246609 168.39973,97.6246609" id="Fill-104" fill="#000000"></path>
                <path d="M174.232719,83.6225449 C174.07991,83.6225449 173.928,83.5551536 173.827326,83.4257623 C170.900584,79.6572406 168.220135,73.5713565 167.217888,70.6214145 C167.129798,70.3608348 167.274517,70.080487 167.541483,69.9942261 C167.807551,69.9070667 168.09609,70.0499362 168.18418,70.3096174 C169.164854,73.1993565 171.785978,79.1531536 174.639011,82.826429 C174.808899,83.0447768 174.764854,83.3565739 174.540135,83.5219072 C174.448449,83.5892986 174.340584,83.6225449 174.232719,83.6225449" id="Fill-106" fill="#000000"></path>
                <path d="M182.824719,66.4219478 C182.615281,66.4219478 182.418427,66.2952522 182.345618,66.0921797 C181.595056,64.0318029 179.331685,62.2167304 177.142921,60.4609623 C176.071461,59.6028464 174.964944,58.7141797 174.042697,57.8039478 C173.354157,57.1210493 172.76809,56.5163246 172.244944,55.9771942 C170.669213,54.3499188 169.716404,53.3687014 168.256629,52.6534551 C167.579775,52.3218899 167.053034,52.3407594 166.689888,52.7127594 C166.083146,53.3354551 165.967191,54.9348754 166.838202,56.4363536 C166.97573,56.6744696 166.889438,56.9781797 166.644944,57.1129623 C166.403146,57.2459478 166.090337,57.1641797 165.95191,56.9251652 C164.93618,55.1747884 164.93618,53.0694841 165.952809,52.0280638 C166.628764,51.3334841 167.636404,51.2382377 168.714157,51.7665855 C170.333933,52.5591072 171.388315,53.6472522 172.985618,55.2951942 C173.503371,55.8298319 174.084944,56.4291652 174.768989,57.1057739 C175.652584,57.9800638 176.738427,58.851658 177.789213,59.6944986 C180.084944,61.535629 182.459775,63.4405565 183.30382,65.7588174 C183.398202,66.0176 183.259775,66.301542 182.993708,66.3931942 C182.938876,66.4129623 182.880449,66.4219478 182.824719,66.4219478" id="Fill-108" fill="#000000"></path>
                <path d="M218.332944,148.765675 C218.126202,148.765675 217.932045,148.642574 217.85564,148.443096 C216.989124,146.180545 216.22418,144.121067 215.524854,142.238603 C213.30373,136.264139 211.699236,131.946603 209.654292,128.698342 C205.879011,122.700516 201.799011,121.617762 200.057888,121.155907 C199.792719,121.086719 199.581483,121.028313 199.429573,120.972603 C199.167101,120.877357 199.03227,120.591617 199.132045,120.333733 C199.230022,120.077646 199.521258,119.945559 199.786427,120.0444 C199.916764,120.090226 200.098337,120.137849 200.324854,120.198052 C202.182831,120.690458 206.535191,121.845096 210.520809,128.178081 C212.621483,131.513501 214.24036,135.869675 216.482157,141.899849 C217.180584,143.779617 217.944629,145.8364 218.809348,148.095357 C218.908225,148.353241 218.773393,148.63898 218.510022,148.734226 C218.451596,148.755791 218.39227,148.765675 218.332944,148.765675" id="Fill-110" fill="#000000"></path>
                <path d="M204.265258,247.99982 C203.195596,241.461067 203.277393,235.689675 203.541663,227.344835 C203.694472,222.551067 203.835596,219.911125 203.948854,217.790545 C204.107955,214.812748 204.213124,212.846719 204.213124,207.384429 C204.213124,207.109472 203.985708,206.88753 203.70436,206.88753 C203.423011,206.88753 203.195596,207.109472 203.195596,207.384429 C203.195596,212.820661 203.090427,214.776806 202.932225,217.73753 C202.818966,219.8644 202.676944,222.509733 202.524135,227.313386 C202.267056,235.410226 202.182562,241.417038 203.236045,247.99982 L204.265258,247.99982 Z" id="Fill-112" fill="#000000"></path>
                <path d="M21.2376629,247.99982 C22.0241798,236.41211 23.1954157,227.651241 24.5383371,217.607241 C25.5360899,210.14298 26.6668764,201.683125 27.7653034,190.939154 C27.9262022,189.363096 28.0862022,187.743009 28.2506966,186.087878 C29.8632809,169.785472 31.8704719,149.495299 38.4196854,135.096023 C43.6071011,123.688922 60.0376629,118.200574 67.9333933,115.564226 C68.6012584,115.340487 69.2115955,115.136516 69.7527191,114.949617 C75.7904719,112.87127 80.0772135,110.028255 84.3360899,107.744139 C89.1747416,105.149125 92.9940674,103.097733 95.6394607,103.278342 C95.899236,103.281038 96.1086742,103.086052 96.1248539,102.813791 C96.1401348,102.539733 95.9486742,102.304313 95.6969888,102.287241 C92.8124944,102.102139 88.8933933,104.193067 83.9324944,106.852777 C79.7005843,109.122516 75.4497978,111.946661 69.476764,114.003443 C68.9374382,114.188545 68.3306966,114.392516 67.6646292,114.614458 C59.6466517,117.293038 42.9626067,122.865849 37.600809,134.655733 C30.9796854,149.214052 28.9635056,169.60127 27.3419326,185.981849 C27.1783371,187.635183 27.0183371,189.254371 26.8574382,190.828632 C25.7599101,201.557328 24.6309213,210.008197 23.6340674,217.46527 C22.2857528,227.548806 21.1100225,236.342023 20.3217079,247.99982 L21.2376629,247.99982 Z" id="Fill-114" fill="#000000"></path>
                <path d="M105.362517,97.4829594 C105.287011,97.4829594 105.211506,97.4667855 105.139596,97.4326406 C104.887011,97.3122348 104.781843,97.0148145 104.904989,96.7686116 C107.570157,91.4581768 107.776,84.6606406 107.59982,78.1075101 C107.592629,77.8325536 107.815551,77.6043217 108.096,77.5971333 C108.370157,77.573771 108.610157,77.8064957 108.618247,78.0805536 C108.796225,84.7612783 108.580494,91.7016841 105.820045,97.2044087 C105.731955,97.3805246 105.550382,97.4829594 105.362517,97.4829594" id="Fill-116" fill="#000000"></path>
                <path d="M94.7278202,104.061968 C94.5579326,104.061968 94.3916404,103.979301 94.2954607,103.827446 C94.1471461,103.594722 94.2199551,103.289214 94.4581573,103.144548 C95.3893933,102.578461 96.2100674,102.034838 96.969618,101.480432 C97.195236,101.316896 97.5143371,101.362722 97.682427,101.58107 C97.8514157,101.801214 97.8046742,102.112113 97.5790562,102.276548 C96.7979326,102.846229 95.9520899,103.406925 94.9965843,103.98649 C94.9129888,104.037707 94.8204045,104.061968 94.7278202,104.061968" id="Fill-118" fill="#000000"></path>
                <path d="M56.4237303,247.99982 C56.8812584,237.3484 59.3288989,226.263878 61.9131685,214.573733 C64.1765393,204.333849 66.5172135,193.745328 67.4088989,183.412893 C67.4322697,183.138835 67.248,182.897125 66.9972135,182.871067 C66.7383371,182.853096 66.5217079,183.045386 66.499236,183.319443 C65.6138427,193.581791 63.2812584,204.136168 61.0250787,214.341009 C58.4273258,226.095849 55.9644045,237.241472 55.5077753,247.99982 L56.4237303,247.99982 Z" id="Fill-120" fill="#000000"></path>
                <path d="M65.6355056,247.99982 C65.5851685,233.328284 64.8849438,225.504603 62.4975281,211.829559 C62.4507865,211.560893 62.2098876,211.385675 61.9626966,211.435096 C61.7155056,211.486313 61.5519101,211.745994 61.5995506,212.015559 C63.9752809,225.616023 64.6719101,233.401965 64.7213483,247.99982 L65.6355056,247.99982 Z" id="Fill-122" fill="#000000"></path>
                <path d="M161.398292,98.2547246 C161.214022,98.2547246 161.035146,98.1666667 160.912,98.0085217 C160.564135,97.5574493 160.011326,94.8968406 159.868404,93.3126957 C159.807281,92.6369855 160.072449,90.9495072 160.104809,90.759913 L163.305708,68.1586667 C163.343461,67.8873043 163.608629,67.6968116 163.879191,67.7354493 C164.156944,67.7731884 164.352,68.0238841 164.313348,68.2952464 L161.111551,90.9036812 C161.032449,91.3969855 160.840989,92.7555942 160.882337,93.2264348 C160.96773,94.1591304 161.169978,95.267942 161.363236,96.1170725 L165.316494,69.3258841 C165.356944,69.0527246 165.61582,68.8676232 165.893573,68.9044638 C166.171326,68.9431014 166.364584,69.1946957 166.324135,69.466058 L162.267506,96.9545217 C162.042787,98.1217391 161.696719,98.2017101 161.529528,98.2403478 C161.486382,98.2502319 161.442337,98.2547246 161.398292,98.2547246" id="Fill-124" fill="#000000"></path>
                <path d="M148.298787,114.375084 C148.277213,114.375084 148.254742,114.374186 148.233169,114.37149 C147.954517,114.336446 147.755865,114.088446 147.792719,113.815287 L147.859236,113.304012 C148.748225,106.506475 149.585978,100.08633 150.475865,92.5313159 C150.507326,92.2581565 150.77609,92.063171 151.039461,92.0946203 C151.319011,92.1260696 151.519461,92.3722725 151.488,92.6445333 C150.597213,100.205838 149.757663,106.628678 148.869573,113.42891 L148.803056,113.941983 C148.769798,114.19178 148.550472,114.375084 148.298787,114.375084" id="Fill-126" fill="#000000"></path>
                <path d="M138.236404,98.4183507 C138.177079,98.4183507 138.116854,98.4183507 138.057528,98.4174522 C131.213483,98.3365826 120.619326,93.5041768 113.613483,84.4261188 C113.445393,84.2068725 113.490337,83.8959739 113.714157,83.7306406 C113.940674,83.5662058 114.258876,83.6111333 114.427865,83.8285826 C121.235056,92.6514522 131.474157,97.3463797 138.069213,97.4245536 C145.449888,97.5126116 152.292135,91.6980899 155.82382,85.8961478 C158.810787,80.9900609 159.600899,76.8648145 160.516854,72.0890174 C160.684045,71.2183217 160.853933,70.3269594 161.042697,69.407742 C161.098427,69.1381768 161.378876,68.9647565 161.641348,69.0186696 C161.917303,69.0725826 162.09618,69.3331623 162.040449,69.6027275 C161.852584,70.5174522 161.682697,71.4052203 161.516404,72.2714232 C160.58427,77.1406696 159.778876,81.345887 156.698427,86.4029304 C153.046292,92.4052493 145.937079,98.4183507 138.236404,98.4183507" id="Fill-128" fill="#000000"></path>
                <path d="M145.36773,70.7137855 C145.222112,70.7137855 145.078292,70.6535826 144.977618,70.5358725 C144.796944,70.3256116 144.824809,70.0129159 145.040539,69.8368 C147.529528,67.8024812 146.649528,66.7215246 145.534022,65.3530319 C145.391101,65.178713 145.249978,65.0043942 145.117843,64.8309739 C143.507056,62.7121913 143.164584,60.6940464 144.100315,58.8322493 C144.22436,58.5860464 144.531775,58.4836116 144.780764,58.6058145 C145.033348,58.7262203 145.137618,59.0236406 145.014472,59.2698435 C144.260315,60.7704232 144.569528,62.4426261 145.934921,64.2397275 C146.060764,64.4050609 146.195596,64.5694957 146.330427,64.7357275 C147.433348,66.0889449 148.94436,67.9426551 145.694022,70.5978725 C145.59964,70.6760464 145.482787,70.7137855 145.36773,70.7137855" id="Fill-130" fill="#000000"></path>
                <path d="M160.646921,52.6716957 C160.553438,52.6716957 160.459056,52.6474348 160.374562,52.5953188 C158.180404,51.2412029 156.000629,51.0803623 153.713888,52.1065072 C153.456809,52.2179275 153.156584,52.111 153.038831,51.8621014 C152.921079,51.6123043 153.032539,51.3175797 153.28782,51.2034638 C155.913438,50.029058 158.408719,50.206971 160.919281,51.7551739 C161.156584,51.9025362 161.227596,52.208942 161.077483,52.4407681 C160.979506,52.5899275 160.815011,52.6716957 160.646921,52.6716957" id="Fill-132" fill="#000000"></path>
                <path d="M137.11191,51.5168783 C137.030112,51.5168783 136.946517,51.4971101 136.870112,51.4566754 C134.269663,50.0818928 130.651685,49.9983275 128.074607,51.2545014 C127.824719,51.3749072 127.516404,51.2769652 127.39236,51.0316609 C127.266517,50.7863565 127.368989,50.4880377 127.619775,50.3658348 C130.035056,49.1887333 133.982022,48.8005594 137.355506,50.5832841 C137.602697,50.7144725 137.693483,51.015487 137.560449,51.2562986 C137.467865,51.4225304 137.293483,51.5168783 137.11191,51.5168783" id="Fill-134" fill="#000000"></path>
                <path d="M157.044404,60.5941275 C157.190921,59.4161275 156.49609,58.3765043 155.490247,58.2713739 C154.485303,58.1653449 153.55227,59.035142 153.405753,60.213142 C153.258337,61.3902435 153.954067,62.4307652 154.958112,62.5367942 C155.963056,62.6419246 156.896989,61.7721275 157.044404,60.5941275" id="Fill-136" fill="#000000"></path>
                <path d="M133.508584,59.5117333 C133.607461,58.3292406 132.83173,57.3192696 131.774652,57.256371 C130.718472,57.1925739 129.780944,58.1010087 129.682067,59.2844 C129.582292,60.4668928 130.358921,61.4768638 131.416,61.5388638 C132.473079,61.6026609 133.409708,60.6942261 133.508584,59.5117333" id="Fill-138" fill="#000000"></path>
                <path d="M108.246112,74.4382783 C108.210157,74.4382783 108.173303,74.4346841 108.136449,74.4265971 C103.833528,73.5046841 100.991281,70.3471768 99.6879101,65.0412348 C98.8636404,61.6878435 99.5989213,58.5456116 101.607011,56.8419594 C103.24836,55.4510029 105.52791,55.2101913 108.025888,56.1671478 C108.287461,56.266887 108.416,56.5553217 108.312629,56.8096116 C108.210157,57.0656986 107.915326,57.1896986 107.653753,57.090858 C105.494652,56.2641913 103.634876,56.436713 102.274876,57.5913507 C100.581393,59.0290319 99.9530787,61.8630609 100.677573,64.8103072 C101.899146,69.7837855 104.410607,72.6115246 108.354876,73.4570609 C108.629933,73.5154667 108.802517,73.7805391 108.743191,74.0483072 C108.690157,74.2801333 108.47982,74.4382783 108.246112,74.4382783" id="Fill-140" fill="#000000"></path>
                <path d="M108.125843,66.410087 C107.93618,66.410087 107.753708,66.3058551 107.666517,66.1270435 C107.240449,65.2545507 106.034157,63.7234203 104.690337,63.0495072 C104.439551,62.9237101 104.341573,62.6244928 104.470112,62.3809855 C104.598652,62.1365797 104.905169,62.0404348 105.155056,62.1653333 C106.798202,62.9902029 108.131236,64.7711304 108.585169,65.6993333 C108.706517,65.9473333 108.598652,66.2429565 108.345169,66.3615652 C108.274157,66.393913 108.199551,66.410087 108.125843,66.410087" id="Fill-142" fill="#000000"></path>
                <path d="M163.145978,47.4458145 C163.133393,47.4458145 163.120809,47.4458145 163.107326,47.4449159 C162.827775,47.4242493 162.616539,47.1861333 162.637213,46.9120754 C162.818787,44.5497855 160.060135,37.0450899 157.893843,34.8157855 C157.700584,34.6172058 157.709573,34.302713 157.913618,34.1140174 C158.118562,33.9244232 158.44036,33.9334087 158.632719,34.132887 C160.870022,36.4349739 163.87227,44.1220754 163.652944,46.9857565 C163.633169,47.2472348 163.410247,47.4458145 163.145978,47.4458145" id="Fill-144" fill="#000000"></path>
                <path d="M113.271551,50.5134667 C112.365483,50.5134667 111.40818,50.4254087 110.390652,50.236713 C110.114697,50.1863942 109.933124,49.926713 109.986157,49.6562493 C110.037393,49.3875826 110.297169,49.2105681 110.580315,49.2617855 C118.890427,50.7974087 122.910202,45.2317855 127.16009,39.3363942 C127.502562,38.8610609 127.845034,38.3857275 128.190202,37.9157855 L128.659416,37.2697275 C131.466607,33.4050609 135.312899,28.1170899 140.736719,29.5565681 C141.007281,29.6293507 141.166382,29.9025101 141.092674,30.1666841 C141.019865,30.430858 140.743011,30.5916986 140.467955,30.5153217 C135.735371,29.2555536 132.124584,34.2191478 129.490876,37.8439014 L129.018067,38.4935536 C128.675596,38.9616986 128.334022,39.4343362 127.993348,39.9078725 C124.227056,45.1311478 120.345708,50.5134667 113.271551,50.5134667" id="Fill-146" fill="#000000"></path>
                <path d="M147.80018,32.8474203 C147.51973,32.8474203 147.291416,32.6254783 147.291416,32.3505217 C147.291416,30.3449565 146.418607,27.6070725 144.749393,26.2538551 C143.827146,25.5044638 142.745798,25.2348986 141.532315,25.4541449 C141.261753,25.5035652 140.990292,25.3265507 140.939955,25.056087 C140.888719,24.7865217 141.07209,24.5277391 141.347146,24.4774203 C142.841978,24.2051594 144.250517,24.5555942 145.401079,25.490087 C147.40018,27.1110725 148.308944,30.1832174 148.308944,32.3505217 C148.308944,32.6254783 148.081528,32.8474203 147.80018,32.8474203" id="Fill-148" fill="#000000"></path>
                <path d="M157.537708,25.3084 C157.468494,25.3084 157.399281,25.2949217 157.331865,25.2661681 C157.073888,25.1547478 156.957933,24.8618203 157.07209,24.6111246 C158.765573,20.8830377 157.60782,16.7856464 153.893663,13.368458 C147.524225,7.50811014 134.298157,4.51953043 122.328719,10.5281391 C122.078831,10.6548348 121.772315,10.5577913 121.642876,10.3133855 C121.515236,10.0698783 121.613213,9.77066087 121.863101,9.64486377 C134.248719,3.42958841 147.970067,6.55205217 154.592989,12.6469217 C158.638831,16.3696174 159.881978,20.8767478 158.003326,25.0127768 C157.918831,25.1987768 157.732764,25.3084 157.537708,25.3084" id="Fill-150" fill="#000000"></path>
                <path d="M166.733573,45.8729014 C166.668854,45.8729014 166.604135,45.8612203 166.541213,45.8360609 C166.281438,45.7327275 166.155596,45.4424957 166.262562,45.1891043 C166.972674,43.4899449 167.876944,42.1609884 168.752449,40.8760609 C170.242787,38.6871913 171.530876,36.7975391 171.454472,33.6508145 C171.369978,30.1833072 168.655371,25.3023797 162.89627,22.783742 C162.64009,22.6714232 162.525933,22.3775971 162.640989,22.1278 C162.755146,21.8762058 163.053573,21.7647855 163.314247,21.8780029 C169.475146,24.5727565 172.379416,29.8580319 172.472899,33.6283507 C172.556494,37.0868725 171.120989,39.1939739 169.600989,41.4250754 C168.752449,42.6695681 167.876045,43.9571913 167.204584,45.5638 C167.124584,45.7569884 166.934921,45.8729014 166.733573,45.8729014" id="Fill-152" fill="#000000"></path>
                <path d="M99.6926742,61.8599159 C99.5075056,61.8599159 99.3277303,61.7610754 99.2378427,61.5876551 C95.4553708,54.2905246 94.5744719,49.0510754 94.4126742,43.4279449 C94.4054831,43.153887 94.6266067,42.9256551 94.9079551,42.9175681 C95.1830112,42.9310464 95.4230112,43.1260319 95.4311011,43.4000899 C95.5875056,48.8893362 96.4495281,54.0074812 100.147506,61.1392783 C100.273348,61.3845826 100.173573,61.6829014 99.9218876,61.8069014 C99.8490787,61.8428435 99.7699775,61.8599159 99.6926742,61.8599159" id="Fill-154" fill="#000000"></path>
                <path d="M91.7889438,39.9563942 C91.605573,39.9563942 91.4293933,39.8602493 91.3377079,39.6913217 C91.2073708,39.4478145 91.3026517,39.1476986 91.5516404,39.0201043 C94.1332135,37.6983362 94.7408539,34.3116986 95.3844494,30.7264812 C95.5875955,29.5988 95.7961348,28.4333797 96.0720899,27.3443362 C97.8266966,20.4192058 104.023551,13.0052638 113.914787,12.0545971 C114.19973,12.0303362 114.443326,12.2271188 114.470292,12.5002783 C114.499056,12.7734377 114.294112,13.0160464 114.014562,13.0430029 C103.975011,14.0080464 98.6060225,21.4785971 97.0599551,27.5824522 C96.7929888,28.6382493 96.5871461,29.7865971 96.3866966,30.8972058 C95.729618,34.5614957 95.0500674,38.3497855 92.0253483,39.8997855 C91.9498427,39.9375246 91.8689438,39.9563942 91.7889438,39.9563942" id="Fill-156" fill="#000000"></path>
                <path d="M162.302472,110.884035 C162.210787,110.884035 162.118202,110.860672 162.035506,110.810354 C161.454831,110.460817 160.835506,110.041194 160.090337,109.489484 C159.865618,109.324151 159.821573,109.012354 159.99236,108.794006 C160.162247,108.574759 160.483146,108.533426 160.705169,108.697861 C161.42427,109.230701 162.017528,109.633252 162.568539,109.964817 C162.80764,110.108586 162.883146,110.414093 162.73573,110.647716 C162.639551,110.80047 162.47236,110.884035 162.302472,110.884035" id="Fill-158" fill="#000000"></path>
                <path d="M115.329079,108.82851 C117.12773,110.105351 118.885933,111.06051 120.438292,111.903351 C123.50436,113.567467 125.925933,114.882046 127.332674,117.759206 C128.278292,119.695583 128.613573,121.959032 129.001888,124.580104 C129.510652,128.019757 130.08773,131.919467 132.199191,136.41222 C133.844135,139.912974 135.044135,141.991322 136.008629,143.660829 C138.055371,147.205612 138.745708,148.400684 139.684135,156.647583 C140.929079,167.56767 140.71964,180.262394 140.428404,197.830858 L140.363685,201.779988 C140.183011,212.955264 141.073798,221.850017 141.934921,230.451843 C142.491326,236.012075 143.057618,241.739438 143.321888,247.999641 L144.340315,247.999641 C144.076944,241.697206 143.507056,235.942887 142.947955,230.3548 C142.089528,221.781728 141.202337,212.915728 141.381213,201.795264 L141.445933,197.846133 C141.737169,180.240829 141.948404,167.520046 140.697169,156.537061 C139.733573,148.088887 138.961438,146.750945 136.894921,143.172916 C135.941213,141.519583 134.751101,139.461901 133.125034,135.998887 C131.074697,131.636423 130.508404,127.811293 130.009528,124.438133 C129.609528,121.73709 129.26436,119.405351 128.251326,117.332394 C126.70436,114.168597 124.030202,112.716539 120.933573,111.035351 C119.331775,110.166452 117.676944,109.267901 115.928629,108.025206 C111.809978,105.100423 106.849978,100.232075 105.284135,95.3439594 C105.200539,95.0815826 104.912899,94.9342203 104.646831,95.0177855 C104.378067,95.0995536 104.228854,95.3781043 104.312449,95.6395826 C105.952,100.759525 111.078292,105.80938 115.329079,108.82851" id="Fill-160" fill="#000000"></path>
                <path d="M138.646382,148.409849 C138.365933,148.409849 138.137618,148.187907 138.137618,147.912951 C138.137618,142.013067 141.125483,136.916487 144.015371,131.987038 C145.365483,129.684052 146.761438,127.302893 147.796045,124.911849 C148.856719,122.457009 149.138067,119.286922 148.604135,115.745733 C148.563685,115.476168 148.756944,115.222777 149.035596,115.182342 C149.30436,115.1464 149.570427,115.331501 149.612674,115.602864 C150.171775,119.322864 149.867955,122.674458 148.734472,125.298226 C147.675596,127.744081 146.26436,130.151299 144.898966,132.479443 C142.074697,137.296574 139.155146,142.277241 139.155146,147.912951 C139.155146,148.187907 138.92773,148.409849 138.646382,148.409849" id="Fill-162" fill="#000000"></path>
                <path d="M162.62373,129.197217 C159.483955,129.197217 155.910921,125.108812 153.976539,122.538957 C153.810247,122.317913 153.858787,122.007913 154.086202,121.844377 C154.310921,121.682638 154.629124,121.729362 154.798112,121.951304 C158.051146,126.271536 161.172944,128.589797 163.133393,128.148609 C163.332944,128.10458 163.462382,128.021014 163.550472,127.879043 C163.997213,127.165594 163.489348,125.205855 162.950022,123.131101 C162.425978,121.111159 161.832719,118.823449 161.737438,116.55371 C161.718562,116.090058 161.705978,115.681217 161.69609,115.315507 C161.61609,112.646812 161.606202,112.304464 159.196315,108.074986 C156.403506,103.168899 154.038562,100.051826 150.472719,96.5726377 C150.274067,96.3794493 150.274067,96.0649565 150.472719,95.8708696 C150.671371,95.6767826 150.994067,95.6767826 151.192719,95.8708696 C154.83227,99.421942 157.243056,102.598319 160.087101,107.592464 C162.616539,112.033101 162.629124,112.466203 162.713618,115.286754 C162.723506,115.64887 162.73609,116.054116 162.754966,116.513275 C162.844854,118.679681 163.426427,120.915275 163.937888,122.887594 C164.581483,125.367594 165.090247,127.326435 164.419685,128.396609 C164.185978,128.769507 163.830022,129.012116 163.361708,129.117246 C163.119011,129.171159 162.87182,129.197217 162.62373,129.197217" id="Fill-164" fill="#000000"></path>
                <path d="M146.686202,129.155525 C146.538787,129.155525 146.39227,129.093525 146.292494,128.974017 C146.113618,128.761959 146.145079,128.448365 146.362607,128.275843 C148.660135,126.437409 150.077663,123.689641 151.450247,121.032626 C152.418337,119.155554 153.334292,117.382713 154.528899,115.945032 C156.430921,113.65193 157.974292,112.586249 161.591371,112.748887 C161.873618,112.760568 162.089348,112.993293 162.076764,113.266452 C162.06418,113.533322 161.838562,113.740887 161.568899,113.740887 C161.561708,113.740887 161.553618,113.740887 161.545528,113.739988 C158.322157,113.605206 157.07182,114.458829 155.319011,116.569525 C154.194517,117.925438 153.302831,119.651554 152.35991,121.479206 C150.939685,124.22967 149.472719,127.072684 147.008899,129.043206 C146.913618,129.118684 146.80036,129.155525 146.686202,129.155525" id="Fill-166" fill="#000000"></path>
                <path d="M110.84791,131.119397 C110.393978,131.119397 109.952629,131.001687 109.52836,130.765368 C108.305888,130.084267 107.932854,128.546846 107.366562,126.2196 C106.873079,124.190672 106.259146,121.665745 104.849708,118.658296 C103.839371,116.502672 102.812854,114.648064 101.817798,112.854557 C99.9211685,109.429281 98.128809,106.194499 97.0654382,101.803281 C96.717573,100.367397 97.9508315,99.3646145 99.2568989,98.3025275 C99.9849888,97.7103826 100.738247,97.097571 101.31982,96.3589623 C101.675775,95.9069913 101.963416,95.397513 102.242067,94.9042087 C103.081618,93.4189043 104.034427,91.7359188 106.922517,92.2984116 C107.197573,92.3523246 107.377348,92.6138029 107.321618,92.8824696 C107.266787,93.1520348 106.996225,93.3272522 106.722067,93.271542 C104.561169,92.8510203 103.964315,93.9131072 103.134652,95.3840348 C102.837124,95.9087884 102.530607,96.4524116 102.12791,96.963687 C101.477124,97.7894551 100.643865,98.4669623 99.9094831,99.0644986 C98.6348764,100.101426 97.8636404,100.777136 98.0568989,101.575049 C99.0879101,105.837774 100.76791,108.870383 102.713978,112.381919 C103.715326,114.190701 104.75173,116.059687 105.774652,118.244962 C107.227236,121.341368 107.87982,124.028933 108.357124,125.99047 C108.844315,127.990643 109.194876,129.434614 110.033528,129.902759 C110.473079,130.148962 110.923416,130.188499 111.408809,130.033948 C112.802067,129.584672 114.35173,127.600672 115.774652,124.446759 C116.013753,123.917513 116.236674,123.383774 116.456899,122.856325 C118.112629,118.900904 119.824989,114.808904 127.160719,116.172904 C127.436674,116.224122 127.618247,116.483803 127.566112,116.754267 C127.513079,117.022933 127.246112,117.199049 126.970157,117.14873 C120.446112,115.938383 119.104989,119.156991 117.39982,123.231919 C117.176,123.766557 116.949483,124.309281 116.706787,124.846614 C115.617348,127.262817 113.869034,130.287339 111.72791,130.975629 C111.430382,131.071774 111.136449,131.119397 110.84791,131.119397" id="Fill-168" fill="#000000"></path>
                <path d="M67.1137079,171.090797 C66.8611236,171.090797 66.6561798,170.868855 66.6561798,170.594797 C66.6561798,161.540101 61.6188764,148.156188 56.9132584,141.334391 C56.7613483,141.115145 56.8026966,140.804246 57.0049438,140.638913 C57.207191,140.474478 57.4930337,140.520304 57.6440449,140.739551 C62.4377528,147.687145 67.5703371,161.34242 67.5703371,170.594797 C67.5703371,170.868855 67.3653933,171.090797 67.1137079,171.090797" id="Fill-170" fill="#000000"></path>
                <path d="M179.980674,131.585745 C179.080899,131.585745 178.174831,131.492296 177.269663,131.29731 C176.995506,131.237107 176.822022,130.972035 176.883146,130.704267 C176.943371,130.436499 177.213034,130.271165 177.489888,130.326875 C185.398202,132.04131 193.364944,125.250962 196.859775,117.996064 C196.979326,117.748962 197.280449,117.642035 197.536629,117.757948 C197.791011,117.874759 197.901573,118.170383 197.781124,118.419281 C194.51191,125.204238 187.444045,131.585745 179.980674,131.585745" id="Fill-172" fill="#000000"></path>
                <path d="M182.357753,150.216655 C181.352809,150.216655 180.465618,149.993814 179.787865,149.456481 C177.992809,148.027786 178.059326,144.865786 179.992809,139.788075 C180.091685,139.530191 180.38382,139.399003 180.647191,139.495148 C180.910562,139.590394 181.044494,139.876133 180.947416,140.133119 C179.23236,144.634858 179.055281,147.59109 180.430562,148.686423 C182.523146,150.347843 188.173483,147.95051 192.766742,145.149728 C197.826517,142.065003 204.658876,132.232162 204.088989,127.487814 C203.956854,126.383496 203.420225,125.691612 202.449438,125.371728 C202.182472,125.284568 202.039551,125.002423 202.129438,124.742742 C202.220225,124.483061 202.50427,124.346481 202.774831,124.430945 C204.117753,124.873032 204.923146,125.889293 205.100225,127.3728 C205.717753,132.514307 198.705618,142.700278 193.306067,145.99167 C190.93573,147.437438 185.912809,150.216655 182.357753,150.216655" id="Fill-174" fill="#000000"></path>
                <path d="M142.627236,82.9393768 C142.771955,82.9393768 142.921169,82.9447681 143.075775,82.9564493 C144.178697,83.0373188 145.006562,83.4138116 145.737348,83.7471739 C146.814202,84.2368841 147.366112,84.4471449 148.153528,83.8702754 C148.745888,83.4353768 148.765663,82.5988261 148.205663,81.7380145 C147.354427,80.4315217 145.580944,79.6003623 143.462292,79.5132029 C140.637124,79.4062754 138.568809,80.577087 137.988135,81.8018116 C137.825438,82.1459565 137.717573,82.6464493 138.127461,83.0786522 L138.127461,83.0795507 C138.798921,83.7876087 139.331056,83.6312609 140.299146,83.3464203 C140.922966,83.1622174 141.678921,82.9393768 142.627236,82.9393768 M147.222292,85.0356957 C146.59218,85.0356957 145.998022,84.7652319 145.383191,84.4857826 C144.718022,84.1820725 143.962966,83.8388261 143.013753,83.7687391 C142.000719,83.6968551 141.226787,83.9241884 140.540944,84.1263623 C139.512629,84.4291739 138.541843,84.7158116 137.514427,83.6321594 C136.957124,83.0463043 136.852854,82.2537826 137.229483,81.4603623 C137.927011,79.9894348 140.317124,78.5778116 143.497348,78.6991159 C145.889258,78.797058 147.912629,79.7701884 148.910382,81.3013188 C149.710382,82.5278406 149.608809,83.8217536 148.656899,84.5208261 C148.146337,84.8955217 147.674427,85.0356957 147.222292,85.0356957" id="Fill-176" fill="#000000"></path>
                <path d="M77.2883596,24.8376493 C77.5202697,11.9272725 60.5279101,1.08356232 39.3333034,0.618113043 C18.1386966,0.152663768 0.768808989,10.2415913 0.536,23.1528667 C0.303191011,36.0623449 17.2964494,46.9060551 38.4910562,47.3715043 C46.7328539,47.5530116 54.3957753,46.1386928 60.6986966,43.5805188 C60.6986966,43.5805188 82.2843146,53.1204319 79.6604944,49.7787217 C73.3701573,41.7708377 73.6793708,34.442258 73.6793708,34.442258 C75.9391461,31.5399391 77.2263371,28.2898812 77.2883596,24.8376493" id="Fill-178" fill="#FFFFFF"></path>
                <g id="Group-182">
                    <mask id="mask-2" fill="white">
                        <use xlink:href="#path-1"></use>
                    </mask>
                    <g id="Clip-181"></g>
                    <path d="M76.7555955,24.8280348 C76.9812135,12.2303536 60.1884045,1.60948406 39.3209888,1.15212174 C25.9313258,0.860991304 13.7659326,4.73194783 6.70525843,11.5124116 C3.09357303,14.9817159 1.14480899,19.0099188 1.07020225,23.1621217 C0.842786517,35.7598029 17.6355955,46.3797739 38.5021124,46.8380348 C46.4302022,47.0141507 54.0221124,45.7148464 60.497618,43.0865855 C60.6333483,43.0326725 60.7825618,43.0344696 60.9146966,43.0928754 C68.5362697,46.461542 76.9740225,49.7520348 79.1223371,49.9578029 C72.904809,41.9472232 73.1340225,34.7246725 73.1457079,34.4191652 C73.1511011,34.3086435 73.1906517,34.2017159 73.2589663,34.1145565 C75.5205393,31.2113391 76.6962697,28.0861797 76.7555955,24.8280348 Z M60.6899775,44.1594551 C54.1245843,46.7859188 46.4427865,48.0807304 38.4796404,47.9046145 C17.0261573,47.4337739 -0.234966292,36.3249913 0.00233707865,23.1432522 C0.0823370787,18.7017159 2.14435955,14.4138319 5.96548315,10.7441507 C13.2257079,3.77049855 25.704809,-0.216371014 39.3443596,0.0846434783 C60.7978427,0.556382609 78.0589663,11.6642667 77.8225618,24.8469043 L77.8225618,24.8469043 C77.7596404,28.2874551 76.5452584,31.5770493 74.2117753,34.6267304 C74.2153708,35.7346435 74.4913258,42.3344986 80.0796404,49.4492232 C80.5542472,50.0530493 80.4409888,50.4538029 80.2603146,50.6829333 C80.1308764,50.8518609 79.8486292,50.9363246 79.4180674,50.9354332 C77.1771685,50.9354332 70.8985169,48.6647884 60.6899775,44.1594551 L60.6899775,44.1594551 Z" id="Fill-180" fill="#C7CBD2" mask="url(#mask-2)"></path>
                </g>
            </g>
        </g>
        <path d="M234.7505,499.73 L234.7505,497.084 L225.0305,497.084 L225.0305,492.629 C226.6325,492.611 227.987,492.5435 229.094,492.4265 C230.201,492.3095 231.1325,492.125 231.8885,491.873 L231.8885,491.873 L231.4565,489.335 C229.7825,489.767 227.4695,489.983 224.5175,489.983 L224.5175,489.983 L218.6045,489.983 L218.6045,482.801 L231.2675,482.801 L231.2675,480.155 L213.3395,480.155 L213.3395,482.801 L215.5805,482.801 L215.5805,492.629 L222.0065,492.629 L222.0065,497.084 L212.2865,497.084 L212.2865,499.73 L234.7505,499.73 Z M256.8095,496.949 L256.8095,488.93 L260.6435,488.93 L260.6435,486.284 L256.8095,486.284 L256.8095,479.372 L253.7855,479.372 L253.7855,496.949 L256.8095,496.949 Z M243.3095,492.683 C244.0295,492.683 244.781,492.665 245.564,492.629 C246.347,492.593 247.112,492.53 247.859,492.44 C248.606,492.35 249.317,492.2375 249.992,492.1025 C250.667,491.9675 251.2565,491.801 251.7605,491.603 L251.7605,491.603 L251.2475,489.2 C250.2935,489.542 249.173,489.767 247.886,489.875 C246.599,489.983 245.3345,490.037 244.0925,490.037 L244.0925,490.037 L241.2305,490.037 L241.2305,479.858 L238.2065,479.858 L238.2065,492.683 L243.3095,492.683 Z M257.5655,504.32 L257.5655,501.674 L244.1465,501.674 L244.1465,495.545 L241.1225,495.545 L241.1225,504.32 L257.5655,504.32 Z M264.4235,504.887 L273.6305,478.859 L270.6065,478.859 L261.3995,504.887 L264.4235,504.887 Z M294.8525,490.226 L294.8525,479.642 L291.8285,479.642 L291.8285,482.45 L281.5145,482.45 L281.5145,479.642 L278.4905,479.642 L278.4905,490.226 L294.8525,490.226 Z M291.8285,487.607 L281.5145,487.607 L281.5145,485.069 L291.8285,485.069 L291.8285,487.607 Z M288.7505,499.379 L288.7505,494.843 L297.9035,494.843 L297.9035,492.197 L275.4395,492.197 L275.4395,494.843 L285.7265,494.843 L285.7265,499.379 L288.7505,499.379 Z M295.3925,504.32 L295.3925,501.674 L281.5145,501.674 L281.5145,496.868 L278.4905,496.868 L278.4905,504.32 L295.3925,504.32 Z M321.7175,492.467 L321.7175,479.372 L318.6935,479.372 L318.6935,492.467 L321.7175,492.467 Z M300.6305,491.927 C300.9365,491.909 301.22,491.8865 301.481,491.8595 C301.742,491.8325 301.9985,491.801 302.2505,491.765 C302.5025,491.729 302.7635,491.675 303.0335,491.603 C303.3035,491.531 303.6005,491.432 303.9245,491.306 C304.3025,491.162 304.7075,490.9775 305.1395,490.7525 C305.5715,490.5275 305.9945,490.2485 306.4085,489.9155 C306.8225,489.5825 307.205,489.1865 307.556,488.7275 C307.907,488.2685 308.1995,487.733 308.4335,487.121 C308.9195,488.219 309.6935,489.146 310.7555,489.902 C311.8175,490.658 313.0775,491.297 314.5355,491.819 L314.5355,491.819 L315.9665,489.443 C315.1385,489.191 314.351,488.849 313.604,488.417 C312.857,487.985 312.2,487.4945 311.633,486.9455 C311.066,486.3965 310.616,485.8025 310.283,485.1635 C309.95,484.5245 309.7835,483.872 309.7835,483.206 L309.7835,483.206 L309.7835,479.426 L305.0045,479.426 L305.0045,482.072 L306.7055,482.072 L306.7055,483.206 C306.7055,483.926 306.6065,484.5785 306.4085,485.1635 C306.2105,485.7485 305.9495,486.266 305.6255,486.716 C305.3015,487.166 304.937,487.544 304.532,487.85 C304.127,488.156 303.7085,488.399 303.2765,488.579 C302.7185,488.813 302.2145,488.966 301.7645,489.038 C301.3145,489.11 300.9365,489.146 300.6305,489.146 L300.6305,489.146 L300.6305,491.927 Z M322.0145,504.86 L322.0145,502.241 L308.9735,502.241 L308.9735,500.432 L321.5825,500.432 L321.5825,493.466 L305.9495,493.466 L305.9495,496.085 L318.5585,496.085 L318.5585,497.921 L305.9495,497.921 L305.9495,504.86 L322.0145,504.86 Z M353.8475,496.976 L353.8475,479.372 L350.8235,479.372 L350.8235,496.976 L353.8475,496.976 Z M346.6655,494.06 L348.0695,491.738 C347.2415,491.486 346.4585,491.0945 345.7205,490.5635 C344.9825,490.0325 344.33,489.434 343.763,488.768 C343.196,488.102 342.746,487.4 342.413,486.662 C342.08,485.924 341.9135,485.222 341.9135,484.556 L341.9135,484.556 L341.9135,479.831 L337.1345,479.831 L337.1345,482.477 L338.8355,482.477 L338.8355,484.556 C338.8355,485.942 338.5565,487.1435 337.9985,488.1605 C337.4405,489.1775 336.6575,489.947 335.6495,490.469 C334.8035,490.901 333.8405,491.117 332.7605,491.117 L332.7605,491.117 L332.7605,493.817 C333.4445,493.799 334.097,493.736 334.718,493.628 C335.339,493.52 335.9285,493.358 336.4865,493.142 C337.4225,492.782 338.2505,492.269 338.9705,491.603 C339.6905,490.937 340.2305,490.064 340.5905,488.984 C340.9865,490.046 341.7335,491.009 342.8315,491.873 C343.9295,492.737 345.2075,493.466 346.6655,494.06 L346.6655,494.06 Z M354.4685,504.32 L354.4685,501.674 L341.0495,501.674 L341.0495,495.329 L338.0255,495.329 L338.0255,504.32 L354.4685,504.32 Z M375.5015,493.763 C375.6815,493.169 375.8615,492.4625 376.0415,491.6435 C376.2215,490.8245 376.3835,489.9335 376.5275,488.9705 C376.6715,488.0075 376.784,486.995 376.865,485.933 C376.946,484.871 376.9865,483.809 376.9865,482.747 L376.9865,482.747 L376.9865,480.155 L360.0575,480.155 L360.0575,482.801 L373.8815,482.801 C373.8815,484.961 373.76,486.9005 373.517,488.6195 C373.274,490.3385 372.9545,491.873 372.5585,493.223 L372.5585,493.223 L375.5015,493.763 Z M379.7135,499.46 L379.7135,496.814 L368.2925,496.814 L368.2925,488.714 L365.2685,488.714 L365.2685,496.814 L357.2495,496.814 L357.2495,499.46 L379.7135,499.46 Z" id="/" fill="#242424" fill-rule="nonzero"></path>
        <g id="Group-5-Copy-2" transform="translate(5.000000, 12.000000)">
            <line x1="15.4535831" y1="15.5" x2="571.546417" y2="15.5" id="Line" stroke="#CCCCCC" stroke-linecap="square"></line>
            <g id="01">
                <circle id="Oval" fill="#CCCCCC" cx="15.5" cy="15.5" r="15.5"></circle>
                <polygon id="1" fill="#FFFFFF" fill-rule="nonzero" points="17.5258824 22.02 17.5258824 7.6 15.2658824 7.6 10.4458824 10.28 11.6858824 12.36 14.9658824 10.48 14.9658824 22.02"></polygon>
            </g>
            <g id="02" transform="translate(109.000000, 0.000000)">
                <circle id="Oval-Copy" fill="#FF0000" cx="15.5" cy="15.5" r="15.5"></circle>
                <path d="M21.2494118,22.02 L21.2494118,19.9 L14.3894118,19.9 L18.6294118,15.62 C19.9694118,14.28 20.7094118,12.84 20.7094118,11.28 L20.7094118,11.08 C20.7094118,9.1 19.3094118,7.38 16.0494118,7.38 C13.1294118,7.38 11.7894118,9.18 11.1094118,10.42 L13.0294118,11.68 C13.9694118,10 15.0294118,9.66 16.0694118,9.66 C17.5494118,9.66 18.1294118,10.4 18.1294118,11.18 L18.1294118,11.34 C18.1294118,12.16 18.0294118,12.92 16.3494118,14.64 L11.0494118,20.1 L11.0494118,22.02 L21.2494118,22.02 Z" id="2" fill="#FFFFFF" fill-rule="nonzero"></path>
            </g>
            <g id="03" transform="translate(220.000000, 0.000000)">
                <circle id="Oval-Copy-2" fill="#CCCCCC" cx="15.5" cy="15.5" r="15.5"></circle>
                <path d="M15.5694118,22.24 C19.1094118,22.24 20.8094118,20.22 20.8094118,18.04 L20.8094118,17.74 C20.8094118,16.1 19.9094118,14.82 18.0094118,14.48 C19.6494118,13.86 20.0894118,12.32 20.0894118,11.18 L20.0894118,10.98 C20.0894118,8.82 18.3294118,7.38 15.6294118,7.38 C13.5494118,7.38 12.3094118,8.22 11.3494118,9.46 L13.0894118,10.82 C13.7294118,10.12 14.4094118,9.62 15.6294118,9.62 C16.8294118,9.62 17.5894118,10.1 17.5894118,11.18 L17.5894118,11.34 C17.5894118,12.58 17.1894118,13.42 15.3894118,13.42 L13.6694118,13.42 L13.6694118,15.62 L15.6094118,15.62 C17.4494118,15.62 18.2294118,16.26 18.2294118,17.66 L18.2294118,17.92 C18.2294118,19.18 17.3894118,19.96 15.5894118,19.96 C14.4294118,19.96 13.6094118,19.66 12.2094118,18.64 L10.9494118,20.64 C12.3094118,21.72 13.8894118,22.24 15.5694118,22.24 Z" id="3" fill="#FFFFFF" fill-rule="nonzero"></path>
            </g>
            <g id="04" transform="translate(331.000000, 0.000000)">
                <circle id="Oval-Copy-2" fill="#CCCCCC" cx="15.5" cy="15.5" r="15.5"></circle>
                <polygon id="4" fill="#FFFFFF" fill-rule="nonzero" points="19.1176471 22.02 19.1176471 19.02 21.0776471 19.02 21.0776471 16.96 19.1176471 16.96 19.1176471 12.64 16.5976471 12.64 16.5976471 16.96 12.4376471 16.96 18.7376471 7.6 15.9776471 7.6 9.41764706 17.36 9.41764706 19.02 16.5976471 19.02 16.5976471 22.02"></polygon>
            </g>
            <g id="05" transform="translate(441.000000, 0.000000)">
                <circle id="Oval-Copy-2" fill="#CCCCCC" cx="15.5" cy="15.5" r="15.5"></circle>
                <path d="M15.4176471,22.24 C19.0376471,22.24 20.5576471,19.74 20.5576471,17.44 L20.5576471,17.14 C20.5576471,14.82 19.0376471,12.74 16.2576471,12.74 C15.0576471,12.74 14.2376471,13.08 13.5776471,13.48 L13.7376471,9.72 L19.6176471,9.72 L19.6176471,7.6 L11.4376471,7.6 L10.9776471,15.94 L12.6976471,15.94 C13.3376471,15.32 14.2176471,14.8 15.4376471,14.8 C17.0376471,14.8 17.9776471,15.66 17.9776471,17.2 L17.9776471,17.42 C17.9776471,18.86 17.1576471,19.92 15.3976471,19.92 C14.0576471,19.92 12.8976471,19.7 11.5376471,18.62 L10.2976471,20.64 C11.7376471,21.82 13.3376471,22.24 15.4176471,22.24 Z" id="5" fill="#FFFFFF" fill-rule="nonzero"></path>
            </g>
            <g id="06" transform="translate(551.000000, 0.000000)">
                <circle id="Oval-Copy-2" fill="#CCCCCC" cx="15.5" cy="15.5" r="15.5"></circle>
                <path d="M15.4376471,22.24 C18.6376471,22.24 20.5576471,20.2 20.5576471,17.52 L20.5576471,17.12 C20.5576471,14.32 18.8576471,12.48 16.0576471,12.48 C14.8176471,12.48 13.5176471,12.92 12.8176471,13.74 C12.9976471,10.66 14.3576471,9.7 15.8376471,9.7 C17.0176471,9.7 17.9976471,9.98 18.8976471,10.5 L19.8376471,8.38 C18.7576471,7.66 17.2976471,7.38 15.9976471,7.38 C12.8576471,7.38 10.2776471,8.86 10.2776471,15.22 L10.2776471,16.14 C10.2776471,19.84 11.7576471,22.24 15.4376471,22.24 Z M15.3776471,19.92 C13.7376471,19.92 12.8576471,19 12.8576471,17.44 L12.8576471,17.14 C12.8576471,15.82 13.6376471,14.72 15.4776471,14.72 C17.2376471,14.72 18.0376471,15.52 18.0376471,17.2 L18.0376471,17.42 C18.0376471,19.02 17.1376471,19.92 15.3776471,19.92 Z" id="6" fill="#FFFFFF" fill-rule="nonzero"></path>
            </g>
            <path d="M13.705,52.132 L13.705,46.216 L12.532,46.216 L12.532,48.154 L4.848,48.154 L4.848,46.216 L3.675,46.216 L3.675,52.132 L13.705,52.132 Z M12.532,51.095 L4.848,51.095 L4.848,49.157 L12.532,49.157 L12.532,51.095 Z M9.455,58.082 L9.455,54.954 L15.83,54.954 L15.83,53.934 L1.55,53.934 L1.55,54.954 L8.265,54.954 L8.265,58.082 L9.455,58.082 Z M14.045,61.125 L14.045,60.071 L4.865,60.071 L4.865,56.705 L3.658,56.705 L3.658,61.125 L14.045,61.125 Z M28.937,53.458 L28.937,45.774 L27.747,45.774 L27.747,53.458 L28.937,53.458 Z M17.054,53.747 C18.21,52.914 19.162,52.132 19.757,51.605 C20.505,50.959 20.93,50.483 21.015,50.211 L21.032,50.211 C21.134,50.5 21.763,51.044 22.562,51.673 C23.055,52.064 23.82,52.642 24.619,53.203 L25.299,52.336 C24.398,51.741 23.429,51.01 22.8,50.483 C21.729,49.582 21.576,49.191 21.576,47.95 L21.576,46.165 L20.352,46.165 L20.352,48.001 C20.352,49.242 20.08,49.82 19.094,50.721 C18.397,51.35 17.394,52.149 16.34,52.88 L17.054,53.747 Z M29.345,61.363 L29.345,60.343 L20.607,60.343 L20.607,58.371 L28.937,58.371 L28.937,54.376 L19.349,54.376 L19.349,55.413 L27.764,55.413 L27.764,57.368 L19.434,57.368 L19.434,61.363 L29.345,61.363 Z" id="" fill="#6E6E6E" fill-rule="nonzero"></path>
            <path d="M122.317,56.858 L122.317,45.774 L121.127,45.774 L121.127,56.858 L122.317,56.858 Z M110.519,54.988 C111.505,54.206 112.474,53.39 113.069,52.829 C113.817,52.115 114.344,51.588 114.395,51.299 L114.412,51.299 C114.497,51.571 114.956,52.03 115.738,52.693 C116.316,53.186 117.064,53.798 117.999,54.512 L118.713,53.679 C117.948,53.118 117.03,52.387 116.197,51.656 C115.058,50.636 114.956,50.228 114.956,48.97 L114.956,46.505 L113.732,46.505 L113.732,49.004 C113.732,50.296 113.613,50.721 112.542,51.792 C111.777,52.557 110.689,53.441 109.771,54.138 L110.519,54.988 Z M122.708,61.125 L122.708,60.071 L114.038,60.071 L114.038,55.94 L112.831,55.94 L112.831,61.125 L122.708,61.125 Z M135.713,56.093 C136.121,53.9 136.308,51.928 136.308,49.072 L136.308,47.236 L125.972,47.236 L125.972,48.29 L135.067,48.29 L135.067,49.701 C135.067,51.979 134.846,53.849 134.455,55.94 L135.713,56.093 Z M138.45,59.119 L138.45,58.082 L130.817,58.082 L130.817,52.115 L129.593,52.115 L129.593,58.082 L124.17,58.082 L124.17,59.119 L138.45,59.119 Z" id="" fill="#FF0000" fill-rule="nonzero"></path>
            <path d="M224.256,53.764 L224.256,45.774 L223.083,45.774 L223.083,49.174 L220.839,49.174 L220.839,45.978 L219.666,45.978 L219.666,53.73 L220.839,53.73 L220.839,50.245 L223.083,50.245 L223.083,53.764 L224.256,53.764 Z M214.685,53.356 C216.946,53.356 218.102,51.707 218.102,50.313 L218.102,49.463 C218.102,48.069 216.946,46.42 214.685,46.42 C212.424,46.42 211.268,48.069 211.268,49.463 L211.268,50.313 C211.268,51.707 212.424,53.356 214.685,53.356 Z M214.685,52.268 C213.24,52.268 212.441,51.231 212.441,50.194 L212.441,49.582 C212.441,48.545 213.24,47.508 214.685,47.508 C216.13,47.508 216.929,48.545 216.929,49.582 L216.929,50.194 C216.929,51.231 216.13,52.268 214.685,52.268 Z M224.256,61.295 L224.256,54.682 L223.083,54.682 L223.083,56.807 L215.773,56.807 L215.773,54.682 L214.6,54.682 L214.6,61.295 L224.256,61.295 Z M223.083,60.224 L215.773,60.224 L215.773,57.861 L223.083,57.861 L223.083,60.224 Z M242.038,61.312 L242.038,52.608 L244.622,52.608 L244.622,51.537 L242.038,51.537 L242.038,45.774 L240.831,45.774 L240.831,61.312 L242.038,61.312 Z M233.759,57.164 C235.663,57.164 237.703,57.045 239.505,56.722 L239.352,55.651 C237.448,55.974 235.799,56.076 234.065,56.076 L232.059,56.076 L232.059,48.273 L237.924,48.273 L237.924,47.185 L230.852,47.185 L230.852,57.164 L233.759,57.164 Z M251.745,52.353 C254.465,52.353 256.624,51.265 256.624,49.565 L256.624,48.919 C256.624,47.219 254.465,46.131 251.745,46.131 C249.025,46.131 246.866,47.219 246.866,48.919 L246.866,49.565 C246.866,51.265 249.025,52.353 251.745,52.353 Z M251.745,51.333 C249.79,51.333 248.022,50.568 248.022,49.48 L248.022,49.004 C248.022,47.916 249.79,47.151 251.745,47.151 C253.7,47.151 255.468,47.916 255.468,49.004 L255.468,49.48 C255.468,50.568 253.7,51.333 251.745,51.333 Z M252.527,58.014 L252.527,54.801 L258.885,54.801 L258.885,53.781 L244.605,53.781 L244.605,54.801 L251.337,54.801 L251.337,58.014 L252.527,58.014 Z M257.1,61.125 L257.1,60.071 L247.937,60.071 L247.937,56.535 L246.73,56.535 L246.73,61.125 L257.1,61.125 Z" id="" fill="#6E6E6E" fill-rule="nonzero"></path>
            <path d="M333.723,55.056 C334.505,54.495 335.661,53.577 336.256,53.05 C336.97,52.421 337.514,51.86 337.582,51.605 L337.599,51.605 C337.667,51.826 338.33,52.404 339.129,53.05 C339.639,53.458 340.455,54.07 341.135,54.546 L341.832,53.696 C340.863,53.05 339.911,52.336 339.367,51.877 C338.262,50.925 338.143,50.466 338.143,49.497 L338.143,48.613 L341.543,48.613 L341.543,47.576 L338.143,47.576 L338.143,45.638 L336.936,45.638 L336.936,47.576 L333.349,47.576 L333.349,48.613 L336.936,48.613 L336.936,49.548 C336.936,50.432 336.749,51.027 335.916,51.843 C335.083,52.659 333.995,53.492 332.992,54.206 L333.723,55.056 Z M345.47,55.073 L345.47,45.774 L344.28,45.774 L344.28,50.262 L341.101,50.262 L341.101,51.316 L344.28,51.316 L344.28,55.073 L345.47,55.073 Z M340.846,61.72 C343.481,61.72 345.555,60.632 345.555,58.898 L345.555,58.252 C345.555,56.518 343.481,55.43 340.846,55.43 C338.211,55.43 336.137,56.484 336.137,58.235 L336.137,58.898 C336.137,60.632 338.211,61.72 340.846,61.72 Z M340.846,60.7 C338.942,60.7 337.293,59.986 337.293,58.83 L337.293,58.32 C337.293,57.164 338.942,56.45 340.846,56.45 C342.75,56.45 344.399,57.164 344.399,58.32 L344.399,58.83 C344.399,59.986 342.75,60.7 340.846,60.7 Z M354.905,61.312 L354.905,54.954 L361.45,54.954 L361.45,53.917 L358.713,53.917 C359.036,52.37 359.223,50.449 359.223,48.647 L359.223,46.794 L349.04,46.794 L349.04,47.831 L357.999,47.831 L357.999,49.038 C357.999,50.517 357.812,52.387 357.472,53.917 L347.17,53.917 L347.17,54.954 L353.698,54.954 L353.698,61.312 L354.905,61.312 Z" id="" fill="#6E6E6E" fill-rule="nonzero"></path>
            <path d="M454.756,53.611 L454.756,50.194 L457.136,50.194 L457.136,49.14 L454.756,49.14 L454.756,45.774 L453.566,45.774 L453.566,53.611 L454.756,53.611 Z M452.155,52.387 L452.019,51.316 C449.435,51.656 447.99,51.724 444.692,51.724 L444.692,46.624 L443.485,46.624 L443.485,52.812 L444.343322,52.8110915 C448.30488,52.8020229 449.64229,52.7209677 452.155,52.387 Z M454.756,61.278 L454.756,54.529 L453.583,54.529 L453.583,56.722 L446.596,56.722 L446.596,54.529 L445.423,54.529 L445.423,61.278 L454.756,61.278 Z M453.583,60.207 L446.596,60.207 L446.596,57.776 L453.583,57.776 L453.583,60.207 Z M469.342,53.033 L469.342,46.369 L468.169,46.369 L468.169,48.698 L460.451,48.698 L460.451,46.369 L459.278,46.369 L459.278,53.033 L469.342,53.033 Z M468.169,52.03 L460.451,52.03 L460.451,49.735 L468.169,49.735 L468.169,52.03 Z M464.922,61.312 L464.922,56.144 L471.45,56.144 L471.45,55.107 L457.17,55.107 L457.17,56.144 L463.715,56.144 L463.715,61.312 L464.922,61.312 Z" id="" fill="#6E6E6E" fill-rule="nonzero"></path>
            <path d="M553.063,53.033 C554.44,52.489 555.766,51.877 556.684,51.418 C557.806,50.857 558.469,50.364 558.673,49.973 L558.69,49.973 C558.877,50.364 559.557,50.84 560.679,51.401 C561.597,51.86 562.889,52.455 564.266,52.999 L564.776,52.064 C563.518,51.588 562.141,50.976 561.053,50.415 C559.744,49.752 559.285,49.191 559.285,47.678 L559.285,46.318 L558.078,46.318 L558.078,47.678 C558.078,49.191 557.602,49.752 556.293,50.415 C555.205,50.976 553.794,51.605 552.536,52.081 L553.063,53.033 Z M559.302,61.312 L559.302,55.736 L565.83,55.736 L565.83,54.699 L551.55,54.699 L551.55,55.736 L558.095,55.736 L558.095,61.312 L559.302,61.312 Z M579.107,55.209 L579.107,45.774 L577.934,45.774 L577.934,47.95 L574.687,47.95 L574.687,48.987 L577.934,48.987 L577.934,50.721 L574.687,50.721 L574.687,51.758 L577.934,51.758 L577.934,55.209 L579.107,55.209 Z M575.605,54.104 L575.486,53.067 C573.412,53.305 571.27,53.339 568.346,53.339 L568.346,50.976 L573.497,50.976 L573.497,46.556 L567.173,46.556 L567.173,47.61 L572.324,47.61 L572.324,49.956 L567.173,49.956 L567.173,54.393 L568.031359,54.3922277 C571.755622,54.3850761 573.658207,54.3255862 575.605,54.104 Z M574.466,61.737 C577.22,61.737 579.192,60.683 579.192,58.983 L579.192,58.371 C579.192,56.688 577.22,55.617 574.466,55.617 C571.712,55.617 569.74,56.671 569.74,58.354 L569.74,58.983 C569.74,60.683 571.712,61.737 574.466,61.737 Z M574.466,60.717 C572.409,60.717 570.896,59.952 570.896,58.932 L570.896,58.422 C570.896,57.419 572.409,56.637 574.466,56.637 C576.523,56.637 578.036,57.402 578.036,58.422 L578.036,58.932 C578.036,59.952 576.523,60.717 574.466,60.717 Z" id="" fill="#6E6E6E" fill-rule="nonzero"></path>
        </g>
    </g>
</svg>