<?xml version="1.0" encoding="UTF-8"?>
<svg width="625px" height="761px" viewBox="0 0 625 761" version="1.1" xmlns="http://www.w3.org/2000/svg" xmlns:xlink="http://www.w3.org/1999/xlink">
    <title>img-m-01-6</title>
    <g id="img-m-01-6" stroke="none" stroke-width="1" fill="none" fill-rule="evenodd">
        <path d="M199.608,736.616 L199.608,715.256 L206.28,715.256 L206.28,710.552 L199.608,710.552 L199.608,694.328 L194.232,694.328 L194.232,736.616 L199.608,736.616 Z M188.28,726.008 L190.968,721.88 C188.856,720.92 187.12,719.824 185.76,718.592 C184.4,717.36 183.32,716.064 182.52,714.704 C181.72,713.344 181.168,711.968 180.864,710.576 C180.56,709.184 180.408,707.832 180.408,706.52 L180.408,706.52 L180.408,700.52 L189.864,700.52 L189.864,695.816 L165.48,695.816 L165.48,700.52 L174.936,700.52 L174.936,706.472 C174.936,708.552 174.744,710.472 174.36,712.232 C173.976,713.992 173.368,715.52 172.536,716.816 C171.704,718.112 170.608,719.128 169.248,719.864 C167.888,720.6 166.232,720.968 164.28,720.968 L164.28,720.968 L164.28,725.864 C165.976,725.832 167.592,725.568 169.128,725.072 C170.664,724.576 172.048,723.896 173.28,723.032 C174.512,722.168 175.552,721.168 176.4,720.032 C177.248,718.896 177.848,717.688 178.2,716.408 C178.968,718.36 180.224,720.184 181.968,721.88 C183.712,723.576 185.816,724.952 188.28,726.008 L188.28,726.008 Z M243.004,736.616 L243.004,694.328 L237.628,694.328 L237.628,736.616 L243.004,736.616 Z M210.076,727.112 C213.436,725.832 216.364,724.216 218.86,722.264 C221.356,720.312 223.444,718.144 225.124,715.76 C226.804,713.376 228.06,710.84 228.892,708.152 C229.724,705.464 230.14,702.728 230.14,699.944 L230.14,699.944 L230.14,695.816 L209.164,695.816 L209.164,700.52 L224.668,700.52 C224.668,705.896 223.172,710.448 220.18,714.176 C217.188,717.904 212.972,720.84 207.532,722.984 L207.532,722.984 L210.076,727.112 Z M281.984,715.496 L281.984,694.568 L276.608,694.568 L276.608,700.424 L258.272,700.424 L258.272,694.568 L252.896,694.568 L252.896,715.496 L281.984,715.496 Z M276.608,710.792 L258.272,710.792 L258.272,705.128 L276.608,705.128 L276.608,710.792 Z M270.128,737.576 L270.128,724.952 L287.408,724.952 L287.408,720.248 L247.472,720.248 L247.472,724.952 L264.752,724.952 L264.752,737.576 L270.128,737.576 Z M324.324,718.904 L324.324,708.728 L331.14,708.728 L331.14,704.024 L324.324,704.024 L324.324,694.328 L318.948,694.328 L318.948,718.904 L324.324,718.904 Z M300.084,716.936 C302.676,716.936 305.244,716.8 307.788,716.528 C310.332,716.256 312.516,715.8 314.34,715.16 L314.34,715.16 L313.476,710.84 C311.78,711.384 309.9,711.752 307.836,711.944 C305.772,712.136 303.636,712.232 301.428,712.232 L301.428,712.232 L297.588,712.232 L297.588,700.088 L311.7,700.088 L311.7,695.384 L288.228,695.384 L288.228,700.088 L292.212,700.088 L292.212,716.936 L300.084,716.936 Z M324.324,739.16 L324.324,721.304 L296.436,721.304 L296.436,739.16 L324.324,739.16 Z M318.996,734.552 L301.764,734.552 L301.764,725.912 L318.996,725.912 L318.996,734.552 Z M370.648,716.456 L370.648,711.752 L362.92,711.752 C363.144,710.664 363.36,709.48 363.568,708.2 C363.776,706.92 363.952,705.672 364.096,704.456 C364.24,703.24 364.352,702.128 364.432,701.12 C364.512,700.112 364.552,699.336 364.552,698.792 L364.552,698.792 L364.552,694.568 L335.992,694.568 L335.992,699.272 L358.984,699.272 C358.984,701.192 358.864,703.256 358.624,705.464 C358.384,707.672 358.04,709.768 357.592,711.752 L357.592,711.752 L330.712,711.752 L330.712,716.456 L370.648,716.456 Z M365.224,739.16 L365.224,721.592 L336.136,721.592 L336.136,739.16 L365.224,739.16 Z M359.896,734.552 L341.464,734.552 L341.464,726.2 L359.896,726.2 L359.896,734.552 Z M417.744,716.984 L417.744,707.72 L424.56,707.72 L424.56,703.016 L417.744,703.016 L417.744,694.472 L412.368,694.472 L412.368,716.984 L417.744,716.984 Z M393.744,715.208 C395.024,715.208 396.36,715.176 397.752,715.112 C399.144,715.048 400.504,714.936 401.832,714.776 C403.16,714.616 404.424,714.416 405.624,714.176 C406.824,713.936 407.872,713.64 408.768,713.288 L408.768,713.288 L407.856,709.016 C406.16,709.624 404.168,710.024 401.88,710.216 C399.592,710.408 397.344,710.504 395.136,710.504 L395.136,710.504 L390.048,710.504 L390.048,694.952 L384.672,694.952 L384.672,715.208 L393.744,715.208 Z M417.744,739.16 L417.744,719.24 L412.416,719.24 L412.416,725.144 L395.184,725.144 L395.184,719.24 L389.856,719.24 L389.856,739.16 L417.744,739.16 Z M412.416,734.552 L395.184,734.552 L395.184,729.656 L412.416,729.656 L412.416,734.552 Z M458.884,715.496 L458.884,694.568 L453.508,694.568 L453.508,700.424 L435.172,700.424 L435.172,694.568 L429.796,694.568 L429.796,715.496 L458.884,715.496 Z M453.508,710.792 L435.172,710.792 L435.172,705.128 L453.508,705.128 L453.508,710.792 Z M447.028,737.576 L447.028,724.952 L464.308,724.952 L464.308,720.248 L424.372,720.248 L424.372,724.952 L441.652,724.952 L441.652,737.576 L447.028,737.576 Z" id="자기부담금납부" fill="#242424" fill-rule="nonzero"></path>
        <g id="Group-186" transform="translate(23.000000, 162.000000)">
            <polygon id="Fill-1" fill="#EAC375" points="169.9285 393.1319 169.8175 283.9629 177.0145 269.2839 318.6385 268.9469 334.0215 283.3819 334.5295 392.9839"></polygon>
            <g id="Group-60" transform="translate(21.000000, 0.543000)">
                <path d="M322.9509,71.2911 C322.9509,110.4121 291.2379,142.1251 252.1169,142.1251 C212.9969,142.1251 181.2839,110.4121 181.2839,71.2911 C181.2839,32.1711 212.9969,0.4581 252.1169,0.4581 C291.2379,0.4581 322.9509,32.1711 322.9509,71.2911" id="Fill-2" fill="#F2F2F2"></path>
                <path d="M322.9509,71.2911 C322.9509,110.4121 291.2379,142.1251 252.1169,142.1251 C212.9969,142.1251 181.2839,110.4121 181.2839,71.2911 C181.2839,32.1711 212.9969,0.4581 252.1169,0.4581 C291.2379,0.4581 322.9509,32.1711 322.9509,71.2911 Z" id="Stroke-4" stroke="#B3B3B3" stroke-width="2"></path>
                <path d="M251.6892,73.6788 L251.2352,73.6788 L251.2352,73.2248 C251.2342,71.7598 251.2332,70.2138 251.2312,68.6448 C251.2312,58.4118 251.2832,49.1488 251.3662,42.4448 C251.4242,39.2118 251.4732,36.5368 251.5102,34.5048 C251.5652,32.6298 251.6262,31.5938 251.6882,31.5938 C251.7512,31.5938 251.8122,32.6298 251.8672,34.5048 C251.9042,36.5368 251.9532,39.2118 252.0112,42.4448 C252.0942,49.1488 252.1462,58.4118 252.1462,68.6448 C252.1442,70.2138 252.1432,71.7598 252.1422,73.2248 L251.6892,72.7718" id="Fill-6" fill="#B3B3B3"></path>
                <path d="M251.905,12.0157 C252.158,12.0157 252.363,14.6727 252.363,17.9497 C252.363,21.2267 252.158,23.8837 251.905,23.8837 C251.653,23.8837 251.449,21.2267 251.449,17.9497 C251.449,14.6727 251.653,12.0157 251.905,12.0157" id="Fill-8" fill="#B3B3B3"></path>
                <path d="M201.738,71.5333 C201.738,71.7853 198.316,71.9903 194.096,71.9903 C189.876,71.9903 186.454,71.7853 186.454,71.5333 C186.454,71.2813 189.876,71.0763 194.096,71.0763 C198.316,71.0763 201.738,71.2813 201.738,71.5333" id="Fill-10" fill="#E0E0E0"></path>
                <path d="M201.738,71.5333 C201.738,71.7853 198.316,71.9903 194.096,71.9903 C189.876,71.9903 186.454,71.7853 186.454,71.5333 C186.454,71.2813 189.876,71.0763 194.096,71.0763 C198.316,71.0763 201.738,71.2813 201.738,71.5333 Z" id="Stroke-12" stroke="#CCCCCC" stroke-width="0.392"></path>
                <path d="M316.738,71.5333 C316.738,71.7853 313.316,71.9903 309.096,71.9903 C304.876,71.9903 301.454,71.7853 301.454,71.5333 C301.454,71.2813 304.876,71.0763 309.096,71.0763 C313.316,71.0763 316.738,71.2813 316.738,71.5333" id="Fill-14" fill="#E0E0E0"></path>
                <path d="M316.738,71.5333 C316.738,71.7853 313.316,71.9903 309.096,71.9903 C304.876,71.9903 301.454,71.7853 301.454,71.5333 C301.454,71.2813 304.876,71.0763 309.096,71.0763 C313.316,71.0763 316.738,71.2813 316.738,71.5333 Z" id="Stroke-16" stroke="#CCCCCC" stroke-width="0.392"></path>
                <path d="M251.905,134.4673 C251.653,134.4673 251.449,130.8443 251.449,126.3763 C251.449,121.9063 251.653,118.2843 251.905,118.2843 C252.158,118.2843 252.363,121.9063 252.363,126.3763 C252.363,130.8443 252.158,134.4673 251.905,134.4673" id="Fill-18" fill="#E0E0E0"></path>
                <path d="M251.905,134.4673 C251.653,134.4673 251.449,130.8443 251.449,126.3763 C251.449,121.9063 251.653,118.2843 251.905,118.2843 C252.158,118.2843 252.363,121.9063 252.363,126.3763 C252.363,130.8443 252.158,134.4673 251.905,134.4673 Z" id="Stroke-20" stroke="#CCCCCC" stroke-width="0.392"></path>
                <path d="M252.0896,73.5191 L251.6896,73.3071 L251.8496,73.0041 C252.3666,72.0271 252.9126,70.9971 253.4666,69.9521 C257.0866,63.1361 260.4076,56.9911 262.8526,52.5641 C264.0486,50.4391 265.0376,48.6801 265.7896,47.3441 C266.5006,46.1221 266.9206,45.4591 266.9766,45.4891 C267.0316,45.5191 266.7186,46.2371 266.1046,47.5111 C265.4176,48.8821 264.5146,50.6861 263.4236,52.8671 C261.1246,57.3721 257.8936,63.5651 254.2746,70.3801 C253.7176,71.4251 253.1696,72.4541 252.6506,73.4301 L252.4096,72.9151" id="Fill-22" fill="#B3B3B3"></path>
                <path d="M16.8474,169.3321 C18.9234,165.8731 17.5764,164.3221 18.1884,161.2531 C22.7384,138.4051 42.4164,102.1181 56.7334,102.1181 C68.6544,102.1181 81.7854,104.9481 84.0884,115.6641 C85.4684,122.0721 85.1964,128.3271 85.7924,134.9611 C86.1494,138.9071 92.2244,142.0381 92.9174,144.0991 C94.0954,147.6031 91.3924,148.4681 90.1154,150.7831 C87.3454,155.8001 85.4164,167.8971 86.2494,172.7091 C87.1814,178.1011 85.7744,183.8451 79.9804,184.4941 C68.8964,185.7351 71.0334,184.7571 68.5304,186.9571 C66.4584,188.7741 62.8454,195.0221 62.6624,199.1771 L16.8474,169.3321 Z" id="Fill-24" fill="#FEEDE5"></path>
                <path d="M516.5076,168.1597 C514.4186,161.9417 512.9866,158.0997 512.6166,154.9927 C509.8776,131.8567 493.1206,94.1337 478.8456,93.0067 C466.9616,92.0687 453.6496,93.8567 450.5106,104.3587 C448.6306,110.6377 448.4096,116.8947 447.2896,123.4617 C446.6266,127.3667 440.3216,130.0107 439.4686,132.0097 C438.0186,135.4097 440.6466,136.4857 441.7376,138.8937 C444.1026,144.1137 445.0736,156.3247 443.8656,161.0557 C442.5136,166.3577 443.0976,171.4887 448.8206,172.5917 C459.7766,174.7017 464.7556,174.2037 467.4826,176.9317 C469.4326,178.8797 474.2416,188.4647 474.3056,194.7257 C474.3116,195.3327 467.6946,208.8197 465.0696,214.5407 C463.8836,217.1227 469.9556,216.1797 475.9126,212.1957 C481.8666,208.2147 492.3946,200.1687 499.8796,193.8647 C504.9226,189.6167 513.1326,184.8697 518.4196,181.9417 C522.0256,179.9437 524.6106,179.3627 522.5786,178.1177 C520.0156,176.5477 517.2736,170.4417 516.5076,168.1597" id="Fill-26" fill="#FEEDE5"></path>
                <path d="M443.9089,154.3277 C443.9089,154.3277 444.2149,149.3467 443.8209,148.4727 C443.4279,147.5987 445.2799,148.2827 446.7659,148.1517 C448.2529,148.0207 451.6149,146.7227 452.1299,148.1647 C452.6469,149.6047 450.7769,151.3007 448.4519,153.4077 C446.1279,155.5147 443.9089,154.3277 443.9089,154.3277" id="Fill-28" fill="#FCD5CB"></path>
                <path d="M472.3201,108.6026 C472.1321,106.3656 471.3241,103.7546 472.9401,103.5066 C474.5561,103.2576 477.1051,103.0096 478.6581,103.3826 C480.2111,103.7546 484.0641,106.8006 486.3041,107.9816 C488.5411,109.1626 505.3191,117.2416 508.9881,118.9196 C512.6541,120.5976 525.2101,125.3206 527.1981,125.9426 C529.1871,126.5636 529.2481,126.4396 527.9431,128.7396 C526.6381,131.0386 524.0901,136.2596 522.1001,139.5536 C520.1121,142.8476 518.3111,146.0166 517.3151,149.0616 C516.3221,152.1076 516.8191,155.4636 515.2021,156.0226 C513.5861,156.5816 514.5181,157.2036 512.0331,156.8316 C509.5491,156.4576 505.0711,154.8426 502.5221,153.7856 C499.9761,152.7286 495.1281,149.6216 493.8231,148.0056 C492.5181,146.3896 492.5181,145.3956 493.3871,144.1526 C494.2581,142.9096 496.1241,139.8636 496.1841,137.9996 C496.2481,136.1346 496.8071,134.0836 495.8761,132.2196 C494.9431,130.3546 494.0711,129.4226 492.3311,128.8636 C490.5911,128.3046 489.8451,128.3666 488.7891,129.1126 C487.7331,129.8576 486.2411,132.4686 485.1211,133.8356 C484.0041,135.2026 482.3271,135.6376 480.9591,135.5756 C479.5911,135.5136 480.3981,135.3276 481.3311,133.5866 C482.2631,131.8466 482.4511,129.4226 482.0761,127.4346 C481.7041,125.4456 480.2911,122.7816 479.0491,120.4826 C477.8051,118.1836 475.9321,116.5476 474.3801,114.9316 C472.8241,113.3156 472.5051,110.8406 472.3201,108.6026" id="Fill-30" fill="#4D4D4D"></path>
                <path d="M17.9246,163.4766 C17.9246,163.4766 14.6806,163.6516 14.8796,159.3646 C15.0826,155.0786 14.7466,153.0016 13.4756,150.1886 C12.2006,147.3756 10.1916,142.6206 8.6536,140.0076 C7.1126,137.3956 4.6336,134.3146 3.9646,131.7026 C3.2926,129.0906 2.4236,125.1386 1.5526,123.2636 C0.6806,121.3876 0.8166,118.1726 1.3526,116.2306 C1.8886,114.2886 3.4286,107.1216 4.9696,104.5766 C6.5076,102.0316 9.4556,98.4146 11.4656,97.4096 C13.4756,96.4046 17.4916,95.2666 19.0996,94.5296 C20.7066,93.7926 21.8786,92.1336 23.9906,89.8416 C26.1006,87.5506 28.5706,85.2226 31.4826,84.3956 C34.3946,83.5686 42.5066,82.8186 45.5396,83.1866 C48.5726,83.5556 54.0516,85.1746 57.0096,85.5266 C59.9666,85.8786 61.9486,86.5956 64.6336,85.9126 C67.3196,85.2296 70.5456,83.5706 72.9096,84.4756 C75.2776,85.3806 77.9766,86.3986 79.9296,88.1386 C81.8816,89.8796 83.2346,92.1146 84.4606,92.3466 C85.6836,92.5786 86.4096,91.7006 87.5746,93.8496 C88.7406,95.9986 90.3176,99.1896 89.4856,102.7866 C88.6506,106.3836 88.2596,110.3176 86.5586,112.0756 C84.8546,113.8336 83.9006,115.1246 83.2106,113.6746 C82.5206,112.2246 81.1886,110.1456 80.4706,109.6546 C79.7506,109.1626 76.3816,110.3506 74.6316,110.4766 C72.8826,110.6016 69.5436,111.0846 68.3086,111.7136 C67.0736,112.3416 64.0736,114.5146 63.4846,116.0256 C62.8936,117.5376 61.9156,120.5486 61.2856,122.0026 C60.6536,123.4556 59.1636,125.5996 56.8546,128.4916 C54.5446,131.3826 52.6226,132.5866 52.2996,135.5656 C51.9786,138.5446 51.7636,140.0926 52.0996,141.3976 C52.4356,142.7026 52.4956,148.4456 49.6536,144.9466 C46.8086,141.4476 46.5236,140.1396 45.0556,138.7616 C43.5876,137.3836 40.7576,135.4646 38.7536,137.3526 C36.7496,139.2406 35.7026,140.4336 35.6906,142.9476 C35.6656,146.9136 36.6896,150.2696 38.0846,152.0146 C39.4806,153.7586 39.3766,154.2826 37.6856,155.6886 C35.9926,157.0946 32.5966,159.6866 30.1936,160.5706 C27.7866,161.4556 24.5356,162.7706 22.5596,163.1416 C20.5826,163.5126 17.9246,163.4766 17.9246,163.4766" id="Fill-32" fill="#4D4D4D"></path>
                <path d="M465.4119,215.358 C466.9829,215.479 470.6089,215.297 473.9329,213.002 C477.2569,210.706 484.9909,205.811 488.4959,202.79 C491.9979,199.768 501.1839,193.243 503.3579,191.37 C505.5339,189.496 511.3339,185.81 515.5059,183.393 C519.6729,180.976 520.8809,179.888 522.6339,179.526 C524.3869,179.164 524.4949,180.238 527.1259,182.931 C529.7529,185.624 533.3429,188.061 535.4589,190.562 C537.5749,193.062 541.4249,196.91 542.6409,198.898 C543.8609,200.885 546.3619,205.181 548.0939,209.67 C549.8249,214.159 551.8769,218.519 553.0939,222.943 C554.3129,227.368 556.4269,237.232 556.9889,243.392 C557.5559,249.552 557.6489,265.566 557.0159,270.833 C556.3809,276.1 550.1989,293.245 549.3569,299.052 C548.5179,304.859 546.7379,312.361 545.2699,318.938 C543.7989,325.513 544.2549,332.61 543.9739,336.249 C543.6949,339.887 543.1589,343.608 543.6189,345.302 C544.0829,347 543.3779,346.086 541.0649,347.603 C538.7519,349.119 531.4539,354.089 528.1999,356.408 C524.9429,358.727 519.2739,362.262 515.6409,363.725 C512.0129,365.19 506.5359,366.275 503.5159,365.386 C500.4979,364.493 499.5679,364.998 497.8039,361.685 C496.0359,358.366 494.1679,355.827 493.6199,354.12 C493.0719,352.409 494.2589,349.912 495.3309,348.148 C496.4019,346.383 500.9419,338.74 502.9319,334.838 C504.9199,330.936 507.8979,325.948 509.6509,322.676 C511.4039,319.403 512.8629,317.199 513.2989,316.136 C513.7339,315.073 513.7859,314.484 510.5679,312.588 C507.3529,310.692 501.0999,307.879 497.5639,306.175 C494.0259,304.471 486.7339,301.318 483.0139,298.946 C479.2939,296.574 473.9509,293.35 472.8279,292.838 C471.7049,292.326 471.8079,292.621 471.4509,294.187 C471.0939,295.752 469.5769,302.707 468.8169,304.796 C468.0579,306.884 467.3649,308.184 466.5929,305.434 C465.8209,302.683 464.6489,296.318 463.8619,292.711 C463.0719,289.104 462.4189,283.202 461.8249,280.161 C461.2289,277.12 461.7649,276.015 458.8739,273.087 C455.9799,270.158 443.8389,265.616 441.9769,264.464 C440.1159,263.312 438.3509,263.36 439.1109,261.651 C439.8709,259.943 445.4859,249.751 447.9919,245.062 C450.4959,240.373 457.1579,229.444 459.5889,224.957 C462.0189,220.469 463.8419,215.237 465.4119,215.358" id="Fill-34" fill="#FC3500"></path>
                <path d="M439.1287,262.066 C439.9497,262.329 445.0107,262.852 447.1777,261.391 C449.3457,259.929 454.1037,254.927 455.9527,252.259 C457.8057,249.59 462.9967,241.165 465.0367,238.033 C467.0767,234.903 472.9577,227.617 475.6857,223.973 C478.4097,220.33 482.5687,215.241 486.5277,211.103 C490.4867,206.964 498.0787,200.536 501.5057,198.4 C504.9317,196.264 512.4957,192.155 516.0927,190.961 C519.6917,189.767 526.6497,188.568 529.8347,188.965 C533.0197,189.363 533.7547,188.919 536.0647,191.147 C538.3737,193.376 542.1847,197.899 543.3047,199.896 C544.4247,201.891 544.4737,202.816 540.6227,201.099 C536.7727,199.383 540.9707,196.991 530.1217,198.425 C519.2767,199.858 519.7317,197.967 512.9417,200.964 C506.1497,203.961 503.2877,205.567 500.4847,208.037 C497.6827,210.508 486.4557,222.222 483.8767,225.275 C481.2947,228.328 471.5637,240.554 469.0807,245.881 C466.5987,251.207 461.2107,262.223 461.0287,265.915 C460.8477,269.607 461.3317,277.173 461.8767,279.473 C462.4217,281.773 463.2507,287.298 463.8587,291.397 C464.4677,295.496 465.6087,302.804 466.3897,305.041 C467.1737,307.277 467.8067,307.734 466.8617,310.693 C465.9207,313.652 463.2447,319.845 461.1357,322.591 C459.0247,325.339 457.8197,327.885 455.6777,328.933 C453.5347,329.98 452.8507,331.399 449.8197,331.012 C446.7907,330.628 438.4867,331.793 434.5337,332.117 C430.5777,332.441 423.1287,333.763 420.3317,334.52 C417.5347,335.277 417.1597,333.179 417.144489,331.563 C417.1327,329.95 417.6317,318.343 418.5667,312.297 C419.5027,306.25 422.4147,295.531 424.7777,290.364 C427.1427,285.196 430.9897,275.962 433.0247,272.003 C435.0587,268.045 438.3127,261.804 439.1287,262.066" id="Fill-36" fill="#FC3500"></path>
                <path d="M418.7976,374.7677 C418.7976,374.7677 416.5606,370.7847 418.0286,370.9237 C419.4966,371.0627 423.6226,371.6927 426.2796,371.4837 C428.9356,371.2717 442.7106,371.6927 446.3456,371.344701 C449.9846,370.9937 466.2756,371.344701 469.0716,371.0627 C471.8686,370.7847 474.3186,370.9937 476.0646,370.5727 C477.8146,370.1547 479.6996,369.4557 481.1706,367.8477 C482.6396,366.2377 486.2746,362.8807 487.8816,359.8747 C489.4916,356.8697 491.5896,353.9297 492.4976,352.4617 C493.4056,350.9947 493.9656,351.2057 494.4566,352.4617 C494.9436,353.7217 496.5356,357.3837 497.9216,358.8517 C499.3086,360.3207 502.0026,362.9587 504.3906,363.1047 C506.7816,363.2467 513.8926,363.1597 516.5986,361.4497 C519.3046,359.7397 525.0626,356.8117 528.2846,354.5267 C531.5126,352.2417 536.8336,348.5807 539.5976,346.8767 C542.3576,345.1707 542.5066,343.0377 543.8176,344.1547 C545.1286,345.2707 544.9166,346.8757 544.4296,350.0567 C543.9396,353.2357 542.7936,358.3547 542.1826,361.0457 C541.5706,363.7337 540.3876,368.2497 539.9126,373.4867 C539.4346,378.7237 537.2786,397.7337 537.2786,397.7337 C537.2786,397.7337 537.7176,406.3867 497.5076,420.1997 C468.2096,430.2637 425.7656,435.9997 425.7656,435.9997 C425.7656,435.9997 421.9546,418.6797 421.4256,414.6297 C420.8986,410.5827 420.3256,401.3417 420.2806,397.9087 C420.2386,394.4727 420.1056,388.0047 419.9726,384.2627 C419.8416,380.5257 418.7976,374.7677 418.7976,374.7677" id="Fill-38" fill="#FC3500"></path>
                <path d="M478.3552,103.5113 C478.3552,103.5113 472.8552,103.6273 470.1652,103.4343 C467.4732,103.2413 456.8222,102.5113 453.6272,102.0883 C450.4372,101.6653 445.5552,101.3963 442.9012,100.6653 C440.2462,99.9353 435.2882,97.5123 433.4022,96.5893 C431.5192,95.6673 426.9032,93.2443 425.0202,91.8603 C423.1342,90.4753 420.4042,88.0913 420.1742,86.7453 C419.9442,85.3993 419.7902,83.7083 422.0962,84.0153 C424.4062,84.3233 428.5592,84.3613 430.5172,84.8613 C432.4792,85.3613 440.2092,85.9003 442.9012,85.2453 C445.5912,84.5923 450.6682,84.2073 453.1282,82.7853 C455.5892,81.3623 460.0242,78.6163 463.7352,76.2473 C467.4492,73.8773 473.1732,70.7643 477.2452,69.5103 C481.3152,68.2553 488.7682,66.9673 493.4812,67.2673 C498.1972,67.5683 506.8932,69.4243 510.1262,71.0433 C513.3592,72.6633 521.6322,77.7173 525.5132,82.3063 C529.3972,86.8953 532.7832,92.9473 534.7682,97.3573 C536.7542,101.7683 535.7712,107.0663 535.5172,110.6833 C535.2632,114.3013 536.7652,113.5633 534.8392,116.5843 C532.9182,119.6053 531.9742,121.7883 531.0182,123.6933 C530.0582,125.5983 529.5202,126.4973 528.4422,126.3883 C527.3652,126.2793 522.0802,124.2073 517.3392,122.3683 C512.5992,120.5303 503.2582,116.8793 500.3282,115.4543 C497.3982,114.0303 488.4932,109.2253 485.8832,107.6433 C483.2742,106.0613 478.3552,103.5113 478.3552,103.5113" id="Fill-40" fill="#FC3500"></path>
                <path d="M77.8337,141.0372 C77.2667,141.0372 76.7257,140.8182 76.3057,140.4132 C75.8537,139.9782 75.5847,139.3612 75.5727,138.7172 C75.5487,137.4162 76.5387,136.3342 77.7807,136.3082 C79.1607,136.2312 80.0567,137.3282 80.0897,138.6192 L80.0897,138.6282 C80.1127,139.9292 79.1227,141.0112 77.8817,141.0372 L77.8337,141.0372 Z" id="Fill-42" fill="#000000"></path>
                <path d="M73.0691,129.0831 C72.7021,129.0831 72.3391,128.9531 72.0461,128.6871 C71.4311,128.1231 71.3871,127.1651 71.9521,126.5471 C74.1691,124.1291 79.3391,123.7001 82.1411,124.9541 C82.9031,125.2931 83.2461,126.1891 82.9031,126.9521 C82.5601,127.7141 81.6651,128.0631 80.9051,127.7141 C79.1731,126.9371 75.4041,127.2591 74.1861,128.5921 C73.8871,128.9171 73.4771,129.0831 73.0691,129.0831" id="Fill-44" fill="#000000"></path>
                <path d="M454.8171,130.1856 C454.7461,130.1856 454.6771,130.1826 454.6101,130.1766 C453.9831,130.1176 453.4041,129.7836 453.0251,129.2606 C452.6851,128.7906 452.5261,128.2056 452.5821,127.6106 C452.7061,126.3106 453.8091,125.3586 455.0501,125.4676 C455.6321,125.5236 456.1621,125.8046 456.5431,126.2666 C456.9421,126.7476 457.1371,127.3946 457.0781,128.0336 C457.0221,128.6666 456.7121,129.2666 456.2301,129.6686 C455.8221,130.0056 455.3281,130.1856 454.8171,130.1856" id="Fill-46" fill="#000000"></path>
                <path d="M459.7683,118.2076 C459.3193,118.2076 458.8753,118.0096 458.5773,117.6286 C457.4353,116.1686 453.7583,115.5946 451.9413,116.2396 C451.1543,116.5286 450.2913,116.1126 450.0073,115.3226 C449.7263,114.5366 450.1373,113.6706 450.9233,113.3896 C453.8173,112.3606 458.9403,113.1836 460.9593,115.7606 C461.4743,116.4196 461.3583,117.3716 460.7023,117.8856 C460.4243,118.1016 460.0963,118.2076 459.7683,118.2076" id="Fill-48" fill="#000000"></path>
                <path d="M87.2664,165.2476 C87.2664,165.2476 86.9604,160.2666 87.3544,159.3926 C87.7454,158.5186 86.0404,158.7366 84.5574,158.6056 C83.0714,158.4746 80.0804,157.7686 79.5624,159.2106 C79.0484,160.6506 78.8214,161.9346 81.1464,164.0416 C83.4734,166.1486 87.2664,165.2476 87.2664,165.2476" id="Fill-50" fill="#FCD5CB"></path>
                <path d="M457.9949,281.1856 L457.9949,276.8136 C457.9949,275.6476 458.3219,274.6396 459.1749,274.3286 L462.8179,273.0306 C462.9099,272.8026 463.0799,272.3466 463.0659,271.7056 C463.0199,269.4916 461.8069,267.8856 460.1329,267.3366 L450.1539,264.2186 L452.7579,263.2866 C452.8969,263.2366 453.0709,263.2086 453.2239,263.2086 C453.3879,263.2086 453.5819,263.2426 453.7119,263.2836 L463.8909,266.4656 C465.6629,267.0566 466.3229,269.1726 466.3229,270.3186 C466.3229,271.2476 466.0079,272.3206 465.0179,272.6806 C464.1409,272.9996 461.5049,273.9446 461.5049,273.9446 C461.4079,274.1716 461.2469,274.6006 461.2469,275.5406 L461.2469,279.4806 C461.2469,280.7206 460.6499,281.8456 459.5039,281.8456 C459.0069,281.8456 458.4399,281.6136 457.9959,281.1856" id="Fill-52" fill="#FFFFFF"></path>
                <path d="M455.3855,271.2476 C455.9095,272.0436 456.1755,273.0456 456.1755,273.8946 L456.1755,277.5626 C456.1755,279.8326 457.2255,281.6836 458.9535,282.2116 L456.2845,283.1336 C455.7505,283.3186 455.2265,283.1266 454.9095,282.9236 C453.6115,282.0916 452.9245,280.8006 452.9245,278.8176 C452.9245,277.8856 452.9195,276.6106 452.9195,274.9676 C452.9195,274.0306 452.5205,272.9376 451.9055,272.1296 C451.4425,271.5206 450.9075,271.1396 450.2275,270.8966 C448.9135,270.4276 447.8545,268.7226 447.8545,267.0476 C447.8545,265.6076 448.5855,264.7016 449.5595,264.6316 C449.7705,264.6176 449.9475,264.6546 450.1155,264.7066 C450.6955,264.8826 451.1605,265.0426 451.1605,265.0426 C450.8395,266.7086 451.8105,269.2636 453.7685,269.9556 C454.5375,270.2266 454.9925,270.6496 455.3855,271.2476" id="Fill-54" fill="#FFFFFF"></path>
                <path d="M243.906,270.3541 C243.906,270.3541 244.433,292.8101 244.088,301.0561 C243.727,309.6501 244.026,332.0711 242.815,333.2771 C241.87,334.2161 239.693,326.4771 239.054,325.1581 C238.06,323.1061 237.006,329.2661 235.174,328.2931 C234.51,327.9411 232.635,321.4721 230.663,320.2321 C229.428,319.4571 227.353,325.3201 226.26,326.5251 C225.875,326.9521 225.138,326.7341 224.592,325.2371 C223.594,322.4991 222.662,317.3631 221.653,317.3631 C219.862,317.3631 219.246,322.3581 218.335,323.3391 C217.166,324.5971 216.674,321.8271 216.437,317.4431 C216.003,309.3641 216.679,287.7951 216.679,287.7951 L216.924,269.1481 L243.906,270.3541 Z" id="Fill-56" fill="#FFEDDA"></path>
                <path d="M418.7976,374.7677 C418.7976,374.7677 419.0596,422.8367 425.7656,435.9997" id="Stroke-58" stroke="#000000" stroke-width="2" stroke-linecap="round" stroke-linejoin="round"></path>
            </g>
            <polygon id="Stroke-61" stroke="#000000" stroke-width="2" stroke-linecap="round" stroke-linejoin="round" points="168.9089 283.6481 168.9869 394.7821 333.5879 394.6341 333.0789 285.0321"></polygon>
            <polyline id="Stroke-62" stroke="#000000" stroke-width="2" stroke-linecap="round" stroke-linejoin="round" points="168.9089 283.6481 177.0829 269.3121 317.7979 270.0331 333.0789 285.0321"></polyline>
            <g id="Group-185" transform="translate(0.000000, 67.543000)">
                <path d="M493.1589,225.0543 C493.1589,225.0543 501.4739,229.9893 503.5029,231.3413 C505.5299,232.6933 514.5229,237.1553 517.7679,238.1693 C521.0129,239.1833 526.9609,242.1583 529.3949,243.7123 C531.8279,245.2673 536.4269,246.4843 534.8049,248.8503 C533.1809,251.2173 525.0689,266.3613 523.6499,268.7253 C522.2299,271.0923 516.0609,282.0343 514.2089,285.0553 C512.3589,288.0793 509.0349,294.9053 506.9259,297.7443 C504.8159,300.5813 499.6769,305.6753 496.7639,305.8623 C493.8489,306.0473 485.6099,306.3163 480.3099,306.3263 C475.0069,306.3353 453.9359,306.8343 449.6619,306.5863 C445.3879,306.3383 429.6749,304.9243 425.6949,304.5613 C421.7139,304.2013 411.2439,301.9253 405.0229,300.4773 C398.8059,299.0343 381.0109,295.9403 377.6109,295.6623 C374.2149,295.3873 370.6919,294.2003 367.5739,295.5443 C364.4569,296.8903 363.9269,297.5623 360.9299,298.9133 C357.9359,300.2623 347.6049,303.1233 344.1149,304.7063 C340.6249,306.2893 336.1729,308.1303 332.9909,310.6243 C329.8069,313.1183 325.6839,316.3893 323.0659,317.8703 C320.4509,319.3533 314.5599,321.5063 312.2349,322.2233 C309.9139,322.9403 305.5099,323.7363 306.4089,321.0973 C307.3049,318.4583 311.0919,315.9913 312.7649,315.2883 C314.4389,314.5863 317.0059,314.2263 318.4979,312.7793 C319.9909,311.3353 320.6779,310.4583 321.6979,308.9473 C322.7149,307.4363 322.5119,306.7733 320.5049,307.3643 C318.4979,307.9513 315.5539,308.9833 312.8349,309.1593 C310.1169,309.3343 304.5129,309.0983 301.4929,308.8323 C298.4689,308.5683 292.7539,307.9573 290.6329,307.5663 C288.5109,307.1733 287.1149,306.4313 286.1429,305.2213 C285.1719,304.0103 284.8169,302.0763 283.7879,301.3013 C282.7629,300.5263 281.9149,298.9673 282.3349,297.8953 C282.7529,296.8243 284.2089,296.1253 285.8879,295.5743 C287.5689,295.0263 294.9759,293.3973 297.9179,292.7283 C300.8599,292.0593 307.4469,291.2123 309.3899,290.1713 C311.3299,289.1333 315.2169,287.6983 316.1309,286.5293 C317.0449,285.3583 317.4779,284.0903 314.7259,284.0683 C311.9779,284.0473 307.3229,283.9233 304.7529,283.9593 C302.1799,283.9993 298.3599,283.4053 295.7289,283.9233 C293.1019,284.4433 287.0149,285.9483 284.3179,286.5623 C281.6179,287.1773 279.1409,288.1453 277.9729,287.2013 C276.8019,286.2603 276.5689,284.4043 277.4229,283.2063 C278.2729,282.0083 282.4989,278.9323 284.4939,278.2083 C286.4909,277.4823 295.3079,275.5723 298.8589,274.9183 C302.4099,274.2613 309.9499,273.5743 312.8129,273.1893 C315.6779,272.8083 319.0669,272.2213 321.1559,271.2673 C323.2469,270.3113 327.4489,268.7583 328.9559,267.3753 C330.4639,265.9923 332.5409,264.2003 332.8249,261.9593 C333.1089,259.7203 332.9849,258.2553 332.0499,256.6653 C331.1149,255.0793 329.2019,253.3693 326.8799,252.5143 C324.5579,251.6583 321.1379,250.9263 319.5099,250.0303 C317.8809,249.1353 316.4549,247.3033 315.6399,245.1853 C314.8269,243.0683 314.3789,240.0143 315.6399,239.8523 C316.9029,239.6893 318.4109,240.5433 319.5909,241.2363 C320.7709,241.9283 326.8379,243.5973 328.7109,243.9643 C330.5849,244.3303 333.3539,245.9593 333.3539,244.7783 C333.3539,243.5973 333.7209,233.9483 333.7209,233.9483 C333.7209,233.9483 335.2249,233.5413 336.3239,234.7623 C337.4259,235.9833 341.8629,240.6253 342.8809,241.7653 C343.8969,242.9053 345.7709,245.7153 346.5459,247.6283 C347.3179,249.5423 347.3929,251.6253 348.9519,253.5183 C350.5119,255.4093 352.8629,257.5253 354.8429,258.2033 C356.8229,258.8783 361.7739,259.9133 363.6699,259.8833 C365.5639,259.8503 379.5369,259.1293 384.3879,258.9053 C389.2409,258.6813 398.6639,258.1853 402.7319,257.2983 C406.7969,256.4083 414.2369,255.0313 417.5669,254.2503 C420.8999,253.4683 427.3919,251.5383 430.2139,250.9503 C433.0319,250.3623 436.3859,249.7263 437.7089,248.7263 C439.0309,247.7253 439.2249,249.0463 438.9679,251.0003 C438.7109,252.9543 438.6319,261.0853 438.4319,264.0513 C438.2319,267.0143 439.1429,267.5113 440.8659,267.2023 C442.5879,266.8933 451.3329,265.4163 455.2919,264.8453 C459.2549,264.2693 465.6329,264.0363 468.2929,263.8003 C470.9569,263.5643 475.1389,263.1553 477.7279,260.3953 C480.3129,257.6343 483.2209,254.9343 484.5689,251.9743 C485.9159,249.0143 488.3739,244.1653 489.3269,239.8843 C490.2809,235.6023 493.1589,225.0543 493.1589,225.0543" id="Fill-63" fill="#FEEDE5"></path>
                <path d="M38.324,101.4385 C38.324,101.4385 39.989,97.3245 39.776,96.4705" id="Stroke-65" stroke="#000000" stroke-width="2" stroke-linecap="round" stroke-linejoin="round"></path>
                <path d="M35.8328,91.6461 C35.8328,91.6461 32.4468,77.0131 27.8018,70.1221 C23.1558,63.2301 24.3928,56.7171 22.8198,54.8191" id="Stroke-67" stroke="#000000" stroke-width="2" stroke-linecap="round" stroke-linejoin="round"></path>
                <path d="M20.1589,55.3736 C20.1589,55.3736 24.2719,42.9286 25.4709,38.5516 C26.6699,34.1746 33.2699,27.4646 40.8129,27.3206" id="Stroke-69" stroke="#000000" stroke-width="2" stroke-linecap="round" stroke-linejoin="round"></path>
                <path d="M42.1589,25.9673 C42.1589,25.9673 48.6979,15.9033 57.6189,16.0453 C66.5399,16.1873 80.1589,21.4683 87.1419,18.4653" id="Stroke-71" stroke="#000000" stroke-width="2" stroke-linecap="round" stroke-linejoin="round"></path>
                <path d="M93.4568,17.335 C93.4568,17.335 102.2648,20.61 104.8018,25.051" id="Stroke-73" stroke="#000000" stroke-width="2" stroke-linecap="round" stroke-linejoin="round"></path>
                <path d="M107.4871,24.4561 C107.4871,24.4561 110.9071,25.7351 110.4851,35.7871 C110.0631,45.8381 104.8011,47.5561 104.8011,47.5561" id="Stroke-75" stroke="#000000" stroke-width="2" stroke-linecap="round" stroke-linejoin="round"></path>
                <path d="M84.7654,48.5035 C85.3034,47.8135 88.2034,44.0585 95.2154,42.7055 C102.2284,41.3515 106.4804,39.4335 106.2224,31.8075" id="Stroke-77" stroke="#000000" stroke-width="2" stroke-linecap="round" stroke-linejoin="round"></path>
                <path d="M72.9685,73.5997 C72.9685,73.5997 69.7605,69.3987 74.9055,64.9067 C80.0495,60.4137 83.2015,57.3877 81.4895,52.5897" id="Stroke-79" stroke="#000000" stroke-width="2" stroke-linecap="round" stroke-linejoin="round"></path>
                <path d="M68.9705,91.6944 C68.6985,91.9254 57.0745,90.2024 56.7105,80.6654 C56.3475,71.1294 61.4975,69.5714 61.4975,69.5714 C61.4975,69.5714 64.9435,67.8524 66.3215,71.6704" id="Stroke-81" stroke="#000000" stroke-width="2" stroke-linecap="round" stroke-linejoin="round"></path>
                <path d="M61.0701,79.0298 C61.0701,79.0298 65.5081,79.6658 67.3311,82.0268" id="Stroke-83" stroke="#000000" stroke-width="2" stroke-linecap="round" stroke-linejoin="round"></path>
                <path d="M36.4841,95.1954 C36.4841,95.1954 50.8081,97.8284 59.2541,87.6574" id="Stroke-85" stroke="#000000" stroke-width="2" stroke-linecap="round" stroke-linejoin="round"></path>
                <path d="M106.9304,70.085 C106.9304,70.085 109.0424,73.4 112.4134,75.216 C115.7844,77.032 113.7204,80.45 113.7204,80.45 L110.6384,84.733" id="Stroke-87" stroke="#000000" stroke-width="2" stroke-linecap="round" stroke-linejoin="round"></path>
                <path d="M108.4109,91.5797 L100.9319,91.7137 C100.9319,91.7137 98.9329,94.2647 101.5689,96.4777 C104.2059,98.6907 108.4109,99.0997 108.4109,99.0997" id="Stroke-89" stroke="#000000" stroke-width="2" stroke-linecap="round" stroke-linejoin="round"></path>
                <path d="M107.0593,103.3257 C107.3293,103.9057 109.3463,108.4187 107.0673,112.7897 C104.9253,116.8957 99.8843,119.1607 94.7333,118.1037 C94.7333,118.1037 90.4003,117.6027 88.0213,120.8267 C85.6423,124.0497 83.1203,131.1507 83.1203,131.1507" id="Stroke-91" stroke="#000000" stroke-width="2" stroke-linecap="round" stroke-linejoin="round"></path>
                <path d="M100.5994,41.2481 C100.5994,41.2481 106.4814,47.7861 106.5214,56.2841" id="Stroke-93" stroke="#000000" stroke-width="2" stroke-linecap="round" stroke-linejoin="round"></path>
                <path d="M438.322916,267.5577 C438.322916,267.5577 438.166,235.0787 451.451,210.5027 C464.735,185.9267 490.8,137.5507 490.8,137.5507" id="Stroke-95" stroke="#000000" stroke-width="2" stroke-linecap="round" stroke-linejoin="round"></path>
                <path d="M486.3455,147.503 C486.3455,147.503 489.3015,150.858 496.9125,145.195 C504.5235,139.533 532.6305,116.053 543.6335,112.526 C543.6335,112.526 534.6485,98.122 534.8395,93.159" id="Stroke-97" stroke="#000000" stroke-width="2" stroke-linecap="round" stroke-linejoin="round"></path>
                <path d="M495.1541,131.002 C495.2451,130.975 497.3341,122.773 490.2511,110.709" id="Stroke-99" stroke="#000000" stroke-width="2" stroke-linecap="round" stroke-linejoin="round"></path>
                <path d="M487.1072,108.9195 C487.1072,108.9195 480.1122,107.5325 469.0172,105.3975 C460.8272,103.8215 465.7082,93.5115 465.2192,91.9465" id="Stroke-101" stroke="#000000" stroke-width="2" stroke-linecap="round" stroke-linejoin="round"></path>
                <path d="M462.3708,72.2891 C462.3708,72.2891 459.1878,67.2201 460.0418,65.7951 C460.8958,64.3701 465.7668,61.2281 466.9748,59.0781" id="Stroke-103" stroke="#000000" stroke-width="2" stroke-linecap="round" stroke-linejoin="round"></path>
                <path d="M469.9343,44.6021 C469.9343,44.6021 469.8063,37.5561 472.0373,35.9081" id="Stroke-105" stroke="#000000" stroke-width="2" stroke-linecap="round" stroke-linejoin="round"></path>
                <path d="M463.4353,34.1934 C463.4353,34.1934 442.4083,25.0294 441.1743,19.7454 C439.9403,14.4624 450.6633,17.6904 450.6633,17.6904 C450.6633,17.6904 464.0283,21.8304 477.7543,13.6134 C491.4813,5.3964 502.9003,-2.1726 518.9643,1.2944 C535.0283,4.7614 548.3703,12.3204 554.7273,28.3304 C561.0843,44.3394 550.7323,60.1564 550.7323,60.1564 C550.7323,60.1564 537.5643,80.6234 537.6553,85.3204" id="Stroke-107" stroke="#000000" stroke-width="2" stroke-linecap="round" stroke-linejoin="round"></path>
                <path d="M492.9861,38.8326 C492.9861,38.8326 491.3871,44.0606 495.9931,48.5826 C500.5981,53.1066 505.7591,60.9586 501.7731,68.1326" id="Stroke-109" stroke="#000000" stroke-width="2" stroke-linecap="round" stroke-linejoin="round"></path>
                <path d="M162.0437,264.5416 C162.0437,264.5416 169.5467,261.9386 171.9207,260.3976 C174.2927,258.8566 179.2247,255.2676 182.2607,253.8086 C185.2997,252.3486 193.9747,248.3386 196.6477,247.1266 C199.3197,245.9146 202.4617,244.6106 204.5177,242.8286 C206.5757,241.0466 209.8237,237.9986 212.5147,237.1516 C215.2087,236.3056 217.9987,236.3826 218.7827,237.9786 C219.5667,239.5746 219.7977,241.6986 218.3357,243.6836 C216.8727,245.6686 215.6987,246.8486 213.1717,248.7216 C210.6477,250.5946 208.4007,250.9836 206.6967,253.0576 C204.9897,255.1306 203.5337,255.8966 203.7087,257.6046 C203.8817,259.3116 205.1197,260.9006 207.6897,261.6606 C210.2597,262.4196 213.4467,263.9726 217.2487,263.9696 C221.0477,263.9666 228.4757,263.9276 231.8717,263.6666 C235.2687,263.4066 244.4217,263.3316 246.8137,263.8306 C249.2067,264.3296 251.8887,265.6986 252.8237,266.9606 C253.7627,268.2226 254.3287,269.0546 251.8077,269.7056 C249.2857,270.3596 244.1097,270.6896 240.7167,271.1766 C237.3197,271.6646 231.1847,271.5886 228.8547,272.1876 C226.5227,272.7846 220.8507,273.8346 219.2367,274.4796 C217.6207,275.1246 216.6047,276.1986 218.2317,276.9126 C219.8607,277.6306 233.1037,281.8566 236.5337,283.1296 C239.9627,284.4016 249.7557,288.2736 251.4687,289.6566 C253.1847,291.0406 255.7307,293.5846 254.7887,294.9116 C253.8477,296.2406 251.3047,296.5156 248.9257,295.7406 C246.5467,294.9656 242.6757,292.4226 239.8547,291.7026 C237.0327,290.9856 231.1117,288.9936 228.2357,288.5516 C225.3607,288.1066 221.8187,287.3346 219.8277,287.1676 C217.8357,287.0016 219.7187,288.7726 221.5987,289.7686 C223.4787,290.7646 231.5547,294.0826 233.8237,295.5196 C236.0917,296.9576 242.6167,301.2736 243.7797,302.3786 C244.9417,303.4866 247.1277,307.0886 243.4687,307.5026 C239.8117,307.9176 238.1287,307.2936 235.9097,305.9506 C233.6907,304.6066 229.2597,301.7736 226.4777,300.4996 C223.6987,299.2246 220.9327,297.0846 217.4337,296.2006 C213.9347,295.3166 211.3557,294.5296 209.5807,294.2456 C207.8107,293.9596 206.2367,294.1606 206.1767,294.9416 C206.1157,295.7226 207.5707,297.6506 210.0477,299.7366 C212.5207,301.8246 216.3827,305.2756 218.3927,307.1396 C220.3997,309.0046 222.9997,311.2596 224.2107,313.0966 C225.4247,314.9376 224.8437,317.7796 221.5347,316.4296 C218.2267,315.0806 212.4967,311.1176 209.5157,308.9746 C206.5327,306.8316 198.7057,301.4736 196.0027,300.1236 C193.3027,298.7706 185.2867,295.6046 182.6327,295.0926 C179.9787,294.5786 174.6197,293.7886 172.1497,293.9726 C169.6807,294.1606 166.7927,295.6496 166.8377,294.4386 C166.8867,293.2276 166.7987,281.4566 166.2727,278.0396 C165.7447,274.6186 164.5197,270.3236 163.5807,268.6766 C162.6427,267.0326 162.0437,264.5416 162.0437,264.5416" id="Fill-111" fill="#FEEDE5"></path>
                <path d="M512.5906,79.3321 C512.5906,79.3321 521.5806,90.0191 534.2946,89.3831" id="Stroke-113" stroke="#000000" stroke-width="2" stroke-linecap="round" stroke-linejoin="round"></path>
                <path d="M507.6863,63.1856 C507.6863,63.1856 513.2383,60.2456 516.0883,63.8716 C518.9393,67.4976 517.5913,75.7816 510.8743,79.9696 C504.1563,84.1586 502.7903,82.5086 502.7903,82.5086" id="Stroke-115" stroke="#000000" stroke-width="2" stroke-linecap="round" stroke-linejoin="round"></path>
                <path d="M505.8699,74.2169 C505.8699,74.2169 508.7759,69.7669 512.5909,70.8569" id="Stroke-117" stroke="#000000" stroke-width="2" stroke-linecap="round" stroke-linejoin="round"></path>
                <path d="M472.6042,16.1656 C472.8402,16.0696 491.5202,31.4046 502.1672,37.6886 C512.8152,43.9736 525.3042,52.4536 550.7322,60.1566" id="Stroke-119" stroke="#000000" stroke-width="2" stroke-linecap="round" stroke-linejoin="round"></path>
                <path d="M443.2566,16.8316 C443.2566,16.8316 448.1966,19.8796 457.0136,27.1306 C460.4006,29.9156 470.2266,36.9836 499.6496,36.5756" id="Stroke-121" stroke="#000000" stroke-width="2" stroke-linecap="round" stroke-linejoin="round"></path>
                <path d="M515.4041,153.5748 C515.4041,153.5748 504.4331,176.3188 501.5551,188.7318 C498.6771,201.1448 489.7971,209.7188 489.4331,214.8458 C489.0701,219.9708 488.7181,225.5828 503.5031,231.3418 C518.2871,237.0998 537.4031,245.2178 537.8461,251.9378" id="Stroke-123" stroke="#000000" stroke-width="2" stroke-linecap="round" stroke-linejoin="round"></path>
                <path d="M567.8953,170.9327 L544.2933,241.4037 C544.2933,241.4037 537.4543,258.0797 530.0623,258.8227" id="Stroke-125" stroke="#000000" stroke-width="2" stroke-linecap="round" stroke-linejoin="round"></path>
                <path d="M491.9841,226.1407 C491.9841,226.1407 491.5791,250.5877 475.6131,260.1617" id="Stroke-127" stroke="#000000" stroke-width="2" stroke-linecap="round" stroke-linejoin="round"></path>
                <path d="M535.1433,246.2095 L510.6353,291.5225 C510.6353,291.5225 505.1573,301.8855 501.5553,303.7305" id="Stroke-129" stroke="#000000" stroke-width="2" stroke-linecap="round" stroke-linejoin="round"></path>
                <path d="M498.0593,306.4327 L436.6893,306.4327 C436.6893,306.4327 410.6253,304.1577 396.7223,298.1177 C382.8193,292.0767 365.7983,296.3697 365.7983,296.3697" id="Stroke-131" stroke="#000000" stroke-width="2" stroke-linecap="round" stroke-linejoin="round"></path>
                <path d="M362.7498,297.3673 C362.7498,297.3673 343.9038,302.8773 336.0938,308.5763 C328.2818,314.2763 313.3908,325.2453 308.1698,322.9193 C302.9488,320.5923 309.4878,316.7813 309.4878,316.7813 C309.4878,316.7813 318.2958,313.1463 319.4118,311.8583 C320.5278,310.5713 323.8248,305.4523 323.8248,305.4523" id="Stroke-133" stroke="#000000" stroke-width="2" stroke-linecap="round" stroke-linejoin="round"></path>
                <path d="M285.866,304.8282 C285.866,304.8282 285.916,308.2162 299.136,309.4092 C312.355,310.6022 330.67,303.1552 330.67,303.1552" id="Stroke-135" stroke="#000000" stroke-width="2" stroke-linecap="round" stroke-linejoin="round"></path>
                <path d="M323.1775,295.5274 C322.7695,295.6644 309.2155,300.8394 309.2155,300.8394 C309.2155,300.8394 290.4685,304.5044 282.3375,299.2324 C282.3375,299.2324 278.6035,297.2004 287.3795,295.1634 C296.1565,293.1264 310.0205,289.8514 310.0205,289.8514 C310.0205,289.8514 316.1675,287.7744 316.7785,284.8054 C317.3885,281.8384 310.9175,283.3364 310.9175,283.3364 C310.9175,283.3364 300.0085,282.0814 292.2835,284.6834 C284.5595,287.2864 278.3445,287.4234 278.3445,287.4234 C278.3445,287.4234 274.3715,286.4134 277.4225,283.2064 C280.4735,279.9984 288.3465,277.1714 288.3465,277.1714 L305.7705,273.9884 L319.4265,271.8994 C319.4265,271.8994 322.0795,270.6904 322.5655,269.9184" id="Stroke-137" stroke="#000000" stroke-width="2" stroke-linecap="round" stroke-linejoin="round"></path>
                <path d="M326.4041,268.9483 C326.4041,268.9483 333.3531,265.4573 332.8291,258.6973 C332.3041,251.9373 318.9421,249.0763 318.9421,249.0763 C318.9421,249.0763 314.3911,246.7653 314.3911,243.3573 C314.3911,239.9503 317.4661,240.1553 317.4661,240.1553 C317.4661,240.1553 322.4371,243.4913 326.3791,243.9693 C330.3211,244.4453 340.7211,246.3233 346.4571,251.2413 C352.1921,256.1603 357.5251,264.5863 363.2261,265.9003" id="Stroke-139" stroke="#000000" stroke-width="2" stroke-linecap="round" stroke-linejoin="round"></path>
                <path d="M365.7986,267.4908 C365.7986,267.4908 382.8926,275.1848 410.6086,271.3708 C438.3226,267.5578 463.2776,261.9628 469.8176,263.9428" id="Stroke-141" stroke="#000000" stroke-width="2" stroke-linecap="round" stroke-linejoin="round"></path>
                <path d="M354.1531,256.8394 C354.1531,256.8394 373.9621,261.9244 389.9761,258.6114 C405.9921,255.2994 436.1321,253.4424 440.0341,247.3774" id="Stroke-143" stroke="#000000" stroke-width="2" stroke-linecap="round" stroke-linejoin="round"></path>
                <path d="M334.449,232.4581 C334.449,232.4581 342.705,240.1441 344.803,244.4061 C346.902,248.6681 348.388,252.7241 348.388,252.7241" id="Stroke-145" stroke="#000000" stroke-width="2" stroke-linecap="round" stroke-linejoin="round"></path>
                <path d="M161.1765,264.0216 C162.4015,264.4166 178.2135,255.7056 182.6795,253.6076 C187.1455,251.5106 200.6085,245.8756 203.1205,243.8636 C205.6335,241.8526 213.0435,235.1526 216.1105,235.9316 C219.1765,236.7116 220.8645,237.9966 219.2495,241.7826 C217.1375,246.7356 213.2505,248.9476 210.3655,250.5976 C207.4815,252.2476 202.3815,256.3926 202.9685,258.6606" id="Stroke-147" stroke="#000000" stroke-width="2" stroke-linecap="round" stroke-linejoin="round"></path>
                <path d="M205.2126,259.8873 C205.2126,259.8873 210.3886,265.0823 219.5156,264.6743 C228.6426,264.2653 239.5276,263.0273 242.6666,263.5103 C245.8056,263.9923 253.9786,265.7403 253.4336,267.8633 C252.8886,269.9863 243.1196,270.8783 243.1196,270.8783 L228.8546,272.1873 L215.3306,275.1463" id="Stroke-149" stroke="#000000" stroke-width="2" stroke-linecap="round" stroke-linejoin="round"></path>
                <path d="M217.3357,276.6998 C217.3357,276.6998 245.4547,286.4668 248.3307,287.9678 C251.2057,289.4678 255.7787,292.7038 254.9817,294.3888 C254.1837,296.0728 250.5047,296.8078 250.5047,296.8078" id="Stroke-151" stroke="#000000" stroke-width="2" stroke-linecap="round" stroke-linejoin="round"></path>
                <path d="M248.0085,295.3917 C248.0085,295.3917 234.6705,289.0387 227.2485,288.1037 C219.8275,287.1677 217.3355,286.7537 217.3355,286.7537 C217.3355,286.7537 216.6935,287.2867 218.0025,288.3077 C219.3115,289.3297 232.5935,295.6637 232.5935,295.6637 L245.3185,304.7887 C245.3185,304.7887 246.0875,308.9217 240.6295,308.0657 C235.1705,307.2087 222.8125,298.5287 222.8125,298.5287 L208.5175,294.1347" id="Stroke-153" stroke="#000000" stroke-width="2" stroke-linecap="round" stroke-linejoin="round"></path>
                <path d="M207.0515,293.6886 C207.0515,293.6886 205.3685,293.1166 206.5165,295.9216 C207.6635,298.7286 224.1825,313.0536 224.1825,313.0536 C224.1825,313.0536 226.4625,316.9856 222.9205,316.7456 C219.3785,316.5046 206.9005,307.1356 206.9005,307.1356 C206.9005,307.1356 188.7315,293.9486 176.9475,294.2266 C165.1635,294.5056 166.9205,294.7246 166.9205,294.7246" id="Stroke-155" stroke="#000000" stroke-width="2" stroke-linecap="round" stroke-linejoin="round"></path>
                <path d="M543.6335,112.5259 C543.6335,112.5259 565.2115,130.6149 571.4165,151.9529 C577.6215,173.2899 580.4975,199.8079 577.3295,209.3899 C574.1615,218.9729 566.9915,239.9019 565.8065,256.5689 C564.6205,273.2359 565.4525,281.6049 563.1825,294.0459 C560.9125,306.4859 557.0475,333.2979 557.0475,333.2979" id="Stroke-157" stroke="#000000" stroke-width="2" stroke-linecap="round" stroke-linejoin="round"></path>
                <path d="M464.8894,80.6109 L472.3684,80.7449 C472.3684,80.7449 474.3674,83.2959 471.7314,85.5089 C469.0944,87.7229 464.8894,88.1319 464.8894,88.1319" id="Stroke-159" stroke="#000000" stroke-width="2" stroke-linecap="round" stroke-linejoin="round"></path>
                <path d="M29.072,120.4967 C29.072,120.4967 0.788,155.1067 0.021,184.1707 C-0.745,213.2337 19.554,347.3707 19.554,347.3707" id="Stroke-161" stroke="#000000" stroke-width="2"></path>
                <path d="M34.6677,117.3931 C34.6677,117.3931 74.2307,141.3671 75.5047,152.6081" id="Stroke-163" stroke="#000000" stroke-width="2"></path>
                <path d="M32.4177,116.7193 L33.5997,105.8233 C33.5997,105.8233 33.6327,100.7613 39.8597,103.4633 C46.0877,106.1653 85.0997,127.1303 88.2337,138.3033 C88.2337,138.3033 87.7587,144.1883 86.3377,148.0023 C84.9167,151.8163 86.4747,160.1263 87.8597,163.9403" id="Stroke-165" stroke="#000000" stroke-width="2" stroke-linecap="round" stroke-linejoin="round"></path>
                <path d="M76.3416,153.9962 C76.3416,153.9962 78.4606,152.4972 79.3456,149.3642 C80.2316,146.2312 81.2126,140.0342 88.2356,138.3042" id="Stroke-167" stroke="#000000" stroke-width="2" stroke-linecap="round" stroke-linejoin="round"></path>
                <path d="M85.6423,124.0499 C85.6423,124.0499 96.5563,134.5559 97.2583,140.0689 C97.9603,145.5819 96.6453,158.4909 96.6453,158.4909 C96.6453,158.4909 97.3033,141.5699 93.2943,141.8099 C89.2873,142.0499 90.1253,164.6209 90.1253,164.6209" id="Stroke-169" stroke="#000000" stroke-width="2" stroke-linecap="round" stroke-linejoin="round"></path>
                <path d="M3.9343,198.6597 L22.3853,269.2487 C22.3853,269.2487 32.4253,296.2807 41.7213,301.6917" id="Stroke-171" stroke="#000000" stroke-width="2" stroke-linecap="round" stroke-linejoin="round"></path>
                <path d="M46.5603,306.4913 C46.5603,306.4913 75.2713,320.6393 117.2833,313.5093 C159.2943,306.3773 166.4793,303.5013 167.4873,300.6133" id="Stroke-173" stroke="#000000" stroke-width="2" stroke-linecap="round" stroke-linejoin="round"></path>
                <path d="M67.6541,176.2413 C67.6541,176.2413 73.4091,195.7913 72.1891,200.5263 C70.9681,205.2603 70.4381,225.4573 72.9731,235.0653 C75.5081,244.6723 82.2501,252.5803 81.5031,256.8413 C80.7561,261.1023 70.2421,270.1003 70.2421,270.1003 C70.2421,270.1003 64.4131,279.5733 64.8761,281.4663" id="Stroke-175" stroke="#000000" stroke-width="2" stroke-linecap="round" stroke-linejoin="round"></path>
                <path d="M80.0203,259.8873 C80.0203,259.8873 102.9253,264.7243 107.5573,266.8303 C112.1883,268.9373 146.5783,269.1813 157.7853,262.6483" id="Stroke-177" stroke="#000000" stroke-width="2" stroke-linecap="round" stroke-linejoin="round"></path>
                <path d="M160.2537,262.7867 C160.2537,262.7867 162.6247,265.5877 163.8687,269.2487 C165.1117,272.9107 169.3607,294.8467 166.2067,301.1127" id="Stroke-179" stroke="#000000" stroke-width="2" stroke-linecap="round" stroke-linejoin="round"></path>
                <polyline id="Stroke-181" stroke="#000000" stroke-width="2" stroke-linecap="round" stroke-linejoin="round" points="91.1414 153.9962 101.8764 188.2962 112.4114 225.1452 119.9314 268.1292"></polyline>
                <path d="M115.8933,245.0499 C115.8933,245.0499 143.4073,249.4569 167.4873,240.8899" id="Stroke-183" stroke="#000000" stroke-width="2" stroke-linecap="round" stroke-linejoin="round"></path>
            </g>
        </g>
        <g id="Group" transform="translate(8.000000, 17.000000)">
            <polygon id="Fill-57" fill="#CCCCCC" points="10 21 596 21 596 19 10 19"></polygon>
            <path d="M150,19 C150,28.3888692 142.389094,36 133.000502,36 C123.61191,36 116,28.3888692 116,19 C116,9.6111308 123.61191,2 133.000502,2 C142.389094,2 150,9.6111308 150,19" id="Fill-62" fill="#CCCCCC"></path>
            <path d="M35,19 C35,28.3888692 27.389094,36 17.9994978,36 C8.61191032,36 1,28.3888692 1,19 C1,9.6111308 8.61191032,2 17.9994978,2 C27.389094,2 35,9.6111308 35,19" id="Fill-63" fill="#CCCCCC"></path>
            <path d="M17.4005542,26 C17.1181346,26 16.8406011,25.8989758 16.619747,25.7129313 L10.4475591,20.5126876 C9.92474082,20.0715821 9.84851684,19.2783923 10.2794755,18.7412639 C10.7114114,18.2051356 11.4844007,18.1281172 12.0101507,18.570223 L17.2295389,22.9682749 L24.818711,13.4620012 C25.2477152,12.925873 26.0216818,12.8428531 26.548409,13.2839586 C27.074159,13.7240639 27.1523375,14.5172536 26.722356,15.0553823 L18.353354,25.5378895 C18.1471583,25.7969514 17.8471486,25.9609907 17.522708,25.9939986 C17.4816643,25.9979995 17.4406207,26 17.4005542,26" id="Fill-76" fill="#FFFFFF"></path>
            <path d="M17.4005542,26 C17.1181346,26 16.8406011,25.8989758 16.619747,25.7129313 L10.4475591,20.5126876 C9.92474082,20.0715821 9.84851684,19.2783923 10.2794755,18.7412639 C10.7114114,18.2051356 11.4844007,18.1281172 12.0101507,18.570223 L17.2295389,22.9682749 L24.818711,13.4620012 C25.2477152,12.925873 26.0216818,12.8428531 26.548409,13.2839586 C27.074159,13.7240639 27.1523375,14.5172536 26.722356,15.0553823 L18.353354,25.5378895 C18.1471583,25.7969514 17.8471486,25.9609907 17.522708,25.9939986 C17.4816643,25.9979995 17.4406207,26 17.4005542,26 Z" id="Stroke-77" stroke="#FFFFFF"></path>
            <path d="M132.400554,26 C132.118135,26 131.840601,25.8989758 131.619747,25.7129313 L125.447559,20.5126876 C124.924741,20.0715821 124.848517,19.2783923 125.279475,18.7412639 C125.711411,18.2051356 126.484401,18.1281172 127.010151,18.570223 L132.229539,22.9682749 L139.818711,13.4620012 C140.247715,12.925873 141.021682,12.8428531 141.548409,13.2839586 C142.074159,13.7240639 142.152337,14.5172536 141.722356,15.0553823 L133.353354,25.5378895 C133.147158,25.7969514 132.847149,25.9609907 132.522708,25.9939986 C132.481664,25.9979995 132.440621,26 132.400554,26" id="Fill-78" fill="#FFFFFF"></path>
            <path d="M132.400554,26 C132.118135,26 131.840601,25.8989758 131.619747,25.7129313 L125.447559,20.5126876 C124.924741,20.0715821 124.848517,19.2783923 125.279475,18.7412639 C125.711411,18.2051356 126.484401,18.1281172 127.010151,18.570223 L132.229539,22.9682749 L139.818711,13.4620012 C140.247715,12.925873 141.021682,12.8428531 141.548409,13.2839586 C142.074159,13.7240639 142.152337,14.5172536 141.722356,15.0553823 L133.353354,25.5378895 C133.147158,25.7969514 132.847149,25.9609907 132.522708,25.9939986 C132.481664,25.9979995 132.440621,26 132.400554,26 Z" id="Stroke-79" stroke="#FFFFFF"></path>
            <circle id="Oval" fill="#D8D8D8" cx="18" cy="18" r="18"></circle>
            <polygon id="1" fill="#FFFFFF" fill-rule="nonzero" points="19.9 25.52 19.9 11.1 18.24 11.1 13.6 13.82 14.54 15.42 17.92 13.42 17.92 25.52"></polygon>
            <circle id="Oval-Copy" fill="#D8D8D8" cx="133" cy="18" r="18"></circle>
            <path d="M138.36,24.52 L138.36,22.8 L131.12,22.8 L135.62,18 C136.92,16.62 137.84,15.26 137.84,13.7 L137.84,13.5 C137.84,11.4 136.26,9.88 133.34,9.88 C130.68,9.88 129.4,11.54 128.72,12.78 L130.24,13.76 C131.18,12.08 132.32,11.66 133.38,11.66 C134.88,11.66 135.86,12.36 135.86,13.5 L135.86,13.66 C135.86,14.42 135.7,15.22 134.06,17.02 L128.68,22.86 L128.68,24.52 L138.36,24.52 Z" id="2" fill="#FFFFFF" fill-rule="nonzero"></path>
            <circle id="Oval-Copy-2" fill="#D8D8D8" cx="247" cy="18" r="18"></circle>
            <path d="M247.08,24.74 C250.62,24.74 252.12,22.68 252.12,20.56 L252.12,20.26 C252.12,18.6 251.14,17.28 249.2,16.94 C250.98,16.3 251.46,14.82 251.46,13.68 L251.46,13.48 C251.46,11.32 249.76,9.88 247.1,9.88 C244.94,9.88 243.74,10.84 242.9,12.04 L244.32,13.08 C245.1,12.06 245.94,11.64 247.12,11.64 C248.42,11.64 249.5,12.28 249.5,13.54 L249.5,13.7 C249.5,14.94 248.88,16.14 247.08,16.14 L245.38,16.14 L245.38,17.86 L247.16,17.86 C248.84,17.86 250.14,18.42 250.14,20.32 L250.14,20.58 C250.14,21.88 249.18,22.94 247.08,22.94 C245.84,22.94 244.84,22.58 243.44,21.56 L242.46,23.14 C243.82,24.22 245.4,24.74 247.08,24.74 Z" id="3" fill="#FFFFFF" fill-rule="nonzero"></path>
            <circle id="Oval-Copy-3" fill="#D8D8D8" cx="362" cy="18" r="18"></circle>
            <polygon id="4" fill="#FFFFFF" fill-rule="nonzero" points="365.1 24.52 365.1 21.42 367.14 21.42 367.14 19.74 365.1 19.74 365.1 15.32 363.14 15.32 363.14 19.74 358.26 19.74 364.9 10.1 362.72 10.1 355.94 19.94 355.94 21.42 363.14 21.42 363.14 24.52"></polygon>
            <circle id="Oval-Copy-4" fill="#D8D8D8" cx="478" cy="18" r="18"></circle>
            <path d="M478.56,24.74 C482.16,24.74 483.58,22.3 483.58,20.18 L483.58,19.88 C483.58,17.44 482.02,15.42 479.28,15.42 C478.08,15.42 477.04,15.82 476.4,16.3 L476.62,11.8 L482.64,11.8 L482.64,10.1 L474.82,10.1 L474.36,18.22 L475.88,18.22 C476.52,17.6 477.48,17.08 478.7,17.08 C480.54,17.08 481.6,18.02 481.6,19.94 L481.6,20.18 C481.6,21.52 480.7,22.94 478.6,22.94 C477.26,22.94 476.02,22.64 474.64,21.56 L473.66,23.14 C475.02,24.22 476.6,24.74 478.56,24.74 Z" id="5" fill="#FFFFFF" fill-rule="nonzero"></path>
            <circle id="Oval-Copy-5" fill="#FF0000" cx="592" cy="18" r="18"></circle>
            <path d="M591.66,24.74 C594.6,24.74 596.58,22.86 596.58,20.1 L596.58,19.66 C596.58,16.84 594.6,15.06 592.04,15.06 C590.44,15.06 589.08,15.86 588.6,16.7 C588.74,12.9 590.1,11.7 592.06,11.7 C593.2,11.7 594.26,12.02 595.16,12.54 L595.92,10.86 C594.84,10.2 593.48,9.88 592.18,9.88 C588.94,9.88 586.64,11.74 586.64,18.06 L586.64,18.8 C586.64,22.66 588.42,24.74 591.66,24.74 Z M591.58,22.94 C589.78,22.94 588.66,21.76 588.66,19.9 L588.66,19.62 C588.66,18.04 589.88,16.82 591.64,16.82 C593.4,16.82 594.6,17.82 594.6,19.74 L594.6,20 C594.6,21.88 593.44,22.94 591.58,22.94 Z" id="6" fill="#FFFFFF" fill-rule="nonzero"></path>
            <path d="M15.8,57.92 L15.8,50.96 L14.42,50.96 L14.42,53.24 L5.38,53.24 L5.38,50.96 L4,50.96 L4,57.92 L15.8,57.92 Z M14.42,56.7 L5.38,56.7 L5.38,54.42 L14.42,54.42 L14.42,56.7 Z M10.8,64.92 L10.8,61.24 L18.3,61.24 L18.3,60.04 L1.5,60.04 L1.5,61.24 L9.4,61.24 L9.4,64.92 L10.8,64.92 Z M16.2,68.5 L16.2,67.26 L5.4,67.26 L5.4,63.3 L3.98,63.3 L3.98,68.5 L16.2,68.5 Z M33.72,59.48 L33.72,50.44 L32.32,50.44 L32.32,59.48 L33.72,59.48 Z M19.74,59.82 C21.1,58.84 22.22,57.92 22.92,57.3 C23.8,56.54 24.3,55.98 24.4,55.66 L24.42,55.66 C24.54,56 25.28,56.64 26.22,57.38 C26.8,57.84 27.7,58.52 28.64,59.18 L29.44,58.16 C28.38,57.46 27.24,56.6 26.5,55.98 C25.24,54.92 25.06,54.46 25.06,53 L25.06,50.9 L23.62,50.9 L23.62,53.06 C23.62,54.52 23.3,55.2 22.14,56.26 C21.32,57 20.14,57.94 18.9,58.8 L19.74,59.82 Z M34.2,68.78 L34.2,67.58 L23.92,67.58 L23.92,65.26 L33.72,65.26 L33.72,60.56 L22.44,60.56 L22.44,61.78 L32.34,61.78 L32.34,64.08 L22.54,64.08 L22.54,68.78 L34.2,68.78 Z" id="분실" fill="#6E6E6E" fill-rule="nonzero"></path>
            <path d="M238.86,59.84 L238.86,50.44 L237.48,50.44 L237.48,54.44 L234.84,54.44 L234.84,50.68 L233.46,50.68 L233.46,59.8 L234.84,59.8 L234.84,55.7 L237.48,55.7 L237.48,59.84 L238.86,59.84 Z M227.6,59.36 C230.26,59.36 231.62,57.42 231.62,55.78 L231.62,54.78 C231.62,53.14 230.26,51.2 227.6,51.2 C224.94,51.2 223.58,53.14 223.58,54.78 L223.58,55.78 C223.58,57.42 224.94,59.36 227.6,59.36 Z M227.6,58.08 C225.9,58.08 224.96,56.86 224.96,55.64 L224.96,54.92 C224.96,53.7 225.9,52.48 227.6,52.48 C229.3,52.48 230.24,53.7 230.24,54.92 L230.24,55.64 C230.24,56.86 229.3,58.08 227.6,58.08 Z M238.86,68.7 L238.86,60.92 L237.48,60.92 L237.48,63.42 L228.88,63.42 L228.88,60.92 L227.5,60.92 L227.5,68.7 L238.86,68.7 Z M237.48,67.44 L228.88,67.44 L228.88,64.66 L237.48,64.66 L237.48,67.44 Z M254.78,68.72 L254.78,58.48 L257.82,58.48 L257.82,57.22 L254.78,57.22 L254.78,50.44 L253.36,50.44 L253.36,68.72 L254.78,68.72 Z M245.04,63.84 C247.28,63.84 249.68,63.7 251.8,63.32 L251.62,62.06 C249.38,62.44 247.44,62.56 245.4,62.56 L243.04,62.56 L243.04,53.38 L249.94,53.38 L249.94,52.1 L241.62,52.1 L241.62,63.84 L245.04,63.84 Z M266.2,58.18 C269.4,58.18 271.94,56.9 271.94,54.9 L271.94,54.14 C271.94,52.14 269.4,50.86 266.2,50.86 C263,50.86 260.46,52.14 260.46,54.14 L260.46,54.9 C260.46,56.9 263,58.18 266.2,58.18 Z M266.2,56.98 C263.9,56.98 261.82,56.08 261.82,54.8 L261.82,54.24 C261.82,52.96 263.9,52.06 266.2,52.06 C268.5,52.06 270.58,52.96 270.58,54.24 L270.58,54.8 C270.58,56.08 268.5,56.98 266.2,56.98 Z M267.12,64.84 L267.12,61.06 L274.6,61.06 L274.6,59.86 L257.8,59.86 L257.8,61.06 L265.72,61.06 L265.72,64.84 L267.12,64.84 Z M272.5,68.5 L272.5,67.26 L261.72,67.26 L261.72,63.1 L260.3,63.1 L260.3,68.5 L272.5,68.5 Z" id="앱다운" fill="#6E6E6E" fill-rule="nonzero"></path>
            <path d="M128.52,63.48 L128.52,50.44 L127.12,50.44 L127.12,63.48 L128.52,63.48 Z M114.64,61.28 C115.8,60.36 116.94,59.4 117.64,58.74 C118.52,57.9 119.14,57.28 119.2,56.94 L119.22,56.94 C119.32,57.26 119.86,57.8 120.78,58.58 C121.46,59.16 122.34,59.88 123.44,60.72 L124.28,59.74 C123.38,59.08 122.3,58.22 121.32,57.36 C120.040909,56.2145455 119.87343,55.725124 119.860847,54.3957814 L119.86,51.3 L118.42,51.3 L118.42,54.24 C118.42,55.76 118.28,56.26 117.02,57.52 C116.12,58.42 114.84,59.46 113.76,60.28 L114.64,61.28 Z M128.98,68.5 L128.98,67.26 L118.78,67.26 L118.78,62.4 L117.36,62.4 L117.36,68.5 L128.98,68.5 Z M144.28,62.58 C144.76,60 144.98,57.68 144.98,54.32 L144.98,52.16 L132.82,52.16 L132.82,53.4 L143.52,53.4 L143.52,55.06 C143.52,57.74 143.26,59.94 142.8,62.4 L144.28,62.58 Z M147.5,66.14 L147.5,64.92 L138.52,64.92 L138.52,57.9 L137.08,57.9 L137.08,64.92 L130.7,64.92 L130.7,66.14 L147.5,66.14 Z" id="신고" fill="#6E6E6E" fill-rule="nonzero"></path>
            <path d="M345.88,61.36 C346.8,60.7 348.16,59.62 348.86,59 C349.7,58.26 350.34,57.6 350.42,57.3 L350.44,57.3 C350.52,57.56 351.3,58.24 352.24,59 C352.84,59.48 353.8,60.2 354.6,60.76 L355.42,59.76 C354.28,59 353.16,58.16 352.52,57.62 C351.22,56.5 351.08,55.96 351.08,54.82 L351.08,53.78 L355.08,53.78 L355.08,52.56 L351.08,52.56 L351.08,50.28 L349.66,50.28 L349.66,52.56 L345.44,52.56 L345.44,53.78 L349.66,53.78 L349.66,54.88 C349.66,55.92 349.44,56.62 348.46,57.58 C347.48,58.54 346.2,59.52 345.02,60.36 L345.88,61.36 Z M359.7,61.38 L359.7,50.44 L358.3,50.44 L358.3,55.72 L354.56,55.72 L354.56,56.96 L358.3,56.96 L358.3,61.38 L359.7,61.38 Z M354.26,69.2 C357.36,69.2 359.8,67.92 359.8,65.88 L359.8,65.12 C359.8,63.08 357.36,61.8 354.26,61.8 C351.16,61.8 348.72,63.04 348.72,65.1 L348.72,65.88 C348.72,67.92 351.16,69.2 354.26,69.2 Z M354.26,68 C352.02,68 350.08,67.16 350.08,65.8 L350.08,65.2 C350.08,63.84 352.02,63 354.26,63 C356.5,63 358.44,63.84 358.44,65.2 L358.44,65.8 C358.44,67.16 356.5,68 354.26,68 Z M370.8,68.72 L370.8,61.24 L378.5,61.24 L378.5,60.02 L375.28,60.02 C375.66,58.2 375.88,55.94 375.88,53.82 L375.88,51.64 L363.9,51.64 L363.9,52.86 L374.44,52.86 L374.44,54.28 C374.44,56.02 374.22,58.22 373.82,60.02 L361.7,60.02 L361.7,61.24 L369.38,61.24 L369.38,68.72 L370.8,68.72 Z" id="청구" fill="#6E6E6E" fill-rule="nonzero"></path>
            <path d="M474.86,59.66 L474.86,55.64 L477.66,55.64 L477.66,54.4 L474.86,54.4 L474.86,50.44 L473.46,50.44 L473.46,59.66 L474.86,59.66 Z M471.8,58.22 L471.64,56.96 C468.6,57.36 466.9,57.44 463.02,57.44 L463.02,51.44 L461.6,51.44 L461.6,58.72 L462.524364,58.7191166 C467.251349,58.7094118 468.825882,58.6152941 471.8,58.22 Z M474.86,68.68 L474.86,60.74 L473.48,60.74 L473.48,63.32 L465.26,63.32 L465.26,60.74 L463.88,60.74 L463.88,68.68 L474.86,68.68 Z M473.48,67.42 L465.26,67.42 L465.26,64.56 L473.48,64.56 L473.48,67.42 Z M492.02,58.98 L492.02,51.14 L490.64,51.14 L490.64,53.88 L481.56,53.88 L481.56,51.14 L480.18,51.14 L480.18,58.98 L492.02,58.98 Z M490.64,57.8 L481.56,57.8 L481.56,55.1 L490.64,55.1 L490.64,57.8 Z M486.82,68.72 L486.82,62.64 L494.5,62.64 L494.5,61.42 L477.7,61.42 L477.7,62.64 L485.4,62.64 L485.4,68.72 L486.82,68.72 Z" id="납부" fill="#6E6E6E" fill-rule="nonzero"></path>
            <path d="M576.28,58.98 C577.9,58.34 579.46,57.62 580.54,57.08 C581.86,56.42 582.64,55.84 582.88,55.38 L582.9,55.38 C583.12,55.84 583.92,56.4 585.24,57.06 C586.32,57.6 587.84,58.3 589.46,58.94 L590.06,57.84 C588.58,57.28 586.96,56.56 585.68,55.9 C584.14,55.12 583.6,54.46 583.6,52.68 L583.6,51.08 L582.18,51.08 L582.18,52.68 C582.18,54.46 581.62,55.12 580.08,55.9 C578.8,56.56 577.14,57.3 575.66,57.86 L576.28,58.98 Z M583.62,68.72 L583.62,62.16 L591.3,62.16 L591.3,60.94 L574.5,60.94 L574.5,62.16 L582.2,62.16 L582.2,68.72 L583.62,68.72 Z M606.92,61.54 L606.92,50.44 L605.54,50.44 L605.54,53 L601.72,53 L601.72,54.22 L605.54,54.22 L605.54,56.26 L601.72,56.26 L601.72,57.48 L605.54,57.48 L605.54,61.54 L606.92,61.54 Z M602.8,60.24 L602.66,59.02 C600.22,59.3 597.7,59.34 594.26,59.34 L594.26,56.56 L600.32,56.56 L600.32,51.36 L592.88,51.36 L592.88,52.6 L598.94,52.6 L598.94,55.36 L592.88,55.36 L592.88,60.58 L593.82687,60.5792078 C598.249927,60.5713424 600.49871,60.5019355 602.8,60.24 Z M601.46,69.22 C604.7,69.22 607.02,67.98 607.02,65.98 L607.02,65.26 C607.02,63.28 604.7,62.02 601.46,62.02 C598.22,62.02 595.9,63.26 595.9,65.24 L595.9,65.98 C595.9,67.98 598.22,69.22 601.46,69.22 Z M601.46,68.02 C599.04,68.02 597.26,67.12 597.26,65.92 L597.26,65.32 C597.26,64.14 599.04,63.22 601.46,63.22 C603.88,63.22 605.66,64.12 605.66,65.32 L605.66,65.92 C605.66,67.12 603.88,68.02 601.46,68.02 Z" id="수령" fill="#FF0000" fill-rule="nonzero"></path>
        </g>
    </g>
</svg>