<?xml version="1.0" encoding="UTF-8"?>
<svg width="694px" height="46px" viewBox="0 0 694 46" version="1.1" xmlns="http://www.w3.org/2000/svg" xmlns:xlink="http://www.w3.org/1999/xlink">
    <title>휴대폰보험가이드분실파손접수방법</title>
    <g id="Page-1" stroke="none" stroke-width="1" fill="none" fill-rule="evenodd">
        <g id="Desktop-Copy-2" transform="translate(-373.000000, -132.000000)" fill="#FFFFFF" fill-rule="nonzero">
            <path d="M391.801669,158.335 C393.541669,158.335 395.131669,158.065 396.571669,157.525 C398.011669,156.985 399.249169,156.25 400.284169,155.32 C401.319169,154.39 402.121669,153.295 402.691669,152.035 C403.261669,150.775 403.546669,149.41 403.546669,147.94 C403.546669,146.8 403.359169,145.7125 402.984169,144.6775 C402.609169,143.6425 402.076669,142.69 401.386669,141.82 L401.386669,141.82 L407.011669,141.82 L407.011669,137.455 L394.411669,137.455 L394.411669,132.55 L389.191669,132.55 L389.191669,137.455 L376.591669,137.455 L376.591669,141.82 L382.216669,141.82 C380.776669,143.62 380.056669,145.66 380.056669,147.94 C380.056669,149.41 380.341669,150.775 380.911669,152.035 C381.481669,153.295 382.284169,154.39 383.319169,155.32 C384.354169,156.25 385.591669,156.985 387.031669,157.525 C388.471669,158.065 390.061669,158.335 391.801669,158.335 Z M391.801669,153.97 C389.671669,153.97 388.021669,153.415 386.851669,152.305 C385.681669,151.195 385.096669,149.74 385.096669,147.94 C385.096669,146.14 385.681669,144.685 386.851669,143.575 C388.021669,142.465 389.671669,141.91 391.801669,141.91 C393.931669,141.91 395.581669,142.465 396.751669,143.575 C397.921669,144.685 398.506669,146.14 398.506669,147.94 C398.506669,149.74 397.921669,151.195 396.751669,152.305 C395.581669,153.415 393.931669,153.97 391.801669,153.97 Z M387.121669,175.165 L387.121669,165.67 L396.931669,165.67 L396.931669,175.165 L401.971669,175.165 L401.971669,165.67 L410.746669,165.67 L410.746669,161.26 L373.306669,161.26 L373.306669,165.67 L382.081669,165.67 L382.081669,175.165 L387.121669,175.165 Z M449.791518,174.265 L449.791518,134.62 L444.751518,134.62 L444.751518,148.345 L440.161518,148.345 L440.161518,134.62 L435.211518,134.62 L435.211518,173.5 L440.161518,173.5 L440.161518,152.755 L444.751518,152.755 L444.751518,174.265 L449.791518,174.265 Z M421.216518,164.5 C423.646518,164.5 425.911518,164.38 428.011518,164.14 C430.111518,163.9 431.881518,163.48 433.321518,162.88 L433.321518,162.88 L432.466518,158.965 C431.326518,159.385 429.901518,159.6775 428.191518,159.8425 C426.481518,160.0075 424.591518,160.09 422.521518,160.09 L422.521518,160.09 L420.991518,160.09 L420.991518,140.425 L431.251518,140.425 L431.251518,136.015 L412.171518,136.015 L412.171518,140.425 L415.906518,140.425 L415.906518,164.5 L421.216518,164.5 Z M490.096366,160.9 L490.096366,156.49 L473.896366,156.49 L473.896366,152.26 L486.226366,152.26 L486.226366,147.895 L481.186366,147.895 L481.186366,139.435 L485.371366,139.435 L485.371366,135.07 L457.471366,135.07 L457.471366,139.435 L461.701366,139.435 L461.701366,147.895 L456.661366,147.895 L456.661366,152.26 L468.856366,152.26 L468.856366,156.49 L452.656366,156.49 L452.656366,160.9 L490.096366,160.9 Z M476.236366,147.895 L466.651366,147.895 L466.651366,139.435 L476.236366,139.435 L476.236366,147.895 Z M485.596366,176.2 L485.596366,171.79 L462.781366,171.79 L462.781366,163.87 L457.741366,163.87 L457.741366,176.2 L485.596366,176.2 Z M540.196062,168.55 L540.196062,164.14 L523.996062,164.14 L523.996062,157.615 L535.291062,157.615 L535.291062,135.745 L530.251062,135.745 L530.251062,142.585 L512.701062,142.585 L512.701062,135.745 L507.661062,135.745 L507.661062,157.615 L518.956062,157.615 L518.956062,164.14 L502.756062,164.14 L502.756062,168.55 L540.196062,168.55 Z M530.251062,153.205 L512.701062,153.205 L512.701062,146.995 L530.251062,146.995 L530.251062,153.205 Z M555.120911,158.02 C556.650911,158.02 558.053411,157.7725 559.328411,157.2775 C560.603411,156.7825 561.713411,156.085 562.658411,155.185 C563.603411,154.285 564.338411,153.2275 564.863411,152.0125 C565.388411,150.7975 565.650911,149.47 565.650911,148.03 C565.650911,146.95 565.493411,145.9225 565.178411,144.9475 C564.863411,143.9725 564.420911,143.08 563.850911,142.27 L563.850911,142.27 L568.080911,142.27 L568.080911,137.95 L557.730911,137.95 L557.730911,133.045 L552.510911,133.045 L552.510911,137.95 L542.070911,137.95 L542.070911,142.27 L546.345911,142.27 C545.175911,143.95 544.590911,145.87 544.590911,148.03 C544.590911,149.47 544.853411,150.7975 545.378411,152.0125 C545.903411,153.2275 546.638411,154.285 547.583411,155.185 C548.528411,156.085 549.638411,156.7825 550.913411,157.2775 C552.188411,157.7725 553.590911,158.02 555.120911,158.02 Z M577.935911,158.785 L577.935911,134.62 L572.895911,134.62 L572.895911,146.455 L567.315911,146.455 L567.315911,150.865 L572.895911,150.865 L572.895911,158.785 L577.935911,158.785 Z M555.120911,153.88 C553.320911,153.88 551.918411,153.355 550.913411,152.305 C549.908411,151.255 549.405911,149.83 549.405911,148.03 C549.405911,146.23 549.908411,144.805 550.913411,143.755 C551.918411,142.705 553.320911,142.18 555.120911,142.18 C556.920911,142.18 558.323411,142.705 559.328411,143.755 C560.333411,144.805 560.835911,146.23 560.835911,148.03 C560.835911,149.83 560.333411,151.255 559.328411,152.305 C558.323411,153.355 556.920911,153.88 555.120911,153.88 Z M577.710911,176.65 L577.710911,160.99 L551.565911,160.99 L551.565911,176.65 L577.710911,176.65 Z M572.715911,172.33 L556.560911,172.33 L556.560911,165.31 L572.715911,165.31 L572.715911,172.33 Z M624.795607,174.265 L624.795607,153.34 L631.500607,153.34 L631.500607,148.93 L624.795607,148.93 L624.795607,134.62 L619.755607,134.62 L619.755607,174.265 L624.795607,174.265 Z M594.960607,165.355 C598.110607,164.155 600.870607,162.64 603.240607,160.81 C605.610607,158.98 607.590607,156.9475 609.180607,154.7125 C610.770607,152.4775 611.970607,150.1 612.780607,147.58 C613.590607,145.06 613.995607,142.495 613.995607,139.885 L613.995607,139.885 L613.995607,136.015 L594.105607,136.015 L594.105607,140.425 L608.865607,140.425 C608.865607,145.195 607.463107,149.3575 604.658107,152.9125 C601.853107,156.4675 597.825607,159.325 592.575607,161.485 L592.575607,161.485 L594.960607,165.355 Z M645.165455,162.52 C646.815455,162.52 648.382955,162.2275 649.867955,161.6425 C651.352955,161.0575 652.650455,160.2475 653.760455,159.2125 C654.870455,158.1775 655.755455,156.94 656.415455,155.5 C657.075455,154.06 657.405455,152.5 657.405455,150.82 C657.405455,149.35 657.157955,147.9775 656.662955,146.7025 C656.167955,145.4275 655.477955,144.295 654.592955,143.305 C653.707955,142.315 652.672955,141.4825 651.487955,140.8075 C650.302955,140.1325 649.035455,139.66 647.685455,139.39 L647.685455,139.39 L647.685455,134.395 L642.555455,134.395 L642.555455,139.39 C641.205455,139.66 639.937955,140.14 638.752955,140.83 C637.567955,141.52 636.547955,142.36 635.692955,143.35 C634.837955,144.34 634.162955,145.465 633.667955,146.725 C633.172955,147.985 632.925455,149.35 632.925455,150.82 C632.925455,152.5 633.255455,154.06 633.915455,155.5 C634.575455,156.94 635.460455,158.1775 636.570455,159.2125 C637.680455,160.2475 638.977955,161.0575 640.462955,161.6425 C641.947955,162.2275 643.515455,162.52 645.165455,162.52 Z M668.205455,174.265 L668.205455,134.62 L663.165455,134.62 L663.165455,174.265 L668.205455,174.265 Z M645.165455,158.155 C644.205455,158.155 643.290455,157.9825 642.420455,157.6375 C641.550455,157.2925 640.785455,156.805 640.125455,156.175 C639.465455,155.545 638.947955,154.78 638.572955,153.88 C638.197955,152.98 638.010455,151.96 638.010455,150.82 C638.010455,149.71 638.197955,148.6975 638.572955,147.7825 C638.947955,146.8675 639.465455,146.095 640.125455,145.465 C640.785455,144.835 641.550455,144.3475 642.420455,144.0025 C643.290455,143.6575 644.205455,143.485 645.165455,143.485 C646.125455,143.485 647.040455,143.6575 647.910455,144.0025 C648.780455,144.3475 649.537955,144.835 650.182955,145.465 C650.827955,146.095 651.345455,146.8675 651.735455,147.7825 C652.125455,148.6975 652.320455,149.71 652.320455,150.82 C652.320455,151.96 652.125455,152.98 651.735455,153.88 C651.345455,154.78 650.827955,155.545 650.182955,156.175 C649.537955,156.805 648.780455,157.2925 647.910455,157.6375 C647.040455,157.9825 646.125455,158.155 645.165455,158.155 Z M691.095304,156.94 C694.335304,156.94 697.042804,156.8425 699.217804,156.6475 C701.392804,156.4525 703.170304,156.13 704.550304,155.68 L704.550304,155.68 L703.830304,151.45 C701.040304,152.17 697.185304,152.53 692.265304,152.53 L692.265304,152.53 L682.410304,152.53 L682.410304,140.335 L703.515304,140.335 L703.515304,135.925 L673.635304,135.925 L673.635304,140.335 L677.370304,140.335 L677.370304,156.94 L691.095304,156.94 Z M709.320304,168.55 L709.320304,164.14 L671.880304,164.14 L671.880304,168.55 L709.320304,168.55 Z M754.335,152.71 L754.335,135.07 L749.295,135.07 L749.295,139.75 L732.105,139.75 L732.105,135.07 L727.065,135.07 L727.065,152.71 L754.335,152.71 Z M749.295,148.345 L732.105,148.345 L732.105,144.115 L749.295,144.115 L749.295,148.345 Z M744.165,167.965 L744.165,160.405 L759.42,160.405 L759.42,155.995 L721.98,155.995 L721.98,160.405 L739.125,160.405 L739.125,167.965 L744.165,167.965 Z M755.235,176.2 L755.235,171.79 L732.105,171.79 L732.105,163.78 L727.065,163.78 L727.065,176.2 L755.235,176.2 Z M797.384848,156.445 L797.384848,134.62 L792.344848,134.62 L792.344848,156.445 L797.384848,156.445 Z M762.239848,155.545 C762.749848,155.515 763.222348,155.4775 763.657348,155.4325 C764.092348,155.3875 764.519848,155.335 764.939848,155.275 C765.359848,155.215 765.794848,155.125 766.244848,155.005 C766.694848,154.885 767.189848,154.72 767.729848,154.51 C768.359848,154.27 769.034848,153.9625 769.754848,153.5875 C770.474848,153.2125 771.179848,152.7475 771.869848,152.1925 C772.559848,151.6375 773.197348,150.9775 773.782348,150.2125 C774.367348,149.4475 774.854848,148.555 775.244848,147.535 C776.054848,149.365 777.344848,150.91 779.114848,152.17 C780.884848,153.43 782.984848,154.495 785.414848,155.365 L785.414848,155.365 L787.799848,151.405 C786.419848,150.985 785.107348,150.415 783.862348,149.695 C782.617348,148.975 781.522348,148.1575 780.577348,147.2425 C779.632348,146.3275 778.882348,145.3375 778.327348,144.2725 C777.772348,143.2075 777.494848,142.12 777.494848,141.01 L777.494848,141.01 L777.494848,134.71 L769.529848,134.71 L769.529848,139.12 L772.364848,139.12 L772.364848,141.01 C772.364848,142.21 772.199848,143.2975 771.869848,144.2725 C771.539848,145.2475 771.104848,146.11 770.564848,146.86 C770.024848,147.61 769.417348,148.24 768.742348,148.75 C768.067348,149.26 767.369848,149.665 766.649848,149.965 C765.719848,150.355 764.879848,150.61 764.129848,150.73 C763.379848,150.85 762.749848,150.91 762.239848,150.91 L762.239848,150.91 L762.239848,155.545 Z M797.879848,177.1 L797.879848,172.735 L776.144848,172.735 L776.144848,169.72 L797.159848,169.72 L797.159848,158.11 L771.104848,158.11 L771.104848,162.475 L792.119848,162.475 L792.119848,165.535 L771.104848,165.535 L771.104848,177.1 L797.879848,177.1 Z M845.144545,174.265 L845.144545,153.34 L851.174545,153.34 L851.174545,148.93 L845.144545,148.93 L845.144545,134.62 L840.104545,134.62 L840.104545,174.265 L845.144545,174.265 Z M837.179545,164.77 L837.179545,160.36 L832.679545,160.36 L832.679545,140.425 L836.594545,140.425 L836.594545,136.015 L812.069545,136.015 L812.069545,140.425 L816.209545,140.425 L816.209545,160.36 L811.664545,160.36 L811.664545,164.77 L837.179545,164.77 Z M827.729545,160.36 L821.159545,160.36 L821.159545,140.425 L827.729545,140.425 L827.729545,160.36 Z M883.964393,152.755 L885.449393,148.525 C883.739393,148.285 882.111893,147.8725 880.566893,147.2875 C879.021893,146.7025 877.664393,146.0275 876.494393,145.2625 C875.324393,144.4975 874.401893,143.68 873.726893,142.81 C873.051893,141.94 872.714393,141.115 872.714393,140.335 L872.714393,140.335 L872.714393,134.62 L864.524393,134.62 L864.524393,139.03 L867.584393,139.03 L867.584393,140.38 C867.584393,141.19 867.389393,141.9625 866.999393,142.6975 C866.609393,143.4325 866.091893,144.1 865.446893,144.7 C864.801893,145.3 864.066893,145.8175 863.241893,146.2525 C862.416893,146.6875 861.584393,147.025 860.744393,147.265 C859.544393,147.595 858.374393,147.82 857.234393,147.94 C856.094393,148.06 855.269393,148.12 854.759393,148.12 L854.759393,148.12 L854.759393,152.62 C856.079393,152.56 857.301893,152.455 858.426893,152.305 C859.551893,152.155 860.684393,151.915 861.824393,151.585 C863.414393,151.105 864.951893,150.46 866.436893,149.65 C867.921893,148.84 869.234393,147.625 870.374393,146.005 C870.884393,146.845 871.634393,147.6325 872.624393,148.3675 C873.614393,149.1025 874.724393,149.7625 875.954393,150.3475 C877.184393,150.9325 878.496893,151.4275 879.891893,151.8325 C881.286893,152.2375 882.644393,152.545 883.964393,152.755 L883.964393,152.755 Z M888.869393,161.17 L888.869393,156.76 L872.669393,156.76 L872.669393,151 L867.629393,151 L867.629393,156.76 L851.429393,156.76 L851.429393,161.17 L888.869393,161.17 Z M884.684393,176.2 L884.684393,171.79 L861.554393,171.79 L861.554393,164.32 L856.514393,164.32 L856.514393,176.2 L884.684393,176.2 Z M936.809089,156.31 L936.809089,134.62 L931.769089,134.62 L931.769089,143.215 L923.174089,143.215 L923.174089,147.625 L931.769089,147.625 L931.769089,156.31 L936.809089,156.31 Z M902.069089,155.95 C903.449089,155.95 904.769089,155.7925 906.029089,155.4775 C907.289089,155.1625 908.459089,154.69 909.539089,154.06 C910.619089,153.43 911.571589,152.6575 912.396589,151.7425 C913.221589,150.8275 913.889089,149.77 914.399089,148.57 C915.389089,150.4 916.769089,151.93 918.539089,153.16 C920.309089,154.39 922.304089,155.275 924.524089,155.815 L924.524089,155.815 L926.639089,152.08 C925.289089,151.69 924.006589,151.1575 922.791589,150.4825 C921.576589,149.8075 920.519089,149.035 919.619089,148.165 C918.719089,147.295 918.006589,146.32 917.481589,145.24 C916.956589,144.16 916.694089,143.02 916.694089,141.82 L916.694089,141.82 L916.694089,139.795 L925.289089,139.795 L925.289089,135.385 L903.194089,135.385 L903.194089,139.795 L911.564089,139.795 L911.564089,141.82 C911.504089,143.35 911.226589,144.715 910.731589,145.915 C910.236589,147.115 909.576589,148.1425 908.751589,148.9975 C907.926589,149.8525 906.944089,150.505 905.804089,150.955 C904.664089,151.405 903.419089,151.63 902.069089,151.63 L902.069089,151.63 L902.069089,155.95 Z M936.584089,176.65 L936.584089,158.29 L931.589089,158.29 L931.589089,163.555 L915.434089,163.555 L915.434089,158.29 L910.439089,158.29 L910.439089,176.65 L936.584089,176.65 Z M931.589089,172.33 L915.434089,172.33 L915.434089,167.785 L931.589089,167.785 L931.589089,172.33 Z M973.828938,154.555 L975.538938,150.505 C973.828938,150.175 972.186438,149.6575 970.611438,148.9525 C969.036438,148.2475 967.648938,147.4075 966.448938,146.4325 C965.248938,145.4575 964.288938,144.3775 963.568938,143.1925 C962.848938,142.0075 962.488938,140.785 962.488938,139.525 L962.488938,139.525 L962.488938,134.575 L954.298938,134.575 L954.298938,138.985 L957.358938,138.985 L957.358938,139.525 C957.358938,140.725 957.148938,141.8275 956.728938,142.8325 C956.308938,143.8375 955.761438,144.73 955.086438,145.51 C954.411438,146.29 953.638938,146.9575 952.768938,147.5125 C951.898938,148.0675 950.998938,148.51 950.068938,148.84 C948.898938,149.26 947.766438,149.545 946.671438,149.695 C945.576438,149.845 944.773938,149.92 944.263938,149.92 L944.263938,149.92 L944.263938,154.465 C945.583938,154.405 946.776438,154.2925 947.841438,154.1275 C948.906438,153.9625 950.008938,153.67 951.148938,153.25 C952.138938,152.89 953.046438,152.4925 953.871438,152.0575 C954.696438,151.6225 955.476438,151.12 956.211438,150.55 C956.946438,149.98 957.643938,149.335 958.303938,148.615 C958.963938,147.895 959.593938,147.07 960.193938,146.14 C960.673938,147.13 961.386438,148.0825 962.331438,148.9975 C963.276438,149.9125 964.363938,150.7525 965.593938,151.5175 C966.823938,152.2825 968.143938,152.9275 969.553938,153.4525 C970.963938,153.9775 972.388938,154.345 973.828938,154.555 L973.828938,154.555 Z M962.443938,175.165 L962.443938,162.745 L978.643938,162.745 L978.643938,158.335 L941.203938,158.335 L941.203938,162.745 L957.403938,162.745 L957.403938,175.165 L962.443938,175.165 Z M1024.78363,156.76 L1024.78363,147.94 L1030.72363,147.94 L1030.72363,143.53 L1024.78363,143.53 L1024.78363,134.62 L1019.74363,134.62 L1019.74363,156.76 L1024.78363,156.76 Z M1013.30863,155.005 L1013.30863,135.16 L1008.35863,135.16 L1008.35863,140.875 L997.828634,140.875 L997.828634,135.16 L992.878634,135.16 L992.878634,155.005 L1013.30863,155.005 Z M1008.35863,150.64 L997.828634,150.64 L997.828634,145.195 L1008.35863,145.195 L1008.35863,150.64 Z M1013.17363,177.505 C1014.73363,177.505 1016.22613,177.28 1017.65113,176.83 C1019.07613,176.38 1020.32863,175.7275 1021.40863,174.8725 C1022.48863,174.0175 1023.34363,172.975 1023.97363,171.745 C1024.60363,170.515 1024.91863,169.12 1024.91863,167.56 C1024.91863,166 1024.60363,164.605 1023.97363,163.375 C1023.34363,162.145 1022.48863,161.1025 1021.40863,160.2475 C1020.32863,159.3925 1019.07613,158.74 1017.65113,158.29 C1016.22613,157.84 1014.73363,157.615 1013.17363,157.615 C1011.61363,157.615 1010.12113,157.84 1008.69613,158.29 C1007.27113,158.74 1006.01863,159.3925 1004.93863,160.2475 C1003.85863,161.1025 1003.00363,162.145 1002.37363,163.375 C1001.74363,164.605 1001.42863,166 1001.42863,167.56 C1001.42863,169.12 1001.74363,170.515 1002.37363,171.745 C1003.00363,172.975 1003.85863,174.0175 1004.93863,174.8725 C1006.01863,175.7275 1007.27113,176.38 1008.69613,176.83 C1010.12113,177.28 1011.61363,177.505 1013.17363,177.505 Z M1013.17363,173.275 C1012.21363,173.275 1011.32863,173.1475 1010.51863,172.8925 C1009.70863,172.6375 1008.99613,172.27 1008.38113,171.79 C1007.76613,171.31 1007.28613,170.71 1006.94113,169.99 C1006.59613,169.27 1006.42363,168.46 1006.42363,167.56 C1006.42363,166.66 1006.59613,165.85 1006.94113,165.13 C1007.28613,164.41 1007.76613,163.81 1008.38113,163.33 C1008.99613,162.85 1009.70863,162.4825 1010.51863,162.2275 C1011.32863,161.9725 1012.21363,161.845 1013.17363,161.845 C1014.10363,161.845 1014.98113,161.9725 1015.80613,162.2275 C1016.63113,162.4825 1017.35113,162.85 1017.96613,163.33 C1018.58113,163.81 1019.06113,164.41 1019.40613,165.13 C1019.75113,165.85 1019.92363,166.66 1019.92363,167.56 C1019.92363,168.46 1019.75113,169.27 1019.40613,169.99 C1019.06113,170.71 1018.58113,171.31 1017.96613,171.79 C1017.35113,172.27 1016.63113,172.6375 1015.80613,172.8925 C1014.98113,173.1475 1014.10363,173.275 1013.17363,173.275 Z M1066.61848,156.445 L1066.61848,134.62 L1061.57848,134.62 L1061.57848,143.125 L1054.87348,143.125 L1054.87348,147.535 L1061.57848,147.535 L1061.57848,156.445 L1066.61848,156.445 Z M1052.98348,154.78 L1052.98348,135.16 L1048.03348,135.16 L1048.03348,141.055 L1037.72848,141.055 L1037.72848,135.16 L1032.77848,135.16 L1032.77848,154.78 L1052.98348,154.78 Z M1048.03348,150.46 L1037.72848,150.46 L1037.72848,145.375 L1048.03348,145.375 L1048.03348,150.46 Z M1066.39348,176.65 L1066.39348,158.47 L1061.39848,158.47 L1061.39848,163.645 L1045.24348,163.645 L1045.24348,158.47 L1040.24848,158.47 L1040.24848,176.65 L1066.39348,176.65 Z M1061.39848,172.33 L1045.24348,172.33 L1045.24348,167.875 L1061.39848,167.875 L1061.39848,172.33 Z" id="휴대폰보험가이드분실파손접수방법"></path>
        </g>
    </g>
</svg>