<?xml version="1.0" encoding="UTF-8"?>
<svg width="308px" height="95px" viewBox="0 0 308 95" version="1.1" xmlns="http://www.w3.org/2000/svg" xmlns:xlink="http://www.w3.org/1999/xlink">
    <title>ioc_google</title>
    <g id="Page-1" stroke="none" stroke-width="1" fill="none" fill-rule="evenodd">
        <g id="Artboard-Copy-3" transform="translate(-1842.000000, -1014.000000)">
            <g id="ioc_google" transform="translate(1842.000000, 1014.891584)">
                <g id="Group-11" transform="translate(43.000000, 31.000000)">
                    <path d="M29.5524729,15.4934617 L23.833879,12.1084161 L16,18.1084161 L23.833879,24.1084161 L29.5714286,20.7110066 C30.4666552,20.1537502 31,19.1814217 31,18.1084161 C31,17.0354105 30.4666552,16.063082 29.5524729,15.4934617" id="Fill-12" fill="#FF9100"></path>
                    <path d="M18,18.1344498 C17.9907877,18.1463248 10.5941962,27.5760016 10.5886688,27.5842227 L0.952556426,35.1084161 C0.360202672,34.5192325 1.8189894e-12,33.7217795 1.8189894e-12,32.8402879 L1.8189894e-12,3.37654428 C1.8189894e-12,2.49505265 0.360202672,1.69668613 0.952556426,1.10841607 L10.5886688,8.68467678 C10.5941962,8.69289795 17.9907877,18.1225747 18,18.1344498" id="Fill-13" fill="#25D9F8"></path>
                    <polygon id="Fill-14" fill="#00C0F1" points="18 18.6084161 16 21.1084161 16 16.1084161"></polygon>
                    <path d="M24,11.8640607 L17.8160806,18.1084161 L1,1.00503033 C1.20991703,0.815084468 1.41801659,0.668266413 1.64792572,0.520530746 C2.65116555,-0.0493068286 3.84160411,-0.0282017333 4.82303437,0.583846032 L15.7269064,7.05485179 L24,11.8640607 Z" id="Fill-15" fill="#7FE881"></path>
                    <polygon id="Fill-16" fill="#5BC980" points="24 11.8943201 18.0202109 18.1084161 16 16.009047 16 7.10841607"></polygon>
                    <path d="M24,24.3671663 L15.7269064,29.1874616 L4.80213354,35.6430336 C4.30142236,35.9382664 3.75800079,36.1084161 3.19367839,36.1084161 C2.67115765,36.1084161 2.14954563,35.9594201 1.64792572,35.6853411 C1.41801659,35.5372649 1.20991703,35.3882689 1,35.1988049 L17.8160806,18.1084161 L24,24.3671663 Z" id="Fill-17" fill="#FF637B"></path>
                    <polygon id="Fill-18" fill="#E63950" points="24 24.322512 16 29.1084161 16 20.2077852 18.0202109 18.1084161"></polygon>
                </g>
                <text id="구글-플레이-다운로드" font-family="NanumSquareOTF_acB, NanumSquareOTF_ac" font-size="22" font-weight="bold" fill="#1E1E1E">
                    <tspan x="84.36" y="54">구글 플레이 다운로드</tspan>
                </text>
                <rect id="Rectangle" stroke="#979797" x="0.5" y="0.608416071" width="307" height="92"></rect>
            </g>
        </g>
    </g>
</svg>