<?xml version="1.0" encoding="UTF-8"?>
<svg width="200px" height="43px" viewBox="0 0 200 43" version="1.1" xmlns="http://www.w3.org/2000/svg" xmlns:xlink="http://www.w3.org/1999/xlink">
    <title>Group</title>
    <g id="Page-1" stroke="none" stroke-width="1" fill="none" fill-rule="evenodd">
        <g id="Claim-instruction_20201005" transform="translate(-118.000000, -801.000000)">
            <g id="Group" transform="translate(118.558600, 801.536000)">
                <path d="M82.2277,21.629 C81.5597,21.755 80.8847,21.819 80.1977,21.819 L76.5997,21.844 L76.5997,19.167 L83.1207,19.167 C83.3377,18.245 83.4727,17.208 83.5267,16.055 L77.0587,16.055 L77.0587,13.293 L87.3167,13.293 L87.2347,15.186 C87.1637,16.525 86.9917,17.777 86.7207,18.948 L89.4557,18.948 L89.4557,12.751 L92.7557,12.751 L92.7557,32.373 C92.7557,32.97 92.5947,33.424 92.2697,33.742 C91.9447,34.058 91.5577,34.215 91.1057,34.215 C90.6547,34.215 90.2667,34.052 89.9417,33.727 C89.6167,33.401 89.4547,32.95 89.4547,32.373 L89.4547,21.844 L85.7477,21.844 C84.3747,24.93 81.9837,27.394 78.5757,29.234 C78.3037,29.398 78.0327,29.477 77.7627,29.477 C77.4017,29.477 77.0987,29.352 76.8557,29.098 C76.6117,28.847 76.4897,28.541 76.4897,28.18 C76.4897,27.69 76.7337,27.285 77.2217,26.961 C79.5677,25.334 81.2357,23.562 82.2277,21.629 L82.2277,21.629 Z M94.7057,32.455 L94.7057,12.751 L98.0607,12.751 L98.0607,32.455 C98.0607,33.031 97.8947,33.479 97.5607,33.793 C97.2257,34.111 96.8337,34.268 96.3837,34.268 C95.9327,34.268 95.5407,34.111 95.2067,33.793 C94.8717,33.478 94.7057,33.03 94.7057,32.455 L94.7057,32.455 Z M115.0847,21.629 C114.7967,23.359 114.0337,24.746 112.7977,25.782 C111.5617,26.82 110.0327,27.341 108.2107,27.341 C106.1527,27.341 104.4807,26.677 103.1897,25.35 C101.8997,24.024 101.2547,22.315 101.2547,20.222 C101.2547,18.11 101.8997,16.391 103.1897,15.066 C104.4807,13.739 106.1527,13.076 108.2107,13.076 C110.0157,13.076 111.5297,13.584 112.7577,14.604 C113.9847,15.626 114.7507,16.983 115.0587,18.677 L118.0357,18.677 L118.0357,12.751 L121.6897,12.751 L121.6897,32.455 C121.6897,33.049 121.5087,33.51 121.1477,33.835 C120.7867,34.16 120.3537,34.322 119.8487,34.322 C119.3607,34.322 118.9367,34.16 118.5777,33.835 C118.2157,33.51 118.0357,33.049 118.0357,32.455 L118.0357,21.629 L115.0847,21.629 Z M111.2967,20.221 C111.2967,18.868 111.0117,17.831 110.4447,17.108 C109.8747,16.387 109.1327,16.025 108.2107,16.025 C107.3087,16.025 106.5727,16.387 106.0057,17.108 C105.4357,17.831 105.1517,18.867 105.1517,20.222 C105.1517,21.556 105.4357,22.586 106.0057,23.308 C106.5727,24.029 107.3087,24.389 108.2107,24.389 C109.1327,24.389 109.8747,24.028 110.4447,23.308 C111.0117,22.586 111.2967,21.556 111.2967,20.222 L111.2967,20.221 Z" id="Fill-11" fill="#D71020"></path>
                <path d="M52.4416,12.63 L59.4856,31.184 C59.6436,31.618 59.7216,31.953 59.7216,32.19 C59.7216,33.295 59.1496,33.935 58.0056,34.114 C57.8676,34.151 57.7396,34.173 57.6216,34.173 C56.6146,34.173 55.9056,33.64 55.4896,32.574 L54.0106,28.697 L46.1686,28.697 L44.5716,32.78 C44.2156,33.728 43.5446,34.203 42.5586,34.203 C41.9866,34.203 41.5036,34.031 41.1096,33.686 C40.7136,33.34 40.5176,32.891 40.5176,32.339 C40.5176,32.063 40.5576,31.816 40.6346,31.598 L47.8856,12.63 L52.4426,12.63 L52.4416,12.63 Z M52.8276,25.236 L51.1106,20.291 C50.7956,19.364 50.5196,18.39 50.2826,17.364 L50.1926,16.831 L50.0746,16.831 C50.0556,17.085 49.9576,17.543 49.7786,18.193 C49.5806,18.96 49.3646,19.66 49.1286,20.291 L47.3226,25.235 L52.8276,25.235 L52.8276,25.236 Z M65.2576,12.776 L65.2576,32.406 C65.2576,33.301 64.8656,33.893 64.0826,34.184 C63.8266,34.292 63.5716,34.349 63.3176,34.349 C62.7526,34.349 62.2906,34.166 61.9366,33.801 C61.5816,33.437 61.4026,32.972 61.4026,32.406 L61.4026,12.777 L65.2576,12.777 L65.2576,12.776 Z M72.5576,12.776 L72.5576,32.406 C72.5576,33.301 72.1656,33.893 71.3826,34.184 C71.1266,34.292 70.8716,34.349 70.6166,34.349 C70.0516,34.349 69.5906,34.166 69.2366,33.801 C68.8806,33.437 68.7026,32.972 68.7026,32.406 L68.7026,12.777 L72.5576,12.777 L72.5576,12.776 Z" id="Fill-13" fill="#E7680B"></path>
                <path d="M21.1335,37.464 L21.1335,28.353 C21.1335,25.923 21.8145,23.822 23.5915,23.173 L31.1835,20.47 C31.3755,19.993 31.7285,19.044 31.7005,17.707 C31.6045,13.095 29.0765,9.748 25.5885,8.605 L4.7935,2.105 L10.2175,0.163 C10.5095,0.059 10.8715,-2.84217094e-14 11.1915,-2.84217094e-14 C11.5325,-2.84217094e-14 11.9355,0.07 12.2065,0.158 L33.4205,6.788 C37.1125,8.019 38.4885,12.43 38.4885,14.818 C38.4885,16.755 37.8295,18.99 35.7695,19.74 C33.9395,20.405 28.4465,22.373 28.4465,22.373 C28.2465,22.847 27.9105,23.741 27.9105,25.699 L27.9105,33.91 C27.9105,36.495 26.6655,38.838 24.2775,38.838 C23.2405,38.838 22.0615,38.357 21.1345,37.464" id="Fill-15" fill="#E7690A"></path>
                <path d="M15.695,16.754 C16.788,18.413 17.341,20.501 17.341,22.27 L17.341,29.914 C17.341,34.644 19.528,38.502 23.132,39.602 L17.57,41.523 C16.455,41.909 15.363,41.509 14.704,41.086 C11.997,39.352 10.567,36.661 10.567,32.528 C10.567,30.587 10.556,27.93 10.556,24.505 C10.556,22.552 9.725,20.276 8.442,18.592 C7.478,17.322 6.363,16.528 4.946,16.023 C2.209,15.044 7.10542736e-15,11.492 7.10542736e-15,8.002 C7.10542736e-15,5.001 1.525,3.112 3.554,2.967 C3.993,2.937 4.362,3.015 4.715,3.122 C5.921,3.49 6.892,3.823 6.892,3.823 C6.221,7.295 8.244,12.618 12.325,14.061 C13.929,14.627 14.877,15.509 15.695,16.754" id="Fill-17" fill="#D71020"></path>
                <path d="M175.0431,32.8449 L175.0431,29.9299 L196.9711,29.9299 C197.4251,29.9299 197.7841,30.0749 198.0471,30.3659 C198.3111,30.6569 198.4411,31.0019 198.4411,31.4029 C198.4411,31.7999 198.3111,32.1409 198.0471,32.4229 C197.7831,32.7039 197.4251,32.8449 196.9711,32.8449 L175.0431,32.8449 Z M195.6641,23.7199 C196.2801,24.0459 196.5891,24.4999 196.5891,25.0819 C196.5891,25.8629 196.1361,26.2519 195.2271,26.2519 C195.0821,26.2519 194.9281,26.2359 194.7651,26.1989 C193.8741,26.0539 192.5041,25.3639 190.6511,24.1279 C188.5441,22.7119 187.1741,21.3589 186.5391,20.0689 C185.9211,21.3959 184.5951,22.7479 182.5611,24.1279 C180.7811,25.3259 179.3651,26.0249 178.3121,26.2259 C178.1851,26.2439 178.0581,26.2519 177.9311,26.2519 C177.5311,26.2519 177.2051,26.1259 176.9501,25.8719 C176.6961,25.6179 176.5681,25.3189 176.5681,24.9729 C176.5681,24.4089 176.8691,23.9829 177.4671,23.6919 C179.3741,22.7479 180.9361,21.5869 182.1531,20.2049 C183.7871,18.3539 184.6051,16.2649 184.6051,13.9419 L184.6051,12.9059 L188.4721,12.9059 L188.4721,13.9419 C188.4721,16.2829 189.3621,18.4259 191.1421,20.3699 C192.3401,21.6409 193.8481,22.7579 195.6641,23.7199 L195.6641,23.7199 Z M164.3391,28.3239 C162.3231,28.9769 159.9351,29.3039 157.1751,29.3039 C156.6301,29.3039 156.0851,29.2849 155.5411,29.2489 C153.1061,29.1409 151.8901,27.9239 151.8901,25.5999 L151.8901,21.5949 C151.8901,20.1979 152.5991,19.4969 154.0151,19.4969 L159.6811,19.4969 C159.9351,19.4969 160.0621,19.3629 160.0621,19.0889 L160.0621,15.9029 L152.3541,15.9029 L152.3541,13.0149 L163.7111,13.0149 L163.7111,20.1239 C163.7111,21.5409 163.0041,22.2479 161.5871,22.2479 L156.1401,22.2479 C155.7401,22.2479 155.5411,22.4489 155.5411,22.8479 L155.5411,25.0539 C155.5411,25.6719 155.9131,26.0629 156.6571,26.2259 C156.9111,26.2799 157.5471,26.3079 158.5641,26.3079 C160.4161,26.3079 162.1231,26.1159 163.6861,25.7359 C163.8491,25.6799 164.0021,25.6539 164.1471,25.6539 C164.5301,25.6539 164.8371,25.7809 165.0731,26.0349 C165.3101,26.2899 165.4281,26.5899 165.4281,26.9339 C165.4281,27.6239 165.0641,28.0869 164.3391,28.3239 L164.3391,28.3239 Z M164.3391,21.6499 L164.3391,18.6819 L168.0981,18.6819 L168.0981,12.4969 L171.7761,12.4969 L171.7761,32.3269 C171.7761,32.9269 171.5931,33.3889 171.2301,33.7159 C170.8661,34.0429 170.4311,34.2069 169.9221,34.2069 C169.4321,34.2069 169.0061,34.0429 168.6421,33.7159 C168.2791,33.3889 168.0981,32.9269 168.0981,32.3269 L168.0981,21.6499 L164.3391,21.6499 Z M125.9861,25.4629 L125.9861,22.6849 L147.9141,22.6849 C148.3861,22.6849 148.7571,22.8209 149.0311,23.0929 C149.3031,23.3659 149.4391,23.6929 149.4391,24.0739 C149.4391,24.4549 149.3031,24.7819 149.0311,25.0539 C148.7581,25.3259 148.3861,25.4629 147.9141,25.4629 L125.9871,25.4629 L125.9861,25.4629 Z M131.3531,18.2989 L131.3531,15.2479 L128.4381,15.2479 L128.4381,12.5519 L146.6881,12.5519 L146.6881,15.2479 L143.8011,15.2479 L143.8011,18.2979 L145.5441,18.2979 C146.0341,18.2979 146.4111,18.4299 146.6741,18.6949 C146.9381,18.9579 147.0691,19.2709 147.0691,19.6339 C147.0691,19.9979 146.9371,20.3109 146.6741,20.5739 C146.4101,20.8369 146.0341,20.9689 145.5441,20.9689 L128.3281,20.9689 L128.3281,18.2989 L131.3531,18.2989 Z M145.8151,31.7829 C145.8151,32.4739 145.6851,32.9489 145.4221,33.2129 C145.1581,33.4749 144.6631,33.6089 143.9381,33.6089 L133.2321,33.6089 C132.9961,33.6089 132.8771,33.7259 132.8771,33.9619 L132.8771,34.6429 C132.8771,34.9329 133.0421,35.0779 133.3681,35.0779 L145.2721,35.0779 C145.7431,35.0779 146.1111,35.2099 146.3751,35.4739 C146.6391,35.7359 146.7701,36.0409 146.7701,36.3859 C146.7701,36.7299 146.6381,37.0309 146.3741,37.2849 C146.1111,37.5389 145.7431,37.6659 145.2721,37.6659 L131.6251,37.6659 C130.7891,37.6659 130.1891,37.5119 129.8281,37.2029 C129.3911,36.8399 129.1731,36.2229 129.1731,35.3509 L129.1731,32.8179 C129.1731,31.7089 129.7541,31.1569 130.9171,31.1569 L141.7581,31.1569 C141.9931,31.1569 142.1131,31.0459 142.1131,30.8289 L142.1131,30.0669 C142.1131,29.8659 142.0031,29.7669 141.7851,29.7669 L129.3651,29.7669 L129.3651,27.1799 L144.1561,27.1799 C145.2631,27.1799 145.8151,27.7059 145.8151,28.7589 L145.8151,31.7829 Z M134.9481,18.2989 L140.2061,18.2989 L140.2061,15.2479 L134.9481,15.2479 L134.9481,18.2979 L134.9481,18.2989 Z" id="Fill-19" fill="#4B4564"></path>
            </g>
        </g>
    </g>
</svg>