<?xml version="1.0" encoding="UTF-8"?>
<svg width="235px" height="72px" viewBox="0 0 235 72" version="1.1" xmlns="http://www.w3.org/2000/svg" xmlns:xlink="http://www.w3.org/1999/xlink">
    <title>휴대폰보험가이드분실파손접수방법</title>
    <g id="Page-1" stroke="none" stroke-width="1" fill="none" fill-rule="evenodd">
        <g id="Android" transform="translate(-63.000000, -40.000000)" fill="#FFFFFF" fill-rule="nonzero">
            <path d="M79.59719,58.653 C80.7958567,58.653 81.89119,58.467 82.88319,58.095 C83.87519,57.723 84.72769,57.2166667 85.44069,56.576 C86.15369,55.9353333 86.7065233,55.181 87.09919,54.313 C87.4918567,53.445 87.68819,52.5046667 87.68819,51.492 C87.68819,50.7066667 87.5590233,49.9575 87.30069,49.2445 C87.0423567,48.5315 86.6755233,47.8753333 86.20019,47.276 L86.20019,47.276 L90.07519,47.276 L90.07519,44.269 L81.39519,44.269 L81.39519,40.89 L77.79919,40.89 L77.79919,44.269 L69.11919,44.269 L69.11919,47.276 L72.99419,47.276 C72.00219,48.516 71.50619,49.9213333 71.50619,51.492 C71.50619,52.5046667 71.7025233,53.445 72.09519,54.313 C72.4878567,55.181 73.04069,55.9353333 73.75369,56.576 C74.46669,57.2166667 75.31919,57.723 76.31119,58.095 C77.30319,58.467 78.3985233,58.653 79.59719,58.653 Z M79.59719,55.646 C78.1298567,55.646 76.99319,55.2636667 76.18719,54.499 C75.38119,53.7343333 74.97819,52.732 74.97819,51.492 C74.97819,50.252 75.38119,49.2496667 76.18719,48.485 C76.99319,47.7203333 78.1298567,47.338 79.59719,47.338 C81.0645233,47.338 82.20119,47.7203333 83.00719,48.485 C83.81319,49.2496667 84.21619,50.252 84.21619,51.492 C84.21619,52.732 83.81319,53.7343333 83.00719,54.499 C82.20119,55.2636667 81.0645233,55.646 79.59719,55.646 Z M76.37319,70.247 L76.37319,63.706 L83.13119,63.706 L83.13119,70.247 L86.60319,70.247 L86.60319,63.706 L92.64819,63.706 L92.64819,60.668 L66.85619,60.668 L66.85619,63.706 L72.90119,63.706 L72.90119,70.247 L76.37319,70.247 Z M119.245752,69.627 L119.245752,42.316 L115.773752,42.316 L115.773752,51.771 L112.611752,51.771 L112.611752,42.316 L109.201752,42.316 L109.201752,69.1 L112.611752,69.1 L112.611752,54.809 L115.773752,54.809 L115.773752,69.627 L119.245752,69.627 Z M99.560752,62.9 C101.234752,62.9 102.795085,62.8173333 104.241752,62.652 C105.688419,62.4866667 106.907752,62.1973333 107.899752,61.784 L107.899752,61.784 L107.310752,59.087 C106.525419,59.3763333 105.543752,59.5778333 104.365752,59.6915 C103.187752,59.8051667 101.885752,59.862 100.459752,59.862 L100.459752,59.862 L99.405752,59.862 L99.405752,46.315 L106.473752,46.315 L106.473752,43.277 L93.329752,43.277 L93.329752,46.315 L95.902752,46.315 L95.902752,62.9 L99.560752,62.9 Z M146.711314,60.42 L146.711314,57.382 L135.551314,57.382 L135.551314,54.468 L144.045314,54.468 L144.045314,51.461 L140.573314,51.461 L140.573314,45.633 L143.456314,45.633 L143.456314,42.626 L124.236314,42.626 L124.236314,45.633 L127.150314,45.633 L127.150314,51.461 L123.678314,51.461 L123.678314,54.468 L132.079314,54.468 L132.079314,57.382 L120.919314,57.382 L120.919314,60.42 L146.711314,60.42 Z M137.163314,51.461 L130.560314,51.461 L130.560314,45.633 L137.163314,45.633 L137.163314,51.461 Z M143.611314,70.96 L143.611314,67.922 L127.894314,67.922 L127.894314,62.466 L124.422314,62.466 L124.422314,70.96 L143.611314,70.96 Z M180.624438,65.69 L180.624438,62.652 L169.464438,62.652 L169.464438,58.157 L177.245438,58.157 L177.245438,43.091 L173.773438,43.091 L173.773438,47.803 L161.683438,47.803 L161.683438,43.091 L158.211438,43.091 L158.211438,58.157 L165.992438,58.157 L165.992438,62.652 L154.832438,62.652 L154.832438,65.69 L180.624438,65.69 Z M173.773438,55.119 L161.683438,55.119 L161.683438,50.841 L173.773438,50.841 L173.773438,55.119 Z M190.606,58.436 C191.66,58.436 192.626167,58.2655 193.5045,57.9245 C194.382833,57.5835 195.1475,57.103 195.7985,56.483 C196.4495,55.863 196.955833,55.1345 197.3175,54.2975 C197.679167,53.4605 197.86,52.546 197.86,51.554 C197.86,50.81 197.7515,50.1021667 197.5345,49.4305 C197.3175,48.7588333 197.012667,48.144 196.62,47.586 L196.62,47.586 L199.534,47.586 L199.534,44.61 L192.404,44.61 L192.404,41.231 L188.808,41.231 L188.808,44.61 L181.616,44.61 L181.616,47.586 L184.561,47.586 C183.755,48.7433333 183.352,50.066 183.352,51.554 C183.352,52.546 183.532833,53.4605 183.8945,54.2975 C184.256167,55.1345 184.7625,55.863 185.4135,56.483 C186.0645,57.103 186.829167,57.5835 187.7075,57.9245 C188.585833,58.2655 189.552,58.436 190.606,58.436 Z M206.323,58.963 L206.323,42.316 L202.851,42.316 L202.851,50.469 L199.007,50.469 L199.007,53.507 L202.851,53.507 L202.851,58.963 L206.323,58.963 Z M190.606,55.584 C189.366,55.584 188.399833,55.2223333 187.7075,54.499 C187.015167,53.7756667 186.669,52.794 186.669,51.554 C186.669,50.314 187.015167,49.3323333 187.7075,48.609 C188.399833,47.8856667 189.366,47.524 190.606,47.524 C191.846,47.524 192.812167,47.8856667 193.5045,48.609 C194.196833,49.3323333 194.543,50.314 194.543,51.554 C194.543,52.794 194.196833,53.7756667 193.5045,54.499 C192.812167,55.2223333 191.846,55.584 190.606,55.584 Z M206.168,71.27 L206.168,60.482 L188.157,60.482 L188.157,71.27 L206.168,71.27 Z M202.727,68.294 L191.598,68.294 L191.598,63.458 L202.727,63.458 L202.727,68.294 Z M238.004124,69.627 L238.004124,55.212 L242.623124,55.212 L242.623124,52.174 L238.004124,52.174 L238.004124,42.316 L234.532124,42.316 L234.532124,69.627 L238.004124,69.627 Z M217.451124,63.489 C219.621124,62.6623333 221.522457,61.6186667 223.155124,60.358 C224.787791,59.0973333 226.151791,57.6971667 227.247124,56.1575 C228.342457,54.6178333 229.169124,52.98 229.727124,51.244 C230.285124,49.508 230.564124,47.741 230.564124,45.943 L230.564124,45.943 L230.564124,43.277 L216.862124,43.277 L216.862124,46.315 L227.030124,46.315 C227.030124,49.601 226.063957,52.4685 224.131624,54.9175 C222.199291,57.3665 219.424791,59.335 215.808124,60.823 L215.808124,60.823 L217.451124,63.489 Z M251.736686,61.536 C252.873353,61.536 253.953186,61.3345 254.976186,60.9315 C255.999186,60.5285 256.893019,59.9705 257.657686,59.2575 C258.422353,58.5445 259.032019,57.692 259.486686,56.7 C259.941353,55.708 260.168686,54.6333333 260.168686,53.476 C260.168686,52.4633333 259.998186,51.5178333 259.657186,50.6395 C259.316186,49.7611667 258.840853,48.981 258.231186,48.299 C257.621519,47.617 256.908519,47.0435 256.092186,46.5785 C255.275853,46.1135 254.402686,45.788 253.472686,45.602 L253.472686,45.602 L253.472686,42.161 L249.938686,42.161 L249.938686,45.602 C249.008686,45.788 248.135519,46.1186667 247.319186,46.594 C246.502853,47.0693333 245.800186,47.648 245.211186,48.33 C244.622186,49.012 244.157186,49.787 243.816186,50.655 C243.475186,51.523 243.304686,52.4633333 243.304686,53.476 C243.304686,54.6333333 243.532019,55.708 243.986686,56.7 C244.441353,57.692 245.051019,58.5445 245.815686,59.2575 C246.580353,59.9705 247.474186,60.5285 248.497186,60.9315 C249.520186,61.3345 250.600019,61.536 251.736686,61.536 Z M267.608686,69.627 L267.608686,42.316 L264.136686,42.316 L264.136686,69.627 L267.608686,69.627 Z M251.736686,58.529 C251.075353,58.529 250.445019,58.4101667 249.845686,58.1725 C249.246353,57.9348333 248.719353,57.599 248.264686,57.165 C247.810019,56.731 247.453519,56.204 247.195186,55.584 C246.936853,54.964 246.807686,54.2613333 246.807686,53.476 C246.807686,52.7113333 246.936853,52.0138333 247.195186,51.3835 C247.453519,50.7531667 247.810019,50.221 248.264686,49.787 C248.719353,49.353 249.246353,49.0171667 249.845686,48.7795 C250.445019,48.5418333 251.075353,48.423 251.736686,48.423 C252.398019,48.423 253.028353,48.5418333 253.627686,48.7795 C254.227019,49.0171667 254.748853,49.353 255.193186,49.787 C255.637519,50.221 255.994019,50.7531667 256.262686,51.3835 C256.531353,52.0138333 256.665686,52.7113333 256.665686,53.476 C256.665686,54.2613333 256.531353,54.964 256.262686,55.584 C255.994019,56.204 255.637519,56.731 255.193186,57.165 C254.748853,57.599 254.227019,57.9348333 253.627686,58.1725 C253.028353,58.4101667 252.398019,58.529 251.736686,58.529 Z M283.077248,57.692 C285.309248,57.692 287.174415,57.6248333 288.672748,57.4905 C290.171081,57.3561667 291.395581,57.134 292.346248,56.824 L292.346248,56.824 L291.850248,53.91 C289.928248,54.406 287.272581,54.654 283.883248,54.654 L283.883248,54.654 L277.094248,54.654 L277.094248,46.253 L291.633248,46.253 L291.633248,43.215 L271.049248,43.215 L271.049248,46.253 L273.622248,46.253 L273.622248,57.692 L283.077248,57.692 Z M295.632248,65.69 L295.632248,62.652 L269.840248,62.652 L269.840248,65.69 L295.632248,65.69 Z M85.704409,94.778 L85.704409,82.626 L82.232409,82.626 L82.232409,85.85 L70.390409,85.85 L70.390409,82.626 L66.918409,82.626 L66.918409,94.778 L85.704409,94.778 Z M82.232409,91.771 L70.390409,91.771 L70.390409,88.857 L82.232409,88.857 L82.232409,91.771 Z M78.698409,105.287 L78.698409,100.079 L89.207409,100.079 L89.207409,97.041 L63.415409,97.041 L63.415409,100.079 L75.226409,100.079 L75.226409,105.287 L78.698409,105.287 Z M86.324409,110.96 L86.324409,107.922 L70.390409,107.922 L70.390409,102.404 L66.918409,102.404 L66.918409,110.96 L86.324409,110.96 Z M115.060971,97.351 L115.060971,82.316 L111.588971,82.316 L111.588971,97.351 L115.060971,97.351 Z M90.849971,96.731 C91.2013043,96.7103333 91.5268043,96.6845 91.826471,96.6535 C92.1261377,96.6225 92.4206377,96.5863333 92.709971,96.545 C92.9993043,96.5036667 93.298971,96.4416667 93.608971,96.359 C93.918971,96.2763333 94.259971,96.1626667 94.631971,96.018 C95.065971,95.8526667 95.530971,95.6408333 96.026971,95.3825 C96.522971,95.1241667 97.0086377,94.8038333 97.483971,94.4215 C97.9593043,94.0391667 98.398471,93.5845 98.801471,93.0575 C99.204471,92.5305 99.5403043,91.9156667 99.808971,91.213 C100.366971,92.4736667 101.255638,93.538 102.474971,94.406 C103.694304,95.274 105.140971,96.0076667 106.814971,96.607 L106.814971,96.607 L108.457971,93.879 C107.507304,93.5896667 106.603138,93.197 105.745471,92.701 C104.887804,92.205 104.133471,91.6418333 103.482471,91.0115 C102.831471,90.3811667 102.314804,89.6991667 101.932471,88.9655 C101.550138,88.2318333 101.358971,87.4826667 101.358971,86.718 L101.358971,86.718 L101.358971,82.378 L95.871971,82.378 L95.871971,85.416 L97.824971,85.416 L97.824971,86.718 C97.824971,87.5446667 97.7113043,88.2938333 97.483971,88.9655 C97.2566377,89.6371667 96.956971,90.2313333 96.584971,90.748 C96.212971,91.2646667 95.794471,91.6986667 95.329471,92.05 C94.864471,92.4013333 94.383971,92.6803333 93.887971,92.887 C93.2473043,93.1556667 92.6686377,93.3313333 92.151971,93.414 C91.6353043,93.4966667 91.2013043,93.538 90.849971,93.538 L90.849971,93.538 L90.849971,96.731 Z M115.401971,111.58 L115.401971,108.573 L100.428971,108.573 L100.428971,106.496 L114.905971,106.496 L114.905971,98.498 L96.956971,98.498 L96.956971,101.505 L111.433971,101.505 L111.433971,103.613 L96.956971,103.613 L96.956971,111.58 L115.401971,111.58 Z M147.362095,109.627 L147.362095,95.212 L151.516095,95.212 L151.516095,92.174 L147.362095,92.174 L147.362095,82.316 L143.890095,82.316 L143.890095,109.627 L147.362095,109.627 Z M141.875095,103.086 L141.875095,100.048 L138.775095,100.048 L138.775095,86.315 L141.472095,86.315 L141.472095,83.277 L124.577095,83.277 L124.577095,86.315 L127.429095,86.315 L127.429095,100.048 L124.298095,100.048 L124.298095,103.086 L141.875095,103.086 Z M135.365095,100.048 L130.839095,100.048 L130.839095,86.315 L135.365095,86.315 L135.365095,100.048 Z M173.804657,94.809 L174.827657,91.895 C173.649657,91.7296667 172.52849,91.4455 171.464157,91.0425 C170.399824,90.6395 169.464657,90.1745 168.658657,89.6475 C167.852657,89.1205 167.217157,88.5573333 166.752157,87.958 C166.287157,87.3586667 166.054657,86.7903333 166.054657,86.253 L166.054657,86.253 L166.054657,82.316 L160.412657,82.316 L160.412657,85.354 L162.520657,85.354 L162.520657,86.284 C162.520657,86.842 162.386324,87.3741667 162.117657,87.8805 C161.84899,88.3868333 161.49249,88.8466667 161.048157,89.26 C160.603824,89.6733333 160.09749,90.0298333 159.529157,90.3295 C158.960824,90.6291667 158.387324,90.8616667 157.808657,91.027 C156.98199,91.2543333 156.17599,91.4093333 155.390657,91.492 C154.605324,91.5746667 154.03699,91.616 153.685657,91.616 L153.685657,91.616 L153.685657,94.716 C154.59499,94.6746667 155.437157,94.6023333 156.212157,94.499 C156.987157,94.3956667 157.767324,94.2303333 158.552657,94.003 C159.64799,93.6723333 160.707157,93.228 161.730157,92.67 C162.753157,92.112 163.657324,91.275 164.442657,90.159 C164.79399,90.7376667 165.310657,91.2801667 165.992657,91.7865 C166.674657,92.2928333 167.439324,92.7475 168.286657,93.1505 C169.13399,93.5535 170.038157,93.8945 170.999157,94.1735 C171.960157,94.4525 172.895324,94.6643333 173.804657,94.809 L173.804657,94.809 Z M177.183657,100.606 L177.183657,97.568 L166.023657,97.568 L166.023657,93.6 L162.551657,93.6 L162.551657,97.568 L151.391657,97.568 L151.391657,100.606 L177.183657,100.606 Z M174.300657,110.96 L174.300657,107.922 L158.366657,107.922 L158.366657,102.776 L154.894657,102.776 L154.894657,110.96 L174.300657,110.96 Z M209.608781,97.258 L209.608781,82.316 L206.136781,82.316 L206.136781,88.237 L200.215781,88.237 L200.215781,91.275 L206.136781,91.275 L206.136781,97.258 L209.608781,97.258 Z M185.676781,97.01 C186.627448,97.01 187.536781,96.9015 188.404781,96.6845 C189.272781,96.4675 190.078781,96.142 190.822781,95.708 C191.566781,95.274 192.222948,94.7418333 192.791281,94.1115 C193.359614,93.4811667 193.819448,92.7526667 194.170781,91.926 C194.852781,93.1866667 195.803448,94.2406667 197.022781,95.088 C198.242114,95.9353333 199.616448,96.545 201.145781,96.917 L201.145781,96.917 L202.602781,94.344 C201.672781,94.0753333 200.789281,93.7085 199.952281,93.2435 C199.115281,92.7785 198.386781,92.2463333 197.766781,91.647 C197.146781,91.0476667 196.655948,90.376 196.294281,89.632 C195.932614,88.888 195.751781,88.1026667 195.751781,87.276 L195.751781,87.276 L195.751781,85.881 L201.672781,85.881 L201.672781,82.843 L186.451781,82.843 L186.451781,85.881 L192.217781,85.881 L192.217781,87.276 C192.176448,88.33 191.985281,89.2703333 191.644281,90.097 C191.303281,90.9236667 190.848614,91.6315 190.280281,92.2205 C189.711948,92.8095 189.035114,93.259 188.249781,93.569 C187.464448,93.879 186.606781,94.034 185.676781,94.034 L185.676781,94.034 L185.676781,97.01 Z M209.453781,111.27 L209.453781,98.622 L206.012781,98.622 L206.012781,102.249 L194.883781,102.249 L194.883781,98.622 L191.442781,98.622 L191.442781,111.27 L209.453781,111.27 Z M206.012781,108.294 L194.883781,108.294 L194.883781,105.163 L206.012781,105.163 L206.012781,108.294 Z M234.811343,96.049 L235.989343,93.259 C234.811343,93.0316667 233.679843,92.6751667 232.594843,92.1895 C231.509843,91.7038333 230.55401,91.1251667 229.727343,90.4535 C228.900676,89.7818333 228.239343,89.0378333 227.743343,88.2215 C227.247343,87.4051667 226.999343,86.563 226.999343,85.695 L226.999343,85.695 L226.999343,82.285 L221.357343,82.285 L221.357343,85.323 L223.465343,85.323 L223.465343,85.695 C223.465343,86.5216667 223.320676,87.2811667 223.031343,87.9735 C222.74201,88.6658333 222.364843,89.2806667 221.899843,89.818 C221.434843,90.3553333 220.902676,90.8151667 220.303343,91.1975 C219.70401,91.5798333 219.08401,91.8846667 218.443343,92.112 C217.637343,92.4013333 216.857176,92.5976667 216.102843,92.701 C215.34851,92.8043333 214.795676,92.856 214.444343,92.856 L214.444343,92.856 L214.444343,95.987 C215.353676,95.9456667 216.175176,95.8681667 216.908843,95.7545 C217.64251,95.6408333 218.40201,95.4393333 219.187343,95.15 C219.869343,94.902 220.49451,94.6281667 221.062843,94.3285 C221.631176,94.0288333 222.16851,93.6826667 222.674843,93.29 C223.181176,92.8973333 223.661676,92.453 224.116343,91.957 C224.57101,91.461 225.00501,90.8926667 225.418343,90.252 C225.74901,90.934 226.239843,91.5901667 226.890843,92.2205 C227.541843,92.8508333 228.29101,93.4295 229.138343,93.9565 C229.985676,94.4835 230.89501,94.9278333 231.866343,95.2895 C232.837676,95.6511667 233.819343,95.9043333 234.811343,96.049 L234.811343,96.049 Z M226.968343,110.247 L226.968343,101.691 L238.128343,101.691 L238.128343,98.653 L212.336343,98.653 L212.336343,101.691 L223.496343,101.691 L223.496343,110.247 L226.968343,110.247 Z M269.313467,97.568 L269.313467,91.492 L273.405467,91.492 L273.405467,88.454 L269.313467,88.454 L269.313467,82.316 L265.841467,82.316 L265.841467,97.568 L269.313467,97.568 Z M261.408467,96.359 L261.408467,82.688 L257.998467,82.688 L257.998467,86.625 L250.744467,86.625 L250.744467,82.688 L247.334467,82.688 L247.334467,96.359 L261.408467,96.359 Z M257.998467,93.352 L250.744467,93.352 L250.744467,89.601 L257.998467,89.601 L257.998467,93.352 Z M261.315467,111.859 C262.390134,111.859 263.4183,111.704 264.399967,111.394 C265.381634,111.084 266.244467,110.6345 266.988467,110.0455 C267.732467,109.4565 268.321467,108.738333 268.755467,107.891 C269.189467,107.043667 269.406467,106.082667 269.406467,105.008 C269.406467,103.933333 269.189467,102.972333 268.755467,102.125 C268.321467,101.277667 267.732467,100.5595 266.988467,99.9705 C266.244467,99.3815 265.381634,98.932 264.399967,98.622 C263.4183,98.312 262.390134,98.157 261.315467,98.157 C260.2408,98.157 259.212634,98.312 258.230967,98.622 C257.2493,98.932 256.386467,99.3815 255.642467,99.9705 C254.898467,100.5595 254.309467,101.277667 253.875467,102.125 C253.441467,102.972333 253.224467,103.933333 253.224467,105.008 C253.224467,106.082667 253.441467,107.043667 253.875467,107.891 C254.309467,108.738333 254.898467,109.4565 255.642467,110.0455 C256.386467,110.6345 257.2493,111.084 258.230967,111.394 C259.212634,111.704 260.2408,111.859 261.315467,111.859 Z M261.315467,108.945 C260.654134,108.945 260.044467,108.857167 259.486467,108.6815 C258.928467,108.505833 258.437634,108.252667 258.013967,107.922 C257.5903,107.591333 257.259634,107.178 257.021967,106.682 C256.7843,106.186 256.665467,105.628 256.665467,105.008 C256.665467,104.388 256.7843,103.83 257.021967,103.334 C257.259634,102.838 257.5903,102.424667 258.013967,102.094 C258.437634,101.763333 258.928467,101.510167 259.486467,101.3345 C260.044467,101.158833 260.654134,101.071 261.315467,101.071 C261.956134,101.071 262.560634,101.158833 263.128967,101.3345 C263.6973,101.510167 264.1933,101.763333 264.616967,102.094 C265.040634,102.424667 265.3713,102.838 265.608967,103.334 C265.846634,103.83 265.965467,104.388 265.965467,105.008 C265.965467,105.628 265.846634,106.186 265.608967,106.682 C265.3713,107.178 265.040634,107.591333 264.616967,107.922 C264.1933,108.252667 263.6973,108.505833 263.128967,108.6815 C262.560634,108.857167 261.956134,108.945 261.315467,108.945 Z M297.833029,97.351 L297.833029,82.316 L294.361029,82.316 L294.361029,88.175 L289.742029,88.175 L289.742029,91.213 L294.361029,91.213 L294.361029,97.351 L297.833029,97.351 Z M288.440029,96.204 L288.440029,82.688 L285.030029,82.688 L285.030029,86.749 L277.931029,86.749 L277.931029,82.688 L274.521029,82.688 L274.521029,96.204 L288.440029,96.204 Z M285.030029,93.228 L277.931029,93.228 L277.931029,89.725 L285.030029,89.725 L285.030029,93.228 Z M297.678029,111.27 L297.678029,98.746 L294.237029,98.746 L294.237029,102.311 L283.108029,102.311 L283.108029,98.746 L279.667029,98.746 L279.667029,111.27 L297.678029,111.27 Z M294.237029,108.294 L283.108029,108.294 L283.108029,105.225 L294.237029,105.225 L294.237029,108.294 Z" id="휴대폰보험가이드분실파손접수방법"></path>
        </g>
    </g>
</svg>